<svg id="fill" xmlns="http://www.w3.org/2000/svg" viewBox="0 0 48 48"><title>Fill_</title><path fill="#fff" d="M45.64,19.78l-9.32-9.2a2.08,2.08,0,0,0-2.89,0l-2.86,2.83a2,2,0,0,0,0,2.83L34.31,20H18a2,2,0,0,0-2,2v4a2,2,0,0,0,2,2H34.35l-3.76,3.76a2,2,0,0,0,0,2.83l2.83,2.83a2,2,0,0,0,2.83,0l9.39-9.16C46,27.88,48,26.06,48,24.19S46,20.18,45.64,19.78Z"/><path fill="#fff" d="M24,32l-2,2,6,6H1.92A1.92,1.92,0,0,1,0,38.08V9.92A1.92,1.92,0,0,1,1.92,8H28l-6,6,2,2H13.93A1.93,1.93,0,0,0,12,17.93V30.09A1.93,1.93,0,0,0,13.93,32H24Z"/></svg>