<svg id="fill" xmlns="http://www.w3.org/2000/svg" viewBox="0 0 48 48"><title>Filled_</title><path d="M43.93,8L36,0V6a2,2,0,0,0,2,2h5.93Z"/><path d="M17.33,34.12a2,2,0,0,0-.73-0.52,2.37,2.37,0,0,0-.95-0.18,2.35,2.35,0,0,0-.93.18,2,2,0,0,0-.73.52,2.51,2.51,0,0,0-.48.81A3.06,3.06,0,0,0,13.34,36a3.19,3.19,0,0,0,.17,1.08,2.37,2.37,0,0,0,.48.82,2.19,2.19,0,0,0,.73.52,2.25,2.25,0,0,0,.93.19,2.29,2.29,0,0,0,.93-0.19,2.18,2.18,0,0,0,.73-0.52,2.37,2.37,0,0,0,.48-0.82A3.19,3.19,0,0,0,18,36a3.06,3.06,0,0,0-.17-1.06A2.52,2.52,0,0,0,17.33,34.12Z"/><path d="M23.21,33.5h-1v5h1A2.35,2.35,0,0,0,25,37.84,2.67,2.67,0,0,0,25.65,36,2.54,2.54,0,0,0,25,34.17,2.36,2.36,0,0,0,23.21,33.5Z"/><path d="M34,12a2,2,0,0,1-2-2V0H6A2,2,0,0,0,4,2V46a1.81,1.81,0,0,0,1.5,2H42a2,2,0,0,0,2-2V12H34ZM19.36,37.6a3.81,3.81,0,0,1-.83,1.28,3.72,3.72,0,0,1-1.26.83,4.52,4.52,0,0,1-3.23,0,3.71,3.71,0,0,1-1.27-.83,3.81,3.81,0,0,1-.83-1.28,4.27,4.27,0,0,1-.3-1.61,4.17,4.17,0,0,1,.3-1.6,3.78,3.78,0,0,1,.83-1.26A3.7,3.7,0,0,1,14,32.3a4.61,4.61,0,0,1,3.23,0,3.71,3.71,0,0,1,1.26.82,3.78,3.78,0,0,1,.83,1.26,4.17,4.17,0,0,1,.3,1.6A4.27,4.27,0,0,1,19.36,37.6Zm6.92,1.25a4.42,4.42,0,0,1-3.2,1H20.55V32.14h2.54a4.49,4.49,0,0,1,3.17,1A3.67,3.67,0,0,1,27.34,36,3.83,3.83,0,0,1,26.29,38.85Zm10.07,1H34.77V34.53l-2.42,3.34-2.41-3.34v5.35H28.35V32.14H30l2.33,3.3,2.34-3.3h1.66v7.73Z"/></svg>