<svg id="fill" xmlns="http://www.w3.org/2000/svg" viewBox="0 0 48 48"><title>Fill_</title><path fill="#fff" d="M35.3,28H38a2,2,0,0,0,2-2V22a2,2,0,0,0-2-2H35.3A12,12,0,0,0,28,12.7V10a2,2,0,0,0-2-2H22a2,2,0,0,0-2,2v2.7A12,12,0,0,0,12.7,20H10a2,2,0,0,0-2,2v4a2,2,0,0,0,2,2h2.7A12,12,0,0,0,20,35.3V38a2,2,0,0,0,2,2h4a2,2,0,0,0,2-2V35.3A12,12,0,0,0,35.3,28ZM24,20a4,4,0,1,1-4,4A4,4,0,0,1,24,20Z"/><path fill="#fff" d="M46,0H34a2,2,0,0,0,0,4h8a2,2,0,0,1,2,2v8a2,2,0,0,0,4,0V2A2,2,0,0,0,46,0Z"/><path fill="#fff" d="M2,16a2,2,0,0,0,2-2V6A2,2,0,0,1,6,4h8a2,2,0,0,0,0-4H2A2,2,0,0,0,0,2V14A2,2,0,0,0,2,16Z"/><path fill="#fff" d="M46,32a2,2,0,0,0-2,2v8a2,2,0,0,1-2,2H34a2,2,0,0,0,0,4H46a2,2,0,0,0,2-2V34A2,2,0,0,0,46,32Z"/><path fill="#fff" d="M14,44H6a2,2,0,0,1-2-2V34a2,2,0,0,0-4,0V46a2,2,0,0,0,2,2H14A2,2,0,0,0,14,44Z"/></svg>