<svg id="fill" xmlns="http://www.w3.org/2000/svg" viewBox="0 0 48 48"><title>Filled_</title><path d="M34.66,33a13.51,13.51,0,0,0-6.87-2.92,8.27,8.27,0,1,0-7.43.11c-5,.76-8.76,3.16-9.58,7.84a1.68,1.68,0,0,0,1.65,2H35.79a1.68,1.68,0,0,0,1.65-2A8.53,8.53,0,0,0,34.66,33Z"/><path d="M11.68,22.59a12.37,12.37,0,0,1,10.7-12.22A9.26,9.26,0,1,0,8.92,22.92a13.39,13.39,0,0,0-5.46,2.71A10,10,0,0,0,0,33.58,1.44,1.44,0,0,0,1.5,35H7.69a12.16,12.16,0,0,1,5.56-6.65A12.44,12.44,0,0,1,11.68,22.59Z"/><path d="M44.54,25.64a13.39,13.39,0,0,0-5.46-2.71A9.25,9.25,0,1,0,25.63,10.35,12.41,12.41,0,0,1,36.49,22.59a12.27,12.27,0,0,1-1.34,5.7,14.7,14.7,0,0,1,2.32,1.56A12.91,12.91,0,0,1,41.1,35h5.4A1.44,1.44,0,0,0,48,33.58,10,10,0,0,0,44.54,25.64Z"/></svg>