<svg id="fill" xmlns="http://www.w3.org/2000/svg" viewBox="0 0 48 48"><title>Fill_</title><path d="M28,46.36v-2a22.14,22.14,0,0,0,3-.63,14.45,14.45,0,0,0,5-2.48,10.39,10.39,0,0,0,3-3.73,10.6,10.6,0,0,0,1-4.59,9.82,9.82,0,0,0-1.67-6,12.09,12.09,0,0,0-4.17-3.56,22.46,22.46,0,0,0-5.42-2q-2.92-.67-5.42-1.34a18.7,18.7,0,0,1-4.17-1.58,2.92,2.92,0,0,1-1.67-2.7,3.49,3.49,0,0,1,1.67-2.95,8.12,8.12,0,0,1,4.7-1.17,25.47,25.47,0,0,1,5.63.64,28,28,0,0,1,3.66,1.13,2.31,2.31,0,0,0,2.88-1l1.51-3a1.85,1.85,0,0,0-1.06-2.58,42.72,42.72,0,0,0-5.16-1.65C30.17,4.93,29,4.74,28,4.6v-3A1.64,1.64,0,0,0,26.36,0H21.64A1.64,1.64,0,0,0,20,1.64v3a17.74,17.74,0,0,0-2.73.57,16.19,16.19,0,0,0-5,2.47,11,11,0,0,0-3.09,3.67,10.08,10.08,0,0,0-1.09,4.51,9.46,9.46,0,0,0,1.65,5.87,12.27,12.27,0,0,0,4.16,3.5,23.28,23.28,0,0,0,5.41,2q2.92,0.7,5.41,1.36a17.83,17.83,0,0,1,4.17,1.61A3,3,0,0,1,30.59,33a3.56,3.56,0,0,1-1.7,3.06,9,9,0,0,1-5.09,1.17,21.28,21.28,0,0,1-6.31-1,32,32,0,0,1-4.06-1.6,2.42,2.42,0,0,0-3,.78L8.36,38.59a1.79,1.79,0,0,0,.78,2.63,55.25,55.25,0,0,0,5.92,2.11,27.44,27.44,0,0,0,4.93.95v2.08A1.64,1.64,0,0,0,21.64,48h4.72A1.64,1.64,0,0,0,28,46.36Z"/></svg>