<svg id="fill" xmlns="http://www.w3.org/2000/svg" viewBox="0 0 48 48"><title>Filled_</title><polygon points="31.59 12 31.6 11.99 31.59 11.98 31.57 12 31.59 12"/><path d="M46.84,41.24l-7.11-7.12A21.76,21.76,0,0,0,37.19,6.38h0A21.79,21.79,0,0,0,6.37,37.19a21.78,21.78,0,0,0,27.76,2.54l7.1,7.11A4,4,0,0,0,46.84,41.24ZM33.11,33A15.94,15.94,0,0,1,22,37.65,16.44,16.44,0,0,1,10.67,33a16.23,16.23,0,0,1-2.58-3.38L8,29.53a2,2,0,0,1-.6-1.29A15.8,15.8,0,0,1,21.8,5.92,15.74,15.74,0,0,1,29.63,8a31.92,31.92,0,0,1,4.64,4,15.84,15.84,0,0,1,3.28,8,16.22,16.22,0,0,1,.11,1.74A16.84,16.84,0,0,1,37.5,24a15.88,15.88,0,0,1-1.05,4A15.28,15.28,0,0,1,33.11,33Z"/><path d="M8,29.53l0.11,0.09q-0.39-.67-0.71-1.38A2,2,0,0,0,8,29.53Z"/><path d="M25.05,12h3.44A11.73,11.73,0,0,0,24,10.13v0.82A1.05,1.05,0,0,0,25.05,12Z"/><path d="M24,17.05v1.9A1.05,1.05,0,0,0,25.05,20h8.5a11.74,11.74,0,0,0-1.38-4H25.05A1.05,1.05,0,0,0,24,17.05Z"/><path d="M28,25.05v1.9A1.05,1.05,0,0,0,29.05,28H32a11.63,11.63,0,0,0,1.53-4H29.05A1.05,1.05,0,0,0,28,25.05Z"/><path d="M24,25.59a10.38,10.38,0,0,0-5.81-2.51,8,8,0,0,0,1.92-13A11.83,11.83,0,0,0,9.92,21.78c0,0.22,0,.43,0,0.64L10,23.29a12,12,0,0,0,3.46,6.88A11.4,11.4,0,0,0,15.94,32h9.61a0.94,0.94,0,0,0,.95-1A8.55,8.55,0,0,0,24,25.59Z"/></svg>