<svg id="fill" xmlns="http://www.w3.org/2000/svg" viewBox="0 0 48 48"><title>Filled_</title><path fill="#fff" d="M46.91,4H29.11A1.09,1.09,0,0,0,28,5.09V6.9A1.09,1.09,0,0,0,29.1,8H41.28L28,24.8v2.11A1.09,1.09,0,0,0,29.09,28H46.91A1.09,1.09,0,0,0,48,26.91V25.09A1.09,1.09,0,0,0,46.91,24H36.1L48,7.26V5.09A1.09,1.09,0,0,0,46.91,4Z"/><path fill="#fff" d="M28,19.36V17.09A1.09,1.09,0,0,0,26.91,16H13.09A1.09,1.09,0,0,0,12,17.09v1.82A1.09,1.09,0,0,0,13.09,20h9.17L12.08,32.73,12,36h15.9l0-4H17.86Z"/><path fill="#fff" d="M12,31.5V29.09A1.09,1.09,0,0,0,10.91,28H1.09A1.09,1.09,0,0,0,0,29.09v1.82A1.09,1.09,0,0,0,1.09,32H6.21L0,39.07v3.84A1.09,1.09,0,0,0,1.09,44h9.82A1.09,1.09,0,0,0,12,42.91V41.09A1.09,1.09,0,0,0,10.91,40H4.45Z"/></svg>