<svg id="fill" xmlns="http://www.w3.org/2000/svg" viewBox="0 0 48 48"><title>Filled_</title><path d="M38,8h5.93L36,0V6A2,2,0,0,0,38,8Z"/><path d="M34,12a2,2,0,0,1-2-2V0H6A2,2,0,0,0,4,2V46a1.81,1.81,0,0,0,1.5,2H42a2,2,0,0,0,2-2V12H34ZM15,40l-1.72-2.72L11.61,40h-2l2.64-4.08L9.72,32h2l1.62,2.56L15,32h2l-2.56,3.92L17.06,40H15Zm9,0H18V32h2v7h4v1Zm6.24-1.41a2,2,0,0,1-.56.74,2.64,2.64,0,0,1-.93.49,4.37,4.37,0,0,1-1.31.18,5.83,5.83,0,0,1-1.7-.25,5.69,5.69,0,0,1-1.39-.6l0.8-1.3a5.53,5.53,0,0,0,1.11.5,3.7,3.7,0,0,0,1.17.19,1.58,1.58,0,0,0,.95-0.23,0.72,0.72,0,0,0,.31-0.61,0.61,0.61,0,0,0-.31-0.55,3.18,3.18,0,0,0-.77-0.32l-1-.27a4.11,4.11,0,0,1-1-.4,2.33,2.33,0,0,1-.77-0.7,2,2,0,0,1-.31-1.16,2.1,2.1,0,0,1,.75-1.62,2.77,2.77,0,0,1,.89-0.49,3.64,3.64,0,0,1,1.2-.18,6,6,0,0,1,1.45.17,7.18,7.18,0,0,1,1.34.48L29.53,34a5.09,5.09,0,0,0-1-.38,4.41,4.41,0,0,0-1-.13,1.43,1.43,0,0,0-.87.23,0.7,0.7,0,0,0-.31.59,0.58,0.58,0,0,0,.31.53,3.33,3.33,0,0,0,.77.31l1,0.27a4,4,0,0,1,1,.39,2.29,2.29,0,0,1,.77.71,2,2,0,0,1,.31,1.19A2.22,2.22,0,0,1,30.24,38.59ZM36.35,40l-1.72-2.72L32.92,40h-2l2.64-4.08L31,32h2l1.62,2.56L36.3,32h2l-2.56,3.92L38.36,40h-2Z"/></svg>