<svg id="fill" xmlns="http://www.w3.org/2000/svg" viewBox="0 0 48 48"><title>Filled_</title><path fill="#fff" d="M43.93,8L36,0V6a2,2,0,0,0,2,2h5.93Z"/><path fill="#fff" d="M34,12a2,2,0,0,1-2-2V0H6A2,2,0,0,0,4,2V46a1.81,1.81,0,0,0,1.5,2H42a2,2,0,0,0,2-2V12H34ZM19.14,40l-1.78-2.71L15.58,40h-2l2.73-4.05L13.63,32h2.09l1.68,2.55L19.08,32h2l-2.65,3.89L21.22,40H19.14Zm8.49,0H22.11V32h1.68v6.55h3.85V40Zm6.64-1.38a2,2,0,0,1-.56.74,2.64,2.64,0,0,1-.93.49,4.37,4.37,0,0,1-1.31.18,5.84,5.84,0,0,1-1.7-.25,5.69,5.69,0,0,1-1.39-.6l0.8-1.3a5.53,5.53,0,0,0,1.1.5,3.71,3.71,0,0,0,1.17.19,1.59,1.59,0,0,0,.94-0.23,0.72,0.72,0,0,0,.31-0.61,0.6,0.6,0,0,0-.31-0.55,3.18,3.18,0,0,0-.77-0.32l-1-.27a4.12,4.12,0,0,1-1-.4,2.32,2.32,0,0,1-.77-0.69,2,2,0,0,1-.31-1.16,2.09,2.09,0,0,1,.75-1.62,2.77,2.77,0,0,1,.89-0.49,3.65,3.65,0,0,1,1.2-.18,6,6,0,0,1,1.45.17,7.19,7.19,0,0,1,1.34.48L33.55,34a5.09,5.09,0,0,0-1-.38,4.41,4.41,0,0,0-1-.13,1.43,1.43,0,0,0-.87.23,0.7,0.7,0,0,0-.31.58,0.58,0.58,0,0,0,.31.53,3.32,3.32,0,0,0,.77.31l1,0.26a4,4,0,0,1,1,.39,2.29,2.29,0,0,1,.77.71,2,2,0,0,1,.31,1.18A2.21,2.21,0,0,1,34.27,38.6Z"/></svg>