<svg id="fill" xmlns="http://www.w3.org/2000/svg" viewBox="0 0 48 48"><defs><style>.cls-1{fill:none;}</style></defs><title>Fill_</title><rect x="16" y="36" width="16" height="4"/><rect class="cls-1" x="12" y="4" width="24" height="12"/><rect class="cls-1" x="12" y="24" width="24" height="20"/><path d="M44.26,16H44V13.86A1.86,1.86,0,0,0,42.14,12H40V1.91A1.91,1.91,0,0,0,38.09,0H9.91A1.91,1.91,0,0,0,8,1.91V12H5.86A1.86,1.86,0,0,0,4,13.86V16H3.74A3.74,3.74,0,0,0,0,19.74v14.4A1.86,1.86,0,0,0,1.86,36H8V46.14A1.86,1.86,0,0,0,9.86,48H38.14A1.86,1.86,0,0,0,40,46.14V36h6.14A1.86,1.86,0,0,0,48,34.14V19.74A3.74,3.74,0,0,0,44.26,16ZM12,4H36V16H12V4ZM36,44H12V24H36V44Zm2-22a2,2,0,1,1,2-2A2,2,0,0,1,38,22Z"/><rect x="16" y="28" width="16" height="4"/></svg>