<svg id="fill" xmlns="http://www.w3.org/2000/svg" viewBox="0 0 48 48"><title>Filled_</title><path d="M43.93,8L36,0V6a2,2,0,0,0,2,2h5.93Z"/><polygon points="25.33 37.17 25.33 33.83 22.83 37.17 25.33 37.17"/><polygon points="32.15 33.94 31.09 37.18 33.24 37.18 32.17 33.94 32.15 33.94"/><path d="M34,12a2,2,0,0,1-2-2V0H6A2,2,0,0,0,4,2V46a1.81,1.81,0,0,0,1.5,2H42a2,2,0,0,0,2-2V12H34ZM20.24,40H18.59V34.49l-2.5,3.45L13.6,34.49V40H12V32h1.74l2.41,3.42L18.53,32h1.71v8ZM28,38.45H27V40H25.33V38.45H21.81l-0.54-1.23,4-5.2H27v5.15h1v1.28ZM34.19,40l-0.5-1.5h-3L30.16,40H28.3l2.89-8h2L36,40H34.19Z"/></svg>