<svg id="fill" xmlns="http://www.w3.org/2000/svg" viewBox="0 0 48 48"><title>Filled_</title><path d="M31.87,31.92A7.91,7.91,0,0,0,20,25.09L30.79,35.91A7.87,7.87,0,0,0,31.87,31.92Z"/><path d="M34.08,12h3.84A2.08,2.08,0,0,0,40,9.92v-6A3.9,3.9,0,0,0,36.1,0H11.9A3.9,3.9,0,0,0,8,3.9V44.1A3.9,3.9,0,0,0,11.9,48H36.1A3.9,3.9,0,0,0,40,44.1V19.74A3.74,3.74,0,0,0,36.26,16H17.92A1.92,1.92,0,0,1,16,14.08V9.92A1.92,1.92,0,0,1,17.92,8H30.08A1.92,1.92,0,0,1,32,9.92h0A2.08,2.08,0,0,0,34.08,12ZM24,19.92a12,12,0,1,1-12,12A12,12,0,0,1,24,19.92Z"/><path d="M24,39.84A7.87,7.87,0,0,0,28,38.71L17.16,27.87A7.91,7.91,0,0,0,24,39.84Z"/></svg>