<svg id="fill" xmlns="http://www.w3.org/2000/svg" viewBox="0 0 48 48"><defs><style>.cls-1{fill:none;}</style></defs><title>Fill_</title><circle style="fill:white;" class="cls-1" cx="32.06" cy="16.06" r="4.06"/><circle style="fill:white;" class="cls-1" cx="16" cy="16.06" r="4.06"/><path fill="#fff" d="M24,0A24,24,0,1,0,48,24,24,24,0,0,0,24,0Zm8.07,11.93A4.07,4.07,0,1,1,28,16,4.07,4.07,0,0,1,32.07,11.93ZM16,11.93A4.07,4.07,0,1,1,11.92,16,4.07,4.07,0,0,1,16,11.93Zm8,28.66A15.5,15.5,0,0,1,8.51,25.1a1.73,1.73,0,0,1,3.45,0A12,12,0,0,0,36,25.1a1.73,1.73,0,0,1,3.45,0A15.5,15.5,0,0,1,24,40.59Z"/></svg>