<svg id="fill" xmlns="http://www.w3.org/2000/svg" viewBox="0 0 48 48"><title>Filled_</title><path d="M1.92,4A1.92,1.92,0,0,0,0,5.92v4.15A1.92,1.92,0,0,0,1.92,12H12V4H1.92Z"/><path d="M46.08,12A1.92,1.92,0,0,0,48,10.08V5.92A1.92,1.92,0,0,0,46.08,4H24v8H46.08Z"/><path d="M1.92,20A1.92,1.92,0,0,0,0,21.92v4.15A1.92,1.92,0,0,0,1.92,28H20V20H1.92Z"/><path d="M46.08,28A1.92,1.92,0,0,0,48,26.08V21.92A1.92,1.92,0,0,0,46.08,20H32v8H46.08Z"/><path d="M1.92,36A1.92,1.92,0,0,0,0,37.92v4.15A1.92,1.92,0,0,0,1.92,44H8V36H1.92Z"/><path d="M46.08,44A1.92,1.92,0,0,0,48,42.08V37.92A1.92,1.92,0,0,0,46.08,36H20v8H46.08Z"/><path d="M12,34V46a2,2,0,0,0,4,0V34A2,2,0,0,0,12,34Z"/><path d="M16,2V14a2,2,0,1,0,4,0V2A2,2,0,1,0,16,2Z"/><path d="M24,18V30a2,2,0,1,0,4,0V18A2,2,0,1,0,24,18Z"/></svg>