<svg id="fill" xmlns="http://www.w3.org/2000/svg" viewBox="0 0 48 48"><title>Fill_</title><path d="M40,25.91V10a2,2,0,0,0-2-2H22a2,2,0,0,0-2,2v5a2,2,0,0,0,2,2h4.39L14,29.38a0.68,0.68,0,0,0,0,1l4.47,4.13a0.87,0.87,0,0,0,1.19,0L32,22.26V26a2,2,0,0,0,2,2l4,0A2,2,0,0,0,40,25.91Z"/><path d="M21.91,37.88l-1.57,1.67a1.53,1.53,0,0,1-2.17.06L16.45,38l-5.67-5.39L9,30.9a1.53,1.53,0,0,1,0-2.24L10.75,27,16,22.22l0-5.56V16H2a2,2,0,0,0-2,2V46a2,2,0,0,0,2,2H29.8a2,2,0,0,0,2-2L31.9,32H28Z"/><path d="M46,0H14a2,2,0,0,0-2,2v8a2,2,0,0,0,4,0V6a2,2,0,0,1,2-2H42a2,2,0,0,1,2,2V30a2,2,0,0,1-2,2H38a2,2,0,0,0,0,4h8a2,2,0,0,0,2-2V2A2,2,0,0,0,46,0Z"/></svg>