<svg id="fill" xmlns="http://www.w3.org/2000/svg" viewBox="0 0 48 48"><title>Fill_</title><path d="M44.93,26.84a20.26,20.26,0,0,0-.18-6.72,35.8,35.8,0,0,0,3-2.1l-0.08-.35-0.28-.9L47,15.48c-0.16-.46-0.39-0.93-0.6-1.42a21.94,21.94,0,0,0-1.31-2.56,6.69,6.69,0,0,0-.5-0.81l-0.2-.3a35.52,35.52,0,0,0-3.54.79,21.23,21.23,0,0,0-4.89-4.62A36.21,36.21,0,0,0,36.55,3s-0.45-.26-1.15-0.62c-0.35-.18-0.75-0.41-1.19-0.61l-1.42-.58A26.8,26.8,0,0,0,30.06.27C29.3,0.08,28.78,0,28.78,0a32.3,32.3,0,0,0-1.95,3.07,20.27,20.27,0,0,0-6.72.18,35.81,35.81,0,0,0-2.1-3l-0.35.08-0.9.28L15.48,1c-0.46.16-.93,0.39-1.42,0.6a21.93,21.93,0,0,0-2.56,1.31,6.69,6.69,0,0,0-.81.5l-0.3.2a35.54,35.54,0,0,0,.79,3.54h0a21.22,21.22,0,0,0-4.62,4.88h0A36.19,36.19,0,0,0,3,11.45s-0.26.45-.62,1.15c-0.18.35-.41,0.75-0.61,1.19L1.16,15.21a26.79,26.79,0,0,0-.89,2.73C0.08,18.7,0,19.22,0,19.22a32.3,32.3,0,0,0,3.07,1.95,20.26,20.26,0,0,0,.18,6.72h0a35.84,35.84,0,0,0-3,2.1l0.08,0.35,0.28,0.9L1,32.52c0.16,0.46.39,0.93,0.6,1.42a22,22,0,0,0,1.31,2.56,6.7,6.7,0,0,0,.5.81l0.2,0.3a35.53,35.53,0,0,0,3.55-.79h0a21.22,21.22,0,0,0,4.88,4.62h0A36.17,36.17,0,0,0,11.45,45s0.45,0.26,1.15.62c0.35,0.18.75,0.41,1.19,0.61l1.42,0.58a26.8,26.8,0,0,0,2.73.89c0.76,0.19,1.28.27,1.28,0.27a32.28,32.28,0,0,0,1.95-3.07h0a20.26,20.26,0,0,0,6.72-.18h0a35.83,35.83,0,0,0,2.1,3l0.35-.08,0.9-.28L32.52,47c0.46-.16.93-0.39,1.42-0.6a21.93,21.93,0,0,0,2.56-1.31,6.7,6.7,0,0,0,.81-0.5l0.3-.2a35.52,35.52,0,0,0-.79-3.54,21.22,21.22,0,0,0,4.62-4.88,36.2,36.2,0,0,0,3.61.63s0.26-.45.62-1.15c0.18-.35.41-0.75,0.61-1.19l0.58-1.42a26.85,26.85,0,0,0,.89-2.73c0.19-.76.27-1.28,0.27-1.28A32.27,32.27,0,0,0,44.93,26.84ZM24,32.17A8.17,8.17,0,1,1,32.17,24,8.17,8.17,0,0,1,24,32.17Z"/></svg>