<svg id="fill" xmlns="http://www.w3.org/2000/svg" viewBox="0 0 48 48"><title>Fill_</title><path d="M37.7,27.67A12.27,12.27,0,0,0,35.3,28c-0.77.18-1.38,0.35-1.38,0.35L19.5,14s0.18-.61.35-1.38a12.28,12.28,0,0,0,.35-2.39,10,10,0,0,0-2.9-7,9.84,9.84,0,0,0-7-2.92c-0.3,0-.63,0-1,0s-0.67.08-1,.13l1.82,1.88L12,4.16V8L8,12H4.28L2.46,10.19,0.65,8.39C0.59,8.68.54,9,.51,9.3a8.73,8.73,0,0,0-.05.94,9.88,9.88,0,0,0,9.88,9.91,12.82,12.82,0,0,0,2.31-.3c0.73-.15,1.3-0.3,1.3-0.3L28.33,33.94s-0.15.57-.3,1.3a12.83,12.83,0,0,0-.3,2.31,9.88,9.88,0,0,0,9.91,9.88,8.87,8.87,0,0,0,.95-0.05c0.31,0,.63-0.08.93-0.14l-1.77-1.82L36,43.59V39.88L39.88,36h3.84l1.88,1.76,1.88,1.76c0.05-.31.1-0.65,0.13-1s0-.66,0-1a9.84,9.84,0,0,0-2.92-7A10,10,0,0,0,37.7,27.67Z"/></svg>