<svg id="fill" xmlns="http://www.w3.org/2000/svg" viewBox="0 0 48 48"><title>Filled_</title><path d="M43.93,8L36,0V6a2,2,0,0,0,2,2h5.93Z"/><path d="M15.48,36.57H13.71v2.07h1.77a1.48,1.48,0,0,0,.93-0.26,0.93,0.93,0,0,0,.34-0.79,0.89,0.89,0,0,0-.34-0.77A1.54,1.54,0,0,0,15.48,36.57Z"/><path d="M32.92,33.4H31.31v2.37h1.6a1.41,1.41,0,0,0,1-.34,1.17,1.17,0,0,0,.33-0.85,1.14,1.14,0,0,0-.34-0.85A1.41,1.41,0,0,0,32.92,33.4Z"/><path d="M34,12a2,2,0,0,1-2-2V0H6A2,2,0,0,0,4,2V46a1.81,1.81,0,0,0,1.5,2H42a2,2,0,0,0,2-2V12H34ZM18.27,38.71a1.94,1.94,0,0,1-.59.72,2.74,2.74,0,0,1-.94.44,4.67,4.67,0,0,1-1.22.15H12V32h3.36a4.38,4.38,0,0,1,1.25.16,2.51,2.51,0,0,1,.88.45,1.79,1.79,0,0,1,.52.68,2.14,2.14,0,0,1,.17.86,1.67,1.67,0,0,1-.32,1,2.15,2.15,0,0,1-.88.66,2.49,2.49,0,0,1,1.08.67,1.69,1.69,0,0,1,.42,1.19A2.23,2.23,0,0,1,18.27,38.71ZM28,40H26.37V34.49l-2.5,3.45-2.49-3.45V40H19.73V32h1.74l2.41,3.42L26.3,32H28v8Zm7.83-4.53a2.12,2.12,0,0,1-.53.82,2.71,2.71,0,0,1-.95.58,4.06,4.06,0,0,1-1.44.22H31.31V40H29.57V32h3.35a4.24,4.24,0,0,1,1.45.22,2.6,2.6,0,0,1,1,.57,2.1,2.1,0,0,1,.52.81A2.82,2.82,0,0,1,35.85,35.49Z"/><path d="M16.14,35.08a0.93,0.93,0,0,0,.3-0.72,0.88,0.88,0,0,0-.3-0.69,1.35,1.35,0,0,0-.92-0.27H13.71v2h1.51A1.33,1.33,0,0,0,16.14,35.08Z"/></svg>