<svg id="fill" xmlns="http://www.w3.org/2000/svg" viewBox="0 0 48 48"><title>Fill_</title><path d="M10.32,36l14-24.53L40.83,33.82a4,4,0,0,0,6.4-4.74L27.12,1.64A4,4,0,0,0,20.46,2L0.5,37.62a4.43,4.43,0,0,0,0,4.18A4.22,4.22,0,0,0,4,44H8l4.83-8H10.32Z"/><path d="M15.76,48a1,1,0,0,1-.62-0.52c-1.07-1.81-.12-5.76,1.55-9.1L22.3,27.11a1.12,1.12,0,0,1,1.52-.71,1.84,1.84,0,0,1,.51,2.05L20.15,42.57C19,46.33,17.11,48.3,15.76,48Z"/><path d="M27.86,35.59h5.78a4.08,4.08,0,0,1,4.12,3.57,4,4,0,0,1-3.95,4.34H23.9Z"/></svg>