<svg id="fill" xmlns="http://www.w3.org/2000/svg" viewBox="0 0 48 48"><title>Fill_</title><polygon points="4 8 16 8 16 4 0 4 0 16 4 16 4 8"/><polygon points="48 4 32 4 32 8 44 8 44 16 48 16 48 4"/><rect x="20" y="4" width="8" height="4"/><polygon points="44 40 32 40 32 44 48 44 48 32 44 32 44 40"/><rect x="20" y="40" width="8" height="4"/><polygon points="4 40 4 32 0 32 0 44 16 44 16 40 4 40"/><rect y="20" width="4" height="8"/><rect x="44" y="20" width="4" height="8"/><path d="M36,26V22a2,2,0,0,0-2-2H28V14a2,2,0,0,0-2-2H22a2,2,0,0,0-2,2v6H14a2,2,0,0,0-2,2v4a2,2,0,0,0,2,2h6v6a2,2,0,0,0,2,2h4a2,2,0,0,0,2-2V28h6A2,2,0,0,0,36,26Z"/></svg>