<svg id="fill" xmlns="http://www.w3.org/2000/svg" viewBox="0 0 48 48"><title>Filled_</title><path d="M32.9,24.39c0,0.1,0,.2,0,0.3,0,4.85-4.09,8.22-9,8.22a10.49,10.49,0,0,1-1.13-.07l-6.93,5.78A25.42,25.42,0,0,0,24,40c13.62,0,24-10.73,24-16.11,0-2.24-1.71-5.32-4.69-8.17Z"/><path d="M15.13,23.58A9.22,9.22,0,0,1,24,15.45a5.49,5.49,0,0,1,.82.07l7.49-6.24A27.7,27.7,0,0,0,24,8C9.57,8,0,19.31,0,23.89,0,25.86,1.85,29,5,32Z"/><path d="M44.69,4.23L0.75,40.69a2,2,0,0,0-.26,2.82h0a2,2,0,0,0,2.82.26L47.26,7.31a2,2,0,0,0,.26-2.82h0A2,2,0,0,0,44.69,4.23Z"/></svg>