<svg id="fill" xmlns="http://www.w3.org/2000/svg" viewBox="0 0 48 48"><title>Fill_</title><path fill="#fff" d="M42.49,20.06h3A2.49,2.49,0,0,0,48,17.57v-15A2.49,2.49,0,0,0,45.51.1h-15A2.49,2.49,0,0,0,28,2.58v4a2.49,2.49,0,0,0,2.49,2.49h4.37L24.44,19.42,14,9.08h4.5A2.49,2.49,0,0,0,21,6.59v-4A2.49,2.49,0,0,0,18.51.1H2.88A2.88,2.88,0,0,0,0,3V17.57a2.49,2.49,0,0,0,2.49,2.49h3A2.49,2.49,0,0,0,8,17.57V14.06L18.39,24.37,8,34.67V30.53A2.49,2.49,0,0,0,5.51,28h-3A2.49,2.49,0,0,0,0,30.53v15A2.49,2.49,0,0,0,2.49,48H6.22l0.1,0.1,0.1-.1h12.1A2.49,2.49,0,0,0,21,45.51v-2A2.49,2.49,0,0,0,18.51,41H14.34L24.44,31,34.53,41h-4A2.49,2.49,0,0,0,28,43.5v2A2.49,2.49,0,0,0,30.49,48h15A2.49,2.49,0,0,0,48,45.51v-15A2.49,2.49,0,0,0,45.51,28h-3A2.49,2.49,0,0,0,40,30.53V34.4l-10.12-10L40,14.33v3.24A2.49,2.49,0,0,0,42.49,20.06Z"/></svg>