<svg id="fill" xmlns="http://www.w3.org/2000/svg" viewBox="0 0 48 48"><title>Filled_</title><path d="M43.93,8L36,0V6a2,2,0,0,0,2,2h5.93Z"/><path d="M23.55,33.39H22v2.29h1.55a1.36,1.36,0,0,0,1-.33,1.13,1.13,0,0,0,.32-0.82,1.1,1.1,0,0,0-.33-0.82A1.36,1.36,0,0,0,23.55,33.39Z"/><path d="M34,12a2,2,0,0,1-2-2V0H6A2,2,0,0,0,4,2V46a1.81,1.81,0,0,0,1.5,2H42a2,2,0,0,0,2-2V12H34ZM18.84,37.32a2.64,2.64,0,0,1-.71,2A2.68,2.68,0,0,1,16.2,40a2.88,2.88,0,0,1-1.51-.39,3.18,3.18,0,0,1-1.1-1.13l1.26-.82a1.92,1.92,0,0,0,.53.64,1.18,1.18,0,0,0,.73.23,1,1,0,0,0,.78-0.33,1.39,1.39,0,0,0,.28-0.92V32h1.67v5.29Zm7.54-1.91a2.05,2.05,0,0,1-.51.79,2.61,2.61,0,0,1-.92.56,3.92,3.92,0,0,1-1.39.22H22v3H20.31V32.06h3.24a4.09,4.09,0,0,1,1.4.21,2.52,2.52,0,0,1,.92.55,2,2,0,0,1,.5.78A2.74,2.74,0,0,1,26.38,35.42Zm8,3.72a4.74,4.74,0,0,1-1.33.66,5.25,5.25,0,0,1-1.6.24,4.42,4.42,0,0,1-1.66-.3,3.58,3.58,0,0,1-2.08-2.11A4.57,4.57,0,0,1,27.46,36a4.27,4.27,0,0,1,.28-1.56,3.64,3.64,0,0,1,.81-1.25,3.75,3.75,0,0,1,1.27-.83,4.79,4.79,0,0,1,3.24,0,5.5,5.5,0,0,1,1.29.69l-0.87,1.13a4,4,0,0,0-.9-0.48,2.86,2.86,0,0,0-1-.18,2.5,2.5,0,0,0-1,.19,2.13,2.13,0,0,0-.75.53,2.38,2.38,0,0,0-.47.81,3,3,0,0,0-.17,1,3.45,3.45,0,0,0,.16,1.08,2.29,2.29,0,0,0,.47.83,2.13,2.13,0,0,0,.75.53,2.51,2.51,0,0,0,1,.19,3,3,0,0,0,.73-0.09,2.31,2.31,0,0,0,.61-0.24V36.74H31.14V35.6h3.27v3.53Z"/></svg>