<svg id="fill" xmlns="http://www.w3.org/2000/svg" viewBox="0 0 48 48"><title>Fill_</title><path d="M34.49,48A1.5,1.5,0,0,0,36,46.5h0a11.61,11.61,0,0,0-4.07-9.27,16.57,16.57,0,0,0-7.22-3.35A10.45,10.45,0,0,0,29,25.46,10.73,10.73,0,0,0,18.17,14.91,10.72,10.72,0,0,0,7.3,25.44V25.5a10.31,10.31,0,0,0,4,8.38C4.23,35.51,0,39.92,0,46.31H0A1.69,1.69,0,0,0,1.7,48h32.8Z"/><path d="M33,25.48a14.21,14.21,0,0,1-1.57,6.62H46.54A1.46,1.46,0,0,0,48,30.64h0a11.26,11.26,0,0,0-3.95-9,16.07,16.07,0,0,0-7-3.25,10.14,10.14,0,0,0,4.2-8.16,10.55,10.55,0,0,0-21.09,0v0.05c0,0.29,0,.57.05,0.85A14.71,14.71,0,0,1,33,25.48Z"/></svg>