<svg id="fill" xmlns="http://www.w3.org/2000/svg" viewBox="0 0 48 48"><title>Fill_</title><path fill="#fff" d="M4,46.07V5.9A1.9,1.9,0,0,1,5.9,4H10.1A1.9,1.9,0,0,1,12,5.9V46.07A1.93,1.93,0,0,1,10.07,48H5.93A1.93,1.93,0,0,1,4,46.07Z"/><path fill="#fff" d="M36,46.07V17.9A1.9,1.9,0,0,1,37.9,16H42.1A1.9,1.9,0,0,1,44,17.9V46.07A1.93,1.93,0,0,1,42.07,48H37.93A1.93,1.93,0,0,1,36,46.07Z"/><path fill="#fff" d="M20,46.07V25.9A1.9,1.9,0,0,1,21.9,24H26.1A1.9,1.9,0,0,1,28,25.9V46.07A1.93,1.93,0,0,1,26.07,48H21.93A1.93,1.93,0,0,1,20,46.07Z"/></svg>