<svg id="fill" xmlns="http://www.w3.org/2000/svg" viewBox="0 0 48 48"><title>Filled_</title><path d="M43.93,8L36,0V6a2,2,0,0,0,2,2h5.93Z"/><path d="M26.29,34.14a2,2,0,0,0-.73-0.52,2.37,2.37,0,0,0-.94-0.18,2.34,2.34,0,0,0-.93.18,2,2,0,0,0-.73.52,2.51,2.51,0,0,0-.48.81A3.06,3.06,0,0,0,22.31,36a3.19,3.19,0,0,0,.17,1.08,2.37,2.37,0,0,0,.48.82,2.2,2.2,0,0,0,.73.52,2.25,2.25,0,0,0,.93.19,2.28,2.28,0,0,0,.93-0.19,2.18,2.18,0,0,0,.73-0.52,2.37,2.37,0,0,0,.48-0.82A3.19,3.19,0,0,0,26.94,36,3.06,3.06,0,0,0,26.76,35,2.51,2.51,0,0,0,26.29,34.14Z"/><path d="M34,12a2,2,0,0,1-2-2V0H6A2,2,0,0,0,4,2V46a1.81,1.81,0,0,0,1.5,2H42a2,2,0,0,0,2-2V12H34ZM19.4,40H17.81V34.41l-2.42,3.34L13,34.41V40H11.39V32h1.68l2.33,3.3L17.74,32H19.4v8Zm8.93-2.35a3.81,3.81,0,0,1-.83,1.28,3.73,3.73,0,0,1-1.27.83,4.52,4.52,0,0,1-3.23,0,3.71,3.71,0,0,1-1.27-.83,3.81,3.81,0,0,1-.83-1.28A4.28,4.28,0,0,1,20.6,36a4.18,4.18,0,0,1,.3-1.6,3.78,3.78,0,0,1,.83-1.26A3.7,3.7,0,0,1,23,32.32a4.61,4.61,0,0,1,3.23,0,3.72,3.72,0,0,1,1.27.82,3.78,3.78,0,0,1,.83,1.26,4.18,4.18,0,0,1,.3,1.6A4.28,4.28,0,0,1,28.33,37.62ZM33.72,40h-2L28.9,32h1.87l2,6h0l2-6h1.87Z"/></svg>