<svg id="fill" xmlns="http://www.w3.org/2000/svg" viewBox="0 0 48 48"><title>Filled_</title><path fill="#fff" d="M43.93,8L36,0V6a2,2,0,0,0,2,2h5.93Z"/><path fill="#fff" d="M16.38,33.4H14.77v2.37h1.6a1.41,1.41,0,0,0,1-.34,1.17,1.17,0,0,0,.33-0.85,1.14,1.14,0,0,0-.34-0.85A1.41,1.41,0,0,0,16.38,33.4Z"/><path fill="#fff" d="M34,12a2,2,0,0,1-2-2V0H6A2,2,0,0,0,4,2V46a1.81,1.81,0,0,0,1.5,2H42a2,2,0,0,0,2-2V12H34ZM19.3,35.49a2.12,2.12,0,0,1-.53.82,2.71,2.71,0,0,1-.95.58,4.06,4.06,0,0,1-1.44.22H14.77V40H13V32h3.35a4.24,4.24,0,0,1,1.45.22,2.6,2.6,0,0,1,1,.57,2.1,2.1,0,0,1,.52.81A2.82,2.82,0,0,1,19.3,35.49Zm7.74,0a2.12,2.12,0,0,1-.53.82,2.71,2.71,0,0,1-.95.58,4.06,4.06,0,0,1-1.44.22H22.5V40H20.77V32h3.35a4.24,4.24,0,0,1,1.45.22,2.6,2.6,0,0,1,1,.57,2.1,2.1,0,0,1,.52.81A2.82,2.82,0,0,1,27,35.49ZM35,33.55H32.32V40H30.59V33.55H28V32h7v1.53Z"/><path fill="#fff" d="M24.11,33.4H22.5v2.37h1.6a1.41,1.41,0,0,0,1-.34,1.17,1.17,0,0,0,.33-0.85,1.14,1.14,0,0,0-.34-0.85A1.41,1.41,0,0,0,24.11,33.4Z"/></svg>