<svg id="fill" xmlns="http://www.w3.org/2000/svg" viewBox="0 0 48 48"><title>Filled_</title><path fill="#fff" d="M47.49,19.53l-2.67-3A2,2,0,0,0,42,16.4L27.61,29.29a2.28,2.28,0,0,1-3,0l-4.36-3.92a2,2,0,0,0-2.82.15l-2.68,3a2,2,0,0,0,.15,2.82L24.62,40a2.28,2.28,0,0,0,3,0L47.34,22.36A2,2,0,0,0,47.49,19.53Z"/><path fill="#fff" d="M8,32.91V46a2,2,0,0,0,2,2H23.62s0.06,0,0-.06Z"/><path fill="#fff" d="M40,37.13L28,48H38a2,2,0,0,0,2-2V37.13Z"/><path fill="#fff" d="M8,24.81l7.87-8.63A2.09,2.09,0,0,1,18.74,16l5.68,4.85a2.4,2.4,0,0,0,3,0L40,9.94V2a2,2,0,0,0-2-2H10A2,2,0,0,0,8,2V24.81Z"/></svg>