<svg id="fill" xmlns="http://www.w3.org/2000/svg" viewBox="0 0 48 48"><title>Filled_</title><path d="M43.93,8L36,0V6a2,2,0,0,0,2,2h5.93Z"/><path d="M34,12a2,2,0,0,1-2-2V0H6A2,2,0,0,0,4,2V46a1.81,1.81,0,0,0,1.5,2H42a2,2,0,0,0,2-2V12H34ZM22.4,39.08a4.75,4.75,0,0,1-1.33.65,5.28,5.28,0,0,1-1.6.24,4.46,4.46,0,0,1-1.66-.3,3.57,3.57,0,0,1-2.08-2.09A4.51,4.51,0,0,1,15.45,36a4.22,4.22,0,0,1,.28-1.55,3.61,3.61,0,0,1,.81-1.25,3.76,3.76,0,0,1,1.27-.83,4.82,4.82,0,0,1,3.24,0,5.5,5.5,0,0,1,1.29.69l-0.87,1.12a4,4,0,0,0-.9-0.48,2.89,2.89,0,0,0-1-.18,2.51,2.51,0,0,0-1,.19,2.12,2.12,0,0,0-.75.53,2.37,2.37,0,0,0-.47.8,3,3,0,0,0-.17,1A3.39,3.39,0,0,0,17.31,37a2.27,2.27,0,0,0,.47.82,2.13,2.13,0,0,0,.75.53,2.53,2.53,0,0,0,1,.19,3,3,0,0,0,.73-0.09,2.33,2.33,0,0,0,.61-0.24V36.7H19.13V35.57H22.4v3.51ZM25.51,40H23.83V32h1.68v8Zm7-6.53H28.68v1.81H32v1.37H28.68V40H27V32h5.55v1.46Z"/></svg>