<svg id="fill" xmlns="http://www.w3.org/2000/svg" viewBox="0 0 48 48"><title>Filled_</title><path fill="#fff" d="M35.94,33.3a14.91,14.91,0,0,0,3.21-5.12,12.89,12.89,0,0,0-1.39-11.69,14.62,14.62,0,0,0-3-3.23,2,2,0,0,0-2.51,3.11,10.58,10.58,0,0,1,2.16,2.35,8.89,8.89,0,0,1,1,8.1A10.93,10.93,0,0,1,33,30.55a13,13,0,0,1-1.12,1.05,2,2,0,1,0,2.56,3.07A17.08,17.08,0,0,0,35.94,33.3Z"/><path fill="#fff" d="M47.85,21.13a24.05,24.05,0,0,0-3.94-10.59,27.46,27.46,0,0,0-5.59-6.08A2,2,0,0,0,35.8,7.57a23.47,23.47,0,0,1,4.78,5.2A20,20,0,0,1,42.75,31a24.11,24.11,0,0,1-5.21,8.27,28.27,28.27,0,0,1-2.44,2.29,2,2,0,1,0,2.56,3.07A32.43,32.43,0,0,0,40.45,42a28.1,28.1,0,0,0,6.06-9.64A24,24,0,0,0,47.85,21.13Z"/><path fill="#fff" d="M27.26,4.14a1.34,1.34,0,0,0-1.41.06L8.05,16H2a2.08,2.08,0,0,0-2,2.08V30a2,2,0,0,0,2,2H8L25.86,43.78a1.33,1.33,0,0,0,.78.24,1.39,1.39,0,0,0,.63-0.16,1.34,1.34,0,0,0,.74-1.2V5.34A1.35,1.35,0,0,0,27.26,4.14Z"/></svg>