<svg id="fill" xmlns="http://www.w3.org/2000/svg" viewBox="0 0 48 48"><title>Fill_</title><path fill="#fff" d="M23.9,0A25.31,25.31,0,0,0,8,5.78V2.06A2.07,2.07,0,0,0,5.94,0H2A2,2,0,0,0,0,2V18a2,2,0,0,0,2,2H18a2,2,0,0,0,2-2V14a2,2,0,0,0-2-2H12.93a15.11,15.11,0,0,1,11-4.07A16.16,16.16,0,0,1,40,24.09,16.16,16.16,0,0,1,23.61,40a16.58,16.58,0,0,1-13.19-6.44,2.57,2.57,0,0,0-3.31-.66L4.64,34.25a2.61,2.61,0,0,0-.8,3.83A24.59,24.59,0,0,0,23.61,48C37.06,48,48,37.26,48,24.1A24.15,24.15,0,0,0,23.9,0Z"/></svg>