<svg id="fill" xmlns="http://www.w3.org/2000/svg" viewBox="0 0 48 48"><title>Filled_</title><path d="M43.93,8L36,0V6a2,2,0,0,0,2,2h5.93Z"/><polygon points="16.39 33.94 15.36 37.17 17.45 37.17 16.41 33.94 16.39 33.94"/><polygon points="24.27 33.93 23.24 37.18 25.33 37.18 24.29 33.93 24.27 33.93"/><path d="M34,12a2,2,0,0,1-2-2V0H6A2,2,0,0,0,4,2V46a1.81,1.81,0,0,0,1.5,2H42a2,2,0,0,0,2-2V12H34ZM18.36,40L17.88,38.5H14.94L14.46,40h-1.8l2.8-8h1.9l2.8,8H18.36Zm7.88,0-0.49-1.5H22.82L22.34,40h-1.8l2.8-8h1.9L28,40H26.24ZM34,39.71a4.46,4.46,0,0,1-1.64.29,4.27,4.27,0,0,1-1.62-.3,3.63,3.63,0,0,1-1.26-.84,3.76,3.76,0,0,1-.81-1.28A4.41,4.41,0,0,1,28.36,36a4.08,4.08,0,0,1,.3-1.58,3.68,3.68,0,0,1,.83-1.24,3.86,3.86,0,0,1,1.28-.82A4.31,4.31,0,0,1,32.4,32a4.44,4.44,0,0,1,1.5.25,4.5,4.5,0,0,1,1.3.73L34.3,34.15a4.11,4.11,0,0,0-.86-0.52,2.47,2.47,0,0,0-1-.2,2.52,2.52,0,0,0-1,.18,2.12,2.12,0,0,0-.75.51,2.31,2.31,0,0,0-.48.8,3,3,0,0,0-.17,1A3.33,3.33,0,0,0,30.22,37a2.35,2.35,0,0,0,.48.82,2.11,2.11,0,0,0,.75.53,2.5,2.5,0,0,0,1,.19,2.58,2.58,0,0,0,1.06-.21,2.86,2.86,0,0,0,.86-0.59l1,1.06A4.33,4.33,0,0,1,34,39.71Z"/></svg>