<svg id="fill" xmlns="http://www.w3.org/2000/svg" viewBox="0 0 48 48"><title>Filled_</title><path d="M0,5.93V38.07A1.93,1.93,0,0,0,1.93,40H46.07A1.93,1.93,0,0,0,48,38.07V5.93A1.93,1.93,0,0,0,46.07,4H1.93A1.93,1.93,0,0,0,0,5.93ZM44,36H4V8H44V36Z"/><polygon points="24 31.99 24 28 8 28 8 32 24 32 24 31.99"/><polygon points="40 28 36 28 36 31.99 36 32 40 32 40 28"/><rect x="8" y="20" width="16" height="4"/><rect x="36" y="20" width="4" height="4"/><rect x="36" y="12" width="4" height="4"/><rect x="8" y="12" width="16" height="4"/><rect x="28" y="12" width="4" height="20"/></svg>