<svg id="fill" xmlns="http://www.w3.org/2000/svg" viewBox="0 0 48 48"><title>Filled_</title><path d="M23.89,35.41A1.79,1.79,0,0,1,23.48,33c0.55-.55.11-1-1-1h-8c-1.1,0-2.48-.88-2.48-2V18c0-1.1,1.38-2,2.48-2h8c1.1,0,1.55-.45,1-1a1.8,1.8,0,0,1,.41-2.42L35.05,1.41C35.83,0.64,35.56,0,34.46,0h-32C1.38,0,0,.9,0,2V46c0,1.1,1.38,2,2.48,2h32c1.1,0,1.36-.64.59-1.41Z"/><path d="M33.47,37.42l-2.83-2.83a2,2,0,0,1,0-2.83L34.41,28H18a2,2,0,0,1-2-2V22a2,2,0,0,1,2-2H34.45l-3.77-3.76a2,2,0,0,1,0-2.83l2.83-2.83a2,2,0,0,1,2.83,0l9.18,9.16A13,13,0,0,1,47.92,23a6.53,6.53,0,0,1,0,2,13,13,0,0,1-2.4,3.22l-9.22,9.2A2,2,0,0,1,33.47,37.42Z"/></svg>