<svg id="fill" xmlns="http://www.w3.org/2000/svg" viewBox="0 0 48 48"><title>Filled_</title><path fill="#fff" d="M41.88,6l0.88-4a1.61,1.61,0,0,0-1.57-2H38.63a1.61,1.61,0,0,0-1.57,1.27L36,6H29.69l0.91-4A1.61,1.61,0,0,0,29,0H26.39a1.61,1.61,0,0,0-1.57,1.27L23.78,6H18.61A1.61,1.61,0,0,0,17,7.61v2.78A1.61,1.61,0,0,0,18.61,12h4.55l-1,6H17.61A1.61,1.61,0,0,0,16,19.61v2.78A1.61,1.61,0,0,0,17.61,24h3.71l-0.9,4A1.61,1.61,0,0,0,22,30h2.56a1.61,1.61,0,0,0,1.57-1.26L27.18,24h6.33l-0.84,4.06A1.61,1.61,0,0,0,34.25,30h2.67a1.61,1.61,0,0,0,1.58-1.28l1-4.72h4.92A1.61,1.61,0,0,0,46,22.39V19.61A1.61,1.61,0,0,0,44.39,18H40.31l1-6h5.08A1.61,1.61,0,0,0,48,10.39V7.61A1.61,1.61,0,0,0,46.39,6H41.88ZM34.4,18H28.07l1-6H35.4Z"/><path fill="#fff" d="M28.3,36.61A19.6,19.6,0,0,1,16.32,4L2.09,4A2.08,2.08,0,0,0,0,6.09V45.92A2.08,2.08,0,0,0,2.08,48H45.92A2.08,2.08,0,0,0,48,45.92V26.73A19.61,19.61,0,0,1,28.3,36.61Z"/></svg>