<svg id="fill" xmlns="http://www.w3.org/2000/svg" viewBox="0 0 48 48"><title>Filled_</title><path d="M47.66,34.28l-0.92-.92a1.35,1.35,0,0,0-1.91,0L38,40.19l-2.83-2.83,3.29-3.29a1.35,1.35,0,0,0,0-1.91l-0.92-.92a1.35,1.35,0,0,0-1.91,0l-3.29,3.29L29.53,31.7l6.82-6.82a1.35,1.35,0,0,0,0-1.91l-0.92-.92a1.35,1.35,0,0,0-1.91,0L26.7,28.88l-3.06-3.06,0,0c6.48-6.48,7.79-15.73,2.86-20.66-2.45-2.45-6-3.45-10-2.84A19.61,19.61,0,0,0,5.85,8,19.62,19.62,0,0,0,.17,18.7c-0.61,4,.41,7.54,2.86,10a10.74,10.74,0,0,0,7.78,3,16.51,16.51,0,0,0,2.31-.27,21.33,21.33,0,0,0,7.61-2.88L38,45.85,40.84,43h0l6.82-6.82A1.35,1.35,0,0,0,47.66,34.28ZM12.73,27.76a7.81,7.81,0,0,1-6.89-1.87A7.81,7.81,0,0,1,4,19a15.44,15.44,0,0,1,4.5-8.4,15.43,15.43,0,0,1,8.4-4.49A10.76,10.76,0,0,1,18.48,6a7.27,7.27,0,0,1,5.27,2c3.49,3.49,2.31,10.35-2.62,15.29A15.44,15.44,0,0,1,12.73,27.76Z"/></svg>