<svg id="fill" xmlns="http://www.w3.org/2000/svg" viewBox="0 0 48 48"><title>Fill_</title><path fill="#fff" d="M17.47,1.07l9.73,9.12A4,4,0,0,1,28.45,13a4.06,4.06,0,0,1-1.16,2.86l-2.8,2.8L14.85,9.46,9.26,15.05l9.63,9.22L16.1,27.06a4,4,0,0,1-5.5.09L1.06,18A3.72,3.72,0,0,1,0,15.21V15.14a3.79,3.79,0,0,1,1-2.8L12.06,1.16A3.84,3.84,0,0,1,17.47,1.07Z"/><path fill="#fff" d="M46.93,30.24l-9.12-9.73A4,4,0,0,0,35,19.26a4.06,4.06,0,0,0-2.86,1.16l-2.8,2.8,9.22,9.64-5.59,5.59-9.22-9.63-2.79,2.79a4,4,0,0,0-.09,5.5L30,46.8A3.84,3.84,0,0,0,32.79,48h0.06a3.91,3.91,0,0,0,2.8-1.11L46.84,35.72A3.93,3.93,0,0,0,46.93,30.24Z"/><path fill="#fff" d="M15.84,15.53a3,3,0,0,0,.05,4.2L27.43,31a3,3,0,1,0,4.14-4.25L20,15.48A3,3,0,0,0,15.84,15.53Z"/></svg>