<svg id="fill" xmlns="http://www.w3.org/2000/svg" viewBox="0 0 48 48"><title>Filled_</title><path fill="#fff" d="M43.93,8L36,0V6a2,2,0,0,0,2,2h5.93Z"/><path fill="#fff" d="M10.94,33.39h-1v5.19h1a2.43,2.43,0,0,0,1.9-.7A2.76,2.76,0,0,0,13.47,36a2.64,2.64,0,0,0-.65-1.87A2.44,2.44,0,0,0,10.94,33.39Z"/><path fill="#fff" d="M21.68,34.14A2,2,0,0,0,21,33.61,2.37,2.37,0,0,0,20,33.43a2.34,2.34,0,0,0-.93.18,2,2,0,0,0-.73.52,2.51,2.51,0,0,0-.48.81A3.06,3.06,0,0,0,17.7,36a3.19,3.19,0,0,0,.17,1.08,2.37,2.37,0,0,0,.48.82,2.2,2.2,0,0,0,.73.52,2.25,2.25,0,0,0,.93.19,2.28,2.28,0,0,0,.93-0.19,2.18,2.18,0,0,0,.73-0.52,2.37,2.37,0,0,0,.48-0.82A3.19,3.19,0,0,0,22.33,36,3.06,3.06,0,0,0,22.16,35,2.51,2.51,0,0,0,21.68,34.14Z"/><path fill="#fff" d="M34,12a2,2,0,0,1-2-2V0H6A2,2,0,0,0,4,2V46a1.81,1.81,0,0,0,1.5,2H42a2,2,0,0,0,2-2V12H34ZM14.13,38.92A4.57,4.57,0,0,1,10.82,40H8.19V32h2.63a4.64,4.64,0,0,1,3.27,1,3.79,3.79,0,0,1,1.13,2.92A4,4,0,0,1,14.13,38.92Zm9.59-1.3a3.81,3.81,0,0,1-.83,1.28,3.73,3.73,0,0,1-1.27.83,4.52,4.52,0,0,1-3.23,0,3.71,3.71,0,0,1-1.27-.83,3.81,3.81,0,0,1-.83-1.28A4.28,4.28,0,0,1,16,36a4.19,4.19,0,0,1,.3-1.6,3.78,3.78,0,0,1,.83-1.26,3.7,3.7,0,0,1,1.27-.82,4.61,4.61,0,0,1,3.23,0,3.72,3.72,0,0,1,1.27.82,3.78,3.78,0,0,1,.83,1.26A4.19,4.19,0,0,1,24,36,4.28,4.28,0,0,1,23.72,37.62Zm6.82,2.09A4.46,4.46,0,0,1,28.9,40a4.26,4.26,0,0,1-1.62-.3A3.63,3.63,0,0,1,26,38.87a3.76,3.76,0,0,1-.81-1.28A4.42,4.42,0,0,1,24.93,36a4.09,4.09,0,0,1,.3-1.58,3.69,3.69,0,0,1,.83-1.25,3.86,3.86,0,0,1,1.28-.82A4.31,4.31,0,0,1,29,32a4.44,4.44,0,0,1,1.5.25,4.5,4.5,0,0,1,1.3.73l-0.91,1.15A4.11,4.11,0,0,0,30,33.64a2.47,2.47,0,0,0-1-.2,2.51,2.51,0,0,0-1,.18,2.12,2.12,0,0,0-.75.51,2.31,2.31,0,0,0-.48.8,3,3,0,0,0-.17,1A3.34,3.34,0,0,0,26.78,37a2.35,2.35,0,0,0,.48.83,2.11,2.11,0,0,0,.75.53,2.5,2.5,0,0,0,1,.19A2.58,2.58,0,0,0,30,38.38a2.86,2.86,0,0,0,.86-0.59l1,1.06A4.33,4.33,0,0,1,30.54,39.71ZM37.8,40l-1.72-2.72L34.36,40h-2L35,35.92,32.47,32h2l1.62,2.56L37.74,32h2l-2.56,3.9L39.81,40h-2Z"/></svg>