<svg id="fill" xmlns="http://www.w3.org/2000/svg" viewBox="0 0 48 48"><title>Fill_</title><path fill="#fff" d="M1.92,20H18.08A1.92,1.92,0,0,0,20,18.08V14.14A2.14,2.14,0,0,0,17.86,12H12.73A14.2,14.2,0,0,1,22.83,7.82c6.82,0,13,3.2,16.35,8.24a2.26,2.26,0,0,0,2.88.83l3.08-1.51a2.22,2.22,0,0,0,.94-3.15C41.35,4.73,32.37,0,22.69,0,17.47,0,13,1.88,8,5.58V2.3A2.31,2.31,0,0,0,5.7,0H2.37A2.38,2.38,0,0,0,0,2.37V18.08A1.92,1.92,0,0,0,1.92,20Z"/><path fill="#fff" d="M46.08,28H29.92A1.92,1.92,0,0,0,28,29.92v3.95A2.14,2.14,0,0,0,30.14,36h5.14a14.2,14.2,0,0,1-10.11,4.18c-6.82,0-13-3.2-16.35-8.24a2.26,2.26,0,0,0-2.88-.83L2.86,32.61a2.22,2.22,0,0,0-.94,3.15C6.65,43.27,15.63,48,25.31,48,30.53,48,35,46.12,40,42.42V45.7A2.31,2.31,0,0,0,42.3,48h3.33A2.38,2.38,0,0,0,48,45.63V29.92A1.92,1.92,0,0,0,46.08,28Z"/></svg>