<svg id="fill" xmlns="http://www.w3.org/2000/svg" viewBox="0 0 48 48"><title>Fill_</title><path fill="#fff" d="M32,36H46a2,2,0,0,0,2-2V6a2,2,0,0,0-2-2H2A2,2,0,0,0,0,6V34a2,2,0,0,0,2,2H16v4H10a2,2,0,0,0-2,2H8a2,2,0,0,0,2,2H37a2,2,0,0,0,2-2h0a2,2,0,0,0-2-2H32V36ZM4,10A2,2,0,0,1,6,8H42a2,2,0,0,1,2,2V30a2,2,0,0,1-2,2H6a2,2,0,0,1-2-2V10Z"/><path fill="#fff" d="M39.48,13.56a4.85,4.85,0,0,0-2.84-3.19,6.84,6.84,0,0,0-7.89,2.06,4.85,4.85,0,0,0-.92,4.17,4.47,4.47,0,0,0,.46,1.1L13.64,13.34c-3.33-1.13-5.17.76-5.64,2.35L23.26,20l-15,4.35c0.48,1.59,2.34,3.46,5.66,2.31l13.86-4.25a4.56,4.56,0,0,0-.44,1.08c-0.74,2.82,1.38,5.83,4.71,6.7a7.3,7.3,0,0,0,1.84.24,5.49,5.49,0,0,0,5.55-3.78,5,5,0,0,0-1-4.29A6.87,6.87,0,0,0,35,20C38.2,19.16,40.19,16.28,39.48,13.56ZM35.6,25.62c-0.15.58-1.28,1-2.5,0.68s-2-1.24-1.85-1.82a1.06,1.06,0,0,1,.64-0.6,2.6,2.6,0,0,1,1-.19,3.41,3.41,0,0,1,.86.11,3,3,0,0,1,1.59,1A1.07,1.07,0,0,1,35.6,25.62Zm-1.65-9.43a2.65,2.65,0,0,1-1.68-.07,0.94,0.94,0,0,1-.56-0.53,0.94,0.94,0,0,1,.23-0.73A2.66,2.66,0,0,1,33.37,14a3.06,3.06,0,0,1,.77-0.1A2.31,2.31,0,0,1,35,14a0.94,0.94,0,0,1,.56.53h0C35.73,15,35.14,15.88,33.94,16.19Z"/></svg>