<svg id="fill" xmlns="http://www.w3.org/2000/svg" viewBox="0 0 48 48"><title>Fill_</title><path d="M46,20H28.19c-1.75-1-3.39-.84-4.92-1.28a19.83,19.83,0,0,1-4.62-1.87,3.5,3.5,0,0,1-1.85-3.21,4.22,4.22,0,0,1,1.85-3.51,8.51,8.51,0,0,1,5.21-1.39,26.38,26.38,0,0,1,6.24.76,33,33,0,0,1,4.4,1.5,2.09,2.09,0,0,0,2.69-1l2-4.25a1.91,1.91,0,0,0-1-2.59A52.71,52.71,0,0,0,32,1a35.4,35.4,0,0,0-8.65-1,21.69,21.69,0,0,0-7.16,1.09,16.46,16.46,0,0,0-5.31,3,12.61,12.61,0,0,0-4.49,9.7A13.43,13.43,0,0,0,7.84,20H2a2.08,2.08,0,0,0-2,2.09v4A1.91,1.91,0,0,0,2,28H21.84a11.72,11.72,0,0,1,3.08.91,19,19,0,0,1,4.62,2,3.67,3.67,0,0,1,1.85,3.33,4.34,4.34,0,0,1-1.88,3.65,9.45,9.45,0,0,1-5.64,1.4,22.09,22.09,0,0,1-7-1.16A37.76,37.76,0,0,1,12,36a2.17,2.17,0,0,0-2.81.78L6.55,41.18a1.86,1.86,0,0,0,.73,2.64,43.39,43.39,0,0,0,6.51,2.68A34.69,34.69,0,0,0,23.92,48a25.9,25.9,0,0,0,7.82-1.06,15.81,15.81,0,0,0,5.54-3,12.32,12.32,0,0,0,3.33-4.44A13.72,13.72,0,0,0,41.74,34a15.12,15.12,0,0,0-1.18-6H46a1.91,1.91,0,0,0,2-1.89v-4A2.08,2.08,0,0,0,46,20Z"/></svg>