<svg id="fill" xmlns="http://www.w3.org/2000/svg" viewBox="0 0 48 48"><title>Filled_</title><path fill="#fff" d="M44.08,8L32,0V6a2,2,0,0,0,2,2H44.08Z"/><path fill="#fff" d="M30,12a2,2,0,0,1-2-2V0H6A2,2,0,0,0,4,2V46.8c0,1.1.64,1.37,1.43,0.6l1.21-1.18a2,2,0,0,1,2.83,0l1.11,1.14a2,2,0,0,0,2.82,0l1.11-1.1a2,2,0,0,1,2.82,0l1,1.05a2.06,2.06,0,0,0,2.86.06l1.26-1.18a2.15,2.15,0,0,1,2.91,0l1.22,1.16a2.06,2.06,0,0,0,2.86,0l1.15-1.16a2,2,0,0,1,2.81,0l1.11,1.14a2.05,2.05,0,0,0,2.88,0l1.15-1.16a2,2,0,0,1,2.84,0l1.17,1.15c0.79,0.77,1.43.5,1.43-.6V12H30Zm6,24H12V32H36v4Zm0-8H12V24H36v4Zm0-8H12V16H36v4Z"/></svg>