<svg id="fill" xmlns="http://www.w3.org/2000/svg" viewBox="0 0 48 48"><title>Filled_</title><path d="M43.93,8L36,0V6a2,2,0,0,0,2,2h5.93Z"/><path d="M34,12a2,2,0,0,1-2-2V0H6A2,2,0,0,0,4,2V46a1.81,1.81,0,0,0,1.5,2H42a2,2,0,0,0,2-2V12H34ZM18.67,39.69a4.4,4.4,0,0,1-1.62.28,4.21,4.21,0,0,1-1.6-.3,3.59,3.59,0,0,1-1.25-.83,3.74,3.74,0,0,1-.8-1.27A4.41,4.41,0,0,1,13.12,36a4.07,4.07,0,0,1,.3-1.57,3.66,3.66,0,0,1,.83-1.24,3.82,3.82,0,0,1,1.26-.81,4.25,4.25,0,0,1,1.61-.3,4.38,4.38,0,0,1,1.49.25,4.45,4.45,0,0,1,1.29.73L19,34.17a4.06,4.06,0,0,0-.85-0.51,2.44,2.44,0,0,0-1-.2,2.48,2.48,0,0,0-1,.18,2.1,2.1,0,0,0-.74.51,2.3,2.3,0,0,0-.48.79,3,3,0,0,0-.17,1A3.32,3.32,0,0,0,15,37a2.34,2.34,0,0,0,.47.82,2.09,2.09,0,0,0,.74.52,2.46,2.46,0,0,0,1,.19,2.54,2.54,0,0,0,1-.21A2.83,2.83,0,0,0,19,37.78l1,1.05A4.29,4.29,0,0,1,18.67,39.69Zm8-1.12a2,2,0,0,1-.56.74,2.64,2.64,0,0,1-.93.49,4.39,4.39,0,0,1-1.31.18,5.85,5.85,0,0,1-1.7-.25,5.7,5.7,0,0,1-1.39-.6l0.8-1.29a5.54,5.54,0,0,0,1.1.5,3.72,3.72,0,0,0,1.17.19,1.59,1.59,0,0,0,.94-0.23,0.71,0.71,0,0,0,.31-0.6,0.6,0.6,0,0,0-.31-0.55A3.19,3.19,0,0,0,24,36.83l-1-.27a4.13,4.13,0,0,1-1-.4,2.32,2.32,0,0,1-.77-0.69,2,2,0,0,1-.31-1.16,2.08,2.08,0,0,1,.75-1.61,2.77,2.77,0,0,1,.89-0.49,3.66,3.66,0,0,1,1.2-.18,6,6,0,0,1,1.45.17,7.21,7.21,0,0,1,1.34.48L26,34a5.1,5.1,0,0,0-1-.38,4.43,4.43,0,0,0-1-.13,1.43,1.43,0,0,0-.87.23,0.7,0.7,0,0,0-.31.58,0.58,0.58,0,0,0,.31.53,3.33,3.33,0,0,0,.77.31l1,0.26a4,4,0,0,1,1,.39,2.29,2.29,0,0,1,.77.7,2,2,0,0,1,.31,1.18A2.2,2.2,0,0,1,26.67,38.58ZM32.09,40H30.2L27.42,32h1.81l1.9,6h0l1.91-6h1.81Z"/></svg>