<svg id="fill" xmlns="http://www.w3.org/2000/svg" viewBox="0 0 48 48"><title>Filled_</title><path fill="#fff" d="M46.67,23.44C46.68,23,39.26,13,39.26,13a7.86,7.86,0,0,0-5.13-3.21A4.24,4.24,0,0,0,29,7.93c-1.3.52-2.16,2.14-2.36,3.82a5.73,5.73,0,0,0-1.49,1.94,1,1,0,0,0-.16.52V15H22.86V14.49a1.4,1.4,0,0,0-.16-0.65A5.59,5.59,0,0,0,21.21,12a4.56,4.56,0,0,0-2.36-3.79A4.25,4.25,0,0,0,13.75,10,7.8,7.8,0,0,0,8.66,13.2S1.17,23.42,1.22,23.9A10.09,10.09,0,0,0,0,28.69,11.24,11.24,0,0,0,11.44,39.85C17.75,39.85,22.88,35,22.88,28h0l0-5H25l0,5h0s0,0.38,0,.4A11.62,11.62,0,0,0,36.5,40,11.4,11.4,0,0,0,48,28.66,10.94,10.94,0,0,0,46.67,23.44ZM11.44,36.39A7.45,7.45,0,0,1,4,29a7.35,7.35,0,0,1,.1-1.16c0-.06,0-0.12,0-0.17a7.3,7.3,0,0,1,.28-1.07l0-.12a7.46,7.46,0,0,1,14.44,1.91c0,0.2,0,.41,0,0.62A7.45,7.45,0,0,1,11.44,36.39Zm25.06-.17A7.5,7.5,0,0,1,29,28.75c0-.23,0-0.45,0-0.67a7.52,7.52,0,0,1,14.26-2.56l0.1,0.2c0.05,0.12.1,0.24,0.15,0.36l0.11,0.29,0.1,0.33c0,0.12.06,0.24,0.09,0.35s0,0.2.07,0.3,0,0.29.07,0.44S44,28,44,28s0,0.47,0,.71A7.5,7.5,0,0,1,36.5,36.22Z"/></svg>