<svg id="fill" xmlns="http://www.w3.org/2000/svg" viewBox="0 0 48 48"><title>Filled_</title><path d="M24.19,35.26a2.76,2.76,0,0,1-2.88-2.68,2,2,0,1,0-3.95,0,6.82,6.82,0,0,0,13.63,0V22.18a6.87,6.87,0,0,0-7-6.68,6.87,6.87,0,0,0-7,6.68v1.14a2,2,0,0,0,4,0V22.18a2.88,2.88,0,0,1,3-2.68,2.88,2.88,0,0,1,3,2.68v10.4A2.7,2.7,0,0,1,24.19,35.26Z"/><path d="M34.15,12.67a2,2,0,0,0-.65,2.74A10.64,10.64,0,0,1,35,20.74V32.57A10.52,10.52,0,0,1,24.55,43.08a10.28,10.28,0,0,1-6.46-2.26,2,2,0,0,0-2.83.31A2,2,0,0,0,15.57,44,14.45,14.45,0,0,0,39,32.57V20.74a14.64,14.64,0,0,0-2-7.35A2.07,2.07,0,0,0,34.15,12.67Z"/><path d="M15.41,37.78A10.62,10.62,0,0,1,14,32.57V20.74A10.5,10.5,0,0,1,24.44,10.22,10.33,10.33,0,0,1,30,11.87a2,2,0,0,0,2.19-3.36A14.43,14.43,0,0,0,10,20.74V32.57a14.63,14.63,0,0,0,1.93,7.18,2,2,0,0,0,1.77,1,2,2,0,0,0,1-.26A2,2,0,0,0,15.41,37.78Z"/><path d="M45,22.95V20.58A20.7,20.7,0,0,0,24,0,20.7,20.7,0,0,0,3,20.58V30.77a1.86,1.86,0,0,0,1.16,1.87A2.07,2.07,0,0,0,3,34.48,26.39,26.39,0,0,0,6.62,46.8a2,2,0,0,0,2.73.62A2,2,0,0,0,10,44.66,23,23,0,0,1,6.88,34.38a1.85,1.85,0,0,0-1.16-1.83A2.15,2.15,0,0,0,7,30.77V20.58A16.7,16.7,0,0,1,24,4,16.7,16.7,0,0,1,41,20.58v2.37a2,2,0,0,0,.91,1.64,2,2,0,0,0-.91,1.7v1.66a1.94,1.94,0,0,0,.73,1.58A2,2,0,0,0,41,31v6.07a2,2,0,0,0,4,0V31a1.94,1.94,0,0,0-.73-1.58A2,2,0,0,0,45,27.94V26.29a2,2,0,0,0-.91-1.64A2,2,0,0,0,45,22.95Z"/></svg>