<svg id="fill" xmlns="http://www.w3.org/2000/svg" viewBox="0 0 48 48"><title>Filled_</title><path d="M24,0A24,24,0,1,0,48,24,24,24,0,0,0,24,0ZM21.42,7.77a4.32,4.32,0,0,1,.88-1.39,4.56,4.56,0,0,1,1.33-1A3.9,3.9,0,0,1,25.34,5a3.09,3.09,0,0,1,2.26.8A2.92,2.92,0,0,1,28.42,8a4.25,4.25,0,0,1-.32,1.63,4.72,4.72,0,0,1-.88,1.39,4.31,4.31,0,0,1-1.33,1,3.88,3.88,0,0,1-1.72.37,3.09,3.09,0,0,1-2.26-.8,3,3,0,0,1-.82-2.25A4.32,4.32,0,0,1,21.42,7.77ZM31,35.18a19.12,19.12,0,0,1-2.16,2.51,20.78,20.78,0,0,1-3.12,2.53,8.29,8.29,0,0,1-3.58,1.41,9.13,9.13,0,0,1-2.1,0,7.79,7.79,0,0,1-2.07-.5A4.08,4.08,0,0,1,16.35,40a3.77,3.77,0,0,1-.83-2,5.57,5.57,0,0,1,0-1.34q0.09-.78.23-1.69t0.34-1.8q0.2-.89.36-1.67l2.75-12.52,0-.17A0.73,0.73,0,0,0,19.17,18a2.15,2.15,0,0,0-1-.35,4.22,4.22,0,0,0-1.13,0V17.22L19.29,17l6.88-.85a0.69,0.69,0,0,1,.78.76l-3.35,14.3c-0.2.75-.36,1.47-0.53,2.17a5,5,0,0,0-.15,1.74A2.16,2.16,0,0,0,24,36.85a3.13,3.13,0,0,0,2,.36,5.58,5.58,0,0,0,2.35-.78,6.93,6.93,0,0,0,1.49-1.27,12.92,12.92,0,0,0,.93-1.2,1.09,1.09,0,0,1,.66-0.56q0.38,0,.44.45A4.42,4.42,0,0,1,31,35.18Z"/></svg>