<svg id="fill" xmlns="http://www.w3.org/2000/svg" viewBox="0 0 48 48"><title>Fill_</title><path fill="#fff" d="M46.32,14.78L44,13.27V10a2,2,0,0,0-2-2H35.84l-0.15-.1L26,0.48A3.4,3.4,0,0,0,24,0a3.47,3.47,0,0,0-2,.47L12.31,7.9,12.16,8H6a2,2,0,0,0-2,2v3.27L1.68,14.78A4.13,4.13,0,0,0,0,17.88s0,18.18,0,24.2A1.91,1.91,0,0,0,1.94,44H46.06A1.91,1.91,0,0,0,48,42.08c0-6,0-24.2,0-24.2A4.13,4.13,0,0,0,46.32,14.78ZM40,21.66c0,0.21-14.57,13.28-14.57,13.28a2.16,2.16,0,0,1-2.85,0S8,21.88,8,21.66V14a2,2,0,0,1,2-2H38a2,2,0,0,1,2,2v7.66Z"/></svg>