<svg id="fill" xmlns="http://www.w3.org/2000/svg" viewBox="0 0 48 48"><title>Fill_</title><path fill="#fff" d="M32,36H46a2,2,0,0,0,2-2V6a2,2,0,0,0-2-2H2A2,2,0,0,0,0,6V34a2,2,0,0,0,2,2H16v4H10a2,2,0,0,0-2,2H8a2,2,0,0,0,2,2H37a2,2,0,0,0,2-2h0a2,2,0,0,0-2-2H32V36ZM4,10A2,2,0,0,1,6,8H42a2,2,0,0,1,2,2V30a2,2,0,0,1-2,2H6a2,2,0,0,1-2-2V10Z"/><path fill="#fff" d="M30,16H28V14a2,2,0,0,0-2-2H22a2,2,0,0,0-2,2v2H18a2,2,0,0,0-2,2v4a2,2,0,0,0,2,2h2v2a2,2,0,0,0,2,2h4a2,2,0,0,0,2-2V24h2a2,2,0,0,0,2-2V18A2,2,0,0,0,30,16Z"/></svg>