<svg id="fill" xmlns="http://www.w3.org/2000/svg" viewBox="0 0 48 48"><title>Fill_</title><path d="M47.08,23.28a3.28,3.28,0,0,0-4.45,0l-9.13,8.65-5.32,5L26,39c-1.22,1.16-2.18,2.3-3.89,2.68A17.25,17.25,0,0,1,18,42c-2.95-.07-6.46-0.61-8.69-2.72-3.53-3.34-4-9.35-1.22-13.79L27.52,7.13c3.75-1.82,8-1.52,10.4.77A5.89,5.89,0,0,1,38,16.44L21.92,31.68a3.22,3.22,0,0,1-4.13-.25,2.64,2.64,0,0,1-.84-2,2.18,2.18,0,0,1,.89-1.66l15-14.19a2.87,2.87,0,0,0,0-4.22,3.28,3.28,0,0,0-4.45,0L13.69,23.29a8,8,0,0,0-3,5.87,8.41,8.41,0,0,0,2.68,6.49c3.61,3.41,9.57,3.53,13,.25l16.1-15.24a11.57,11.57,0,0,0-.09-17c-5-4.74-13.67-4.94-19.12-.86a76,76,0,0,0-6.31,5.89L9.86,15.42l-4,3.83A17.07,17.07,0,0,0,1.9,23.86,17.52,17.52,0,0,0,.17,29.39,16.81,16.81,0,0,0,2.28,40.24a15.23,15.23,0,0,0,2.61,3.26C8.11,46.56,13.52,48,18.49,48c4.08,0,7.87-1,9.9-2.82L47.08,27.49A2.87,2.87,0,0,0,47.08,23.28Z"/></svg>