<svg id="fill" xmlns="http://www.w3.org/2000/svg" viewBox="0 0 48 48"><title>Filled_</title><path d="M4,18.81V17.26a1.2,1.2,0,0,1,1.2-1.19h1.2A1.59,1.59,0,0,0,8,14.49v-0.9A1.59,1.59,0,0,0,6.41,12H1.59A1.59,1.59,0,0,0,0,13.59v12.8A1.59,1.59,0,0,0,1.59,28H6.41A1.59,1.59,0,0,0,8,26.39V21.61A1.59,1.59,0,0,0,6.41,20H5.2A1.2,1.2,0,0,1,4,18.81Z"/><path d="M16.05,18.81V17.26a1.2,1.2,0,0,1,1.2-1.19h1.2a1.59,1.59,0,0,0,1.59-1.59v-0.9A1.59,1.59,0,0,0,18.46,12H13.64a1.59,1.59,0,0,0-1.59,1.59v12.8A1.59,1.59,0,0,0,13.64,28h4.82a1.59,1.59,0,0,0,1.59-1.59V21.61A1.59,1.59,0,0,0,18.46,20H17.25A1.2,1.2,0,0,1,16.05,18.81Z"/><path d="M44,29.26v1.55A1.2,1.2,0,0,1,42.79,32h-1.2A1.59,1.59,0,0,0,40,33.58v0.9a1.59,1.59,0,0,0,1.59,1.59h4.82A1.59,1.59,0,0,0,48,34.48V21.68a1.59,1.59,0,0,0-1.59-1.59H41.59A1.59,1.59,0,0,0,40,21.68v4.78A1.59,1.59,0,0,0,41.59,28H42.8A1.2,1.2,0,0,1,44,29.26Z"/><path d="M31.95,29.26v1.55A1.2,1.2,0,0,1,30.74,32h-1.2a1.59,1.59,0,0,0-1.59,1.59v0.9a1.59,1.59,0,0,0,1.59,1.59h4.82a1.59,1.59,0,0,0,1.59-1.59V21.68a1.59,1.59,0,0,0-1.59-1.59H29.54a1.59,1.59,0,0,0-1.59,1.59v4.78A1.59,1.59,0,0,0,29.54,28h1.21A1.2,1.2,0,0,1,31.95,29.26Z"/></svg>