<svg id="fill" xmlns="http://www.w3.org/2000/svg" viewBox="0 0 48 48"><title>Filled_</title><path d="M29.34,20a2,2,0,0,0-1.69,1,6.51,6.51,0,0,1-5.58,3A6.44,6.44,0,0,1,16.48,21a2,2,0,0,0-1.7-1h0a1.94,1.94,0,0,0-1.69,2.91,10.56,10.56,0,0,0,9,5,10.4,10.4,0,0,0,9-5,2,2,0,0,0-1.66-3h0Z"/><path d="M46.85,41.25l-7.11-7.12A21.76,21.76,0,0,0,37.2,6.39h0A21.79,21.79,0,0,0,6.38,37.2a21.78,21.78,0,0,0,27.76,2.54l7.1,7.11A4,4,0,0,0,46.85,41.25ZM12,31.6A13.87,13.87,0,0,1,31.59,12h0A13.87,13.87,0,0,1,12,31.6Z"/></svg>