<svg id="fill" xmlns="http://www.w3.org/2000/svg" viewBox="0 0 48 48"><title>Fill_</title><path fill="#fff" d="M4,42.17V32H0V46.14A1.86,1.86,0,0,0,1.86,48H16V44H5.86A1.83,1.83,0,0,1,4,42.17Z"/><path fill="#fff" d="M44,42.17A1.83,1.83,0,0,1,42.14,44H32v4H46.14A1.86,1.86,0,0,0,48,46.14V32H44V42.17Z"/><path fill="#fff" d="M36,26.08V21.92A1.92,1.92,0,0,0,34.08,20H28V13.92A1.92,1.92,0,0,0,26.08,12H21.92A1.92,1.92,0,0,0,20,13.92V20H13.92A1.92,1.92,0,0,0,12,21.92v4.16A1.92,1.92,0,0,0,13.92,28H20v6.08A1.92,1.92,0,0,0,21.92,36h4.16A1.92,1.92,0,0,0,28,34.08V28h6.08A1.92,1.92,0,0,0,36,26.08Z"/><rect style="fill:white;" x="20" y="44" width="8" height="4"/><rect style="fill:white;" x="44" y="20" width="4" height="8"/><path fill="#fff" d="M4,5.86A1.83,1.83,0,0,1,5.83,4H16V0H1.86A1.86,1.86,0,0,0,0,1.86V16H4V5.86Z"/><path fill="#fff" d="M46.14,0H32V4H42.17A1.83,1.83,0,0,1,44,5.86V16h4V1.86A1.86,1.86,0,0,0,46.14,0Z"/><rect style="fill:white;" y="20" width="4" height="8"/><rect style="fill:white;" x="20" width="8" height="4"/></svg>