<svg id="fill" xmlns="http://www.w3.org/2000/svg" viewBox="0 0 48 48"><title>Filled_</title><path d="M1.89,16H4a0,0,0,0,1,0,0V36a0,0,0,0,1,0,0H1.89A1.89,1.89,0,0,1,0,34.11V17.89A1.89,1.89,0,0,1,1.89,16Z"/><path d="M44,16h2.24A1.76,1.76,0,0,1,48,17.76V34.24A1.76,1.76,0,0,1,46.24,36H44a0,0,0,0,1,0,0V16A0,0,0,0,1,44,16Z"/><path d="M8,9.77V38.23A1.77,1.77,0,0,0,9.77,40H38.23A1.77,1.77,0,0,0,40,38.23V9.77A1.77,1.77,0,0,0,38.23,8H9.77A1.77,1.77,0,0,0,8,9.77ZM31.36,16A4,4,0,1,1,28,19.37,4,4,0,0,1,31.36,16Zm-16,0A4,4,0,1,1,12,19.37,4,4,0,0,1,15.36,16ZM36,36H12V32H36v4Z"/></svg>