<svg id="fill" xmlns="http://www.w3.org/2000/svg" viewBox="0 0 48 48"><title>Filled_</title><path d="M32.59,19.85l1.5-1.33a10.34,10.34,0,0,1,2.25-1.32,13.25,13.25,0,0,0,5.59-4.83A14.16,14.16,0,0,0,43.7,7.49a32.36,32.36,0,0,0,.3-4V2a2,2,0,0,0-2-2H6A2,2,0,0,0,4,2V3.51a33.6,33.6,0,0,0,.29,4A14.24,14.24,0,0,0,6,12.36a13.42,13.42,0,0,0,5.55,4.83,11.38,11.38,0,0,1,3.8,2.65,5,5,0,0,1,1.24,2C16.82,22.9,17,23.88,17,24s-0.18,1.1-.4,2.18a5,5,0,0,1-1.24,2,11.31,11.31,0,0,1-3.78,2.65A13.44,13.44,0,0,0,6,35.64a14.26,14.26,0,0,0-1.73,4.87,33.34,33.34,0,0,0-.29,4V46a2,2,0,0,0,2,2H42a2,2,0,0,0,2-2V44.49a32.36,32.36,0,0,0-.3-4,14.13,14.13,0,0,0-1.77-4.87,13.22,13.22,0,0,0-5.57-4.84,11.42,11.42,0,0,1-3.76-2.65,4.91,4.91,0,0,1-1.21-2C31.17,25.09,31,24.11,31,24s0.12-.82.27-1.58A12.54,12.54,0,0,1,32.59,19.85Z"/></svg>