<svg id="fill" xmlns="http://www.w3.org/2000/svg" viewBox="0 0 48 48"><defs><style>.cls-1{fill:none;}</style></defs><title>Filled_</title><path fill="#fff" class="cls-1" d="M24,3.94A20.13,20.13,0,0,0,4.06,21.83a2,2,0,0,0,2,2.17h0a2,2,0,0,0,2-1.83,16.06,16.06,0,0,1,31.91,0,2,2,0,0,0,2,1.83h0a2,2,0,0,0,2-2.17A20.13,20.13,0,0,0,24,3.94Z"/><path fill="#fff" d="M24-.06A24,24,0,1,0,48,24,24,24,0,0,0,24-.06ZM32,32a8,8,0,1,1-4.52-7.19l4.32-5.08a2,2,0,0,1,2.82-.23h0a2,2,0,0,1,.23,2.82l-4.32,5.07A8,8,0,0,1,32,32Zm9.95-8a2,2,0,0,1-2-1.83A16.06,16.06,0,0,0,8,22.17a2,2,0,0,1-2,1.83h0a2,2,0,0,1-2-2.17,20.06,20.06,0,0,1,39.88,0,2,2,0,0,1-2,2.17h0Z"/></svg>