<svg id="fill" xmlns="http://www.w3.org/2000/svg" viewBox="0 0 48 48"><title>Filled_</title><path d="M16,25.19v1.55a1.2,1.2,0,0,1-1.2,1.19h-1.2A1.59,1.59,0,0,0,12,29.51v0.9A1.59,1.59,0,0,0,13.62,32h4.82A1.59,1.59,0,0,0,20,30.41V17.61A1.59,1.59,0,0,0,18.44,16H13.62A1.59,1.59,0,0,0,12,17.61v4.78A1.59,1.59,0,0,0,13.62,24h1.21A1.2,1.2,0,0,1,16,25.19Z"/><path d="M32,25.19v1.55a1.2,1.2,0,0,1-1.2,1.19h-1.2A1.59,1.59,0,0,0,28,29.51v0.9A1.59,1.59,0,0,0,29.56,32h4.82A1.59,1.59,0,0,0,36,30.41V17.61A1.59,1.59,0,0,0,34.38,16H29.56A1.59,1.59,0,0,0,28,17.61v4.78A1.59,1.59,0,0,0,29.56,24h1.21A1.2,1.2,0,0,1,32,25.19Z"/></svg>