<svg id="fill" xmlns="http://www.w3.org/2000/svg" viewBox="0 0 48 48"><title>Filled_</title><path fill="#fff" d="M24,0c-0.24,0-.49,0-0.73,0A23.87,23.87,0,0,0,7.46,6.61l-0.24.23A23.82,23.82,0,0,0,0,24,24,24,0,0,0,23.27,48c0.24,0,.48,0,0.73,0A24,24,0,0,0,24,0ZM37.34,22a40.05,40.05,0,0,0-1.28-8.55A24.48,24.48,0,0,0,39.2,11a19.86,19.86,0,0,1,4.69,11H37.34ZM22,22H14.67a38.21,38.21,0,0,1,.92-6.64A23.62,23.62,0,0,0,22,16.95V22Zm0,4v5.09a23.6,23.6,0,0,0-6.4,1.58A38.19,38.19,0,0,1,14.67,26H22Zm4,0h7.33a38.23,38.23,0,0,1-1,6.67A23.71,23.71,0,0,0,26,31.1V26Zm0-4V16.94a23.71,23.71,0,0,0,6.35-1.56,38.25,38.25,0,0,1,1,6.62H26ZM36.29,8.26q-0.76.66-1.56,1.24a24.2,24.2,0,0,0-1.66-3.3A20.12,20.12,0,0,1,36.29,8.26ZM31.15,11.5A16.25,16.25,0,0,1,26,12.92V4.44C28,5.5,29.88,8.13,31.15,11.5ZM22,4.37v8.56a16.68,16.68,0,0,1-5.28-1.42C18,8.07,20,5.39,22,4.37ZM13.27,9.49q-0.81-.58-1.57-1.25a20.05,20.05,0,0,1,3.25-2.08A24.13,24.13,0,0,0,13.27,9.49ZM8.78,11a24.48,24.48,0,0,0,3.16,2.4A40.06,40.06,0,0,0,10.66,22H4.1A19.77,19.77,0,0,1,8.78,11ZM4.1,26h6.56a40,40,0,0,0,1.29,8.6A24.46,24.46,0,0,0,8.8,37,19.71,19.71,0,0,1,4.1,26Zm7.62,13.77q0.76-.66,1.56-1.24A24.11,24.11,0,0,0,15,41.84,20,20,0,0,1,11.72,39.77Zm5-3.25A16.64,16.64,0,0,1,22,35.11v8.52C20,42.61,18,39.95,16.74,36.53Zm9.26,7V35.13a16.25,16.25,0,0,1,5.14,1.39C29.87,39.88,28,42.5,26,43.56Zm8.72-5q0.8,0.57,1.55,1.22a20.12,20.12,0,0,1-3.19,2A24.18,24.18,0,0,0,34.72,38.53ZM39.18,37A24.47,24.47,0,0,0,36,34.6,40,40,0,0,0,37.34,26h6.55A19.86,19.86,0,0,1,39.18,37Z"/></svg>