<svg id="fill" xmlns="http://www.w3.org/2000/svg" viewBox="0 0 48 48"><title>Fill_</title><path fill="#fff" d="M7,34H3a3,3,0,0,1,0-6H7A3,3,0,0,1,7,34Z"/><path fill="#fff" d="M17,48a3,3,0,0,1-3-3V41a3,3,0,0,1,6,0v4A3,3,0,0,1,17,48Z"/><path fill="#fff" d="M6.32,44.68A3,3,0,0,1,4.2,39.56L7,36.73A3,3,0,1,1,11.27,41L8.44,43.8A3,3,0,0,1,6.32,44.68Z"/><path fill="#fff" d="M30,10a3,3,0,0,1-3-3V3a3,3,0,0,1,6,0V7A3,3,0,0,1,30,10Z"/><path fill="#fff" d="M45,20H41a3,3,0,0,1,0-6h4A3,3,0,0,1,45,20Z"/><path fill="#fff" d="M38.85,12.15A3,3,0,0,1,36.73,7L39.56,4.2A3,3,0,1,1,43.8,8.44L41,11.27A3,3,0,0,1,38.85,12.15Z"/><path fill="#fff" d="M17.24,1.07L27,10.19A4,4,0,0,1,28.23,13a4.06,4.06,0,0,1-1.16,2.86l-2.8,2.8L14.63,9.46,9,15.05l9.63,9.22-2.79,2.79a4,4,0,0,1-5.5.09L0.95,18A3.64,3.64,0,0,1,0,15.21V15.14a3.72,3.72,0,0,1,.86-2.8l11-11.19A3.77,3.77,0,0,1,17.24,1.07Z"/><path fill="#fff" d="M46.93,30.24l-9.12-9.73A4,4,0,0,0,35,19.26a4.06,4.06,0,0,0-2.86,1.16l-2.8,2.8,9.22,9.64-5.59,5.59-9.22-9.63-2.79,2.79a4,4,0,0,0-.09,5.5L30,46.8A3.84,3.84,0,0,0,32.79,48h0.06a3.91,3.91,0,0,0,2.8-1.11L46.84,35.72A3.93,3.93,0,0,0,46.93,30.24Z"/></svg>