<svg id="fill" xmlns="http://www.w3.org/2000/svg" viewBox="0 0 48 48"><title>Fill_</title><path fill="#fff" d="M0.07,5.11l9.54,9.52a3.54,3.54,0,1,0,5-5L5,0,0,0Z"/><path fill="#fff" d="M7.11,17.13L3.79,13.81c-0.53.72-.28,0.64-0.28,0.85a11.53,11.53,0,0,0,3,8.15L14,30.2l5.45-5.44c-3.24-3.26-4.24-4.54-5.17-5.49A7.49,7.49,0,0,1,7.11,17.13Z"/><path fill="#fff" d="M14.68,3.54c-0.22,0-.16-0.24-0.89.28l3.33,3.32c2,2,3.05,4.29,2.09,7.08l5.37,5.36L30.22,14,22.81,6.57A11.44,11.44,0,0,0,14.68,3.54Z"/><path fill="#fff" d="M42.94,48l-10-10a3.57,3.57,0,0,1-.14-5.17,3.48,3.48,0,0,1,5.08.17L48,43v4.91Z"/><path fill="#fff" d="M30.5,40.47l3.32,3.32c-0.72.53-.64,0.28-0.85,0.27a11.58,11.58,0,0,1-8.16-3l-6.41-6.4,5.45-5.44c2.27,2.23,3.54,3.24,4.5,4.16A7.46,7.46,0,0,0,30.5,40.47Z"/><path fill="#fff" d="M44.12,32.92c0,0.22.24,0.16-.28,0.89l-3.33-3.32c-2-2-4.3-3-7.1-2.09L29,24l5.63-5.62,6.41,6.4A11.39,11.39,0,0,1,44.12,32.92Z"/></svg>