<svg id="fill" xmlns="http://www.w3.org/2000/svg" viewBox="0 0 48 48"><title>Filled_</title><path fill="#fff" d="M20.15,3c0.41,0.37-.08-0.94.74-1.11a12.4,12.4,0,0,1,2-.41c1.39-.16,2.95-1.06,4.17-1.15l0.25,0A23.27,23.27,0,0,0,13,2.69a10.66,10.66,0,0,1,3.14.63C16.87,3.73,19.74,2.58,20.15,3Z"/><path fill="#fff" d="M44.52,11.62c-1.27.55-1.64-1.17-1.43-.19s-1,2-.05,2.37,2.13,0.41,1,.9-0.92,1.32-1.67,2a1.11,1.11,0,0,1-1.08.2,0.57,0.57,0,0,1-.37-0.33,26,26,0,0,0-.81-3.09c-0.65-1.45-1.3-2.89-1.93-4.34-0.3-.68-0.63-2.7-1.29-2.87-0.41-.1-0.85,0-1.26-0.1a1.41,1.41,0,0,1-.93-1.87A0.52,0.52,0,0,1,34.92,4a0.57,0.57,0,0,1,.29,0A5.18,5.18,0,0,1,37.88,5.3a0.76,0.76,0,0,1-.22-0.55,0.71,0.71,0,0,0-.24-0.27A17.59,17.59,0,0,0,32,1.41a5.1,5.1,0,0,1-.59.19c-1,.24-1.88.49-1.15,0.9s0.57,1.15,1.06,1.39,0.57,0.41-.25,1.31S30,6.35,30.38,7s1.15,1,1.15,1.39a2.87,2.87,0,0,1,0,1.47c-0.25.82-1.31,0.49-2.13,1s-4.26,1.39-5,2.13-1,1.88-1.76,2.54a2.68,2.68,0,0,0-.7,1.72c-0.16.25-1.15-1.72-1.8-1.56a7.87,7.87,0,0,0-2,.65c-0.82.41-1.39-.2-1.39,0.92s0,3.09,1,2.6a4.83,4.83,0,0,1,1.56-.74c0.57-.08.33,0.82,0.33,1.39s0.33,0.16.9,0.57,1,0.25.08,0.82-1,.41.16,0.57,0,0.16,2.86,0,2-.82,3.36.12a21.42,21.42,0,0,0,2.29,1.6c1.23,0.74,1.47.82,1.06,1.64S29.56,27,31.77,27s3.11,0.16,2.7,1.47-1.39,2.29-1.31,3.44,0.49,2-.65,2.29-0.65,1.15-2,2.7-3.11,2-3.11,3.68a4.91,4.91,0,0,0,1.31,3.85c1,1-1.47,1.23-2.46-.74S24,39.09,24.57,37.95s0.65-1.88-.25-3.44a55.24,55.24,0,0,1-2.95-5.73c-0.41-1.15-1.23-2.21.16-1.88s1-1,.82-2S21,23.78,20.07,23.29s-1.47-1.8-3.11-2.13-1.72-.33-2.46-1.47S14,18,13.35,17.24s-2.21-.82-2.29-2.29-0.25-3.11.9-4.26,1.39-1.47.74-2.62-0.44-2-1.7-2-2.15.49-3.22,0.74a1.77,1.77,0,0,1-.49,0A24,24,0,1,0,47.21,30L44.65,24c1.32-.26,1.7-0.65,2.6.45,0.46,0.56.62,0.7,0.69,0.82C48,24.88,48,24.45,48,24A23.82,23.82,0,0,0,44.52,11.62Z"/></svg>