<svg id="fill" xmlns="http://www.w3.org/2000/svg" viewBox="0 0 48 48"><defs><style>.cls-1{fill:none;}</style></defs><title>Fill_</title><rect style="fill:white;" class="cls-1" x="4" y="36" width="4" height="4"/><path fill="#fff" d="M46,32H36L24,44H46a2,2,0,0,0,2-2V34A2,2,0,0,0,46,32Z"/><path fill="#fff" d="M11.86,32H2a2,2,0,0,0-2,2v8a2,2,0,0,0,2,2H23.86ZM8,40H4V36H8v4Z"/><path fill="#fff" d="M37.4,21.4l-2.83-2.83a2,2,0,0,0-2.83,0L28,22.32V6a2,2,0,0,0-2-2H22a2,2,0,0,0-2,2V22.4l-3.78-3.78a2,2,0,0,0-2.83,0l-2.83,2.83a2,2,0,0,0,0,2.83L24,37.67,37.4,24.23A2,2,0,0,0,37.4,21.4Z"/></svg>