<svg id="fill" xmlns="http://www.w3.org/2000/svg" viewBox="0 0 48 48"><title>Filled_</title><path d="M46,4H36V2a2,2,0,0,0-4,0V4H16V2a2,2,0,0,0-4,0V4H2A2.07,2.07,0,0,0,0,6.07V46a2,2,0,0,0,2,2H46a2,2,0,0,0,2-2V5.76A1.93,1.93,0,0,0,46,4ZM44,44H4V16H44V44Z"/><rect x="8.12" y="20.06" width="7.79" height="7.86"/><rect x="8.12" y="32.06" width="7.79" height="7.86"/><rect x="20.03" y="32.06" width="7.79" height="7.86"/><rect x="20.12" y="20.06" width="7.79" height="7.86"/><rect x="32.12" y="20.06" width="7.79" height="7.86"/></svg>