<svg id="fill" xmlns="http://www.w3.org/2000/svg" viewBox="0 0 48 48"><title>Fill_</title><polygon style="fill:white;" points="4 20 4 8 16.01 8 16.01 4 0 4 0 20 4 20"/><polygon style="fill:white;" points="48 19.96 48 4 32.02 4 32.02 8 44 8 44 19.96 48 19.96"/><polygon style="fill:white;" points="15.99 40 4 40 4 28.01 0 28.01 0 44 15.99 44 15.99 40"/><polygon style="fill:white;" points="44 28.01 44 40 32.02 40 32.02 44 48 44 48 28.01 44 28.01"/><path fill="#fff" d="M36,26V22a2,2,0,0,0-2-2H28V14a2,2,0,0,0-2-2H22a2,2,0,0,0-2,2v6H14a2,2,0,0,0-2,2v4a2,2,0,0,0,2,2h6v6a2,2,0,0,0,2,2h4a2,2,0,0,0,2-2V28h6A2,2,0,0,0,36,26Z"/></svg>