<svg id="fill" xmlns="http://www.w3.org/2000/svg" viewBox="0 0 48 48"><title>Fill_</title><path fill="#fff" d="M40,38.12A1.88,1.88,0,0,1,38.12,40H32v8H46.12A1.88,1.88,0,0,0,48,46.12V32H40v6.12Z"/><path fill="#fff" d="M8,38.12V32H0V46.12A1.88,1.88,0,0,0,1.88,48H16V40H9.88A1.88,1.88,0,0,1,8,38.12Z"/><path fill="#fff" d="M8,9.88A1.88,1.88,0,0,1,9.88,8H16V0H1.88A1.88,1.88,0,0,0,0,1.88V16H8V9.88Z"/><path fill="#fff" d="M46.12,0H32V8h6.12A1.88,1.88,0,0,1,40,9.88V16h8V1.88A1.88,1.88,0,0,0,46.12,0Z"/><path fill="#fff" d="M36,24A12,12,0,1,0,24,36,12,12,0,0,0,36,24ZM24,28a4,4,0,0,1-4-4h8A4,4,0,0,1,24,28Z"/></svg>