<svg id="fill" xmlns="http://www.w3.org/2000/svg" viewBox="0 0 48 48"><title>Fill_</title><path d="M21.38,32a1.3,1.3,0,0,1-1.29-1.38A16.69,16.69,0,0,1,21.31,26a11.74,11.74,0,0,1,2.21-3.24,16.39,16.39,0,0,1,2.83-2.33q1.52-1,2.83-2a11.5,11.5,0,0,0,2.21-2.19,4.74,4.74,0,0,0,.89-2.79,4.81,4.81,0,0,0-1.8-4A7.35,7.35,0,0,0,25.76,8a13.56,13.56,0,0,0-8.92,3.65,1.65,1.65,0,0,1-2.21-.06L11.24,8.39a1.66,1.66,0,0,1,0-2.42,24,24,0,0,1,5.83-4A19.87,19.87,0,0,1,26,0a22.62,22.62,0,0,1,6.49.88,15.09,15.09,0,0,1,5,2.49,11.32,11.32,0,0,1,3.23,3.94,11.77,11.77,0,0,1,1.15,5.29,11.44,11.44,0,0,1-1,5.06,13.37,13.37,0,0,1-2.54,3.61A22.08,22.08,0,0,1,35,24q-1.75,1.18-3.29,2.36a14.17,14.17,0,0,0-2.6,2.53,5.17,5.17,0,0,0-1,2.15,1.32,1.32,0,0,1-1.29,1.08Zm0.7,8H26a2,2,0,0,1,2,1.82v4.29A2,2,0,0,1,26,48H22.08a2,2,0,0,1-2-1.82V41.89A2,2,0,0,1,22.08,40.06Z"/></svg>