<svg id="fill" xmlns="http://www.w3.org/2000/svg" viewBox="0 0 48 48"><title>Filled_</title><path fill="#fff" d="M46,4H14.11A2.11,2.11,0,0,0,12,6V9.91a2.09,2.09,0,0,0,2.09,2H45.91A2.09,2.09,0,0,0,48,9.9V6A2,2,0,0,0,46,4Z"/><path fill="#fff" d="M46,20.09H14.11a2.11,2.11,0,0,0-2.11,2V26a2.09,2.09,0,0,0,2.09,2H45.91A2.09,2.09,0,0,0,48,26V22.09A2,2,0,0,0,46,20.09Z"/><path fill="#fff" d="M46,36.13H14.11a2.11,2.11,0,0,0-2.11,2v3.72A2.29,2.29,0,0,0,14.18,44H45.91A2.21,2.21,0,0,0,48,41.86V38.13A2,2,0,0,0,46,36.13Z"/><polygon style="fill:white;" points="2 10 2 12 8 12 8 10 6 10 6 4 4.48 4 1.73 5.23 2.3 7 4 6.25 4 10 2 10"/><path fill="#fff" d="M8,26H4s0,0,.16-0.25c1-1.06,2.7-1.12,3.55-2.37A2,2,0,0,0,8,22.24a2.13,2.13,0,0,0-.18-0.86,2.1,2.1,0,0,0-.53-0.72,2.61,2.61,0,0,0-.88-0.5A3.7,3.7,0,0,0,5.15,20a4.48,4.48,0,0,0-1.7.33A5.13,5.13,0,0,0,2,21.15l0.92,1a4.25,4.25,0,0,1,1-.6A2.69,2.69,0,0,1,5,21.36a1.48,1.48,0,0,1,1,.28,0.89,0.89,0,0,1,.3.67A0.84,0.84,0,0,1,6,23a4.36,4.36,0,0,1-.79.52,9.28,9.28,0,0,0-2.5,1.6,3,3,0,0,0-.59,2.18l0,0.73H8V26Z"/><path fill="#fff" d="M6.75,39.73a2,2,0,0,0,.8-0.61,1.58,1.58,0,0,0,.29-1,1.74,1.74,0,0,0-.2-0.83,1.9,1.9,0,0,0-.57-0.64,2.74,2.74,0,0,0-.88-0.41A4.19,4.19,0,0,0,5,36.1a4.21,4.21,0,0,0-1.47.24A5.62,5.62,0,0,0,2.36,37l0.72,1A4.74,4.74,0,0,1,4,37.54a2.52,2.52,0,0,1,1-.19,1.54,1.54,0,0,1,1,.27,0.81,0.81,0,0,1,.33.66,0.63,0.63,0,0,1-.33.63,1.83,1.83,0,0,1-1,.09H4v1H5A2.32,2.32,0,0,1,6,40.44a1,1,0,0,1,.41.86,1,1,0,0,1-.47.9,2.29,2.29,0,0,1-1.24.33,3.51,3.51,0,0,1-1-.13A5.05,5.05,0,0,1,2.82,42L2.23,43.19a6.36,6.36,0,0,0,1.23.45,5.49,5.49,0,0,0,2.58,0,3.37,3.37,0,0,0,1-.44,2.3,2.3,0,0,0,.72-0.72,1.88,1.88,0,0,0,.27-1,1.71,1.71,0,0,0-.33-1.07A2.35,2.35,0,0,0,6.75,39.73Z"/></svg>