<svg id="fill" xmlns="http://www.w3.org/2000/svg" viewBox="0 0 48 48"><title>Filled_</title><path d="M43.93,8L36,0V6a2,2,0,0,0,2,2h5.93Z"/><path d="M34,12a2,2,0,0,1-2-2V0H6A2,2,0,0,0,4,2V46a1.81,1.81,0,0,0,1.5,2H42a2,2,0,0,0,2-2V12H34ZM14.06,40l-1.78-2.71L10.5,40h-2l2.73-4.05L8.55,32h2.09l1.68,2.55L14,32h2l-2.65,3.89L16.14,40H14.06ZM17,36.51H14.92V35.1H17v1.41Zm7-2.94H21.38V40H19.66V33.57H17V32h7v1.52ZM26.7,40H25V32H26.7V40Zm7.07-6.41h-4v1.87h3.45v1.42H29.77l0,3.17H28.06l0-8h5.74v1.51Zm6.26,0H36v1.87h3.45v1.42H36V40H34.29V32H40v1.51Z"/></svg>