<svg id="fill" xmlns="http://www.w3.org/2000/svg" viewBox="0 0 48 48"><title>Filled_</title><path fill="#fff" d="M18.53,40.2C25.24,40.2,32,36.75,32,29V14.88l0.07-4.59a2,2,0,1,0-4-.06L28,14.86V29c0,1.68-.68,7.16-9.47,7.16C15.11,36.2,12,32.79,12,29V8.78A4.71,4.71,0,0,1,16.5,4,4.71,4.71,0,0,1,21,8.78V25.1c0,1-.19,2.21-1,2.23-0.34-.2-1-1.67-1-3.77V10.2a2,2,0,0,0-4,0V23.56c0,3.86,1.52,7.75,4.91,7.75C23,31.31,25,28.87,25,25.1V8.78A8.76,8.76,0,0,0,16.5,0,8.76,8.76,0,0,0,8,8.78V29C8,35,12.92,40.2,18.53,40.2Z"/><path fill="#fff" d="M44.25,16H36V31.2C36,41.6,22.5,44,19,44,5.2,44,4,35.22,4,27L3.93,16H1.7A1.7,1.7,0,0,0,0,17.7V46.3A1.7,1.7,0,0,0,1.7,48H46.3A1.7,1.7,0,0,0,48,46.3V17.7A1.7,1.7,0,0,0,46.3,16h-2Z"/></svg>