<svg id="fill" xmlns="http://www.w3.org/2000/svg" viewBox="0 0 48 48"><title>Fill_</title><path fill="#fff" d="M5.93,12h7.93L15.51,1.65A2,2,0,0,1,17.43,0H21.5a2,2,0,0,1,1.92,2.26L21.81,12h8.71L32.24,1.64A2,2,0,0,1,34.16,0H38.1A2,2,0,0,1,40,2.27L38.4,12h5.69A2,2,0,0,1,46,14v4.1A2,2,0,0,1,44.09,20H37.24l-1.58,8H42a2,2,0,0,1,1.95,1.93l0,4.1A2,2,0,0,1,42,36H34.57L32.78,46.39A2,2,0,0,1,30.86,48H26.93A2,2,0,0,1,25,45.73L26.68,36H18L16.42,46.35A2,2,0,0,1,14.5,48h-4a2,2,0,0,1-1.93-2.22L10,36H2A2,2,0,0,1,0,34.07L0,30a2,2,0,0,1,1.95-2h9.16l1.58-8H5.93A2,2,0,0,1,4,18.06V14A2,2,0,0,1,5.93,12ZM19.07,28h8.71l1.58-8H20.64Z"/></svg>