<svg id="fill" xmlns="http://www.w3.org/2000/svg" viewBox="0 0 48 48"><title>Filled_</title><path fill="#fff" d="M48,8.74a19.31,19.31,0,0,1-5.66,1.59,10.09,10.09,0,0,0,4.33-5.59,19.42,19.42,0,0,1-6.25,2.45A9.72,9.72,0,0,0,33.23,4a10,10,0,0,0-9.85,10.1,10.38,10.38,0,0,0,.25,2.3A27.73,27.73,0,0,1,3.34,5.85a10.28,10.28,0,0,0,3,13.48,9.62,9.62,0,0,1-4.46-1.26s0,0.08,0,.13a10,10,0,0,0,7.9,9.9,9.63,9.63,0,0,1-4.45.17,9.89,9.89,0,0,0,9.2,7A19.49,19.49,0,0,1,0,39.46,27.37,27.37,0,0,0,15.1,44c18.11,0,28-15.39,28-28.73q0-.66,0-1.31A20.3,20.3,0,0,0,48,8.74Z"/></svg>