<svg id="fill" xmlns="http://www.w3.org/2000/svg" viewBox="0 0 48 48"><title>Filled_</title><path fill="#fff" d="M43.93,8L36,0V6a2,2,0,0,0,2,2h5.93Z"/><path fill="#fff" d="M16.89,33.35H15.12v2.37h1.76a1.39,1.39,0,0,0,1-.34,1.16,1.16,0,0,0,.34-0.85,1.13,1.13,0,0,0-.34-0.85A1.4,1.4,0,0,0,16.89,33.35Z"/><path fill="#fff" d="M34,12a2,2,0,0,1-2-2V0H6A2,2,0,0,0,4,2V46a1.81,1.81,0,0,0,1.5,2H42a2,2,0,0,0,2-2V12H34ZM18.18,40l-1.23-3H15.12v3H13.38V32H16.9a4.19,4.19,0,0,1,1.45.22,2.6,2.6,0,0,1,.95.57,2.08,2.08,0,0,1,.52.81,2.81,2.81,0,0,1,.16.94,2.47,2.47,0,0,1-.35,1.3,2.28,2.28,0,0,1-1.11.91L20,40H18.18Zm9.63-6.47H25.17V40H23.44V33.5H20.8V32h7V33.5Zm6.8,0h-4v1.87h3.45v1.42H30.62V40H28.88V32h5.74v1.51Z"/></svg>