<svg id="fill" xmlns="http://www.w3.org/2000/svg" viewBox="0 0 48 48"><title>Filled_</title><path d="M43.93,8L36,0V6a2,2,0,0,0,2,2h5.93Z"/><path d="M25.36,33.35H23.8v2.28h1.55a1.36,1.36,0,0,0,1-.33,1.13,1.13,0,0,0,.32-0.82,1.09,1.09,0,0,0-.33-0.82A1.35,1.35,0,0,0,25.36,33.35Z"/><path d="M34,12a2,2,0,0,1-2-2V0H6A2,2,0,0,0,4,2V46a1.81,1.81,0,0,0,1.5,2H42a2,2,0,0,0,2-2V12H34ZM20.62,40H19V34.4l-2.42,3.33L14.21,34.4V40H12.62V32H14.3l2.33,3.3L19,32h1.66v8Zm7.56-4.62a2,2,0,0,1-.51.79,2.6,2.6,0,0,1-.92.56,3.92,3.92,0,0,1-1.39.22H23.8V40H22.12V32h3.23a4.09,4.09,0,0,1,1.4.21,2.52,2.52,0,0,1,.92.55,2,2,0,0,1,.5.78A2.73,2.73,0,0,1,28.18,35.37Zm6.92,3.3a2.37,2.37,0,0,1-.74.75,3.52,3.52,0,0,1-1.09.45,5.7,5.7,0,0,1-2.68,0,6.62,6.62,0,0,1-1.28-.47l0.61-1.2a5.27,5.27,0,0,0,1,.39,3.68,3.68,0,0,0,1,.15,2.38,2.38,0,0,0,1.29-.31,1,1,0,0,0,.49-0.87,0.81,0.81,0,0,0-.43-0.78,2.39,2.39,0,0,0-1.11-.23H31V35.31h1.08a1.77,1.77,0,0,0,1-.24,0.88,0.88,0,0,0,.35-0.79,0.84,0.84,0,0,0-.35-0.68,1.6,1.6,0,0,0-1-.28,2.64,2.64,0,0,0-1,.19,5,5,0,0,0-.92.49l-0.75-1.08a5.8,5.8,0,0,1,1.26-.66,4.8,4.8,0,0,1,2.71-.1,2.87,2.87,0,0,1,.91.42,2,2,0,0,1,.59.67,1.8,1.8,0,0,1,.21.87,1.64,1.64,0,0,1-.3,1,2.12,2.12,0,0,1-.83.63,2.43,2.43,0,0,1,1,.73,1.77,1.77,0,0,1,.34,1.11A2,2,0,0,1,35.1,38.67Z"/></svg>