<svg id="fill" xmlns="http://www.w3.org/2000/svg" viewBox="0 0 48 48"><title>Fill_</title><path d="M10.19,9.42L0.6,22.2a3,3,0,0,0,0,3.6l9.59,12.77a1.6,1.6,0,0,0,2.23.32l2.25-1.69A1.6,1.6,0,0,0,15,35L6.75,24,15,13a1.6,1.6,0,0,0-.32-2.23L12.43,9.11A1.6,1.6,0,0,0,10.19,9.42Z"/><path d="M47.4,22.2L37.81,9.42a1.6,1.6,0,0,0-2.23-.32l-2.25,1.69A1.6,1.6,0,0,0,33,13l8.24,11L33,35a1.6,1.6,0,0,0,.32,2.23l2.25,1.69a1.6,1.6,0,0,0,2.23-.32L47.4,25.8A3,3,0,0,0,47.4,22.2Z"/><path d="M20.86,40h1.77a1.6,1.6,0,0,0,1.58-1.35l4.5-28.81A1.6,1.6,0,0,0,27.14,8H25.37a1.6,1.6,0,0,0-1.58,1.35l-4.5,28.81A1.6,1.6,0,0,0,20.86,40Z"/></svg>