<svg id="fill" xmlns="http://www.w3.org/2000/svg" viewBox="0 0 48 48"><title>Filled_</title><path d="M43.93,8L36,0V6a2,2,0,0,0,2,2h5.93Z"/><path d="M12.28,33.4H10.67v2.37h1.6a1.41,1.41,0,0,0,1-.34,1.17,1.17,0,0,0,.33-0.85,1.13,1.13,0,0,0-.34-0.85A1.4,1.4,0,0,0,12.28,33.4Z"/><path d="M20,33.4H18.41v2.37H20a1.41,1.41,0,0,0,1-.34,1.17,1.17,0,0,0,.33-0.85A1.14,1.14,0,0,0,21,33.73,1.41,1.41,0,0,0,20,33.4Z"/><path d="M34,12a2,2,0,0,1-2-2V0H6A2,2,0,0,0,4,2V46a1.81,1.81,0,0,0,1.5,2H42a2,2,0,0,0,2-2V12H34ZM15.21,35.49a2.12,2.12,0,0,1-.53.82,2.7,2.7,0,0,1-.95.58,4.06,4.06,0,0,1-1.44.22H10.67V40H8.93V32h3.35a4.23,4.23,0,0,1,1.45.22,2.61,2.61,0,0,1,1,.57,2.12,2.12,0,0,1,.52.81A2.83,2.83,0,0,1,15.21,35.49Zm7.74,0a2.12,2.12,0,0,1-.53.82,2.71,2.71,0,0,1-.95.58,4.06,4.06,0,0,1-1.44.22H18.41V40H16.67V32H20a4.25,4.25,0,0,1,1.45.22,2.6,2.6,0,0,1,1,.57,2.1,2.1,0,0,1,.52.81A2.81,2.81,0,0,1,22.94,35.49Zm7.93-1.94H28.22V40H26.5V33.55H23.86V32h7v1.53ZM37,40l-1.78-2.73L33.43,40h-2l2.73-4.08L31.48,32h2.09l1.68,2.57L36.93,32h2l-2.65,3.92L39.07,40H37Z"/></svg>