<svg id="fill" xmlns="http://www.w3.org/2000/svg" viewBox="0 0 48 48"><title>Filled_</title><path fill="#fff" d="M43.93,8L36,0V6a2,2,0,0,0,2,2h5.93Z"/><path fill="#fff" d="M16.48,33.39H14.87v2.37h1.6a1.41,1.41,0,0,0,1-.34,1.17,1.17,0,0,0,.33-0.85,1.13,1.13,0,0,0-.34-0.85A1.4,1.4,0,0,0,16.48,33.39Z"/><path fill="#fff" d="M23.62,33.41h-1V38.6h1a2.43,2.43,0,0,0,1.9-.7A2.76,2.76,0,0,0,26.15,36a2.64,2.64,0,0,0-.65-1.87A2.45,2.45,0,0,0,23.62,33.41Z"/><path fill="#fff" d="M34,12a2,2,0,0,1-2-2V0H6A2,2,0,0,0,4,2V46a1.81,1.81,0,0,0,1.5,2H42a2,2,0,0,0,2-2V12H34ZM19.41,35.48a2.12,2.12,0,0,1-.53.82,2.7,2.7,0,0,1-.95.58,4.06,4.06,0,0,1-1.44.22H14.87V40H13.13V32h3.35a4.24,4.24,0,0,1,1.45.22,2.61,2.61,0,0,1,1,.57,2.12,2.12,0,0,1,.52.81A2.83,2.83,0,0,1,19.41,35.48Zm7.4,3.46A4.57,4.57,0,0,1,23.5,40H20.87V32H23.5a4.64,4.64,0,0,1,3.27,1A3.79,3.79,0,0,1,27.9,36,4,4,0,0,1,26.81,38.94Zm8.06-5.43h-4v1.87h3.45v1.42H30.87V40H29.13V32h5.74v1.51Z"/></svg>