<svg id="fill" xmlns="http://www.w3.org/2000/svg" viewBox="0 0 48 48"><title>Filled_</title><path d="M46.39,36.34L47.52,35a1.11,1.11,0,0,0-.15-1.58l-2.52-2.06a14.17,14.17,0,0,0,3.13-6A1.12,1.12,0,0,0,46.88,24H45.1a1.15,1.15,0,0,0-1.1.92c-1,4.2-8.41,11.19-20,11.19-12.19,0-19-7.77-20-11.32A1.1,1.1,0,0,0,2.94,24H1.14A1.12,1.12,0,0,0,0,25.36a14.78,14.78,0,0,0,3.54,6.2L1.29,33.44A1.11,1.11,0,0,0,1.15,35l1.13,1.34a1.13,1.13,0,0,0,1.58.14l2.68-2.24A25.92,25.92,0,0,0,10,36.5l-3,4.27a1.11,1.11,0,0,0,.27,1.56l1.45,1a1.13,1.13,0,0,0,1.56-.27l3.47-4.89a28.47,28.47,0,0,0,3.65,1.08l-1.64,5.6a1.12,1.12,0,0,0,.76,1.38l1.71,0.5A1.12,1.12,0,0,0,19.54,46l1.79-6.1C22.2,40,23.09,40,24,40s1.57,0,2.34-.09L28.12,46a1.12,1.12,0,0,0,1.39.76l1.71-.49A1.12,1.12,0,0,0,32,44.87l-1.62-5.52a29.37,29.37,0,0,0,4.53-1.29l3.57,5a1.13,1.13,0,0,0,1.56.27l1.45-1a1.11,1.11,0,0,0,.27-1.56l-3.15-4.42A24.73,24.73,0,0,0,42,34.1l2.85,2.38A1.13,1.13,0,0,0,46.39,36.34Z"/></svg>