<svg id="fill" xmlns="http://www.w3.org/2000/svg" viewBox="0 0 48 48"><title>Filled_</title><path d="M43.93,8L36,0V6a2,2,0,0,0,2,2h5.93Z"/><polygon points="26.1 33.94 25.04 37.18 27.2 37.18 26.13 33.94 26.1 33.94"/><path d="M34,12a2,2,0,0,1-2-2V0H6A2,2,0,0,0,4,2V46a1.81,1.81,0,0,0,1.5,2H42a2,2,0,0,0,2-2V12H34ZM18.07,40L16.5,34.59h0L14.9,40H13.13l-2.51-8h1.81l1.67,5.53h0L15.7,32h1.58l1.59,5.53h0L20.56,32h1.81l-2.52,8H18.07Zm10.08,0-0.5-1.5h-3L24.11,40H22.25l2.89-8h2L30,40H28.15Zm6.34,0h-2l-2.87-8h1.88l2,6h0l2-6h1.88Z"/></svg>