<svg id="fill" xmlns="http://www.w3.org/2000/svg" viewBox="0 0 48 48"><title>Filled_</title><path fill="#fff" d="M25.78,28H5.5C4.38,28,4,28.9,4,30V42c0,1.1.38,2,1.5,2H25.78A2.2,2.2,0,0,0,28,42V30A2.2,2.2,0,0,0,25.78,28ZM8,40V32H24v8H8Z"/><path fill="#fff" d="M36.94,15h0c0-4.22-2.27-7.64-6.55-7.64a2.09,2.09,0,0,0-.63.1C29.5,2.58,25.15-.07,20.18,0,14.35,0.08,10,5.45,10,11.2v4C4,16.08.61,19.54,0,24H8V18c0-1.08.41-2,1.5-2H37.9A2.08,2.08,0,0,1,40,18V35.87c5-.71,8-4.63,8-10C48,20.3,43,15.46,36.94,15Z"/><path fill="#fff" d="M34.12,20H12.7a1.36,1.36,0,0,0-1.37,1.35V24H29.59a2,2,0,0,1,2,2V40h2a2,2,0,0,0,2-2V21.53A1.55,1.55,0,0,0,34.12,20Z"/></svg>