<svg id="fill" xmlns="http://www.w3.org/2000/svg" viewBox="0 0 48 48"><title>Filled_</title><path d="M17.15,4a4.69,4.69,0,0,0-3.24,1.57L0.52,22.5a2.43,2.43,0,0,0,0,3L14.33,42.45A4.79,4.79,0,0,0,17.6,44H46a2,2,0,0,0,2-2V6a2,2,0,0,0-2-2H17.15ZM38.62,29.38a2,2,0,0,1,0,2.83l-2.48,2.48a2,2,0,0,1-2.83,0L28,29.35h0l-5.23,5.23a2,2,0,0,1-2.83,0L17.43,32.1a2,2,0,0,1,0-2.83L22.66,24l-5.17-5.17a2,2,0,0,1,0-2.83L20,13.56a2,2,0,0,1,2.83,0L28,18.73h0l5.31-5.31a2,2,0,0,1,2.83,0l2.48,2.48a2,2,0,0,1,0,2.83L33.28,24Z"/></svg>