<svg id="fill" xmlns="http://www.w3.org/2000/svg" viewBox="0 0 48 48"><title>Fill_</title><path fill="#fff" d="M30.06,31.14a14.17,14.17,0,0,0-.22-1.73,23.88,23.88,0,0,0,2-1.4l-0.05-.23-0.19-.6-0.28-.85C31.2,26,31,25.7,30.91,25.38a14.63,14.63,0,0,0-.88-1.7,4.47,4.47,0,0,0-.33-0.54l-0.14-.2a23.67,23.67,0,0,0-2.36.53,14.15,14.15,0,0,0-3.26-3.08,24.13,24.13,0,0,0,.42-2.4l-0.76-.42c-0.23-.12-0.5-0.27-0.79-0.41l-0.95-.39A17.89,17.89,0,0,0,20,16.19C19.53,16.06,19.19,16,19.19,16a21.52,21.52,0,0,0-1.3,2,13.51,13.51,0,0,0-4.48.12,23.88,23.88,0,0,0-1.4-2l-0.23.05-0.6.19-0.85.28C10,16.8,9.7,17,9.38,17.09a14.61,14.61,0,0,0-1.7.88,4.46,4.46,0,0,0-.54.33l-0.2.14a23.67,23.67,0,0,0,.53,2.36h0a14.15,14.15,0,0,0-3.08,3.26h0A24.13,24.13,0,0,0,2,23.63s-0.17.3-.42,0.76c-0.12.23-.27,0.5-0.41,0.79l-0.39.95A17.86,17.86,0,0,0,.18,28C0.05,28.47,0,28.81,0,28.81a21.53,21.53,0,0,0,2,1.3,13.51,13.51,0,0,0,.12,4.48h0a23.87,23.87,0,0,0-2,1.4l0.05,0.23,0.19,0.6,0.28,0.85C0.8,38,1,38.3,1.09,38.62A14.63,14.63,0,0,0,2,40.33a4.46,4.46,0,0,0,.33.54l0.14,0.2a23.69,23.69,0,0,0,2.36-.53h0a14.14,14.14,0,0,0,3.26,3.08h0A24.11,24.11,0,0,0,7.63,46l0.76,0.42c0.23,0.12.5,0.27,0.79,0.41l0.95,0.39a17.88,17.88,0,0,0,1.82.59c0.51,0.13.85,0.18,0.85,0.18a21.51,21.51,0,0,0,1.3-2h0a13.51,13.51,0,0,0,4.48-.12h0a23.89,23.89,0,0,0,1.4,2l0.23-.05,0.6-.19,0.85-.28c0.31-.11.62-0.26,0.94-0.4a14.62,14.62,0,0,0,1.7-.88,4.46,4.46,0,0,0,.54-0.33l0.2-.14a23.68,23.68,0,0,0-.53-2.36,14.14,14.14,0,0,0,3.08-3.26,24.12,24.12,0,0,0,2.4.42s0.17-.3.42-0.76c0.12-.23.27-0.5,0.41-0.79l0.39-.95A17.89,17.89,0,0,0,31.82,36c0.13-.51.18-0.85,0.18-0.85a21.53,21.53,0,0,0-2-1.3A14.14,14.14,0,0,0,30.06,31.14ZM16,38.09a5.94,5.94,0,1,1,5.94-5.94A5.94,5.94,0,0,1,16,38.09Z"/><path fill="#fff" d="M45,16.41a9.28,9.28,0,0,0,1.21-2.84,16.42,16.42,0,0,0,1.65-.31l0-.16,0.05-.43L48,12.06c0-.22,0-0.46,0-0.7A10.07,10.07,0,0,0,47.93,10a3.07,3.07,0,0,0-.05-0.43l0-.16a16.28,16.28,0,0,0-1.63-.35,9.73,9.73,0,0,0-1.15-2.86,16.6,16.6,0,0,0,1-1.38l-0.36-.48c-0.11-.14-0.23-0.31-0.38-0.48L44.8,3.39a12.28,12.28,0,0,0-1-.89c-0.28-.23-0.48-0.36-0.48-0.36A14.82,14.82,0,0,0,42,3a9.29,9.29,0,0,0-2.84-1.21A16.42,16.42,0,0,0,38.81.19l-0.16,0L38.22,0.1,37.61,0c-0.22,0-.46,0-0.7,0a10.05,10.05,0,0,0-1.32.06,3.07,3.07,0,0,0-.43.05L35,0.15a16.31,16.31,0,0,0-.35,1.63,9.73,9.73,0,0,0-2.86,1.15h0a16.59,16.59,0,0,0-1.38-1l-0.48.36c-0.14.11-.31,0.23-0.48,0.38l-0.51.48a12.28,12.28,0,0,0-.89,1c-0.23.28-.36,0.48-0.36,0.48A14.81,14.81,0,0,0,28.59,6a9.29,9.29,0,0,0-1.21,2.84h0a16.42,16.42,0,0,0-1.65.31l0,0.16-0.05.43-0.07.61c0,0.22,0,.46,0,0.7a10.07,10.07,0,0,0,.06,1.32,3.07,3.07,0,0,0,.05.43l0,0.16a16.29,16.29,0,0,0,1.63.35h0a9.73,9.73,0,0,0,1.15,2.86,16.61,16.61,0,0,0-1,1.38l0.36,0.48c0.11,0.14.23,0.31,0.38,0.48l0.48,0.51a12.3,12.3,0,0,0,1,.89c0.28,0.23.48,0.36,0.48,0.36a14.8,14.8,0,0,0,1.4-.91h0a9.29,9.29,0,0,0,2.84,1.21h0a16.42,16.42,0,0,0,.31,1.65l0.16,0,0.43,0.05,0.61,0.07c0.22,0,.46,0,0.7,0A10.05,10.05,0,0,0,38,22.39a3.07,3.07,0,0,0,.43-0.05l0.16,0a16.27,16.27,0,0,0,.35-1.63,9.73,9.73,0,0,0,2.86-1.15,16.61,16.61,0,0,0,1.38,1l0.48-.36c0.14-.11.31-0.23,0.48-0.38l0.51-.48a12.31,12.31,0,0,0,.89-1c0.23-.28.36-0.48,0.36-0.48A14.79,14.79,0,0,0,45,16.41ZM35,15a4.08,4.08,0,1,1,5.41-2A4.08,4.08,0,0,1,35,15Z"/></svg>