<svg id="fill" xmlns="http://www.w3.org/2000/svg" viewBox="0 0 48 48"><title>Fill_</title><path d="M35.57,39.91L8.14,12.43a1.45,1.45,0,0,0-2.05,0,20.91,20.91,0,0,0,0,29.51A20.62,20.62,0,0,0,20.83,48h0a20.61,20.61,0,0,0,14.73-6.08A1.4,1.4,0,0,0,35.57,39.91Z"/><circle cx="28.01" cy="19.42" r="3.98" transform="translate(-6.02 21.22) rotate(-37.76)"/><path d="M38,24a2,2,0,0,1-2-2A10,10,0,0,0,26,12a2,2,0,0,1,0-4A14,14,0,0,1,40,22,2,2,0,0,1,38,24Z"/><path d="M46,24a2,2,0,0,1-2-2A18,18,0,0,0,26,4a2,2,0,0,1,0-4A22,22,0,0,1,48,22,2,2,0,0,1,46,24Z"/></svg>