<svg id="fill" xmlns="http://www.w3.org/2000/svg" viewBox="0 0 48 48"><title>Filled_</title><path d="M43.93,8L36,0V6a2,2,0,0,0,2,2h5.93Z"/><path d="M25.3,33.38H23.69v2.37h1.6a1.41,1.41,0,0,0,1-.34,1.17,1.17,0,0,0,.33-0.85,1.14,1.14,0,0,0-.34-0.85A1.41,1.41,0,0,0,25.3,33.38Z"/><polygon points="33.22 37.15 33.22 33.8 30.73 37.15 33.22 37.15"/><path d="M34,12a2,2,0,0,1-2-2V0H6A2,2,0,0,0,4,2V46a1.81,1.81,0,0,0,1.5,2H42a2,2,0,0,0,2-2V12H34ZM20.4,40H18.75V34.46l-2.5,3.45-2.49-3.45V40H12.11V32h1.74l2.41,3.42L18.69,32H20.4v8Zm7.83-4.53a2.12,2.12,0,0,1-.53.82,2.71,2.71,0,0,1-.95.58,4.06,4.06,0,0,1-1.44.22H23.69V40H22V32H25.3a4.24,4.24,0,0,1,1.45.22,2.6,2.6,0,0,1,1,.57,2.1,2.1,0,0,1,.52.81A2.82,2.82,0,0,1,28.23,35.47Zm7.66,3h-1V40H33.22V38.43H29.7l-0.54-1.23,4-5.2h1.67v5.15h1v1.28Z"/></svg>