<svg id="fill" xmlns="http://www.w3.org/2000/svg" viewBox="0 0 48 48"><title>Fill_</title><path fill="#fff" d="M33.73,25.47L32.28,24l1.48-1.48L47.38,8.85a2.08,2.08,0,0,0,0-2.94l-5.3-5.3a2.08,2.08,0,0,0-2.94,0L25.47,14.24,24,15.72,22.5,14.24,8.83,0.62a2.08,2.08,0,0,0-2.94,0l-5.3,5.3a2.08,2.08,0,0,0,0,2.94L14.21,22.53,15.69,24l-1.45,1.45L0.59,39.17a2.08,2.08,0,0,0,0,2.94l5.3,5.3a2.08,2.08,0,0,0,2.94,0L22.53,33.76,24,32.31l1.45,1.45L39.15,47.41a2.08,2.08,0,0,0,2.94,0l5.3-5.3a2.08,2.08,0,0,0,0-2.94Z"/></svg>