<svg id="fill" xmlns="http://www.w3.org/2000/svg" viewBox="0 0 48 48"><title>Fill_</title><path d="M38,48a2,2,0,0,0,2-2V9.6a2.59,2.59,0,0,0-1.43-2.31l-13.46-7a2.49,2.49,0,0,0-2.23,0l-13.46,7A2.59,2.59,0,0,0,8,9.6v35.5a3.38,3.38,0,0,0,.86,2.32A1.61,1.61,0,0,0,10,48H38ZM32.85,36.77A6.22,6.22,0,0,1,31.06,39a8.68,8.68,0,0,1-3,1.48,12.48,12.48,0,0,1-2.09.41V44H22V40.9a19.73,19.73,0,0,1-3.55-.65A19,19,0,0,1,14,38.45l2.55-3.91A18.36,18.36,0,0,0,20.09,36a13.14,13.14,0,0,0,1.91.44V30.87l-0.81-.2A13.85,13.85,0,0,1,18,29.48a7.33,7.33,0,0,1-2.48-2.09,5.65,5.65,0,0,1-1-3.5,6,6,0,0,1,.62-2.68A6.36,6.36,0,0,1,16.91,19a9,9,0,0,1,2.85-1.48A11.14,11.14,0,0,1,22,17.09V12h4v5.13a19.17,19.17,0,0,1,2.25.38A24.09,24.09,0,0,1,32.53,19l-2,3.94a17.19,17.19,0,0,0-3.35-1.14c-0.4-.09-0.8-0.15-1.2-0.2V27l0.76,0.18A13.35,13.35,0,0,1,30,28.35a7.19,7.19,0,0,1,2.48,2.12,5.86,5.86,0,0,1,1,3.56A6.33,6.33,0,0,1,32.85,36.77Z"/><path d="M20.06,23.83a1.74,1.74,0,0,0,1,1.61,8.63,8.63,0,0,0,.95.44V21.63a3.44,3.44,0,0,0-.95.44A2.08,2.08,0,0,0,20.06,23.83Z"/><path d="M26.9,32.45A8.22,8.22,0,0,0,26,32v4.31a3.4,3.4,0,0,0,.88-0.4,2.12,2.12,0,0,0,1-1.82A1.8,1.8,0,0,0,26.9,32.45Z"/></svg>