<svg id="fill" xmlns="http://www.w3.org/2000/svg" viewBox="0 0 48 48"><title>Fill_</title><path fill="#fff" d="M0,34a2,2,0,0,1,2-2,2,2,0,0,1,2,2v8a2,2,0,0,0,2,2h8a2,2,0,1,1,0,4H2a2,2,0,0,1-2-2V34Z"/><path fill="#fff" d="M48,34a2,2,0,0,0-2-2h0a2,2,0,0,0-2,2v8a2,2,0,0,1-2,2H34a2,2,0,1,0,0,4H46a2,2,0,0,0,2-2V34Z"/><path fill="#fff" d="M0,14a2,2,0,0,0,2,2H2a2,2,0,0,0,2-2V6A2,2,0,0,1,6,4h8a2,2,0,0,0,0-4H2A2,2,0,0,0,0,2V14Z"/><path fill="#fff" d="M48,14a2,2,0,0,1-2,2h0a2,2,0,0,1-2-2V5.94a2,2,0,0,0-2-2H34a2,2,0,0,1-2-2,2,2,0,0,1,2-2H46a2,2,0,0,1,2,2V14Z"/><path fill="#fff" d="M10,8a2,2,0,0,0-2,2V38a2,2,0,0,0,2,2H38a2,2,0,0,0,2-2V10a2,2,0,0,0-2-2H10ZM36,26a2,2,0,0,1-2,2H28v6a2,2,0,0,1-2,2H22a2,2,0,0,1-2-2V28H14a2,2,0,0,1-2-2V22a2,2,0,0,1,2-2h6V14a2,2,0,0,1,2-2h4a2,2,0,0,1,2,2v6h6a2,2,0,0,1,2,2v4Z"/></svg>