<svg id="fill" xmlns="http://www.w3.org/2000/svg" viewBox="0 0 48 48"><title>Filled_</title><path fill="#fff" d="M39.12,17.62a8.52,8.52,0,0,0-8.42-7.13H30.47A12.25,12.25,0,0,0,19.92,4.11a12.24,12.24,0,0,0-12,12.44V18A10.89,10.89,0,0,0,0,28.63,11.18,11.18,0,0,0,11.07,40h8.8V27.68l-3.69,3.69a2.1,2.1,0,0,1-3,0l-2.69-2.69a2.1,2.1,0,0,1,0-3L22.41,13.83a2.1,2.1,0,0,1,3,0L37.21,25.67a2.1,2.1,0,0,1,0,3l-2.69,2.69a2.1,2.1,0,0,1-3,0l-3.69-3.69V40h8.43A11.64,11.64,0,0,0,48,28.35,11,11,0,0,0,39.12,17.62Z"/></svg>