<svg id="fill" xmlns="http://www.w3.org/2000/svg" viewBox="0 0 48 48"><title>Fill_</title><path fill="#fff" d="M46.51,8H40V1.49A1.49,1.49,0,0,0,38.51,0h-1A1.49,1.49,0,0,0,36,1.49V8H29.49A1.49,1.49,0,0,0,28,9.49v1A1.49,1.49,0,0,0,29.49,12H36v6.51A1.49,1.49,0,0,0,37.49,20h1A1.49,1.49,0,0,0,40,18.51V12h6.51A1.49,1.49,0,0,0,48,10.51v-1A1.49,1.49,0,0,0,46.51,8Z"/><path fill="#fff" d="M34.7,44.33s-3.76-10.71-11-12.88c-0.56-.14-1.14-0.27-1.72-0.36a9.87,9.87,0,1,0-7.83,0,16,16,0,0,0-2,.4c-7.25,2.16-11,12.9-11,12.9L0.3,46.77A0.93,0.93,0,0,0,1.19,48H34.64a0.93,0.93,0,0,0,.88-1.23Z"/></svg>