<svg id="fill" xmlns="http://www.w3.org/2000/svg" viewBox="0 0 48 48"><title>Filled_</title><path fill="#fff" d="M34.31,16H22a2,2,0,0,0-2,2v4a2,2,0,0,0,2,2H34.35l-3.76,3.76a2,2,0,0,0,0,2.83l2.83,2.83a2,2,0,0,0,2.83,0l9.16-9.16a24.09,24.09,0,0,0,2.52-3.08A4,4,0,0,0,48,20a4,4,0,0,0-.07-1.16,24.09,24.09,0,0,0-2.52-3.08l-9.2-9.2a2,2,0,0,0-2.83,0L30.55,9.41a2,2,0,0,0,0,2.83Z"/><path fill="#fff" d="M10,36H26c1.1,0,1.36-.64.58-1.41L23.4,31.41A1.78,1.78,0,0,1,23,29c0.55-.55.11-1-1-1H18a2,2,0,0,1-2-2V14a2,2,0,0,1,2-2h4c1.1,0,1.55-.45,1-1a1.8,1.8,0,0,1,.41-2.42l3.16-3.16C27.34,4.64,27.08,4,26,4H10A2,2,0,0,0,8,6V34A2,2,0,0,0,10,36Z"/><path fill="#fff" d="M4,38V8H2a2,2,0,0,0-2,2V42a2,2,0,0,0,2,2H38a2,2,0,0,0,2-2V40H6A2,2,0,0,1,4,38Z"/><path fill="#fff" d="M46.59,29.41L40,36h6a2,2,0,0,0,2-2V30C48,28.9,47.36,28.64,46.59,29.41Z"/><path fill="#fff" d="M46,4H42c-1.1,0-1.36.64-.58,1.41L48,12V6A2,2,0,0,0,46,4Z"/></svg>