<svg id="fill" xmlns="http://www.w3.org/2000/svg" viewBox="0 0 48 48"><title>Fill_</title><path d="M42,20h4a2,2,0,0,0,2-2V2a2,2,0,0,0-2-2H30a2,2,0,0,0-2,2V6a2,2,0,0,0,2,2h4.65l-5.28,5.26a11.84,11.84,0,0,0-10.55-.09L13.63,8H18a2,2,0,0,0,2-2V2a2,2,0,0,0-2-2H2A2,2,0,0,0,0,2V18a2,2,0,0,0,2,2H6a2,2,0,0,0,2-2v-4.3l5.17,5.16a11.81,11.81,0,0,0,.11,10.48L8,34.58V29.94A2,2,0,0,0,6,28H2a2,2,0,0,0-2,1.94v16A2.09,2.09,0,0,0,2,48H5.76l0.1,0.1L6,48H18a2.09,2.09,0,0,0,2-2.09v-4A1.94,1.94,0,0,0,18,40H14L19,34.89a12.13,12.13,0,0,0,10.1-.08L34.31,40H30a1.94,1.94,0,0,0-2,1.91v4A2.09,2.09,0,0,0,30,48H46a2.09,2.09,0,0,0,2-2.09v-16A2,2,0,0,0,46,28H42a2,2,0,0,0-2,1.94V34.3l-5.19-5.18A11.81,11.81,0,0,0,34.92,19L40,13.93v4A2,2,0,0,0,42,20ZM24,27.94a4,4,0,1,1,4-4A4,4,0,0,1,24,27.94Z"/></svg>