<svg id="fill" xmlns="http://www.w3.org/2000/svg" viewBox="0 0 48 48"><title>Filled_</title><path fill="#fff" d="M43.93,8L36,0V6a2,2,0,0,0,2,2h5.93Z"/><path fill="#fff" d="M16.1,33.37H14.55v2.29h1.55a1.36,1.36,0,0,0,1-.33,1.13,1.13,0,0,0,.32-0.82,1.1,1.1,0,0,0-.33-0.82A1.36,1.36,0,0,0,16.1,33.37Z"/><path fill="#fff" d="M34,12a2,2,0,0,1-2-2V0H6A2,2,0,0,0,4,2V46a1.81,1.81,0,0,0,1.5,2H42a2,2,0,0,0,2-2V12H34ZM18.93,35.39a2,2,0,0,1-.51.79,2.62,2.62,0,0,1-.92.56,3.92,3.92,0,0,1-1.39.22H14.55v3H12.87V32H16.1a4.1,4.1,0,0,1,1.4.21,2.52,2.52,0,0,1,.92.55,2,2,0,0,1,.5.78A2.73,2.73,0,0,1,18.93,35.39ZM27,40H25.39l-3.45-5.28V40H20.35V32h1.59l3.45,5.31V32H27V40Zm8.17-.91a4.76,4.76,0,0,1-1.33.65,5.29,5.29,0,0,1-1.6.24,4.47,4.47,0,0,1-1.66-.3,3.56,3.56,0,0,1-2.08-2.09,4.48,4.48,0,0,1-.28-1.62,4.19,4.19,0,0,1,.28-1.55,3.59,3.59,0,0,1,.81-1.24,3.76,3.76,0,0,1,1.27-.83,4.84,4.84,0,0,1,3.24,0,5.51,5.51,0,0,1,1.29.68l-0.87,1.12a4,4,0,0,0-.9-0.48,2.89,2.89,0,0,0-1-.18,2.51,2.51,0,0,0-1,.19,2.12,2.12,0,0,0-.75.52,2.36,2.36,0,0,0-.47.8,3,3,0,0,0-.17,1A3.37,3.37,0,0,0,30,37a2.26,2.26,0,0,0,.47.82,2.13,2.13,0,0,0,.75.52,2.53,2.53,0,0,0,1,.19A3,3,0,0,0,33,38.46a2.34,2.34,0,0,0,.61-0.24V36.69H31.86V35.57h3.27v3.5Z"/></svg>