<?xml version="1.0" encoding="utf-8" ?><svg version="1.1" xmlns = 'http://www.w3.org/2000/svg'><defs><font id='web' horiz-adv-x="1000">
<font-face font-family="web" descent="-240" cap-height="700" units-per-em="1000" bbox="-155,-362,1520,1025" x-height="519" ascent="760" />
<missing-glyph horiz-adv-x="877" d="M 265 755 L 759 755 L 582 -237 L 88 -237 L 265 755 Z M 315 704 L 432 323 L 683 704 L 315 704 Z M 166 -83 L 394 263 L 288 605 L 166 -83 Z M 558 -83 L 679 601 L 452 255 L 558 -83 Z M 163 -186 L 532 -186 L 414 196 L 163 -186 Z" /><glyph horiz-adv-x="249" d="" unicode=" " />
<glyph horiz-adv-x="256" d="M 118 520 L 150 700 L 238 700 L 206 520 L 128 206 L 83 206 L 118 520 Z M 41 107 L 133 107 L 114 0 L 23 0 L 41 107 Z" unicode="!" />
<glyph horiz-adv-x="398" d="M 320 700 L 410 700 L 335 471 L 282 481 L 320 700 Z M 126 700 L 216 700 L 141 471 L 88 481 L 126 700 Z" unicode="&#x22;" />
<glyph horiz-adv-x="709" d="M 244 253 L 406 253 L 473 450 L 311 450 L 244 253 Z M 106 515 L 260 515 L 323 700 L 396 700 L 333 515 L 495 515 L 558 700 L 632 700 L 569 515 L 706 515 L 694 450 L 547 450 L 480 253 L 621 253 L 609 189 L 458 189 L 394 0 L 321 0 L 385 189 L 223 189 L 159 0 L 85 0 L 149 189 L 10 189 L 22 253 L 171 253 L 238 450 L 94 450 L 106 515 Z" unicode="#" />
<glyph horiz-adv-x="615" d="M 178 506 C 178 490 181 476 188 465 C 194 453 203 443 214 435 C 225 427 238 420 254 414 C 269 408 285 403 302 398 L 344 637 C 319 636 296 632 276 625 C 256 617 238 608 224 596 C 209 584 198 570 190 555 C 182 539 178 523 178 506 Z M 454 197 C 454 213 450 226 444 238 C 437 249 428 259 417 268 C 406 276 393 284 378 290 C 363 296 347 301 330 307 L 287 63 C 341 66 383 81 411 107 C 439 133 454 163 454 197 Z M 58 128 C 81 111 108 97 139 85 C 169 73 204 66 243 64 L 288 320 C 264 327 240 335 216 343 C 192 351 171 362 153 376 C 134 389 119 406 107 427 C 95 447 90 473 90 504 C 90 532 96 559 108 584 C 120 609 137 631 160 650 C 182 668 210 683 243 694 C 275 705 312 711 354 712 L 371 804 L 423 804 L 406 709 C 442 705 476 698 506 688 C 536 678 563 666 586 654 L 544 588 C 522 600 498 610 472 618 C 446 626 418 632 387 635 L 344 386 C 368 379 391 371 415 363 C 438 354 459 343 478 329 C 496 315 511 297 523 277 C 535 256 541 230 541 199 C 541 171 535 144 524 119 C 513 94 497 72 475 53 C 453 34 425 19 392 7 C 359 -4 321 -10 277 -12 L 256 -133 L 206 -133 L 227 -11 C 181 -7 139 1 103 16 C 67 31 36 48 11 68 L 58 128 Z" unicode="$" />
<glyph horiz-adv-x="812" d="M 83 531 C 83 557 88 581 98 603 C 108 625 121 644 139 660 C 156 676 176 688 199 697 C 221 706 245 711 271 711 C 311 711 343 697 369 671 C 395 645 408 611 408 569 C 408 543 403 519 393 497 C 383 475 369 456 352 440 C 335 424 315 412 293 403 C 270 394 246 390 221 390 C 201 390 182 393 165 400 C 148 407 134 417 122 429 C 110 441 100 456 93 474 C 86 491 83 510 83 531 Z M 669 700 L 736 700 L 146 0 L 79 0 L 669 700 Z M 144 532 C 144 505 151 483 166 467 C 180 450 201 442 228 442 C 243 442 258 445 272 452 C 286 459 299 468 310 480 C 321 491 330 504 337 520 C 343 535 347 551 347 568 C 347 595 339 617 325 633 C 310 649 290 658 264 658 C 248 658 233 654 219 647 C 204 640 191 631 180 620 C 169 608 160 595 154 580 C 147 564 144 548 144 532 Z M 410 130 C 410 156 415 180 425 202 C 435 224 448 243 465 259 C 482 275 502 287 525 296 C 547 305 571 310 597 310 C 617 310 635 306 652 299 C 669 292 684 282 696 270 C 708 258 717 243 724 226 C 731 208 735 189 735 169 C 735 143 730 119 720 97 C 710 75 696 56 679 40 C 661 24 641 11 619 2 C 596 -6 572 -11 547 -11 C 527 -11 508 -7 492 0 C 475 6 461 16 449 28 C 437 40 427 55 420 73 C 413 90 410 109 410 130 Z M 471 131 C 471 104 478 82 493 66 C 507 50 528 42 554 42 C 569 42 584 45 599 52 C 613 59 626 68 637 80 C 648 91 657 104 664 120 C 670 135 674 151 674 168 C 674 194 666 216 651 233 C 636 249 616 258 590 258 C 574 258 559 254 545 247 C 531 240 518 231 507 220 C 496 208 487 195 481 180 C 474 164 471 148 471 131 Z" unicode="%" />
<glyph horiz-adv-x="734" d="M 447 137 C 408 172 371 208 336 244 C 300 280 267 318 237 358 C 217 349 199 338 182 326 C 165 314 150 300 137 286 C 124 271 114 255 107 238 C 99 220 96 202 96 182 C 96 147 107 118 130 94 C 152 70 190 59 243 59 C 281 59 318 65 353 79 C 387 93 419 112 447 137 Z M 18 172 C 18 199 22 224 32 248 C 42 272 55 294 71 314 C 87 334 107 351 129 367 C 151 383 176 397 202 409 C 191 427 183 446 177 466 C 171 486 168 506 168 527 C 168 552 173 576 183 598 C 193 620 207 640 225 657 C 243 673 264 686 290 696 C 315 706 343 711 373 711 C 413 711 448 703 477 687 C 506 671 530 652 548 631 L 490 584 C 474 601 457 615 437 625 C 417 635 394 641 369 641 C 351 641 334 638 319 632 C 304 626 291 617 281 607 C 271 596 263 584 257 570 C 251 556 248 542 248 526 C 248 510 251 492 258 473 C 265 453 276 434 290 415 C 319 375 351 336 386 300 C 420 264 457 228 497 192 C 533 240 556 294 566 355 L 644 355 C 637 315 626 278 610 243 C 594 207 574 175 550 145 C 588 113 627 81 667 49 L 615 -5 L 499 91 C 463 59 422 33 377 15 C 331 -2 283 -12 232 -12 C 196 -12 165 -7 139 2 C 112 12 90 25 72 42 C 54 58 40 78 31 100 C 22 122 18 146 18 172 Z" unicode="&#x26;" />
<glyph horiz-adv-x="208" d="M 126 700 L 216 700 L 141 471 L 88 481 L 126 700 Z" unicode="'" />
<glyph horiz-adv-x="376" d="M 46 182 C 46 295 69 401 115 500 C 161 599 227 684 312 755 L 411 755 C 369 721 330 682 295 640 C 260 597 230 551 206 501 C 181 451 162 399 148 344 C 134 289 128 232 128 174 C 128 132 131 93 138 57 C 145 21 154 -12 166 -43 C 177 -74 190 -103 204 -129 C 218 -155 233 -179 249 -200 L 163 -200 C 147 -178 133 -154 119 -127 C 105 -99 92 -70 81 -38 C 70 -6 61 28 55 65 C 49 102 46 141 46 182 Z" unicode="(" />
<glyph horiz-adv-x="376" d="M 311 373 C 311 317 305 262 293 208 C 281 154 263 103 240 55 C 217 6 189 -39 157 -82 C 124 -125 87 -164 45 -200 L -55 -200 C -12 -166 26 -127 61 -85 C 95 -42 125 3 150 53 C 175 103 194 155 208 210 C 222 265 229 322 229 381 C 229 422 225 461 218 497 C 211 533 202 566 191 598 C 179 629 166 658 152 684 C 138 710 123 733 108 755 L 194 755 C 209 733 224 709 238 682 C 252 654 264 625 275 593 C 286 561 295 526 301 489 C 307 452 311 413 311 373 Z" unicode=")" />
<glyph horiz-adv-x="416" d="M 220 533 L 218 534 L 83 518 L 84 587 L 219 574 L 220 576 L 167 699 L 227 716 L 259 587 L 261 586 L 363 671 L 401 619 L 285 554 L 285 551 L 401 482 L 361 431 L 261 519 L 259 518 L 223 386 L 165 406 L 220 533 Z" unicode="*" />
<glyph horiz-adv-x="605" d="M 58 387 L 275 387 L 314 611 L 391 611 L 352 387 L 570 387 L 556 315 L 339 315 L 300 91 L 222 91 L 262 315 L 45 315 L 58 387 Z" unicode="+" />
<glyph horiz-adv-x="216" d="M 24 116 L 116 116 L 101 30 C 97 5 91 -16 85 -34 C 79 -52 71 -67 62 -81 C 52 -95 41 -107 27 -117 C 13 -127 -4 -137 -24 -145 L -40 -108 C -14 -96 4 -82 16 -65 C 28 -47 37 -26 42 0 L 3 0 L 24 116 Z" unicode="," />
<glyph horiz-adv-x="374" d="M 38 299 L 326 299 L 313 225 L 25 225 L 38 299 Z" unicode="-" />
<glyph horiz-adv-x="216" d="M 24 116 L 116 116 L 96 0 L 3 0 L 24 116 Z" unicode="." />
<glyph horiz-adv-x="498" d="M -105 -200 L 499 755 L 585 755 C 483 595 382 436 282 278 C 181 119 80 -40 -21 -200 L -105 -200 Z" unicode="/" />
<glyph horiz-adv-x="620" d="M 254 -13 C 185 -13 133 7 97 47 C 61 87 43 145 43 220 C 43 239 44 260 47 284 C 49 308 53 335 59 367 C 81 483 118 569 170 626 C 221 682 291 711 379 711 C 447 711 499 691 535 651 C 571 611 589 553 589 479 C 589 459 587 438 584 414 C 581 390 577 363 572 331 C 549 215 512 128 461 72 C 410 15 341 -13 254 -13 Z M 266 60 C 327 60 375 83 410 130 C 445 176 472 247 490 343 C 500 399 505 442 505 474 C 505 584 459 639 367 639 C 305 639 256 615 221 568 C 186 521 160 450 143 355 C 137 327 133 302 131 280 C 129 258 128 240 128 224 C 128 114 174 60 266 60 Z" unicode="0" />
<glyph horiz-adv-x="620" d="M 49 68 L 247 68 L 342 610 L 158 529 L 127 593 L 370 700 L 444 700 L 332 68 L 510 68 L 498 0 L 38 0 L 49 68 Z" unicode="1" />
<glyph horiz-adv-x="620" d="M 25 41 C 32 100 49 148 76 186 C 102 224 133 255 169 280 C 205 305 243 326 283 343 C 323 359 359 376 393 393 C 426 409 454 428 476 449 C 498 470 509 498 509 532 C 509 564 498 590 476 610 C 454 630 418 640 369 640 C 332 640 297 632 263 616 C 229 600 198 580 170 557 L 118 613 C 153 642 192 666 236 684 C 279 702 327 712 379 712 C 413 712 443 707 470 698 C 496 689 519 677 538 661 C 556 645 570 626 580 604 C 590 582 595 559 595 534 C 595 490 584 455 562 427 C 540 399 513 376 480 356 C 447 336 411 318 372 302 C 332 286 295 269 259 249 C 223 229 192 205 165 177 C 138 149 121 114 114 71 L 512 71 L 499 0 L 20 0 L 25 41 Z" unicode="2" />
<glyph horiz-adv-x="620" d="M 62 102 C 84 89 109 78 137 70 C 165 61 197 57 233 57 C 265 57 295 60 323 68 C 351 76 376 87 397 102 C 417 116 434 134 446 154 C 458 174 464 197 464 222 C 464 241 460 257 452 271 C 444 285 433 296 419 305 C 405 313 388 320 369 324 C 350 328 330 330 309 330 L 214 330 L 225 397 L 316 397 C 340 397 362 400 384 406 C 405 412 424 422 440 434 C 456 446 469 460 479 477 C 488 494 493 513 493 535 C 493 568 480 594 456 614 C 432 633 396 643 348 643 C 314 643 281 635 247 621 C 213 606 182 588 153 566 L 113 623 C 146 649 184 671 227 688 C 270 704 315 713 362 713 C 395 713 425 708 452 700 C 478 691 501 679 520 664 C 539 648 554 630 564 609 C 574 588 580 565 580 541 C 580 495 566 457 538 429 C 510 400 472 379 426 365 C 466 353 496 335 518 311 C 540 287 551 256 551 218 C 551 182 542 149 525 121 C 507 92 484 68 454 48 C 424 28 390 13 351 3 C 312 -7 271 -13 227 -13 C 188 -13 151 -8 115 1 C 79 11 47 24 21 42 L 62 102 Z" unicode="3" />
<glyph horiz-adv-x="620" d="M 15 219 L 465 700 L 559 700 L 474 220 L 584 220 L 572 153 L 463 153 L 436 0 L 353 0 L 380 153 L 33 153 L 15 219 Z M 392 220 L 462 605 L 106 220 L 392 220 Z" unicode="4" />
<glyph horiz-adv-x="620" d="M 60 102 C 81 89 105 78 133 70 C 161 62 192 58 228 58 C 259 58 288 62 316 72 C 344 81 368 94 389 111 C 409 128 426 148 438 171 C 450 194 456 219 456 247 C 456 287 443 318 419 340 C 395 362 357 374 307 374 C 287 374 264 371 238 365 C 212 359 186 352 159 343 L 115 374 L 184 700 L 578 700 L 566 632 L 249 632 L 203 413 C 223 421 245 427 269 433 C 293 438 316 441 338 441 C 368 441 395 436 420 427 C 445 418 467 405 485 389 C 503 373 517 353 527 330 C 537 307 542 281 542 253 C 542 212 533 175 516 142 C 499 109 476 81 447 58 C 418 35 384 17 346 5 C 308 -6 267 -13 224 -13 C 182 -13 144 -7 110 2 C 76 12 46 25 20 41 L 60 102 Z" unicode="5" />
<glyph horiz-adv-x="620" d="M 47 259 C 47 316 55 372 73 426 C 91 480 116 529 149 571 C 181 613 221 647 267 673 C 313 699 365 712 423 712 C 455 712 486 708 515 701 C 543 693 570 683 594 671 L 554 612 C 536 620 516 628 494 634 C 472 640 447 643 419 643 C 389 643 360 637 331 625 C 301 613 274 595 249 571 C 224 547 202 517 184 481 C 165 445 152 404 144 357 C 173 382 207 402 245 418 C 283 434 322 442 363 442 C 393 442 420 437 444 428 C 468 419 488 406 506 390 C 523 373 536 353 546 330 C 555 306 560 280 560 252 C 560 217 553 184 539 152 C 525 120 506 91 481 67 C 456 43 426 23 390 9 C 354 -4 315 -12 272 -12 C 234 -12 200 -5 172 8 C 144 22 120 41 102 65 C 83 89 69 117 60 151 C 51 184 47 220 47 259 Z M 136 286 C 134 278 134 269 134 261 C 134 252 134 244 134 238 C 134 212 136 189 142 167 C 148 145 157 125 169 109 C 181 93 196 80 215 71 C 234 61 257 57 284 57 C 314 57 340 62 364 73 C 387 84 407 99 424 117 C 440 135 453 155 462 178 C 470 200 475 223 475 247 C 475 287 463 319 440 342 C 416 365 384 377 342 377 C 302 377 264 368 228 350 C 192 332 161 311 136 286 Z" unicode="6" />
<glyph horiz-adv-x="620" d="M 520 629 L 121 629 L 133 700 L 623 700 L 613 639 L 212 0 L 116 0 L 520 629 Z" unicode="7" />
<glyph horiz-adv-x="620" d="M 8 161 C 8 189 13 214 25 237 C 37 260 52 280 72 297 C 91 314 113 328 139 340 C 164 352 190 361 218 367 C 184 378 155 395 133 418 C 111 441 100 472 100 510 C 100 540 107 567 121 592 C 135 617 154 638 178 656 C 202 674 231 687 265 697 C 299 707 335 712 374 712 C 404 712 432 708 458 700 C 484 692 506 680 525 666 C 543 652 558 634 569 614 C 579 594 585 571 585 546 C 585 522 580 500 572 480 C 563 460 551 442 536 426 C 520 410 502 397 481 386 C 460 374 437 365 413 359 C 454 347 488 329 516 303 C 543 277 557 243 557 200 C 557 167 549 137 534 111 C 518 85 497 62 469 44 C 441 26 409 12 371 2 C 333 -7 292 -12 248 -12 C 212 -12 179 -8 150 0 C 120 8 95 19 74 34 C 53 49 37 67 25 89 C 13 110 8 134 8 161 Z M 320 395 C 346 397 370 403 392 411 C 414 419 434 429 450 441 C 466 453 478 468 487 485 C 496 501 501 520 501 540 C 501 572 489 598 465 617 C 441 635 407 645 363 645 C 339 645 316 641 294 634 C 272 627 254 618 238 606 C 222 594 209 579 199 563 C 189 546 185 528 185 508 C 185 476 197 450 221 431 C 245 411 278 399 320 395 Z M 95 169 C 95 133 109 105 138 85 C 167 65 208 55 261 55 C 290 55 317 58 343 65 C 368 71 390 81 409 94 C 428 106 443 122 454 140 C 465 158 471 178 471 200 C 471 238 456 267 426 287 C 396 307 357 321 309 329 C 281 326 254 320 228 312 C 202 303 180 292 160 278 C 140 264 124 248 112 230 C 100 212 95 191 95 169 Z" unicode="8" />
<glyph horiz-adv-x="620" d="M 496 414 C 497 422 498 430 498 439 C 498 447 498 455 498 462 C 498 487 495 511 489 533 C 483 555 475 574 463 590 C 451 606 435 619 416 629 C 397 638 374 643 348 643 C 318 643 291 637 268 626 C 244 615 224 601 208 583 C 191 565 178 544 170 522 C 161 499 157 476 157 453 C 157 412 168 380 192 357 C 215 334 248 323 290 323 C 330 323 368 331 404 349 C 440 367 470 388 496 414 Z M 585 441 C 585 383 576 327 559 273 C 541 219 516 170 484 128 C 451 86 411 52 365 26 C 319 0 267 -12 210 -12 C 176 -12 144 -7 114 1 C 84 10 57 22 34 37 L 77 93 C 94 83 114 74 136 68 C 158 61 184 58 214 58 C 243 58 272 64 301 76 C 330 88 357 106 382 130 C 407 154 429 183 448 219 C 466 255 480 296 488 343 C 458 317 425 297 387 281 C 349 265 310 258 270 258 C 240 258 212 262 188 271 C 164 280 143 293 126 310 C 109 326 96 346 87 370 C 77 393 73 419 73 448 C 73 483 79 516 93 548 C 106 580 125 608 149 632 C 173 656 203 676 237 690 C 271 704 310 712 353 712 C 392 712 426 705 456 691 C 485 677 509 659 528 635 C 547 611 561 582 571 549 C 580 516 585 480 585 441 Z" unicode="9" />
<glyph horiz-adv-x="216" d="M 95 519 L 187 519 L 167 403 L 74 403 L 95 519 Z M 24 116 L 116 116 L 96 0 L 3 0 L 24 116 Z" unicode=":" />
<glyph horiz-adv-x="216" d="M 95 519 L 187 519 L 167 403 L 74 403 L 95 519 Z M 24 116 L 116 116 L 101 30 C 97 5 91 -16 85 -34 C 79 -52 71 -67 62 -81 C 52 -95 41 -107 27 -117 C 13 -127 -4 -137 -24 -145 L -40 -108 C -14 -96 4 -82 16 -65 C 28 -47 37 -26 42 0 L 3 0 L 24 116 Z" unicode=";" />
<glyph horiz-adv-x="614" d="M 38 313 L 52 390 L 605 616 L 590 528 L 143 349 L 526 167 L 511 85 L 38 313 Z" unicode="&#x3C;" />
<glyph horiz-adv-x="605" d="M 79 508 L 591 508 L 577 436 L 66 436 L 79 508 Z M 37 266 L 549 266 L 535 194 L 24 194 L 37 266 Z" unicode="=" />
<glyph horiz-adv-x="614" d="M 576 389 L 563 312 L 9 85 L 25 173 L 474 355 L 89 533 L 103 616 L 576 389 Z" unicode="&#x3E;" />
<glyph horiz-adv-x="518" d="M 163 206 C 163 207 163 211 163 217 C 163 223 164 226 164 228 C 167 256 176 281 190 301 C 204 321 220 339 239 355 C 258 371 278 385 300 398 C 321 411 341 424 359 438 C 377 451 391 466 403 482 C 415 498 421 516 421 538 C 421 570 409 595 386 613 C 363 631 334 641 298 641 C 267 641 237 634 209 621 C 181 607 154 589 129 567 L 81 620 C 112 648 146 671 183 687 C 220 703 261 712 305 712 C 333 712 359 708 383 700 C 407 692 429 681 448 667 C 466 653 481 635 492 614 C 502 593 508 570 508 544 C 508 514 501 489 488 467 C 475 445 459 426 439 410 C 419 393 397 378 374 364 C 350 350 328 336 308 322 C 288 308 270 292 256 276 C 241 260 233 241 231 219 L 229 206 L 163 206 Z M 131 107 L 223 107 L 205 0 L 113 0 L 131 107 Z" unicode="?" />
<glyph horiz-adv-x="837" d="M 60 280 C 60 330 69 377 88 421 C 107 465 133 504 166 537 C 198 569 237 595 281 614 C 325 633 373 643 423 643 C 472 643 517 634 559 618 C 601 602 637 579 667 550 C 697 521 720 487 737 447 C 753 407 762 364 762 317 C 762 278 756 244 744 214 C 732 184 717 160 699 140 C 681 120 660 104 637 94 C 614 84 591 79 568 79 C 537 79 513 86 497 101 C 480 116 470 134 467 156 C 453 138 436 123 416 111 C 395 99 372 93 347 93 C 313 93 284 104 262 128 C 240 152 229 185 229 227 C 229 254 233 282 242 311 C 251 340 264 367 282 391 C 299 415 320 434 345 450 C 370 465 399 473 432 473 C 454 473 473 468 489 458 C 505 448 517 437 527 425 L 542 463 L 597 463 L 528 220 C 518 190 518 166 527 149 C 535 131 552 123 577 123 C 594 123 611 127 627 136 C 643 144 658 157 672 174 C 685 190 696 211 704 235 C 712 259 716 286 716 317 C 716 358 708 396 694 430 C 680 464 660 493 634 518 C 608 543 577 562 541 576 C 505 590 466 597 423 597 C 379 597 337 588 299 572 C 261 555 227 532 199 504 C 170 475 147 441 131 403 C 114 365 106 324 106 280 C 106 236 114 195 131 157 C 147 119 170 85 199 57 C 227 29 261 6 299 -10 C 337 -26 379 -35 423 -35 C 454 -35 484 -30 512 -22 C 540 -13 567 -1 593 14 L 619 -24 C 590 -42 559 -57 526 -67 C 493 -77 459 -82 423 -82 C 373 -82 325 -72 281 -53 C 237 -34 198 -8 166 24 C 133 56 107 95 88 139 C 69 183 60 230 60 280 Z M 292 230 C 292 203 298 182 310 167 C 322 151 339 144 362 144 C 384 144 406 151 427 167 C 447 183 462 208 472 242 L 513 384 C 505 393 495 401 483 409 C 471 417 455 421 436 421 C 413 421 393 414 375 402 C 357 390 342 374 330 356 C 318 337 308 316 302 294 C 295 271 292 250 292 230 Z" unicode="@" />
<glyph horiz-adv-x="681" d="M 194 241 L 461 241 L 394 613 L 392 613 L 194 241 Z M 353 700 L 457 700 L 591 0 L 504 0 L 473 172 L 158 172 L 67 0 L -29 0 L 353 700 Z" unicode="A" />
<glyph horiz-adv-x="663" d="M 147 700 L 417 700 C 450 700 479 695 504 687 C 529 679 550 667 567 652 C 584 637 597 620 606 600 C 614 580 619 558 619 535 C 619 489 605 451 579 422 C 552 392 517 371 475 358 C 510 346 538 329 559 306 C 579 283 590 252 590 212 C 590 147 566 95 520 57 C 473 19 405 0 316 0 L 24 0 L 147 700 Z M 362 390 C 390 390 414 393 436 401 C 457 409 475 419 489 432 C 503 445 513 460 520 477 C 527 493 531 511 531 529 C 531 559 521 583 502 601 C 482 619 449 628 403 628 L 221 628 L 178 390 L 362 390 Z M 326 72 C 382 72 425 85 456 111 C 487 137 503 171 503 215 C 503 250 491 277 468 295 C 444 313 413 322 373 322 L 167 322 L 122 72 L 326 72 Z" unicode="B" />
<glyph horiz-adv-x="701" d="M 50 297 C 50 356 60 411 81 461 C 101 511 130 555 167 593 C 204 630 248 659 298 680 C 348 701 403 712 462 712 C 508 712 549 704 586 690 C 622 676 654 656 681 631 L 630 576 C 606 596 580 612 550 622 C 520 632 489 638 456 638 C 412 638 371 629 333 612 C 294 595 260 571 231 541 C 202 511 179 475 163 434 C 146 393 138 349 138 301 C 138 226 157 167 197 125 C 236 83 290 62 358 62 C 396 62 431 69 465 84 C 499 98 530 118 558 142 L 607 81 C 571 52 532 29 490 13 C 447 -3 400 -12 348 -12 C 304 -12 264 -4 228 9 C 192 23 160 44 134 71 C 107 97 86 130 72 168 C 57 206 50 249 50 297 Z" unicode="C" />
<glyph horiz-adv-x="706" d="M 147 700 L 347 700 C 396 700 440 693 480 680 C 519 667 552 648 580 624 C 607 599 628 568 643 532 C 657 496 665 454 665 407 C 665 351 656 298 638 248 C 620 198 594 155 558 119 C 522 82 476 53 422 32 C 367 10 302 0 228 0 L 24 0 L 147 700 Z M 241 72 C 296 72 345 80 387 98 C 429 115 464 139 492 169 C 520 199 541 234 555 274 C 569 314 577 356 577 402 C 577 476 557 533 519 571 C 480 609 421 628 341 628 L 221 628 L 122 72 L 241 72 Z" unicode="D" />
<glyph horiz-adv-x="626" d="M 147 700 L 622 700 L 609 624 L 221 624 L 179 392 L 529 392 L 516 321 L 167 321 L 123 76 L 518 76 L 505 0 L 24 0 L 147 700 Z" unicode="E" />
<glyph horiz-adv-x="610" d="M 147 700 L 613 700 L 600 624 L 221 624 L 178 386 L 513 386 L 498 313 L 165 313 L 110 0 L 24 0 L 147 700 Z" unicode="F" />
<glyph horiz-adv-x="718" d="M 49 295 C 49 354 59 409 80 460 C 100 511 129 555 166 593 C 203 630 247 659 298 680 C 348 701 404 712 464 712 C 508 712 549 705 588 692 C 626 678 660 661 689 640 L 638 583 C 589 619 529 638 459 638 C 415 638 373 629 334 612 C 295 595 261 572 232 542 C 202 512 179 476 162 435 C 145 393 137 348 137 299 C 137 263 142 230 152 201 C 162 171 176 146 195 126 C 214 105 237 89 265 78 C 292 67 323 62 357 62 C 390 62 421 66 450 74 C 478 82 503 93 525 107 L 559 303 L 368 303 L 380 368 L 651 368 L 596 60 C 561 37 523 19 481 7 C 439 -5 395 -12 347 -12 C 303 -12 262 -4 226 10 C 189 24 158 45 132 72 C 106 98 85 130 71 168 C 56 206 49 248 49 295 Z" unicode="G" />
<glyph horiz-adv-x="692" d="M 147 700 L 233 700 L 180 394 L 535 394 L 589 700 L 675 700 L 552 0 L 466 0 L 522 319 L 167 319 L 110 0 L 24 0 L 147 700 Z" unicode="H" />
<glyph horiz-adv-x="250" d="M 147 700 L 233 700 L 110 0 L 24 0 L 147 700 Z" unicode="I" />
<glyph horiz-adv-x="563" d="M 81 169 C 86 155 92 141 100 128 C 107 114 116 102 127 92 C 137 82 150 74 165 68 C 179 62 197 59 217 59 C 263 59 299 74 325 105 C 351 136 369 179 379 233 L 462 700 L 548 700 L 465 230 C 451 154 424 95 382 52 C 340 9 283 -12 213 -12 C 185 -12 161 -8 139 0 C 117 8 98 18 82 32 C 66 46 52 61 41 79 C 29 97 20 116 14 136 L 81 169 Z" unicode="J" />
<glyph horiz-adv-x="660" d="M 147 700 L 233 700 L 165 315 L 565 700 L 666 700 L 394 436 L 563 0 L 475 0 L 332 377 L 144 195 L 110 0 L 24 0 L 147 700 Z" unicode="K" />
<glyph horiz-adv-x="597" d="M 147 700 L 233 700 L 124 76 L 509 76 L 495 0 L 24 0 L 147 700 Z" unicode="L" />
<glyph horiz-adv-x="839" d="M 147 700 L 233 700 L 416 338 L 724 700 L 822 700 L 698 0 L 615 0 L 717 578 L 398 208 L 208 579 L 108 0 L 24 0 L 147 700 Z" unicode="M" />
<glyph horiz-adv-x="715" d="M 147 700 L 224 700 L 514 130 L 615 700 L 698 700 L 574 0 L 496 0 L 207 569 L 107 0 L 24 0 L 147 700 Z" unicode="N" />
<glyph horiz-adv-x="801" d="M 51 292 C 51 352 61 407 82 458 C 103 509 132 553 169 591 C 205 629 248 658 298 680 C 348 701 401 712 458 712 C 498 712 537 705 573 691 C 609 677 641 658 668 632 C 695 606 717 574 733 536 C 749 498 757 456 757 408 C 757 348 746 292 725 241 C 704 190 675 146 639 108 C 602 70 559 41 510 20 C 460 -1 407 -12 350 -12 C 309 -12 270 -5 234 8 C 198 22 166 42 139 68 C 112 94 91 125 75 163 C 59 201 51 244 51 292 Z M 139 300 C 139 262 144 229 155 199 C 165 169 180 144 199 124 C 218 104 241 88 268 78 C 294 67 324 62 357 62 C 398 62 437 70 475 87 C 512 103 545 127 574 157 C 603 187 626 222 643 264 C 660 305 669 350 669 400 C 669 437 663 470 653 500 C 642 530 627 555 608 575 C 589 595 566 611 540 622 C 513 632 484 638 452 638 C 411 638 372 629 334 613 C 296 596 262 573 234 543 C 205 513 182 477 165 436 C 147 394 139 349 139 300 Z" unicode="O" />
<glyph horiz-adv-x="651" d="M 147 700 L 418 700 C 454 700 485 695 511 685 C 537 675 559 662 577 646 C 595 629 608 609 616 587 C 624 565 629 541 629 517 C 629 489 624 460 614 432 C 604 404 589 378 567 356 C 545 333 516 315 480 301 C 444 287 400 280 348 280 L 160 280 L 110 0 L 24 0 L 147 700 Z M 359 350 C 390 350 417 355 440 365 C 463 375 482 387 497 403 C 512 419 523 436 531 456 C 538 476 542 495 542 515 C 542 547 532 573 512 595 C 492 617 458 628 409 628 L 221 628 L 172 350 L 359 350 Z" unicode="P" />
<glyph horiz-adv-x="804" d="M 51 292 C 51 352 61 407 82 458 C 103 509 132 553 169 591 C 205 629 248 658 298 680 C 348 701 401 712 458 712 C 498 712 537 705 573 691 C 609 677 641 658 668 632 C 695 606 717 574 733 536 C 749 498 757 456 757 408 C 757 347 746 291 725 240 C 704 189 675 145 638 107 L 714 26 L 665 -17 L 590 65 C 556 40 518 21 478 8 C 438 -5 395 -12 350 -12 C 309 -12 270 -5 234 8 C 198 22 166 42 139 68 C 112 94 91 125 75 163 C 59 201 51 244 51 292 Z M 475 285 L 583 166 C 609 196 629 230 645 270 C 661 309 669 352 669 400 C 669 437 663 470 653 500 C 642 530 627 555 608 575 C 589 595 566 611 540 622 C 513 632 484 638 452 638 C 411 638 372 629 334 613 C 296 596 262 573 234 543 C 205 513 182 477 165 436 C 147 394 139 349 139 300 C 139 262 144 229 155 199 C 165 169 180 144 199 124 C 218 104 241 88 268 78 C 294 67 324 62 357 62 C 390 62 422 67 453 78 C 483 89 512 105 538 125 L 427 243 L 475 285 Z" unicode="Q" />
<glyph horiz-adv-x="673" d="M 373 350 C 403 350 430 355 453 365 C 476 375 495 388 510 404 C 525 420 536 437 544 457 C 551 477 555 496 555 515 C 555 531 552 545 548 559 C 544 573 536 585 526 595 C 516 605 502 613 486 619 C 469 625 448 628 423 628 L 221 628 L 172 350 L 373 350 Z M 110 0 L 24 0 L 147 700 L 432 700 C 467 700 498 695 524 685 C 550 675 572 662 590 646 C 607 629 620 610 629 588 C 638 566 643 542 643 518 C 643 492 639 468 631 444 C 623 420 612 398 596 378 C 580 358 561 340 538 326 C 515 311 488 300 457 292 L 548 0 L 463 0 L 380 282 L 160 282 L 110 0 Z" unicode="R" />
<glyph horiz-adv-x="607" d="M 59 131 C 83 113 112 97 146 84 C 180 70 218 64 260 64 C 290 64 316 67 339 75 C 362 82 381 92 397 104 C 412 116 423 130 431 146 C 439 162 443 180 443 198 C 443 218 439 234 431 247 C 423 259 411 270 397 278 C 383 286 366 294 347 300 C 327 306 306 312 284 319 C 260 325 237 333 214 341 C 191 349 171 360 153 374 C 135 388 120 404 109 424 C 97 444 92 468 92 498 C 92 528 98 556 110 582 C 122 608 140 630 164 650 C 187 669 215 684 249 695 C 282 706 320 712 362 712 C 408 712 449 706 486 694 C 523 682 555 668 582 653 L 541 588 C 515 602 487 614 457 623 C 427 631 393 636 355 636 C 329 636 305 632 284 626 C 263 619 245 610 230 598 C 215 586 203 572 195 556 C 187 540 183 523 183 505 C 183 486 187 470 195 458 C 203 446 213 435 227 427 C 241 419 257 412 276 406 C 295 400 316 395 338 389 C 361 382 384 374 408 366 C 431 357 452 346 470 332 C 488 318 503 301 515 281 C 527 261 533 235 533 204 C 533 174 527 146 515 120 C 503 94 486 71 463 51 C 439 31 410 16 375 5 C 339 -6 298 -12 251 -12 C 199 -12 153 -3 112 12 C 71 28 37 47 11 68 L 59 131 Z" unicode="S" />
<glyph horiz-adv-x="642" d="M 330 624 L 81 624 L 94 700 L 677 700 L 664 624 L 416 624 L 307 0 L 220 0 L 330 624 Z" unicode="T" />
<glyph horiz-adv-x="707" d="M 145 700 L 231 700 L 154 271 C 152 260 150 248 149 236 C 148 224 148 213 148 203 C 148 156 162 121 191 97 C 220 73 259 62 307 62 C 333 62 358 66 382 74 C 406 82 427 94 447 111 C 467 127 484 148 498 174 C 512 199 523 229 529 263 L 605 700 L 691 700 L 614 259 C 606 214 592 175 573 141 C 553 107 530 78 502 56 C 474 33 442 16 406 5 C 370 -6 332 -12 292 -12 C 258 -12 228 -7 200 2 C 172 11 147 25 127 43 C 106 61 90 83 79 109 C 67 135 62 166 62 200 C 62 212 62 224 64 238 C 66 252 67 264 69 276 L 145 700 Z" unicode="U" />
<glyph horiz-adv-x="670" d="M 93 700 L 180 700 L 287 97 L 289 97 L 609 700 L 705 700 L 326 0 L 225 0 L 93 700 Z" unicode="V" />
<glyph horiz-adv-x="1018" d="M 95 700 L 181 700 L 256 117 L 258 117 L 525 700 L 610 700 L 677 117 L 679 117 L 959 700 L 1052 700 L 710 0 L 615 0 L 549 571 L 547 571 L 285 0 L 189 0 L 95 700 Z" unicode="W" />
<glyph horiz-adv-x="681" d="M 294 360 L 119 700 L 213 700 L 354 424 L 589 700 L 699 700 L 399 354 L 581 0 L 487 0 L 340 291 L 90 0 L -20 0 L 294 360 Z" unicode="X" />
<glyph horiz-adv-x="658" d="M 276 285 L 91 700 L 184 700 L 330 368 L 331 368 L 591 700 L 695 700 L 362 284 L 312 0 L 226 0 L 276 285 Z" unicode="Y" />
<glyph horiz-adv-x="638" d="M 9 71 L 512 623 L 108 623 L 121 700 L 640 700 L 627 629 L 126 78 L 541 78 L 527 0 L -3 0 L 9 71 Z" unicode="Z" />
<glyph horiz-adv-x="386" d="M 228 -200 L -9 -200 L 159 755 L 397 755 L 386 692 L 232 692 L 86 -137 L 240 -137 L 228 -200 Z" unicode="[" />
<glyph horiz-adv-x="498" d="M 337 -200 L 67 755 L 146 755 L 416 -200 L 337 -200 Z" unicode="\" />
<glyph horiz-adv-x="386" d="M 133 -137 L 279 692 L 125 692 L 136 755 L 373 755 L 205 -200 L -31 -200 L -21 -137 L 133 -137 Z" unicode="]" />
<glyph horiz-adv-x="536" d="M 303 740 L 381 740 L 486 562 L 425 562 L 336 670 L 206 562 L 134 562 L 303 740 Z" unicode="^" />
<glyph horiz-adv-x="541" d="M 481 -13 L 468 -86 L -74 -86 L -61 -13 L 481 -13 Z" unicode="_" />
<glyph horiz-adv-x="624" d="M 283 707 L 345 751 L 451 574 L 395 574 L 283 707 Z" unicode="`" />
<glyph horiz-adv-x="590" d="M 437 406 C 418 424 398 439 378 449 C 357 459 333 465 305 465 C 278 465 253 458 230 445 C 207 432 187 414 171 391 C 154 367 141 340 131 309 C 121 277 117 243 117 206 C 117 156 126 118 146 92 C 166 66 193 54 228 54 C 259 54 288 64 316 86 C 343 107 370 138 397 178 L 437 406 Z M 211 -12 C 185 -12 161 -7 139 2 C 117 12 99 26 83 44 C 67 62 54 84 46 110 C 37 136 33 166 33 200 C 33 247 39 291 53 332 C 67 372 85 407 109 437 C 133 466 161 489 193 506 C 225 522 261 531 299 531 C 333 531 363 524 389 510 C 415 496 435 479 451 461 L 466 519 L 539 519 L 470 127 C 468 121 467 116 467 110 C 466 104 466 99 466 96 C 466 71 480 59 509 59 L 499 -1 C 464 -1 437 5 418 18 C 399 31 389 53 389 85 C 337 20 278 -12 211 -12 Z" unicode="a" />
<glyph horiz-adv-x="585" d="M 154 755 L 237 755 L 179 431 C 201 460 227 484 256 502 C 285 520 318 530 354 530 C 407 530 449 511 481 474 C 512 437 528 384 528 316 C 528 270 521 228 509 188 C 496 148 478 114 455 84 C 432 54 404 31 372 14 C 339 -2 303 -11 264 -11 C 231 -11 202 -4 177 9 C 151 23 129 41 111 63 L 93 0 L 21 0 L 154 755 Z M 124 119 C 141 97 160 81 181 70 C 202 59 227 54 255 54 C 284 54 310 61 334 75 C 357 89 377 109 393 133 C 409 157 422 186 431 218 C 439 250 444 283 444 318 C 444 368 434 405 414 429 C 394 452 367 464 333 464 C 303 464 273 453 244 432 C 215 410 188 381 164 344 L 124 119 Z" unicode="b" />
<glyph horiz-adv-x="511" d="M 31 214 C 31 260 38 302 53 341 C 68 379 89 413 116 441 C 142 469 173 491 209 507 C 245 523 283 531 325 531 C 361 531 392 525 418 513 C 444 501 466 487 482 472 L 435 421 C 421 432 405 442 386 450 C 366 458 343 462 317 462 C 290 462 264 456 240 444 C 216 432 194 415 176 394 C 157 373 142 348 132 319 C 121 289 116 257 116 222 C 116 170 127 129 151 100 C 175 71 207 57 249 57 C 277 57 301 61 322 71 C 343 80 363 92 383 108 L 426 52 C 400 32 373 16 344 5 C 315 -6 280 -12 239 -12 C 210 -12 183 -6 158 3 C 132 13 110 28 92 48 C 73 67 58 91 47 119 C 36 147 31 178 31 214 Z" unicode="c" />
<glyph horiz-adv-x="585" d="M 230 54 C 260 54 290 64 318 86 C 346 108 373 138 397 178 L 437 406 C 419 424 399 439 379 449 C 358 459 334 465 306 465 C 279 465 254 458 231 445 C 207 432 187 414 171 391 C 154 368 141 341 131 310 C 121 278 117 245 117 209 C 117 155 127 116 147 91 C 167 66 194 54 230 54 Z M 209 -11 C 184 -11 161 -6 140 3 C 118 12 100 26 84 44 C 68 62 55 84 46 111 C 37 137 33 168 33 203 C 33 249 39 292 53 332 C 66 372 85 406 109 436 C 133 465 161 488 193 505 C 225 521 261 530 299 530 C 333 530 362 523 386 511 C 410 498 430 483 448 466 L 499 755 L 581 755 L 448 0 L 382 0 L 389 89 C 365 60 340 36 312 17 C 284 -1 250 -11 209 -11 Z" unicode="d" />
<glyph horiz-adv-x="557" d="M 31 211 C 31 256 38 298 54 337 C 70 376 91 410 119 439 C 147 467 180 490 218 506 C 256 522 297 531 342 531 C 368 531 391 527 412 520 C 433 513 451 504 466 492 C 480 480 492 466 500 450 C 508 434 512 417 512 399 C 512 350 484 313 429 288 C 374 262 296 250 195 250 L 118 250 C 116 244 116 238 116 232 C 116 226 116 220 116 214 C 116 163 127 124 150 97 C 172 69 207 56 255 56 C 283 56 310 60 336 70 C 362 79 386 91 408 105 L 441 48 C 415 30 385 15 352 4 C 318 -6 282 -12 244 -12 C 212 -12 182 -6 156 3 C 130 13 107 28 89 48 C 70 67 56 90 46 118 C 36 145 31 176 31 211 Z M 334 467 C 290 467 249 453 212 425 C 175 397 148 359 131 311 L 200 311 C 281 311 339 319 375 335 C 411 351 429 373 429 400 C 429 418 420 433 404 447 C 388 460 364 467 334 467 Z" unicode="e" />
<glyph horiz-adv-x="373" d="M 133 452 L 43 452 L 54 514 L 144 514 L 153 563 C 165 632 190 682 229 714 C 268 745 316 761 373 761 C 390 761 407 759 425 756 C 442 752 456 748 468 743 L 436 686 C 428 689 418 691 408 693 C 397 695 386 696 374 696 C 338 696 308 685 284 665 C 260 644 243 608 234 556 L 227 514 L 369 514 L 357 452 L 216 452 L 137 0 L 54 0 L 133 452 Z" unicode="f" />
<glyph horiz-adv-x="585" d="M 436 406 C 417 425 397 440 377 450 C 356 460 332 465 304 465 C 278 465 253 458 230 445 C 207 432 187 414 170 391 C 153 368 140 341 130 310 C 120 278 116 245 116 209 C 116 157 126 118 146 94 C 166 70 194 58 228 58 C 259 58 288 68 315 89 C 342 110 369 141 397 181 L 436 406 Z M 381 92 C 359 63 333 39 305 21 C 276 2 242 -7 203 -7 C 179 -7 156 -2 136 6 C 115 14 97 27 82 45 C 66 63 54 85 45 112 C 36 138 32 170 32 206 C 32 252 38 295 52 335 C 66 375 85 409 109 438 C 133 466 161 489 193 505 C 225 521 260 530 298 530 C 332 530 361 523 387 510 C 413 496 434 481 450 463 L 465 519 L 538 519 L 447 2 C 441 -31 432 -61 420 -87 C 408 -113 393 -136 373 -154 C 353 -172 330 -185 302 -195 C 274 -205 240 -210 201 -210 C 163 -210 127 -203 94 -189 C 60 -175 32 -157 9 -137 L 54 -81 C 74 -98 97 -113 123 -125 C 149 -137 178 -143 208 -143 C 252 -143 286 -131 312 -107 C 338 -83 356 -43 367 15 L 381 92 Z" unicode="g" />
<glyph horiz-adv-x="577" d="M 155 755 L 237 755 L 177 417 C 188 431 201 445 215 459 C 229 473 244 485 260 495 C 276 505 294 514 313 520 C 331 526 351 530 372 530 C 416 530 449 518 473 494 C 496 470 508 440 508 403 C 508 391 507 377 505 362 C 503 347 501 334 499 323 L 441 0 L 359 0 L 418 333 C 419 341 420 352 422 364 C 424 376 425 386 425 396 C 425 416 419 432 409 445 C 398 458 379 465 352 465 C 319 465 287 452 255 428 C 223 404 192 370 162 326 L 104 0 L 21 0 L 155 755 Z" unicode="h" />
<glyph horiz-adv-x="241" d="M 152 743 L 234 743 L 218 648 L 135 648 L 152 743 Z M 112 516 L 194 516 L 104 0 L 21 0 L 112 516 Z" unicode="i" />
<glyph horiz-adv-x="246" d="M 157 743 L 239 743 L 222 648 L 140 648 L 157 743 Z M 117 516 L 199 516 L 103 -26 C 91 -90 71 -137 41 -166 C 11 -195 -27 -210 -77 -210 C -91 -210 -106 -207 -120 -203 C -134 -199 -145 -193 -155 -187 L -122 -130 C -116 -132 -109 -135 -102 -137 C -94 -139 -86 -141 -78 -141 C -53 -141 -32 -131 -15 -113 C 2 -95 15 -63 23 -17 L 117 516 Z" unicode="j" />
<glyph horiz-adv-x="528" d="M 154 755 L 237 755 L 150 262 L 421 519 L 520 519 L 329 340 L 443 0 L 359 0 L 268 283 L 131 154 L 104 0 L 21 0 L 154 755 Z" unicode="k" />
<glyph horiz-adv-x="241" d="M 154 755 L 237 755 L 104 0 L 21 0 L 154 755 Z" unicode="l" />
<glyph horiz-adv-x="885" d="M 99 0 L 18 0 L 108 519 L 176 519 L 168 414 C 191 446 219 473 253 496 C 286 518 323 530 365 530 C 405 530 436 519 457 498 C 477 477 489 451 491 419 C 517 453 548 480 582 500 C 616 520 652 530 690 530 C 732 530 763 518 785 496 C 806 473 817 444 817 409 C 817 396 816 382 814 367 C 812 351 810 337 808 325 L 749 0 L 669 0 L 728 335 C 729 343 730 354 732 366 C 734 378 735 388 735 398 C 735 418 730 435 720 447 C 710 459 692 465 668 465 C 636 465 605 453 574 431 C 543 408 513 376 484 335 C 484 333 483 332 483 331 C 483 329 483 328 483 327 L 424 0 L 343 0 L 403 336 C 404 344 405 353 407 365 C 409 376 410 386 410 396 C 410 416 405 432 395 445 C 385 458 368 465 343 465 C 309 465 278 453 248 429 C 218 405 188 371 158 327 L 99 0 Z" unicode="m" />
<glyph horiz-adv-x="574" d="M 414 334 C 415 342 416 352 418 364 C 420 376 421 386 421 396 C 421 416 415 432 405 445 C 394 458 375 465 349 465 C 315 465 282 452 251 428 C 219 404 188 370 158 326 L 100 0 L 18 0 L 108 519 L 177 519 L 168 414 C 192 445 221 472 255 495 C 289 518 327 530 370 530 C 414 530 447 518 470 494 C 492 470 504 440 504 404 C 504 392 503 379 501 363 C 499 347 497 334 495 323 L 437 0 L 355 0 L 414 334 Z" unicode="n" />
<glyph horiz-adv-x="595" d="M 245 -12 C 213 -12 185 -6 159 3 C 133 13 110 28 92 48 C 73 68 58 92 48 120 C 38 148 33 180 33 216 C 33 261 40 303 55 341 C 70 379 91 413 117 441 C 143 469 175 491 211 507 C 247 523 285 531 327 531 C 359 531 388 525 414 515 C 440 505 462 490 481 470 C 499 450 514 426 524 398 C 534 370 540 338 540 303 C 540 257 532 215 517 177 C 502 138 481 105 455 77 C 428 49 397 27 361 11 C 325 -4 286 -12 245 -12 Z M 253 54 C 280 54 306 60 331 73 C 355 86 377 104 396 126 C 414 148 429 175 440 205 C 450 235 456 268 456 302 C 456 355 444 395 420 423 C 396 451 363 465 320 465 C 292 465 266 458 242 445 C 217 432 195 414 177 392 C 158 370 143 343 132 313 C 121 283 116 251 116 217 C 116 163 127 123 151 95 C 175 67 209 54 253 54 Z" unicode="o" />
<glyph horiz-adv-x="585" d="M 124 119 C 141 97 160 81 181 70 C 202 59 227 54 255 54 C 285 54 311 61 335 76 C 358 90 378 110 394 134 C 410 158 422 186 431 218 C 439 250 444 283 444 317 C 444 367 434 404 415 428 C 396 452 369 464 333 464 C 302 464 272 453 243 431 C 214 409 188 381 164 345 L 124 119 Z M 67 -200 L -15 -200 L 111 519 L 182 519 L 175 431 C 198 459 225 483 255 502 C 285 520 318 530 355 530 C 407 530 448 511 480 475 C 512 438 528 385 528 317 C 528 271 521 228 509 188 C 496 148 478 113 455 84 C 431 54 403 31 371 14 C 339 -2 303 -11 264 -11 C 232 -11 203 -4 178 8 C 153 21 132 38 114 60 L 67 -200 Z" unicode="p" />
<glyph horiz-adv-x="584" d="M 209 -11 C 183 -11 160 -6 139 3 C 117 12 99 26 83 44 C 67 62 55 84 46 111 C 37 137 33 168 33 203 C 33 251 40 295 54 335 C 68 375 87 409 111 438 C 135 467 163 490 195 506 C 227 522 262 530 299 530 C 333 530 363 523 389 509 C 415 495 436 479 452 461 L 467 519 L 540 519 L 412 -200 L 330 -200 L 380 84 C 358 56 333 33 306 15 C 278 -2 246 -11 209 -11 Z M 228 54 C 259 54 289 65 317 88 C 345 110 372 140 397 178 L 437 406 C 419 424 399 439 378 449 C 357 459 333 465 306 465 C 279 465 254 458 231 445 C 207 431 187 413 171 390 C 154 367 141 340 131 309 C 121 277 117 243 117 207 C 117 155 126 117 146 92 C 166 66 193 54 228 54 Z" unicode="q" />
<glyph horiz-adv-x="397" d="M 108 519 L 175 519 L 167 414 C 190 450 216 479 246 500 C 276 521 309 532 346 532 C 360 532 372 530 383 528 C 393 526 403 523 411 520 L 384 447 C 368 453 349 457 327 457 C 295 457 266 444 238 419 C 210 393 182 358 156 314 L 100 0 L 18 0 L 108 519 Z" unicode="r" />
<glyph horiz-adv-x="467" d="M 33 103 C 51 89 73 78 99 68 C 125 58 153 54 184 54 C 222 54 254 62 278 78 C 302 94 315 117 315 145 C 315 159 311 170 305 179 C 299 188 290 196 280 202 C 269 208 257 214 243 218 C 229 222 214 226 199 230 C 180 234 162 240 144 247 C 126 254 111 263 97 274 C 83 285 73 298 65 314 C 57 330 53 348 53 370 C 53 395 58 417 69 437 C 80 457 95 473 114 487 C 133 501 155 511 181 519 C 207 526 235 530 265 530 C 295 530 324 526 353 518 C 381 510 408 498 433 484 L 392 427 C 374 437 354 446 330 453 C 306 460 281 464 257 464 C 240 464 224 461 210 457 C 195 452 182 446 171 438 C 160 430 151 420 145 409 C 138 397 135 385 135 372 C 135 358 138 347 144 338 C 150 329 159 322 170 316 C 180 310 193 305 207 301 C 221 297 235 293 250 290 C 269 285 287 279 305 273 C 323 266 338 257 352 247 C 365 237 376 224 384 208 C 392 192 396 173 396 151 C 396 99 376 59 337 31 C 297 2 243 -12 175 -12 C 136 -12 101 -6 70 6 C 39 18 13 32 -8 48 L 33 103 Z" unicode="s" />
<glyph horiz-adv-x="386" d="M 135 455 L 44 455 L 55 519 L 145 519 L 172 671 L 254 671 L 227 519 L 374 519 L 364 455 L 216 455 L 164 159 C 162 151 161 142 160 132 C 159 122 159 115 159 109 C 159 91 163 78 171 69 C 179 60 192 56 212 56 C 225 56 239 58 253 64 C 267 69 280 75 293 83 L 321 25 C 303 14 283 5 261 -1 C 239 -8 216 -12 194 -12 C 156 -12 126 -1 106 18 C 85 38 75 65 75 97 C 75 106 75 117 77 131 C 79 144 81 157 84 169 L 135 455 Z" unicode="t" />
<glyph horiz-adv-x="570" d="M 435 0 L 369 0 L 376 104 C 350 71 321 43 288 21 C 255 0 217 -12 173 -12 C 129 -12 95 0 73 23 C 51 47 40 77 40 115 C 40 126 40 139 42 154 C 44 169 46 182 48 194 L 106 519 L 188 519 L 128 184 C 126 174 125 164 124 153 C 122 141 122 131 122 122 C 122 102 127 86 138 73 C 149 59 168 53 195 53 C 229 53 261 65 293 89 C 324 113 355 148 387 192 L 444 519 L 526 519 L 435 0 Z" unicode="u" />
<glyph horiz-adv-x="498" d="M 53 519 L 130 519 L 200 92 L 202 92 L 419 519 L 505 519 L 234 0 L 143 0 L 53 519 Z" unicode="v" />
<glyph horiz-adv-x="802" d="M 53 519 L 131 519 L 194 103 L 196 103 L 390 519 L 464 519 L 516 103 L 517 103 L 724 519 L 810 519 L 546 0 L 463 0 L 411 403 L 409 403 L 216 0 L 135 0 L 53 519 Z" unicode="w" />
<glyph horiz-adv-x="505" d="M 194 265 L 71 519 L 153 519 L 247 321 L 408 519 L 503 519 L 289 260 L 416 0 L 335 0 L 235 205 L 65 0 L -28 0 L 194 265 Z" unicode="x" />
<glyph horiz-adv-x="500" d="M -45 -126 C -35 -130 -25 -134 -15 -137 C -4 -139 5 -141 15 -141 C 34 -141 51 -136 66 -126 C 80 -116 94 -98 108 -73 L 151 4 L 53 519 L 132 519 L 206 108 L 207 108 L 421 519 L 508 519 L 185 -85 C 171 -110 158 -131 145 -147 C 132 -163 119 -175 105 -185 C 91 -194 77 -200 62 -204 C 47 -208 31 -210 13 -210 C -3 -210 -18 -207 -34 -203 C -49 -199 -63 -193 -75 -186 L -45 -126 Z" unicode="y" />
<glyph horiz-adv-x="494" d="M 3 58 L 358 452 L 79 452 L 90 519 L 474 519 L 464 459 L 108 66 L 404 66 L 393 0 L -9 0 L 3 58 Z" unicode="z" />
<glyph horiz-adv-x="450" d="M 296 -200 L 238 -200 C 192 -200 157 -190 132 -171 C 106 -151 94 -122 94 -82 C 94 -76 94 -70 95 -64 C 95 -58 96 -51 98 -44 L 131 145 C 132 150 133 155 134 161 C 134 167 135 172 135 178 C 135 196 129 210 118 220 C 107 230 88 235 61 235 L 16 235 L 29 310 L 75 310 C 107 310 130 317 146 332 C 161 346 171 370 177 404 L 213 605 C 222 658 241 696 270 720 C 298 743 342 755 401 755 L 464 755 L 454 693 L 401 693 C 369 693 345 685 329 670 C 312 655 301 633 296 605 L 261 404 C 253 362 241 332 224 312 C 206 292 182 279 151 271 L 151 270 C 175 260 193 248 203 232 C 213 216 218 198 218 178 C 218 172 217 166 217 158 C 216 150 215 143 214 136 L 181 -50 C 179 -61 178 -71 178 -81 C 178 -99 183 -113 194 -123 C 205 -133 224 -138 252 -138 L 307 -138 L 296 -200 Z" unicode="{" />
<glyph horiz-adv-x="282" d="M 176 755 L 256 755 L 87 -200 L 8 -200 L 176 755 Z" unicode="|" />
<glyph horiz-adv-x="450" d="M 136 755 L 194 755 C 238 755 273 745 299 727 C 325 709 338 680 338 640 C 338 626 336 612 334 599 L 297 401 C 295 390 294 379 294 369 C 294 349 299 335 310 325 C 321 315 341 310 369 310 L 414 310 L 401 235 L 355 235 C 323 235 299 227 284 212 C 268 197 258 173 253 141 L 219 -50 C 209 -103 190 -141 162 -165 C 134 -188 90 -200 31 -200 L -33 -200 L -22 -138 L 31 -138 C 62 -138 86 -130 103 -115 C 119 -100 130 -78 136 -50 L 169 140 C 176 182 188 213 205 233 C 222 253 247 266 279 274 L 279 275 C 253 284 236 297 226 313 C 216 329 212 347 212 368 C 212 373 212 379 212 387 C 212 395 213 402 215 409 L 250 605 C 251 610 252 615 253 621 C 253 626 254 631 254 636 C 254 654 248 668 237 678 C 226 688 207 693 180 693 L 125 693 L 136 755 Z" unicode="}" />
<glyph horiz-adv-x="559" d="M 49 198 C 49 218 52 238 58 257 C 63 275 71 292 81 306 C 91 320 104 332 120 341 C 135 349 153 354 175 354 C 196 354 215 348 231 338 C 247 328 263 316 277 304 C 291 291 306 279 320 269 C 334 259 349 254 366 254 C 383 254 397 261 407 275 C 417 289 424 310 428 336 L 488 336 C 488 315 485 295 480 276 C 475 257 467 241 457 227 C 447 213 434 201 418 193 C 402 185 384 181 363 181 C 342 181 323 186 307 196 C 291 206 275 218 261 231 C 247 243 232 255 218 265 C 204 275 189 281 173 281 C 155 281 141 273 130 259 C 119 245 113 224 111 198 L 49 198 Z" unicode="~" />
<glyph horiz-adv-x="254" d="M 187 413 L 95 413 L 114 520 L 205 520 L 187 413 Z M 110 0 L 78 -180 L -10 -180 L 22 0 L 100 314 L 145 314 L 110 0 Z" unicode="¡" />
<glyph horiz-adv-x="596" d="M 131 320 C 131 280 138 245 153 217 C 168 189 190 167 218 153 L 386 566 L 379 566 C 344 566 312 559 282 547 C 252 535 225 518 203 496 C 181 474 163 448 150 418 C 137 388 131 355 131 320 Z M 46 314 C 46 360 54 402 71 441 C 87 480 110 514 140 542 C 170 570 205 593 247 609 C 288 625 333 634 383 634 C 387 634 392 634 397 634 C 401 634 406 633 411 633 L 438 700 L 490 700 L 459 624 C 499 614 536 596 571 569 L 523 517 C 495 539 464 553 430 560 L 259 139 C 266 137 273 136 281 135 C 289 134 297 134 306 134 C 336 134 365 139 393 151 C 421 162 447 177 471 197 L 518 142 C 486 117 452 98 416 85 C 380 72 341 66 298 66 C 276 66 255 68 235 72 L 205 0 L 152 0 L 188 86 C 144 104 109 133 84 173 C 58 212 46 259 46 314 Z" unicode="¢" />
<glyph horiz-adv-x="663" d="M 98 394 L 204 394 C 196 414 189 434 184 455 C 178 475 176 497 176 519 C 176 547 181 572 192 596 C 203 620 218 640 238 657 C 258 674 281 687 308 697 C 334 707 364 712 396 712 C 420 712 441 709 460 703 C 478 697 495 689 509 679 C 523 669 536 658 546 646 C 556 633 565 620 571 607 L 506 579 C 496 597 481 613 463 626 C 444 638 419 645 389 645 C 370 645 353 641 337 635 C 321 629 307 620 295 609 C 283 598 273 585 266 570 C 259 554 256 537 256 519 C 256 496 259 474 265 453 C 271 432 279 412 288 392 L 456 392 L 446 339 L 310 339 C 319 315 326 294 331 275 C 335 256 338 238 338 220 C 338 203 335 186 331 170 C 326 153 320 137 312 122 C 335 103 357 87 379 73 C 400 59 423 53 449 53 C 479 53 501 62 517 81 C 533 99 540 127 540 163 L 615 163 C 617 111 604 68 577 36 C 550 4 508 -12 452 -12 C 433 -12 415 -9 399 -5 C 383 0 367 5 353 13 C 338 21 324 29 311 39 C 297 49 284 58 272 68 C 251 44 227 25 199 10 C 171 -4 142 -12 112 -12 C 72 -12 42 -2 22 17 C 1 37 -9 61 -9 91 C -9 107 -5 122 0 136 C 6 150 15 163 27 173 C 39 183 53 192 69 198 C 85 204 103 208 123 208 C 147 208 169 204 189 196 C 209 188 228 177 248 164 C 252 173 255 183 257 193 C 259 203 260 212 260 222 C 260 243 256 263 250 281 C 243 299 236 318 228 338 L 89 338 L 98 394 Z M 120 151 C 102 151 86 145 74 135 C 61 124 55 111 55 95 C 55 79 60 67 71 58 C 81 48 96 44 114 44 C 134 44 154 50 172 62 C 190 74 206 90 220 110 C 204 122 189 131 173 139 C 157 147 139 151 120 151 Z" unicode="£" />
<glyph horiz-adv-x="649" d="M 125 237 C 125 214 128 193 136 173 C 143 153 153 136 167 122 C 180 108 196 97 216 89 C 235 81 257 77 282 77 C 310 77 337 83 364 95 C 390 107 414 123 435 143 C 455 163 472 186 485 212 C 497 238 504 266 504 296 C 504 319 500 340 493 360 C 486 380 476 397 462 411 C 448 425 432 437 413 445 C 393 453 371 457 347 457 C 319 457 291 451 265 439 C 238 427 214 411 194 391 C 173 371 156 347 144 321 C 131 294 125 266 125 237 Z M 49 233 C 49 273 56 310 72 345 C 87 380 108 411 136 438 L 90 499 L 133 534 L 179 474 C 204 492 232 506 262 516 C 292 526 325 531 359 531 C 387 531 414 526 439 517 C 463 507 485 494 505 477 L 568 534 L 605 494 L 540 436 C 553 416 563 395 570 373 C 577 350 581 326 581 301 C 581 260 573 222 557 186 C 541 150 519 119 491 93 L 538 34 L 494 1 L 449 58 C 423 40 395 27 365 17 C 335 7 303 3 270 3 C 241 3 214 7 190 17 C 165 27 143 40 124 58 L 59 0 L 23 40 L 88 99 C 62 138 49 183 49 233 Z" unicode="¤" />
<glyph horiz-adv-x="658" d="M 67 313 L 283 313 L 95 700 L 189 700 L 334 390 L 335 390 L 589 700 L 696 700 L 370 313 L 583 313 L 573 258 L 360 258 L 344 167 L 558 167 L 548 112 L 334 112 L 315 0 L 229 0 L 248 112 L 32 112 L 42 167 L 258 167 L 273 258 L 58 258 L 67 313 Z" unicode="¥" />
<glyph horiz-adv-x="282" d="M 176 755 L 256 755 L 184 348 L 105 348 L 176 755 Z M 153 172 L 87 -200 L 8 -200 L 74 172 L 153 172 Z" unicode="¦" />
<glyph horiz-adv-x="525" d="M 385 326 C 385 343 379 358 367 370 C 355 382 341 392 323 401 C 305 410 285 419 264 427 C 242 435 222 445 203 456 C 190 448 177 438 165 424 C 152 410 146 392 146 372 C 146 354 151 340 163 328 C 175 316 189 305 207 296 C 225 287 244 278 265 270 C 286 262 306 253 326 243 C 339 250 352 261 365 275 C 378 289 385 306 385 326 Z M 461 335 C 461 306 451 281 433 260 C 414 239 393 223 371 211 C 382 201 391 189 398 176 C 405 162 409 147 409 129 C 409 108 404 89 395 71 C 385 53 372 38 354 26 C 336 14 315 4 291 -2 C 266 -9 238 -13 208 -13 C 170 -13 135 -5 103 9 C 71 24 45 44 27 68 L 84 107 C 98 89 116 75 138 65 C 159 55 183 50 211 50 C 226 50 241 51 255 55 C 269 59 281 64 292 71 C 302 77 311 86 317 96 C 323 106 327 117 327 130 C 327 146 320 159 308 170 C 295 180 279 190 260 199 C 240 208 220 217 198 226 C 176 234 155 245 136 257 C 116 269 100 283 88 300 C 75 317 69 338 69 363 C 69 391 78 416 96 437 C 114 457 135 474 158 487 C 146 497 137 508 131 522 C 124 536 121 552 121 570 C 121 590 125 609 135 627 C 145 644 158 659 176 672 C 193 684 214 694 239 701 C 263 708 291 712 322 712 C 360 712 395 704 427 689 C 459 674 484 655 503 631 L 446 591 C 432 608 414 622 393 632 C 371 642 347 648 320 648 C 304 648 289 646 275 643 C 261 639 248 634 238 628 C 227 621 218 613 212 603 C 206 593 203 581 203 569 C 203 553 209 540 222 529 C 234 518 250 508 270 499 C 289 490 310 481 332 473 C 354 464 374 453 394 441 C 413 429 429 414 442 398 C 454 381 461 360 461 335 Z" unicode="§" />
<glyph horiz-adv-x="634" d="M 249 694 L 326 694 L 312 612 L 235 612 L 249 694 Z M 439 694 L 516 694 L 501 612 L 424 612 L 439 694 Z" unicode="¨" />
<glyph horiz-adv-x="859" d="M 58 280 C 58 330 67 377 86 421 C 105 465 131 504 164 537 C 196 569 235 595 279 614 C 323 633 371 643 421 643 C 471 643 518 633 562 614 C 606 595 645 569 678 537 C 711 504 737 465 756 421 C 775 377 785 330 785 280 C 785 230 775 183 756 139 C 737 95 711 56 678 24 C 645 -8 606 -34 562 -53 C 518 -72 471 -82 421 -82 C 371 -82 323 -72 279 -53 C 235 -34 196 -8 164 24 C 131 56 105 95 86 139 C 67 183 58 230 58 280 Z M 105 280 C 105 236 113 195 130 157 C 146 119 169 85 197 57 C 225 29 259 6 297 -10 C 335 -26 377 -35 421 -35 C 465 -35 506 -26 544 -10 C 582 6 616 29 645 57 C 674 85 697 119 714 157 C 730 195 739 236 739 280 C 739 324 730 365 714 403 C 697 441 674 475 645 504 C 616 532 582 555 544 572 C 506 588 465 597 421 597 C 377 597 335 588 297 572 C 259 555 225 532 197 504 C 169 475 146 441 130 403 C 113 365 105 324 105 280 Z M 223 280 C 223 308 228 334 238 358 C 248 382 263 404 281 422 C 299 440 321 454 346 464 C 371 474 399 479 429 479 C 479 479 525 463 566 433 L 531 387 C 515 398 499 407 482 413 C 465 419 448 423 430 423 C 410 423 391 419 374 412 C 356 405 341 395 329 383 C 316 370 306 355 299 337 C 291 319 288 300 288 280 C 288 235 301 200 328 174 C 354 148 388 136 430 136 C 449 136 468 139 486 145 C 504 151 520 161 535 175 L 574 134 C 555 116 533 103 508 93 C 482 83 456 78 428 78 C 398 78 370 82 345 92 C 319 102 298 115 280 133 C 262 151 248 172 238 197 C 228 221 223 249 223 280 Z" unicode="©" />
<glyph horiz-adv-x="373" d="M 113 426 C 113 412 117 402 126 394 C 134 386 147 383 165 383 C 185 383 203 387 221 395 C 238 403 252 412 264 424 L 280 508 C 260 507 240 505 220 503 C 200 500 182 495 166 489 C 150 483 138 474 128 464 C 118 454 113 441 113 426 Z M 53 420 C 53 446 60 467 74 483 C 88 499 107 511 130 521 C 152 531 177 537 205 541 C 233 545 260 547 287 548 L 296 597 C 299 615 297 630 289 640 C 281 650 266 655 242 655 C 223 655 203 651 183 645 C 162 639 142 631 123 622 L 107 670 C 127 680 149 688 173 695 C 197 701 222 705 246 705 C 290 705 320 694 337 673 C 353 651 359 626 354 596 L 324 424 C 321 410 322 400 326 395 C 330 390 339 388 352 388 L 344 342 C 321 342 304 345 292 352 C 280 359 273 370 269 384 C 253 370 236 359 217 349 C 197 339 175 335 149 335 C 120 335 97 342 79 358 C 61 373 53 394 53 420 Z" unicode="ª" />
<glyph horiz-adv-x="606" d="M 440 0 L 278 260 L 511 520 L 566 473 L 364 254 L 501 41 L 440 0 Z M 192 0 L 30 260 L 263 520 L 318 473 L 116 254 L 253 41 L 192 0 Z" unicode="«" />
<glyph horiz-adv-x="609" d="M 98 545 L 588 545 L 540 279 L 455 279 L 490 474 L 85 474 L 98 545 Z" unicode="¬" />
<glyph horiz-adv-x="859" d="M 58 280 C 58 330 67 377 86 421 C 105 465 131 504 164 537 C 196 569 235 595 279 614 C 323 633 371 643 421 643 C 471 643 518 633 562 614 C 606 595 645 569 678 537 C 711 504 737 465 756 421 C 775 377 785 330 785 280 C 785 230 775 183 756 139 C 737 95 711 56 678 24 C 645 -8 606 -34 562 -53 C 518 -72 471 -82 421 -82 C 371 -82 323 -72 279 -53 C 235 -34 196 -8 164 24 C 131 56 105 95 86 139 C 67 183 58 230 58 280 Z M 105 280 C 105 236 113 195 130 157 C 146 119 169 85 197 57 C 225 29 259 6 297 -10 C 335 -26 377 -35 421 -35 C 465 -35 506 -26 544 -10 C 582 6 616 29 645 57 C 673 85 696 119 713 157 C 729 195 738 236 738 280 C 738 324 729 365 713 403 C 696 441 673 475 645 504 C 616 532 582 555 544 572 C 506 588 465 597 421 597 C 377 597 335 588 297 572 C 259 555 225 532 197 504 C 169 475 146 441 130 403 C 113 365 105 324 105 280 Z M 446 285 C 462 285 475 287 486 291 C 497 295 506 300 513 307 C 519 313 524 320 527 328 C 530 336 532 344 532 352 C 532 369 525 385 513 399 C 501 413 478 421 446 421 L 336 421 L 336 285 L 446 285 Z M 273 472 L 452 472 C 478 472 500 468 518 462 C 536 455 550 446 562 435 C 573 423 581 410 586 396 C 591 382 594 367 594 352 C 594 330 587 309 574 288 C 561 267 540 252 510 243 C 513 238 519 228 527 213 C 535 198 544 182 554 165 C 563 148 572 132 581 118 C 589 103 595 93 598 89 L 528 89 L 448 236 L 336 236 L 336 89 L 273 89 L 273 472 Z" unicode="®" />
<glyph horiz-adv-x="631" d="M 236 682 L 527 682 L 517 624 L 226 624 L 236 682 Z" unicode="¯" />
<glyph horiz-adv-x="413" d="M 243 394 C 221 394 200 397 181 405 C 161 413 144 423 129 437 C 114 451 102 467 94 487 C 85 507 81 529 81 553 C 81 576 85 597 94 617 C 102 636 114 653 129 667 C 144 681 161 693 181 701 C 200 709 221 713 243 713 C 264 713 284 709 304 701 C 324 693 341 681 356 667 C 370 653 382 636 391 617 C 399 597 404 576 404 553 C 404 529 399 507 391 487 C 382 467 370 451 356 437 C 341 423 324 413 305 405 C 285 397 265 394 243 394 Z M 243 447 C 272 447 297 456 318 476 C 338 496 349 521 349 553 C 349 568 346 582 340 595 C 334 608 327 619 317 629 C 307 638 296 645 284 651 C 271 656 257 659 243 659 C 229 659 215 656 203 651 C 190 645 179 638 169 629 C 159 619 151 608 145 595 C 139 582 137 568 137 553 C 137 537 139 523 145 510 C 151 497 159 486 169 477 C 179 467 190 460 203 455 C 215 449 229 447 243 447 Z" unicode="°" />
<glyph horiz-adv-x="605" d="M 16 153 L 233 153 L 266 337 L 48 337 L 61 410 L 278 410 L 314 611 L 392 611 L 357 410 L 574 410 L 561 337 L 344 337 L 312 153 L 528 153 L 517 92 L 5 92 L 16 153 Z" unicode="±" />
<glyph horiz-adv-x="329" d="M 76 528 C 79 555 87 578 100 596 C 113 614 128 629 146 641 C 164 653 182 664 202 673 C 222 681 240 690 257 698 C 273 706 287 715 298 725 C 308 735 314 747 314 762 C 314 776 308 788 298 797 C 288 806 272 811 251 811 C 233 811 215 806 197 798 C 179 790 164 780 151 769 L 117 805 C 133 820 153 833 177 844 C 201 854 227 860 255 860 C 291 860 319 850 340 831 C 360 812 371 789 371 763 C 371 741 365 724 355 710 C 344 696 330 683 314 673 C 298 662 280 653 261 645 C 241 637 223 628 206 620 C 188 611 173 601 161 590 C 149 578 141 564 139 548 L 331 548 L 323 500 L 73 500 L 76 528 Z" unicode="²" />
<glyph horiz-adv-x="336" d="M 107 567 C 119 559 132 553 147 548 C 162 543 178 541 194 541 C 223 541 247 548 266 562 C 285 576 295 593 295 615 C 295 631 289 642 278 649 C 266 656 250 660 229 660 L 176 660 L 184 707 L 234 707 C 257 707 276 712 290 723 C 304 733 311 747 311 765 C 311 778 305 789 295 799 C 284 808 268 813 247 813 C 231 813 215 809 198 802 C 180 794 164 785 149 774 L 120 812 C 138 826 158 837 182 846 C 206 855 230 860 255 860 C 288 860 315 851 336 835 C 357 818 368 796 368 770 C 368 729 345 700 299 683 C 316 677 329 669 339 657 C 348 645 353 630 353 613 C 353 594 348 577 340 562 C 332 547 320 534 306 524 C 292 514 275 506 256 501 C 236 495 215 493 193 493 C 170 493 149 496 129 502 C 109 508 93 516 80 526 L 107 567 Z" unicode="³" />
<glyph horiz-adv-x="624" d="M 422 751 L 480 706 L 315 574 L 258 574 L 422 751 Z" unicode="´" />
<glyph horiz-adv-x="542" d="M 98 545 L 183 545 L 116 171 C 113 155 112 140 113 126 C 113 112 116 99 121 89 C 126 79 134 70 145 64 C 155 58 170 55 188 55 C 220 55 251 66 282 90 C 312 114 343 148 374 192 L 436 545 L 522 545 L 426 0 L 356 0 L 364 102 C 338 68 310 40 278 20 C 246 0 212 -11 176 -11 C 152 -11 133 -6 119 3 C 105 12 95 23 90 35 L 41 -200 L -33 -200 L 98 545 Z" unicode="µ" />
<glyph horiz-adv-x="679" d="M 322 286 L 284 286 C 247 286 216 291 190 301 C 164 311 144 325 128 342 C 112 359 100 378 93 399 C 85 420 82 441 82 462 C 82 488 87 515 97 543 C 107 571 124 596 146 620 C 168 643 196 662 230 677 C 264 692 306 700 354 700 L 656 700 L 533 0 L 456 0 L 568 637 L 461 637 L 348 0 L 272 0 L 322 286 Z" unicode="¶" />
<glyph horiz-adv-x="215" d="M 60 318 L 152 318 L 132 202 L 39 202 L 60 318 Z" unicode="·" />
<glyph horiz-adv-x="624" d="M 136 -185 C 172 -159 204 -130 234 -97 C 263 -64 284 -29 298 9 L 356 9 C 344 -35 324 -77 297 -115 C 270 -153 237 -187 199 -217 L 136 -185 Z" unicode="¸" />
<glyph horiz-adv-x="300" d="M 90 548 L 173 548 L 216 790 L 143 754 L 120 798 L 240 854 L 286 854 L 232 548 L 308 548 L 300 500 L 81 500 L 90 548 Z" unicode="¹" />
<glyph horiz-adv-x="416" d="M 214 335 C 193 335 174 338 156 346 C 138 353 122 363 109 377 C 95 390 85 406 78 425 C 70 444 67 466 67 490 C 67 522 72 551 82 577 C 92 603 107 626 125 645 C 143 664 165 679 190 689 C 214 699 241 705 270 705 C 291 705 311 701 329 694 C 347 686 362 676 376 663 C 389 649 399 633 407 614 C 414 595 418 574 418 550 C 418 518 412 489 402 463 C 392 437 377 414 359 395 C 341 376 319 361 295 351 C 270 340 243 335 214 335 Z M 264 656 C 245 656 227 651 210 643 C 193 634 178 622 166 607 C 154 592 144 575 137 555 C 129 535 126 514 126 492 C 126 458 134 431 150 412 C 166 393 189 384 221 384 C 239 384 257 388 274 397 C 290 405 305 417 317 432 C 329 447 339 464 347 484 C 354 504 358 525 358 548 C 358 582 350 608 334 627 C 318 646 294 656 264 656 Z" unicode="º" />
<glyph horiz-adv-x="607" d="M 383 520 L 545 261 L 313 0 L 257 47 L 459 267 L 322 479 L 383 520 Z M 134 520 L 296 261 L 64 0 L 8 47 L 210 267 L 73 479 L 134 520 Z" unicode="»" />
<glyph horiz-adv-x="1129" d="M 217 214 L 290 628 L 129 542 L 103 596 L 310 700 L 376 700 L 290 214 L 217 214 Z M 274 0 L 769 700 L 841 700 L 346 0 L 274 0 Z M 642 168 L 930 486 L 1040 486 L 983 166 L 1067 166 L 1057 109 L 973 109 L 954 0 L 881 0 L 901 109 L 650 109 L 642 168 Z M 910 166 L 961 434 L 716 166 L 910 166 Z" unicode="¼" />
<glyph horiz-adv-x="1187" d="M 221 214 L 294 628 L 133 542 L 107 596 L 314 700 L 380 700 L 294 214 L 221 214 Z M 275 0 L 770 700 L 842 700 L 347 0 L 275 0 Z M 700 0 L 706 32 C 712 66 725 94 744 117 C 763 140 785 160 811 178 C 836 195 862 210 890 224 C 918 237 943 250 967 264 C 990 277 1009 291 1024 307 C 1039 323 1047 342 1047 364 C 1047 384 1040 401 1026 414 C 1012 426 991 433 961 433 C 933 433 905 427 877 415 C 849 403 822 388 797 370 L 762 425 C 794 446 827 463 863 475 C 898 487 934 493 970 493 C 1023 493 1062 481 1087 457 C 1111 433 1124 404 1124 368 C 1124 338 1116 312 1102 292 C 1088 272 1069 254 1047 239 C 1025 223 1000 210 973 198 C 946 186 920 173 895 160 C 870 147 847 132 827 116 C 807 100 792 80 783 57 L 1065 57 L 1055 0 L 700 0 Z" unicode="½" />
<glyph horiz-adv-x="1195" d="M 351 0 L 846 700 L 918 700 L 423 0 L 351 0 Z M 707 168 L 995 486 L 1105 486 L 1048 166 L 1132 166 L 1122 109 L 1038 109 L 1019 0 L 946 0 L 966 109 L 715 109 L 707 168 Z M 975 166 L 1026 434 L 781 166 L 975 166 Z M 222 207 C 193 207 165 209 137 215 C 109 221 82 229 57 241 L 89 299 C 111 288 134 280 160 274 C 185 268 208 266 230 266 C 284 266 324 276 352 297 C 379 317 393 343 393 375 C 393 397 385 413 369 423 C 353 433 330 439 300 439 L 186 439 L 195 493 L 303 493 C 335 493 362 501 382 519 C 402 536 412 557 412 582 C 412 605 403 622 387 633 C 371 643 347 649 317 649 C 291 649 265 644 237 636 C 209 628 182 616 156 601 L 126 655 C 192 689 259 707 327 707 C 379 707 418 696 446 676 C 474 655 488 628 488 594 C 488 564 478 538 459 516 C 439 494 413 479 379 470 C 409 463 431 451 446 434 C 460 417 468 397 468 373 C 468 349 462 327 452 307 C 441 287 425 269 405 254 C 384 239 358 227 328 219 C 297 211 262 207 222 207 Z" unicode="¾" />
<glyph horiz-adv-x="504" d="M 361 413 L 269 413 L 287 520 L 379 520 L 361 413 Z M 329 314 C 329 312 328 309 328 303 C 328 297 328 293 328 292 C 324 264 316 239 302 219 C 288 198 271 180 252 164 C 233 148 213 134 192 121 C 170 108 151 95 133 82 C 115 68 100 54 88 38 C 76 22 71 3 71 -18 C 71 -50 82 -75 105 -93 C 128 -111 158 -121 194 -121 C 224 -121 254 -114 282 -101 C 310 -87 337 -69 363 -47 L 411 -100 C 379 -128 345 -151 308 -167 C 271 -183 231 -192 187 -192 C 159 -192 132 -188 108 -180 C 84 -172 62 -161 44 -147 C 25 -133 10 -115 0 -94 C -10 -73 -16 -50 -16 -24 C -16 6 -9 31 3 53 C 16 74 33 93 53 110 C 73 126 94 141 118 155 C 141 169 163 183 183 197 C 203 211 221 227 236 243 C 250 259 259 279 261 301 L 263 314 L 329 314 Z" unicode="¿" />
<glyph horiz-adv-x="681" d="M 301 843 L 365 889 L 453 755 L 397 755 L 301 843 Z M 194 241 L 461 241 L 394 613 L 392 613 L 194 241 Z M 353 700 L 457 700 L 591 0 L 504 0 L 473 172 L 158 172 L 67 0 L -29 0 L 353 700 Z" unicode="À" />
<glyph horiz-adv-x="681" d="M 503 889 L 567 843 L 432 755 L 371 755 L 503 889 Z M 194 241 L 461 241 L 394 613 L 392 613 L 194 241 Z M 353 700 L 457 700 L 591 0 L 504 0 L 473 172 L 158 172 L 67 0 L -29 0 L 353 700 Z" unicode="Á" />
<glyph horiz-adv-x="681" d="M 390 870 L 473 870 L 575 755 L 521 755 L 427 823 L 425 823 L 308 755 L 245 755 L 390 870 Z M 194 241 L 461 241 L 394 613 L 392 613 L 194 241 Z M 353 700 L 457 700 L 591 0 L 504 0 L 473 172 L 158 172 L 67 0 L -29 0 L 353 700 Z" unicode="Â" />
<glyph horiz-adv-x="681" d="M 269 760 C 270 796 279 825 297 845 C 314 865 337 875 366 875 C 380 875 393 871 404 865 C 415 858 425 851 434 843 C 443 835 452 827 460 821 C 468 814 477 811 487 811 C 499 811 508 815 516 825 C 524 835 528 848 530 865 L 583 865 C 581 828 571 800 554 780 C 536 760 513 751 485 751 C 470 751 457 754 447 760 C 436 766 426 774 417 782 C 408 790 399 797 391 803 C 383 809 374 813 364 813 C 352 813 343 808 335 799 C 327 790 323 777 322 760 L 269 760 Z M 194 241 L 461 241 L 394 613 L 392 613 L 194 241 Z M 353 700 L 457 700 L 591 0 L 504 0 L 473 172 L 158 172 L 67 0 L -29 0 L 353 700 Z" unicode="Ã" />
<glyph horiz-adv-x="681" d="M 294 854 L 371 854 L 356 772 L 279 772 L 294 854 Z M 492 854 L 568 854 L 553 772 L 477 772 L 492 854 Z M 194 241 L 461 241 L 394 613 L 392 613 L 194 241 Z M 353 700 L 457 700 L 591 0 L 504 0 L 473 172 L 158 172 L 67 0 L -29 0 L 353 700 Z" unicode="Ä" />
<glyph horiz-adv-x="681" d="M 351 757 C 351 739 355 725 365 715 C 375 705 389 700 407 700 C 427 700 445 707 460 722 C 474 736 482 754 482 775 C 482 792 477 806 467 816 C 457 826 444 831 426 831 C 405 831 387 823 373 809 C 358 795 351 777 351 757 Z M 194 241 L 461 241 L 394 613 L 392 613 L 194 241 Z M 309 755 C 309 770 312 784 318 798 C 324 812 332 824 343 834 C 353 844 366 853 381 859 C 395 865 411 868 429 868 C 456 868 478 859 496 842 C 513 825 522 803 522 776 C 522 754 516 735 505 717 C 494 699 479 686 461 677 L 591 0 L 504 0 L 473 172 L 158 172 L 67 0 L -29 0 L 343 683 C 332 691 324 701 318 713 C 312 725 309 739 309 755 Z" unicode="Å" />
<glyph horiz-adv-x="1019" d="M 218 243 L 491 243 L 454 617 L 449 617 L 218 243 Z M 406 700 L 1015 700 L 1001 624 L 534 624 L 558 393 L 921 393 L 909 320 L 565 320 L 591 76 L 911 76 L 898 0 L 515 0 L 498 172 L 174 172 L 68 0 L -32 0 L 406 700 Z" unicode="Æ" />
<glyph horiz-adv-x="701" d="M 149 -185 C 181 -161 211 -135 239 -105 C 267 -75 288 -43 304 -9 C 266 -4 232 6 201 22 C 169 38 142 59 120 85 C 98 111 80 142 68 178 C 56 214 50 253 50 297 C 50 356 60 411 81 461 C 101 511 130 555 167 593 C 204 630 248 659 298 680 C 348 701 403 712 462 712 C 508 712 549 704 586 690 C 622 676 654 656 681 631 L 630 576 C 606 596 580 612 550 622 C 520 632 489 638 456 638 C 412 638 371 629 333 612 C 294 595 260 571 231 541 C 202 511 179 475 163 434 C 146 393 138 349 138 301 C 138 226 157 167 197 125 C 236 83 290 62 358 62 C 396 62 431 69 465 84 C 499 98 530 118 558 142 L 607 81 C 573 53 536 31 496 15 C 456 0 411 -10 363 -12 C 349 -52 330 -89 304 -123 C 278 -157 248 -189 212 -217 L 149 -185 Z" unicode="Ç" />
<glyph horiz-adv-x="626" d="M 284 843 L 348 889 L 436 755 L 380 755 L 284 843 Z M 147 700 L 622 700 L 609 624 L 221 624 L 179 392 L 529 392 L 516 321 L 167 321 L 123 76 L 518 76 L 505 0 L 24 0 L 147 700 Z" unicode="È" />
<glyph horiz-adv-x="626" d="M 483 889 L 547 843 L 412 755 L 351 755 L 483 889 Z M 147 700 L 622 700 L 609 624 L 221 624 L 179 392 L 529 392 L 516 321 L 167 321 L 123 76 L 518 76 L 505 0 L 24 0 L 147 700 Z" unicode="É" />
<glyph horiz-adv-x="626" d="M 375 870 L 458 870 L 560 755 L 506 755 L 412 823 L 410 823 L 293 755 L 230 755 L 375 870 Z M 147 700 L 622 700 L 609 624 L 221 624 L 179 392 L 529 392 L 516 321 L 167 321 L 123 76 L 518 76 L 505 0 L 24 0 L 147 700 Z" unicode="Ê" />
<glyph horiz-adv-x="626" d="M 275 854 L 352 854 L 337 772 L 260 772 L 275 854 Z M 473 854 L 549 854 L 534 772 L 458 772 L 473 854 Z M 147 700 L 622 700 L 609 624 L 221 624 L 179 392 L 529 392 L 516 321 L 167 321 L 123 76 L 518 76 L 505 0 L 24 0 L 147 700 Z" unicode="Ë" />
<glyph horiz-adv-x="250" d="M 83 843 L 147 889 L 235 755 L 179 755 L 83 843 Z M 147 700 L 233 700 L 110 0 L 24 0 L 147 700 Z" unicode="Ì" />
<glyph horiz-adv-x="250" d="M 288 889 L 352 843 L 217 755 L 156 755 L 288 889 Z M 147 700 L 233 700 L 110 0 L 24 0 L 147 700 Z" unicode="Í" />
<glyph horiz-adv-x="250" d="M 175 870 L 258 870 L 360 755 L 306 755 L 212 823 L 210 823 L 93 755 L 30 755 L 175 870 Z M 147 700 L 233 700 L 110 0 L 24 0 L 147 700 Z" unicode="Î" />
<glyph horiz-adv-x="250" d="M 78 854 L 155 854 L 140 772 L 63 772 L 78 854 Z M 276 854 L 352 854 L 337 772 L 261 772 L 276 854 Z M 147 700 L 233 700 L 110 0 L 24 0 L 147 700 Z" unicode="Ï" />
<glyph horiz-adv-x="749" d="M 28 381 L 130 381 L 186 700 L 386 700 C 435 700 479 693 519 680 C 558 667 591 648 619 624 C 646 599 667 568 682 532 C 696 496 704 454 704 407 C 704 351 695 298 677 248 C 659 198 633 155 597 119 C 561 82 515 53 461 32 C 406 10 341 0 267 0 L 63 0 L 120 323 L 17 323 L 28 381 Z M 280 72 C 335 72 384 80 426 98 C 468 115 503 139 531 169 C 559 199 580 234 594 274 C 608 314 616 356 616 402 C 616 476 596 533 558 571 C 519 609 460 628 380 628 L 260 628 L 216 381 L 416 381 L 407 323 L 205 323 L 161 72 L 280 72 Z" unicode="Ð" />
<glyph horiz-adv-x="715" d="M 279 760 C 280 796 289 825 307 845 C 324 865 347 875 376 875 C 390 875 403 871 414 865 C 425 858 435 851 444 843 C 453 835 462 827 470 821 C 478 814 487 811 497 811 C 509 811 518 815 526 825 C 534 835 538 848 540 865 L 593 865 C 591 828 581 800 564 780 C 546 760 523 751 495 751 C 480 751 467 754 457 760 C 446 766 436 774 427 782 C 418 790 409 797 401 803 C 393 809 384 813 374 813 C 362 813 353 808 345 799 C 337 790 333 777 332 760 L 279 760 Z M 147 700 L 224 700 L 514 130 L 615 700 L 698 700 L 574 0 L 496 0 L 207 569 L 107 0 L 24 0 L 147 700 Z" unicode="Ñ" />
<glyph horiz-adv-x="801" d="M 351 843 L 415 889 L 503 755 L 447 755 L 351 843 Z M 51 292 C 51 352 61 407 82 458 C 103 509 132 553 169 591 C 205 629 248 658 298 680 C 348 701 401 712 458 712 C 498 712 537 705 573 691 C 609 677 641 658 668 632 C 695 606 717 574 733 536 C 749 498 757 456 757 408 C 757 348 746 292 725 241 C 704 190 675 146 639 108 C 602 70 559 41 510 20 C 460 -1 407 -12 350 -12 C 309 -12 270 -5 234 8 C 198 22 166 42 139 68 C 112 94 91 125 75 163 C 59 201 51 244 51 292 Z M 139 300 C 139 262 144 229 155 199 C 165 169 180 144 199 124 C 218 104 241 88 268 78 C 294 67 324 62 357 62 C 398 62 437 70 475 87 C 512 103 545 127 574 157 C 603 187 626 222 643 264 C 660 305 669 350 669 400 C 669 437 663 470 653 500 C 642 530 627 555 608 575 C 589 595 566 611 540 622 C 513 632 484 638 452 638 C 411 638 372 629 334 613 C 296 596 262 573 234 543 C 205 513 182 477 165 436 C 147 394 139 349 139 300 Z" unicode="Ò" />
<glyph horiz-adv-x="801" d="M 557 889 L 621 843 L 486 755 L 425 755 L 557 889 Z M 51 292 C 51 352 61 407 82 458 C 103 509 132 553 169 591 C 205 629 248 658 298 680 C 348 701 401 712 458 712 C 498 712 537 705 573 691 C 609 677 641 658 668 632 C 695 606 717 574 733 536 C 749 498 757 456 757 408 C 757 348 746 292 725 241 C 704 190 675 146 639 108 C 602 70 559 41 510 20 C 460 -1 407 -12 350 -12 C 309 -12 270 -5 234 8 C 198 22 166 42 139 68 C 112 94 91 125 75 163 C 59 201 51 244 51 292 Z M 139 300 C 139 262 144 229 155 199 C 165 169 180 144 199 124 C 218 104 241 88 268 78 C 294 67 324 62 357 62 C 398 62 437 70 475 87 C 512 103 545 127 574 157 C 603 187 626 222 643 264 C 660 305 669 350 669 400 C 669 437 663 470 653 500 C 642 530 627 555 608 575 C 589 595 566 611 540 622 C 513 632 484 638 452 638 C 411 638 372 629 334 613 C 296 596 262 573 234 543 C 205 513 182 477 165 436 C 147 394 139 349 139 300 Z" unicode="Ó" />
<glyph horiz-adv-x="801" d="M 445 870 L 528 870 L 630 755 L 576 755 L 482 823 L 480 823 L 363 755 L 300 755 L 445 870 Z M 51 292 C 51 352 61 407 82 458 C 103 509 132 553 169 591 C 205 629 248 658 298 680 C 348 701 401 712 458 712 C 498 712 537 705 573 691 C 609 677 641 658 668 632 C 695 606 717 574 733 536 C 749 498 757 456 757 408 C 757 348 746 292 725 241 C 704 190 675 146 639 108 C 602 70 559 41 510 20 C 460 -1 407 -12 350 -12 C 309 -12 270 -5 234 8 C 198 22 166 42 139 68 C 112 94 91 125 75 163 C 59 201 51 244 51 292 Z M 139 300 C 139 262 144 229 155 199 C 165 169 180 144 199 124 C 218 104 241 88 268 78 C 294 67 324 62 357 62 C 398 62 437 70 475 87 C 512 103 545 127 574 157 C 603 187 626 222 643 264 C 660 305 669 350 669 400 C 669 437 663 470 653 500 C 642 530 627 555 608 575 C 589 595 566 611 540 622 C 513 632 484 638 452 638 C 411 638 372 629 334 613 C 296 596 262 573 234 543 C 205 513 182 477 165 436 C 147 394 139 349 139 300 Z" unicode="Ô" />
<glyph horiz-adv-x="801" d="M 321 760 C 322 796 331 825 349 845 C 366 865 389 875 418 875 C 432 875 445 871 456 865 C 467 858 477 851 486 843 C 495 835 504 827 512 821 C 520 814 529 811 539 811 C 551 811 560 815 568 825 C 576 835 580 848 582 865 L 635 865 C 633 828 623 800 606 780 C 588 760 565 751 537 751 C 522 751 509 754 499 760 C 488 766 478 774 469 782 C 460 790 451 797 443 803 C 435 809 426 813 416 813 C 404 813 395 808 387 799 C 379 790 375 777 374 760 L 321 760 Z M 51 292 C 51 352 61 407 82 458 C 103 509 132 553 169 591 C 205 629 248 658 298 680 C 348 701 401 712 458 712 C 498 712 537 705 573 691 C 609 677 641 658 668 632 C 695 606 717 574 733 536 C 749 498 757 456 757 408 C 757 348 746 292 725 241 C 704 190 675 146 639 108 C 602 70 559 41 510 20 C 460 -1 407 -12 350 -12 C 309 -12 270 -5 234 8 C 198 22 166 42 139 68 C 112 94 91 125 75 163 C 59 201 51 244 51 292 Z M 139 300 C 139 262 144 229 155 199 C 165 169 180 144 199 124 C 218 104 241 88 268 78 C 294 67 324 62 357 62 C 398 62 437 70 475 87 C 512 103 545 127 574 157 C 603 187 626 222 643 264 C 660 305 669 350 669 400 C 669 437 663 470 653 500 C 642 530 627 555 608 575 C 589 595 566 611 540 622 C 513 632 484 638 452 638 C 411 638 372 629 334 613 C 296 596 262 573 234 543 C 205 513 182 477 165 436 C 147 394 139 349 139 300 Z" unicode="Õ" />
<glyph horiz-adv-x="801" d="M 352 854 L 429 854 L 414 772 L 337 772 L 352 854 Z M 550 854 L 626 854 L 611 772 L 535 772 L 550 854 Z M 51 292 C 51 352 61 407 82 458 C 103 509 132 553 169 591 C 205 629 248 658 298 680 C 348 701 401 712 458 712 C 498 712 537 705 573 691 C 609 677 641 658 668 632 C 695 606 717 574 733 536 C 749 498 757 456 757 408 C 757 348 746 292 725 241 C 704 190 675 146 639 108 C 602 70 559 41 510 20 C 460 -1 407 -12 350 -12 C 309 -12 270 -5 234 8 C 198 22 166 42 139 68 C 112 94 91 125 75 163 C 59 201 51 244 51 292 Z M 139 300 C 139 262 144 229 155 199 C 165 169 180 144 199 124 C 218 104 241 88 268 78 C 294 67 324 62 357 62 C 398 62 437 70 475 87 C 512 103 545 127 574 157 C 603 187 626 222 643 264 C 660 305 669 350 669 400 C 669 437 663 470 653 500 C 642 530 627 555 608 575 C 589 595 566 611 540 622 C 513 632 484 638 452 638 C 411 638 372 629 334 613 C 296 596 262 573 234 543 C 205 513 182 477 165 436 C 147 394 139 349 139 300 Z" unicode="Ö" />
<glyph horiz-adv-x="583" d="M 243 355 L 100 539 L 158 586 L 299 402 L 501 587 L 549 532 L 344 347 L 486 164 L 427 118 L 289 299 L 85 115 L 36 170 L 243 355 Z" unicode="×" />
<glyph horiz-adv-x="801" d="M 139 300 C 139 268 142 240 149 215 C 156 189 166 167 180 148 L 591 592 C 553 622 506 638 452 638 C 411 638 372 629 334 613 C 296 596 262 573 234 543 C 205 513 182 477 165 436 C 147 394 139 349 139 300 Z M 669 400 C 669 432 665 461 657 487 C 649 513 639 536 625 556 L 212 111 C 250 78 298 62 357 62 C 398 62 437 70 475 87 C 512 103 545 127 574 157 C 603 187 626 222 643 264 C 660 305 669 350 669 400 Z M 51 292 C 51 352 61 407 82 458 C 103 509 132 553 169 591 C 205 629 248 658 298 680 C 348 701 401 712 458 712 C 493 712 526 707 558 697 C 590 687 618 672 644 653 L 722 738 L 766 699 L 686 614 C 708 588 725 558 738 524 C 750 489 757 450 757 408 C 757 348 746 292 725 241 C 704 190 675 146 639 108 C 602 70 559 41 510 20 C 460 -1 407 -12 350 -12 C 314 -12 279 -6 247 3 C 214 13 185 29 159 50 L 79 -37 L 37 0 L 119 89 C 97 114 81 144 69 178 C 57 212 51 250 51 292 Z" unicode="Ø" />
<glyph horiz-adv-x="707" d="M 312 843 L 376 889 L 464 755 L 408 755 L 312 843 Z M 145 700 L 231 700 L 154 271 C 152 260 150 248 149 236 C 148 224 148 213 148 203 C 148 156 162 121 191 97 C 220 73 259 62 307 62 C 333 62 358 66 382 74 C 406 82 427 94 447 111 C 467 127 484 148 498 174 C 512 199 523 229 529 263 L 605 700 L 691 700 L 614 259 C 606 214 592 175 573 141 C 553 107 530 78 502 56 C 474 33 442 16 406 5 C 370 -6 332 -12 292 -12 C 258 -12 228 -7 200 2 C 172 11 147 25 127 43 C 106 61 90 83 79 109 C 67 135 62 166 62 200 C 62 212 62 224 64 238 C 66 252 67 264 69 276 L 145 700 Z" unicode="Ù" />
<glyph horiz-adv-x="707" d="M 511 889 L 575 843 L 440 755 L 379 755 L 511 889 Z M 145 700 L 231 700 L 154 271 C 152 260 150 248 149 236 C 148 224 148 213 148 203 C 148 156 162 121 191 97 C 220 73 259 62 307 62 C 333 62 358 66 382 74 C 406 82 427 94 447 111 C 467 127 484 148 498 174 C 512 199 523 229 529 263 L 605 700 L 691 700 L 614 259 C 606 214 592 175 573 141 C 553 107 530 78 502 56 C 474 33 442 16 406 5 C 370 -6 332 -12 292 -12 C 258 -12 228 -7 200 2 C 172 11 147 25 127 43 C 106 61 90 83 79 109 C 67 135 62 166 62 200 C 62 212 62 224 64 238 C 66 252 67 264 69 276 L 145 700 Z" unicode="Ú" />
<glyph horiz-adv-x="707" d="M 403 870 L 486 870 L 588 755 L 534 755 L 440 823 L 438 823 L 321 755 L 258 755 L 403 870 Z M 145 700 L 231 700 L 154 271 C 152 260 150 248 149 236 C 148 224 148 213 148 203 C 148 156 162 121 191 97 C 220 73 259 62 307 62 C 333 62 358 66 382 74 C 406 82 427 94 447 111 C 467 127 484 148 498 174 C 512 199 523 229 529 263 L 605 700 L 691 700 L 614 259 C 606 214 592 175 573 141 C 553 107 530 78 502 56 C 474 33 442 16 406 5 C 370 -6 332 -12 292 -12 C 258 -12 228 -7 200 2 C 172 11 147 25 127 43 C 106 61 90 83 79 109 C 67 135 62 166 62 200 C 62 212 62 224 64 238 C 66 252 67 264 69 276 L 145 700 Z" unicode="Û" />
<glyph horiz-adv-x="707" d="M 307 854 L 384 854 L 369 772 L 292 772 L 307 854 Z M 505 854 L 581 854 L 566 772 L 490 772 L 505 854 Z M 145 700 L 231 700 L 154 271 C 152 260 150 248 149 236 C 148 224 148 213 148 203 C 148 156 162 121 191 97 C 220 73 259 62 307 62 C 333 62 358 66 382 74 C 406 82 427 94 447 111 C 467 127 484 148 498 174 C 512 199 523 229 529 263 L 605 700 L 691 700 L 614 259 C 606 214 592 175 573 141 C 553 107 530 78 502 56 C 474 33 442 16 406 5 C 370 -6 332 -12 292 -12 C 258 -12 228 -7 200 2 C 172 11 147 25 127 43 C 106 61 90 83 79 109 C 67 135 62 166 62 200 C 62 212 62 224 64 238 C 66 252 67 264 69 276 L 145 700 Z" unicode="Ü" />
<glyph horiz-adv-x="658" d="M 476 889 L 540 843 L 405 755 L 344 755 L 476 889 Z M 276 285 L 91 700 L 184 700 L 330 368 L 331 368 L 591 700 L 695 700 L 362 284 L 312 0 L 226 0 L 276 285 Z" unicode="Ý" />
<glyph horiz-adv-x="652" d="M 147 700 L 233 700 L 212 573 L 378 573 C 416 573 449 568 477 558 C 505 548 529 534 547 517 C 565 500 579 480 589 457 C 598 433 603 409 603 383 C 603 351 597 320 586 290 C 575 260 558 233 534 210 C 510 186 479 167 441 153 C 403 139 357 132 303 132 L 133 132 L 110 0 L 23 0 L 147 700 Z M 313 203 C 347 203 376 207 402 217 C 427 227 448 240 465 256 C 482 272 495 291 503 312 C 511 333 516 355 516 378 C 516 416 504 446 482 468 C 459 490 420 502 366 502 L 199 502 L 146 203 L 313 203 Z" unicode="Þ" />
<glyph horiz-adv-x="627" d="M 116 546 C 128 616 158 670 204 707 C 250 743 308 762 379 762 C 407 762 433 757 457 749 C 481 740 501 728 519 712 C 537 696 551 678 561 656 C 571 634 576 609 576 582 C 576 534 561 492 533 458 C 505 424 466 400 416 387 C 464 377 499 357 523 327 C 547 297 559 261 559 219 C 559 184 552 152 538 124 C 524 96 506 72 482 52 C 458 32 431 16 399 6 C 367 -4 334 -10 299 -10 C 277 -10 256 -8 237 -5 C 218 -1 201 2 185 8 L 210 74 C 222 69 236 65 252 62 C 267 59 283 58 299 58 C 323 58 345 61 367 69 C 389 77 408 88 424 102 C 440 116 452 134 462 154 C 472 174 477 197 477 222 C 477 262 463 293 437 316 C 410 339 372 351 322 351 L 279 351 L 292 420 L 320 420 C 348 420 372 424 394 432 C 416 440 434 452 448 467 C 462 481 473 498 481 518 C 489 537 493 558 493 580 C 493 617 481 646 459 666 C 437 686 406 697 368 697 C 326 697 289 683 257 656 C 225 629 205 591 196 541 L 101 0 L 19 0 L 116 546 Z" unicode="ß" />
<glyph horiz-adv-x="563" d="M 205 707 L 267 751 L 373 574 L 317 574 L 205 707 Z M 437 406 C 418 424 398 439 378 449 C 357 459 333 465 305 465 C 278 465 253 458 230 445 C 207 432 187 414 171 391 C 154 367 141 340 131 309 C 121 277 117 243 117 206 C 117 156 126 118 146 92 C 166 66 193 54 228 54 C 259 54 288 64 316 86 C 343 107 370 138 397 178 L 437 406 Z M 211 -12 C 185 -12 161 -7 139 2 C 117 12 99 26 83 44 C 67 62 54 84 46 110 C 37 136 33 166 33 200 C 33 247 39 291 53 332 C 67 372 85 407 109 437 C 133 466 161 489 193 506 C 225 522 261 531 299 531 C 333 531 363 524 389 510 C 415 496 435 479 451 461 L 466 519 L 539 519 L 470 127 C 468 121 467 116 467 110 C 466 104 466 99 466 96 C 466 71 480 59 509 59 L 499 -1 C 464 -1 437 5 418 18 C 399 31 389 53 389 85 C 337 20 278 -12 211 -12 Z" unicode="à" />
<glyph horiz-adv-x="563" d="M 442 751 L 500 706 L 335 574 L 278 574 L 442 751 Z M 437 406 C 418 424 398 439 378 449 C 357 459 333 465 305 465 C 278 465 253 458 230 445 C 207 432 187 414 171 391 C 154 367 141 340 131 309 C 121 277 117 243 117 206 C 117 156 126 118 146 92 C 166 66 193 54 228 54 C 259 54 288 64 316 86 C 343 107 370 138 397 178 L 437 406 Z M 211 -12 C 185 -12 161 -7 139 2 C 117 12 99 26 83 44 C 67 62 54 84 46 110 C 37 136 33 166 33 200 C 33 247 39 291 53 332 C 67 372 85 407 109 437 C 133 466 161 489 193 506 C 225 522 261 531 299 531 C 333 531 363 524 389 510 C 415 496 435 479 451 461 L 466 519 L 539 519 L 470 127 C 468 121 467 116 467 110 C 466 104 466 99 466 96 C 466 71 480 59 509 59 L 499 -1 C 464 -1 437 5 418 18 C 399 31 389 53 389 85 C 337 20 278 -12 211 -12 Z" unicode="á" />
<glyph horiz-adv-x="563" d="M 313 732 L 398 732 L 494 574 L 441 574 L 353 681 L 351 681 L 225 574 L 160 574 L 313 732 Z M 437 406 C 418 424 398 439 378 449 C 357 459 333 465 305 465 C 278 465 253 458 230 445 C 207 432 187 414 171 391 C 154 367 141 340 131 309 C 121 277 117 243 117 206 C 117 156 126 118 146 92 C 166 66 193 54 228 54 C 259 54 288 64 316 86 C 343 107 370 138 397 178 L 437 406 Z M 211 -12 C 185 -12 161 -7 139 2 C 117 12 99 26 83 44 C 67 62 54 84 46 110 C 37 136 33 166 33 200 C 33 247 39 291 53 332 C 67 372 85 407 109 437 C 133 466 161 489 193 506 C 225 522 261 531 299 531 C 333 531 363 524 389 510 C 415 496 435 479 451 461 L 466 519 L 539 519 L 470 127 C 468 121 467 116 467 110 C 466 104 466 99 466 96 C 466 71 480 59 509 59 L 499 -1 C 464 -1 437 5 418 18 C 399 31 389 53 389 85 C 337 20 278 -12 211 -12 Z" unicode="â" />
<glyph horiz-adv-x="563" d="M 187 600 C 189 636 198 665 215 685 C 232 705 255 715 284 715 C 298 715 311 711 322 705 C 332 698 342 691 351 683 C 360 675 369 668 377 662 C 385 655 395 652 405 652 C 417 652 426 656 434 666 C 441 675 445 688 447 706 L 500 706 C 498 670 488 641 471 621 C 454 601 431 591 402 591 C 387 591 374 594 364 601 C 354 607 344 614 335 622 C 326 630 318 637 310 644 C 302 650 293 654 283 654 C 271 654 261 649 253 640 C 245 630 241 617 240 600 L 187 600 Z M 437 406 C 418 424 398 439 378 449 C 357 459 333 465 305 465 C 278 465 253 458 230 445 C 207 432 187 414 171 391 C 154 367 141 340 131 309 C 121 277 117 243 117 206 C 117 156 126 118 146 92 C 166 66 193 54 228 54 C 259 54 288 64 316 86 C 343 107 370 138 397 178 L 437 406 Z M 211 -12 C 185 -12 161 -7 139 2 C 117 12 99 26 83 44 C 67 62 54 84 46 110 C 37 136 33 166 33 200 C 33 247 39 291 53 332 C 67 372 85 407 109 437 C 133 466 161 489 193 506 C 225 522 261 531 299 531 C 333 531 363 524 389 510 C 415 496 435 479 451 461 L 466 519 L 539 519 L 470 127 C 468 121 467 116 467 110 C 466 104 466 99 466 96 C 466 71 480 59 509 59 L 499 -1 C 464 -1 437 5 418 18 C 399 31 389 53 389 85 C 337 20 278 -12 211 -12 Z" unicode="ã" />
<glyph horiz-adv-x="563" d="M 217 694 L 294 694 L 280 612 L 203 612 L 217 694 Z M 407 694 L 484 694 L 469 612 L 392 612 L 407 694 Z M 437 406 C 418 424 398 439 378 449 C 357 459 333 465 305 465 C 278 465 253 458 230 445 C 207 432 187 414 171 391 C 154 367 141 340 131 309 C 121 277 117 243 117 206 C 117 156 126 118 146 92 C 166 66 193 54 228 54 C 259 54 288 64 316 86 C 343 107 370 138 397 178 L 437 406 Z M 211 -12 C 185 -12 161 -7 139 2 C 117 12 99 26 83 44 C 67 62 54 84 46 110 C 37 136 33 166 33 200 C 33 247 39 291 53 332 C 67 372 85 407 109 437 C 133 466 161 489 193 506 C 225 522 261 531 299 531 C 333 531 363 524 389 510 C 415 496 435 479 451 461 L 466 519 L 539 519 L 470 127 C 468 121 467 116 467 110 C 466 104 466 99 466 96 C 466 71 480 59 509 59 L 499 -1 C 464 -1 437 5 418 18 C 399 31 389 53 389 85 C 337 20 278 -12 211 -12 Z" unicode="ä" />
<glyph horiz-adv-x="563" d="M 234 660 C 234 692 245 719 267 741 C 289 763 318 774 353 774 C 379 774 401 765 419 749 C 437 732 447 710 447 684 C 447 652 435 625 413 603 C 391 581 362 570 327 570 C 301 570 279 578 261 595 C 243 612 234 634 234 660 Z M 276 663 C 276 646 280 632 290 622 C 299 612 313 607 331 607 C 350 607 367 614 383 628 C 398 642 406 660 406 682 C 406 698 401 712 391 722 C 381 732 367 737 349 737 C 329 737 312 729 298 715 C 283 701 276 683 276 663 Z M 437 406 C 418 424 398 439 378 449 C 357 459 333 465 305 465 C 278 465 253 458 230 445 C 207 432 187 414 171 391 C 154 367 141 340 131 309 C 121 277 117 243 117 206 C 117 156 126 118 146 92 C 166 66 193 54 228 54 C 259 54 288 64 316 86 C 343 107 370 138 397 178 L 437 406 Z M 211 -12 C 185 -12 161 -7 139 2 C 117 12 99 26 83 44 C 67 62 54 84 46 110 C 37 136 33 166 33 200 C 33 247 39 291 53 332 C 67 372 85 407 109 437 C 133 466 161 489 193 506 C 225 522 261 531 299 531 C 333 531 363 524 389 510 C 415 496 435 479 451 461 L 466 519 L 539 519 L 470 127 C 468 121 467 116 467 110 C 466 104 466 99 466 96 C 466 71 480 59 509 59 L 499 -1 C 464 -1 437 5 418 18 C 399 31 389 53 389 85 C 337 20 278 -12 211 -12 Z" unicode="å" />
<glyph horiz-adv-x="934" d="M 214 -12 C 187 -12 163 -7 141 2 C 119 12 100 26 84 44 C 68 62 55 84 46 110 C 37 136 33 166 33 200 C 33 247 39 291 53 332 C 67 372 85 407 109 437 C 133 466 161 489 193 506 C 225 522 261 531 299 531 C 371 531 437 500 495 439 L 490 420 C 515 454 547 481 587 501 C 626 521 670 531 719 531 C 745 531 768 527 789 520 C 810 513 828 504 843 492 C 857 480 868 466 876 450 C 884 434 888 417 888 399 C 888 350 860 313 806 288 C 751 262 673 250 572 250 L 496 250 C 494 244 493 239 493 233 C 493 227 493 220 493 214 C 493 163 504 124 527 97 C 549 69 584 56 632 56 C 660 56 686 60 712 70 C 738 79 761 91 783 106 L 818 48 C 792 30 762 15 729 4 C 695 -6 659 -12 621 -12 C 571 -12 530 0 498 24 C 466 48 444 83 432 128 C 405 85 372 51 333 26 C 293 0 254 -12 214 -12 Z M 711 467 C 667 467 626 453 589 425 C 551 397 524 359 508 311 L 577 311 C 658 311 716 319 752 335 C 788 351 806 373 806 400 C 806 418 797 433 781 447 C 764 460 741 467 711 467 Z M 228 54 C 260 54 291 66 321 90 C 351 114 378 148 402 192 L 406 217 C 406 221 406 228 408 240 C 409 251 410 259 412 263 L 437 405 C 417 425 397 440 376 450 C 354 460 331 465 305 465 C 278 465 253 458 230 445 C 207 432 187 414 171 391 C 154 367 141 340 131 309 C 121 277 117 243 117 206 C 117 156 126 118 146 92 C 166 66 193 54 228 54 Z" unicode="æ" />
<glyph horiz-adv-x="512" d="M 42 -185 C 74 -161 105 -135 133 -105 C 161 -75 182 -42 197 -8 C 173 -3 151 5 131 17 C 111 29 93 44 78 63 C 63 81 51 103 43 129 C 35 154 31 182 31 214 C 31 260 38 302 53 341 C 68 379 89 413 116 441 C 142 469 173 491 209 507 C 245 523 283 531 325 531 C 361 531 392 525 418 513 C 444 501 466 487 482 472 L 435 421 C 421 432 405 442 386 450 C 366 458 343 462 317 462 C 290 462 264 456 240 444 C 216 432 194 415 176 394 C 157 373 142 348 132 319 C 121 289 116 257 116 222 C 116 170 127 129 151 100 C 175 71 207 57 249 57 C 277 57 301 61 322 71 C 343 80 363 92 383 108 L 426 52 C 402 33 376 18 350 7 C 323 -4 292 -10 256 -12 C 242 -52 223 -89 197 -123 C 171 -157 141 -189 105 -217 L 42 -185 Z" unicode="ç" />
<glyph horiz-adv-x="557" d="M 205 707 L 267 751 L 373 574 L 317 574 L 205 707 Z M 31 211 C 31 256 38 298 54 337 C 70 376 91 410 119 439 C 147 467 180 490 218 506 C 256 522 297 531 342 531 C 368 531 391 527 412 520 C 433 513 451 504 466 492 C 480 480 492 466 500 450 C 508 434 512 417 512 399 C 512 350 484 313 429 288 C 374 262 296 250 195 250 L 118 250 C 116 244 116 238 116 232 C 116 226 116 220 116 214 C 116 163 127 124 150 97 C 172 69 207 56 255 56 C 283 56 310 60 336 70 C 362 79 386 91 408 105 L 441 48 C 415 30 385 15 352 4 C 318 -6 282 -12 244 -12 C 212 -12 182 -6 156 3 C 130 13 107 28 89 48 C 70 67 56 90 46 118 C 36 145 31 176 31 211 Z M 334 467 C 290 467 249 453 212 425 C 175 397 148 359 131 311 L 200 311 C 281 311 339 319 375 335 C 411 351 429 373 429 400 C 429 418 420 433 404 447 C 388 460 364 467 334 467 Z" unicode="è" />
<glyph horiz-adv-x="557" d="M 450 751 L 508 706 L 343 574 L 286 574 L 450 751 Z M 31 211 C 31 256 38 298 54 337 C 70 376 91 410 119 439 C 147 467 180 490 218 506 C 256 522 297 531 342 531 C 368 531 391 527 412 520 C 433 513 451 504 466 492 C 480 480 492 466 500 450 C 508 434 512 417 512 399 C 512 350 484 313 429 288 C 374 262 296 250 195 250 L 118 250 C 116 244 116 238 116 232 C 116 226 116 220 116 214 C 116 163 127 124 150 97 C 172 69 207 56 255 56 C 283 56 310 60 336 70 C 362 79 386 91 408 105 L 441 48 C 415 30 385 15 352 4 C 318 -6 282 -12 244 -12 C 212 -12 182 -6 156 3 C 130 13 107 28 89 48 C 70 67 56 90 46 118 C 36 145 31 176 31 211 Z M 334 467 C 290 467 249 453 212 425 C 175 397 148 359 131 311 L 200 311 C 281 311 339 319 375 335 C 411 351 429 373 429 400 C 429 418 420 433 404 447 C 388 460 364 467 334 467 Z" unicode="é" />
<glyph horiz-adv-x="557" d="M 318 732 L 403 732 L 499 574 L 446 574 L 358 681 L 356 681 L 230 574 L 165 574 L 318 732 Z M 31 211 C 31 256 38 298 54 337 C 70 376 91 410 119 439 C 147 467 180 490 218 506 C 256 522 297 531 342 531 C 368 531 391 527 412 520 C 433 513 451 504 466 492 C 480 480 492 466 500 450 C 508 434 512 417 512 399 C 512 350 484 313 429 288 C 374 262 296 250 195 250 L 118 250 C 116 244 116 238 116 232 C 116 226 116 220 116 214 C 116 163 127 124 150 97 C 172 69 207 56 255 56 C 283 56 310 60 336 70 C 362 79 386 91 408 105 L 441 48 C 415 30 385 15 352 4 C 318 -6 282 -12 244 -12 C 212 -12 182 -6 156 3 C 130 13 107 28 89 48 C 70 67 56 90 46 118 C 36 145 31 176 31 211 Z M 334 467 C 290 467 249 453 212 425 C 175 397 148 359 131 311 L 200 311 C 281 311 339 319 375 335 C 411 351 429 373 429 400 C 429 418 420 433 404 447 C 388 460 364 467 334 467 Z" unicode="ê" />
<glyph horiz-adv-x="557" d="M 411 694 L 488 694 L 473 612 L 396 612 L 411 694 Z M 221 694 L 298 694 L 284 612 L 207 612 L 221 694 Z M 31 211 C 31 256 38 298 54 337 C 70 376 91 410 119 439 C 147 467 180 490 218 506 C 256 522 297 531 342 531 C 368 531 391 527 412 520 C 433 513 451 504 466 492 C 480 480 492 466 500 450 C 508 434 512 417 512 399 C 512 350 484 313 429 288 C 374 262 296 250 195 250 L 118 250 C 116 244 116 238 116 232 C 116 226 116 220 116 214 C 116 163 127 124 150 97 C 172 69 207 56 255 56 C 283 56 310 60 336 70 C 362 79 386 91 408 105 L 441 48 C 415 30 385 15 352 4 C 318 -6 282 -12 244 -12 C 212 -12 182 -6 156 3 C 130 13 107 28 89 48 C 70 67 56 90 46 118 C 36 145 31 176 31 211 Z M 334 467 C 290 467 249 453 212 425 C 175 397 148 359 131 311 L 200 311 C 281 311 339 319 375 335 C 411 351 429 373 429 400 C 429 418 420 433 404 447 C 388 460 364 467 334 467 Z" unicode="ë" />
<glyph horiz-adv-x="241" d="M 34 707 L 96 751 L 202 574 L 146 574 L 34 707 Z M 112 516 L 194 516 L 104 0 L 21 0 L 112 516 Z" unicode="ì" />
<glyph horiz-adv-x="241" d="M 279 751 L 337 706 L 172 574 L 115 574 L 279 751 Z M 112 516 L 194 516 L 104 0 L 21 0 L 112 516 Z" unicode="í" />
<glyph horiz-adv-x="241" d="M 144 732 L 229 732 L 325 574 L 272 574 L 184 681 L 182 681 L 56 574 L -9 574 L 144 732 Z M 112 516 L 194 516 L 104 0 L 21 0 L 112 516 Z" unicode="î" />
<glyph horiz-adv-x="241" d="M 48 694 L 125 694 L 111 612 L 34 612 L 48 694 Z M 238 694 L 315 694 L 300 612 L 223 612 L 238 694 Z M 112 516 L 194 516 L 104 0 L 21 0 L 112 516 Z" unicode="ï" />
<glyph horiz-adv-x="576" d="M 248 -12 C 218 -12 189 -7 162 3 C 135 13 112 27 92 47 C 72 67 56 91 44 120 C 32 148 26 181 26 219 C 26 257 32 294 45 331 C 57 368 75 401 99 430 C 122 459 150 482 183 500 C 215 518 251 527 291 527 C 314 527 337 522 361 513 C 385 503 407 488 427 467 C 419 492 408 517 395 541 C 381 565 366 589 349 614 L 222 575 L 207 627 L 316 659 C 304 674 291 689 278 705 C 265 721 252 737 238 755 L 329 755 C 350 730 370 705 389 680 L 495 712 L 509 660 L 422 635 C 452 589 476 543 494 495 C 512 447 522 395 522 339 C 522 291 515 245 501 203 C 487 160 469 123 445 91 C 421 59 392 33 358 15 C 324 -2 288 -12 248 -12 Z M 246 54 C 273 54 298 61 322 75 C 346 89 366 109 384 135 C 401 160 415 191 425 227 C 435 263 441 302 441 345 C 441 349 441 354 441 359 C 441 363 440 368 440 374 C 418 407 394 430 369 443 C 343 455 320 462 300 462 C 272 462 246 455 223 441 C 199 427 179 408 163 385 C 146 362 133 336 124 308 C 114 279 110 250 110 220 C 110 191 114 166 122 145 C 130 124 141 107 154 94 C 167 80 182 70 198 64 C 214 57 230 54 246 54 Z" unicode="ð" />
<glyph horiz-adv-x="574" d="M 191 600 C 193 636 202 665 219 685 C 236 705 259 715 288 715 C 302 715 315 711 326 705 C 336 698 346 691 355 683 C 364 675 373 668 381 662 C 389 655 399 652 409 652 C 421 652 430 656 438 666 C 445 675 449 688 451 706 L 504 706 C 502 670 492 641 475 621 C 458 601 435 591 406 591 C 391 591 378 594 368 601 C 358 607 348 614 339 622 C 330 630 322 637 314 644 C 306 650 297 654 287 654 C 275 654 265 649 257 640 C 249 630 245 617 244 600 L 191 600 Z M 414 334 C 415 342 416 352 418 364 C 420 376 421 386 421 396 C 421 416 415 432 405 445 C 394 458 375 465 349 465 C 315 465 282 452 251 428 C 219 404 188 370 158 326 L 100 0 L 18 0 L 108 519 L 177 519 L 168 414 C 192 445 221 472 255 495 C 289 518 327 530 370 530 C 414 530 447 518 470 494 C 492 470 504 440 504 404 C 504 392 503 379 501 363 C 499 347 497 334 495 323 L 437 0 L 355 0 L 414 334 Z" unicode="ñ" />
<glyph horiz-adv-x="595" d="M 209 707 L 271 751 L 377 574 L 321 574 L 209 707 Z M 245 -12 C 213 -12 185 -6 159 3 C 133 13 110 28 92 48 C 73 68 58 92 48 120 C 38 148 33 180 33 216 C 33 261 40 303 55 341 C 70 379 91 413 117 441 C 143 469 175 491 211 507 C 247 523 285 531 327 531 C 359 531 388 525 414 515 C 440 505 462 490 481 470 C 499 450 514 426 524 398 C 534 370 540 338 540 303 C 540 257 532 215 517 177 C 502 138 481 105 455 77 C 428 49 397 27 361 11 C 325 -4 286 -12 245 -12 Z M 253 54 C 280 54 306 60 331 73 C 355 86 377 104 396 126 C 414 148 429 175 440 205 C 450 235 456 268 456 302 C 456 355 444 395 420 423 C 396 451 363 465 320 465 C 292 465 266 458 242 445 C 217 432 195 414 177 392 C 158 370 143 343 132 313 C 121 283 116 251 116 217 C 116 163 127 123 151 95 C 175 67 209 54 253 54 Z" unicode="ò" />
<glyph horiz-adv-x="595" d="M 449 751 L 507 706 L 342 574 L 285 574 L 449 751 Z M 245 -12 C 213 -12 185 -6 159 3 C 133 13 110 28 92 48 C 73 68 58 92 48 120 C 38 148 33 180 33 216 C 33 261 40 303 55 341 C 70 379 91 413 117 441 C 143 469 175 491 211 507 C 247 523 285 531 327 531 C 359 531 388 525 414 515 C 440 505 462 490 481 470 C 499 450 514 426 524 398 C 534 370 540 338 540 303 C 540 257 532 215 517 177 C 502 138 481 105 455 77 C 428 49 397 27 361 11 C 325 -4 286 -12 245 -12 Z M 253 54 C 280 54 306 60 331 73 C 355 86 377 104 396 126 C 414 148 429 175 440 205 C 450 235 456 268 456 302 C 456 355 444 395 420 423 C 396 451 363 465 320 465 C 292 465 266 458 242 445 C 217 432 195 414 177 392 C 158 370 143 343 132 313 C 121 283 116 251 116 217 C 116 163 127 123 151 95 C 175 67 209 54 253 54 Z" unicode="ó" />
<glyph horiz-adv-x="595" d="M 317 732 L 402 732 L 498 574 L 445 574 L 357 681 L 355 681 L 229 574 L 164 574 L 317 732 Z M 245 -12 C 213 -12 185 -6 159 3 C 133 13 110 28 92 48 C 73 68 58 92 48 120 C 38 148 33 180 33 216 C 33 261 40 303 55 341 C 70 379 91 413 117 441 C 143 469 175 491 211 507 C 247 523 285 531 327 531 C 359 531 388 525 414 515 C 440 505 462 490 481 470 C 499 450 514 426 524 398 C 534 370 540 338 540 303 C 540 257 532 215 517 177 C 502 138 481 105 455 77 C 428 49 397 27 361 11 C 325 -4 286 -12 245 -12 Z M 253 54 C 280 54 306 60 331 73 C 355 86 377 104 396 126 C 414 148 429 175 440 205 C 450 235 456 268 456 302 C 456 355 444 395 420 423 C 396 451 363 465 320 465 C 292 465 266 458 242 445 C 217 432 195 414 177 392 C 158 370 143 343 132 313 C 121 283 116 251 116 217 C 116 163 127 123 151 95 C 175 67 209 54 253 54 Z" unicode="ô" />
<glyph horiz-adv-x="595" d="M 194 600 C 196 636 205 665 222 685 C 239 705 262 715 291 715 C 305 715 318 711 329 705 C 339 698 349 691 358 683 C 367 675 376 668 384 662 C 392 655 402 652 412 652 C 424 652 433 656 441 666 C 448 675 452 688 454 706 L 507 706 C 505 670 495 641 478 621 C 461 601 438 591 409 591 C 394 591 381 594 371 601 C 361 607 351 614 342 622 C 333 630 325 637 317 644 C 309 650 300 654 290 654 C 278 654 268 649 260 640 C 252 630 248 617 247 600 L 194 600 Z M 245 -12 C 213 -12 185 -6 159 3 C 133 13 110 28 92 48 C 73 68 58 92 48 120 C 38 148 33 180 33 216 C 33 261 40 303 55 341 C 70 379 91 413 117 441 C 143 469 175 491 211 507 C 247 523 285 531 327 531 C 359 531 388 525 414 515 C 440 505 462 490 481 470 C 499 450 514 426 524 398 C 534 370 540 338 540 303 C 540 257 532 215 517 177 C 502 138 481 105 455 77 C 428 49 397 27 361 11 C 325 -4 286 -12 245 -12 Z M 253 54 C 280 54 306 60 331 73 C 355 86 377 104 396 126 C 414 148 429 175 440 205 C 450 235 456 268 456 302 C 456 355 444 395 420 423 C 396 451 363 465 320 465 C 292 465 266 458 242 445 C 217 432 195 414 177 392 C 158 370 143 343 132 313 C 121 283 116 251 116 217 C 116 163 127 123 151 95 C 175 67 209 54 253 54 Z" unicode="õ" />
<glyph horiz-adv-x="595" d="M 223 694 L 300 694 L 286 612 L 209 612 L 223 694 Z M 413 694 L 490 694 L 475 612 L 398 612 L 413 694 Z M 245 -12 C 213 -12 185 -6 159 3 C 133 13 110 28 92 48 C 73 68 58 92 48 120 C 38 148 33 180 33 216 C 33 261 40 303 55 341 C 70 379 91 413 117 441 C 143 469 175 491 211 507 C 247 523 285 531 327 531 C 359 531 388 525 414 515 C 440 505 462 490 481 470 C 499 450 514 426 524 398 C 534 370 540 338 540 303 C 540 257 532 215 517 177 C 502 138 481 105 455 77 C 428 49 397 27 361 11 C 325 -4 286 -12 245 -12 Z M 253 54 C 280 54 306 60 331 73 C 355 86 377 104 396 126 C 414 148 429 175 440 205 C 450 235 456 268 456 302 C 456 355 444 395 420 423 C 396 451 363 465 320 465 C 292 465 266 458 242 445 C 217 432 195 414 177 392 C 158 370 143 343 132 313 C 121 283 116 251 116 217 C 116 163 127 123 151 95 C 175 67 209 54 253 54 Z" unicode="ö" />
<glyph horiz-adv-x="605" d="M 312 589 L 387 589 L 370 493 L 295 493 L 312 589 Z M 58 387 L 570 387 L 556 315 L 45 315 L 58 387 Z M 245 210 L 320 210 L 303 114 L 228 114 L 245 210 Z" unicode="÷" />
<glyph horiz-adv-x="595" d="M 116 217 C 116 180 121 150 132 127 L 415 429 C 391 453 359 465 320 465 C 292 465 266 458 242 445 C 217 432 195 414 177 392 C 158 370 143 343 132 313 C 121 283 116 251 116 217 Z M 253 54 C 280 54 306 60 331 73 C 355 86 377 104 396 126 C 414 148 429 175 440 205 C 450 235 456 268 456 302 C 456 335 450 364 440 390 L 159 87 C 182 65 213 54 253 54 Z M 245 -12 C 190 -12 145 2 110 32 L 31 -53 L -8 -17 L 74 70 C 60 88 50 110 43 134 C 36 158 33 186 33 216 C 33 261 40 303 55 341 C 70 379 91 413 117 441 C 143 469 175 491 211 507 C 247 523 285 531 327 531 C 381 531 426 516 464 486 L 541 569 L 582 534 L 499 447 C 512 428 522 407 529 383 C 536 359 540 332 540 303 C 540 257 532 215 517 177 C 502 138 481 105 455 77 C 428 49 397 27 361 11 C 325 -4 286 -12 245 -12 Z" unicode="ø" />
<glyph horiz-adv-x="570" d="M 193 707 L 255 751 L 361 574 L 305 574 L 193 707 Z M 435 0 L 369 0 L 376 104 C 350 71 321 43 288 21 C 255 0 217 -12 173 -12 C 129 -12 95 0 73 23 C 51 47 40 77 40 115 C 40 126 40 139 42 154 C 44 169 46 182 48 194 L 106 519 L 188 519 L 128 184 C 126 174 125 164 124 153 C 122 141 122 131 122 122 C 122 102 127 86 138 73 C 149 59 168 53 195 53 C 229 53 261 65 293 89 C 324 113 355 148 387 192 L 444 519 L 526 519 L 435 0 Z" unicode="ù" />
<glyph horiz-adv-x="570" d="M 440 751 L 498 706 L 333 574 L 276 574 L 440 751 Z M 435 0 L 369 0 L 376 104 C 350 71 321 43 288 21 C 255 0 217 -12 173 -12 C 129 -12 95 0 73 23 C 51 47 40 77 40 115 C 40 126 40 139 42 154 C 44 169 46 182 48 194 L 106 519 L 188 519 L 128 184 C 126 174 125 164 124 153 C 122 141 122 131 122 122 C 122 102 127 86 138 73 C 149 59 168 53 195 53 C 229 53 261 65 293 89 C 324 113 355 148 387 192 L 444 519 L 526 519 L 435 0 Z" unicode="ú" />
<glyph horiz-adv-x="570" d="M 309 732 L 394 732 L 490 574 L 437 574 L 349 681 L 347 681 L 221 574 L 156 574 L 309 732 Z M 435 0 L 369 0 L 376 104 C 350 71 321 43 288 21 C 255 0 217 -12 173 -12 C 129 -12 95 0 73 23 C 51 47 40 77 40 115 C 40 126 40 139 42 154 C 44 169 46 182 48 194 L 106 519 L 188 519 L 128 184 C 126 174 125 164 124 153 C 122 141 122 131 122 122 C 122 102 127 86 138 73 C 149 59 168 53 195 53 C 229 53 261 65 293 89 C 324 113 355 148 387 192 L 444 519 L 526 519 L 435 0 Z" unicode="û" />
<glyph horiz-adv-x="570" d="M 212 694 L 289 694 L 275 612 L 198 612 L 212 694 Z M 402 694 L 479 694 L 464 612 L 387 612 L 402 694 Z M 435 0 L 369 0 L 376 104 C 350 71 321 43 288 21 C 255 0 217 -12 173 -12 C 129 -12 95 0 73 23 C 51 47 40 77 40 115 C 40 126 40 139 42 154 C 44 169 46 182 48 194 L 106 519 L 188 519 L 128 184 C 126 174 125 164 124 153 C 122 141 122 131 122 122 C 122 102 127 86 138 73 C 149 59 168 53 195 53 C 229 53 261 65 293 89 C 324 113 355 148 387 192 L 444 519 L 526 519 L 435 0 Z" unicode="ü" />
<glyph horiz-adv-x="500" d="M 400 751 L 458 706 L 293 574 L 236 574 L 400 751 Z M -45 -126 C -35 -130 -25 -134 -15 -137 C -4 -139 5 -141 15 -141 C 34 -141 51 -136 66 -126 C 80 -116 94 -98 108 -73 L 151 4 L 53 519 L 132 519 L 206 108 L 207 108 L 421 519 L 508 519 L 185 -85 C 171 -110 158 -131 145 -147 C 132 -163 119 -175 105 -185 C 91 -194 77 -200 62 -204 C 47 -208 31 -210 13 -210 C -3 -210 -18 -207 -34 -203 C -49 -199 -63 -193 -75 -186 L -45 -126 Z" unicode="ý" />
<glyph horiz-adv-x="585" d="M 124 119 C 141 97 160 81 181 70 C 202 59 227 54 255 54 C 285 54 311 61 335 76 C 358 90 378 110 394 134 C 410 158 422 186 431 218 C 439 250 444 283 444 317 C 444 367 434 404 415 428 C 396 452 369 464 333 464 C 302 464 272 453 243 431 C 214 409 188 381 164 345 L 124 119 Z M 355 530 C 407 530 448 511 480 475 C 512 438 528 385 528 317 C 528 271 521 228 508 188 C 495 148 477 113 454 83 C 431 53 403 30 371 14 C 339 -2 303 -11 264 -11 C 232 -11 203 -4 178 8 C 153 21 132 38 114 60 L 67 -200 L -15 -200 L 154 755 L 237 755 L 180 437 C 202 464 227 486 257 504 C 286 521 319 530 355 530 Z" unicode="þ" />
<glyph horiz-adv-x="500" d="M 171 694 L 248 694 L 234 612 L 157 612 L 171 694 Z M 361 694 L 438 694 L 423 612 L 346 612 L 361 694 Z M -45 -126 C -35 -130 -25 -134 -15 -137 C -4 -139 5 -141 15 -141 C 34 -141 51 -136 66 -126 C 80 -116 94 -98 108 -73 L 151 4 L 53 519 L 132 519 L 206 108 L 207 108 L 421 519 L 508 519 L 185 -85 C 171 -110 158 -131 145 -147 C 132 -163 119 -175 105 -185 C 91 -194 77 -200 62 -204 C 47 -208 31 -210 13 -210 C -3 -210 -18 -207 -34 -203 C -49 -199 -63 -193 -75 -186 L -45 -126 Z" unicode="ÿ" />
<glyph horiz-adv-x="681" d="M 282 842 L 574 842 L 564 783 L 271 783 L 282 842 Z M 194 241 L 461 241 L 394 613 L 392 613 L 194 241 Z M 353 700 L 457 700 L 591 0 L 504 0 L 473 172 L 158 172 L 67 0 L -29 0 L 353 700 Z" unicode="Ā" />
<glyph horiz-adv-x="563" d="M 200 682 L 491 682 L 481 624 L 190 624 L 200 682 Z M 437 406 C 418 424 398 439 378 449 C 357 459 333 465 305 465 C 278 465 253 458 230 445 C 207 432 187 414 171 391 C 154 367 141 340 131 309 C 121 277 117 243 117 206 C 117 156 126 118 146 92 C 166 66 193 54 228 54 C 259 54 288 64 316 86 C 343 107 370 138 397 178 L 437 406 Z M 211 -12 C 185 -12 161 -7 139 2 C 117 12 99 26 83 44 C 67 62 54 84 46 110 C 37 136 33 166 33 200 C 33 247 39 291 53 332 C 67 372 85 407 109 437 C 133 466 161 489 193 506 C 225 522 261 531 299 531 C 333 531 363 524 389 510 C 415 496 435 479 451 461 L 466 519 L 539 519 L 470 127 C 468 121 467 116 467 110 C 466 104 466 99 466 96 C 466 71 480 59 509 59 L 499 -1 C 464 -1 437 5 418 18 C 399 31 389 53 389 85 C 337 20 278 -12 211 -12 Z" unicode="ā" />
<glyph horiz-adv-x="681" d="M 412 750 C 368 750 334 760 309 782 C 283 803 269 832 267 870 L 324 870 C 327 850 336 835 352 824 C 368 812 390 807 418 807 C 446 807 469 812 489 824 C 509 835 524 850 535 870 L 598 870 C 582 832 559 802 529 781 C 498 760 459 750 412 750 Z M 194 241 L 461 241 L 394 613 L 392 613 L 194 241 Z M 353 700 L 457 700 L 591 0 L 504 0 L 473 172 L 158 172 L 67 0 L -29 0 L 353 700 Z" unicode="Ă" />
<glyph horiz-adv-x="563" d="M 325 569 C 279 569 245 583 221 613 C 197 642 188 682 193 732 L 247 732 C 245 699 252 673 266 655 C 280 637 301 628 331 628 C 360 628 385 637 407 655 C 428 673 443 699 453 732 L 512 732 C 499 680 477 639 445 611 C 413 583 373 569 325 569 Z M 437 406 C 418 424 398 439 378 449 C 357 459 333 465 305 465 C 278 465 253 458 230 445 C 207 432 187 414 171 391 C 154 367 141 340 131 309 C 121 277 117 243 117 206 C 117 156 126 118 146 92 C 166 66 193 54 228 54 C 259 54 288 64 316 86 C 343 107 370 138 397 178 L 437 406 Z M 211 -12 C 185 -12 161 -7 139 2 C 117 12 99 26 83 44 C 67 62 54 84 46 110 C 37 136 33 166 33 200 C 33 247 39 291 53 332 C 67 372 85 407 109 437 C 133 466 161 489 193 506 C 225 522 261 531 299 531 C 333 531 363 524 389 510 C 415 496 435 479 451 461 L 466 519 L 539 519 L 470 127 C 468 121 467 116 467 110 C 466 104 466 99 466 96 C 466 71 480 59 509 59 L 499 -1 C 464 -1 437 5 418 18 C 399 31 389 53 389 85 C 337 20 278 -12 211 -12 Z" unicode="ă" />
<glyph horiz-adv-x="681" d="M 194 241 L 461 241 L 394 613 L 392 613 L 194 241 Z M 567 -193 C 557 -197 546 -200 534 -203 C 522 -205 509 -207 496 -207 C 470 -207 448 -199 432 -184 C 415 -169 407 -150 407 -127 C 407 -97 416 -72 436 -52 C 455 -31 478 -14 504 0 L 473 172 L 158 172 L 67 0 L -29 0 L 353 700 L 457 700 L 591 0 L 581 0 C 571 -4 561 -9 549 -15 C 537 -21 525 -29 514 -38 C 503 -47 494 -57 487 -68 C 479 -79 476 -92 476 -106 C 476 -118 480 -128 488 -134 C 496 -140 506 -143 519 -143 C 530 -143 540 -141 550 -139 C 560 -136 568 -133 576 -129 L 578 -131 L 567 -193 Z" unicode="Ą" />
<glyph horiz-adv-x="590" d="M 207 -12 C 182 -12 159 -7 138 2 C 116 11 98 25 82 43 C 66 61 54 84 46 111 C 37 137 33 168 33 203 C 33 249 39 293 53 333 C 67 373 85 407 109 437 C 133 466 161 489 193 506 C 225 522 261 531 299 531 C 333 531 363 524 389 510 C 415 496 435 479 451 461 L 466 519 L 539 519 L 470 127 C 468 121 467 116 467 110 C 466 104 466 99 466 96 C 466 71 480 59 509 59 L 499 0 C 489 -4 479 -9 467 -16 C 455 -22 443 -30 432 -39 C 421 -48 412 -58 404 -70 C 396 -81 393 -93 393 -107 C 393 -120 397 -130 405 -136 C 413 -142 424 -145 437 -145 C 447 -145 457 -143 467 -141 C 477 -138 486 -135 494 -131 L 496 -133 L 485 -193 C 475 -197 464 -200 452 -203 C 440 -205 427 -207 415 -207 C 389 -207 367 -199 351 -184 C 334 -169 326 -150 326 -127 C 326 -111 329 -96 335 -83 C 341 -69 350 -57 360 -46 C 370 -35 382 -25 396 -16 C 410 -7 424 0 439 8 C 405 20 389 46 389 86 C 363 54 336 29 306 13 C 276 -3 243 -12 207 -12 Z M 437 406 C 418 424 398 439 378 449 C 357 459 333 465 305 465 C 278 465 253 458 230 445 C 207 431 187 413 171 390 C 154 367 141 340 131 309 C 121 277 117 243 117 207 C 117 155 126 116 146 91 C 165 66 192 54 226 54 C 258 54 288 65 317 87 C 345 109 372 139 397 178 L 437 406 Z" unicode="ą" />
<glyph horiz-adv-x="701" d="M 544 889 L 608 843 L 473 755 L 412 755 L 544 889 Z M 50 297 C 50 356 60 411 81 461 C 101 511 130 555 167 593 C 204 630 248 659 298 680 C 348 701 403 712 462 712 C 508 712 549 704 586 690 C 622 676 654 656 681 631 L 630 576 C 606 596 580 612 550 622 C 520 632 489 638 456 638 C 412 638 371 629 333 612 C 294 595 260 571 231 541 C 202 511 179 475 163 434 C 146 393 138 349 138 301 C 138 226 157 167 197 125 C 236 83 290 62 358 62 C 396 62 431 69 465 84 C 499 98 530 118 558 142 L 607 81 C 571 52 532 29 490 13 C 447 -3 400 -12 348 -12 C 304 -12 264 -4 228 9 C 192 23 160 44 134 71 C 107 97 86 130 72 168 C 57 206 50 249 50 297 Z" unicode="Ć" />
<glyph horiz-adv-x="512" d="M 431 751 L 489 706 L 324 574 L 267 574 L 431 751 Z M 31 214 C 31 260 38 302 53 341 C 68 379 89 413 116 441 C 142 469 173 491 209 507 C 245 523 283 531 325 531 C 361 531 392 525 418 513 C 444 501 466 487 482 472 L 435 421 C 421 432 405 442 386 450 C 366 458 343 462 317 462 C 290 462 264 456 240 444 C 216 432 194 415 176 394 C 157 373 142 348 132 319 C 121 289 116 257 116 222 C 116 170 127 129 151 100 C 175 71 207 57 249 57 C 277 57 301 61 322 71 C 343 80 363 92 383 108 L 426 52 C 400 32 373 16 344 5 C 315 -6 280 -12 239 -12 C 210 -12 183 -6 158 3 C 132 13 110 28 92 48 C 73 67 58 91 47 119 C 36 147 31 178 31 214 Z" unicode="ć" />
<glyph horiz-adv-x="701" d="M 440 870 L 523 870 L 625 755 L 571 755 L 477 823 L 475 823 L 358 755 L 295 755 L 440 870 Z M 50 297 C 50 356 60 411 81 461 C 101 511 130 555 167 593 C 204 630 248 659 298 680 C 348 701 403 712 462 712 C 508 712 549 704 586 690 C 622 676 654 656 681 631 L 630 576 C 606 596 580 612 550 622 C 520 632 489 638 456 638 C 412 638 371 629 333 612 C 294 595 260 571 231 541 C 202 511 179 475 163 434 C 146 393 138 349 138 301 C 138 226 157 167 197 125 C 236 83 290 62 358 62 C 396 62 431 69 465 84 C 499 98 530 118 558 142 L 607 81 C 571 52 532 29 490 13 C 447 -3 400 -12 348 -12 C 304 -12 264 -4 228 9 C 192 23 160 44 134 71 C 107 97 86 130 72 168 C 57 206 50 249 50 297 Z" unicode="Ĉ" />
<glyph horiz-adv-x="512" d="M 305 732 L 390 732 L 486 574 L 433 574 L 345 681 L 343 681 L 217 574 L 152 574 L 305 732 Z M 31 214 C 31 260 38 302 53 341 C 68 379 89 413 116 441 C 142 469 173 491 209 507 C 245 523 283 531 325 531 C 361 531 392 525 418 513 C 444 501 466 487 482 472 L 435 421 C 421 432 405 442 386 450 C 366 458 343 462 317 462 C 290 462 264 456 240 444 C 216 432 194 415 176 394 C 157 373 142 348 132 319 C 121 289 116 257 116 222 C 116 170 127 129 151 100 C 175 71 207 57 249 57 C 277 57 301 61 322 71 C 343 80 363 92 383 108 L 426 52 C 400 32 373 16 344 5 C 315 -6 280 -12 239 -12 C 210 -12 183 -6 158 3 C 132 13 110 28 92 48 C 73 67 58 91 47 119 C 36 147 31 178 31 214 Z" unicode="ĉ" />
<glyph horiz-adv-x="701" d="M 435 867 L 517 867 L 501 772 L 418 772 L 435 867 Z M 50 297 C 50 356 60 411 81 461 C 101 511 130 555 167 593 C 204 630 248 659 298 680 C 348 701 403 712 462 712 C 508 712 549 704 586 690 C 622 676 654 656 681 631 L 630 576 C 606 596 580 612 550 622 C 520 632 489 638 456 638 C 412 638 371 629 333 612 C 294 595 260 571 231 541 C 202 511 179 475 163 434 C 146 393 138 349 138 301 C 138 226 157 167 197 125 C 236 83 290 62 358 62 C 396 62 431 69 465 84 C 499 98 530 118 558 142 L 607 81 C 571 52 532 29 490 13 C 447 -3 400 -12 348 -12 C 304 -12 264 -4 228 9 C 192 23 160 44 134 71 C 107 97 86 130 72 168 C 57 206 50 249 50 297 Z" unicode="Ċ" />
<glyph horiz-adv-x="512" d="M 303 743 L 385 743 L 369 648 L 286 648 L 303 743 Z M 31 214 C 31 260 38 302 53 341 C 68 379 89 413 116 441 C 142 469 173 491 209 507 C 245 523 283 531 325 531 C 361 531 392 525 418 513 C 444 501 466 487 482 472 L 435 421 C 421 432 405 442 386 450 C 366 458 343 462 317 462 C 290 462 264 456 240 444 C 216 432 194 415 176 394 C 157 373 142 348 132 319 C 121 289 116 257 116 222 C 116 170 127 129 151 100 C 175 71 207 57 249 57 C 277 57 301 61 322 71 C 343 80 363 92 383 108 L 426 52 C 400 32 373 16 344 5 C 315 -6 280 -12 239 -12 C 210 -12 183 -6 158 3 C 132 13 110 28 92 48 C 73 67 58 91 47 119 C 36 147 31 178 31 214 Z" unicode="ċ" />
<glyph horiz-adv-x="701" d="M 318 870 L 372 870 L 465 803 L 466 803 L 584 870 L 648 870 L 503 755 L 420 755 L 318 870 Z M 50 297 C 50 356 60 411 81 461 C 101 511 130 555 167 593 C 204 630 248 659 298 680 C 348 701 403 712 462 712 C 508 712 549 704 586 690 C 622 676 654 656 681 631 L 630 576 C 606 596 580 612 550 622 C 520 632 489 638 456 638 C 412 638 371 629 333 612 C 294 595 260 571 231 541 C 202 511 179 475 163 434 C 146 393 138 349 138 301 C 138 226 157 167 197 125 C 236 83 290 62 358 62 C 396 62 431 69 465 84 C 499 98 530 118 558 142 L 607 81 C 571 52 532 29 490 13 C 447 -3 400 -12 348 -12 C 304 -12 264 -4 228 9 C 192 23 160 44 134 71 C 107 97 86 130 72 168 C 57 206 50 249 50 297 Z" unicode="Č" />
<glyph horiz-adv-x="512" d="M 183 732 L 235 732 L 325 623 L 326 623 L 454 732 L 516 732 L 365 574 L 280 574 L 183 732 Z M 31 214 C 31 260 38 302 53 341 C 68 379 89 413 116 441 C 142 469 173 491 209 507 C 245 523 283 531 325 531 C 361 531 392 525 418 513 C 444 501 466 487 482 472 L 435 421 C 421 432 405 442 386 450 C 366 458 343 462 317 462 C 290 462 264 456 240 444 C 216 432 194 415 176 394 C 157 373 142 348 132 319 C 121 289 116 257 116 222 C 116 170 127 129 151 100 C 175 71 207 57 249 57 C 277 57 301 61 322 71 C 343 80 363 92 383 108 L 426 52 C 400 32 373 16 344 5 C 315 -6 280 -12 239 -12 C 210 -12 183 -6 158 3 C 132 13 110 28 92 48 C 73 67 58 91 47 119 C 36 147 31 178 31 214 Z" unicode="č" />
<glyph horiz-adv-x="710" d="M 267 870 L 321 870 L 414 803 L 415 803 L 533 870 L 597 870 L 452 755 L 369 755 L 267 870 Z M 147 700 L 347 700 C 396 700 440 693 480 680 C 519 667 552 648 580 624 C 607 599 628 568 643 532 C 657 496 665 454 665 407 C 665 351 656 298 638 248 C 620 198 594 155 558 119 C 522 82 476 53 422 32 C 367 10 302 0 228 0 L 24 0 L 147 700 Z M 241 72 C 296 72 345 80 387 98 C 429 115 464 139 492 169 C 520 199 541 234 555 274 C 569 314 577 356 577 402 C 577 476 557 533 519 571 C 480 609 421 628 341 628 L 221 628 L 122 72 L 241 72 Z" unicode="Ď" />
<glyph horiz-adv-x="588" d="M 633 675 C 634 683 635 691 637 699 C 638 707 639 715 641 723 C 654 727 668 729 684 729 C 708 729 726 723 738 712 C 750 701 757 687 757 670 C 757 648 749 629 734 611 C 719 593 703 577 686 564 L 626 564 C 667 601 688 630 688 652 C 688 660 685 666 681 671 C 677 675 669 678 658 678 C 649 678 641 677 633 675 Z M 230 54 C 260 54 290 64 318 86 C 346 108 373 138 397 178 L 437 406 C 419 424 399 439 379 449 C 358 459 334 465 306 465 C 279 465 254 458 231 445 C 207 432 187 414 171 391 C 154 368 141 341 131 310 C 121 278 117 245 117 209 C 117 155 127 116 147 91 C 167 66 194 54 230 54 Z M 209 -11 C 184 -11 161 -6 140 3 C 118 12 100 26 84 44 C 68 62 55 84 46 111 C 37 137 33 168 33 203 C 33 249 39 292 53 332 C 66 372 85 406 109 436 C 133 465 161 488 193 505 C 225 521 261 530 299 530 C 333 530 362 523 386 511 C 410 498 430 483 448 466 L 499 755 L 581 755 L 448 0 L 382 0 L 389 89 C 365 60 340 36 312 17 C 284 -1 250 -11 209 -11 Z" unicode="ď" />
<glyph horiz-adv-x="749" d="M 28 381 L 130 381 L 186 700 L 386 700 C 435 700 479 693 519 680 C 558 667 591 648 619 624 C 646 599 667 568 682 532 C 696 496 704 454 704 407 C 704 351 695 298 677 248 C 659 198 633 155 597 119 C 561 82 515 53 461 32 C 406 10 341 0 267 0 L 63 0 L 120 323 L 17 323 L 28 381 Z M 280 72 C 335 72 384 80 426 98 C 468 115 503 139 531 169 C 559 199 580 234 594 274 C 608 314 616 356 616 402 C 616 476 596 533 558 571 C 519 609 460 628 380 628 L 260 628 L 216 381 L 416 381 L 407 323 L 205 323 L 161 72 L 280 72 Z" unicode="Đ" />
<glyph horiz-adv-x="585" d="M 230 54 C 260 54 290 64 318 86 C 346 108 373 138 397 178 L 437 406 C 419 424 399 439 379 449 C 358 459 334 465 306 465 C 279 465 254 458 231 445 C 207 432 187 414 171 391 C 154 368 141 341 131 310 C 121 278 117 245 117 209 C 117 155 127 116 147 91 C 167 66 194 54 230 54 Z M 209 -11 C 184 -11 161 -6 140 3 C 118 12 100 26 84 44 C 68 62 55 84 46 111 C 37 137 33 168 33 203 C 33 249 39 292 53 332 C 66 372 85 406 109 436 C 133 465 161 488 193 505 C 225 521 261 530 299 530 C 333 530 362 523 386 511 C 410 498 430 483 448 466 L 474 614 L 337 614 L 348 669 L 484 669 L 499 755 L 581 755 L 566 669 L 637 669 L 627 613 L 556 613 L 448 0 L 382 0 L 389 89 C 365 60 340 36 312 17 C 284 -1 250 -11 209 -11 Z" unicode="đ" />
<glyph horiz-adv-x="626" d="M 263 842 L 555 842 L 545 783 L 252 783 L 263 842 Z M 147 700 L 622 700 L 609 624 L 221 624 L 179 392 L 529 392 L 516 321 L 167 321 L 123 76 L 518 76 L 505 0 L 24 0 L 147 700 Z" unicode="Ē" />
<glyph horiz-adv-x="557" d="M 205 682 L 496 682 L 486 624 L 195 624 L 205 682 Z M 31 211 C 31 256 38 298 54 337 C 70 376 91 410 119 439 C 147 467 180 490 218 506 C 256 522 297 531 342 531 C 368 531 391 527 412 520 C 433 513 451 504 466 492 C 480 480 492 466 500 450 C 508 434 512 417 512 399 C 512 350 484 313 429 288 C 374 262 296 250 195 250 L 118 250 C 116 244 116 238 116 232 C 116 226 116 220 116 214 C 116 163 127 124 150 97 C 172 69 207 56 255 56 C 283 56 310 60 336 70 C 362 79 386 91 408 105 L 441 48 C 415 30 385 15 352 4 C 318 -6 282 -12 244 -12 C 212 -12 182 -6 156 3 C 130 13 107 28 89 48 C 70 67 56 90 46 118 C 36 145 31 176 31 211 Z M 334 467 C 290 467 249 453 212 425 C 175 397 148 359 131 311 L 200 311 C 281 311 339 319 375 335 C 411 351 429 373 429 400 C 429 418 420 433 404 447 C 388 460 364 467 334 467 Z" unicode="ē" />
<glyph horiz-adv-x="626" d="M 392 750 C 348 750 314 760 289 782 C 263 803 249 832 247 870 L 304 870 C 307 850 316 835 332 824 C 348 812 370 807 398 807 C 426 807 449 812 469 824 C 489 835 504 850 515 870 L 578 870 C 562 832 539 802 509 781 C 478 760 439 750 392 750 Z M 147 700 L 622 700 L 609 624 L 221 624 L 179 392 L 529 392 L 516 321 L 167 321 L 123 76 L 518 76 L 505 0 L 24 0 L 147 700 Z" unicode="Ĕ" />
<glyph horiz-adv-x="557" d="M 333 569 C 287 569 253 583 229 613 C 205 642 196 682 201 732 L 255 732 C 253 699 260 673 274 655 C 288 637 309 628 339 628 C 368 628 393 637 415 655 C 436 673 451 699 461 732 L 520 732 C 507 680 485 639 453 611 C 421 583 381 569 333 569 Z M 31 211 C 31 256 38 298 54 337 C 70 376 91 410 119 439 C 147 467 180 490 218 506 C 256 522 297 531 342 531 C 368 531 391 527 412 520 C 433 513 451 504 466 492 C 480 480 492 466 500 450 C 508 434 512 417 512 399 C 512 350 484 313 429 288 C 374 262 296 250 195 250 L 118 250 C 116 244 116 238 116 232 C 116 226 116 220 116 214 C 116 163 127 124 150 97 C 172 69 207 56 255 56 C 283 56 310 60 336 70 C 362 79 386 91 408 105 L 441 48 C 415 30 385 15 352 4 C 318 -6 282 -12 244 -12 C 212 -12 182 -6 156 3 C 130 13 107 28 89 48 C 70 67 56 90 46 118 C 36 145 31 176 31 211 Z M 334 467 C 290 467 249 453 212 425 C 175 397 148 359 131 311 L 200 311 C 281 311 339 319 375 335 C 411 351 429 373 429 400 C 429 418 420 433 404 447 C 388 460 364 467 334 467 Z" unicode="ĕ" />
<glyph horiz-adv-x="626" d="M 372 867 L 454 867 L 438 772 L 355 772 L 372 867 Z M 147 700 L 622 700 L 609 624 L 221 624 L 179 392 L 529 392 L 516 321 L 167 321 L 123 76 L 518 76 L 505 0 L 24 0 L 147 700 Z" unicode="Ė" />
<glyph horiz-adv-x="557" d="M 318 743 L 400 743 L 384 648 L 301 648 L 318 743 Z M 334 467 C 312 467 290 463 270 456 C 249 448 230 438 212 425 C 194 411 179 395 165 376 C 151 356 140 335 132 311 L 200 311 C 281 311 339 319 375 335 C 411 351 429 373 429 400 C 429 418 420 433 404 447 C 388 460 364 467 334 467 Z M 441 48 C 415 30 385 15 352 4 C 318 -6 282 -12 244 -12 C 212 -12 182 -6 156 3 C 130 13 107 28 89 48 C 70 67 56 90 46 118 C 36 145 31 176 31 211 C 31 256 38 298 54 337 C 70 376 91 410 119 439 C 147 467 180 490 218 506 C 256 522 297 531 342 531 C 368 531 391 527 412 520 C 433 513 451 504 466 492 C 480 480 492 466 500 450 C 508 434 512 417 512 399 C 512 350 484 313 429 288 C 374 262 296 250 195 250 L 118 250 C 117 244 116 238 116 232 C 116 226 116 220 116 214 C 116 163 127 124 150 97 C 172 69 207 56 255 56 C 283 56 310 60 336 70 C 362 79 386 91 408 105 L 441 48 Z" unicode="ė" />
<glyph horiz-adv-x="626" d="M 147 700 L 622 700 L 609 624 L 221 624 L 179 392 L 529 392 L 516 321 L 167 321 L 123 76 L 518 76 L 505 0 L 504 0 C 494 -4 484 -9 472 -15 C 460 -21 448 -29 437 -38 C 426 -47 417 -57 410 -68 C 402 -79 399 -92 399 -106 C 399 -118 403 -128 411 -134 C 419 -140 429 -143 442 -143 C 453 -143 463 -141 473 -139 C 483 -136 491 -133 499 -129 L 501 -131 L 490 -193 C 480 -197 469 -200 457 -203 C 445 -205 432 -207 419 -207 C 393 -207 371 -199 355 -184 C 338 -169 330 -150 330 -127 C 330 -97 339 -72 358 -52 C 377 -31 400 -14 426 0 L 24 0 L 147 700 Z" unicode="Ę" />
<glyph horiz-adv-x="557" d="M 32 211 C 32 256 39 298 55 337 C 71 376 92 410 120 439 C 148 467 180 490 218 506 C 256 522 297 531 342 531 C 368 531 391 527 412 520 C 433 513 451 504 465 492 C 479 480 491 466 499 450 C 507 434 511 417 511 399 C 511 350 483 313 429 288 C 374 262 296 250 195 250 L 118 250 C 116 244 116 239 116 233 C 116 227 116 220 116 214 C 116 163 127 124 150 97 C 172 69 207 56 255 56 C 283 56 309 60 335 70 C 361 79 384 91 406 106 L 441 48 C 428 39 415 31 402 24 C 388 17 374 9 358 0 C 342 -8 327 -18 313 -29 C 299 -40 287 -52 278 -65 C 268 -78 264 -92 264 -107 C 264 -119 268 -129 277 -135 C 285 -141 297 -145 312 -145 C 322 -145 332 -143 342 -141 C 352 -138 360 -135 368 -131 L 370 -133 L 359 -193 C 349 -197 339 -200 327 -203 C 315 -205 302 -207 290 -207 C 261 -207 238 -199 222 -185 C 206 -170 198 -151 198 -127 C 198 -103 205 -81 219 -61 C 233 -41 250 -24 271 -10 C 267 -10 262 -11 257 -11 C 252 -11 248 -12 244 -12 C 179 -12 127 7 89 47 C 51 87 32 141 32 211 Z M 334 467 C 289 467 248 453 211 425 C 174 397 147 359 131 311 L 200 311 C 281 311 339 319 375 335 C 411 351 429 373 429 400 C 429 418 420 433 404 447 C 388 460 364 467 334 467 Z" unicode="ę" />
<glyph horiz-adv-x="626" d="M 249 870 L 303 870 L 396 803 L 397 803 L 515 870 L 579 870 L 434 755 L 351 755 L 249 870 Z M 147 700 L 622 700 L 609 624 L 221 624 L 179 392 L 529 392 L 516 321 L 167 321 L 123 76 L 518 76 L 505 0 L 24 0 L 147 700 Z" unicode="Ě" />
<glyph horiz-adv-x="557" d="M 196 732 L 248 732 L 338 623 L 339 623 L 467 732 L 529 732 L 378 574 L 293 574 L 196 732 Z M 31 211 C 31 256 38 298 54 337 C 70 376 91 410 119 439 C 147 467 180 490 218 506 C 256 522 297 531 342 531 C 368 531 391 527 412 520 C 433 513 451 504 466 492 C 480 480 492 466 500 450 C 508 434 512 417 512 399 C 512 350 484 313 429 288 C 374 262 296 250 195 250 L 118 250 C 116 244 116 238 116 232 C 116 226 116 220 116 214 C 116 163 127 124 150 97 C 172 69 207 56 255 56 C 283 56 310 60 336 70 C 362 79 386 91 408 105 L 441 48 C 415 30 385 15 352 4 C 318 -6 282 -12 244 -12 C 212 -12 182 -6 156 3 C 130 13 107 28 89 48 C 70 67 56 90 46 118 C 36 145 31 176 31 211 Z M 334 467 C 290 467 249 453 212 425 C 175 397 148 359 131 311 L 200 311 C 281 311 339 319 375 335 C 411 351 429 373 429 400 C 429 418 420 433 404 447 C 388 460 364 467 334 467 Z" unicode="ě" />
<glyph horiz-adv-x="718" d="M 444 870 L 527 870 L 629 755 L 575 755 L 481 823 L 479 823 L 362 755 L 299 755 L 444 870 Z M 49 295 C 49 354 59 409 80 460 C 100 511 129 555 166 593 C 203 630 247 659 298 680 C 348 701 404 712 464 712 C 508 712 549 705 588 692 C 626 678 660 661 689 640 L 638 583 C 589 619 529 638 459 638 C 415 638 373 629 334 612 C 295 595 261 572 232 542 C 202 512 179 476 162 435 C 145 393 137 348 137 299 C 137 263 142 230 152 201 C 162 171 176 146 195 126 C 214 105 237 89 265 78 C 292 67 323 62 357 62 C 390 62 421 66 450 74 C 478 82 503 93 525 107 L 559 303 L 368 303 L 380 368 L 651 368 L 596 60 C 561 37 523 19 481 7 C 439 -5 395 -12 347 -12 C 303 -12 262 -4 226 10 C 189 24 158 45 132 72 C 106 98 85 130 71 168 C 56 206 49 248 49 295 Z" unicode="Ĝ" />
<glyph horiz-adv-x="585" d="M 315 732 L 400 732 L 496 574 L 443 574 L 355 681 L 353 681 L 227 574 L 162 574 L 315 732 Z M 436 406 C 417 425 397 440 377 450 C 356 460 332 465 304 465 C 278 465 253 458 230 445 C 207 432 187 414 170 391 C 153 368 140 341 130 310 C 120 278 116 245 116 209 C 116 157 126 118 146 94 C 166 70 194 58 228 58 C 259 58 288 68 315 89 C 342 110 369 141 397 181 L 436 406 Z M 381 92 C 359 63 333 39 305 21 C 276 2 242 -7 203 -7 C 179 -7 156 -2 136 6 C 115 14 97 27 82 45 C 66 63 54 85 45 112 C 36 138 32 170 32 206 C 32 252 38 295 52 335 C 66 375 85 409 109 438 C 133 466 161 489 193 505 C 225 521 260 530 298 530 C 332 530 361 523 387 510 C 413 496 434 481 450 463 L 465 519 L 538 519 L 447 2 C 441 -31 432 -61 420 -87 C 408 -113 393 -136 373 -154 C 353 -172 330 -185 302 -195 C 274 -205 240 -210 201 -210 C 163 -210 127 -203 94 -189 C 60 -175 32 -157 9 -137 L 54 -81 C 74 -98 97 -113 123 -125 C 149 -137 178 -143 208 -143 C 252 -143 286 -131 312 -107 C 338 -83 356 -43 367 15 L 381 92 Z" unicode="ĝ" />
<glyph horiz-adv-x="718" d="M 462 750 C 418 750 384 760 359 782 C 333 803 319 832 317 870 L 374 870 C 377 850 386 835 402 824 C 418 812 440 807 468 807 C 496 807 519 812 539 824 C 559 835 574 850 585 870 L 648 870 C 632 832 609 802 579 781 C 548 760 509 750 462 750 Z M 49 295 C 49 354 59 409 80 460 C 100 511 129 555 166 593 C 203 630 247 659 298 680 C 348 701 404 712 464 712 C 508 712 549 705 588 692 C 626 678 660 661 689 640 L 638 583 C 589 619 529 638 459 638 C 415 638 373 629 334 612 C 295 595 261 572 232 542 C 202 512 179 476 162 435 C 145 393 137 348 137 299 C 137 263 142 230 152 201 C 162 171 176 146 195 126 C 214 105 237 89 265 78 C 292 67 323 62 357 62 C 390 62 421 66 450 74 C 478 82 503 93 525 107 L 559 303 L 368 303 L 380 368 L 651 368 L 596 60 C 561 37 523 19 481 7 C 439 -5 395 -12 347 -12 C 303 -12 262 -4 226 10 C 189 24 158 45 132 72 C 106 98 85 130 71 168 C 56 206 49 248 49 295 Z" unicode="Ğ" />
<glyph horiz-adv-x="585" d="M 330 569 C 284 569 250 583 226 613 C 202 642 193 682 198 732 L 252 732 C 250 699 257 673 271 655 C 285 637 306 628 336 628 C 365 628 390 637 412 655 C 433 673 448 699 458 732 L 517 732 C 504 680 482 639 450 611 C 418 583 378 569 330 569 Z M 436 406 C 417 425 397 440 377 450 C 356 460 332 465 304 465 C 278 465 253 458 230 445 C 207 432 187 414 170 391 C 153 368 140 341 130 310 C 120 278 116 245 116 209 C 116 157 126 118 146 94 C 166 70 194 58 228 58 C 259 58 288 68 315 89 C 342 110 369 141 397 181 L 436 406 Z M 381 92 C 359 63 333 39 305 21 C 276 2 242 -7 203 -7 C 179 -7 156 -2 136 6 C 115 14 97 27 82 45 C 66 63 54 85 45 112 C 36 138 32 170 32 206 C 32 252 38 295 52 335 C 66 375 85 409 109 438 C 133 466 161 489 193 505 C 225 521 260 530 298 530 C 332 530 361 523 387 510 C 413 496 434 481 450 463 L 465 519 L 538 519 L 447 2 C 441 -31 432 -61 420 -87 C 408 -113 393 -136 373 -154 C 353 -172 330 -185 302 -195 C 274 -205 240 -210 201 -210 C 163 -210 127 -203 94 -189 C 60 -175 32 -157 9 -137 L 54 -81 C 74 -98 97 -113 123 -125 C 149 -137 178 -143 208 -143 C 252 -143 286 -131 312 -107 C 338 -83 356 -43 367 15 L 381 92 Z" unicode="ğ" />
<glyph horiz-adv-x="718" d="M 436 867 L 518 867 L 502 772 L 419 772 L 436 867 Z M 49 295 C 49 354 59 409 80 460 C 100 511 129 555 166 593 C 203 630 247 659 298 680 C 348 701 404 712 464 712 C 508 712 549 705 588 692 C 626 678 660 661 689 640 L 638 583 C 589 619 529 638 459 638 C 415 638 373 629 334 612 C 295 595 261 572 232 542 C 202 512 179 476 162 435 C 145 393 137 348 137 299 C 137 263 142 230 152 201 C 162 171 176 146 195 126 C 214 105 237 89 265 78 C 292 67 323 62 357 62 C 390 62 421 66 450 74 C 478 82 503 93 525 107 L 559 303 L 368 303 L 380 368 L 651 368 L 596 60 C 561 37 523 19 481 7 C 439 -5 395 -12 347 -12 C 303 -12 262 -4 226 10 C 189 24 158 45 132 72 C 106 98 85 130 71 168 C 56 206 49 248 49 295 Z" unicode="Ġ" />
<glyph horiz-adv-x="585" d="M 310 743 L 392 743 L 376 648 L 293 648 L 310 743 Z M 436 406 C 417 425 397 440 377 450 C 356 460 332 465 304 465 C 278 465 253 458 230 445 C 207 432 187 414 170 391 C 153 368 140 341 130 310 C 120 278 116 245 116 209 C 116 157 126 118 146 94 C 166 70 194 58 228 58 C 259 58 288 68 315 89 C 342 110 369 141 397 181 L 436 406 Z M 201 -210 C 163 -210 127 -203 94 -189 C 60 -175 32 -157 9 -137 L 54 -81 C 74 -98 97 -113 123 -125 C 149 -137 178 -143 208 -143 C 252 -143 286 -131 312 -107 C 338 -83 356 -43 367 15 L 381 92 C 359 63 333 39 305 21 C 276 2 242 -7 203 -7 C 179 -7 156 -2 136 6 C 115 14 97 27 82 45 C 66 63 54 85 45 112 C 36 138 32 170 32 206 C 32 252 38 295 52 335 C 66 375 85 409 109 438 C 133 466 161 489 193 505 C 225 521 260 530 298 530 C 332 530 361 523 387 510 C 413 496 434 481 450 463 L 465 519 L 538 519 L 447 2 C 441 -31 432 -61 420 -87 C 408 -113 393 -136 373 -154 C 353 -172 330 -185 302 -195 C 274 -205 240 -210 201 -210 Z" unicode="ġ" />
<glyph horiz-adv-x="718" d="M 49 295 C 49 354 59 409 80 460 C 100 511 129 555 166 593 C 203 630 247 659 298 680 C 348 701 404 712 464 712 C 508 712 549 705 588 692 C 626 678 660 661 689 640 L 638 583 C 589 619 529 638 459 638 C 415 638 373 629 334 612 C 295 595 261 572 232 542 C 202 512 179 476 162 435 C 145 393 137 348 137 299 C 137 263 142 230 152 201 C 162 171 176 146 195 126 C 214 105 237 89 265 78 C 292 67 323 62 357 62 C 390 62 421 66 450 74 C 478 82 503 93 525 107 L 559 303 L 368 303 L 380 368 L 651 368 L 596 60 C 561 37 523 19 481 7 C 439 -5 395 -12 347 -12 C 303 -12 262 -4 226 10 C 189 24 158 45 132 72 C 106 98 85 130 71 168 C 56 206 49 248 49 295 Z M 264 -56 C 270 -53 277 -51 285 -51 C 292 -50 299 -50 307 -50 C 331 -50 349 -55 361 -66 C 373 -77 379 -91 379 -109 C 379 -130 371 -149 357 -167 C 342 -185 326 -200 309 -214 L 248 -214 C 289 -176 310 -147 310 -126 C 310 -118 307 -112 303 -108 C 299 -103 291 -101 280 -101 C 272 -101 264 -102 255 -104 L 264 -56 Z" unicode="Ģ" />
<glyph horiz-adv-x="585" d="M 387 626 C 385 618 384 609 383 601 C 381 593 380 585 379 578 C 366 574 352 572 336 572 C 312 572 293 577 281 588 C 269 599 263 613 263 631 C 263 652 270 672 285 690 C 300 708 316 723 334 737 L 394 737 C 352 699 332 670 332 649 C 332 641 334 634 338 630 C 342 625 350 623 362 623 C 370 623 379 624 387 626 Z M 436 406 C 417 425 397 440 377 450 C 356 460 332 465 304 465 C 278 465 253 458 230 445 C 207 432 187 414 170 391 C 153 368 140 341 130 310 C 120 278 116 245 116 209 C 116 157 126 118 146 94 C 166 70 194 58 228 58 C 259 58 288 68 315 89 C 342 110 369 141 397 181 L 436 406 Z M 381 92 C 359 63 333 39 305 21 C 276 2 242 -7 203 -7 C 179 -7 156 -2 136 6 C 115 14 97 27 82 45 C 66 63 54 85 45 112 C 36 138 32 170 32 206 C 32 252 38 295 52 335 C 66 375 85 409 109 438 C 133 466 161 489 193 505 C 225 521 260 530 298 530 C 332 530 361 523 387 510 C 413 496 434 481 450 463 L 465 519 L 538 519 L 447 2 C 441 -31 432 -61 420 -87 C 408 -113 393 -136 373 -154 C 353 -172 330 -185 302 -195 C 274 -205 240 -210 201 -210 C 163 -210 127 -203 94 -189 C 60 -175 32 -157 9 -137 L 54 -81 C 74 -98 97 -113 123 -125 C 149 -137 178 -143 208 -143 C 252 -143 286 -131 312 -107 C 338 -83 356 -43 367 15 L 381 92 Z" unicode="ģ" />
<glyph horiz-adv-x="692" d="M 396 870 L 479 870 L 581 755 L 527 755 L 433 823 L 431 823 L 314 755 L 251 755 L 396 870 Z M 147 700 L 233 700 L 180 394 L 535 394 L 589 700 L 675 700 L 552 0 L 466 0 L 522 319 L 167 319 L 110 0 L 24 0 L 147 700 Z" unicode="Ĥ" />
<glyph horiz-adv-x="577" d="M 176 912 L 259 912 L 361 797 L 307 797 L 213 865 L 211 865 L 94 797 L 31 797 L 176 912 Z M 155 755 L 237 755 L 177 417 C 188 431 201 445 215 459 C 229 473 244 485 260 495 C 276 505 294 514 313 520 C 331 526 351 530 372 530 C 416 530 449 518 473 494 C 496 470 508 440 508 403 C 508 391 507 377 505 362 C 503 347 501 334 499 323 L 441 0 L 359 0 L 418 333 C 419 341 420 352 422 364 C 424 376 425 386 425 396 C 425 416 419 432 409 445 C 398 458 379 465 352 465 C 319 465 287 452 255 428 C 223 404 192 370 162 326 L 104 0 L 21 0 L 155 755 Z" unicode="ĥ" />
<glyph horiz-adv-x="692" d="M 535 394 L 557 521 L 202 521 L 180 394 L 535 394 Z M 147 700 L 233 700 L 211 576 L 567 576 L 589 700 L 675 700 L 552 0 L 466 0 L 522 319 L 167 319 L 110 0 L 24 0 L 147 700 Z" unicode="Ħ" />
<glyph horiz-adv-x="577" d="M 59 669 L 140 669 L 155 755 L 237 755 L 222 669 L 350 669 L 340 614 L 212 614 L 177 417 C 188 431 201 445 215 459 C 229 473 244 485 260 495 C 276 505 294 514 313 520 C 331 526 351 530 372 530 C 416 530 449 518 473 494 C 496 470 508 440 508 403 C 508 391 507 377 505 362 C 503 347 501 334 499 323 L 441 0 L 359 0 L 418 333 C 419 341 420 352 422 364 C 424 376 425 386 425 396 C 425 416 419 432 409 445 C 398 458 379 465 352 465 C 319 465 287 452 255 428 C 223 404 192 370 162 326 L 104 0 L 21 0 L 130 613 L 48 613 L 59 669 Z" unicode="ħ" />
<glyph horiz-adv-x="250" d="M 52 760 C 53 796 62 825 80 845 C 97 865 120 875 149 875 C 163 875 176 871 187 865 C 198 858 208 851 217 843 C 226 835 235 827 243 821 C 251 814 260 811 270 811 C 282 811 291 815 299 825 C 307 835 311 848 313 865 L 366 865 C 364 828 354 800 337 780 C 319 760 296 751 268 751 C 253 751 240 754 230 760 C 219 766 209 774 200 782 C 191 790 182 797 174 803 C 166 809 157 813 147 813 C 135 813 126 808 118 799 C 110 790 106 777 105 760 L 52 760 Z M 147 700 L 233 700 L 110 0 L 24 0 L 147 700 Z" unicode="Ĩ" />
<glyph horiz-adv-x="241" d="M 18 600 C 20 636 29 665 46 685 C 63 705 86 715 115 715 C 129 715 142 711 153 705 C 163 698 173 691 182 683 C 191 675 200 668 208 662 C 216 655 226 652 236 652 C 248 652 257 656 265 666 C 272 675 276 688 278 706 L 331 706 C 329 670 319 641 302 621 C 285 601 262 591 233 591 C 218 591 205 594 195 601 C 185 607 175 614 166 622 C 157 630 149 637 141 644 C 133 650 124 654 114 654 C 102 654 92 649 84 640 C 76 630 72 617 71 600 L 18 600 Z M 112 516 L 194 516 L 104 0 L 21 0 L 112 516 Z" unicode="ĩ" />
<glyph horiz-adv-x="250" d="M 68 842 L 360 842 L 350 783 L 57 783 L 68 842 Z M 147 700 L 233 700 L 110 0 L 24 0 L 147 700 Z" unicode="Ī" />
<glyph horiz-adv-x="241" d="M 33 682 L 324 682 L 314 624 L 23 624 L 33 682 Z M 112 516 L 194 516 L 104 0 L 21 0 L 112 516 Z" unicode="ī" />
<glyph horiz-adv-x="250" d="M 197 750 C 153 750 119 760 94 782 C 68 803 54 832 52 870 L 109 870 C 112 850 121 835 137 824 C 153 812 175 807 203 807 C 231 807 254 812 274 824 C 294 835 309 850 320 870 L 383 870 C 367 832 344 802 314 781 C 283 760 244 750 197 750 Z M 147 700 L 233 700 L 110 0 L 24 0 L 147 700 Z" unicode="Ĭ" />
<glyph horiz-adv-x="241" d="M 159 569 C 113 569 79 583 55 613 C 31 642 22 682 27 732 L 81 732 C 79 699 86 673 100 655 C 114 637 135 628 165 628 C 194 628 219 637 241 655 C 262 673 277 699 287 732 L 346 732 C 333 680 311 639 279 611 C 247 583 207 569 159 569 Z M 112 516 L 194 516 L 104 0 L 21 0 L 112 516 Z" unicode="ĭ" />
<glyph horiz-adv-x="250" d="M 147 700 L 233 700 L 110 0 C 100 -4 90 -9 78 -15 C 66 -21 54 -29 43 -38 C 32 -47 23 -57 16 -68 C 8 -79 5 -92 5 -106 C 5 -118 9 -128 17 -134 C 25 -140 35 -143 48 -143 C 59 -143 69 -141 79 -139 C 89 -136 97 -133 105 -129 L 107 -131 L 96 -193 C 86 -197 75 -200 63 -203 C 51 -205 38 -207 25 -207 C -1 -207 -22 -199 -39 -184 C -55 -169 -64 -150 -64 -127 C -64 -97 -54 -72 -35 -52 C -15 -31 6 -14 32 0 L 24 0 L 147 700 Z" unicode="Į" />
<glyph horiz-adv-x="241" d="M 152 743 L 234 743 L 218 648 L 135 648 L 152 743 Z M 112 516 L 194 516 L 104 0 L 103 0 C 93 -4 83 -9 71 -15 C 59 -21 47 -29 36 -38 C 25 -47 16 -57 9 -68 C 1 -79 -2 -92 -2 -106 C -2 -118 2 -128 10 -134 C 18 -140 28 -143 41 -143 C 52 -143 62 -141 72 -139 C 82 -136 90 -133 98 -129 L 100 -131 L 89 -193 C 79 -197 68 -200 56 -203 C 44 -205 31 -207 18 -207 C -8 -207 -29 -199 -46 -184 C -62 -169 -71 -150 -71 -127 C -71 -97 -61 -72 -42 -52 C -22 -31 0 -14 25 0 L 21 0 L 112 516 Z" unicode="į" />
<glyph horiz-adv-x="250" d="M 178 867 L 260 867 L 244 772 L 161 772 L 178 867 Z M 147 700 L 233 700 L 110 0 L 24 0 L 147 700 Z" unicode="İ" />
<glyph horiz-adv-x="241" d="M 112 516 L 194 516 L 104 0 L 21 0 L 112 516 Z" unicode="ı" />
<glyph horiz-adv-x="563" d="M 488 870 L 571 870 L 673 755 L 619 755 L 525 823 L 523 823 L 406 755 L 343 755 L 488 870 Z M 81 169 C 86 155 92 141 100 128 C 107 114 116 102 127 92 C 137 82 150 74 165 68 C 179 62 197 59 217 59 C 263 59 299 74 325 105 C 351 136 369 179 379 233 L 462 700 L 548 700 L 465 230 C 451 154 424 95 382 52 C 340 9 283 -12 213 -12 C 185 -12 161 -8 139 0 C 117 8 98 18 82 32 C 66 46 52 61 41 79 C 29 97 20 116 14 136 L 81 169 Z" unicode="Ĵ" />
<glyph horiz-adv-x="246" d="M 147 732 L 232 732 L 328 574 L 275 574 L 187 681 L 185 681 L 59 574 L -6 574 L 147 732 Z M 117 516 L 199 516 L 103 -26 C 91 -90 71 -137 41 -166 C 11 -195 -27 -210 -77 -210 C -91 -210 -106 -207 -120 -203 C -134 -199 -145 -193 -155 -187 L -122 -130 C -116 -133 -109 -136 -102 -138 C -94 -140 -86 -141 -78 -141 C -53 -141 -32 -131 -15 -113 C 2 -95 15 -63 23 -17 L 117 516 Z" unicode="ĵ" />
<glyph horiz-adv-x="660" d="M 147 700 L 233 700 L 165 315 L 565 700 L 666 700 L 394 436 L 563 0 L 475 0 L 332 377 L 144 195 L 110 0 L 24 0 L 147 700 Z M 223 -56 C 229 -53 236 -51 244 -51 C 251 -50 258 -50 266 -50 C 290 -50 308 -55 320 -66 C 332 -77 338 -91 338 -109 C 338 -130 330 -149 316 -167 C 301 -185 285 -200 268 -214 L 207 -214 C 248 -176 269 -147 269 -126 C 269 -118 266 -112 262 -108 C 258 -103 250 -101 239 -101 C 231 -101 223 -102 214 -104 L 223 -56 Z" unicode="Ķ" />
<glyph horiz-adv-x="528" d="M 154 755 L 237 755 L 150 262 L 421 519 L 520 519 L 329 340 L 443 0 L 359 0 L 268 283 L 131 154 L 104 0 L 21 0 L 154 755 Z M 171 -56 C 178 -53 185 -51 193 -51 C 200 -50 207 -50 215 -50 C 239 -50 257 -55 269 -66 C 281 -77 287 -91 287 -109 C 287 -130 279 -149 265 -167 C 250 -185 234 -200 217 -214 L 157 -214 C 197 -176 218 -146 218 -126 C 218 -118 215 -112 211 -108 C 207 -103 199 -101 188 -101 C 180 -101 172 -102 163 -104 L 171 -56 Z" unicode="ķ" />
<glyph horiz-adv-x="528" d="M 112 519 L 195 519 L 151 262 L 422 519 L 520 519 L 330 340 L 444 0 L 360 0 L 269 283 L 132 154 L 104 0 L 22 0 L 112 519 Z" unicode="ĸ" />
<glyph horiz-adv-x="597" d="M 291 889 L 355 843 L 220 755 L 159 755 L 291 889 Z M 147 700 L 233 700 L 124 76 L 509 76 L 495 0 L 24 0 L 147 700 Z" unicode="Ĺ" />
<glyph horiz-adv-x="241" d="M 288 931 L 352 885 L 217 797 L 156 797 L 288 931 Z M 154 755 L 237 755 L 104 0 L 21 0 L 154 755 Z" unicode="ĺ" />
<glyph horiz-adv-x="597" d="M 147 700 L 233 700 L 124 76 L 509 76 L 495 0 L 24 0 L 147 700 Z M 201 -56 C 207 -53 214 -51 222 -51 C 229 -50 236 -50 244 -50 C 268 -50 286 -55 298 -66 C 310 -77 316 -91 316 -109 C 316 -130 308 -149 294 -167 C 279 -185 263 -200 246 -214 L 185 -214 C 226 -176 247 -147 247 -126 C 247 -118 244 -112 240 -108 C 236 -103 228 -101 217 -101 C 209 -101 201 -102 192 -104 L 201 -56 Z" unicode="Ļ" />
<glyph horiz-adv-x="241" d="M 154 755 L 237 755 L 104 0 L 21 0 L 154 755 Z M 10 -56 C 17 -53 24 -51 32 -51 C 39 -50 46 -50 54 -50 C 78 -50 96 -55 108 -66 C 120 -77 126 -91 126 -109 C 126 -130 118 -149 104 -167 C 89 -185 73 -200 56 -214 L -4 -214 C 36 -176 57 -146 57 -126 C 57 -118 54 -112 50 -108 C 46 -103 38 -101 27 -101 C 19 -101 11 -102 2 -104 L 10 -56 Z" unicode="ļ" />
<glyph horiz-adv-x="597" d="M 505 698 C 511 700 518 702 526 703 C 533 703 540 704 548 704 C 572 704 590 698 602 687 C 614 676 620 662 620 645 C 620 623 612 604 598 586 C 583 568 567 553 550 540 L 489 540 C 530 577 551 606 551 628 C 551 635 548 641 544 646 C 540 650 532 653 521 653 C 513 653 505 652 496 650 L 505 698 Z M 147 700 L 233 700 L 124 76 L 509 76 L 495 0 L 24 0 L 147 700 Z" unicode="Ľ" />
<glyph horiz-adv-x="241" d="M 154 755 L 237 755 L 104 0 L 21 0 L 154 755 Z M 275 675 C 276 683 277 691 279 699 C 280 707 281 715 283 723 C 296 727 310 729 326 729 C 350 729 368 723 380 712 C 392 701 399 687 399 670 C 399 648 391 629 376 611 C 361 593 345 577 328 564 L 268 564 C 309 601 330 630 330 652 C 330 660 327 666 323 671 C 319 675 311 678 300 678 C 291 678 283 677 275 675 Z" unicode="ľ" />
<glyph horiz-adv-x="597" d="M 147 700 L 233 700 L 124 76 L 509 76 L 495 0 L 24 0 L 147 700 Z M 489 423 L 571 423 L 555 328 L 472 328 L 489 423 Z" unicode="Ŀ" />
<glyph horiz-adv-x="241" d="M 154 755 L 237 755 L 104 0 L 21 0 L 154 755 Z M 237 439 L 319 439 L 303 344 L 220 344 L 237 439 Z" unicode="ŀ" />
<glyph horiz-adv-x="625" d="M 0 289 L 114 349 L 176 700 L 262 700 L 210 400 L 417 510 L 404 441 L 198 332 L 153 76 L 538 76 L 524 0 L 53 0 L 102 282 L -14 221 L 0 289 Z" unicode="Ł" />
<glyph horiz-adv-x="257" d="M 0 342 L 91 389 L 156 755 L 239 755 L 183 437 L 273 485 L 261 418 L 171 371 L 106 0 L 23 0 L 80 324 L -13 275 L 0 342 Z" unicode="ł" />
<glyph horiz-adv-x="715" d="M 515 889 L 579 843 L 444 755 L 383 755 L 515 889 Z M 147 700 L 224 700 L 514 130 L 615 700 L 698 700 L 574 0 L 496 0 L 207 569 L 107 0 L 24 0 L 147 700 Z" unicode="Ń" />
<glyph horiz-adv-x="574" d="M 451 751 L 509 706 L 344 574 L 287 574 L 451 751 Z M 414 334 C 415 342 416 352 418 364 C 420 376 421 386 421 396 C 421 416 415 432 405 445 C 394 458 375 465 349 465 C 315 465 282 452 251 428 C 219 404 188 370 158 326 L 100 0 L 18 0 L 108 519 L 177 519 L 168 414 C 192 445 221 472 255 495 C 289 518 327 530 370 530 C 414 530 447 518 470 494 C 492 470 504 440 504 404 C 504 392 503 379 501 363 C 499 347 497 334 495 323 L 437 0 L 355 0 L 414 334 Z" unicode="ń" />
<glyph horiz-adv-x="715" d="M 147 700 L 224 700 L 514 130 L 615 700 L 698 700 L 574 0 L 496 0 L 207 569 L 107 0 L 24 0 L 147 700 Z M 242 -56 C 248 -53 255 -51 263 -51 C 270 -50 277 -50 285 -50 C 309 -50 327 -55 339 -66 C 351 -77 357 -91 357 -109 C 357 -130 349 -149 335 -167 C 320 -185 304 -200 287 -214 L 226 -214 C 267 -176 288 -147 288 -126 C 288 -118 285 -112 281 -108 C 277 -103 269 -101 258 -101 C 250 -101 242 -102 233 -104 L 242 -56 Z" unicode="Ņ" />
<glyph horiz-adv-x="574" d="M 414 334 C 415 342 416 352 418 364 C 420 376 421 386 421 396 C 421 416 415 432 405 445 C 394 458 375 465 349 465 C 315 465 282 452 251 428 C 219 404 188 370 158 326 L 100 0 L 18 0 L 108 519 L 177 519 L 168 414 C 192 445 221 472 255 495 C 289 518 327 530 370 530 C 414 530 447 518 470 494 C 492 470 504 440 504 404 C 504 392 503 379 501 363 C 499 347 497 334 495 323 L 437 0 L 355 0 L 414 334 Z M 170 -56 C 177 -53 184 -51 192 -51 C 199 -50 206 -50 214 -50 C 238 -50 256 -55 268 -66 C 280 -77 286 -91 286 -109 C 286 -130 278 -149 264 -167 C 249 -185 233 -200 216 -214 L 156 -214 C 196 -176 217 -146 217 -126 C 217 -118 214 -112 210 -108 C 206 -103 198 -101 187 -101 C 179 -101 171 -102 162 -104 L 170 -56 Z" unicode="ņ" />
<glyph horiz-adv-x="715" d="M 281 870 L 335 870 L 428 803 L 429 803 L 547 870 L 611 870 L 466 755 L 383 755 L 281 870 Z M 147 700 L 224 700 L 514 130 L 615 700 L 698 700 L 574 0 L 496 0 L 207 569 L 107 0 L 24 0 L 147 700 Z" unicode="Ň" />
<glyph horiz-adv-x="574" d="M 191 732 L 243 732 L 333 623 L 334 623 L 462 732 L 524 732 L 373 574 L 288 574 L 191 732 Z M 414 334 C 415 342 416 352 418 364 C 420 376 421 386 421 396 C 421 416 415 432 405 445 C 394 458 375 465 349 465 C 315 465 282 452 251 428 C 219 404 188 370 158 326 L 100 0 L 18 0 L 108 519 L 177 519 L 168 414 C 192 445 221 472 255 495 C 289 518 327 530 370 530 C 414 530 447 518 470 494 C 492 470 504 440 504 404 C 504 392 503 379 501 363 C 499 347 497 334 495 323 L 437 0 L 355 0 L 414 334 Z" unicode="ň" />
<glyph horiz-adv-x="715" d="M 147 700 L 224 700 L 515 135 L 615 700 L 698 700 L 570 -26 C 558 -90 538 -137 508 -166 C 478 -195 438 -210 389 -210 C 373 -210 358 -207 344 -203 C 330 -199 318 -193 309 -187 L 342 -127 C 348 -130 354 -133 362 -135 C 370 -137 378 -139 387 -139 C 411 -139 432 -129 450 -111 C 468 -93 481 -61 489 -16 L 493 11 L 207 569 L 107 0 L 24 0 L 147 700 Z" unicode="Ŋ" />
<glyph horiz-adv-x="574" d="M 414 334 C 415 342 416 352 418 364 C 420 376 421 386 421 396 C 421 416 415 432 405 445 C 394 458 375 465 349 465 C 315 465 282 452 251 428 C 219 404 188 370 158 326 L 100 0 L 18 0 L 108 519 L 177 519 L 168 414 C 192 445 221 472 255 496 C 289 519 327 531 370 531 C 414 531 447 518 470 494 C 492 470 504 440 504 404 C 504 392 503 379 501 363 C 499 347 497 334 495 323 L 433 -26 C 421 -90 401 -137 371 -166 C 341 -195 301 -210 253 -210 C 237 -210 223 -207 209 -203 C 195 -199 183 -193 174 -187 L 207 -130 C 213 -133 219 -136 227 -138 C 234 -140 242 -141 251 -141 C 275 -141 296 -131 314 -113 C 331 -95 344 -63 352 -17 L 414 334 Z" unicode="ŋ" />
<glyph horiz-adv-x="801" d="M 337 842 L 629 842 L 619 783 L 326 783 L 337 842 Z M 51 292 C 51 352 61 407 82 458 C 103 509 132 553 169 591 C 205 629 248 658 298 680 C 348 701 401 712 458 712 C 498 712 537 705 573 691 C 609 677 641 658 668 632 C 695 606 717 574 733 536 C 749 498 757 456 757 408 C 757 348 746 292 725 241 C 704 190 675 146 639 108 C 602 70 559 41 510 20 C 460 -1 407 -12 350 -12 C 309 -12 270 -5 234 8 C 198 22 166 42 139 68 C 112 94 91 125 75 163 C 59 201 51 244 51 292 Z M 139 300 C 139 262 144 229 155 199 C 165 169 180 144 199 124 C 218 104 241 88 268 78 C 294 67 324 62 357 62 C 398 62 437 70 475 87 C 512 103 545 127 574 157 C 603 187 626 222 643 264 C 660 305 669 350 669 400 C 669 437 663 470 653 500 C 642 530 627 555 608 575 C 589 595 566 611 540 622 C 513 632 484 638 452 638 C 411 638 372 629 334 613 C 296 596 262 573 234 543 C 205 513 182 477 165 436 C 147 394 139 349 139 300 Z" unicode="Ō" />
<glyph horiz-adv-x="595" d="M 210 682 L 501 682 L 491 624 L 200 624 L 210 682 Z M 245 -12 C 213 -12 185 -6 159 3 C 133 13 110 28 92 48 C 73 68 58 92 48 120 C 38 148 33 180 33 216 C 33 261 40 303 55 341 C 70 379 91 413 117 441 C 143 469 175 491 211 507 C 247 523 285 531 327 531 C 359 531 388 525 414 515 C 440 505 462 490 481 470 C 499 450 514 426 524 398 C 534 370 540 338 540 303 C 540 257 532 215 517 177 C 502 138 481 105 455 77 C 428 49 397 27 361 11 C 325 -4 286 -12 245 -12 Z M 253 54 C 280 54 306 60 331 73 C 355 86 377 104 396 126 C 414 148 429 175 440 205 C 450 235 456 268 456 302 C 456 355 444 395 420 423 C 396 451 363 465 320 465 C 292 465 266 458 242 445 C 217 432 195 414 177 392 C 158 370 143 343 132 313 C 121 283 116 251 116 217 C 116 163 127 123 151 95 C 175 67 209 54 253 54 Z" unicode="ō" />
<glyph horiz-adv-x="801" d="M 465 750 C 421 750 387 760 362 782 C 336 803 322 832 320 870 L 377 870 C 380 850 389 835 405 824 C 421 812 443 807 471 807 C 499 807 522 812 542 824 C 562 835 577 850 588 870 L 651 870 C 635 832 612 802 582 781 C 551 760 512 750 465 750 Z M 51 292 C 51 352 61 407 82 458 C 103 509 132 553 169 591 C 205 629 248 658 298 680 C 348 701 401 712 458 712 C 498 712 537 705 573 691 C 609 677 641 658 668 632 C 695 606 717 574 733 536 C 749 498 757 456 757 408 C 757 348 746 292 725 241 C 704 190 675 146 639 108 C 602 70 559 41 510 20 C 460 -1 407 -12 350 -12 C 309 -12 270 -5 234 8 C 198 22 166 42 139 68 C 112 94 91 125 75 163 C 59 201 51 244 51 292 Z M 139 300 C 139 262 144 229 155 199 C 165 169 180 144 199 124 C 218 104 241 88 268 78 C 294 67 324 62 357 62 C 398 62 437 70 475 87 C 512 103 545 127 574 157 C 603 187 626 222 643 264 C 660 305 669 350 669 400 C 669 437 663 470 653 500 C 642 530 627 555 608 575 C 589 595 566 611 540 622 C 513 632 484 638 452 638 C 411 638 372 629 334 613 C 296 596 262 573 234 543 C 205 513 182 477 165 436 C 147 394 139 349 139 300 Z" unicode="Ŏ" />
<glyph horiz-adv-x="595" d="M 339 569 C 293 569 259 583 235 613 C 211 642 202 682 207 732 L 261 732 C 259 699 266 673 280 655 C 294 637 315 628 345 628 C 374 628 399 637 421 655 C 442 673 457 699 467 732 L 526 732 C 513 680 491 639 459 611 C 427 583 387 569 339 569 Z M 245 -12 C 213 -12 185 -6 159 3 C 133 13 110 28 92 48 C 73 68 58 92 48 120 C 38 148 33 180 33 216 C 33 261 40 303 55 341 C 70 379 91 413 117 441 C 143 469 175 491 211 507 C 247 523 285 531 327 531 C 359 531 388 525 414 515 C 440 505 462 490 481 470 C 499 450 514 426 524 398 C 534 370 540 338 540 303 C 540 257 532 215 517 177 C 502 138 481 105 455 77 C 428 49 397 27 361 11 C 325 -4 286 -12 245 -12 Z M 253 54 C 280 54 306 60 331 73 C 355 86 377 104 396 126 C 414 148 429 175 440 205 C 450 235 456 268 456 302 C 456 355 444 395 420 423 C 396 451 363 465 320 465 C 292 465 266 458 242 445 C 217 432 195 414 177 392 C 158 370 143 343 132 313 C 121 283 116 251 116 217 C 116 163 127 123 151 95 C 175 67 209 54 253 54 Z" unicode="ŏ" />
<glyph horiz-adv-x="801" d="M 644 889 L 706 843 L 574 755 L 513 755 L 644 889 Z M 482 889 L 543 843 L 411 755 L 350 755 L 482 889 Z M 51 292 C 51 352 61 407 82 458 C 103 509 132 553 169 591 C 205 629 248 658 298 680 C 348 701 401 712 458 712 C 498 712 537 705 573 691 C 609 677 641 658 668 632 C 695 606 717 574 733 536 C 749 498 757 456 757 408 C 757 348 746 292 725 241 C 704 190 675 146 639 108 C 602 70 559 41 510 20 C 460 -1 407 -12 350 -12 C 309 -12 270 -5 234 8 C 198 22 166 42 139 68 C 112 94 91 125 75 163 C 59 201 51 244 51 292 Z M 139 300 C 139 262 144 229 155 199 C 165 169 180 144 199 124 C 218 104 241 88 268 78 C 294 67 324 62 357 62 C 398 62 437 70 475 87 C 512 103 545 127 574 157 C 603 187 626 222 643 264 C 660 305 669 350 669 400 C 669 437 663 470 653 500 C 642 530 627 555 608 575 C 589 595 566 611 540 622 C 513 632 484 638 452 638 C 411 638 372 629 334 613 C 296 596 262 573 234 543 C 205 513 182 477 165 436 C 147 394 139 349 139 300 Z" unicode="Ő" />
<glyph horiz-adv-x="595" d="M 537 751 L 593 709 L 432 574 L 376 574 L 537 751 Z M 380 751 L 437 709 L 276 574 L 221 574 L 380 751 Z M 245 -12 C 213 -12 185 -6 159 3 C 133 13 110 28 92 48 C 73 68 58 92 48 120 C 38 148 33 180 33 216 C 33 261 40 303 55 341 C 70 379 91 413 117 441 C 143 469 175 491 211 507 C 247 523 285 531 327 531 C 359 531 388 525 414 515 C 440 505 462 490 481 470 C 499 450 514 426 524 398 C 534 370 540 338 540 303 C 540 257 532 215 517 177 C 502 138 481 105 455 77 C 428 49 397 27 361 11 C 325 -4 286 -12 245 -12 Z M 253 54 C 280 54 306 60 331 73 C 355 86 377 104 396 126 C 414 148 429 175 440 205 C 450 235 456 268 456 302 C 456 355 444 395 420 423 C 396 451 363 465 320 465 C 292 465 266 458 242 445 C 217 432 195 414 177 392 C 158 370 143 343 132 313 C 121 283 116 251 116 217 C 116 163 127 123 151 95 C 175 67 209 54 253 54 Z" unicode="ő" />
<glyph horiz-adv-x="1209" d="M 139 300 C 139 262 144 229 155 199 C 165 169 180 144 199 124 C 218 104 241 88 268 78 C 294 67 324 62 356 62 C 396 62 435 70 473 87 C 511 103 544 127 573 157 C 602 187 625 222 643 264 C 660 305 669 350 669 400 C 669 437 663 470 653 500 C 642 530 627 555 608 575 C 589 595 566 611 540 622 C 513 632 484 638 452 638 C 411 638 372 629 334 613 C 296 596 263 573 234 543 C 205 513 182 477 165 436 C 147 394 139 349 139 300 Z M 51 292 C 51 352 61 407 82 459 C 103 510 132 554 169 592 C 205 629 248 658 298 680 C 347 701 400 712 456 712 C 485 712 513 708 539 700 C 565 692 589 681 611 667 C 633 652 651 634 667 614 C 683 593 695 570 703 545 L 730 700 L 1205 700 L 1192 624 L 803 624 L 762 392 L 1111 392 L 1099 321 L 749 321 L 706 76 L 1100 76 L 1087 0 L 607 0 L 629 128 C 595 84 554 50 506 25 C 457 0 403 -12 345 -12 C 305 -12 268 -5 232 8 C 196 22 165 42 138 68 C 111 94 90 125 74 163 C 58 201 51 244 51 292 Z" unicode="Œ" />
<glyph horiz-adv-x="976" d="M 33 216 C 33 261 40 303 55 341 C 70 379 91 413 117 441 C 143 469 175 491 211 507 C 247 523 285 531 327 531 C 375 531 415 518 447 494 C 479 470 500 435 512 391 C 537 434 571 468 614 493 C 656 518 706 531 762 531 C 788 531 811 527 832 520 C 853 513 871 504 885 492 C 899 480 911 466 919 450 C 927 434 931 417 931 399 C 931 350 903 313 849 288 C 794 262 716 250 615 250 L 538 250 C 536 239 535 227 535 214 C 535 163 546 124 569 97 C 592 69 627 56 675 56 C 703 56 729 60 755 70 C 781 79 804 91 826 106 L 861 48 C 834 30 804 15 771 4 C 737 -6 702 -12 664 -12 C 614 -12 573 0 542 23 C 510 46 489 80 478 124 C 454 82 422 48 382 24 C 341 0 295 -12 245 -12 C 213 -12 185 -6 159 3 C 133 13 110 28 92 48 C 73 68 58 92 48 120 C 38 148 33 180 33 216 Z M 754 467 C 710 467 669 453 632 425 C 594 397 567 359 551 311 L 620 311 C 701 311 759 319 795 335 C 831 351 849 373 849 400 C 849 418 840 433 824 447 C 807 460 784 467 754 467 Z M 253 54 C 280 54 306 60 331 73 C 355 86 377 104 396 126 C 414 148 429 175 440 205 C 450 235 456 268 456 302 C 456 355 444 395 420 423 C 396 451 363 465 320 465 C 292 465 266 458 242 445 C 217 432 195 414 177 392 C 158 370 143 343 132 313 C 121 283 116 251 116 217 C 116 163 127 123 151 95 C 175 67 209 54 253 54 Z" unicode="œ" />
<glyph horiz-adv-x="673" d="M 479 889 L 543 843 L 408 755 L 347 755 L 479 889 Z M 373 350 C 403 350 430 355 453 365 C 476 375 495 388 510 404 C 525 420 536 437 544 457 C 551 477 555 496 555 515 C 555 531 552 545 548 559 C 544 573 536 585 526 595 C 516 605 502 613 486 619 C 469 625 448 628 423 628 L 221 628 L 172 350 L 373 350 Z M 147 700 L 432 700 C 467 700 498 695 524 685 C 550 675 572 662 590 646 C 607 629 620 610 629 588 C 638 566 643 542 643 518 C 643 492 639 468 631 444 C 623 420 612 398 596 378 C 580 358 561 340 538 326 C 515 311 488 300 457 292 L 548 0 L 463 0 L 380 282 L 160 282 L 110 0 L 24 0 L 147 700 Z" unicode="Ŕ" />
<glyph horiz-adv-x="397" d="M 379 751 L 437 706 L 272 574 L 215 574 L 379 751 Z M 108 519 L 175 519 L 167 414 C 190 450 216 479 246 500 C 276 521 309 532 346 532 C 360 532 372 530 383 528 C 393 526 403 523 411 520 L 384 447 C 368 453 349 457 327 457 C 295 457 266 444 238 419 C 210 393 182 358 156 314 L 100 0 L 18 0 L 108 519 Z" unicode="ŕ" />
<glyph horiz-adv-x="673" d="M 373 350 C 403 350 430 355 453 365 C 476 375 495 388 510 404 C 525 420 536 437 544 457 C 551 477 555 496 555 515 C 555 531 552 545 548 559 C 544 573 536 585 526 595 C 516 605 502 613 486 619 C 469 625 448 628 423 628 L 221 628 L 172 350 L 373 350 Z M 110 0 L 24 0 L 147 700 L 432 700 C 467 700 498 695 524 685 C 550 675 572 662 590 646 C 607 629 620 610 629 588 C 638 566 643 542 643 518 C 643 492 639 468 631 444 C 623 420 612 398 596 378 C 580 358 561 340 538 326 C 515 311 488 300 457 292 L 548 0 L 463 0 L 380 282 L 160 282 L 110 0 Z M 215 -56 C 221 -53 228 -51 236 -51 C 243 -50 250 -50 258 -50 C 282 -50 300 -55 312 -66 C 324 -77 330 -91 330 -109 C 330 -130 322 -149 308 -167 C 293 -185 277 -200 260 -214 L 199 -214 C 240 -176 261 -147 261 -126 C 261 -118 258 -112 254 -108 C 250 -103 242 -101 231 -101 C 223 -101 215 -102 206 -104 L 215 -56 Z" unicode="Ŗ" />
<glyph horiz-adv-x="397" d="M 108 519 L 175 519 L 167 414 C 190 450 216 479 246 500 C 276 521 309 532 346 532 C 360 532 372 530 383 528 C 393 526 403 523 411 520 L 384 447 C 368 453 349 457 327 457 C 295 457 266 444 238 419 C 210 393 182 358 156 314 L 100 0 L 18 0 L 108 519 Z M 6 -56 C 13 -53 20 -51 28 -51 C 35 -50 42 -50 50 -50 C 74 -50 92 -55 104 -66 C 116 -77 122 -91 122 -109 C 122 -130 114 -149 100 -167 C 85 -185 69 -200 52 -214 L -8 -214 C 32 -176 53 -146 53 -126 C 53 -118 50 -112 46 -108 C 42 -103 34 -101 23 -101 C 15 -101 7 -102 -2 -104 L 6 -56 Z" unicode="ŗ" />
<glyph horiz-adv-x="673" d="M 250 870 L 304 870 L 397 803 L 398 803 L 516 870 L 580 870 L 435 755 L 352 755 L 250 870 Z M 373 350 C 403 350 430 355 453 365 C 476 375 495 388 510 404 C 525 420 536 437 544 457 C 551 477 555 496 555 515 C 555 531 552 545 548 559 C 544 573 536 585 526 595 C 516 605 502 613 486 619 C 469 625 448 628 423 628 L 221 628 L 172 350 L 373 350 Z M 110 0 L 24 0 L 147 700 L 432 700 C 467 700 498 695 524 685 C 550 675 572 662 590 646 C 607 629 620 610 629 588 C 638 566 643 542 643 518 C 643 492 639 468 631 444 C 623 420 612 398 596 378 C 580 358 561 340 538 326 C 515 311 488 300 457 292 L 548 0 L 463 0 L 380 282 L 160 282 L 110 0 Z" unicode="Ř" />
<glyph horiz-adv-x="397" d="M 130 732 L 182 732 L 272 623 L 273 623 L 401 732 L 463 732 L 312 574 L 227 574 L 130 732 Z M 108 519 L 175 519 L 167 414 C 190 450 216 479 246 500 C 276 521 309 532 346 532 C 360 532 372 530 383 528 C 393 526 403 523 411 520 L 384 447 C 368 453 349 457 327 457 C 295 457 266 444 238 419 C 210 393 182 358 156 314 L 100 0 L 18 0 L 108 519 Z" unicode="ř" />
<glyph horiz-adv-x="607" d="M 460 889 L 524 843 L 389 755 L 328 755 L 460 889 Z M 59 131 C 83 113 112 97 146 84 C 180 70 218 64 260 64 C 290 64 316 67 339 75 C 362 82 381 92 397 104 C 412 116 423 130 431 146 C 439 162 443 180 443 198 C 443 218 439 234 431 247 C 423 259 411 270 397 278 C 383 286 366 294 347 300 C 327 306 306 312 284 319 C 260 325 237 333 214 341 C 191 349 171 360 153 374 C 135 388 120 404 109 424 C 97 444 92 468 92 498 C 92 528 98 556 110 582 C 122 608 140 630 164 650 C 187 669 215 684 249 695 C 282 706 320 712 362 712 C 408 712 449 706 486 694 C 523 682 555 668 582 653 L 541 588 C 515 602 487 614 457 623 C 427 631 393 636 355 636 C 329 636 305 632 284 626 C 263 619 245 610 230 598 C 215 586 203 572 195 556 C 187 540 183 523 183 505 C 183 486 187 470 195 458 C 203 446 213 435 227 427 C 241 419 257 412 276 406 C 295 400 316 395 338 389 C 361 382 384 374 408 366 C 431 357 452 346 470 332 C 488 318 503 301 515 281 C 527 261 533 235 533 204 C 533 174 527 146 515 120 C 503 94 486 71 463 51 C 439 31 410 16 375 5 C 339 -6 298 -12 251 -12 C 199 -12 153 -3 112 12 C 71 28 37 47 11 68 L 59 131 Z" unicode="Ś" />
<glyph horiz-adv-x="467" d="M 385 751 L 443 706 L 278 574 L 221 574 L 385 751 Z M 33 103 C 51 89 73 78 99 68 C 125 58 153 54 184 54 C 222 54 254 62 278 78 C 302 94 315 117 315 145 C 315 159 311 170 305 179 C 299 188 290 196 280 202 C 269 208 257 214 243 218 C 229 222 214 226 199 230 C 180 234 162 240 144 247 C 126 254 111 263 97 274 C 83 285 73 298 65 314 C 57 330 53 348 53 370 C 53 395 58 417 69 437 C 80 457 95 473 114 487 C 133 501 155 511 181 519 C 207 526 235 530 265 530 C 295 530 324 526 353 518 C 381 510 408 498 433 484 L 392 427 C 374 437 354 446 330 453 C 306 460 281 464 257 464 C 240 464 224 461 210 457 C 195 452 182 446 171 438 C 160 430 151 420 145 409 C 138 397 135 385 135 372 C 135 358 138 347 144 338 C 150 329 159 322 170 316 C 180 310 193 305 207 301 C 221 297 235 293 250 290 C 269 285 287 279 305 273 C 323 266 338 257 352 247 C 365 237 376 224 384 208 C 392 192 396 173 396 151 C 396 99 376 59 337 31 C 297 2 243 -12 175 -12 C 136 -12 101 -6 70 6 C 39 18 13 32 -8 48 L 33 103 Z" unicode="ś" />
<glyph horiz-adv-x="607" d="M 353 870 L 436 870 L 538 755 L 484 755 L 390 823 L 388 823 L 271 755 L 208 755 L 353 870 Z M 59 131 C 83 113 112 97 146 84 C 180 70 218 64 260 64 C 290 64 316 67 339 75 C 362 82 381 92 397 104 C 412 116 423 130 431 146 C 439 162 443 180 443 198 C 443 218 439 234 431 247 C 423 259 411 270 397 278 C 383 286 366 294 347 300 C 327 306 306 312 284 319 C 260 325 237 333 214 341 C 191 349 171 360 153 374 C 135 388 120 404 109 424 C 97 444 92 468 92 498 C 92 528 98 556 110 582 C 122 608 140 630 164 650 C 187 669 215 684 249 695 C 282 706 320 712 362 712 C 408 712 449 706 486 694 C 523 682 555 668 582 653 L 541 588 C 515 602 487 614 457 623 C 427 631 393 636 355 636 C 329 636 305 632 284 626 C 263 619 245 610 230 598 C 215 586 203 572 195 556 C 187 540 183 523 183 505 C 183 486 187 470 195 458 C 203 446 213 435 227 427 C 241 419 257 412 276 406 C 295 400 316 395 338 389 C 361 382 384 374 408 366 C 431 357 452 346 470 332 C 488 318 503 301 515 281 C 527 261 533 235 533 204 C 533 174 527 146 515 120 C 503 94 486 71 463 51 C 439 31 410 16 375 5 C 339 -6 298 -12 251 -12 C 199 -12 153 -3 112 12 C 71 28 37 47 11 68 L 59 131 Z" unicode="Ŝ" />
<glyph horiz-adv-x="467" d="M 259 732 L 344 732 L 440 574 L 387 574 L 299 681 L 297 681 L 171 574 L 106 574 L 259 732 Z M 33 103 C 51 89 73 78 99 68 C 125 58 153 54 184 54 C 222 54 254 62 278 78 C 302 94 315 117 315 145 C 315 159 311 170 305 179 C 299 188 290 196 280 202 C 269 208 257 214 243 218 C 229 222 214 226 199 230 C 180 234 162 240 144 247 C 126 254 111 263 97 274 C 83 285 73 298 65 314 C 57 330 53 348 53 370 C 53 395 58 417 69 437 C 80 457 95 473 114 487 C 133 501 155 511 181 519 C 207 526 235 530 265 530 C 295 530 324 526 353 518 C 381 510 408 498 433 484 L 392 427 C 374 437 354 446 330 453 C 306 460 281 464 257 464 C 240 464 224 461 210 457 C 195 452 182 446 171 438 C 160 430 151 420 145 409 C 138 397 135 385 135 372 C 135 358 138 347 144 338 C 150 329 159 322 170 316 C 180 310 193 305 207 301 C 221 297 235 293 250 290 C 269 285 287 279 305 273 C 323 266 338 257 352 247 C 365 237 376 224 384 208 C 392 192 396 173 396 151 C 396 99 376 59 337 31 C 297 2 243 -12 175 -12 C 136 -12 101 -6 70 6 C 39 18 13 32 -8 48 L 33 103 Z" unicode="ŝ" />
<glyph horiz-adv-x="607" d="M 62 -185 C 94 -161 124 -135 152 -105 C 180 -75 201 -44 216 -10 C 172 -6 133 2 98 17 C 63 32 34 49 11 68 L 59 131 C 83 113 112 97 146 84 C 180 70 218 64 260 64 C 290 64 316 67 339 75 C 362 82 381 92 397 104 C 412 116 423 130 431 146 C 439 162 443 180 443 198 C 443 218 439 234 431 247 C 423 259 411 270 397 278 C 383 286 366 294 347 300 C 327 306 306 312 284 319 C 260 325 237 333 214 341 C 191 349 171 360 153 374 C 135 388 120 404 109 424 C 97 444 92 468 92 498 C 92 528 98 556 110 582 C 122 608 140 630 164 650 C 187 669 215 684 249 695 C 282 706 320 712 362 712 C 408 712 449 706 486 694 C 523 682 555 668 582 653 L 541 588 C 515 602 487 614 457 623 C 427 631 393 636 355 636 C 329 636 305 632 284 626 C 263 619 245 610 230 598 C 215 586 203 572 195 556 C 187 540 183 523 183 505 C 183 486 187 470 195 458 C 203 446 213 435 227 427 C 241 419 257 412 276 406 C 295 400 316 395 338 389 C 361 382 384 374 408 366 C 431 357 452 346 470 332 C 488 318 503 301 515 281 C 527 261 533 235 533 204 C 533 176 527 149 517 124 C 506 98 490 76 469 57 C 447 37 421 22 389 10 C 357 -2 319 -9 276 -11 C 262 -51 243 -89 217 -123 C 191 -157 161 -189 125 -217 L 62 -185 Z" unicode="Ş" />
<glyph horiz-adv-x="467" d="M -6 -185 C 26 -161 56 -135 84 -105 C 112 -75 133 -44 148 -10 C 115 -7 86 0 60 10 C 34 21 11 34 -8 48 L 33 103 C 51 89 73 78 99 68 C 125 58 153 54 184 54 C 222 54 254 62 278 78 C 302 94 315 117 315 145 C 315 159 311 170 305 179 C 299 188 290 196 280 202 C 269 208 257 214 243 218 C 229 222 214 226 199 230 C 180 234 162 240 144 247 C 126 254 111 263 97 274 C 83 285 73 298 65 314 C 57 330 53 348 53 370 C 53 395 58 417 69 437 C 80 457 95 473 114 487 C 133 501 155 511 181 519 C 207 526 235 530 265 530 C 295 530 324 526 353 518 C 381 510 408 498 433 484 L 392 427 C 374 437 354 446 330 453 C 306 460 281 464 257 464 C 240 464 224 461 210 457 C 195 452 182 446 171 438 C 160 430 151 420 145 409 C 138 397 135 385 135 372 C 135 358 138 347 144 338 C 150 329 159 322 170 316 C 180 310 193 305 207 301 C 221 297 235 293 250 290 C 269 285 287 279 305 273 C 323 266 338 257 352 247 C 365 237 376 224 384 208 C 392 192 396 173 396 151 C 396 103 379 66 346 38 C 312 10 266 -5 208 -10 C 194 -50 175 -88 149 -123 C 123 -157 93 -189 57 -217 L -6 -185 Z" unicode="ş" />
<glyph horiz-adv-x="610" d="M 229 870 L 283 870 L 376 803 L 377 803 L 495 870 L 559 870 L 414 755 L 331 755 L 229 870 Z M 59 131 C 83 113 112 97 146 84 C 180 70 218 64 260 64 C 290 64 316 67 339 75 C 362 82 381 92 397 104 C 412 116 423 130 431 146 C 439 162 443 180 443 198 C 443 218 439 234 431 247 C 423 259 411 270 397 278 C 383 286 366 294 347 300 C 327 306 306 312 284 319 C 260 325 237 333 214 341 C 191 349 171 360 153 374 C 135 388 120 404 109 424 C 97 444 92 468 92 498 C 92 528 98 556 110 582 C 122 608 140 630 164 650 C 187 669 215 684 249 695 C 282 706 320 712 362 712 C 408 712 449 706 486 694 C 523 682 555 668 582 653 L 541 588 C 515 602 487 614 457 623 C 427 631 393 636 355 636 C 329 636 305 632 284 626 C 263 619 245 610 230 598 C 215 586 203 572 195 556 C 187 540 183 523 183 505 C 183 486 187 470 195 458 C 203 446 213 435 227 427 C 241 419 257 412 276 406 C 295 400 316 395 338 389 C 361 382 384 374 408 366 C 431 357 452 346 470 332 C 488 318 503 301 515 281 C 527 261 533 235 533 204 C 533 174 527 146 515 120 C 503 94 486 71 463 51 C 439 31 410 16 375 5 C 339 -6 298 -12 251 -12 C 199 -12 153 -3 112 12 C 71 28 37 47 11 68 L 59 131 Z" unicode="Š" />
<glyph horiz-adv-x="467" d="M 134 732 L 186 732 L 276 623 L 277 623 L 405 732 L 467 732 L 316 574 L 231 574 L 134 732 Z M 33 103 C 51 89 73 78 99 68 C 125 58 153 54 184 54 C 222 54 254 62 278 78 C 302 94 315 117 315 145 C 315 159 311 170 305 179 C 299 188 290 196 280 202 C 269 208 257 214 243 218 C 229 222 214 226 199 230 C 180 234 162 240 144 247 C 126 254 111 263 97 274 C 83 285 73 298 65 314 C 57 330 53 348 53 370 C 53 395 58 417 69 437 C 80 457 95 473 114 487 C 133 501 155 511 181 519 C 207 526 235 530 265 530 C 295 530 324 526 353 518 C 381 510 408 498 433 484 L 392 427 C 374 437 354 446 330 453 C 306 460 281 464 257 464 C 240 464 224 461 210 457 C 195 452 182 446 171 438 C 160 430 151 420 145 409 C 138 397 135 385 135 372 C 135 358 138 347 144 338 C 150 329 159 322 170 316 C 180 310 193 305 207 301 C 221 297 235 293 250 290 C 269 285 287 279 305 273 C 323 266 338 257 352 247 C 365 237 376 224 384 208 C 392 192 396 173 396 151 C 396 99 376 59 337 31 C 297 2 243 -12 175 -12 C 136 -12 101 -6 70 6 C 39 18 13 32 -8 48 L 33 103 Z" unicode="š" />
<glyph horiz-adv-x="642" d="M 330 624 L 81 624 L 94 700 L 677 700 L 664 624 L 416 624 L 307 0 L 220 0 L 330 624 Z M 288 -46 C 273 -79 254 -110 231 -139 C 208 -167 182 -193 152 -217 L 88 -185 C 114 -165 140 -144 164 -121 C 188 -98 207 -73 223 -46 L 288 -46 Z" unicode="Ţ" />
<glyph horiz-adv-x="386" d="M 135 455 L 44 455 L 55 519 L 145 519 L 172 671 L 254 671 L 227 519 L 374 519 L 364 455 L 216 455 L 164 159 C 162 151 161 142 160 132 C 159 122 159 115 159 109 C 159 91 163 78 171 69 C 179 60 192 56 212 56 C 225 56 239 58 253 64 C 267 69 280 75 293 83 L 321 25 C 303 14 283 5 261 -1 C 239 -8 216 -12 194 -12 C 156 -12 126 -1 106 18 C 85 38 75 65 75 97 C 75 106 75 117 77 131 C 79 144 81 157 84 169 L 135 455 Z M 195 -46 C 180 -79 161 -110 138 -139 C 115 -167 89 -193 59 -217 L -5 -185 C 21 -165 47 -144 71 -121 C 95 -98 114 -73 130 -46 L 195 -46 Z" unicode="ţ" />
<glyph horiz-adv-x="642" d="M 245 870 L 299 870 L 392 803 L 393 803 L 511 870 L 575 870 L 430 755 L 347 755 L 245 870 Z M 330 624 L 81 624 L 94 700 L 677 700 L 664 624 L 416 624 L 307 0 L 220 0 L 330 624 Z" unicode="Ť" />
<glyph horiz-adv-x="386" d="M 326 677 C 327 685 328 693 330 701 C 331 709 332 717 334 725 C 347 729 361 731 377 731 C 401 731 419 725 431 714 C 443 703 450 689 450 672 C 450 650 442 631 427 613 C 412 595 396 579 379 566 L 319 566 C 360 603 381 632 381 654 C 381 662 378 668 374 673 C 370 677 362 680 351 680 C 342 680 334 679 326 677 Z M 135 455 L 44 455 L 55 519 L 145 519 L 172 671 L 254 671 L 227 519 L 374 519 L 364 455 L 216 455 L 164 159 C 162 151 161 142 160 132 C 159 122 159 115 159 109 C 159 91 163 78 171 69 C 179 60 192 56 212 56 C 225 56 239 58 253 64 C 267 69 280 75 293 83 L 321 25 C 303 14 283 5 261 -1 C 239 -8 216 -12 194 -12 C 156 -12 126 -1 106 18 C 85 38 75 65 75 97 C 75 106 75 117 77 131 C 79 144 81 157 84 169 L 135 455 Z" unicode="ť" />
<glyph horiz-adv-x="642" d="M 132 380 L 287 380 L 330 624 L 81 624 L 94 700 L 677 700 L 664 624 L 416 624 L 373 380 L 529 380 L 519 323 L 363 323 L 307 0 L 220 0 L 277 323 L 122 323 L 132 380 Z" unicode="Ŧ" />
<glyph horiz-adv-x="386" d="M 31 324 L 111 324 L 135 455 L 44 455 L 55 519 L 145 519 L 172 671 L 254 671 L 227 519 L 374 519 L 364 455 L 216 455 L 192 323 L 325 323 L 315 268 L 183 268 L 164 159 C 162 151 161 142 160 132 C 159 122 159 115 159 109 C 159 91 163 78 171 69 C 179 60 192 56 212 56 C 225 56 239 58 253 64 C 267 69 280 75 293 83 L 321 25 C 303 14 283 5 261 -1 C 239 -8 216 -12 194 -12 C 156 -12 126 -1 106 18 C 85 38 75 65 75 97 C 75 106 75 117 77 131 C 79 144 81 157 84 169 L 101 268 L 20 268 L 31 324 Z" unicode="ŧ" />
<glyph horiz-adv-x="707" d="M 278 760 C 279 796 288 825 306 845 C 323 865 346 875 375 875 C 389 875 402 871 413 865 C 424 858 434 851 443 843 C 452 835 461 827 469 821 C 477 814 486 811 496 811 C 508 811 517 815 525 825 C 533 835 537 848 539 865 L 592 865 C 590 828 580 800 563 780 C 545 760 522 751 494 751 C 479 751 466 754 456 760 C 445 766 435 774 426 782 C 417 790 408 797 400 803 C 392 809 383 813 373 813 C 361 813 352 808 344 799 C 336 790 332 777 331 760 L 278 760 Z M 145 700 L 231 700 L 154 271 C 152 260 150 248 149 236 C 148 224 148 213 148 203 C 148 156 162 121 191 97 C 220 73 259 62 307 62 C 333 62 358 66 382 74 C 406 82 427 94 447 111 C 467 127 484 148 498 174 C 512 199 523 229 529 263 L 605 700 L 691 700 L 614 259 C 606 214 592 175 573 141 C 553 107 530 78 502 56 C 474 33 442 16 406 5 C 370 -6 332 -12 292 -12 C 258 -12 228 -7 200 2 C 172 11 147 25 127 43 C 106 61 90 83 79 109 C 67 135 62 166 62 200 C 62 212 62 224 64 238 C 66 252 67 264 69 276 L 145 700 Z" unicode="Ũ" />
<glyph horiz-adv-x="570" d="M 183 600 C 185 636 194 665 211 685 C 228 705 251 715 280 715 C 294 715 307 711 318 705 C 328 698 338 691 347 683 C 356 675 365 668 373 662 C 381 655 391 652 401 652 C 413 652 422 656 430 666 C 437 675 441 688 443 706 L 496 706 C 494 670 484 641 467 621 C 450 601 427 591 398 591 C 383 591 370 594 360 601 C 350 607 340 614 331 622 C 322 630 314 637 306 644 C 298 650 289 654 279 654 C 267 654 257 649 249 640 C 241 630 237 617 236 600 L 183 600 Z M 435 0 L 369 0 L 376 104 C 350 71 321 43 288 21 C 255 0 217 -12 173 -12 C 129 -12 95 0 73 23 C 51 47 40 77 40 115 C 40 126 40 139 42 154 C 44 169 46 182 48 194 L 106 519 L 188 519 L 128 184 C 126 174 125 164 124 153 C 122 141 122 131 122 122 C 122 102 127 86 138 73 C 149 59 168 53 195 53 C 229 53 261 65 293 89 C 324 113 355 148 387 192 L 444 519 L 526 519 L 435 0 Z" unicode="ũ" />
<glyph horiz-adv-x="707" d="M 292 842 L 584 842 L 574 783 L 281 783 L 292 842 Z M 145 700 L 231 700 L 154 271 C 152 260 150 248 149 236 C 148 224 148 213 148 203 C 148 156 162 121 191 97 C 220 73 259 62 307 62 C 333 62 358 66 382 74 C 406 82 427 94 447 111 C 467 127 484 148 498 174 C 512 199 523 229 529 263 L 605 700 L 691 700 L 614 259 C 606 214 592 175 573 141 C 553 107 530 78 502 56 C 474 33 442 16 406 5 C 370 -6 332 -12 292 -12 C 258 -12 228 -7 200 2 C 172 11 147 25 127 43 C 106 61 90 83 79 109 C 67 135 62 166 62 200 C 62 212 62 224 64 238 C 66 252 67 264 69 276 L 145 700 Z" unicode="Ū" />
<glyph horiz-adv-x="570" d="M 198 682 L 489 682 L 479 624 L 188 624 L 198 682 Z M 435 0 L 369 0 L 376 104 C 350 71 321 43 288 21 C 255 0 217 -12 173 -12 C 129 -12 95 0 73 23 C 51 47 40 77 40 115 C 40 126 40 139 42 154 C 44 169 46 182 48 194 L 106 519 L 188 519 L 128 184 C 126 174 125 164 124 153 C 122 141 122 131 122 122 C 122 102 127 86 138 73 C 149 59 168 53 195 53 C 229 53 261 65 293 89 C 324 113 355 148 387 192 L 444 519 L 526 519 L 435 0 Z" unicode="ū" />
<glyph horiz-adv-x="707" d="M 424 750 C 380 750 346 760 321 782 C 295 803 281 832 279 870 L 336 870 C 339 850 348 835 364 824 C 380 812 402 807 430 807 C 458 807 481 812 501 824 C 521 835 536 850 547 870 L 610 870 C 594 832 571 802 541 781 C 510 760 471 750 424 750 Z M 145 700 L 231 700 L 154 271 C 152 260 150 248 149 236 C 148 224 148 213 148 203 C 148 156 162 121 191 97 C 220 73 259 62 307 62 C 333 62 358 66 382 74 C 406 82 427 94 447 111 C 467 127 484 148 498 174 C 512 199 523 229 529 263 L 605 700 L 691 700 L 614 259 C 606 214 592 175 573 141 C 553 107 530 78 502 56 C 474 33 442 16 406 5 C 370 -6 332 -12 292 -12 C 258 -12 228 -7 200 2 C 172 11 147 25 127 43 C 106 61 90 83 79 109 C 67 135 62 166 62 200 C 62 212 62 224 64 238 C 66 252 67 264 69 276 L 145 700 Z" unicode="Ŭ" />
<glyph horiz-adv-x="570" d="M 324 569 C 278 569 244 583 220 613 C 196 642 187 682 192 732 L 246 732 C 244 699 251 673 265 655 C 279 637 300 628 330 628 C 359 628 384 637 406 655 C 427 673 442 699 452 732 L 511 732 C 498 680 476 639 444 611 C 412 583 372 569 324 569 Z M 435 0 L 369 0 L 376 104 C 350 71 321 43 288 21 C 255 0 217 -12 173 -12 C 129 -12 95 0 73 23 C 51 47 40 77 40 115 C 40 126 40 139 42 154 C 44 169 46 182 48 194 L 106 519 L 188 519 L 128 184 C 126 174 125 164 124 153 C 122 141 122 131 122 122 C 122 102 127 86 138 73 C 149 59 168 53 195 53 C 229 53 261 65 293 89 C 324 113 355 148 387 192 L 444 519 L 526 519 L 435 0 Z" unicode="ŭ" />
<glyph horiz-adv-x="707" d="M 332 843 C 332 858 335 872 341 886 C 347 900 355 912 366 922 C 376 932 389 941 404 947 C 418 953 434 956 452 956 C 479 956 501 947 519 930 C 536 913 545 891 545 864 C 545 832 534 806 512 784 C 490 762 461 752 426 752 C 398 752 376 760 358 777 C 340 794 332 816 332 843 Z M 374 845 C 374 827 378 813 388 803 C 398 793 412 788 430 788 C 450 788 468 795 483 810 C 497 824 505 842 505 863 C 505 880 500 894 490 904 C 480 914 467 919 449 919 C 428 919 410 911 396 897 C 381 883 374 865 374 845 Z M 145 700 L 231 700 L 154 271 C 152 260 150 248 149 236 C 148 224 148 213 148 203 C 148 156 162 121 191 97 C 220 73 259 62 307 62 C 333 62 358 66 382 74 C 406 82 427 94 447 111 C 467 127 484 148 498 174 C 512 199 523 229 529 263 L 605 700 L 691 700 L 614 259 C 606 214 592 175 573 141 C 553 107 530 78 502 56 C 474 33 442 16 406 5 C 370 -6 332 -12 292 -12 C 258 -12 228 -7 200 2 C 172 11 147 25 127 43 C 106 61 90 83 79 109 C 67 135 62 166 62 200 C 62 212 62 224 64 238 C 66 252 67 264 69 276 L 145 700 Z" unicode="Ů" />
<glyph horiz-adv-x="570" d="M 231 660 C 231 692 242 719 264 741 C 286 763 315 774 350 774 C 376 774 398 765 416 749 C 434 732 444 710 444 684 C 444 652 432 625 410 603 C 388 581 359 570 324 570 C 298 570 276 578 258 595 C 240 612 231 634 231 660 Z M 273 663 C 273 646 277 632 287 622 C 296 612 310 607 328 607 C 347 607 364 614 380 628 C 395 642 403 660 403 682 C 403 698 398 712 388 722 C 378 732 364 737 346 737 C 326 737 309 729 295 715 C 280 701 273 683 273 663 Z M 435 0 L 369 0 L 376 104 C 350 71 321 43 288 21 C 255 0 217 -12 173 -12 C 129 -12 95 0 73 23 C 51 47 40 77 40 115 C 40 126 40 139 42 154 C 44 169 46 182 48 194 L 106 519 L 188 519 L 128 184 C 126 174 125 164 124 153 C 122 141 122 131 122 122 C 122 102 127 86 138 73 C 149 59 168 53 195 53 C 229 53 261 65 293 89 C 324 113 355 148 387 192 L 444 519 L 526 519 L 435 0 Z" unicode="ů" />
<glyph horiz-adv-x="707" d="M 594 889 L 656 843 L 524 755 L 463 755 L 594 889 Z M 432 889 L 493 843 L 361 755 L 300 755 L 432 889 Z M 145 700 L 231 700 L 154 271 C 152 260 150 248 149 236 C 148 224 148 213 148 203 C 148 156 162 121 191 97 C 220 73 259 62 307 62 C 333 62 358 66 382 74 C 406 82 427 94 447 111 C 467 127 484 148 498 174 C 512 199 523 229 529 263 L 605 700 L 691 700 L 614 259 C 606 214 592 175 573 141 C 553 107 530 78 502 56 C 474 33 442 16 406 5 C 370 -6 332 -12 292 -12 C 258 -12 228 -7 200 2 C 172 11 147 25 127 43 C 106 61 90 83 79 109 C 67 135 62 166 62 200 C 62 212 62 224 64 238 C 66 252 67 264 69 276 L 145 700 Z" unicode="Ű" />
<glyph horiz-adv-x="570" d="M 527 751 L 583 709 L 422 574 L 366 574 L 527 751 Z M 370 751 L 427 709 L 266 574 L 211 574 L 370 751 Z M 435 0 L 369 0 L 376 104 C 350 71 321 43 288 21 C 255 0 217 -12 173 -12 C 129 -12 95 0 73 23 C 51 47 40 77 40 115 C 40 126 40 139 42 154 C 44 169 46 182 48 194 L 106 519 L 188 519 L 128 184 C 126 174 125 164 124 153 C 122 141 122 131 122 122 C 122 102 127 86 138 73 C 149 59 168 53 195 53 C 229 53 261 65 293 89 C 324 113 355 148 387 192 L 444 519 L 526 519 L 435 0 Z" unicode="ű" />
<glyph horiz-adv-x="707" d="M 145 700 L 231 700 L 154 271 C 152 260 150 248 149 236 C 148 224 148 213 148 203 C 148 156 162 121 191 97 C 220 73 259 62 307 62 C 333 62 358 66 382 74 C 406 82 427 94 447 111 C 467 127 484 148 498 174 C 512 199 523 229 529 263 L 605 700 L 691 700 L 614 259 C 604 202 585 154 557 115 C 529 75 494 45 453 24 C 435 15 419 6 403 -3 C 387 -12 373 -22 361 -33 C 349 -43 339 -54 332 -66 C 324 -78 321 -91 321 -105 C 321 -130 336 -143 367 -143 C 378 -143 388 -141 398 -139 C 408 -136 416 -133 424 -129 L 426 -131 L 415 -193 C 405 -197 394 -200 382 -203 C 370 -205 358 -207 345 -207 C 316 -207 293 -199 277 -184 C 260 -169 252 -150 252 -126 C 252 -102 258 -81 272 -62 C 285 -42 301 -25 321 -10 C 317 -10 312 -11 306 -11 C 300 -11 295 -12 292 -12 C 258 -12 228 -7 200 2 C 172 11 147 25 127 43 C 106 61 90 83 79 109 C 67 135 62 166 62 200 C 62 212 62 225 64 239 C 66 252 67 264 69 276 L 145 700 Z" unicode="Ų" />
<glyph horiz-adv-x="570" d="M 435 0 C 425 -4 415 -9 403 -15 C 391 -21 379 -29 368 -38 C 357 -47 348 -57 341 -68 C 333 -79 330 -92 330 -106 C 330 -118 334 -128 342 -134 C 350 -140 360 -143 373 -143 C 384 -143 394 -141 404 -139 C 414 -136 422 -133 430 -129 L 432 -131 L 421 -193 C 411 -197 400 -200 388 -203 C 376 -205 363 -207 350 -207 C 324 -207 302 -199 286 -184 C 269 -169 261 -150 261 -127 C 261 -96 271 -70 293 -48 C 315 -26 340 -8 369 6 L 376 104 C 350 71 321 43 288 21 C 255 0 217 -12 173 -12 C 129 -12 95 0 73 23 C 51 47 40 77 40 115 C 40 126 40 139 42 154 C 44 169 46 182 48 194 L 106 519 L 188 519 L 128 184 C 126 174 125 164 124 153 C 122 141 122 131 122 122 C 122 102 127 86 138 73 C 149 59 168 53 195 53 C 229 53 261 65 293 89 C 324 113 355 148 387 192 L 444 519 L 526 519 L 435 0 Z" unicode="ų" />
<glyph horiz-adv-x="1019" d="M 552 870 L 635 870 L 737 755 L 683 755 L 589 823 L 587 823 L 470 755 L 407 755 L 552 870 Z M 95 700 L 181 700 L 256 117 L 258 117 L 525 700 L 610 700 L 677 117 L 679 117 L 959 700 L 1052 700 L 710 0 L 615 0 L 549 571 L 547 571 L 285 0 L 189 0 L 95 700 Z" unicode="Ŵ" />
<glyph horiz-adv-x="802" d="M 418 732 L 503 732 L 599 574 L 546 574 L 458 681 L 456 681 L 330 574 L 265 574 L 418 732 Z M 53 519 L 131 519 L 194 103 L 196 103 L 390 519 L 464 519 L 516 103 L 517 103 L 724 519 L 810 519 L 546 0 L 463 0 L 411 403 L 409 403 L 216 0 L 135 0 L 53 519 Z" unicode="ŵ" />
<glyph horiz-adv-x="658" d="M 375 870 L 458 870 L 560 755 L 506 755 L 412 823 L 410 823 L 293 755 L 230 755 L 375 870 Z M 276 285 L 91 700 L 184 700 L 330 368 L 331 368 L 591 700 L 695 700 L 362 284 L 312 0 L 226 0 L 276 285 Z" unicode="Ŷ" />
<glyph horiz-adv-x="500" d="M 270 732 L 355 732 L 451 574 L 398 574 L 310 681 L 308 681 L 182 574 L 117 574 L 270 732 Z M -45 -126 C -35 -130 -25 -134 -15 -137 C -4 -139 5 -141 15 -141 C 34 -141 51 -136 66 -126 C 80 -116 94 -98 108 -73 L 151 4 L 53 519 L 132 519 L 206 108 L 207 108 L 421 519 L 508 519 L 185 -85 C 171 -110 158 -131 145 -147 C 132 -163 119 -175 105 -185 C 91 -194 77 -200 62 -204 C 47 -208 31 -210 13 -210 C -3 -210 -18 -207 -34 -203 C -49 -199 -63 -193 -75 -186 L -45 -126 Z" unicode="ŷ" />
<glyph horiz-adv-x="658" d="M 276 854 L 353 854 L 338 772 L 261 772 L 276 854 Z M 474 854 L 550 854 L 535 772 L 459 772 L 474 854 Z M 276 285 L 91 700 L 184 700 L 330 368 L 331 368 L 591 700 L 695 700 L 362 284 L 312 0 L 226 0 L 276 285 Z" unicode="Ÿ" />
<glyph horiz-adv-x="638" d="M 467 889 L 531 843 L 396 755 L 335 755 L 467 889 Z M 9 71 L 512 623 L 108 623 L 121 700 L 640 700 L 627 629 L 126 78 L 541 78 L 527 0 L -3 0 L 9 71 Z" unicode="Ź" />
<glyph horiz-adv-x="494" d="M 398 751 L 456 706 L 291 574 L 234 574 L 398 751 Z M 3 58 L 358 452 L 79 452 L 90 519 L 474 519 L 464 459 L 108 66 L 404 66 L 393 0 L -9 0 L 3 58 Z" unicode="ź" />
<glyph horiz-adv-x="638" d="M 359 867 L 441 867 L 425 772 L 342 772 L 359 867 Z M 9 71 L 512 623 L 108 623 L 121 700 L 640 700 L 627 629 L 126 78 L 541 78 L 527 0 L -3 0 L 9 71 Z" unicode="Ż" />
<glyph horiz-adv-x="494" d="M 270 743 L 352 743 L 336 648 L 253 648 L 270 743 Z M 3 58 L 358 452 L 79 452 L 90 519 L 474 519 L 464 459 L 108 66 L 404 66 L 393 0 L -9 0 L 3 58 Z" unicode="ż" />
<glyph horiz-adv-x="638" d="M 240 870 L 294 870 L 387 803 L 388 803 L 506 870 L 570 870 L 425 755 L 342 755 L 240 870 Z M 9 71 L 512 623 L 108 623 L 121 700 L 640 700 L 627 629 L 126 78 L 541 78 L 527 0 L -3 0 L 9 71 Z" unicode="Ž" />
<glyph horiz-adv-x="494" d="M 145 732 L 197 732 L 287 623 L 288 623 L 416 732 L 478 732 L 327 574 L 242 574 L 145 732 Z M 3 58 L 358 452 L 79 452 L 90 519 L 474 519 L 464 459 L 108 66 L 404 66 L 393 0 L -9 0 L 3 58 Z" unicode="ž" />
<glyph horiz-adv-x="715" d="M 149 636 C 185 659 223 677 264 691 C 304 705 346 712 390 712 C 432 712 471 705 507 691 C 542 677 572 656 597 630 C 622 604 641 572 655 535 C 669 497 676 455 676 408 C 676 347 666 291 646 240 C 626 188 598 144 562 107 C 526 69 483 40 434 19 C 384 -1 331 -12 273 -12 C 237 -12 205 -7 177 1 C 149 10 125 22 105 38 C 85 54 70 72 60 93 C 50 113 45 135 45 158 C 45 189 51 217 65 243 C 79 269 101 291 133 309 C 165 327 206 342 257 352 C 308 362 371 367 446 367 L 584 367 C 584 373 585 380 585 386 C 585 392 586 399 586 406 C 586 480 569 537 535 577 C 501 616 450 636 381 636 C 350 636 318 630 285 620 C 252 610 219 594 187 574 L 149 636 Z M 275 61 C 313 61 348 67 381 79 C 413 91 443 107 469 129 C 495 151 517 177 535 207 C 553 237 566 270 575 307 L 450 307 C 392 307 342 303 302 297 C 262 291 229 282 203 270 C 177 258 159 243 148 226 C 136 208 131 189 131 167 C 131 137 143 111 168 91 C 192 71 228 61 275 61 Z" unicode="Ə" />
<glyph horiz-adv-x="406" d="M 124 402 L 33 402 L 45 466 L 135 466 L 143 511 C 167 645 241 713 365 713 C 382 713 400 711 418 707 C 436 703 450 699 462 694 L 427 635 C 419 638 410 640 399 642 C 388 644 377 645 366 645 C 329 645 299 634 276 614 C 252 594 236 558 228 508 L 220 466 L 361 466 L 350 402 L 209 402 L 135 -23 C 123 -88 102 -135 70 -165 C 38 -194 -2 -209 -52 -209 C -82 -209 -110 -203 -135 -193 L -106 -132 C -98 -134 -90 -136 -81 -138 C -72 -140 -62 -142 -52 -142 C -23 -142 -1 -131 15 -110 C 31 -89 43 -55 52 -9 L 124 402 Z" unicode="ƒ" />
<glyph horiz-adv-x="653" d="M 147 700 L 233 700 L 163 301 C 193 312 223 331 251 359 C 279 387 308 425 339 474 C 363 513 387 547 411 575 C 434 603 458 626 483 644 C 508 662 535 676 563 685 C 591 694 622 700 656 702 L 645 633 C 621 629 600 624 580 616 C 560 608 540 596 522 581 C 503 566 484 547 465 524 C 446 500 426 472 405 438 L 398 427 L 563 0 L 475 0 L 342 350 C 312 314 281 286 251 267 C 221 247 187 232 149 221 L 110 0 L 24 0 L 147 700 Z" unicode="Ƙ" />
<glyph horiz-adv-x="528" d="M 124 582 C 135 647 157 693 191 720 C 224 746 267 760 319 760 L 307 692 C 283 692 262 683 244 666 C 226 649 213 619 206 575 L 151 262 L 422 519 L 520 519 L 330 340 L 444 0 L 360 0 L 269 283 L 132 154 L 104 0 L 22 0 L 124 582 Z" unicode="ƙ" />
<glyph horiz-adv-x="801" d="M 51 292 C 51 352 61 407 82 458 C 103 509 132 553 169 591 C 205 629 248 658 298 680 C 348 701 401 712 458 712 C 498 712 537 705 573 691 C 609 677 641 658 668 632 C 695 606 717 574 733 536 C 749 498 757 456 757 408 C 757 348 746 292 725 241 C 704 190 675 146 639 108 C 602 70 559 41 510 20 C 460 -1 407 -12 350 -12 C 309 -12 270 -5 234 8 C 198 22 166 42 139 68 C 112 94 91 125 75 163 C 59 201 51 244 51 292 Z M 452 638 C 416 638 382 631 349 619 C 315 606 285 588 258 566 C 231 543 208 516 188 484 C 168 452 155 416 147 378 L 668 378 C 668 381 668 384 668 388 C 668 392 669 396 669 400 C 669 437 663 470 653 500 C 642 530 627 555 608 575 C 589 595 566 611 540 622 C 513 632 484 638 452 638 Z M 139 300 C 139 262 144 229 155 199 C 165 169 180 144 199 124 C 218 104 241 88 268 78 C 294 67 324 62 357 62 C 392 62 426 68 459 81 C 492 93 522 111 549 134 C 576 156 599 184 619 216 C 639 248 653 284 661 323 L 140 323 C 139 319 139 315 139 311 C 139 307 139 304 139 300 Z" unicode="Ɵ" />
<glyph horiz-adv-x="632" d="M 490 622 L 95 622 L 109 700 L 632 700 L 620 634 L 232 302 C 245 305 260 308 276 310 C 292 312 307 313 323 313 C 359 313 391 307 420 297 C 448 286 473 271 493 252 C 513 233 528 210 539 184 C 550 157 556 127 556 95 C 556 46 546 3 527 -35 C 507 -73 481 -105 448 -131 C 415 -157 377 -176 333 -190 C 289 -203 243 -210 194 -210 C 148 -210 106 -204 68 -194 C 30 -183 -2 -170 -32 -154 L 7 -89 C 32 -103 61 -114 93 -124 C 125 -133 160 -138 196 -138 C 231 -138 265 -132 298 -122 C 330 -112 359 -97 384 -78 C 409 -58 429 -34 444 -6 C 459 22 467 55 467 91 C 467 197 402 251 274 251 C 252 251 231 249 209 246 C 187 242 167 238 151 234 L 120 298 L 490 622 Z" unicode="Ʒ" />
<glyph horiz-adv-x="681" d="M 271 870 L 325 870 L 418 803 L 419 803 L 537 870 L 601 870 L 456 755 L 373 755 L 271 870 Z M 194 241 L 461 241 L 394 613 L 392 613 L 194 241 Z M 353 700 L 457 700 L 591 0 L 504 0 L 473 172 L 158 172 L 67 0 L -29 0 L 353 700 Z" unicode="Ǎ" />
<glyph horiz-adv-x="563" d="M 190 732 L 242 732 L 332 623 L 333 623 L 461 732 L 523 732 L 372 574 L 287 574 L 190 732 Z M 437 406 C 418 424 398 439 378 449 C 357 459 333 465 305 465 C 278 465 253 458 230 445 C 207 432 187 414 171 391 C 154 367 141 340 131 309 C 121 277 117 243 117 206 C 117 156 126 118 146 92 C 166 66 193 54 228 54 C 259 54 288 64 316 86 C 343 107 370 138 397 178 L 437 406 Z M 211 -12 C 185 -12 161 -7 139 2 C 117 12 99 26 83 44 C 67 62 54 84 46 110 C 37 136 33 166 33 200 C 33 247 39 291 53 332 C 67 372 85 407 109 437 C 133 466 161 489 193 506 C 225 522 261 531 299 531 C 333 531 363 524 389 510 C 415 496 435 479 451 461 L 466 519 L 539 519 L 470 127 C 468 121 467 116 467 110 C 466 104 466 99 466 96 C 466 71 480 59 509 59 L 499 -1 C 464 -1 437 5 418 18 C 399 31 389 53 389 85 C 337 20 278 -12 211 -12 Z" unicode="ǎ" />
<glyph horiz-adv-x="250" d="M 56 870 L 110 870 L 203 803 L 204 803 L 322 870 L 386 870 L 241 755 L 158 755 L 56 870 Z M 147 700 L 233 700 L 110 0 L 24 0 L 147 700 Z" unicode="Ǐ" />
<glyph horiz-adv-x="241" d="M 22 732 L 74 732 L 164 623 L 165 623 L 293 732 L 355 732 L 204 574 L 119 574 L 22 732 Z M 112 516 L 194 516 L 104 0 L 21 0 L 112 516 Z" unicode="ǐ" />
<glyph horiz-adv-x="801" d="M 323 870 L 377 870 L 470 803 L 471 803 L 589 870 L 653 870 L 508 755 L 425 755 L 323 870 Z M 51 292 C 51 352 61 407 82 458 C 103 509 132 553 169 591 C 205 629 248 658 298 680 C 348 701 401 712 458 712 C 498 712 537 705 573 691 C 609 677 641 658 668 632 C 695 606 717 574 733 536 C 749 498 757 456 757 408 C 757 348 746 292 725 241 C 704 190 675 146 639 108 C 602 70 559 41 510 20 C 460 -1 407 -12 350 -12 C 309 -12 270 -5 234 8 C 198 22 166 42 139 68 C 112 94 91 125 75 163 C 59 201 51 244 51 292 Z M 139 300 C 139 262 144 229 155 199 C 165 169 180 144 199 124 C 218 104 241 88 268 78 C 294 67 324 62 357 62 C 398 62 437 70 475 87 C 512 103 545 127 574 157 C 603 187 626 222 643 264 C 660 305 669 350 669 400 C 669 437 663 470 653 500 C 642 530 627 555 608 575 C 589 595 566 611 540 622 C 513 632 484 638 452 638 C 411 638 372 629 334 613 C 296 596 262 573 234 543 C 205 513 182 477 165 436 C 147 394 139 349 139 300 Z" unicode="Ǒ" />
<glyph horiz-adv-x="595" d="M 199 732 L 251 732 L 341 623 L 342 623 L 470 732 L 532 732 L 381 574 L 296 574 L 199 732 Z M 245 -12 C 213 -12 185 -6 159 3 C 133 13 110 28 92 48 C 73 68 58 92 48 120 C 38 148 33 180 33 216 C 33 261 40 303 55 341 C 70 379 91 413 117 441 C 143 469 175 491 211 507 C 247 523 285 531 327 531 C 359 531 388 525 414 515 C 440 505 462 490 481 470 C 499 450 514 426 524 398 C 534 370 540 338 540 303 C 540 257 532 215 517 177 C 502 138 481 105 455 77 C 428 49 397 27 361 11 C 325 -4 286 -12 245 -12 Z M 253 54 C 280 54 306 60 331 73 C 355 86 377 104 396 126 C 414 148 429 175 440 205 C 450 235 456 268 456 302 C 456 355 444 395 420 423 C 396 451 363 465 320 465 C 292 465 266 458 242 445 C 217 432 195 414 177 392 C 158 370 143 343 132 313 C 121 283 116 251 116 217 C 116 163 127 123 151 95 C 175 67 209 54 253 54 Z" unicode="ǒ" />
<glyph horiz-adv-x="707" d="M 281 870 L 335 870 L 428 803 L 429 803 L 547 870 L 611 870 L 466 755 L 383 755 L 281 870 Z M 145 700 L 231 700 L 154 271 C 152 260 150 248 149 236 C 148 224 148 213 148 203 C 148 156 162 121 191 97 C 220 73 259 62 307 62 C 333 62 358 66 382 74 C 406 82 427 94 447 111 C 467 127 484 148 498 174 C 512 199 523 229 529 263 L 605 700 L 691 700 L 614 259 C 606 214 592 175 573 141 C 553 107 530 78 502 56 C 474 33 442 16 406 5 C 370 -6 332 -12 292 -12 C 258 -12 228 -7 200 2 C 172 11 147 25 127 43 C 106 61 90 83 79 109 C 67 135 62 166 62 200 C 62 212 62 224 64 238 C 66 252 67 264 69 276 L 145 700 Z" unicode="Ǔ" />
<glyph horiz-adv-x="570" d="M 186 732 L 238 732 L 328 623 L 329 623 L 457 732 L 519 732 L 368 574 L 283 574 L 186 732 Z M 435 0 L 369 0 L 376 104 C 350 71 321 43 288 21 C 255 0 217 -12 173 -12 C 129 -12 95 0 73 23 C 51 47 40 77 40 115 C 40 126 40 139 42 154 C 44 169 46 182 48 194 L 106 519 L 188 519 L 128 184 C 126 174 125 164 124 153 C 122 141 122 131 122 122 C 122 102 127 86 138 73 C 149 59 168 53 195 53 C 229 53 261 65 293 89 C 324 113 355 148 387 192 L 444 519 L 526 519 L 435 0 Z" unicode="ǔ" />
<glyph horiz-adv-x="681" d="M 303 951 L 595 951 L 585 892 L 292 892 L 303 951 Z M 292 842 L 369 842 L 354 760 L 277 760 L 292 842 Z M 490 842 L 566 842 L 551 760 L 475 760 L 490 842 Z M 194 241 L 461 241 L 394 613 L 392 613 L 194 241 Z M 353 700 L 457 700 L 591 0 L 504 0 L 473 172 L 158 172 L 67 0 L -29 0 L 353 700 Z" unicode="Ǟ" />
<glyph horiz-adv-x="563" d="M 227 813 L 518 813 L 508 755 L 217 755 L 227 813 Z M 218 685 L 295 685 L 281 603 L 204 603 L 218 685 Z M 408 685 L 485 685 L 470 603 L 393 603 L 408 685 Z M 437 406 C 418 424 398 439 378 449 C 357 459 333 465 305 465 C 278 465 253 458 230 445 C 207 432 187 414 171 391 C 154 367 141 340 131 309 C 121 277 117 243 117 206 C 117 156 126 118 146 92 C 166 66 193 54 228 54 C 259 54 288 64 316 86 C 343 107 370 138 397 178 L 437 406 Z M 211 -12 C 185 -12 161 -7 139 2 C 117 12 99 26 83 44 C 67 62 54 84 46 110 C 37 136 33 166 33 200 C 33 247 39 291 53 332 C 67 372 85 407 109 437 C 133 466 161 489 193 506 C 225 522 261 531 299 531 C 333 531 363 524 389 510 C 415 496 435 479 451 461 L 466 519 L 539 519 L 470 127 C 468 121 467 116 467 110 C 466 104 466 99 466 96 C 466 71 480 59 509 59 L 499 -1 C 464 -1 437 5 418 18 C 399 31 389 53 389 85 C 337 20 278 -12 211 -12 Z" unicode="ǟ" />
<glyph horiz-adv-x="1019" d="M 441 842 L 733 842 L 723 783 L 430 783 L 441 842 Z M 218 243 L 491 243 L 454 617 L 449 617 L 218 243 Z M 406 700 L 1015 700 L 1001 624 L 534 624 L 558 393 L 921 393 L 909 320 L 565 320 L 591 76 L 911 76 L 898 0 L 515 0 L 498 172 L 174 172 L 68 0 L -32 0 L 406 700 Z" unicode="Ǣ" />
<glyph horiz-adv-x="934" d="M 375 682 L 666 682 L 656 624 L 365 624 L 375 682 Z M 214 -12 C 187 -12 163 -7 141 2 C 119 12 100 26 84 44 C 68 62 55 84 46 110 C 37 136 33 166 33 200 C 33 247 39 291 53 332 C 67 372 85 407 109 437 C 133 466 161 489 193 506 C 225 522 261 531 299 531 C 371 531 437 500 495 439 L 490 420 C 515 454 547 481 587 501 C 626 521 670 531 719 531 C 745 531 768 527 789 520 C 810 513 828 504 843 492 C 857 480 868 466 876 450 C 884 434 888 417 888 399 C 888 350 860 313 806 288 C 751 262 673 250 572 250 L 496 250 C 494 244 493 239 493 233 C 493 227 493 220 493 214 C 493 163 504 124 527 97 C 549 69 584 56 632 56 C 660 56 686 60 712 70 C 738 79 761 91 783 106 L 818 48 C 792 30 762 15 729 4 C 695 -6 659 -12 621 -12 C 571 -12 530 0 498 24 C 466 48 444 83 432 128 C 405 85 372 51 333 26 C 293 0 254 -12 214 -12 Z M 711 467 C 667 467 626 453 589 425 C 551 397 524 359 508 311 L 577 311 C 658 311 716 319 752 335 C 788 351 806 373 806 400 C 806 418 797 433 781 447 C 764 460 741 467 711 467 Z M 228 54 C 260 54 291 66 321 90 C 351 114 378 148 402 192 L 406 217 C 406 221 406 228 408 240 C 409 251 410 259 412 263 L 437 405 C 417 425 397 440 376 450 C 354 460 331 465 305 465 C 278 465 253 458 230 445 C 207 432 187 414 171 391 C 154 367 141 340 131 309 C 121 277 117 243 117 206 C 117 156 126 118 146 92 C 166 66 193 54 228 54 Z" unicode="ǣ" />
<glyph horiz-adv-x="724" d="M 428 236 L 547 236 L 559 303 L 368 303 L 380 368 L 651 368 L 627 236 L 707 236 L 696 179 L 617 179 L 596 60 C 561 37 523 19 481 7 C 439 -5 395 -12 347 -12 C 303 -12 262 -4 226 10 C 189 24 158 45 132 72 C 106 98 85 130 71 168 C 56 206 49 248 49 295 C 49 354 59 409 80 460 C 100 511 129 555 166 593 C 203 630 247 659 298 680 C 348 701 404 712 464 712 C 508 712 549 705 588 692 C 626 678 660 661 689 640 L 638 583 C 589 619 529 638 459 638 C 415 638 373 629 334 612 C 295 595 261 572 232 542 C 202 512 179 476 162 435 C 145 393 137 348 137 299 C 137 263 142 230 152 201 C 162 171 176 146 195 126 C 214 105 237 89 265 78 C 292 67 323 62 357 62 C 390 62 421 66 450 74 C 478 82 503 93 525 107 L 537 179 L 417 179 L 428 236 Z" unicode="Ǥ" />
<glyph horiz-adv-x="585" d="M 436 406 C 417 425 397 440 377 450 C 356 460 332 465 304 465 C 278 465 253 458 230 445 C 207 432 187 414 170 391 C 153 368 140 341 130 310 C 120 278 116 245 116 209 C 116 157 126 118 146 94 C 166 70 194 58 228 58 C 259 58 288 68 315 89 C 342 110 369 141 397 181 L 436 406 Z M 381 92 C 359 63 333 39 305 21 C 276 2 242 -7 203 -7 C 179 -7 156 -2 136 6 C 115 14 97 27 82 45 C 66 63 54 85 45 112 C 36 138 32 170 32 206 C 32 252 38 295 52 335 C 66 375 85 409 109 438 C 133 466 161 489 193 505 C 225 521 260 530 298 530 C 332 530 361 523 387 510 C 413 496 434 481 450 463 L 465 519 L 538 519 L 447 2 C 445 -3 444 -8 443 -13 C 442 -18 441 -23 440 -29 L 521 -29 L 512 -85 L 421 -85 C 403 -125 377 -155 342 -177 C 307 -199 260 -210 201 -210 C 163 -210 127 -203 94 -189 C 60 -175 32 -157 9 -137 L 54 -81 C 74 -98 97 -113 123 -125 C 149 -137 178 -143 208 -143 C 236 -143 260 -138 280 -129 C 300 -120 317 -105 331 -85 L 251 -85 L 262 -30 L 356 -30 C 358 -22 360 -15 362 -8 C 364 0 365 7 367 15 L 381 92 Z" unicode="ǥ" />
<glyph horiz-adv-x="718" d="M 320 870 L 374 870 L 467 803 L 468 803 L 586 870 L 650 870 L 505 755 L 422 755 L 320 870 Z M 49 295 C 49 354 59 409 80 460 C 100 511 129 555 166 593 C 203 630 247 659 298 680 C 348 701 404 712 464 712 C 508 712 549 705 588 692 C 626 678 660 661 689 640 L 638 583 C 589 619 529 638 459 638 C 415 638 373 629 334 612 C 295 595 261 572 232 542 C 202 512 179 476 162 435 C 145 393 137 348 137 299 C 137 263 142 230 152 201 C 162 171 176 146 195 126 C 214 105 237 89 265 78 C 292 67 323 62 357 62 C 390 62 421 66 450 74 C 478 82 503 93 525 107 L 559 303 L 368 303 L 380 368 L 651 368 L 596 60 C 561 37 523 19 481 7 C 439 -5 395 -12 347 -12 C 303 -12 262 -4 226 10 C 189 24 158 45 132 72 C 106 98 85 130 71 168 C 56 206 49 248 49 295 Z" unicode="Ǧ" />
<glyph horiz-adv-x="585" d="M 193 732 L 245 732 L 335 623 L 336 623 L 464 732 L 526 732 L 375 574 L 290 574 L 193 732 Z M 436 406 C 417 425 397 440 377 450 C 356 460 332 465 304 465 C 278 465 253 458 230 445 C 207 432 187 414 170 391 C 153 368 140 341 130 310 C 120 278 116 245 116 209 C 116 157 126 118 146 94 C 166 70 194 58 228 58 C 259 58 288 68 315 89 C 342 110 369 141 397 181 L 436 406 Z M 381 92 C 359 63 333 39 305 21 C 276 2 242 -7 203 -7 C 179 -7 156 -2 136 6 C 115 14 97 27 82 45 C 66 63 54 85 45 112 C 36 138 32 170 32 206 C 32 252 38 295 52 335 C 66 375 85 409 109 438 C 133 466 161 489 193 505 C 225 521 260 530 298 530 C 332 530 361 523 387 510 C 413 496 434 481 450 463 L 465 519 L 538 519 L 447 2 C 441 -31 432 -61 420 -87 C 408 -113 393 -136 373 -154 C 353 -172 330 -185 302 -195 C 274 -205 240 -210 201 -210 C 163 -210 127 -203 94 -189 C 60 -175 32 -157 9 -137 L 54 -81 C 74 -98 97 -113 123 -125 C 149 -137 178 -143 208 -143 C 252 -143 286 -131 312 -107 C 338 -83 356 -43 367 15 L 381 92 Z" unicode="ǧ" />
<glyph horiz-adv-x="660" d="M 255 870 L 309 870 L 402 803 L 403 803 L 521 870 L 585 870 L 440 755 L 357 755 L 255 870 Z M 147 700 L 233 700 L 165 315 L 565 700 L 666 700 L 394 436 L 563 0 L 475 0 L 332 377 L 144 195 L 110 0 L 24 0 L 147 700 Z" unicode="Ǩ" />
<glyph horiz-adv-x="528" d="M 60 912 L 114 912 L 207 845 L 208 845 L 326 912 L 390 912 L 245 797 L 162 797 L 60 912 Z M 154 755 L 237 755 L 150 262 L 421 519 L 520 519 L 329 340 L 443 0 L 359 0 L 268 283 L 131 154 L 104 0 L 21 0 L 154 755 Z" unicode="ǩ" />
<glyph horiz-adv-x="801" d="M 51 292 C 51 352 61 407 82 458 C 103 509 132 553 169 591 C 205 629 248 658 298 680 C 348 701 401 712 458 712 C 498 712 537 705 573 691 C 609 677 641 658 668 632 C 695 606 717 574 733 536 C 749 498 757 456 757 408 C 757 365 751 324 740 285 C 728 245 712 209 691 175 C 670 141 645 112 615 86 C 585 60 552 38 515 22 C 502 16 488 8 473 0 C 457 -8 443 -18 430 -29 C 417 -40 406 -52 398 -65 C 389 -77 385 -91 385 -105 C 385 -117 389 -127 397 -133 C 405 -139 417 -143 432 -143 C 443 -143 453 -141 463 -139 C 472 -136 481 -133 489 -129 L 491 -131 L 479 -193 C 469 -197 458 -200 446 -203 C 434 -205 422 -207 410 -207 C 380 -207 357 -199 341 -184 C 325 -169 317 -150 317 -126 C 317 -114 319 -101 325 -89 C 331 -76 338 -64 346 -53 C 354 -42 362 -33 370 -25 C 378 -17 385 -11 390 -8 C 383 -9 376 -10 370 -11 C 364 -11 357 -12 350 -12 C 309 -12 270 -5 234 8 C 198 22 166 42 139 68 C 112 94 91 125 75 163 C 59 201 51 244 51 292 Z M 139 300 C 139 262 144 229 155 199 C 165 169 180 144 199 124 C 218 104 241 88 268 78 C 294 67 324 62 357 62 C 398 62 437 70 475 87 C 512 103 545 127 574 157 C 603 187 626 222 643 264 C 660 305 669 350 669 400 C 669 437 663 470 653 500 C 642 530 627 555 608 575 C 589 595 566 611 540 622 C 513 632 484 638 452 638 C 411 638 372 629 334 613 C 296 596 262 573 234 543 C 205 513 182 477 165 436 C 147 394 139 349 139 300 Z" unicode="Ǫ" />
<glyph horiz-adv-x="595" d="M 279 -207 C 250 -207 227 -199 211 -185 C 195 -170 187 -151 187 -127 C 187 -103 193 -81 207 -62 C 221 -42 237 -25 257 -11 C 253 -11 250 -11 248 -11 C 245 -11 242 -12 239 -12 C 208 -11 180 -5 155 5 C 129 15 108 30 90 50 C 72 70 58 94 48 122 C 38 150 33 181 33 216 C 33 261 40 303 55 341 C 70 379 91 413 117 441 C 143 469 175 491 211 507 C 247 523 285 531 327 531 C 359 531 388 525 414 515 C 440 505 462 490 481 470 C 499 450 514 426 524 398 C 534 370 540 338 540 303 C 540 237 525 180 496 132 C 466 83 427 46 379 20 C 363 12 348 3 333 -6 C 318 -16 305 -26 293 -36 C 281 -46 271 -58 264 -70 C 256 -82 253 -94 253 -107 C 253 -119 257 -129 265 -135 C 273 -141 285 -145 300 -145 C 311 -145 321 -143 331 -141 C 340 -138 349 -135 357 -131 L 359 -133 L 348 -193 C 338 -197 327 -200 315 -203 C 303 -205 291 -207 279 -207 Z M 253 54 C 280 54 306 60 331 73 C 355 86 377 104 396 126 C 414 148 429 175 440 205 C 450 235 456 268 456 302 C 456 355 444 395 420 423 C 396 451 363 465 320 465 C 292 465 266 458 242 445 C 217 432 195 414 177 392 C 158 370 143 343 132 313 C 121 283 116 251 116 217 C 116 163 127 123 151 95 C 175 67 209 54 253 54 Z" unicode="ǫ" />
<glyph horiz-adv-x="801" d="M 337 842 L 629 842 L 619 783 L 326 783 L 337 842 Z M 51 292 C 51 352 61 407 82 458 C 103 509 132 553 169 591 C 205 629 248 658 298 680 C 348 701 401 712 458 712 C 498 712 537 705 573 691 C 609 677 641 658 668 632 C 695 606 717 574 733 536 C 749 498 757 456 757 408 C 757 365 751 324 740 285 C 728 245 712 209 691 175 C 670 141 645 112 615 86 C 585 60 552 38 515 22 C 502 16 488 8 473 0 C 457 -8 443 -18 430 -29 C 417 -40 406 -52 398 -65 C 389 -77 385 -91 385 -105 C 385 -117 389 -127 397 -133 C 405 -139 417 -143 432 -143 C 443 -143 453 -141 463 -139 C 472 -136 481 -133 489 -129 L 491 -131 L 479 -193 C 469 -197 458 -200 446 -203 C 434 -205 422 -207 410 -207 C 380 -207 357 -199 341 -184 C 325 -169 317 -150 317 -126 C 317 -114 319 -101 325 -89 C 331 -76 338 -64 346 -53 C 354 -42 362 -33 370 -25 C 378 -17 385 -11 390 -8 C 383 -9 376 -10 370 -11 C 364 -11 357 -12 350 -12 C 309 -12 270 -5 234 8 C 198 22 166 42 139 68 C 112 94 91 125 75 163 C 59 201 51 244 51 292 Z M 139 300 C 139 262 144 229 155 199 C 165 169 180 144 199 124 C 218 104 241 88 268 78 C 294 67 324 62 357 62 C 398 62 437 70 475 87 C 512 103 545 127 574 157 C 603 187 626 222 643 264 C 660 305 669 350 669 400 C 669 437 663 470 653 500 C 642 530 627 555 608 575 C 589 595 566 611 540 622 C 513 632 484 638 452 638 C 411 638 372 629 334 613 C 296 596 262 573 234 543 C 205 513 182 477 165 436 C 147 394 139 349 139 300 Z" unicode="Ǭ" />
<glyph horiz-adv-x="595" d="M 202 682 L 493 682 L 483 624 L 192 624 L 202 682 Z M 279 -207 C 250 -207 227 -199 211 -185 C 195 -170 187 -151 187 -127 C 187 -103 193 -81 207 -62 C 221 -42 237 -25 257 -11 C 253 -11 250 -11 248 -11 C 245 -11 242 -12 239 -12 C 208 -11 180 -5 155 5 C 129 15 108 30 90 50 C 72 70 58 94 48 122 C 38 150 33 181 33 216 C 33 261 40 303 55 341 C 70 379 91 413 117 441 C 143 469 175 491 211 507 C 247 523 285 531 327 531 C 359 531 388 525 414 515 C 440 505 462 490 481 470 C 499 450 514 426 524 398 C 534 370 540 338 540 303 C 540 237 525 180 496 132 C 466 83 427 46 379 20 C 363 12 348 3 333 -6 C 318 -16 305 -26 293 -36 C 281 -46 271 -58 264 -70 C 256 -82 253 -94 253 -107 C 253 -119 257 -129 265 -135 C 273 -141 285 -145 300 -145 C 311 -145 321 -143 331 -141 C 340 -138 349 -135 357 -131 L 359 -133 L 348 -193 C 338 -197 327 -200 315 -203 C 303 -205 291 -207 279 -207 Z M 253 54 C 280 54 306 60 331 73 C 355 86 377 104 396 126 C 414 148 429 175 440 205 C 450 235 456 268 456 302 C 456 355 444 395 420 423 C 396 451 363 465 320 465 C 292 465 266 458 242 445 C 217 432 195 414 177 392 C 158 370 143 343 132 313 C 121 283 116 251 116 217 C 116 163 127 123 151 95 C 175 67 209 54 253 54 Z" unicode="ǭ" />
<glyph horiz-adv-x="634" d="M 228 870 L 282 870 L 375 803 L 376 803 L 494 870 L 558 870 L 413 755 L 330 755 L 228 870 Z M 490 622 L 95 622 L 109 700 L 632 700 L 620 634 L 232 302 C 245 305 260 308 276 310 C 292 312 307 313 323 313 C 359 313 391 307 420 297 C 448 286 473 271 493 252 C 513 233 528 210 539 184 C 550 157 556 127 556 95 C 556 46 546 3 527 -35 C 507 -73 481 -105 448 -131 C 415 -157 377 -176 333 -190 C 289 -203 243 -210 194 -210 C 148 -210 106 -204 68 -194 C 30 -183 -2 -170 -32 -154 L 7 -89 C 32 -103 61 -114 93 -124 C 125 -133 160 -138 196 -138 C 231 -138 265 -132 298 -122 C 330 -112 359 -97 384 -78 C 409 -58 429 -34 444 -6 C 459 22 467 55 467 91 C 467 197 402 251 274 251 C 252 251 231 249 209 246 C 187 242 167 238 151 234 L 120 298 L 490 622 Z" unicode="Ǯ" />
<glyph horiz-adv-x="517" d="M 135 733 L 187 733 L 277 624 L 278 624 L 406 733 L 468 733 L 317 575 L 232 575 L 135 733 Z M 360 452 L 66 452 L 78 519 L 481 519 L 472 463 L 186 205 C 209 209 231 211 251 211 C 305 211 348 195 380 165 C 412 134 429 91 429 37 C 429 -1 421 -36 407 -67 C 392 -97 372 -123 346 -144 C 320 -165 290 -181 254 -192 C 218 -203 180 -209 138 -209 C 99 -209 64 -204 32 -194 C 0 -184 -26 -172 -48 -158 L -11 -100 C 8 -112 31 -121 57 -129 C 83 -137 112 -141 142 -141 C 171 -141 198 -136 224 -128 C 249 -119 271 -107 289 -91 C 307 -75 322 -57 332 -35 C 342 -13 348 10 348 37 C 348 79 335 110 310 128 C 284 146 249 156 204 156 C 188 156 171 155 155 153 C 138 151 122 149 107 146 L 87 198 L 360 452 Z" unicode="ǯ" />
<glyph horiz-adv-x="246" d="M 25 732 L 77 732 L 167 623 L 168 623 L 296 732 L 358 732 L 207 574 L 122 574 L 25 732 Z M 117 516 L 199 516 L 103 -26 C 91 -90 71 -137 41 -166 C 11 -195 -27 -210 -77 -210 C -91 -210 -106 -207 -120 -203 C -134 -199 -145 -193 -155 -187 L -122 -130 C -116 -133 -109 -136 -102 -138 C -94 -140 -86 -141 -78 -141 C -53 -141 -32 -131 -15 -113 C 2 -95 15 -63 23 -17 L 117 516 Z" unicode="ǰ" />
<glyph horiz-adv-x="718" d="M 547 889 L 611 843 L 476 755 L 415 755 L 547 889 Z M 49 295 C 49 354 59 409 80 460 C 100 511 129 555 166 593 C 203 630 247 659 298 680 C 348 701 404 712 464 712 C 508 712 549 705 588 692 C 626 678 660 661 689 640 L 638 583 C 589 619 529 638 459 638 C 415 638 373 629 334 612 C 295 595 261 572 232 542 C 202 512 179 476 162 435 C 145 393 137 348 137 299 C 137 263 142 230 152 201 C 162 171 176 146 195 126 C 214 105 237 89 265 78 C 292 67 323 62 357 62 C 390 62 421 66 450 74 C 478 82 503 93 525 107 L 559 303 L 368 303 L 380 368 L 651 368 L 596 60 C 561 37 523 19 481 7 C 439 -5 395 -12 347 -12 C 303 -12 262 -4 226 10 C 189 24 158 45 132 72 C 106 98 85 130 71 168 C 56 206 49 248 49 295 Z" unicode="Ǵ" />
<glyph horiz-adv-x="585" d="M 439 751 L 497 706 L 332 574 L 275 574 L 439 751 Z M 436 406 C 417 425 397 440 377 450 C 356 460 332 465 304 465 C 278 465 253 458 230 445 C 207 432 187 414 170 391 C 153 368 140 341 130 310 C 120 278 116 245 116 209 C 116 157 126 118 146 94 C 166 70 194 58 228 58 C 259 58 288 68 315 89 C 342 110 369 141 397 181 L 436 406 Z M 381 92 C 359 63 333 39 305 21 C 276 2 242 -7 203 -7 C 179 -7 156 -2 136 6 C 115 14 97 27 82 45 C 66 63 54 85 45 112 C 36 138 32 170 32 206 C 32 252 38 295 52 335 C 66 375 85 409 109 438 C 133 466 161 489 193 505 C 225 521 260 530 298 530 C 332 530 361 523 387 510 C 413 496 434 481 450 463 L 465 519 L 538 519 L 447 2 C 441 -31 432 -61 420 -87 C 408 -113 393 -136 373 -154 C 353 -172 330 -185 302 -195 C 274 -205 240 -210 201 -210 C 163 -210 127 -203 94 -189 C 60 -175 32 -157 9 -137 L 54 -81 C 74 -98 97 -113 123 -125 C 149 -137 178 -143 208 -143 C 252 -143 286 -131 312 -107 C 338 -83 356 -43 367 15 L 381 92 Z" unicode="ǵ" />
<glyph horiz-adv-x="681" d="M 510 1025 L 574 979 L 439 891 L 378 891 L 510 1025 Z M 351 757 C 351 739 355 725 365 715 C 375 705 389 700 407 700 C 427 700 445 707 460 722 C 474 736 482 754 482 775 C 482 792 477 806 467 816 C 457 826 444 831 426 831 C 405 831 387 823 373 809 C 358 795 351 777 351 757 Z M 194 241 L 461 241 L 394 613 L 392 613 L 194 241 Z M 309 755 C 309 770 312 784 318 798 C 324 812 332 824 343 834 C 353 844 366 853 381 859 C 395 865 411 868 429 868 C 456 868 478 859 496 842 C 513 825 522 803 522 776 C 522 754 516 735 505 717 C 494 699 479 686 461 677 L 591 0 L 504 0 L 473 172 L 158 172 L 67 0 L -29 0 L 343 683 C 332 691 324 701 318 713 C 312 725 309 739 309 755 Z" unicode="Ǻ" />
<glyph horiz-adv-x="563" d="M 477 977 L 535 932 L 370 800 L 313 800 L 477 977 Z M 233 657 C 233 689 244 716 266 738 C 288 760 317 771 352 771 C 378 771 400 762 418 746 C 436 729 446 707 446 681 C 446 649 434 622 412 600 C 390 578 361 567 326 567 C 300 567 278 575 260 592 C 242 609 233 631 233 657 Z M 275 660 C 275 643 279 629 289 619 C 298 609 312 604 330 604 C 349 604 366 611 382 625 C 397 639 405 657 405 679 C 405 695 400 709 390 719 C 380 729 366 734 348 734 C 328 734 311 726 297 712 C 282 698 275 680 275 660 Z M 437 406 C 418 424 398 439 378 449 C 357 459 333 465 305 465 C 278 465 253 458 230 445 C 207 432 187 414 171 391 C 154 367 141 340 131 309 C 121 277 117 243 117 206 C 117 156 126 118 146 92 C 166 66 193 54 228 54 C 259 54 288 64 316 86 C 343 107 370 138 397 178 L 437 406 Z M 211 -12 C 185 -12 161 -7 139 2 C 117 12 99 26 83 44 C 67 62 54 84 46 110 C 37 136 33 166 33 200 C 33 247 39 291 53 332 C 67 372 85 407 109 437 C 133 466 161 489 193 506 C 225 522 261 531 299 531 C 333 531 363 524 389 510 C 415 496 435 479 451 461 L 466 519 L 539 519 L 470 127 C 468 121 467 116 467 110 C 466 104 466 99 466 96 C 466 71 480 59 509 59 L 499 -1 C 464 -1 437 5 418 18 C 399 31 389 53 389 85 C 337 20 278 -12 211 -12 Z" unicode="ǻ" />
</font>
</defs>
</svg>
