<?xml version="1.0" encoding="utf-8" ?><svg version="1.1" xmlns = 'http://www.w3.org/2000/svg'><defs><font id='web' horiz-adv-x="1000">
<font-face font-family="web" descent="-240" cap-height="700" units-per-em="1000" bbox="-112,-362,1533,1025" x-height="519" ascent="760" />
<missing-glyph horiz-adv-x="900" d="M 200 755 L 700 755 L 700 -237 L 200 -237 L 200 755 Z M 263 704 L 450 316 L 637 704 L 263 704 Z M 252 602 L 252 -83 L 417 259 L 252 602 Z M 648 -83 L 648 601 L 483 259 L 648 -83 Z M 637 -185 L 450 200 L 263 -185 L 637 -185 Z" /><glyph horiz-adv-x="250" d="" unicode=" " />
<glyph horiz-adv-x="258" d="M 84 520 L 84 700 L 172 700 L 172 520 L 150 206 L 106 206 L 84 520 Z M 83 107 L 174 107 L 174 0 L 83 0 L 83 107 Z" unicode="!" />
<glyph horiz-adv-x="404" d="M 253 700 L 347 700 L 303 448 L 253 449 L 253 700 Z M 61 700 L 155 700 L 111 448 L 61 449 L 61 700 Z" unicode="&#x22;" />
<glyph horiz-adv-x="719" d="M 259 253 L 429 253 L 462 450 L 292 450 L 259 253 Z M 74 515 L 232 515 L 263 700 L 334 700 L 303 515 L 473 515 L 504 700 L 574 700 L 543 515 L 683 515 L 683 450 L 532 450 L 500 253 L 644 253 L 644 189 L 489 189 L 458 0 L 387 0 L 418 189 L 248 189 L 217 0 L 148 0 L 179 189 L 36 189 L 36 253 L 189 253 L 222 450 L 74 450 L 74 515 Z" unicode="#" />
<glyph horiz-adv-x="625" d="M 151 521 C 151 501 154 485 162 472 C 170 458 180 447 194 438 C 207 428 222 421 240 415 C 258 409 277 403 297 398 L 297 636 C 250 634 214 622 189 601 C 163 579 151 553 151 521 Z M 486 182 C 486 200 482 216 474 230 C 466 243 456 254 443 264 C 430 273 415 281 398 287 C 380 293 362 299 342 305 L 342 64 C 391 67 427 79 451 101 C 474 122 486 149 486 182 Z M 98 128 C 124 111 154 97 188 85 C 222 73 258 66 297 64 L 297 316 C 269 323 241 331 213 339 C 185 347 161 359 139 374 C 117 388 99 407 85 431 C 71 454 65 484 65 520 C 65 546 70 570 80 593 C 90 615 105 635 125 652 C 144 669 168 683 197 694 C 225 704 258 710 294 712 L 294 804 L 347 804 L 347 711 C 385 708 421 702 453 693 C 485 683 514 672 542 659 L 509 589 C 485 600 460 610 432 618 C 404 626 374 632 342 635 L 342 387 C 370 380 397 372 425 364 C 452 355 476 343 498 329 C 520 314 537 295 551 272 C 565 248 572 219 572 183 C 572 157 567 132 558 110 C 548 87 534 67 516 50 C 497 33 473 19 445 8 C 416 -2 383 -9 345 -11 L 345 -133 L 294 -133 L 294 -11 C 246 -9 201 -1 160 12 C 118 25 84 41 56 60 L 98 128 Z" unicode="$" />
<glyph horiz-adv-x="814" d="M 218 389 C 196 389 176 392 156 400 C 136 407 119 418 104 432 C 89 446 77 463 68 483 C 59 503 55 525 55 550 C 55 574 59 597 68 617 C 76 637 88 654 103 668 C 118 682 135 692 155 700 C 175 707 196 711 218 711 C 239 711 259 707 279 700 C 299 692 316 682 331 668 C 345 654 357 637 366 617 C 374 597 379 574 379 550 C 379 525 374 503 366 483 C 357 463 345 446 331 432 C 316 418 299 407 280 400 C 260 392 240 389 218 389 Z M 613 700 L 678 700 L 197 0 L 132 0 L 613 700 Z M 218 442 C 246 442 269 451 288 470 C 307 489 317 516 317 550 C 317 583 307 609 288 629 C 269 649 246 659 218 659 C 190 659 166 649 146 629 C 126 609 117 583 117 550 C 117 516 126 489 146 470 C 166 451 190 442 218 442 Z M 598 -11 C 576 -11 555 -7 535 0 C 515 7 498 18 483 32 C 468 46 456 63 448 83 C 439 103 435 125 435 150 C 435 174 439 196 448 216 C 456 236 468 253 483 267 C 498 281 515 291 535 299 C 555 307 575 311 597 311 C 618 311 638 307 658 299 C 678 291 695 281 710 267 C 725 253 737 236 746 216 C 754 196 759 174 759 150 C 759 125 754 103 746 83 C 737 63 725 46 711 32 C 696 18 679 7 659 0 C 639 -7 619 -11 598 -11 Z M 598 42 C 626 42 649 51 668 70 C 687 89 697 116 697 150 C 697 183 687 209 668 229 C 648 249 625 259 597 259 C 569 259 545 249 526 229 C 506 209 497 183 497 150 C 497 116 506 89 526 70 C 546 51 570 42 598 42 Z" unicode="%" />
<glyph horiz-adv-x="745" d="M 483 138 C 439 172 395 207 353 244 C 311 280 270 319 232 360 C 200 342 173 320 153 294 C 133 267 123 236 123 200 C 123 181 126 163 134 146 C 141 128 152 113 166 101 C 180 88 197 78 218 70 C 239 62 263 59 291 59 C 329 59 364 66 396 80 C 428 94 457 113 483 138 Z M 44 194 C 44 218 47 240 55 261 C 63 282 73 301 87 319 C 100 337 115 353 133 368 C 151 382 170 396 191 408 C 174 429 161 451 152 473 C 143 495 139 519 139 544 C 139 566 143 588 152 608 C 161 628 174 646 190 662 C 206 677 226 689 249 698 C 272 707 298 712 326 712 C 364 712 398 704 428 689 C 457 673 482 654 503 631 L 449 585 C 433 602 415 616 394 628 C 372 639 349 645 324 645 C 292 645 266 635 248 615 C 229 595 220 571 220 545 C 220 523 226 501 238 479 C 250 457 265 435 285 413 C 322 373 361 336 401 301 C 441 265 484 231 529 197 C 542 220 552 245 560 271 C 568 297 572 325 572 355 L 647 355 C 647 317 641 282 631 248 C 621 214 606 182 588 153 C 609 137 631 121 653 105 C 675 89 698 73 722 57 L 676 -4 C 653 12 630 28 608 44 C 586 60 563 76 540 94 C 508 61 470 35 427 16 C 384 -2 337 -12 287 -12 C 247 -12 212 -6 182 5 C 152 17 126 32 106 51 C 86 70 70 92 60 117 C 49 141 44 167 44 194 Z" unicode="&#x26;" />
<glyph horiz-adv-x="211" d="M 61 700 L 155 700 L 111 448 L 61 449 L 61 700 Z" unicode="'" />
<glyph horiz-adv-x="381" d="M 61 277 C 61 329 66 378 76 424 C 86 470 99 512 116 552 C 132 592 152 628 174 662 C 196 696 219 727 243 755 L 338 755 C 313 730 289 701 266 669 C 242 636 221 600 203 560 C 185 520 170 476 159 429 C 147 381 142 331 142 277 C 142 223 147 172 159 125 C 170 78 185 35 203 -5 C 221 -45 242 -81 266 -114 C 289 -146 313 -175 338 -200 L 244 -200 C 219 -172 196 -141 174 -107 C 152 -73 132 -36 116 3 C 99 42 86 84 76 130 C 66 176 61 225 61 277 Z" unicode="(" />
<glyph horiz-adv-x="381" d="M 320 277 C 320 225 315 176 305 130 C 295 84 281 42 265 3 C 248 -36 229 -73 207 -107 C 185 -141 161 -172 137 -200 L 43 -200 C 67 -175 91 -146 115 -114 C 138 -81 159 -45 177 -5 C 195 35 210 78 222 125 C 233 172 239 223 239 277 C 239 331 233 381 222 429 C 210 476 195 520 177 560 C 159 600 138 636 115 669 C 91 701 67 730 43 755 L 138 755 C 162 727 185 696 207 662 C 229 628 248 592 265 552 C 281 512 295 470 305 424 C 315 378 320 329 320 277 Z" unicode=")" />
<glyph horiz-adv-x="422" d="M 184 533 L 182 534 L 47 518 L 48 587 L 183 574 L 184 576 L 131 699 L 191 716 L 223 587 L 225 586 L 327 671 L 365 619 L 249 554 L 249 551 L 365 482 L 325 431 L 225 519 L 223 518 L 188 386 L 129 406 L 184 533 Z" unicode="*" />
<glyph horiz-adv-x="614" d="M 47 387 L 268 387 L 268 611 L 346 611 L 346 387 L 567 387 L 567 315 L 346 315 L 346 91 L 268 91 L 268 315 L 47 315 L 47 387 Z" unicode="+" />
<glyph horiz-adv-x="218" d="M 63 117 L 156 117 L 156 20 C 156 -24 148 -57 132 -81 C 116 -105 92 -124 59 -138 L 38 -101 C 79 -81 100 -47 100 0 L 63 0 L 63 117 Z" unicode="," />
<glyph horiz-adv-x="379" d="M 44 299 L 336 299 L 336 225 L 44 225 L 44 299 Z" unicode="-" />
<glyph horiz-adv-x="218" d="M 63 117 L 156 117 L 156 0 L 63 0 L 63 117 Z" unicode="." />
<glyph horiz-adv-x="505" d="M 433 755 L 516 755 L 73 -200 L -11 -200 L 433 755 Z" unicode="/" />
<glyph horiz-adv-x="620" d="M 52 364 C 52 596 138 712 310 712 C 482 712 568 596 568 364 L 568 347 C 568 229 547 141 505 84 C 463 27 398 -1 311 -1 C 223 -1 158 27 116 84 C 73 141 52 229 52 347 L 52 364 Z M 485 364 C 485 458 471 528 443 573 C 415 617 371 640 310 640 C 248 640 204 617 177 573 C 150 528 137 458 137 364 L 137 347 C 137 252 150 182 178 138 C 205 93 249 71 311 71 C 372 71 416 93 444 138 C 471 182 485 252 485 347 L 485 364 Z" unicode="0" />
<glyph horiz-adv-x="620" d="M 102 68 L 300 68 L 300 614 L 121 533 L 88 595 L 317 700 L 384 700 L 384 68 L 567 68 L 567 0 L 102 0 L 102 68 Z" unicode="1" />
<glyph horiz-adv-x="620" d="M 72 41 C 70 98 79 145 99 182 C 119 218 144 249 174 273 C 204 297 237 317 273 333 C 309 349 342 365 373 381 C 403 397 429 415 450 435 C 470 455 481 482 481 515 C 481 532 477 548 471 563 C 464 578 454 591 440 603 C 426 614 409 623 389 630 C 369 636 345 640 318 640 C 280 640 244 632 210 616 C 176 600 147 581 123 558 L 70 611 C 100 639 137 663 181 683 C 225 702 272 712 320 712 C 360 712 395 706 425 696 C 455 686 480 672 501 654 C 521 636 537 616 547 592 C 557 568 563 543 563 517 C 563 474 552 439 532 413 C 512 386 487 363 457 344 C 427 325 394 308 359 294 C 323 279 290 262 260 244 C 230 225 205 202 185 175 C 165 148 155 113 156 71 L 562 71 L 562 0 L 73 0 L 72 41 Z" unicode="2" />
<glyph horiz-adv-x="620" d="M 96 102 C 120 90 147 79 178 71 C 209 62 242 58 276 58 C 307 58 336 61 362 68 C 388 74 410 84 429 97 C 448 109 463 125 474 144 C 484 162 490 183 490 207 C 490 229 485 247 475 263 C 465 279 453 291 437 301 C 421 311 402 318 381 323 C 359 327 337 330 313 330 L 217 330 L 217 397 L 310 397 C 332 397 352 399 371 405 C 389 410 405 418 419 428 C 433 438 444 452 452 468 C 460 484 464 502 464 524 C 464 558 449 586 420 609 C 390 631 349 643 297 643 C 263 643 229 635 196 621 C 163 607 135 588 111 565 L 64 621 C 95 647 130 669 170 687 C 210 704 253 713 301 713 C 338 713 372 708 402 699 C 432 690 458 677 480 661 C 501 645 518 625 530 603 C 542 580 548 555 548 529 C 548 489 537 455 515 428 C 493 401 462 382 423 370 C 471 358 508 339 535 311 C 561 283 575 247 575 203 C 575 168 567 137 551 111 C 535 84 514 61 487 43 C 460 25 429 11 393 2 C 357 -7 318 -12 277 -12 C 237 -12 198 -7 161 2 C 124 11 92 22 64 36 L 96 102 Z" unicode="3" />
<glyph horiz-adv-x="620" d="M 37 219 L 402 700 L 495 700 L 495 220 L 604 220 L 604 152 L 495 152 L 495 0 L 413 0 L 413 152 L 63 152 L 37 219 Z M 413 220 L 413 610 L 121 220 L 413 220 Z" unicode="4" />
<glyph horiz-adv-x="620" d="M 98 103 C 121 89 148 79 178 71 C 208 63 241 59 275 59 C 304 59 331 62 355 70 C 379 78 400 89 418 103 C 435 117 449 135 459 155 C 469 175 474 198 474 224 C 474 268 458 304 426 332 C 394 359 352 373 298 373 C 278 373 255 370 230 365 C 204 359 179 352 154 343 L 104 375 L 117 700 L 519 700 L 519 632 L 192 632 L 184 412 C 204 420 226 427 250 433 C 274 438 297 441 321 441 C 355 441 386 435 415 425 C 444 415 469 400 491 382 C 512 363 529 340 541 314 C 553 287 559 257 559 225 C 559 187 551 154 537 125 C 522 95 502 70 476 50 C 450 29 420 13 385 3 C 350 -7 313 -13 273 -13 C 231 -13 192 -8 158 0 C 124 9 93 21 66 37 L 98 103 Z" unicode="5" />
<glyph horiz-adv-x="620" d="M 51 328 C 51 397 59 456 77 505 C 95 553 118 593 147 624 C 176 654 209 677 247 691 C 285 705 323 712 363 712 C 396 712 427 708 456 702 C 485 695 513 686 539 674 L 506 612 C 486 620 465 627 441 633 C 417 639 390 642 362 642 C 332 642 304 636 278 625 C 251 614 227 597 207 574 C 186 551 169 521 157 485 C 144 449 137 406 135 356 C 160 380 191 401 228 417 C 264 433 303 442 343 442 C 377 442 408 436 436 426 C 464 416 489 401 510 382 C 530 362 546 339 558 312 C 570 284 576 254 576 220 C 576 189 570 160 559 132 C 547 104 531 79 510 58 C 488 36 462 19 431 7 C 400 -5 365 -12 326 -12 C 277 -12 235 -3 200 15 C 165 33 137 57 115 88 C 93 119 76 155 66 197 C 56 238 51 282 51 328 Z M 136 288 C 138 254 143 223 152 195 C 160 167 172 142 188 122 C 204 102 223 86 247 74 C 270 62 297 57 328 57 C 354 57 377 61 398 70 C 418 78 436 90 450 105 C 464 120 475 137 483 157 C 490 177 494 197 494 219 C 494 242 490 263 482 283 C 474 302 462 318 448 332 C 433 346 416 356 396 364 C 376 372 355 376 331 376 C 291 376 254 367 219 350 C 184 333 156 312 136 288 Z" unicode="6" />
<glyph horiz-adv-x="620" d="M 472 629 L 66 629 L 66 700 L 562 700 L 562 640 L 264 0 L 172 0 L 472 629 Z" unicode="7" />
<glyph horiz-adv-x="620" d="M 38 182 C 38 206 42 228 52 248 C 61 268 74 285 90 300 C 106 315 124 328 145 339 C 166 349 189 358 213 364 C 193 369 174 376 157 386 C 139 396 124 407 111 421 C 98 434 88 449 81 467 C 73 484 70 503 70 524 C 70 553 76 579 88 602 C 100 625 116 645 138 661 C 160 677 185 690 215 699 C 244 707 276 712 310 712 C 344 712 376 707 406 699 C 435 690 460 677 482 661 C 504 645 521 625 533 602 C 545 579 551 553 551 524 C 551 503 547 484 540 467 C 532 449 522 434 509 421 C 496 407 481 396 463 386 C 445 376 427 369 407 364 C 431 358 453 349 474 339 C 495 328 514 315 530 300 C 546 285 558 268 568 248 C 577 228 582 206 582 182 C 582 151 575 124 561 100 C 547 76 529 55 505 39 C 481 22 452 9 419 1 C 385 -7 349 -12 310 -12 C 270 -12 234 -7 201 1 C 167 9 139 22 115 39 C 91 55 72 76 58 100 C 44 124 38 151 38 182 Z M 310 395 C 358 399 396 413 426 435 C 455 457 470 487 470 524 C 470 542 466 558 458 573 C 450 588 438 601 424 611 C 410 621 393 630 373 636 C 353 642 332 645 310 645 C 287 645 266 642 246 636 C 226 630 209 621 195 611 C 181 601 170 588 162 573 C 154 558 150 542 150 524 C 150 487 164 457 194 435 C 223 413 262 399 310 395 Z M 120 185 C 120 165 124 146 134 130 C 143 114 156 100 173 89 C 190 78 210 70 234 64 C 257 58 282 55 310 55 C 337 55 362 58 386 64 C 409 70 429 78 446 89 C 463 100 476 114 486 130 C 496 146 501 165 501 185 C 501 206 495 225 485 241 C 475 257 461 272 444 284 C 426 296 406 305 383 313 C 359 321 335 326 310 329 C 284 326 260 321 237 313 C 214 305 194 296 177 284 C 159 272 145 257 135 241 C 125 225 120 206 120 185 Z" unicode="8" />
<glyph horiz-adv-x="620" d="M 296 324 C 335 324 372 332 407 349 C 441 366 469 387 489 412 C 487 445 481 476 473 504 C 465 532 453 557 437 577 C 421 597 402 613 380 625 C 357 637 330 643 300 643 C 273 643 249 638 229 630 C 208 621 191 609 177 594 C 163 579 152 562 145 542 C 137 522 134 502 134 481 C 134 457 138 436 146 417 C 154 397 165 381 179 367 C 193 353 211 343 231 335 C 251 327 272 324 296 324 Z M 117 98 C 135 86 156 77 181 69 C 205 61 233 58 265 58 C 294 58 322 63 348 74 C 374 84 398 101 418 124 C 438 147 455 177 468 213 C 480 249 488 293 490 344 C 465 319 434 298 398 282 C 362 266 324 258 284 258 C 250 258 219 263 191 273 C 163 283 138 298 118 318 C 97 337 81 360 69 388 C 57 415 52 446 52 480 C 52 510 57 540 68 568 C 79 596 95 620 117 642 C 138 663 164 680 195 693 C 226 705 261 712 301 712 C 350 712 392 703 427 685 C 461 667 490 642 512 611 C 534 580 550 544 560 503 C 570 461 575 418 575 372 C 575 302 566 243 548 195 C 530 146 507 106 478 76 C 449 45 416 23 379 9 C 342 -5 304 -12 265 -12 C 229 -12 195 -7 164 2 C 132 11 104 23 79 38 L 117 98 Z" unicode="9" />
<glyph horiz-adv-x="218" d="M 63 520 L 156 520 L 156 403 L 63 403 L 63 520 Z M 63 117 L 156 117 L 156 0 L 63 0 L 63 117 Z" unicode=":" />
<glyph horiz-adv-x="218" d="M 63 520 L 156 520 L 156 403 L 63 403 L 63 520 Z M 63 117 L 156 117 L 156 20 C 156 -24 148 -57 132 -81 C 116 -105 92 -124 59 -138 L 38 -101 C 79 -81 100 -47 100 0 L 63 0 L 63 117 Z" unicode=";" />
<glyph horiz-adv-x="623" d="M 567 86 L 45 312 L 45 390 L 567 616 L 567 529 L 141 351 L 567 172 L 567 86 Z" unicode="&#x3C;" />
<glyph horiz-adv-x="614" d="M 47 508 L 567 508 L 567 436 L 47 436 L 47 508 Z M 47 266 L 567 266 L 567 194 L 47 194 L 47 266 Z" unicode="=" />
<glyph horiz-adv-x="623" d="M 52 172 L 478 351 L 52 529 L 52 616 L 574 390 L 574 312 L 52 86 L 52 172 Z" unicode="&#x3E;" />
<glyph horiz-adv-x="525" d="M 192 206 C 192 207 191 211 191 217 C 191 223 191 226 191 228 C 191 258 195 284 205 304 C 215 324 227 341 242 356 C 257 370 273 383 290 395 C 307 406 323 418 338 430 C 353 442 365 455 375 471 C 385 487 390 506 390 529 C 390 561 377 588 352 609 C 326 630 293 641 251 641 C 219 641 190 634 164 621 C 138 607 114 590 92 569 L 40 618 C 67 646 98 669 133 686 C 168 703 208 712 252 712 C 285 712 315 707 343 699 C 370 690 393 678 413 662 C 432 646 447 628 458 606 C 468 584 474 559 474 533 C 474 503 468 477 458 457 C 447 436 434 418 418 402 C 402 386 385 373 367 361 C 348 349 331 336 315 323 C 299 309 285 294 274 278 C 263 262 258 242 258 219 L 258 206 L 192 206 Z M 180 107 L 271 107 L 271 0 L 180 0 L 180 107 Z" unicode="?" />
<glyph horiz-adv-x="837" d="M 67 280 C 67 330 76 377 95 421 C 114 465 140 504 173 537 C 206 569 245 595 289 614 C 333 633 380 643 431 643 C 480 643 525 634 567 618 C 609 602 645 579 675 550 C 705 521 728 487 745 447 C 761 407 770 364 770 317 C 770 278 764 244 752 214 C 740 184 725 160 707 140 C 689 120 668 104 645 94 C 622 84 599 79 576 79 C 544 79 520 86 504 101 C 488 116 478 134 475 156 C 461 138 444 123 424 111 C 403 99 380 93 355 93 C 321 93 292 104 270 128 C 248 152 237 185 237 227 C 237 254 241 282 250 311 C 259 340 272 367 290 391 C 307 415 328 434 353 450 C 378 465 407 473 440 473 C 462 473 481 468 497 458 C 513 448 525 437 535 425 L 550 463 L 605 463 L 535 220 C 526 190 526 166 535 149 C 543 131 560 123 585 123 C 602 123 619 127 635 136 C 651 144 666 157 680 174 C 693 190 704 211 712 235 C 720 259 724 286 724 317 C 724 358 716 396 702 430 C 688 464 668 493 642 518 C 616 543 585 562 549 576 C 513 590 474 597 431 597 C 387 597 345 588 307 572 C 269 555 235 532 207 504 C 178 475 155 441 139 403 C 122 365 114 324 114 280 C 114 236 122 195 139 157 C 155 119 178 85 207 57 C 235 29 269 6 307 -10 C 345 -26 387 -35 431 -35 C 462 -35 492 -30 520 -22 C 548 -13 575 -1 601 14 L 627 -24 C 598 -42 567 -57 534 -67 C 501 -77 467 -82 431 -82 C 380 -82 333 -72 289 -53 C 245 -34 206 -8 173 24 C 140 56 114 95 95 139 C 76 183 67 230 67 280 Z M 300 230 C 300 203 306 182 318 167 C 330 151 347 144 370 144 C 392 144 414 151 435 167 C 455 183 470 208 480 242 L 521 384 C 513 393 502 401 490 409 C 478 417 462 421 443 421 C 421 421 401 414 383 402 C 365 390 350 374 338 356 C 326 337 316 316 310 294 C 303 271 300 250 300 230 Z" unicode="@" />
<glyph horiz-adv-x="692" d="M 210 241 L 481 241 L 346 613 L 344 613 L 210 241 Z M 295 700 L 397 700 L 661 0 L 569 0 L 506 172 L 185 172 L 123 0 L 30 0 L 295 700 Z" unicode="A" />
<glyph horiz-adv-x="674" d="M 84 700 L 359 700 C 398 700 432 695 461 686 C 490 676 514 663 533 647 C 552 630 566 611 576 589 C 585 567 590 543 590 518 C 590 478 579 445 558 419 C 537 393 510 374 476 362 C 518 350 552 331 578 304 C 604 276 618 240 618 196 C 618 133 596 85 554 51 C 512 17 454 0 380 0 L 84 0 L 84 700 Z M 355 390 C 406 390 443 402 467 426 C 491 450 503 478 503 512 C 503 544 491 571 467 594 C 443 616 406 628 355 628 L 169 628 L 169 390 L 355 390 Z M 379 72 C 427 72 464 82 491 104 C 517 126 531 158 531 201 C 531 240 516 270 488 291 C 460 311 423 322 379 322 L 169 322 L 169 72 L 379 72 Z" unicode="B" />
<glyph horiz-adv-x="710" d="M 55 357 C 55 409 63 457 81 501 C 98 544 122 581 153 613 C 184 644 221 668 265 686 C 308 703 356 712 408 712 C 451 712 492 705 532 693 C 571 680 607 661 640 636 L 594 574 C 566 594 537 610 507 621 C 476 632 443 638 409 638 C 369 638 332 631 299 618 C 266 604 238 585 215 561 C 191 536 173 506 160 472 C 147 437 141 399 141 357 C 141 313 147 272 160 236 C 172 200 190 169 214 143 C 237 117 265 97 298 83 C 331 69 368 62 409 62 C 447 62 482 68 515 81 C 548 94 577 113 603 138 L 656 82 C 622 50 585 26 543 11 C 501 -4 455 -12 406 -12 C 353 -12 305 -3 262 15 C 219 33 182 58 152 90 C 121 122 97 161 80 207 C 63 252 55 302 55 357 Z" unicode="C" />
<glyph horiz-adv-x="713" d="M 84 700 L 286 700 C 346 700 400 692 447 676 C 493 660 532 637 564 607 C 595 577 619 541 635 499 C 651 456 660 408 660 354 C 660 298 652 249 637 205 C 621 161 598 124 567 94 C 536 63 497 40 451 24 C 404 8 349 0 286 0 L 84 0 L 84 700 Z M 291 72 C 385 72 456 97 503 147 C 550 197 574 266 574 354 C 574 396 567 433 555 467 C 543 501 525 530 501 554 C 477 578 447 596 412 609 C 377 621 337 628 291 628 L 169 628 L 169 72 L 291 72 Z" unicode="D" />
<glyph horiz-adv-x="635" d="M 84 700 L 564 700 L 564 624 L 169 624 L 169 392 L 525 392 L 525 321 L 169 321 L 169 76 L 570 76 L 570 0 L 84 0 L 84 700 Z" unicode="E" />
<glyph horiz-adv-x="618" d="M 84 700 L 556 700 L 556 624 L 169 624 L 169 386 L 509 386 L 509 313 L 169 313 L 169 0 L 84 0 L 84 700 Z" unicode="F" />
<glyph horiz-adv-x="727" d="M 55 357 C 55 409 63 456 80 500 C 96 543 120 580 151 612 C 182 644 219 668 263 686 C 306 703 354 712 408 712 C 452 712 494 706 533 694 C 572 682 609 665 643 643 L 599 581 C 571 599 541 613 510 623 C 478 633 445 638 410 638 C 370 638 333 631 300 617 C 267 603 239 584 215 560 C 191 535 173 505 161 471 C 148 436 142 398 142 357 C 142 312 148 271 160 235 C 172 198 190 167 213 142 C 236 116 264 97 297 83 C 330 69 368 62 410 62 C 442 62 472 65 500 73 C 528 80 553 90 573 103 L 573 303 L 378 303 L 378 368 L 652 368 L 652 59 C 619 36 582 18 540 6 C 498 -5 454 -12 408 -12 C 354 -12 305 -3 261 14 C 217 32 180 57 150 89 C 119 121 95 160 79 206 C 63 251 55 301 55 357 Z" unicode="G" />
<glyph horiz-adv-x="702" d="M 84 700 L 169 700 L 169 394 L 533 394 L 533 700 L 618 700 L 618 0 L 533 0 L 533 319 L 169 319 L 169 0 L 84 0 L 84 700 Z" unicode="H" />
<glyph horiz-adv-x="252" d="M 84 700 L 169 700 L 169 0 L 84 0 L 84 700 Z" unicode="I" />
<glyph horiz-adv-x="571" d="M 117 172 C 129 142 147 116 171 95 C 194 74 225 64 263 64 C 311 64 347 79 370 109 C 393 139 405 180 405 231 L 405 700 L 490 700 L 490 230 C 490 154 471 95 434 52 C 396 9 341 -12 267 -12 C 212 -12 166 2 130 30 C 94 58 66 92 48 133 L 117 172 Z" unicode="J" />
<glyph horiz-adv-x="670" d="M 84 700 L 169 700 L 169 309 L 508 700 L 607 700 L 379 438 L 634 0 L 534 0 L 323 374 L 169 198 L 169 0 L 84 0 L 84 700 Z" unicode="K" />
<glyph horiz-adv-x="605" d="M 84 700 L 169 700 L 169 76 L 561 76 L 561 0 L 84 0 L 84 700 Z" unicode="L" />
<glyph horiz-adv-x="850" d="M 84 700 L 176 700 L 426 337 L 676 700 L 767 700 L 767 0 L 684 0 L 684 579 L 425 207 L 166 580 L 166 0 L 84 0 L 84 700 Z" unicode="M" />
<glyph horiz-adv-x="725" d="M 84 700 L 170 700 L 559 132 L 559 700 L 641 700 L 641 0 L 554 0 L 166 567 L 166 0 L 84 0 L 84 700 Z" unicode="N" />
<glyph horiz-adv-x="809" d="M 55 355 C 55 409 64 458 82 502 C 100 546 124 583 156 614 C 187 645 224 669 267 686 C 309 703 355 712 405 712 C 454 712 500 703 542 686 C 584 669 621 645 653 614 C 685 583 710 546 728 502 C 746 458 755 409 755 355 C 755 299 746 248 728 203 C 710 157 685 119 654 87 C 622 55 585 30 543 13 C 500 -3 454 -12 405 -12 C 355 -12 309 -3 267 13 C 224 30 187 55 156 87 C 124 119 100 157 82 203 C 64 248 55 299 55 355 Z M 142 355 C 142 309 148 268 162 232 C 176 196 194 165 218 140 C 241 114 269 95 301 82 C 333 68 368 62 405 62 C 441 62 476 68 508 82 C 540 95 567 114 591 140 C 615 165 633 196 647 232 C 661 268 668 309 668 355 C 668 398 661 437 647 472 C 633 507 615 537 591 561 C 567 585 540 604 508 618 C 476 631 441 638 405 638 C 368 638 334 631 302 618 C 270 604 242 585 218 561 C 194 537 176 507 162 472 C 148 437 142 398 142 355 Z" unicode="O" />
<glyph horiz-adv-x="661" d="M 84 700 L 362 700 C 406 700 444 694 475 682 C 506 670 531 654 550 634 C 569 614 583 592 591 567 C 599 542 604 517 604 491 C 604 466 599 441 591 416 C 582 390 568 368 549 348 C 530 328 505 311 474 299 C 443 286 405 280 361 280 L 169 280 L 169 0 L 84 0 L 84 700 Z M 360 350 C 388 350 413 354 433 362 C 453 370 470 380 483 394 C 495 407 504 422 510 439 C 516 455 519 472 519 490 C 519 508 516 525 510 541 C 504 557 495 572 483 585 C 471 598 455 608 435 616 C 415 624 390 628 362 628 L 169 628 L 169 350 L 360 350 Z" unicode="P" />
<glyph horiz-adv-x="817" d="M 55 355 C 55 409 64 458 82 502 C 100 546 124 583 156 614 C 187 645 224 669 267 686 C 309 703 355 712 405 712 C 454 712 500 703 542 686 C 584 669 621 645 653 614 C 685 583 710 546 728 502 C 746 458 755 409 755 355 C 755 305 748 259 734 218 C 720 177 700 141 675 110 L 764 35 L 716 -16 L 627 63 C 565 13 491 -12 405 -12 C 355 -12 309 -3 267 13 C 224 30 187 55 156 87 C 124 119 100 157 82 203 C 64 248 55 299 55 355 Z M 483 279 L 612 164 C 629 188 643 216 653 248 C 663 280 668 315 668 355 C 668 398 661 437 647 472 C 633 507 615 537 591 561 C 567 585 540 604 508 618 C 476 631 441 638 405 638 C 368 638 334 631 302 618 C 270 604 242 585 218 561 C 194 537 176 507 162 472 C 148 437 142 398 142 355 C 142 309 148 268 162 232 C 176 196 194 165 218 140 C 241 114 269 95 301 82 C 333 68 368 62 405 62 C 436 62 465 66 493 76 C 520 86 545 100 567 118 L 438 228 L 483 279 Z" unicode="Q" />
<glyph horiz-adv-x="683" d="M 375 350 C 403 350 427 354 447 362 C 467 370 483 380 496 393 C 508 406 517 421 523 438 C 529 455 532 472 532 490 C 532 508 529 525 523 542 C 517 558 508 573 496 586 C 484 598 468 608 448 616 C 428 624 404 628 376 628 L 169 628 L 169 350 L 375 350 Z M 169 0 L 84 0 L 84 700 L 377 700 C 421 700 459 694 490 682 C 520 670 545 654 564 634 C 583 614 597 592 605 567 C 613 542 618 517 618 491 C 618 470 615 449 609 429 C 603 409 594 390 582 372 C 570 354 554 339 536 326 C 517 312 495 302 470 294 L 619 0 L 525 0 L 391 282 L 169 282 L 169 0 Z" unicode="R" />
<glyph horiz-adv-x="616" d="M 94 128 C 122 110 154 94 191 82 C 228 70 268 64 310 64 C 366 64 407 75 434 97 C 460 119 474 148 474 183 C 474 215 463 239 443 255 C 423 271 397 285 367 295 C 337 305 304 313 269 321 C 233 329 200 340 170 354 C 140 368 114 388 94 414 C 74 440 64 475 64 520 C 64 546 69 571 80 595 C 91 618 107 638 127 656 C 147 673 172 687 202 697 C 232 707 266 712 304 712 C 350 712 393 707 431 697 C 469 687 504 674 536 659 L 503 589 C 475 602 445 613 413 622 C 380 631 345 636 307 636 C 258 636 220 625 193 603 C 166 581 153 553 153 521 C 153 489 163 464 183 448 C 203 432 229 419 259 409 C 289 399 321 391 357 383 C 393 375 426 364 456 350 C 486 335 511 315 531 290 C 551 264 562 229 562 183 C 562 155 556 130 546 106 C 536 82 520 62 499 44 C 478 26 452 13 421 3 C 389 -7 352 -12 310 -12 C 258 -12 209 -4 164 9 C 119 23 82 40 52 60 L 94 128 Z" unicode="S" />
<glyph horiz-adv-x="651" d="M 283 624 L 30 624 L 30 700 L 622 700 L 622 624 L 368 624 L 368 0 L 283 0 L 283 624 Z" unicode="T" />
<glyph horiz-adv-x="716" d="M 81 700 L 167 700 L 167 259 C 167 227 172 198 182 174 C 192 149 205 128 222 112 C 239 96 259 83 283 75 C 306 66 331 62 358 62 C 384 62 409 66 433 75 C 456 83 476 96 494 112 C 511 128 525 149 535 174 C 545 198 550 227 550 259 L 550 700 L 635 700 L 635 259 C 635 214 627 175 613 141 C 599 107 579 78 555 56 C 530 33 501 16 467 5 C 433 -6 397 -12 358 -12 C 319 -12 283 -6 249 5 C 215 16 185 33 161 56 C 136 78 116 107 102 141 C 88 175 81 214 81 259 L 81 700 Z" unicode="U" />
<glyph horiz-adv-x="681" d="M 30 700 L 124 700 L 339 95 L 341 95 L 558 700 L 652 700 L 390 0 L 290 0 L 30 700 Z" unicode="V" />
<glyph horiz-adv-x="1034" d="M 32 700 L 123 700 L 303 116 L 305 116 L 476 700 L 560 700 L 730 116 L 732 116 L 913 700 L 1003 700 L 780 0 L 686 0 L 518 572 L 516 572 L 348 0 L 254 0 L 32 700 Z" unicode="W" />
<glyph horiz-adv-x="691" d="M 292 357 L 50 700 L 154 700 L 347 424 L 539 700 L 642 700 L 399 357 L 653 0 L 548 0 L 345 291 L 143 0 L 38 0 L 292 357 Z" unicode="X" />
<glyph horiz-adv-x="669" d="M 292 285 L 28 700 L 129 700 L 334 367 L 336 367 L 541 700 L 641 700 L 377 285 L 377 0 L 292 0 L 292 285 Z" unicode="Y" />
<glyph horiz-adv-x="647" d="M 56 71 L 475 623 L 57 623 L 57 700 L 583 700 L 583 630 L 166 78 L 594 78 L 594 0 L 56 0 L 56 71 Z" unicode="Z" />
<glyph horiz-adv-x="388" d="M 323 -137 L 323 -200 L 84 -200 L 84 755 L 323 755 L 323 692 L 168 692 L 168 -137 L 323 -137 Z" unicode="[" />
<glyph horiz-adv-x="505" d="M 516 -200 L 432 -200 L -11 755 L 72 755 L 516 -200 Z" unicode="\" />
<glyph horiz-adv-x="388" d="M 220 -137 L 220 692 L 65 692 L 65 755 L 304 755 L 304 -200 L 65 -200 L 65 -137 L 220 -137 Z" unicode="]" />
<glyph horiz-adv-x="544" d="M 234 740 L 311 740 L 450 562 L 384 562 L 273 670 L 160 562 L 94 562 L 234 740 Z" unicode="^" />
<glyph horiz-adv-x="550" d="M 550 -13 L 550 -86 L 0 -86 L 0 -13 L 550 -13 Z" unicode="_" />
<glyph horiz-adv-x="633" d="M 218 706 L 277 751 L 416 574 L 359 574 L 218 706 Z" unicode="`" />
<glyph horiz-adv-x="530" d="M 131 126 C 131 103 139 85 155 72 C 171 58 192 52 219 52 C 251 52 279 58 303 71 C 327 84 347 100 361 118 L 361 244 C 335 242 308 240 281 236 C 253 232 229 226 207 218 C 185 209 166 197 152 183 C 138 168 131 149 131 126 Z M 49 120 C 49 152 57 179 75 201 C 93 223 116 240 145 254 C 174 268 207 278 245 284 C 282 290 321 295 361 297 L 361 373 C 361 399 353 420 337 437 C 321 453 296 462 260 462 C 232 462 204 457 176 448 C 148 438 121 427 96 414 L 64 480 C 92 493 123 505 158 515 C 193 525 228 531 262 531 C 294 531 321 527 344 519 C 367 511 386 500 401 486 C 415 472 426 455 433 436 C 440 416 444 395 444 372 L 444 113 C 444 95 448 81 458 73 C 467 64 480 60 496 60 L 496 -1 C 459 -1 431 4 413 14 C 394 24 380 41 371 64 C 351 42 326 23 298 9 C 270 -4 237 -12 201 -12 C 155 -12 118 0 90 24 C 62 48 49 80 49 120 Z" unicode="a" />
<glyph horiz-adv-x="590" d="M 81 755 L 164 755 L 164 452 C 185 474 209 493 237 508 C 264 523 294 531 328 531 C 359 531 388 525 414 513 C 440 501 462 484 481 462 C 499 439 514 411 524 379 C 534 347 539 310 539 268 C 539 178 520 109 482 61 C 444 12 393 -12 328 -12 C 292 -12 261 -4 233 10 C 205 25 181 45 160 69 L 153 0 L 81 0 L 81 755 Z M 164 131 C 185 106 207 87 231 74 C 255 61 281 55 310 55 C 358 55 394 73 418 111 C 442 149 455 201 455 267 C 455 329 442 378 417 412 C 391 446 356 464 310 464 C 280 464 254 457 230 443 C 206 429 184 410 164 387 L 164 131 Z" unicode="b" />
<glyph horiz-adv-x="516" d="M 50 265 C 50 306 56 343 68 376 C 80 408 97 436 119 459 C 141 482 167 500 197 512 C 227 524 261 531 297 531 C 331 531 363 526 391 516 C 419 506 444 492 466 475 L 422 418 C 407 429 390 439 370 448 C 350 456 326 461 299 461 C 275 461 252 456 232 447 C 212 438 194 425 180 408 C 166 391 154 370 146 346 C 138 322 134 295 134 265 C 134 200 149 149 179 112 C 209 75 249 57 299 57 C 327 57 352 61 372 70 C 392 79 411 91 429 107 L 477 56 C 451 33 424 16 396 5 C 368 -6 335 -12 297 -12 C 260 -12 226 -5 196 7 C 166 19 140 38 118 62 C 96 86 80 115 68 149 C 56 183 50 222 50 265 Z" unicode="c" />
<glyph horiz-adv-x="589" d="M 280 55 C 308 55 335 61 359 74 C 383 87 405 106 427 131 L 427 387 C 405 410 383 429 359 443 C 335 457 309 464 280 464 C 234 464 198 446 172 412 C 146 378 134 329 134 267 C 134 201 146 149 171 111 C 195 73 232 55 280 55 Z M 261 -12 C 195 -12 144 12 107 61 C 69 109 51 178 51 268 C 51 310 56 347 66 379 C 76 411 90 439 109 462 C 127 484 149 501 175 513 C 201 525 230 531 262 531 C 296 531 326 523 354 508 C 381 493 405 474 427 452 L 427 755 L 510 755 L 510 0 L 438 0 L 430 69 C 408 45 383 25 356 10 C 328 -4 297 -12 261 -12 Z" unicode="d" />
<glyph horiz-adv-x="566" d="M 51 265 C 51 305 57 342 70 375 C 82 408 100 436 122 459 C 144 482 170 500 200 513 C 230 525 263 532 299 532 C 335 532 367 526 394 514 C 420 502 442 486 460 465 C 478 444 491 420 499 392 C 507 364 512 333 512 300 C 512 293 511 285 511 277 C 510 268 509 261 508 256 L 134 256 C 135 192 150 142 178 108 C 206 73 248 56 305 56 C 333 56 360 60 386 70 C 412 79 435 91 457 105 L 494 49 C 467 29 437 14 404 3 C 371 -7 337 -13 301 -13 C 221 -13 160 11 116 60 C 72 109 51 177 51 265 Z M 301 468 C 259 468 223 454 193 426 C 163 398 145 360 137 312 L 432 312 C 432 333 429 353 425 372 C 421 391 413 408 403 422 C 392 436 378 447 362 455 C 345 463 325 468 301 468 Z" unicode="e" />
<glyph horiz-adv-x="380" d="M 115 452 L 23 452 L 23 515 L 115 515 L 115 560 C 115 597 120 628 130 654 C 140 680 153 700 171 716 C 188 732 209 743 234 750 C 258 757 285 761 314 761 C 328 761 343 759 359 756 C 374 753 387 750 398 747 L 377 686 C 369 688 360 690 349 692 C 338 694 327 695 316 695 C 278 695 248 684 228 664 C 208 643 198 609 198 561 L 198 515 L 342 515 L 342 452 L 198 452 L 198 0 L 115 0 L 115 452 Z" unicode="f" />
<glyph horiz-adv-x="574" d="M 265 211 C 284 211 302 214 318 220 C 334 226 349 235 361 247 C 373 259 382 273 389 289 C 395 305 399 322 399 342 C 399 360 395 377 389 393 C 382 409 373 422 361 434 C 349 446 334 455 318 461 C 302 467 284 471 265 471 C 246 471 228 467 212 461 C 196 455 182 446 170 434 C 158 422 148 409 141 393 C 134 377 131 360 131 342 C 131 322 134 305 141 289 C 148 273 158 259 170 247 C 182 235 196 226 212 220 C 228 214 246 211 265 211 Z M 32 -73 C 32 -47 40 -25 56 -6 C 72 12 93 27 119 39 C 93 57 80 80 80 110 C 80 127 84 142 94 156 C 104 170 116 181 131 190 C 107 206 87 227 73 253 C 58 278 51 308 51 342 C 51 370 56 395 67 419 C 78 442 93 462 113 478 C 132 494 155 507 181 517 C 207 526 235 531 265 531 C 292 531 317 527 341 519 C 365 511 386 501 405 487 C 423 501 443 512 465 520 C 487 528 515 532 547 532 L 547 469 C 523 469 503 468 486 466 C 469 464 454 460 440 454 C 452 438 461 421 468 402 C 475 383 479 363 479 342 C 479 312 473 286 461 262 C 449 238 434 218 414 202 C 394 185 371 172 345 163 C 319 154 293 150 265 150 C 232 150 202 155 175 166 C 155 156 146 142 146 124 C 146 102 159 87 186 81 C 213 75 253 70 307 67 C 340 65 371 61 399 56 C 427 50 451 42 471 32 C 491 22 506 8 518 -7 C 529 -23 535 -44 535 -68 C 535 -112 514 -147 472 -172 C 430 -197 366 -210 281 -210 C 201 -210 139 -198 96 -174 C 53 -150 32 -117 32 -73 Z M 291 0 C 269 0 250 2 232 4 C 214 6 198 9 183 13 C 161 5 144 -5 131 -19 C 117 -33 111 -50 111 -70 C 111 -124 166 -151 277 -151 C 335 -151 380 -144 410 -132 C 440 -119 456 -100 456 -75 C 456 -48 441 -29 413 -19 C 384 -9 343 -2 291 0 Z" unicode="g" />
<glyph horiz-adv-x="579" d="M 81 755 L 164 755 L 164 449 C 186 472 211 492 241 508 C 271 524 304 532 340 532 C 399 532 441 515 466 482 C 491 449 504 406 504 352 L 504 0 L 422 0 L 422 353 C 422 387 414 414 399 434 C 384 454 358 465 322 465 C 290 465 261 457 235 443 C 209 428 185 408 164 383 L 164 0 L 81 0 L 81 755 Z" unicode="h" />
<glyph horiz-adv-x="244" d="M 81 743 L 164 743 L 164 648 L 81 648 L 81 743 Z M 81 516 L 164 516 L 164 0 L 81 0 L 81 516 Z" unicode="i" />
<glyph horiz-adv-x="253" d="M 90 743 L 172 743 L 172 648 L 90 648 L 90 743 Z M 90 516 L 172 516 L 172 -25 C 172 -91 157 -139 129 -167 C 100 -195 62 -210 15 -210 C 1 -210 -11 -208 -23 -206 C -35 -204 -44 -201 -52 -199 L -36 -134 C -29 -136 -22 -137 -15 -139 C -7 -140 0 -141 7 -141 C 32 -141 52 -132 67 -116 C 82 -99 90 -70 90 -28 L 90 516 Z" unicode="j" />
<glyph horiz-adv-x="536" d="M 81 755 L 164 755 L 164 253 L 397 519 L 491 519 L 333 344 L 515 0 L 420 0 L 278 283 L 164 157 L 164 0 L 81 0 L 81 755 Z" unicode="k" />
<glyph horiz-adv-x="245" d="M 81 755 L 164 755 L 164 0 L 81 0 L 81 755 Z" unicode="l" />
<glyph horiz-adv-x="891" d="M 77 519 L 154 519 L 159 452 C 181 474 206 493 235 509 C 264 524 296 532 330 532 C 368 532 398 524 421 509 C 444 493 461 472 473 446 C 498 471 526 492 557 508 C 587 524 621 532 657 532 C 712 532 752 515 778 482 C 803 449 816 406 816 353 L 816 0 L 733 0 L 733 355 C 733 389 725 415 711 435 C 697 455 673 465 639 465 C 610 465 583 458 557 444 C 531 430 508 412 488 388 C 488 382 489 375 489 369 C 489 362 490 355 490 349 L 490 0 L 406 0 L 406 355 C 406 389 399 415 385 435 C 371 455 346 465 312 465 C 282 465 254 458 228 444 C 202 430 180 410 160 385 L 160 0 L 77 0 L 77 519 Z" unicode="m" />
<glyph horiz-adv-x="575" d="M 77 519 L 154 519 L 159 449 C 181 472 207 492 237 508 C 267 524 300 532 337 532 C 395 532 437 515 463 482 C 488 449 501 406 501 352 L 501 0 L 418 0 L 418 353 C 418 387 410 414 395 434 C 380 454 355 465 319 465 C 287 465 257 457 231 443 C 205 428 181 408 160 382 L 160 0 L 77 0 L 77 519 Z" unicode="n" />
<glyph horiz-adv-x="601" d="M 51 266 C 51 306 57 342 70 375 C 82 407 100 435 122 458 C 144 481 171 499 201 512 C 231 524 265 531 301 531 C 337 531 370 524 400 512 C 430 499 457 481 479 458 C 501 435 518 407 530 375 C 542 342 549 306 549 266 C 549 223 543 184 531 150 C 519 116 502 87 480 63 C 458 39 432 20 402 7 C 372 -5 338 -12 301 -12 C 263 -12 229 -5 199 7 C 168 20 142 39 120 63 C 98 87 81 116 69 150 C 57 184 51 223 51 266 Z M 135 266 C 135 234 138 205 146 179 C 154 153 165 130 179 112 C 193 93 211 79 231 69 C 251 59 275 54 301 54 C 326 54 349 59 369 69 C 389 79 406 93 420 112 C 434 130 445 153 453 179 C 461 205 465 234 465 266 C 465 296 461 323 453 347 C 445 371 433 392 419 410 C 404 427 387 440 367 450 C 347 459 325 464 301 464 C 277 464 254 459 234 450 C 214 440 196 427 182 410 C 167 392 155 371 147 347 C 139 323 135 296 135 266 Z" unicode="o" />
<glyph horiz-adv-x="588" d="M 162 131 C 183 106 206 87 230 74 C 254 61 280 55 309 55 C 356 55 392 73 417 111 C 441 149 454 201 454 267 C 454 329 441 378 416 412 C 390 446 354 464 308 464 C 278 464 252 457 229 443 C 205 429 183 410 162 387 L 162 131 Z M 162 -200 L 80 -200 L 80 519 L 153 519 L 160 450 C 181 473 206 492 234 508 C 262 523 293 531 327 531 C 358 531 387 525 413 513 C 439 501 461 484 479 462 C 497 439 512 411 522 379 C 532 347 537 310 537 268 C 537 178 518 109 481 61 C 443 12 392 -12 328 -12 C 293 -12 262 -4 235 10 C 207 24 183 43 162 67 L 162 -200 Z" unicode="p" />
<glyph horiz-adv-x="589" d="M 261 -12 C 195 -12 144 12 107 61 C 69 109 51 178 51 268 C 51 310 56 347 66 379 C 76 411 90 439 109 462 C 127 484 149 501 175 513 C 201 525 230 531 262 531 C 296 531 326 523 354 508 C 382 492 406 473 428 450 L 436 519 L 510 519 L 510 -200 L 427 -200 L 427 67 C 405 43 381 24 354 10 C 326 -4 295 -12 261 -12 Z M 280 55 C 308 55 335 61 359 74 C 383 87 405 106 427 131 L 427 387 C 405 410 383 429 359 443 C 335 457 309 464 280 464 C 234 464 198 446 172 412 C 146 378 134 329 134 267 C 134 201 146 149 171 111 C 196 73 232 55 280 55 Z" unicode="q" />
<glyph horiz-adv-x="404" d="M 77 519 L 152 519 L 159 431 C 198 498 251 532 317 532 C 330 532 342 531 353 529 C 363 527 373 525 383 522 L 367 444 C 348 451 328 455 306 455 C 275 455 248 446 224 428 C 200 410 179 384 160 349 L 160 0 L 77 0 L 77 519 Z" unicode="r" />
<glyph horiz-adv-x="475" d="M 76 102 C 97 88 121 77 149 68 C 177 59 206 55 238 55 C 274 55 302 61 322 75 C 342 89 352 109 352 135 C 352 157 344 173 329 185 C 314 196 295 205 273 213 C 251 220 226 227 200 233 C 174 239 149 247 127 258 C 105 269 86 284 71 303 C 56 322 49 348 49 381 C 49 404 53 425 63 443 C 72 461 85 477 102 490 C 118 503 138 513 161 520 C 184 527 209 531 236 531 C 265 531 295 527 325 520 C 355 513 385 503 413 490 L 380 427 C 358 438 335 447 309 454 C 283 460 259 464 236 464 C 204 464 178 457 159 443 C 140 429 131 409 131 384 C 131 362 138 346 153 335 C 168 323 187 314 209 307 C 231 300 256 294 282 288 C 308 282 332 274 354 263 C 376 252 395 237 410 218 C 425 198 433 172 433 139 C 433 91 415 53 381 27 C 346 1 298 -12 238 -12 C 199 -12 163 -7 130 2 C 96 12 66 25 39 42 L 76 102 Z" unicode="s" />
<glyph horiz-adv-x="391" d="M 114 455 L 23 455 L 23 519 L 114 519 L 114 671 L 197 671 L 197 519 L 346 519 L 346 455 L 197 455 L 197 139 C 197 112 202 91 212 77 C 222 63 240 56 265 56 C 292 56 318 64 342 81 L 374 27 C 358 15 340 6 319 -1 C 298 -8 277 -12 256 -12 C 206 -12 170 0 148 25 C 125 50 114 88 114 138 L 114 455 Z" unicode="t" />
<glyph horiz-adv-x="576" d="M 75 519 L 158 519 L 158 166 C 158 132 165 104 179 84 C 193 64 219 54 257 54 C 289 54 318 61 345 76 C 371 90 395 111 417 137 L 417 519 L 500 519 L 500 0 L 425 0 L 418 70 C 396 47 370 28 340 12 C 310 -4 276 -12 240 -12 C 181 -12 139 4 113 37 C 87 70 75 114 75 168 L 75 519 Z" unicode="u" />
<glyph horiz-adv-x="505" d="M 22 519 L 108 519 L 253 91 L 255 91 L 400 519 L 483 519 L 298 0 L 206 0 L 22 519 Z" unicode="v" />
<glyph horiz-adv-x="815" d="M 22 519 L 107 519 L 244 103 L 246 103 L 371 519 L 445 519 L 571 103 L 573 103 L 709 519 L 792 519 L 616 0 L 533 0 L 408 403 L 406 403 L 282 0 L 199 0 L 22 519 Z" unicode="w" />
<glyph horiz-adv-x="514" d="M 206 262 L 37 519 L 128 519 L 257 319 L 386 519 L 476 519 L 308 262 L 483 0 L 393 0 L 256 206 L 119 0 L 30 0 L 206 262 Z" unicode="x" />
<glyph horiz-adv-x="508" d="M 40 -126 C 50 -130 60 -133 71 -136 C 82 -139 93 -141 103 -141 C 122 -141 138 -136 151 -128 C 163 -119 174 -103 184 -79 L 216 3 L 23 519 L 109 519 L 256 109 L 258 109 L 401 519 L 485 519 L 266 -85 C 247 -134 224 -167 198 -184 C 172 -201 141 -210 106 -210 C 90 -210 74 -208 58 -205 C 42 -202 28 -198 16 -193 L 40 -126 Z" unicode="y" />
<glyph horiz-adv-x="501" d="M 50 58 L 344 452 L 58 452 L 58 519 L 448 519 L 448 460 L 155 67 L 458 67 L 458 0 L 50 0 L 50 58 Z" unicode="z" />
<glyph horiz-adv-x="456" d="M 395 -138 L 395 -200 L 335 -200 C 277 -200 235 -187 208 -162 C 180 -137 167 -100 167 -51 L 167 145 C 167 176 160 199 147 213 C 134 227 112 235 80 235 L 34 235 L 34 310 L 80 310 C 112 310 134 317 147 331 C 160 345 167 369 167 401 L 167 606 C 167 655 180 692 208 717 C 235 742 277 755 335 755 L 395 755 L 395 693 L 339 693 C 306 693 283 686 270 672 C 256 658 250 636 250 605 L 250 405 C 250 333 220 289 162 274 L 162 273 C 220 255 250 211 250 140 L 250 -50 C 250 -81 256 -103 270 -117 C 283 -131 306 -138 339 -138 L 395 -138 Z" unicode="{" />
<glyph horiz-adv-x="286" d="M 104 755 L 183 755 L 183 -200 L 104 -200 L 104 755 Z" unicode="|" />
<glyph horiz-adv-x="456" d="M 117 -138 C 149 -138 172 -131 186 -117 C 199 -103 206 -81 206 -50 L 206 140 C 206 211 235 255 294 273 L 294 274 C 235 289 206 333 206 405 L 206 605 C 206 636 199 658 186 672 C 172 686 149 693 117 693 L 61 693 L 61 755 L 121 755 C 178 755 220 742 248 717 C 275 692 289 655 289 606 L 289 401 C 289 369 295 345 308 331 C 321 317 344 310 376 310 L 422 310 L 422 235 L 376 235 C 344 235 321 227 308 213 C 295 199 289 176 289 145 L 289 -51 C 289 -100 275 -137 248 -162 C 220 -187 178 -200 121 -200 L 61 -200 L 61 -138 L 117 -138 Z" unicode="}" />
<glyph horiz-adv-x="569" d="M 74 198 C 73 202 73 205 73 209 C 73 212 73 215 73 219 C 73 259 82 292 102 317 C 121 341 149 354 185 354 C 205 354 224 348 241 338 C 258 328 274 316 290 304 C 306 292 321 280 336 270 C 350 260 366 255 382 255 C 400 255 413 261 423 275 C 432 288 436 308 435 336 L 495 336 C 495 332 496 328 496 325 C 496 321 496 318 496 315 C 496 274 486 241 467 217 C 447 193 420 181 384 181 C 363 181 344 186 327 196 C 309 206 293 218 278 230 C 262 242 247 254 233 264 C 218 274 203 280 187 280 C 169 280 155 273 145 259 C 135 245 132 224 134 198 L 74 198 Z" unicode="~" />
<glyph horiz-adv-x="257" d="M 83 520 L 174 520 L 174 413 L 83 413 L 83 520 Z M 106 314 L 150 314 L 172 0 L 172 -180 L 84 -180 L 84 0 L 106 314 Z" unicode="¡" />
<glyph horiz-adv-x="608" d="M 135 357 C 135 307 146 263 169 227 C 192 191 224 165 265 150 L 362 565 C 360 565 358 565 356 565 C 354 565 352 566 350 566 C 318 566 289 561 263 551 C 237 541 214 526 195 508 C 176 489 161 467 151 442 C 140 416 135 388 135 357 Z M 55 357 C 55 397 62 435 76 469 C 90 503 110 532 136 557 C 162 581 193 600 229 614 C 265 628 305 635 349 635 C 353 635 357 634 361 634 C 365 634 370 634 374 634 L 390 700 L 442 700 L 425 627 C 446 621 467 614 487 606 C 507 597 527 586 546 573 L 502 516 C 471 537 439 552 407 560 L 309 138 C 322 136 336 135 350 135 C 412 135 465 154 510 194 L 560 143 C 532 117 500 98 465 85 C 429 72 391 66 349 66 C 339 66 330 66 321 67 C 312 67 303 68 295 70 L 278 0 L 226 0 L 245 81 C 185 99 139 133 105 182 C 71 230 55 289 55 357 Z" unicode="¢" />
<glyph horiz-adv-x="672" d="M 89 394 L 197 394 C 183 415 172 437 163 460 C 154 483 150 509 150 537 C 150 562 154 585 162 607 C 170 628 183 646 199 662 C 215 677 236 689 260 698 C 284 707 312 712 344 712 C 393 712 433 701 463 681 C 493 660 516 636 533 608 L 470 575 C 458 594 441 610 421 624 C 400 638 374 645 344 645 C 307 645 279 634 260 614 C 240 593 231 567 231 536 C 231 508 236 483 247 460 C 258 437 271 414 286 392 L 454 392 L 454 339 L 319 339 C 331 317 342 294 351 270 C 360 246 365 220 365 192 C 365 171 362 151 356 132 C 385 110 411 92 435 76 C 458 60 482 53 508 53 C 537 53 558 62 570 82 C 582 102 586 129 582 163 L 658 163 C 665 112 657 70 633 37 C 609 4 572 -12 521 -12 C 483 -12 448 -3 417 14 C 386 32 355 52 324 75 C 304 46 280 24 250 10 C 220 -4 191 -12 163 -12 C 142 -12 124 -9 108 -3 C 92 3 78 11 68 21 C 58 31 50 42 45 56 C 39 69 37 83 37 98 C 37 129 48 155 71 176 C 93 197 123 208 161 208 C 184 208 206 204 226 197 C 246 189 265 180 284 169 C 286 177 287 184 287 192 C 287 218 281 244 269 269 C 257 293 245 316 232 338 L 89 338 L 89 394 Z M 94 97 C 94 81 99 68 111 57 C 122 45 139 40 162 40 C 181 40 201 46 221 59 C 241 71 256 89 268 113 C 252 125 235 135 218 143 C 201 151 183 156 163 156 C 141 156 124 150 112 139 C 100 127 94 113 94 97 Z" unicode="£" />
<glyph horiz-adv-x="659" d="M 65 267 C 65 299 70 329 81 358 C 92 387 107 413 127 437 L 72 495 L 113 534 L 167 475 C 189 492 214 506 242 516 C 269 526 298 531 330 531 C 360 531 388 526 416 516 C 443 506 468 492 491 475 L 547 534 L 588 495 L 531 436 C 550 412 565 386 577 358 C 588 329 594 299 594 267 C 594 234 588 203 577 175 C 566 146 551 120 532 97 L 588 38 L 547 0 L 492 59 C 469 41 444 28 417 18 C 389 8 360 3 330 3 C 298 3 269 7 242 17 C 214 27 189 40 167 58 L 113 0 L 72 38 L 126 97 C 106 120 91 146 81 175 C 70 203 65 234 65 267 Z M 140 267 C 140 241 145 216 155 193 C 165 169 178 149 195 132 C 212 115 232 102 256 92 C 279 82 304 77 330 77 C 356 77 380 82 404 92 C 427 102 447 115 464 132 C 481 149 495 169 505 193 C 515 216 520 241 520 267 C 520 293 515 317 505 341 C 495 364 481 384 464 401 C 447 418 427 432 404 442 C 380 452 356 457 330 457 C 304 457 279 452 256 442 C 232 432 212 418 195 401 C 178 384 165 364 155 341 C 145 317 140 293 140 267 Z" unicode="¤" />
<glyph horiz-adv-x="668" d="M 70 313 L 291 313 L 29 700 L 131 700 L 334 389 L 538 700 L 639 700 L 377 313 L 599 313 L 599 258 L 377 258 L 377 167 L 599 167 L 599 112 L 377 112 L 377 0 L 291 0 L 291 112 L 70 112 L 70 167 L 291 167 L 291 258 L 70 258 L 70 313 Z" unicode="¥" />
<glyph horiz-adv-x="286" d="M 104 755 L 183 755 L 183 348 L 104 348 L 104 755 Z M 183 172 L 183 -200 L 104 -200 L 104 172 L 183 172 Z" unicode="¦" />
<glyph horiz-adv-x="533" d="M 392 312 C 392 334 385 352 371 366 C 357 379 339 390 317 400 C 295 409 272 417 247 425 C 221 432 197 441 175 452 C 165 444 157 435 151 424 C 144 412 141 400 141 387 C 141 364 148 346 162 333 C 176 319 193 308 215 298 C 237 288 260 280 286 273 C 311 265 335 256 358 246 C 366 253 374 262 381 274 C 388 285 392 298 392 312 Z M 467 322 C 467 299 460 279 448 261 C 436 243 422 229 406 217 C 419 205 429 192 437 178 C 445 163 449 145 449 125 C 449 81 431 47 397 23 C 363 -1 316 -13 258 -13 C 222 -13 187 -5 155 8 C 123 22 96 41 75 64 L 129 109 C 144 91 163 77 186 66 C 209 55 234 50 261 50 C 293 50 319 56 339 68 C 359 80 369 99 369 123 C 369 143 361 158 346 170 C 331 182 312 192 290 201 C 268 210 244 219 218 227 C 192 235 167 245 145 257 C 123 269 104 284 89 303 C 74 322 67 347 67 377 C 67 399 73 418 85 436 C 97 454 111 469 127 481 C 114 492 104 505 96 520 C 88 534 85 552 85 574 C 85 618 102 652 136 676 C 170 700 216 712 275 712 C 311 712 345 705 377 691 C 409 677 437 658 459 635 L 404 590 C 388 606 369 620 347 631 C 324 642 299 648 272 648 C 239 648 213 642 193 630 C 173 618 164 600 164 576 C 164 556 171 540 186 528 C 201 516 220 505 242 497 C 264 488 289 480 315 472 C 341 464 366 453 388 441 C 410 429 429 413 444 395 C 459 376 467 352 467 322 Z" unicode="§" />
<glyph horiz-adv-x="643" d="M 186 694 L 262 694 L 262 612 L 186 612 L 186 694 Z M 381 694 L 457 694 L 457 612 L 381 612 L 381 694 Z" unicode="¨" />
<glyph horiz-adv-x="859" d="M 66 280 C 66 330 75 377 94 421 C 113 465 139 504 172 537 C 204 569 243 595 287 614 C 331 633 379 643 429 643 C 479 643 526 633 570 614 C 614 595 653 569 686 537 C 719 504 745 465 764 421 C 783 377 793 330 793 280 C 793 230 783 183 764 139 C 745 95 719 56 686 24 C 653 -8 614 -34 570 -53 C 526 -72 479 -82 429 -82 C 379 -82 331 -72 287 -53 C 243 -34 204 -8 172 24 C 139 56 113 95 94 139 C 75 183 66 230 66 280 Z M 113 280 C 113 236 121 195 138 157 C 154 119 177 85 206 57 C 234 29 268 6 306 -10 C 344 -26 386 -35 430 -35 C 474 -35 515 -26 553 -10 C 591 6 625 29 654 57 C 682 85 705 119 722 157 C 738 195 747 236 747 280 C 747 324 738 365 722 403 C 705 441 682 475 654 504 C 625 532 591 555 553 572 C 515 588 474 597 430 597 C 386 597 344 588 306 572 C 268 555 234 532 206 504 C 177 475 154 441 138 403 C 121 365 113 324 113 280 Z M 232 280 C 232 308 237 334 247 358 C 257 382 272 404 290 422 C 308 440 329 454 354 464 C 379 474 407 479 437 479 C 460 479 484 475 508 468 C 532 461 554 450 575 435 L 539 387 C 523 398 507 407 490 413 C 473 419 456 423 438 423 C 418 423 399 419 382 412 C 364 405 349 395 337 383 C 324 370 314 355 307 337 C 300 319 297 300 297 280 C 297 235 310 200 336 174 C 362 148 396 136 438 136 C 457 136 476 139 494 145 C 512 151 529 161 543 175 L 583 134 C 563 116 541 102 517 92 C 492 82 465 78 437 78 C 406 78 378 82 353 92 C 328 102 307 115 289 133 C 271 151 257 172 247 197 C 237 221 232 249 232 280 Z" unicode="©" />
<glyph horiz-adv-x="375" d="M 97 431 C 97 416 102 404 113 395 C 123 386 137 382 155 382 C 175 382 194 386 210 394 C 226 402 240 412 251 424 L 251 508 C 233 507 215 505 197 503 C 179 501 162 497 147 491 C 132 485 120 478 111 468 C 101 458 97 446 97 431 Z M 37 426 C 37 448 43 467 55 483 C 67 498 84 510 104 520 C 124 529 146 536 172 540 C 198 544 224 547 251 549 L 251 598 C 251 614 245 627 235 638 C 225 649 207 655 183 655 C 164 655 145 651 125 645 C 105 638 87 630 70 621 L 47 670 C 66 680 88 688 113 695 C 137 702 161 706 185 706 C 229 706 260 695 280 675 C 300 655 310 629 310 597 L 310 424 C 310 411 313 402 319 396 C 325 390 334 388 346 388 L 346 342 C 320 342 300 345 288 352 C 275 359 265 370 258 385 C 244 370 228 358 209 349 C 190 339 168 335 144 335 C 112 335 86 343 66 360 C 46 376 37 398 37 426 Z" unicode="ª" />
<glyph horiz-adv-x="612" d="M 555 44 L 496 0 L 296 261 L 496 520 L 555 475 L 382 261 L 555 44 Z M 307 44 L 248 0 L 48 261 L 248 520 L 307 475 L 134 261 L 307 44 Z" unicode="«" />
<glyph horiz-adv-x="618" d="M 61 545 L 557 545 L 557 279 L 470 279 L 470 475 L 61 475 L 61 545 Z" unicode="¬" />
<glyph horiz-adv-x="859" d="M 66 280 C 66 330 75 377 94 421 C 113 465 139 504 172 537 C 204 569 243 595 287 614 C 331 633 379 643 429 643 C 479 643 526 633 570 614 C 614 595 653 569 686 537 C 719 504 745 465 764 421 C 783 377 793 330 793 280 C 793 230 783 183 764 139 C 745 95 719 56 686 24 C 653 -8 614 -34 570 -53 C 526 -72 479 -82 429 -82 C 379 -82 331 -72 287 -53 C 243 -34 204 -8 172 24 C 139 56 113 95 94 139 C 75 183 66 230 66 280 Z M 113 280 C 113 236 121 195 138 157 C 154 119 177 85 205 57 C 233 29 267 6 305 -10 C 343 -26 385 -35 429 -35 C 473 -35 514 -26 552 -10 C 590 6 624 29 653 57 C 682 85 705 119 722 157 C 738 195 747 236 747 280 C 747 324 738 365 722 403 C 705 441 682 475 653 504 C 624 532 590 555 552 572 C 514 588 473 597 429 597 C 385 597 343 588 305 572 C 267 555 233 532 205 504 C 177 475 154 441 138 403 C 121 365 113 324 113 280 Z M 454 285 C 470 285 483 287 494 291 C 505 295 514 300 521 307 C 527 313 532 320 535 328 C 538 336 540 344 540 352 C 540 369 533 385 521 399 C 509 413 487 421 455 421 L 345 421 L 345 285 L 454 285 Z M 281 472 L 461 472 C 487 472 509 468 527 462 C 545 455 559 446 571 435 C 582 423 590 410 595 396 C 600 382 603 367 603 352 C 603 330 596 309 583 288 C 570 267 548 252 518 243 C 521 238 527 228 535 213 C 543 198 552 182 562 165 C 571 148 580 132 589 118 C 597 103 603 93 606 89 L 536 89 L 457 236 L 345 236 L 345 89 L 281 89 L 281 472 Z" unicode="®" />
<glyph horiz-adv-x="641" d="M 177 682 L 471 682 L 471 624 L 177 624 L 177 682 Z" unicode="¯" />
<glyph horiz-adv-x="415" d="M 208 394 C 186 394 165 397 145 405 C 125 413 108 423 93 437 C 78 451 66 467 58 487 C 49 507 45 529 45 553 C 45 576 49 597 58 617 C 66 636 78 653 93 667 C 108 681 125 693 145 701 C 164 709 185 713 207 713 C 228 713 248 709 268 701 C 288 693 305 681 320 667 C 335 653 347 636 356 617 C 364 597 369 576 369 553 C 369 529 364 507 356 487 C 347 467 335 451 321 437 C 306 423 289 413 270 405 C 250 397 230 394 208 394 Z M 208 447 C 222 447 235 449 248 455 C 261 460 272 467 282 477 C 291 486 298 497 304 510 C 310 523 313 537 313 553 C 313 568 310 582 304 595 C 298 608 291 619 282 629 C 272 638 261 645 248 651 C 235 656 222 659 208 659 C 194 659 180 656 167 651 C 154 645 143 638 133 629 C 123 619 115 608 109 595 C 103 582 101 568 101 553 C 101 537 103 523 109 510 C 115 497 123 486 133 477 C 143 467 154 460 167 455 C 180 449 194 447 208 447 Z" unicode="°" />
<glyph horiz-adv-x="614" d="M 47 153 L 268 153 L 268 338 L 47 338 L 47 410 L 268 410 L 268 611 L 346 611 L 346 410 L 567 410 L 567 338 L 346 338 L 346 153 L 567 153 L 567 92 L 47 92 L 47 153 Z" unicode="±" />
<glyph horiz-adv-x="336" d="M 43 528 C 42 555 46 578 56 596 C 66 614 78 629 93 641 C 107 653 123 663 141 671 C 159 679 175 688 190 696 C 205 704 218 712 228 722 C 238 732 243 744 243 759 C 243 773 236 786 224 796 C 212 806 193 812 168 812 C 150 812 132 807 116 799 C 100 791 86 781 75 769 L 37 804 C 53 820 72 833 96 844 C 119 854 144 860 171 860 C 214 860 246 850 268 830 C 290 810 301 786 301 758 C 301 737 296 720 286 706 C 276 692 264 681 250 671 C 235 661 219 653 202 645 C 185 637 169 629 155 621 C 140 612 128 602 118 591 C 108 579 103 565 103 548 L 301 548 L 301 500 L 43 500 L 43 528 Z" unicode="²" />
<glyph horiz-adv-x="333" d="M 58 567 C 71 559 86 553 102 548 C 118 543 135 541 152 541 C 179 541 201 547 219 559 C 236 571 245 586 245 606 C 245 624 238 638 224 647 C 210 656 191 661 168 661 L 116 661 L 116 707 L 165 707 C 187 707 203 711 215 721 C 227 731 233 744 233 761 C 233 775 226 787 214 797 C 202 807 185 812 163 812 C 145 812 128 808 112 801 C 96 794 81 785 68 773 L 36 810 C 52 824 72 836 94 846 C 116 855 139 860 164 860 C 201 860 231 851 255 834 C 279 816 291 794 291 768 C 291 747 286 730 276 718 C 266 705 253 695 237 688 C 257 680 274 670 286 657 C 298 643 304 626 304 605 C 304 587 300 571 292 557 C 284 543 273 531 259 522 C 245 512 229 505 211 500 C 193 495 173 493 153 493 C 131 493 110 495 90 501 C 70 507 52 513 37 521 L 58 567 Z" unicode="³" />
<glyph horiz-adv-x="633" d="M 356 751 L 415 706 L 274 574 L 217 574 L 356 751 Z" unicode="´" />
<glyph horiz-adv-x="551" d="M 135 -200 L 61 -200 L 61 545 L 145 545 L 145 157 C 146 126 154 101 168 83 C 182 64 208 55 244 55 C 276 55 306 62 333 77 C 359 91 383 111 405 137 L 405 545 L 489 545 L 489 0 L 412 0 L 407 67 C 387 45 363 26 337 11 C 311 -3 282 -11 251 -11 C 221 -11 197 -6 181 2 C 164 11 151 24 142 40 L 135 -200 Z" unicode="µ" />
<glyph horiz-adv-x="690" d="M 339 286 L 299 286 C 256 286 220 292 190 305 C 160 317 135 334 116 354 C 97 374 83 396 75 420 C 66 444 62 468 62 492 C 62 517 66 542 74 567 C 82 591 96 613 115 633 C 133 653 158 669 188 681 C 218 693 254 700 297 700 L 601 700 L 601 0 L 526 0 L 526 637 L 414 637 L 414 0 L 339 0 L 339 286 Z" unicode="¶" />
<glyph horiz-adv-x="218" d="M 63 319 L 156 319 L 156 202 L 63 202 L 63 319 Z" unicode="·" />
<glyph horiz-adv-x="633" d="M 233 -185 C 264 -159 291 -130 315 -97 C 339 -64 353 -29 359 9 L 412 9 C 408 -35 396 -76 376 -114 C 356 -152 329 -187 296 -217 L 233 -185 Z" unicode="¸" />
<glyph horiz-adv-x="287" d="M 141 797 L 67 758 L 44 800 L 153 854 L 198 854 L 198 500 L 141 500 L 141 797 Z" unicode="¹" />
<glyph horiz-adv-x="423" d="M 35 525 C 35 552 39 577 48 599 C 56 621 68 640 84 656 C 100 672 118 684 139 693 C 160 701 183 706 208 706 C 233 706 256 701 277 693 C 298 684 316 672 332 656 C 347 640 359 621 368 599 C 376 577 381 552 381 525 C 381 465 365 419 333 385 C 301 351 260 335 208 335 C 156 335 114 351 82 385 C 50 419 35 465 35 525 Z M 95 524 C 95 482 105 448 125 423 C 145 397 172 385 208 385 C 242 385 269 397 289 423 C 309 448 320 482 320 524 C 320 564 309 596 289 620 C 268 644 241 656 208 656 C 174 656 147 644 126 620 C 105 596 95 564 95 524 Z" unicode="º" />
<glyph horiz-adv-x="612" d="M 479 261 L 306 475 L 365 520 L 565 261 L 365 0 L 306 44 L 479 261 Z M 230 261 L 57 475 L 116 520 L 316 261 L 116 0 L 57 44 L 230 261 Z" unicode="»" />
<glyph horiz-adv-x="1129" d="M 237 214 L 237 627 L 91 542 L 55 596 L 245 700 L 311 700 L 311 214 L 237 214 Z M 329 0 L 701 700 L 773 700 L 401 0 L 329 0 Z M 666 167 L 901 486 L 1008 486 L 1008 166 L 1091 166 L 1091 109 L 1008 109 L 1008 0 L 935 0 L 935 109 L 684 109 L 666 167 Z M 935 166 L 936 434 L 739 166 L 935 166 Z" unicode="¼" />
<glyph horiz-adv-x="1187" d="M 237 214 L 237 627 L 91 542 L 55 596 L 245 700 L 311 700 L 311 214 L 237 214 Z M 329 0 L 701 700 L 773 700 L 401 0 L 329 0 Z M 757 0 L 757 32 C 757 64 764 92 778 115 C 792 137 809 157 831 173 C 852 189 875 204 900 217 C 924 229 947 242 969 255 C 990 267 1008 281 1022 297 C 1036 312 1043 330 1043 352 C 1043 376 1035 395 1019 410 C 1003 425 979 433 947 433 C 919 433 891 426 865 414 C 839 402 814 386 792 367 L 751 420 C 780 442 811 460 845 473 C 879 486 914 493 950 493 C 1007 493 1049 479 1077 452 C 1104 424 1118 390 1118 349 C 1118 321 1111 297 1098 278 C 1085 259 1069 243 1049 229 C 1029 215 1008 203 985 192 C 961 181 939 169 918 157 C 896 145 877 131 861 115 C 845 99 834 80 830 57 L 1113 57 L 1113 0 L 757 0 Z" unicode="½" />
<glyph horiz-adv-x="1195" d="M 405 0 L 777 700 L 849 700 L 477 0 L 405 0 Z M 732 167 L 967 486 L 1074 486 L 1074 166 L 1157 166 L 1157 109 L 1074 109 L 1074 0 L 1001 0 L 1001 109 L 750 109 L 732 167 Z M 1001 166 L 1002 434 L 805 166 L 1001 166 Z M 231 207 C 201 207 171 209 143 215 C 115 221 88 230 62 242 L 90 300 C 112 288 135 280 161 274 C 186 268 210 266 234 266 C 282 266 319 274 344 291 C 369 308 382 332 382 362 C 382 388 372 408 354 420 C 335 432 309 439 276 439 L 163 439 L 163 493 L 266 493 C 296 493 320 500 338 514 C 356 528 365 548 365 574 C 365 597 355 615 337 629 C 318 642 292 649 260 649 C 234 649 208 644 182 636 C 155 628 130 616 107 601 L 74 654 C 102 671 133 684 165 693 C 197 702 229 707 263 707 C 318 707 361 695 393 672 C 425 648 441 618 441 582 C 441 556 433 533 419 513 C 405 493 383 479 353 471 C 389 463 415 450 432 430 C 449 410 458 387 458 359 C 458 335 452 313 441 294 C 429 275 413 259 393 246 C 373 233 349 223 321 217 C 293 210 263 207 231 207 Z" unicode="¾" />
<glyph horiz-adv-x="510" d="M 348 413 L 257 413 L 257 520 L 348 520 L 348 413 Z M 336 314 C 336 312 336 309 336 303 C 336 297 337 293 337 292 C 337 262 332 236 322 216 C 312 196 300 178 285 164 C 270 149 254 136 237 125 C 220 113 204 102 189 90 C 174 78 162 64 152 49 C 142 33 138 14 138 -9 C 138 -41 150 -68 176 -89 C 201 -110 235 -121 277 -121 C 308 -121 337 -114 363 -101 C 389 -87 414 -70 436 -49 L 488 -98 C 460 -126 429 -149 394 -166 C 359 -183 320 -192 276 -192 C 242 -192 212 -187 185 -179 C 157 -170 134 -158 115 -142 C 95 -126 80 -108 70 -86 C 59 -64 54 -39 54 -13 C 54 17 59 42 70 63 C 80 83 93 101 109 117 C 125 133 142 147 161 159 C 179 171 197 183 213 197 C 229 210 242 225 253 241 C 264 257 270 277 270 301 L 270 314 L 336 314 Z" unicode="¿" />
<glyph horiz-adv-x="692" d="M 210 843 L 275 889 L 388 755 L 325 755 L 210 843 Z M 210 241 L 481 241 L 346 613 L 344 613 L 210 241 Z M 295 700 L 397 700 L 661 0 L 569 0 L 506 172 L 185 172 L 123 0 L 30 0 L 295 700 Z" unicode="À" />
<glyph horiz-adv-x="692" d="M 416 889 L 482 843 L 367 755 L 304 755 L 416 889 Z M 210 241 L 481 241 L 346 613 L 344 613 L 210 241 Z M 295 700 L 397 700 L 661 0 L 569 0 L 506 172 L 185 172 L 123 0 L 30 0 L 295 700 Z" unicode="Á" />
<glyph horiz-adv-x="692" d="M 305 870 L 387 870 L 513 755 L 455 755 L 347 823 L 346 823 L 237 755 L 179 755 L 305 870 Z M 210 241 L 481 241 L 346 613 L 344 613 L 210 241 Z M 295 700 L 397 700 L 661 0 L 569 0 L 506 172 L 185 172 L 123 0 L 30 0 L 295 700 Z" unicode="Â" />
<glyph horiz-adv-x="692" d="M 196 760 C 192 796 197 824 213 844 C 229 864 251 874 279 874 C 294 874 307 870 319 864 C 331 857 341 850 351 842 C 361 834 370 827 379 821 C 387 814 397 811 407 811 C 419 811 429 815 435 825 C 441 834 444 847 442 865 L 494 865 C 498 829 493 801 477 781 C 461 761 439 751 411 751 C 395 751 382 754 371 760 C 359 766 349 774 339 782 C 329 790 319 797 310 803 C 301 809 292 813 282 813 C 270 813 260 808 254 799 C 248 790 246 777 248 760 L 196 760 Z M 210 241 L 481 241 L 346 613 L 344 613 L 210 241 Z M 295 700 L 397 700 L 661 0 L 569 0 L 506 172 L 185 172 L 123 0 L 30 0 L 295 700 Z" unicode="Ã" />
<glyph horiz-adv-x="692" d="M 207 854 L 284 854 L 284 772 L 207 772 L 207 854 Z M 409 854 L 485 854 L 485 772 L 409 772 L 409 854 Z M 210 241 L 481 241 L 346 613 L 344 613 L 210 241 Z M 295 700 L 397 700 L 661 0 L 569 0 L 506 172 L 185 172 L 123 0 L 30 0 L 295 700 Z" unicode="Ä" />
<glyph horiz-adv-x="692" d="M 346 700 C 364 700 379 706 391 719 C 403 731 410 747 410 765 C 410 783 403 799 391 811 C 379 823 364 830 346 830 C 328 830 312 823 300 811 C 287 799 281 783 281 765 C 281 747 287 731 300 719 C 312 706 328 700 346 700 Z M 210 241 L 481 241 L 346 613 L 344 613 L 210 241 Z M 287 680 C 273 689 261 701 253 715 C 245 729 241 746 241 765 C 241 779 243 793 249 805 C 255 817 262 828 272 838 C 281 847 292 854 305 860 C 317 865 331 868 346 868 C 360 868 374 865 387 860 C 399 854 410 847 420 838 C 430 828 437 817 443 805 C 448 793 451 779 451 765 C 451 746 446 729 438 715 C 429 701 418 689 404 680 L 661 0 L 569 0 L 506 172 L 185 172 L 123 0 L 30 0 L 287 680 Z" unicode="Å" />
<glyph horiz-adv-x="1034" d="M 231 243 L 511 243 L 405 624 L 400 624 L 231 243 Z M 348 700 L 963 700 L 963 624 L 490 624 L 557 393 L 924 393 L 924 320 L 578 320 L 649 76 L 970 76 L 970 0 L 579 0 L 531 172 L 199 172 L 123 0 L 27 0 L 348 700 Z" unicode="Æ" />
<glyph horiz-adv-x="710" d="M 229 -185 C 257 -161 283 -135 306 -105 C 328 -75 344 -42 352 -8 C 307 -2 266 11 230 31 C 193 51 162 76 136 108 C 110 140 90 177 76 219 C 62 261 55 307 55 357 C 55 409 63 457 81 501 C 98 544 122 581 153 613 C 184 644 221 668 265 686 C 308 703 356 712 408 712 C 451 712 492 705 532 693 C 571 680 607 661 640 636 L 594 574 C 566 594 537 610 507 621 C 476 632 443 638 409 638 C 369 638 332 631 299 618 C 266 604 238 585 215 561 C 191 536 173 506 160 472 C 147 437 141 399 141 357 C 141 313 147 272 160 236 C 172 200 190 169 214 143 C 237 117 265 97 298 83 C 331 69 368 62 409 62 C 447 62 482 68 515 81 C 548 94 577 113 603 138 L 656 82 C 622 50 585 26 543 11 C 501 -4 455 -12 406 -12 L 405 -12 C 399 -52 386 -89 366 -124 C 346 -158 322 -189 292 -217 L 229 -185 Z" unicode="Ç" />
<glyph horiz-adv-x="635" d="M 191 843 L 256 889 L 369 755 L 306 755 L 191 843 Z M 84 700 L 564 700 L 564 624 L 169 624 L 169 392 L 525 392 L 525 321 L 169 321 L 169 76 L 570 76 L 570 0 L 84 0 L 84 700 Z" unicode="È" />
<glyph horiz-adv-x="635" d="M 397 889 L 463 843 L 348 755 L 285 755 L 397 889 Z M 84 700 L 564 700 L 564 624 L 169 624 L 169 392 L 525 392 L 525 321 L 169 321 L 169 76 L 570 76 L 570 0 L 84 0 L 84 700 Z" unicode="É" />
<glyph horiz-adv-x="635" d="M 286 870 L 368 870 L 494 755 L 436 755 L 328 823 L 327 823 L 218 755 L 160 755 L 286 870 Z M 84 700 L 564 700 L 564 624 L 169 624 L 169 392 L 525 392 L 525 321 L 169 321 L 169 76 L 570 76 L 570 0 L 84 0 L 84 700 Z" unicode="Ê" />
<glyph horiz-adv-x="635" d="M 189 854 L 266 854 L 266 772 L 189 772 L 189 854 Z M 391 854 L 467 854 L 467 772 L 391 772 L 391 854 Z M 84 700 L 564 700 L 564 624 L 169 624 L 169 392 L 525 392 L 525 321 L 169 321 L 169 76 L 570 76 L 570 0 L 84 0 L 84 700 Z" unicode="Ë" />
<glyph horiz-adv-x="252" d="M -9 843 L 56 889 L 169 755 L 106 755 L -9 843 Z M 84 700 L 169 700 L 169 0 L 84 0 L 84 700 Z" unicode="Ì" />
<glyph horiz-adv-x="252" d="M 196 889 L 262 843 L 147 755 L 84 755 L 196 889 Z M 84 700 L 169 700 L 169 0 L 84 0 L 84 700 Z" unicode="Í" />
<glyph horiz-adv-x="252" d="M 86 870 L 168 870 L 294 755 L 236 755 L 128 823 L 127 823 L 18 755 L -40 755 L 86 870 Z M 84 700 L 169 700 L 169 0 L 84 0 L 84 700 Z" unicode="Î" />
<glyph horiz-adv-x="252" d="M -12 854 L 65 854 L 65 772 L -12 772 L -12 854 Z M 190 854 L 266 854 L 266 772 L 190 772 L 190 854 Z M 84 700 L 169 700 L 169 0 L 84 0 L 84 700 Z" unicode="Ï" />
<glyph horiz-adv-x="749" d="M 327 72 C 421 72 492 97 539 147 C 586 197 610 266 610 354 C 610 396 603 433 591 467 C 579 501 561 530 537 554 C 513 578 483 596 448 609 C 413 621 373 628 327 628 L 205 628 L 205 381 L 410 381 L 410 323 L 205 323 L 205 72 L 327 72 Z M 120 700 L 322 700 C 382 700 436 692 483 676 C 529 660 568 637 600 607 C 631 577 655 541 671 499 C 687 456 696 408 696 354 C 696 298 688 249 673 205 C 657 161 634 124 603 94 C 572 63 533 40 487 24 C 440 8 385 0 322 0 L 120 0 L 120 323 L 14 323 L 14 381 L 120 381 L 120 700 Z" unicode="Ð" />
<glyph horiz-adv-x="725" d="M 213 760 C 209 796 214 824 230 844 C 246 864 268 874 296 874 C 311 874 324 870 336 864 C 348 857 358 850 368 842 C 378 834 387 827 396 821 C 404 814 414 811 424 811 C 436 811 446 815 452 825 C 458 834 461 847 459 865 L 511 865 C 515 829 510 801 494 781 C 478 761 456 751 428 751 C 412 751 399 754 388 760 C 376 766 366 774 356 782 C 346 790 336 797 327 803 C 318 809 309 813 299 813 C 287 813 277 808 271 799 C 265 790 263 777 265 760 L 213 760 Z M 84 700 L 170 700 L 559 132 L 559 700 L 641 700 L 641 0 L 554 0 L 166 567 L 166 0 L 84 0 L 84 700 Z" unicode="Ñ" />
<glyph horiz-adv-x="809" d="M 270 843 L 335 889 L 448 755 L 385 755 L 270 843 Z M 55 355 C 55 409 64 458 82 502 C 100 546 124 583 156 614 C 187 645 224 669 267 686 C 309 703 355 712 405 712 C 454 712 500 703 542 686 C 584 669 621 645 653 614 C 685 583 710 546 728 502 C 746 458 755 409 755 355 C 755 299 746 248 728 203 C 710 157 685 119 654 87 C 622 55 585 30 543 13 C 500 -3 454 -12 405 -12 C 355 -12 309 -3 267 13 C 224 30 187 55 156 87 C 124 119 100 157 82 203 C 64 248 55 299 55 355 Z M 142 355 C 142 309 148 268 162 232 C 176 196 194 165 218 140 C 241 114 269 95 301 82 C 333 68 368 62 405 62 C 441 62 476 68 508 82 C 540 95 567 114 591 140 C 615 165 633 196 647 232 C 661 268 668 309 668 355 C 668 398 661 437 647 472 C 633 507 615 537 591 561 C 567 585 540 604 508 618 C 476 631 441 638 405 638 C 368 638 334 631 302 618 C 270 604 242 585 218 561 C 194 537 176 507 162 472 C 148 437 142 398 142 355 Z" unicode="Ò" />
<glyph horiz-adv-x="809" d="M 475 889 L 541 843 L 426 755 L 363 755 L 475 889 Z M 55 355 C 55 409 64 458 82 502 C 100 546 124 583 156 614 C 187 645 224 669 267 686 C 309 703 355 712 405 712 C 454 712 500 703 542 686 C 584 669 621 645 653 614 C 685 583 710 546 728 502 C 746 458 755 409 755 355 C 755 299 746 248 728 203 C 710 157 685 119 654 87 C 622 55 585 30 543 13 C 500 -3 454 -12 405 -12 C 355 -12 309 -3 267 13 C 224 30 187 55 156 87 C 124 119 100 157 82 203 C 64 248 55 299 55 355 Z M 142 355 C 142 309 148 268 162 232 C 176 196 194 165 218 140 C 241 114 269 95 301 82 C 333 68 368 62 405 62 C 441 62 476 68 508 82 C 540 95 567 114 591 140 C 615 165 633 196 647 232 C 661 268 668 309 668 355 C 668 398 661 437 647 472 C 633 507 615 537 591 561 C 567 585 540 604 508 618 C 476 631 441 638 405 638 C 368 638 334 631 302 618 C 270 604 242 585 218 561 C 194 537 176 507 162 472 C 148 437 142 398 142 355 Z" unicode="Ó" />
<glyph horiz-adv-x="809" d="M 364 870 L 446 870 L 572 755 L 514 755 L 406 823 L 405 823 L 296 755 L 238 755 L 364 870 Z M 55 355 C 55 409 64 458 82 502 C 100 546 124 583 156 614 C 187 645 224 669 267 686 C 309 703 355 712 405 712 C 454 712 500 703 542 686 C 584 669 621 645 653 614 C 685 583 710 546 728 502 C 746 458 755 409 755 355 C 755 299 746 248 728 203 C 710 157 685 119 654 87 C 622 55 585 30 543 13 C 500 -3 454 -12 405 -12 C 355 -12 309 -3 267 13 C 224 30 187 55 156 87 C 124 119 100 157 82 203 C 64 248 55 299 55 355 Z M 142 355 C 142 309 148 268 162 232 C 176 196 194 165 218 140 C 241 114 269 95 301 82 C 333 68 368 62 405 62 C 441 62 476 68 508 82 C 540 95 567 114 591 140 C 615 165 633 196 647 232 C 661 268 668 309 668 355 C 668 398 661 437 647 472 C 633 507 615 537 591 561 C 567 585 540 604 508 618 C 476 631 441 638 405 638 C 368 638 334 631 302 618 C 270 604 242 585 218 561 C 194 537 176 507 162 472 C 148 437 142 398 142 355 Z" unicode="Ô" />
<glyph horiz-adv-x="809" d="M 256 760 C 252 796 257 824 273 844 C 289 864 311 874 339 874 C 354 874 367 870 379 864 C 391 857 401 850 411 842 C 421 834 430 827 439 821 C 447 814 457 811 467 811 C 479 811 489 815 495 825 C 501 834 504 847 502 865 L 554 865 C 558 829 553 801 537 781 C 521 761 499 751 471 751 C 455 751 442 754 431 760 C 419 766 409 774 399 782 C 389 790 379 797 370 803 C 361 809 352 813 342 813 C 330 813 320 808 314 799 C 308 790 306 777 308 760 L 256 760 Z M 55 355 C 55 409 64 458 82 502 C 100 546 124 583 156 614 C 187 645 224 669 267 686 C 309 703 355 712 405 712 C 454 712 500 703 542 686 C 584 669 621 645 653 614 C 685 583 710 546 728 502 C 746 458 755 409 755 355 C 755 299 746 248 728 203 C 710 157 685 119 654 87 C 622 55 585 30 543 13 C 500 -3 454 -12 405 -12 C 355 -12 309 -3 267 13 C 224 30 187 55 156 87 C 124 119 100 157 82 203 C 64 248 55 299 55 355 Z M 142 355 C 142 309 148 268 162 232 C 176 196 194 165 218 140 C 241 114 269 95 301 82 C 333 68 368 62 405 62 C 441 62 476 68 508 82 C 540 95 567 114 591 140 C 615 165 633 196 647 232 C 661 268 668 309 668 355 C 668 398 661 437 647 472 C 633 507 615 537 591 561 C 567 585 540 604 508 618 C 476 631 441 638 405 638 C 368 638 334 631 302 618 C 270 604 242 585 218 561 C 194 537 176 507 162 472 C 148 437 142 398 142 355 Z" unicode="Õ" />
<glyph horiz-adv-x="809" d="M 266 854 L 343 854 L 343 772 L 266 772 L 266 854 Z M 468 854 L 544 854 L 544 772 L 468 772 L 468 854 Z M 55 355 C 55 409 64 458 82 502 C 100 546 124 583 156 614 C 187 645 224 669 267 686 C 309 703 355 712 405 712 C 454 712 500 703 542 686 C 584 669 621 645 653 614 C 685 583 710 546 728 502 C 746 458 755 409 755 355 C 755 299 746 248 728 203 C 710 157 685 119 654 87 C 622 55 585 30 543 13 C 500 -3 454 -12 405 -12 C 355 -12 309 -3 267 13 C 224 30 187 55 156 87 C 124 119 100 157 82 203 C 64 248 55 299 55 355 Z M 142 355 C 142 309 148 268 162 232 C 176 196 194 165 218 140 C 241 114 269 95 301 82 C 333 68 368 62 405 62 C 441 62 476 68 508 82 C 540 95 567 114 591 140 C 615 165 633 196 647 232 C 661 268 668 309 668 355 C 668 398 661 437 647 472 C 633 507 615 537 591 561 C 567 585 540 604 508 618 C 476 631 441 638 405 638 C 368 638 334 631 302 618 C 270 604 242 585 218 561 C 194 537 176 507 162 472 C 148 437 142 398 142 355 Z" unicode="Ö" />
<glyph horiz-adv-x="592" d="M 244 351 L 70 536 L 122 587 L 295 403 L 469 587 L 522 536 L 347 351 L 522 166 L 469 116 L 295 299 L 122 116 L 70 166 L 244 351 Z" unicode="×" />
<glyph horiz-adv-x="809" d="M 142 355 C 142 309 148 268 161 232 C 174 196 192 166 216 141 L 557 591 C 535 606 512 618 486 626 C 460 634 433 638 405 638 C 368 638 334 631 302 618 C 270 604 242 585 218 561 C 194 537 176 507 162 472 C 148 437 142 398 142 355 Z M 668 355 C 668 397 661 436 648 470 C 635 504 617 534 594 559 L 252 109 C 295 77 346 62 405 62 C 441 62 476 68 508 82 C 540 95 567 114 591 140 C 615 165 633 196 647 232 C 661 268 668 309 668 355 Z M 55 355 C 55 409 64 458 82 502 C 100 546 124 583 156 614 C 187 645 224 669 267 686 C 309 703 355 712 405 712 C 442 712 477 707 511 697 C 545 687 576 672 604 654 L 666 736 L 710 701 L 647 621 C 681 589 707 550 726 506 C 745 462 755 411 755 355 C 755 299 746 248 728 203 C 710 157 685 119 654 87 C 622 55 585 30 543 13 C 500 -3 454 -12 405 -12 C 329 -12 263 7 207 45 L 144 -36 L 100 -3 L 164 79 C 130 111 103 150 84 196 C 64 242 55 295 55 355 Z" unicode="Ø" />
<glyph horiz-adv-x="716" d="M 222 843 L 287 889 L 400 755 L 337 755 L 222 843 Z M 81 700 L 167 700 L 167 259 C 167 227 172 198 182 174 C 192 149 205 128 222 112 C 239 96 259 83 283 75 C 306 66 331 62 358 62 C 384 62 409 66 433 75 C 456 83 476 96 494 112 C 511 128 525 149 535 174 C 545 198 550 227 550 259 L 550 700 L 635 700 L 635 259 C 635 214 627 175 613 141 C 599 107 579 78 555 56 C 530 33 501 16 467 5 C 433 -6 397 -12 358 -12 C 319 -12 283 -6 249 5 C 215 16 185 33 161 56 C 136 78 116 107 102 141 C 88 175 81 214 81 259 L 81 700 Z" unicode="Ù" />
<glyph horiz-adv-x="716" d="M 428 889 L 494 843 L 379 755 L 316 755 L 428 889 Z M 81 700 L 167 700 L 167 259 C 167 227 172 198 182 174 C 192 149 205 128 222 112 C 239 96 259 83 283 75 C 306 66 331 62 358 62 C 384 62 409 66 433 75 C 456 83 476 96 494 112 C 511 128 525 149 535 174 C 545 198 550 227 550 259 L 550 700 L 635 700 L 635 259 C 635 214 627 175 613 141 C 599 107 579 78 555 56 C 530 33 501 16 467 5 C 433 -6 397 -12 358 -12 C 319 -12 283 -6 249 5 C 215 16 185 33 161 56 C 136 78 116 107 102 141 C 88 175 81 214 81 259 L 81 700 Z" unicode="Ú" />
<glyph horiz-adv-x="716" d="M 317 870 L 399 870 L 525 755 L 467 755 L 359 823 L 358 823 L 249 755 L 191 755 L 317 870 Z M 81 700 L 167 700 L 167 259 C 167 227 172 198 182 174 C 192 149 205 128 222 112 C 239 96 259 83 283 75 C 306 66 331 62 358 62 C 384 62 409 66 433 75 C 456 83 476 96 494 112 C 511 128 525 149 535 174 C 545 198 550 227 550 259 L 550 700 L 635 700 L 635 259 C 635 214 627 175 613 141 C 599 107 579 78 555 56 C 530 33 501 16 467 5 C 433 -6 397 -12 358 -12 C 319 -12 283 -6 249 5 C 215 16 185 33 161 56 C 136 78 116 107 102 141 C 88 175 81 214 81 259 L 81 700 Z" unicode="Û" />
<glyph horiz-adv-x="716" d="M 219 854 L 296 854 L 296 772 L 219 772 L 219 854 Z M 421 854 L 497 854 L 497 772 L 421 772 L 421 854 Z M 81 700 L 167 700 L 167 259 C 167 227 172 198 182 174 C 192 149 205 128 222 112 C 239 96 259 83 283 75 C 306 66 331 62 358 62 C 384 62 409 66 433 75 C 456 83 476 96 494 112 C 511 128 525 149 535 174 C 545 198 550 227 550 259 L 550 700 L 635 700 L 635 259 C 635 214 627 175 613 141 C 599 107 579 78 555 56 C 530 33 501 16 467 5 C 433 -6 397 -12 358 -12 C 319 -12 283 -6 249 5 C 215 16 185 33 161 56 C 136 78 116 107 102 141 C 88 175 81 214 81 259 L 81 700 Z" unicode="Ü" />
<glyph horiz-adv-x="669" d="M 405 889 L 471 843 L 356 755 L 293 755 L 405 889 Z M 292 285 L 28 700 L 129 700 L 334 367 L 336 367 L 541 700 L 641 700 L 377 285 L 377 0 L 292 0 L 292 285 Z" unicode="Ý" />
<glyph horiz-adv-x="657" d="M 84 700 L 169 700 L 169 573 L 342 573 C 387 573 426 567 459 556 C 492 544 519 529 540 509 C 561 489 577 466 587 440 C 597 413 602 385 602 355 C 602 324 597 295 587 268 C 577 241 562 217 541 197 C 520 177 493 161 460 149 C 427 137 388 132 342 132 L 169 132 L 169 0 L 84 0 L 84 700 Z M 341 203 C 371 203 397 206 419 214 C 441 222 460 232 474 246 C 488 260 499 276 506 295 C 513 313 517 333 517 355 C 517 397 502 432 474 460 C 445 488 401 502 342 502 L 169 502 L 169 203 L 341 203 Z" unicode="Þ" />
<glyph horiz-adv-x="636" d="M 79 545 C 79 579 84 610 96 637 C 107 664 123 687 143 705 C 163 723 188 737 216 747 C 244 757 274 762 307 762 C 339 762 370 757 398 748 C 426 738 451 725 472 708 C 492 690 509 669 521 644 C 533 618 539 590 539 559 C 539 519 527 484 505 454 C 482 424 450 403 410 391 C 464 381 508 360 540 326 C 572 292 588 250 588 200 C 588 166 582 136 570 110 C 558 84 541 62 520 44 C 499 26 474 13 446 4 C 418 -5 388 -10 356 -10 C 336 -10 316 -8 298 -6 C 279 -3 262 0 247 5 L 262 74 C 273 70 286 66 301 64 C 316 61 331 60 347 60 C 369 60 389 63 409 69 C 428 75 445 85 459 97 C 473 109 484 124 492 142 C 500 160 505 180 505 203 C 505 249 488 285 455 311 C 421 337 377 350 323 350 L 279 350 L 279 420 L 308 420 C 332 420 354 423 373 431 C 391 438 407 448 419 460 C 431 472 441 487 447 504 C 453 520 456 538 456 556 C 456 600 442 634 415 659 C 387 683 351 696 307 696 C 263 696 228 683 201 658 C 174 632 161 595 161 546 L 161 0 L 79 0 L 79 545 Z" unicode="ß" />
<glyph horiz-adv-x="530" d="M 121 706 L 180 751 L 319 574 L 262 574 L 121 706 Z M 131 126 C 131 103 139 85 155 72 C 171 58 192 52 219 52 C 251 52 279 58 303 71 C 327 84 347 100 361 118 L 361 244 C 335 242 308 240 281 236 C 253 232 229 226 207 218 C 185 209 166 197 152 183 C 138 168 131 149 131 126 Z M 49 120 C 49 152 57 179 75 201 C 93 223 116 240 145 254 C 174 268 207 278 245 284 C 282 290 321 295 361 297 L 361 373 C 361 399 353 420 337 437 C 321 453 296 462 260 462 C 232 462 204 457 176 448 C 148 438 121 427 96 414 L 64 480 C 92 493 123 505 158 515 C 193 525 228 531 262 531 C 294 531 321 527 344 519 C 367 511 386 500 401 486 C 415 472 426 455 433 436 C 440 416 444 395 444 372 L 444 113 C 444 95 448 81 458 73 C 467 64 480 60 496 60 L 496 -1 C 459 -1 431 4 413 14 C 394 24 380 41 371 64 C 351 42 326 23 298 9 C 270 -4 237 -12 201 -12 C 155 -12 118 0 90 24 C 62 48 49 80 49 120 Z" unicode="à" />
<glyph horiz-adv-x="530" d="M 362 751 L 421 706 L 280 574 L 223 574 L 362 751 Z M 131 126 C 131 103 139 85 155 72 C 171 58 192 52 219 52 C 251 52 279 58 303 71 C 327 84 347 100 361 118 L 361 244 C 335 242 308 240 281 236 C 253 232 229 226 207 218 C 185 209 166 197 152 183 C 138 168 131 149 131 126 Z M 49 120 C 49 152 57 179 75 201 C 93 223 116 240 145 254 C 174 268 207 278 245 284 C 282 290 321 295 361 297 L 361 373 C 361 399 353 420 337 437 C 321 453 296 462 260 462 C 232 462 204 457 176 448 C 148 438 121 427 96 414 L 64 480 C 92 493 123 505 158 515 C 193 525 228 531 262 531 C 294 531 321 527 344 519 C 367 511 386 500 401 486 C 415 472 426 455 433 436 C 440 416 444 395 444 372 L 444 113 C 444 95 448 81 458 73 C 467 64 480 60 496 60 L 496 -1 C 459 -1 431 4 413 14 C 394 24 380 41 371 64 C 351 42 326 23 298 9 C 270 -4 237 -12 201 -12 C 155 -12 118 0 90 24 C 62 48 49 80 49 120 Z" unicode="á" />
<glyph horiz-adv-x="530" d="M 228 732 L 316 732 L 440 574 L 380 574 L 272 683 L 271 683 L 163 574 L 104 574 L 228 732 Z M 131 126 C 131 103 139 85 155 72 C 171 58 192 52 219 52 C 251 52 279 58 303 71 C 327 84 347 100 361 118 L 361 244 C 335 242 308 240 281 236 C 253 232 229 226 207 218 C 185 209 166 197 152 183 C 138 168 131 149 131 126 Z M 49 120 C 49 152 57 179 75 201 C 93 223 116 240 145 254 C 174 268 207 278 245 284 C 282 290 321 295 361 297 L 361 373 C 361 399 353 420 337 437 C 321 453 296 462 260 462 C 232 462 204 457 176 448 C 148 438 121 427 96 414 L 64 480 C 92 493 123 505 158 515 C 193 525 228 531 262 531 C 294 531 321 527 344 519 C 367 511 386 500 401 486 C 415 472 426 455 433 436 C 440 416 444 395 444 372 L 444 113 C 444 95 448 81 458 73 C 467 64 480 60 496 60 L 496 -1 C 459 -1 431 4 413 14 C 394 24 380 41 371 64 C 351 42 326 23 298 9 C 270 -4 237 -12 201 -12 C 155 -12 118 0 90 24 C 62 48 49 80 49 120 Z" unicode="â" />
<glyph horiz-adv-x="530" d="M 123 600 C 119 636 124 664 140 684 C 156 704 178 715 206 715 C 221 715 234 711 246 705 C 257 698 267 691 277 683 C 287 675 296 668 305 662 C 313 655 323 652 333 652 C 345 652 355 656 361 666 C 367 675 370 688 368 706 L 419 706 C 423 670 418 641 402 621 C 386 601 365 591 337 591 C 322 591 309 594 297 600 C 285 606 275 614 265 622 C 255 630 246 637 237 643 C 228 649 219 653 209 653 C 197 653 187 648 181 639 C 175 630 173 617 175 600 L 123 600 Z M 131 126 C 131 103 139 85 155 72 C 171 58 192 52 219 52 C 251 52 279 58 303 71 C 327 84 347 100 361 118 L 361 244 C 335 242 308 240 281 236 C 253 232 229 226 207 218 C 185 209 166 197 152 183 C 138 168 131 149 131 126 Z M 49 120 C 49 152 57 179 75 201 C 93 223 116 240 145 254 C 174 268 207 278 245 284 C 282 290 321 295 361 297 L 361 373 C 361 399 353 420 337 437 C 321 453 296 462 260 462 C 232 462 204 457 176 448 C 148 438 121 427 96 414 L 64 480 C 92 493 123 505 158 515 C 193 525 228 531 262 531 C 294 531 321 527 344 519 C 367 511 386 500 401 486 C 415 472 426 455 433 436 C 440 416 444 395 444 372 L 444 113 C 444 95 448 81 458 73 C 467 64 480 60 496 60 L 496 -1 C 459 -1 431 4 413 14 C 394 24 380 41 371 64 C 351 42 326 23 298 9 C 270 -4 237 -12 201 -12 C 155 -12 118 0 90 24 C 62 48 49 80 49 120 Z" unicode="ã" />
<glyph horiz-adv-x="530" d="M 136 694 L 212 694 L 212 612 L 136 612 L 136 694 Z M 331 694 L 407 694 L 407 612 L 331 612 L 331 694 Z M 131 126 C 131 103 139 85 155 72 C 171 58 192 52 219 52 C 251 52 279 58 303 71 C 327 84 347 100 361 118 L 361 244 C 335 242 308 240 281 236 C 253 232 229 226 207 218 C 185 209 166 197 152 183 C 138 168 131 149 131 126 Z M 49 120 C 49 152 57 179 75 201 C 93 223 116 240 145 254 C 174 268 207 278 245 284 C 282 290 321 295 361 297 L 361 373 C 361 399 353 420 337 437 C 321 453 296 462 260 462 C 232 462 204 457 176 448 C 148 438 121 427 96 414 L 64 480 C 92 493 123 505 158 515 C 193 525 228 531 262 531 C 294 531 321 527 344 519 C 367 511 386 500 401 486 C 415 472 426 455 433 436 C 440 416 444 395 444 372 L 444 113 C 444 95 448 81 458 73 C 467 64 480 60 496 60 L 496 -1 C 459 -1 431 4 413 14 C 394 24 380 41 371 64 C 351 42 326 23 298 9 C 270 -4 237 -12 201 -12 C 155 -12 118 0 90 24 C 62 48 49 80 49 120 Z" unicode="ä" />
<glyph horiz-adv-x="530" d="M 271 570 C 241 570 216 579 196 599 C 176 618 166 642 166 672 C 166 701 176 725 196 745 C 216 764 241 774 271 774 C 300 774 325 764 345 745 C 365 725 376 701 376 672 C 376 642 365 618 345 599 C 325 579 300 570 271 570 Z M 271 606 C 289 606 304 612 317 625 C 329 638 336 654 336 672 C 336 690 329 706 317 718 C 304 730 289 737 271 737 C 253 737 237 730 225 718 C 212 706 206 690 206 672 C 206 654 212 638 225 625 C 237 612 253 606 271 606 Z M 131 126 C 131 103 139 85 155 72 C 171 58 192 52 219 52 C 251 52 279 58 303 71 C 327 84 347 100 361 118 L 361 244 C 335 242 308 240 281 236 C 253 232 229 226 207 218 C 185 209 166 197 152 183 C 138 168 131 149 131 126 Z M 49 120 C 49 152 57 179 75 201 C 93 223 116 240 145 254 C 174 268 207 278 245 284 C 282 290 321 295 361 297 L 361 373 C 361 399 353 420 337 437 C 321 453 296 462 260 462 C 232 462 204 457 176 448 C 148 438 121 427 96 414 L 64 480 C 92 493 123 505 158 515 C 193 525 228 531 262 531 C 294 531 321 527 344 519 C 367 511 386 500 401 486 C 415 472 426 455 433 436 C 440 416 444 395 444 372 L 444 113 C 444 95 448 81 458 73 C 467 64 480 60 496 60 L 496 -1 C 459 -1 431 4 413 14 C 394 24 380 41 371 64 C 351 42 326 23 298 9 C 270 -4 237 -12 201 -12 C 155 -12 118 0 90 24 C 62 48 49 80 49 120 Z" unicode="å" />
<glyph horiz-adv-x="875" d="M 406 91 C 396 77 385 64 371 52 C 357 39 342 28 325 18 C 307 8 288 1 268 -4 C 248 -10 226 -13 203 -13 C 156 -13 119 -1 91 23 C 63 47 49 79 49 119 C 49 151 57 178 75 200 C 92 222 115 239 145 253 C 174 266 207 276 245 282 C 283 288 322 293 362 295 L 362 374 C 362 399 354 420 338 437 C 322 453 297 462 262 462 C 235 462 207 457 178 448 C 149 438 122 427 97 414 L 64 480 C 93 493 125 505 160 516 C 194 526 228 532 262 532 C 309 532 345 522 370 504 C 395 486 412 462 420 432 C 440 463 466 487 498 505 C 530 523 568 532 610 532 C 646 532 677 526 704 514 C 730 502 752 486 770 465 C 788 444 801 420 809 392 C 817 364 822 333 822 300 C 822 293 821 285 821 277 C 820 268 819 261 818 256 L 445 256 C 446 188 461 138 491 105 C 520 72 561 56 615 56 C 643 56 670 60 696 70 C 722 79 745 91 766 105 L 804 49 C 776 29 746 14 714 3 C 681 -7 647 -13 612 -13 C 564 -13 523 -4 489 13 C 455 31 427 57 406 91 Z M 741 312 C 741 333 738 353 734 372 C 730 391 722 408 712 422 C 702 436 688 447 672 455 C 655 463 635 468 611 468 C 569 468 533 454 503 426 C 473 398 455 360 448 312 L 741 312 Z M 132 125 C 132 103 140 85 156 71 C 172 57 194 51 220 51 C 254 51 285 59 313 76 C 341 92 363 115 379 144 C 368 174 362 207 362 243 C 336 242 309 240 282 236 C 255 232 230 226 208 218 C 186 209 167 197 153 182 C 139 167 132 148 132 125 Z" unicode="æ" />
<glyph horiz-adv-x="516" d="M 128 -185 C 156 -161 182 -135 205 -105 C 227 -75 243 -42 251 -8 C 190 1 141 29 105 77 C 68 125 50 187 50 265 C 50 306 56 343 68 376 C 80 408 97 436 119 459 C 141 482 167 500 197 512 C 227 524 261 531 297 531 C 331 531 363 526 391 516 C 419 506 444 492 466 475 L 422 418 C 407 429 390 439 370 448 C 350 456 326 461 299 461 C 275 461 252 456 232 447 C 212 438 194 425 180 408 C 166 391 154 370 146 346 C 138 322 134 295 134 265 C 134 200 149 149 179 112 C 209 75 249 57 299 57 C 327 57 352 61 372 70 C 392 79 411 91 429 107 L 477 56 C 451 34 425 17 398 6 C 371 -4 340 -10 304 -12 C 298 -52 285 -89 265 -124 C 245 -158 221 -189 191 -217 L 128 -185 Z" unicode="ç" />
<glyph horiz-adv-x="566" d="M 146 706 L 205 751 L 344 574 L 287 574 L 146 706 Z M 51 265 C 51 305 57 342 70 375 C 82 408 100 436 122 459 C 144 482 170 500 200 513 C 230 525 263 532 299 532 C 335 532 367 526 394 514 C 420 502 442 486 460 465 C 478 444 491 420 499 392 C 507 364 512 333 512 300 C 512 293 511 285 511 277 C 510 268 509 261 508 256 L 134 256 C 135 192 150 142 178 108 C 206 73 248 56 305 56 C 333 56 360 60 386 70 C 412 79 435 91 457 105 L 494 49 C 467 29 437 14 404 3 C 371 -7 337 -13 301 -13 C 221 -13 160 11 116 60 C 72 109 51 177 51 265 Z M 301 468 C 259 468 223 454 193 426 C 163 398 145 360 137 312 L 432 312 C 432 333 429 353 425 372 C 421 391 413 408 403 422 C 392 436 378 447 362 455 C 345 463 325 468 301 468 Z" unicode="è" />
<glyph horiz-adv-x="566" d="M 387 751 L 446 706 L 305 574 L 248 574 L 387 751 Z M 51 265 C 51 305 57 342 70 375 C 82 408 100 436 122 459 C 144 482 170 500 200 513 C 230 525 263 532 299 532 C 335 532 367 526 394 514 C 420 502 442 486 460 465 C 478 444 491 420 499 392 C 507 364 512 333 512 300 C 512 293 511 285 511 277 C 510 268 509 261 508 256 L 134 256 C 135 192 150 142 178 108 C 206 73 248 56 305 56 C 333 56 360 60 386 70 C 412 79 435 91 457 105 L 494 49 C 467 29 437 14 404 3 C 371 -7 337 -13 301 -13 C 221 -13 160 11 116 60 C 72 109 51 177 51 265 Z M 301 468 C 259 468 223 454 193 426 C 163 398 145 360 137 312 L 432 312 C 432 333 429 353 425 372 C 421 391 413 408 403 422 C 392 436 378 447 362 455 C 345 463 325 468 301 468 Z" unicode="é" />
<glyph horiz-adv-x="566" d="M 254 732 L 342 732 L 466 574 L 406 574 L 298 683 L 297 683 L 189 574 L 130 574 L 254 732 Z M 51 265 C 51 305 57 342 70 375 C 82 408 100 436 122 459 C 144 482 170 500 200 513 C 230 525 263 532 299 532 C 335 532 367 526 394 514 C 420 502 442 486 460 465 C 478 444 491 420 499 392 C 507 364 512 333 512 300 C 512 293 511 285 511 277 C 510 268 509 261 508 256 L 134 256 C 135 192 150 142 178 108 C 206 73 248 56 305 56 C 333 56 360 60 386 70 C 412 79 435 91 457 105 L 494 49 C 467 29 437 14 404 3 C 371 -7 337 -13 301 -13 C 221 -13 160 11 116 60 C 72 109 51 177 51 265 Z M 301 468 C 259 468 223 454 193 426 C 163 398 145 360 137 312 L 432 312 C 432 333 429 353 425 372 C 421 391 413 408 403 422 C 392 436 378 447 362 455 C 345 463 325 468 301 468 Z" unicode="ê" />
<glyph horiz-adv-x="566" d="M 357 694 L 433 694 L 433 612 L 357 612 L 357 694 Z M 162 694 L 238 694 L 238 612 L 162 612 L 162 694 Z M 51 265 C 51 305 57 342 70 375 C 82 408 100 436 122 459 C 144 482 170 500 200 513 C 230 525 263 532 299 532 C 335 532 367 526 394 514 C 420 502 442 486 460 465 C 478 444 491 420 499 392 C 507 364 512 333 512 300 C 512 293 511 285 511 277 C 510 268 509 261 508 256 L 134 256 C 135 192 150 142 178 108 C 206 73 248 56 305 56 C 333 56 360 60 386 70 C 412 79 435 91 457 105 L 494 49 C 467 29 437 14 404 3 C 371 -7 337 -13 301 -13 C 221 -13 160 11 116 60 C 72 109 51 177 51 265 Z M 301 468 C 259 468 223 454 193 426 C 163 398 145 360 137 312 L 432 312 C 432 333 429 353 425 372 C 421 391 413 408 403 422 C 392 436 378 447 362 455 C 345 463 325 468 301 468 Z" unicode="ë" />
<glyph horiz-adv-x="244" d="M -29 706 L 30 751 L 169 574 L 112 574 L -29 706 Z M 81 516 L 164 516 L 164 0 L 81 0 L 81 516 Z" unicode="ì" />
<glyph horiz-adv-x="244" d="M 213 751 L 272 706 L 131 574 L 74 574 L 213 751 Z M 81 516 L 164 516 L 164 0 L 81 0 L 81 516 Z" unicode="í" />
<glyph horiz-adv-x="244" d="M 78 732 L 166 732 L 290 574 L 230 574 L 122 683 L 121 683 L 13 574 L -46 574 L 78 732 Z M 81 516 L 164 516 L 164 0 L 81 0 L 81 516 Z" unicode="î" />
<glyph horiz-adv-x="244" d="M -13 694 L 63 694 L 63 612 L -13 612 L -13 694 Z M 182 694 L 258 694 L 258 612 L 182 612 L 182 694 Z M 81 516 L 164 516 L 164 0 L 81 0 L 81 516 Z" unicode="ï" />
<glyph horiz-adv-x="590" d="M 295 -12 C 257 -12 224 -5 194 8 C 164 21 139 40 118 64 C 97 88 81 116 70 149 C 59 182 54 218 54 258 C 54 296 59 331 70 363 C 80 395 95 423 114 447 C 133 471 156 489 182 503 C 208 517 238 524 270 524 C 321 524 367 508 408 477 C 394 502 379 526 361 548 C 343 570 322 593 300 616 L 177 564 L 154 614 L 256 657 C 238 672 220 688 202 704 C 184 720 164 737 144 755 L 245 755 C 273 730 300 707 324 685 L 424 727 L 446 676 L 367 643 C 392 617 415 590 436 563 C 456 535 474 507 489 477 C 503 447 515 416 523 383 C 531 350 535 315 535 277 C 535 228 529 186 517 150 C 505 114 489 84 468 60 C 447 36 422 18 392 6 C 362 -6 330 -12 295 -12 Z M 295 53 C 343 53 381 71 410 109 C 438 147 453 201 453 271 C 453 314 448 353 440 387 C 416 411 392 429 367 441 C 342 453 315 460 285 460 C 263 460 243 455 225 445 C 207 435 191 421 178 403 C 165 385 155 363 148 339 C 141 314 138 287 138 258 C 138 228 141 201 149 176 C 156 151 166 129 180 111 C 194 93 210 78 230 68 C 249 58 271 53 295 53 Z" unicode="ð" />
<glyph horiz-adv-x="575" d="M 140 600 C 136 636 141 664 157 684 C 173 704 195 715 223 715 C 238 715 251 711 263 705 C 274 698 284 691 294 683 C 304 675 313 668 322 662 C 330 655 340 652 350 652 C 362 652 372 656 378 666 C 384 675 387 688 385 706 L 436 706 C 440 670 435 641 419 621 C 403 601 382 591 354 591 C 339 591 326 594 314 600 C 302 606 292 614 282 622 C 272 630 263 637 254 643 C 245 649 236 653 226 653 C 214 653 204 648 198 639 C 192 630 190 617 192 600 L 140 600 Z M 77 519 L 154 519 L 159 449 C 181 472 207 492 237 508 C 267 524 300 532 337 532 C 395 532 437 515 463 482 C 488 449 501 406 501 352 L 501 0 L 418 0 L 418 353 C 418 387 410 414 395 434 C 380 454 355 465 319 465 C 287 465 257 457 231 443 C 205 428 181 408 160 382 L 160 0 L 77 0 L 77 519 Z" unicode="ñ" />
<glyph horiz-adv-x="601" d="M 149 706 L 208 751 L 347 574 L 290 574 L 149 706 Z M 51 266 C 51 306 57 342 70 375 C 82 407 100 435 122 458 C 144 481 171 499 201 512 C 231 524 265 531 301 531 C 337 531 370 524 400 512 C 430 499 457 481 479 458 C 501 435 518 407 530 375 C 542 342 549 306 549 266 C 549 223 543 184 531 150 C 519 116 502 87 480 63 C 458 39 432 20 402 7 C 372 -5 338 -12 301 -12 C 263 -12 229 -5 199 7 C 168 20 142 39 120 63 C 98 87 81 116 69 150 C 57 184 51 223 51 266 Z M 135 266 C 135 234 138 205 146 179 C 154 153 165 130 179 112 C 193 93 211 79 231 69 C 251 59 275 54 301 54 C 326 54 349 59 369 69 C 389 79 406 93 420 112 C 434 130 445 153 453 179 C 461 205 465 234 465 266 C 465 296 461 323 453 347 C 445 371 433 392 419 410 C 404 427 387 440 367 450 C 347 459 325 464 301 464 C 277 464 254 459 234 450 C 214 440 196 427 182 410 C 167 392 155 371 147 347 C 139 323 135 296 135 266 Z" unicode="ò" />
<glyph horiz-adv-x="601" d="M 391 751 L 450 706 L 309 574 L 252 574 L 391 751 Z M 51 266 C 51 306 57 342 70 375 C 82 407 100 435 122 458 C 144 481 171 499 201 512 C 231 524 265 531 301 531 C 337 531 370 524 400 512 C 430 499 457 481 479 458 C 501 435 518 407 530 375 C 542 342 549 306 549 266 C 549 223 543 184 531 150 C 519 116 502 87 480 63 C 458 39 432 20 402 7 C 372 -5 338 -12 301 -12 C 263 -12 229 -5 199 7 C 168 20 142 39 120 63 C 98 87 81 116 69 150 C 57 184 51 223 51 266 Z M 135 266 C 135 234 138 205 146 179 C 154 153 165 130 179 112 C 193 93 211 79 231 69 C 251 59 275 54 301 54 C 326 54 349 59 369 69 C 389 79 406 93 420 112 C 434 130 445 153 453 179 C 461 205 465 234 465 266 C 465 296 461 323 453 347 C 445 371 433 392 419 410 C 404 427 387 440 367 450 C 347 459 325 464 301 464 C 277 464 254 459 234 450 C 214 440 196 427 182 410 C 167 392 155 371 147 347 C 139 323 135 296 135 266 Z" unicode="ó" />
<glyph horiz-adv-x="601" d="M 257 732 L 345 732 L 469 574 L 409 574 L 301 683 L 300 683 L 192 574 L 133 574 L 257 732 Z M 51 266 C 51 306 57 342 70 375 C 82 407 100 435 122 458 C 144 481 171 499 201 512 C 231 524 265 531 301 531 C 337 531 370 524 400 512 C 430 499 457 481 479 458 C 501 435 518 407 530 375 C 542 342 549 306 549 266 C 549 223 543 184 531 150 C 519 116 502 87 480 63 C 458 39 432 20 402 7 C 372 -5 338 -12 301 -12 C 263 -12 229 -5 199 7 C 168 20 142 39 120 63 C 98 87 81 116 69 150 C 57 184 51 223 51 266 Z M 135 266 C 135 234 138 205 146 179 C 154 153 165 130 179 112 C 193 93 211 79 231 69 C 251 59 275 54 301 54 C 326 54 349 59 369 69 C 389 79 406 93 420 112 C 434 130 445 153 453 179 C 461 205 465 234 465 266 C 465 296 461 323 453 347 C 445 371 433 392 419 410 C 404 427 387 440 367 450 C 347 459 325 464 301 464 C 277 464 254 459 234 450 C 214 440 196 427 182 410 C 167 392 155 371 147 347 C 139 323 135 296 135 266 Z" unicode="ô" />
<glyph horiz-adv-x="601" d="M 152 600 C 148 636 153 664 169 684 C 185 704 207 715 235 715 C 250 715 263 711 275 705 C 286 698 296 691 306 683 C 316 675 325 668 334 662 C 342 655 352 652 362 652 C 374 652 384 656 390 666 C 396 675 399 688 397 706 L 448 706 C 452 670 447 641 431 621 C 415 601 394 591 366 591 C 351 591 338 594 326 600 C 314 606 304 614 294 622 C 284 630 275 637 266 643 C 257 649 248 653 238 653 C 226 653 216 648 210 639 C 204 630 202 617 204 600 L 152 600 Z M 51 266 C 51 306 57 342 70 375 C 82 407 100 435 122 458 C 144 481 171 499 201 512 C 231 524 265 531 301 531 C 337 531 370 524 400 512 C 430 499 457 481 479 458 C 501 435 518 407 530 375 C 542 342 549 306 549 266 C 549 223 543 184 531 150 C 519 116 502 87 480 63 C 458 39 432 20 402 7 C 372 -5 338 -12 301 -12 C 263 -12 229 -5 199 7 C 168 20 142 39 120 63 C 98 87 81 116 69 150 C 57 184 51 223 51 266 Z M 135 266 C 135 234 138 205 146 179 C 154 153 165 130 179 112 C 193 93 211 79 231 69 C 251 59 275 54 301 54 C 326 54 349 59 369 69 C 389 79 406 93 420 112 C 434 130 445 153 453 179 C 461 205 465 234 465 266 C 465 296 461 323 453 347 C 445 371 433 392 419 410 C 404 427 387 440 367 450 C 347 459 325 464 301 464 C 277 464 254 459 234 450 C 214 440 196 427 182 410 C 167 392 155 371 147 347 C 139 323 135 296 135 266 Z" unicode="õ" />
<glyph horiz-adv-x="601" d="M 165 694 L 241 694 L 241 612 L 165 612 L 165 694 Z M 360 694 L 436 694 L 436 612 L 360 612 L 360 694 Z M 51 266 C 51 306 57 342 70 375 C 82 407 100 435 122 458 C 144 481 171 499 201 512 C 231 524 265 531 301 531 C 337 531 370 524 400 512 C 430 499 457 481 479 458 C 501 435 518 407 530 375 C 542 342 549 306 549 266 C 549 223 543 184 531 150 C 519 116 502 87 480 63 C 458 39 432 20 402 7 C 372 -5 338 -12 301 -12 C 263 -12 229 -5 199 7 C 168 20 142 39 120 63 C 98 87 81 116 69 150 C 57 184 51 223 51 266 Z M 135 266 C 135 234 138 205 146 179 C 154 153 165 130 179 112 C 193 93 211 79 231 69 C 251 59 275 54 301 54 C 326 54 349 59 369 69 C 389 79 406 93 420 112 C 434 130 445 153 453 179 C 461 205 465 234 465 266 C 465 296 461 323 453 347 C 445 371 433 392 419 410 C 404 427 387 440 367 450 C 347 459 325 464 301 464 C 277 464 254 459 234 450 C 214 440 196 427 182 410 C 167 392 155 371 147 347 C 139 323 135 296 135 266 Z" unicode="ö" />
<glyph horiz-adv-x="614" d="M 270 589 L 344 589 L 344 493 L 270 493 L 270 589 Z M 47 387 L 567 387 L 567 315 L 47 315 L 47 387 Z M 270 210 L 344 210 L 344 114 L 270 114 L 270 210 Z" unicode="÷" />
<glyph horiz-adv-x="601" d="M 135 266 C 135 210 146 164 168 128 L 398 430 C 384 440 369 449 353 455 C 337 461 319 464 301 464 C 277 464 254 459 234 450 C 214 440 196 427 182 410 C 167 392 155 371 147 347 C 139 323 135 296 135 266 Z M 465 266 C 465 291 462 314 456 336 C 450 357 441 376 431 393 L 199 91 C 227 66 261 54 301 54 C 326 54 349 59 369 69 C 389 79 406 93 420 112 C 434 130 445 153 453 179 C 461 205 465 234 465 266 Z M 51 266 C 51 306 57 342 70 375 C 82 407 100 435 122 458 C 144 481 171 499 201 512 C 231 524 265 531 301 531 C 327 531 352 527 376 520 C 400 513 422 503 442 490 L 501 568 L 545 534 L 482 454 C 503 430 519 403 531 372 C 543 340 549 305 549 266 C 549 223 543 184 531 150 C 519 116 502 87 480 63 C 458 39 432 20 402 7 C 372 -5 338 -12 301 -12 C 245 -12 197 2 157 30 L 93 -52 L 48 -19 L 116 68 C 95 92 79 120 68 153 C 56 186 51 224 51 266 Z" unicode="ø" />
<glyph horiz-adv-x="576" d="M 132 706 L 191 751 L 330 574 L 273 574 L 132 706 Z M 75 519 L 158 519 L 158 166 C 158 132 165 104 179 84 C 193 64 219 54 257 54 C 289 54 318 61 345 76 C 371 90 395 111 417 137 L 417 519 L 500 519 L 500 0 L 425 0 L 418 70 C 396 47 370 28 340 12 C 310 -4 276 -12 240 -12 C 181 -12 139 4 113 37 C 87 70 75 114 75 168 L 75 519 Z" unicode="ù" />
<glyph horiz-adv-x="576" d="M 381 751 L 440 706 L 299 574 L 242 574 L 381 751 Z M 75 519 L 158 519 L 158 166 C 158 132 165 104 179 84 C 193 64 219 54 257 54 C 289 54 318 61 345 76 C 371 90 395 111 417 137 L 417 519 L 500 519 L 500 0 L 425 0 L 418 70 C 396 47 370 28 340 12 C 310 -4 276 -12 240 -12 C 181 -12 139 4 113 37 C 87 70 75 114 75 168 L 75 519 Z" unicode="ú" />
<glyph horiz-adv-x="576" d="M 244 732 L 332 732 L 456 574 L 396 574 L 288 683 L 287 683 L 179 574 L 120 574 L 244 732 Z M 75 519 L 158 519 L 158 166 C 158 132 165 104 179 84 C 193 64 219 54 257 54 C 289 54 318 61 345 76 C 371 90 395 111 417 137 L 417 519 L 500 519 L 500 0 L 425 0 L 418 70 C 396 47 370 28 340 12 C 310 -4 276 -12 240 -12 C 181 -12 139 4 113 37 C 87 70 75 114 75 168 L 75 519 Z" unicode="û" />
<glyph horiz-adv-x="576" d="M 152 694 L 228 694 L 228 612 L 152 612 L 152 694 Z M 347 694 L 423 694 L 423 612 L 347 612 L 347 694 Z M 75 519 L 158 519 L 158 166 C 158 132 165 104 179 84 C 193 64 219 54 257 54 C 289 54 318 61 345 76 C 371 90 395 111 417 137 L 417 519 L 500 519 L 500 0 L 425 0 L 418 70 C 396 47 370 28 340 12 C 310 -4 276 -12 240 -12 C 181 -12 139 4 113 37 C 87 70 75 114 75 168 L 75 519 Z" unicode="ü" />
<glyph horiz-adv-x="508" d="M 347 751 L 406 706 L 265 574 L 208 574 L 347 751 Z M 40 -126 C 50 -130 60 -133 71 -136 C 82 -139 93 -141 103 -141 C 122 -141 138 -136 151 -128 C 163 -119 174 -103 184 -79 L 216 3 L 23 519 L 109 519 L 256 109 L 258 109 L 401 519 L 485 519 L 266 -85 C 247 -134 224 -167 198 -184 C 172 -201 141 -210 106 -210 C 90 -210 74 -208 58 -205 C 42 -202 28 -198 16 -193 L 40 -126 Z" unicode="ý" />
<glyph horiz-adv-x="590" d="M 164 131 C 185 106 207 87 231 74 C 255 60 281 54 311 54 C 358 54 394 73 419 111 C 443 149 456 201 456 267 C 456 329 443 378 417 413 C 391 447 356 465 310 465 C 280 465 254 457 230 443 C 206 429 184 410 164 387 L 164 131 Z M 164 -200 L 81 -200 L 81 755 L 164 755 L 164 450 C 185 473 209 492 237 508 C 264 524 295 532 329 532 C 360 532 388 526 414 514 C 440 502 462 484 481 462 C 499 440 514 412 524 380 C 534 347 539 310 539 268 C 539 178 520 109 482 60 C 444 11 393 -13 329 -13 C 294 -13 263 -5 236 9 C 209 24 185 43 164 67 L 164 -200 Z" unicode="þ" />
<glyph horiz-adv-x="508" d="M 120 694 L 196 694 L 196 612 L 120 612 L 120 694 Z M 315 694 L 391 694 L 391 612 L 315 612 L 315 694 Z M 40 -126 C 50 -130 60 -133 71 -136 C 82 -139 93 -141 103 -141 C 122 -141 138 -136 151 -128 C 163 -119 174 -103 184 -79 L 216 3 L 23 519 L 109 519 L 256 109 L 258 109 L 401 519 L 485 519 L 266 -85 C 247 -134 224 -167 198 -184 C 172 -201 141 -210 106 -210 C 90 -210 74 -208 58 -205 C 42 -202 28 -198 16 -193 L 40 -126 Z" unicode="ÿ" />
<glyph horiz-adv-x="692" d="M 197 841 L 493 841 L 493 783 L 197 783 L 197 841 Z M 210 241 L 481 241 L 346 613 L 344 613 L 210 241 Z M 295 700 L 397 700 L 661 0 L 569 0 L 506 172 L 185 172 L 123 0 L 30 0 L 295 700 Z" unicode="Ā" />
<glyph horiz-adv-x="530" d="M 124 682 L 418 682 L 418 624 L 124 624 L 124 682 Z M 131 126 C 131 103 139 85 155 72 C 171 58 192 52 219 52 C 251 52 279 58 303 71 C 327 84 347 100 361 118 L 361 244 C 335 242 308 240 281 236 C 253 232 229 226 207 218 C 185 209 166 197 152 183 C 138 168 131 149 131 126 Z M 49 120 C 49 152 57 179 75 201 C 93 223 116 240 145 254 C 174 268 207 278 245 284 C 282 290 321 295 361 297 L 361 373 C 361 399 353 420 337 437 C 321 453 296 462 260 462 C 232 462 204 457 176 448 C 148 438 121 427 96 414 L 64 480 C 92 493 123 505 158 515 C 193 525 228 531 262 531 C 294 531 321 527 344 519 C 367 511 386 500 401 486 C 415 472 426 455 433 436 C 440 416 444 395 444 372 L 444 113 C 444 95 448 81 458 73 C 467 64 480 60 496 60 L 496 -1 C 459 -1 431 4 413 14 C 394 24 380 41 371 64 C 351 42 326 23 298 9 C 270 -4 237 -12 201 -12 C 155 -12 118 0 90 24 C 62 48 49 80 49 120 Z" unicode="ā" />
<glyph horiz-adv-x="692" d="M 345 750 C 299 750 261 760 233 782 C 205 803 186 832 177 870 L 237 870 C 244 850 257 835 275 824 C 293 812 317 807 345 807 C 373 807 396 812 414 824 C 432 835 445 850 453 870 L 513 870 C 503 832 484 803 456 782 C 427 760 390 750 345 750 Z M 210 241 L 481 241 L 346 613 L 344 613 L 210 241 Z M 295 700 L 397 700 L 661 0 L 569 0 L 506 172 L 185 172 L 123 0 L 30 0 L 295 700 Z" unicode="Ă" />
<glyph horiz-adv-x="530" d="M 271 569 C 224 569 186 583 158 612 C 130 641 113 681 109 732 L 166 732 C 170 699 181 673 199 655 C 217 636 241 627 271 627 C 301 627 325 636 343 655 C 361 673 372 699 376 732 L 433 732 C 429 681 413 641 384 612 C 354 583 317 569 271 569 Z M 131 126 C 131 103 139 85 155 72 C 171 58 192 52 219 52 C 251 52 279 58 303 71 C 327 84 347 100 361 118 L 361 244 C 335 242 308 240 281 236 C 253 232 229 226 207 218 C 185 209 166 197 152 183 C 138 168 131 149 131 126 Z M 49 120 C 49 152 57 179 75 201 C 93 223 116 240 145 254 C 174 268 207 278 245 284 C 282 290 321 295 361 297 L 361 373 C 361 399 353 420 337 437 C 321 453 296 462 260 462 C 232 462 204 457 176 448 C 148 438 121 427 96 414 L 64 480 C 92 493 123 505 158 515 C 193 525 228 531 262 531 C 294 531 321 527 344 519 C 367 511 386 500 401 486 C 415 472 426 455 433 436 C 440 416 444 395 444 372 L 444 113 C 444 95 448 81 458 73 C 467 64 480 60 496 60 L 496 -1 C 459 -1 431 4 413 14 C 394 24 380 41 371 64 C 351 42 326 23 298 9 C 270 -4 237 -12 201 -12 C 155 -12 118 0 90 24 C 62 48 49 80 49 120 Z" unicode="ă" />
<glyph horiz-adv-x="692" d="M 210 241 L 481 241 L 346 613 L 344 613 L 210 241 Z M 667 -193 C 657 -197 647 -200 636 -203 C 624 -205 612 -207 599 -207 C 569 -207 544 -198 525 -182 C 505 -166 496 -143 496 -114 C 496 -90 502 -69 515 -50 C 528 -31 546 -14 569 0 L 506 172 L 185 172 L 123 0 L 30 0 L 295 700 L 397 700 L 661 0 L 646 0 C 619 -12 598 -26 583 -42 C 567 -58 560 -76 560 -98 C 560 -112 564 -123 574 -131 C 584 -139 596 -143 611 -143 C 621 -143 631 -141 640 -139 C 649 -136 657 -133 665 -129 L 667 -131 L 667 -193 Z" unicode="Ą" />
<glyph horiz-adv-x="530" d="M 517 -193 C 507 -197 497 -200 486 -203 C 474 -205 462 -207 449 -207 C 419 -207 394 -198 375 -182 C 355 -166 346 -143 346 -114 C 346 -88 353 -65 369 -45 C 385 -25 406 -7 432 7 C 402 15 382 34 371 64 C 351 42 326 23 298 9 C 270 -4 237 -12 201 -12 C 155 -12 118 0 90 24 C 62 48 49 80 49 120 C 49 152 57 179 75 201 C 93 223 116 240 145 254 C 174 268 207 278 245 284 C 282 290 321 295 361 297 L 361 373 C 361 399 353 420 337 437 C 321 453 296 462 260 462 C 232 462 204 457 176 448 C 148 438 121 427 96 414 L 64 480 C 92 493 123 505 158 515 C 193 525 228 531 262 531 C 294 531 321 527 344 519 C 367 511 386 500 401 486 C 415 472 426 455 433 436 C 440 416 444 395 444 372 L 444 113 C 444 95 448 81 458 73 C 467 64 480 60 496 60 L 496 0 C 469 -12 448 -26 432 -42 C 416 -58 409 -76 409 -98 C 409 -113 414 -124 424 -132 C 434 -139 446 -143 460 -143 C 480 -143 499 -138 515 -130 L 517 -132 L 517 -193 Z M 131 126 C 131 103 139 85 155 72 C 171 58 192 52 219 52 C 251 52 279 58 303 71 C 327 84 347 100 361 118 L 361 244 C 335 242 308 240 281 236 C 253 232 229 226 207 218 C 185 209 166 197 152 183 C 138 168 131 149 131 126 Z" unicode="ą" />
<glyph horiz-adv-x="710" d="M 451 889 L 517 843 L 402 755 L 339 755 L 451 889 Z M 55 357 C 55 409 63 457 81 501 C 98 544 122 581 153 613 C 184 644 221 668 265 686 C 308 703 356 712 408 712 C 451 712 492 705 532 693 C 571 680 607 661 640 636 L 594 574 C 566 594 537 610 507 621 C 476 632 443 638 409 638 C 369 638 332 631 299 618 C 266 604 238 585 215 561 C 191 536 173 506 160 472 C 147 437 141 399 141 357 C 141 313 147 272 160 236 C 172 200 190 169 214 143 C 237 117 265 97 298 83 C 331 69 368 62 409 62 C 447 62 482 68 515 81 C 548 94 577 113 603 138 L 656 82 C 622 50 585 26 543 11 C 501 -4 455 -12 406 -12 C 353 -12 305 -3 262 15 C 219 33 182 58 152 90 C 121 122 97 161 80 207 C 63 252 55 302 55 357 Z" unicode="Ć" />
<glyph horiz-adv-x="516" d="M 372 751 L 431 706 L 290 574 L 233 574 L 372 751 Z M 50 265 C 50 306 56 343 68 376 C 80 408 97 436 119 459 C 141 482 167 500 197 512 C 227 524 261 531 297 531 C 331 531 363 526 391 516 C 419 506 444 492 466 475 L 422 418 C 407 429 390 439 370 448 C 350 456 326 461 299 461 C 275 461 252 456 232 447 C 212 438 194 425 180 408 C 166 391 154 370 146 346 C 138 322 134 295 134 265 C 134 200 149 149 179 112 C 209 75 249 57 299 57 C 327 57 352 61 372 70 C 392 79 411 91 429 107 L 477 56 C 451 33 424 16 396 5 C 368 -6 335 -12 297 -12 C 260 -12 226 -5 196 7 C 166 19 140 38 118 62 C 96 86 80 115 68 149 C 56 183 50 222 50 265 Z" unicode="ć" />
<glyph horiz-adv-x="710" d="M 340 870 L 422 870 L 548 755 L 490 755 L 382 823 L 381 823 L 272 755 L 214 755 L 340 870 Z M 55 357 C 55 409 63 457 81 501 C 98 544 122 581 153 613 C 184 644 221 668 265 686 C 308 703 356 712 408 712 C 451 712 492 705 532 693 C 571 680 607 661 640 636 L 594 574 C 566 594 537 610 507 621 C 476 632 443 638 409 638 C 369 638 332 631 299 618 C 266 604 238 585 215 561 C 191 536 173 506 160 472 C 147 437 141 399 141 357 C 141 313 147 272 160 236 C 172 200 190 169 214 143 C 237 117 265 97 298 83 C 331 69 368 62 409 62 C 447 62 482 68 515 81 C 548 94 577 113 603 138 L 656 82 C 622 50 585 26 543 11 C 501 -4 455 -12 406 -12 C 353 -12 305 -3 262 15 C 219 33 182 58 152 90 C 121 122 97 161 80 207 C 63 252 55 302 55 357 Z" unicode="Ĉ" />
<glyph horiz-adv-x="516" d="M 238 732 L 326 732 L 450 574 L 390 574 L 282 683 L 281 683 L 173 574 L 114 574 L 238 732 Z M 50 265 C 50 306 56 343 68 376 C 80 408 97 436 119 459 C 141 482 167 500 197 512 C 227 524 261 531 297 531 C 331 531 363 526 391 516 C 419 506 444 492 466 475 L 422 418 C 407 429 390 439 370 448 C 350 456 326 461 299 461 C 275 461 252 456 232 447 C 212 438 194 425 180 408 C 166 391 154 370 146 346 C 138 322 134 295 134 265 C 134 200 149 149 179 112 C 209 75 249 57 299 57 C 327 57 352 61 372 70 C 392 79 411 91 429 107 L 477 56 C 451 33 424 16 396 5 C 368 -6 335 -12 297 -12 C 260 -12 226 -5 196 7 C 166 19 140 38 118 62 C 96 86 80 115 68 149 C 56 183 50 222 50 265 Z" unicode="ĉ" />
<glyph horiz-adv-x="710" d="M 340 867 L 423 867 L 423 772 L 340 772 L 340 867 Z M 55 357 C 55 409 63 457 81 501 C 98 544 122 581 153 613 C 184 644 221 668 265 686 C 308 703 356 712 408 712 C 451 712 492 705 532 693 C 571 680 607 661 640 636 L 594 574 C 566 594 537 610 507 621 C 476 632 443 638 409 638 C 369 638 332 631 299 618 C 266 604 238 585 215 561 C 191 536 173 506 160 472 C 147 437 141 399 141 357 C 141 313 147 272 160 236 C 172 200 190 169 214 143 C 237 117 265 97 298 83 C 331 69 368 62 409 62 C 447 62 482 68 515 81 C 548 94 577 113 603 138 L 656 82 C 622 50 585 26 543 11 C 501 -4 455 -12 406 -12 C 353 -12 305 -3 262 15 C 219 33 182 58 152 90 C 121 122 97 161 80 207 C 63 252 55 302 55 357 Z" unicode="Ċ" />
<glyph horiz-adv-x="516" d="M 238 743 L 321 743 L 321 648 L 238 648 L 238 743 Z M 50 265 C 50 306 56 343 68 376 C 80 408 97 436 119 459 C 141 482 167 500 197 512 C 227 524 261 531 297 531 C 331 531 363 526 391 516 C 419 506 444 492 466 475 L 422 418 C 407 429 390 439 370 448 C 350 456 326 461 299 461 C 275 461 252 456 232 447 C 212 438 194 425 180 408 C 166 391 154 370 146 346 C 138 322 134 295 134 265 C 134 200 149 149 179 112 C 209 75 249 57 299 57 C 327 57 352 61 372 70 C 392 79 411 91 429 107 L 477 56 C 451 33 424 16 396 5 C 368 -6 335 -12 297 -12 C 260 -12 226 -5 196 7 C 166 19 140 38 118 62 C 96 86 80 115 68 149 C 56 183 50 222 50 265 Z" unicode="ċ" />
<glyph horiz-adv-x="710" d="M 214 870 L 272 870 L 380 803 L 381 803 L 490 870 L 548 870 L 422 755 L 339 755 L 214 870 Z M 55 357 C 55 409 63 457 81 501 C 98 544 122 581 153 613 C 184 644 221 668 265 686 C 308 703 356 712 408 712 C 451 712 492 705 532 693 C 571 680 607 661 640 636 L 594 574 C 566 594 537 610 507 621 C 476 632 443 638 409 638 C 369 638 332 631 299 618 C 266 604 238 585 215 561 C 191 536 173 506 160 472 C 147 437 141 399 141 357 C 141 313 147 272 160 236 C 172 200 190 169 214 143 C 237 117 265 97 298 83 C 331 69 368 62 409 62 C 447 62 482 68 515 81 C 548 94 577 113 603 138 L 656 82 C 622 50 585 26 543 11 C 501 -4 455 -12 406 -12 C 353 -12 305 -3 262 15 C 219 33 182 58 152 90 C 121 122 97 161 80 207 C 63 252 55 302 55 357 Z" unicode="Č" />
<glyph horiz-adv-x="516" d="M 114 732 L 173 732 L 281 623 L 282 623 L 390 732 L 450 732 L 326 574 L 238 574 L 114 732 Z M 50 265 C 50 306 56 343 68 376 C 80 408 97 436 119 459 C 141 482 167 500 197 512 C 227 524 261 531 297 531 C 331 531 363 526 391 516 C 419 506 444 492 466 475 L 422 418 C 407 429 390 439 370 448 C 350 456 326 461 299 461 C 275 461 252 456 232 447 C 212 438 194 425 180 408 C 166 391 154 370 146 346 C 138 322 134 295 134 265 C 134 200 149 149 179 112 C 209 75 249 57 299 57 C 327 57 352 61 372 70 C 392 79 411 91 429 107 L 477 56 C 451 33 424 16 396 5 C 368 -6 335 -12 297 -12 C 260 -12 226 -5 196 7 C 166 19 140 38 118 62 C 96 86 80 115 68 149 C 56 183 50 222 50 265 Z" unicode="č" />
<glyph horiz-adv-x="713" d="M 205 870 L 263 870 L 371 803 L 372 803 L 481 870 L 539 870 L 413 755 L 330 755 L 205 870 Z M 84 700 L 286 700 C 346 700 400 692 447 676 C 493 660 532 637 564 607 C 595 577 619 541 635 499 C 651 456 660 408 660 354 C 660 298 652 249 637 205 C 621 161 598 124 567 94 C 536 63 497 40 451 24 C 404 8 349 0 286 0 L 84 0 L 84 700 Z M 291 72 C 385 72 456 97 503 147 C 550 197 574 266 574 354 C 574 396 567 433 555 467 C 543 501 525 530 501 554 C 477 578 447 596 412 609 C 377 621 337 628 291 628 L 169 628 L 169 72 L 291 72 Z" unicode="Ď" />
<glyph horiz-adv-x="589" d="M 579 724 C 592 727 606 729 621 729 C 649 729 669 722 683 709 C 696 696 703 679 704 659 C 704 643 699 626 689 609 C 679 592 666 577 651 564 L 592 564 C 623 595 639 622 639 646 C 639 655 636 663 630 669 C 624 675 615 679 603 679 C 599 679 596 678 592 678 C 588 677 583 676 579 676 L 579 724 Z M 280 55 C 308 55 335 61 359 74 C 383 87 405 106 427 131 L 427 387 C 405 410 383 429 359 443 C 335 457 309 464 280 464 C 234 464 198 446 172 412 C 146 378 134 329 134 267 C 134 201 146 149 171 111 C 195 73 232 55 280 55 Z M 261 -12 C 195 -12 144 12 107 61 C 69 109 51 178 51 268 C 51 310 56 347 66 379 C 76 411 90 439 109 462 C 127 484 149 501 175 513 C 201 525 230 531 262 531 C 296 531 326 523 354 508 C 381 493 405 474 427 452 L 427 755 L 510 755 L 510 0 L 438 0 L 430 69 C 408 45 383 25 356 10 C 328 -4 297 -12 261 -12 Z" unicode="ď" />
<glyph horiz-adv-x="749" d="M 120 700 L 322 700 C 382 700 436 692 483 676 C 529 660 568 637 600 607 C 631 577 655 541 671 499 C 687 456 696 408 696 354 C 696 298 688 249 673 205 C 657 161 634 124 603 94 C 572 63 533 40 487 24 C 440 8 385 0 322 0 L 120 0 L 120 700 Z M 327 72 C 421 72 492 97 539 147 C 586 197 610 266 610 354 C 610 396 603 433 591 467 C 579 501 561 530 537 554 C 513 578 483 596 448 609 C 413 621 373 628 327 628 L 205 628 L 205 381 L 410 381 L 410 323 L 205 323 L 205 72 L 327 72 Z M 14 381 L 119 381 L 119 323 L 14 323 L 14 381 Z" unicode="Đ" />
<glyph horiz-adv-x="589" d="M 280 55 C 308 55 335 61 359 74 C 383 87 405 106 427 131 L 427 387 C 405 410 383 429 359 443 C 335 457 309 464 280 464 C 234 464 198 446 172 412 C 146 378 134 329 134 267 C 134 201 146 149 171 111 C 195 73 232 55 280 55 Z M 261 -12 C 195 -12 144 12 107 61 C 69 109 51 178 51 268 C 51 310 56 347 66 379 C 76 411 90 439 109 462 C 127 484 149 501 175 513 C 201 525 230 531 262 531 C 296 531 326 523 354 508 C 381 493 405 474 427 452 L 427 613 L 275 613 L 275 669 L 427 669 L 427 755 L 510 755 L 510 669 L 590 669 L 590 613 L 510 613 L 510 0 L 438 0 L 430 69 C 408 45 383 25 356 10 C 328 -4 297 -12 261 -12 Z" unicode="đ" />
<glyph horiz-adv-x="635" d="M 179 841 L 475 841 L 475 783 L 179 783 L 179 841 Z M 84 700 L 564 700 L 564 624 L 169 624 L 169 392 L 525 392 L 525 321 L 169 321 L 169 76 L 570 76 L 570 0 L 84 0 L 84 700 Z" unicode="Ē" />
<glyph horiz-adv-x="566" d="M 151 682 L 445 682 L 445 624 L 151 624 L 151 682 Z M 51 265 C 51 305 57 342 70 375 C 82 408 100 436 122 459 C 144 482 170 500 200 513 C 230 525 263 532 299 532 C 335 532 367 526 394 514 C 420 502 442 486 460 465 C 478 444 491 420 499 392 C 507 364 512 333 512 300 C 512 293 511 285 511 277 C 510 268 509 261 508 256 L 134 256 C 135 192 150 142 178 108 C 206 73 248 56 305 56 C 333 56 360 60 386 70 C 412 79 435 91 457 105 L 494 49 C 467 29 437 14 404 3 C 371 -7 337 -13 301 -13 C 221 -13 160 11 116 60 C 72 109 51 177 51 265 Z M 301 468 C 259 468 223 454 193 426 C 163 398 145 360 137 312 L 432 312 C 432 333 429 353 425 372 C 421 391 413 408 403 422 C 392 436 378 447 362 455 C 345 463 325 468 301 468 Z" unicode="ē" />
<glyph horiz-adv-x="635" d="M 327 750 C 281 750 243 760 215 782 C 187 803 168 832 159 870 L 219 870 C 226 850 239 835 257 824 C 275 812 299 807 327 807 C 355 807 378 812 396 824 C 414 835 427 850 435 870 L 495 870 C 485 832 466 803 438 782 C 409 760 372 750 327 750 Z M 84 700 L 564 700 L 564 624 L 169 624 L 169 392 L 525 392 L 525 321 L 169 321 L 169 76 L 570 76 L 570 0 L 84 0 L 84 700 Z" unicode="Ĕ" />
<glyph horiz-adv-x="566" d="M 298 569 C 251 569 213 583 185 612 C 157 641 140 681 136 732 L 193 732 C 197 699 208 673 226 655 C 244 636 268 627 298 627 C 328 627 352 636 370 655 C 388 673 399 699 403 732 L 460 732 C 456 681 440 641 411 612 C 381 583 344 569 298 569 Z M 51 265 C 51 305 57 342 70 375 C 82 408 100 436 122 459 C 144 482 170 500 200 513 C 230 525 263 532 299 532 C 335 532 367 526 394 514 C 420 502 442 486 460 465 C 478 444 491 420 499 392 C 507 364 512 333 512 300 C 512 293 511 285 511 277 C 510 268 509 261 508 256 L 134 256 C 135 192 150 142 178 108 C 206 73 248 56 305 56 C 333 56 360 60 386 70 C 412 79 435 91 457 105 L 494 49 C 467 29 437 14 404 3 C 371 -7 337 -13 301 -13 C 221 -13 160 11 116 60 C 72 109 51 177 51 265 Z M 301 468 C 259 468 223 454 193 426 C 163 398 145 360 137 312 L 432 312 C 432 333 429 353 425 372 C 421 391 413 408 403 422 C 392 436 378 447 362 455 C 345 463 325 468 301 468 Z" unicode="ĕ" />
<glyph horiz-adv-x="635" d="M 287 867 L 370 867 L 370 772 L 287 772 L 287 867 Z M 84 700 L 564 700 L 564 624 L 169 624 L 169 392 L 525 392 L 525 321 L 169 321 L 169 76 L 570 76 L 570 0 L 84 0 L 84 700 Z" unicode="Ė" />
<glyph horiz-adv-x="566" d="M 255 743 L 338 743 L 338 648 L 255 648 L 255 743 Z M 301 468 C 259 468 223 454 193 427 C 163 399 145 361 138 312 L 432 312 C 432 333 429 353 425 372 C 421 391 413 408 403 422 C 392 436 378 447 362 455 C 345 463 325 468 301 468 Z M 494 49 C 467 29 437 14 404 3 C 371 -7 337 -13 301 -13 C 221 -13 160 11 116 60 C 72 109 51 177 51 265 C 51 305 57 342 70 375 C 82 408 100 436 122 459 C 144 482 170 500 200 513 C 230 525 263 532 299 532 C 335 532 367 526 394 514 C 420 502 442 486 460 465 C 478 444 491 420 499 392 C 507 364 512 333 512 300 C 512 293 511 285 511 277 C 510 268 509 261 508 256 L 134 256 C 135 192 150 142 178 108 C 206 73 249 56 305 56 C 333 56 360 60 386 70 C 412 79 435 91 457 105 L 494 49 Z" unicode="ė" />
<glyph horiz-adv-x="635" d="M 84 700 L 564 700 L 564 624 L 169 624 L 169 392 L 525 392 L 525 321 L 169 321 L 169 76 L 570 76 L 570 0 C 543 -12 522 -26 507 -42 C 491 -58 484 -76 484 -98 C 484 -112 488 -123 498 -131 C 508 -139 520 -143 535 -143 C 545 -143 555 -141 564 -139 C 573 -136 581 -133 589 -129 L 591 -131 L 591 -193 C 581 -197 571 -200 560 -203 C 548 -205 536 -207 523 -207 C 493 -207 468 -198 449 -182 C 429 -166 420 -143 420 -114 C 420 -90 426 -69 439 -50 C 452 -31 470 -14 492 0 L 84 0 L 84 700 Z" unicode="Ę" />
<glyph horiz-adv-x="566" d="M 51 265 C 51 305 57 342 70 375 C 82 408 100 436 122 459 C 144 482 170 500 200 513 C 230 525 263 532 299 532 C 335 532 367 526 394 514 C 420 502 442 486 460 465 C 478 444 491 420 499 392 C 507 364 512 333 512 300 C 512 293 511 285 511 277 C 510 268 509 261 508 256 L 136 256 L 136 250 C 137 188 152 141 180 107 C 208 73 249 56 305 56 C 333 56 360 60 386 70 C 412 79 435 91 457 105 L 494 49 C 486 44 479 39 472 35 C 465 31 458 27 451 23 C 435 15 421 6 407 -2 C 393 -10 381 -19 371 -29 C 361 -39 353 -49 347 -60 C 341 -71 338 -83 338 -97 C 338 -112 342 -123 352 -131 C 362 -139 375 -143 393 -143 C 414 -143 432 -138 446 -130 L 450 -132 L 450 -193 C 440 -197 429 -200 418 -203 C 406 -205 394 -207 382 -207 C 350 -207 324 -198 304 -182 C 284 -165 275 -142 275 -113 C 275 -93 280 -74 290 -57 C 300 -40 313 -24 330 -10 C 325 -11 320 -12 314 -12 C 308 -12 304 -13 301 -13 C 221 -13 160 11 116 60 C 72 109 51 177 51 265 Z M 301 468 C 258 468 222 454 193 426 C 163 398 145 360 138 312 L 432 312 C 432 333 429 353 425 372 C 421 391 413 408 403 422 C 392 436 378 447 362 455 C 345 463 325 468 301 468 Z" unicode="ę" />
<glyph horiz-adv-x="635" d="M 160 870 L 218 870 L 326 803 L 327 803 L 436 870 L 494 870 L 368 755 L 285 755 L 160 870 Z M 84 700 L 564 700 L 564 624 L 169 624 L 169 392 L 525 392 L 525 321 L 169 321 L 169 76 L 570 76 L 570 0 L 84 0 L 84 700 Z" unicode="Ě" />
<glyph horiz-adv-x="566" d="M 130 732 L 189 732 L 297 623 L 298 623 L 406 732 L 466 732 L 342 574 L 254 574 L 130 732 Z M 51 265 C 51 305 57 342 70 375 C 82 408 100 436 122 459 C 144 482 170 500 200 513 C 230 525 263 532 299 532 C 335 532 367 526 394 514 C 420 502 442 486 460 465 C 478 444 491 420 499 392 C 507 364 512 333 512 300 C 512 293 511 285 511 277 C 510 268 509 261 508 256 L 134 256 C 135 192 150 142 178 108 C 206 73 248 56 305 56 C 333 56 360 60 386 70 C 412 79 435 91 457 105 L 494 49 C 467 29 437 14 404 3 C 371 -7 337 -13 301 -13 C 221 -13 160 11 116 60 C 72 109 51 177 51 265 Z M 301 468 C 259 468 223 454 193 426 C 163 398 145 360 137 312 L 432 312 C 432 333 429 353 425 372 C 421 391 413 408 403 422 C 392 436 378 447 362 455 C 345 463 325 468 301 468 Z" unicode="ě" />
<glyph horiz-adv-x="727" d="M 340 870 L 422 870 L 548 755 L 490 755 L 382 823 L 381 823 L 272 755 L 214 755 L 340 870 Z M 55 357 C 55 409 63 456 80 500 C 96 543 120 580 151 612 C 182 644 219 668 263 686 C 306 703 354 712 408 712 C 452 712 494 706 533 694 C 572 682 609 665 643 643 L 599 581 C 571 599 541 613 510 623 C 478 633 445 638 410 638 C 370 638 333 631 300 617 C 267 603 239 584 215 560 C 191 535 173 505 161 471 C 148 436 142 398 142 357 C 142 312 148 271 160 235 C 172 198 190 167 213 142 C 236 116 264 97 297 83 C 330 69 368 62 410 62 C 442 62 472 65 500 73 C 528 80 553 90 573 103 L 573 303 L 378 303 L 378 368 L 652 368 L 652 59 C 619 36 582 18 540 6 C 498 -5 454 -12 408 -12 C 354 -12 305 -3 261 14 C 217 32 180 57 150 89 C 119 121 95 160 79 206 C 63 251 55 301 55 357 Z" unicode="Ĝ" />
<glyph horiz-adv-x="574" d="M 248 732 L 336 732 L 460 574 L 400 574 L 292 683 L 291 683 L 183 574 L 124 574 L 248 732 Z M 265 211 C 284 211 302 214 318 220 C 334 226 349 235 361 247 C 373 259 382 273 389 289 C 395 305 399 322 399 342 C 399 360 395 377 389 393 C 382 409 373 422 361 434 C 349 446 334 455 318 461 C 302 467 284 471 265 471 C 246 471 228 467 212 461 C 196 455 182 446 170 434 C 158 422 148 409 141 393 C 134 377 131 360 131 342 C 131 322 134 305 141 289 C 148 273 158 259 170 247 C 182 235 196 226 212 220 C 228 214 246 211 265 211 Z M 32 -73 C 32 -47 40 -25 56 -6 C 72 12 93 27 119 39 C 93 57 80 80 80 110 C 80 127 84 142 94 156 C 104 170 116 181 131 190 C 107 206 87 227 73 253 C 58 278 51 308 51 342 C 51 370 56 395 67 419 C 78 442 93 462 113 478 C 132 494 155 507 181 517 C 207 526 235 531 265 531 C 292 531 317 527 341 519 C 365 511 386 501 405 487 C 423 501 443 512 465 520 C 487 528 515 532 547 532 L 547 469 C 523 469 503 468 486 466 C 469 464 454 460 440 454 C 452 438 461 421 468 402 C 475 383 479 363 479 342 C 479 312 473 286 461 262 C 449 238 434 218 414 202 C 394 185 371 172 345 163 C 319 154 293 150 265 150 C 232 150 202 155 175 166 C 155 156 146 142 146 124 C 146 102 159 87 186 81 C 213 75 253 70 307 67 C 340 65 371 61 399 56 C 427 50 451 42 471 32 C 491 22 506 8 518 -7 C 529 -23 535 -44 535 -68 C 535 -112 514 -147 472 -172 C 430 -197 366 -210 281 -210 C 201 -210 139 -198 96 -174 C 53 -150 32 -117 32 -73 Z M 291 0 C 269 0 250 2 232 4 C 214 6 198 9 183 13 C 161 5 144 -5 131 -19 C 117 -33 111 -50 111 -70 C 111 -124 166 -151 277 -151 C 335 -151 380 -144 410 -132 C 440 -119 456 -100 456 -75 C 456 -48 441 -29 413 -19 C 384 -9 343 -2 291 0 Z" unicode="ĝ" />
<glyph horiz-adv-x="727" d="M 380 750 C 334 750 296 760 268 782 C 240 803 221 832 212 870 L 272 870 C 279 850 292 835 310 824 C 328 812 352 807 380 807 C 408 807 431 812 449 824 C 467 835 480 850 488 870 L 548 870 C 538 832 519 803 491 782 C 462 760 425 750 380 750 Z M 55 357 C 55 409 63 456 80 500 C 96 543 120 580 151 612 C 182 644 219 668 263 686 C 306 703 354 712 408 712 C 452 712 494 706 533 694 C 572 682 609 665 643 643 L 599 581 C 571 599 541 613 510 623 C 478 633 445 638 410 638 C 370 638 333 631 300 617 C 267 603 239 584 215 560 C 191 535 173 505 161 471 C 148 436 142 398 142 357 C 142 312 148 271 160 235 C 172 198 190 167 213 142 C 236 116 264 97 297 83 C 330 69 368 62 410 62 C 442 62 472 65 500 73 C 528 80 553 90 573 103 L 573 303 L 378 303 L 378 368 L 652 368 L 652 59 C 619 36 582 18 540 6 C 498 -5 454 -12 408 -12 C 354 -12 305 -3 261 14 C 217 32 180 57 150 89 C 119 121 95 160 79 206 C 63 251 55 301 55 357 Z" unicode="Ğ" />
<glyph horiz-adv-x="574" d="M 292 569 C 245 569 207 583 179 612 C 151 641 134 681 130 732 L 187 732 C 191 699 202 673 220 655 C 238 636 262 627 292 627 C 322 627 346 636 364 655 C 382 673 393 699 397 732 L 454 732 C 450 681 434 641 405 612 C 375 583 338 569 292 569 Z M 265 211 C 284 211 302 214 318 220 C 334 226 349 235 361 247 C 373 259 382 273 389 289 C 395 305 399 322 399 342 C 399 360 395 377 389 393 C 382 409 373 422 361 434 C 349 446 334 455 318 461 C 302 467 284 471 265 471 C 246 471 228 467 212 461 C 196 455 182 446 170 434 C 158 422 148 409 141 393 C 134 377 131 360 131 342 C 131 322 134 305 141 289 C 148 273 158 259 170 247 C 182 235 196 226 212 220 C 228 214 246 211 265 211 Z M 32 -73 C 32 -47 40 -25 56 -6 C 72 12 93 27 119 39 C 93 57 80 80 80 110 C 80 127 84 142 94 156 C 104 170 116 181 131 190 C 107 206 87 227 73 253 C 58 278 51 308 51 342 C 51 370 56 395 67 419 C 78 442 93 462 113 478 C 132 494 155 507 181 517 C 207 526 235 531 265 531 C 292 531 317 527 341 519 C 365 511 386 501 405 487 C 423 501 443 512 465 520 C 487 528 515 532 547 532 L 547 469 C 523 469 503 468 486 466 C 469 464 454 460 440 454 C 452 438 461 421 468 402 C 475 383 479 363 479 342 C 479 312 473 286 461 262 C 449 238 434 218 414 202 C 394 185 371 172 345 163 C 319 154 293 150 265 150 C 232 150 202 155 175 166 C 155 156 146 142 146 124 C 146 102 159 87 186 81 C 213 75 253 70 307 67 C 340 65 371 61 399 56 C 427 50 451 42 471 32 C 491 22 506 8 518 -7 C 529 -23 535 -44 535 -68 C 535 -112 514 -147 472 -172 C 430 -197 366 -210 281 -210 C 201 -210 139 -198 96 -174 C 53 -150 32 -117 32 -73 Z M 291 0 C 269 0 250 2 232 4 C 214 6 198 9 183 13 C 161 5 144 -5 131 -19 C 117 -33 111 -50 111 -70 C 111 -124 166 -151 277 -151 C 335 -151 380 -144 410 -132 C 440 -119 456 -100 456 -75 C 456 -48 441 -29 413 -19 C 384 -9 343 -2 291 0 Z" unicode="ğ" />
<glyph horiz-adv-x="727" d="M 339 867 L 422 867 L 422 772 L 339 772 L 339 867 Z M 55 357 C 55 409 63 456 80 500 C 96 543 120 580 151 612 C 182 644 219 668 263 686 C 306 703 354 712 408 712 C 452 712 494 706 533 694 C 572 682 609 665 643 643 L 599 581 C 571 599 541 613 510 623 C 478 633 445 638 410 638 C 370 638 333 631 300 617 C 267 603 239 584 215 560 C 191 535 173 505 161 471 C 148 436 142 398 142 357 C 142 312 148 271 160 235 C 172 198 190 167 213 142 C 236 116 264 97 297 83 C 330 69 368 62 410 62 C 442 62 472 65 500 73 C 528 80 553 90 573 103 L 573 303 L 378 303 L 378 368 L 652 368 L 652 59 C 619 36 582 18 540 6 C 498 -5 454 -12 408 -12 C 354 -12 305 -3 261 14 C 217 32 180 57 150 89 C 119 121 95 160 79 206 C 63 251 55 301 55 357 Z" unicode="Ġ" />
<glyph horiz-adv-x="574" d="M 245 743 L 328 743 L 328 648 L 245 648 L 245 743 Z M 265 211 C 284 211 302 214 318 220 C 334 226 349 235 361 247 C 373 259 382 273 389 289 C 395 305 399 322 399 342 C 399 360 395 377 389 393 C 382 409 373 422 361 434 C 349 446 334 455 318 461 C 302 467 284 471 265 471 C 246 471 228 467 212 461 C 196 455 182 446 170 434 C 158 422 148 409 141 393 C 134 377 131 360 131 342 C 131 322 134 305 141 289 C 148 273 158 259 170 247 C 182 235 196 226 212 220 C 228 214 246 211 265 211 Z M 535 -68 C 535 -112 514 -147 472 -172 C 430 -197 366 -210 281 -210 C 201 -210 139 -198 96 -174 C 53 -150 32 -117 32 -73 C 32 -47 40 -25 56 -6 C 72 12 93 28 120 40 C 93 56 80 80 80 110 C 80 128 85 143 95 157 C 105 170 117 181 131 190 C 107 206 87 227 73 253 C 58 278 51 308 51 342 C 51 370 56 395 67 419 C 78 442 93 462 113 478 C 132 494 155 507 181 517 C 207 526 235 531 265 531 C 292 531 317 527 341 519 C 365 511 386 501 406 488 C 424 501 444 512 466 520 C 488 528 515 532 547 532 L 547 469 C 523 469 503 468 487 466 C 470 464 454 460 440 454 C 466 422 479 385 479 342 C 479 312 473 286 461 262 C 449 238 434 218 414 202 C 394 185 371 172 345 163 C 319 154 293 150 265 150 C 233 150 203 155 175 167 C 155 156 146 142 146 124 C 146 102 159 87 186 81 C 213 75 253 70 307 67 C 340 65 371 61 399 56 C 427 50 451 42 471 32 C 491 22 506 8 518 -7 C 529 -23 535 -44 535 -68 Z M 277 -151 C 335 -151 380 -144 410 -132 C 440 -119 456 -100 456 -75 C 456 -48 441 -29 413 -19 C 384 -9 343 -2 291 0 C 269 1 250 3 232 5 C 214 7 198 9 184 13 C 162 5 145 -5 131 -19 C 117 -33 111 -50 111 -70 C 111 -124 166 -151 277 -151 Z" unicode="ġ" />
<glyph horiz-adv-x="727" d="M 55 357 C 55 409 63 456 80 500 C 96 543 120 580 151 612 C 182 644 219 668 263 686 C 306 703 354 712 408 712 C 452 712 494 706 533 694 C 572 682 609 665 643 643 L 599 581 C 571 599 541 613 510 623 C 478 633 445 638 410 638 C 370 638 333 631 300 617 C 267 603 239 584 215 560 C 191 535 173 505 161 471 C 148 436 142 398 142 357 C 142 312 148 271 160 235 C 172 198 190 167 213 142 C 236 116 264 97 297 83 C 330 69 368 62 410 62 C 442 62 472 65 500 73 C 528 80 553 90 573 103 L 573 303 L 378 303 L 378 368 L 652 368 L 652 59 C 619 36 582 18 540 6 C 498 -5 454 -12 408 -12 C 354 -12 305 -3 261 14 C 217 32 180 57 150 89 C 119 121 95 160 79 206 C 63 251 55 301 55 357 Z M 318 -55 C 331 -51 345 -50 360 -50 C 388 -50 408 -56 422 -70 C 435 -83 442 -99 443 -119 C 443 -135 438 -151 428 -168 C 418 -185 405 -200 390 -214 L 331 -214 C 362 -183 378 -156 378 -133 C 378 -123 375 -115 369 -109 C 363 -103 354 -100 342 -101 C 338 -101 335 -101 331 -101 C 327 -101 322 -102 318 -103 L 318 -55 Z" unicode="Ģ" />
<glyph horiz-adv-x="574" d="M 350 577 C 336 573 322 572 308 572 C 280 572 259 578 246 591 C 232 604 225 621 225 642 C 225 658 230 674 240 691 C 250 708 262 723 278 737 L 337 737 C 305 705 290 678 290 655 C 290 645 293 637 299 631 C 305 625 314 622 326 622 C 329 622 333 622 337 623 C 341 623 345 624 350 625 L 350 577 Z M 265 211 C 284 211 302 214 318 220 C 334 226 349 235 361 247 C 373 259 382 273 389 289 C 395 305 399 322 399 342 C 399 360 395 377 389 393 C 382 409 373 422 361 434 C 349 446 334 455 318 461 C 302 467 284 471 265 471 C 246 471 228 467 212 461 C 196 455 182 446 170 434 C 158 422 148 409 141 393 C 134 377 131 360 131 342 C 131 322 134 305 141 289 C 148 273 158 259 170 247 C 182 235 196 226 212 220 C 228 214 246 211 265 211 Z M 32 -73 C 32 -47 40 -25 56 -6 C 72 12 93 27 119 39 C 93 57 80 80 80 110 C 80 127 84 142 94 156 C 104 170 116 181 131 190 C 107 206 87 227 73 253 C 58 278 51 308 51 342 C 51 370 56 395 67 419 C 78 442 93 462 113 478 C 132 494 155 507 181 517 C 207 526 235 531 265 531 C 292 531 317 527 341 519 C 365 511 386 501 405 487 C 423 501 443 512 465 520 C 487 528 515 532 547 532 L 547 469 C 523 469 503 468 486 466 C 469 464 454 460 440 454 C 452 438 461 421 468 402 C 475 383 479 363 479 342 C 479 312 473 286 461 262 C 449 238 434 218 414 202 C 394 185 371 172 345 163 C 319 154 293 150 265 150 C 232 150 202 155 175 166 C 155 156 146 142 146 124 C 146 102 159 87 186 81 C 213 75 253 70 307 67 C 340 65 371 61 399 56 C 427 50 451 42 471 32 C 491 22 506 8 518 -7 C 529 -23 535 -44 535 -68 C 535 -112 514 -147 472 -172 C 430 -197 366 -210 281 -210 C 201 -210 139 -198 96 -174 C 53 -150 32 -117 32 -73 Z M 291 0 C 269 0 250 2 232 4 C 214 6 198 9 183 13 C 161 5 144 -5 131 -19 C 117 -33 111 -50 111 -70 C 111 -124 166 -151 277 -151 C 335 -151 380 -144 410 -132 C 440 -119 456 -100 456 -75 C 456 -48 441 -29 413 -19 C 384 -9 343 -2 291 0 Z" unicode="ģ" />
<glyph horiz-adv-x="702" d="M 310 870 L 392 870 L 518 755 L 460 755 L 352 823 L 351 823 L 242 755 L 184 755 L 310 870 Z M 84 700 L 169 700 L 169 394 L 533 394 L 533 700 L 618 700 L 618 0 L 533 0 L 533 319 L 169 319 L 169 0 L 84 0 L 84 700 Z" unicode="Ĥ" />
<glyph horiz-adv-x="579" d="M 81 912 L 163 912 L 289 797 L 231 797 L 123 865 L 122 865 L 13 797 L -45 797 L 81 912 Z M 81 755 L 164 755 L 164 449 C 186 472 211 492 241 508 C 271 524 304 532 340 532 C 399 532 441 515 466 482 C 491 449 504 406 504 352 L 504 0 L 422 0 L 422 353 C 422 387 414 414 399 434 C 384 454 358 465 322 465 C 290 465 261 457 235 443 C 209 428 185 408 164 383 L 164 0 L 81 0 L 81 755 Z" unicode="ĥ" />
<glyph horiz-adv-x="702" d="M 533 394 L 533 521 L 169 521 L 169 394 L 533 394 Z M 84 700 L 169 700 L 169 576 L 533 576 L 533 700 L 618 700 L 618 0 L 533 0 L 533 319 L 169 319 L 169 0 L 84 0 L 84 700 Z" unicode="Ħ" />
<glyph horiz-adv-x="583" d="M 8 669 L 85 669 L 85 755 L 168 755 L 168 669 L 303 669 L 303 613 L 168 613 L 168 449 C 190 472 215 492 245 508 C 275 524 308 532 344 532 C 403 532 445 515 470 482 C 495 449 508 406 508 352 L 508 0 L 426 0 L 426 353 C 426 387 418 414 403 434 C 388 454 362 465 326 465 C 294 465 265 457 239 443 C 213 428 189 408 168 383 L 168 0 L 85 0 L 85 613 L 8 613 L 8 669 Z" unicode="ħ" />
<glyph horiz-adv-x="252" d="M -23 760 C -27 796 -21 824 -5 844 C 10 864 32 874 60 874 C 75 874 88 870 100 864 C 112 857 122 850 132 842 C 142 834 151 827 160 821 C 168 814 178 811 188 811 C 200 811 210 815 216 825 C 222 834 225 847 223 865 L 275 865 C 279 829 274 801 258 781 C 242 761 220 751 192 751 C 176 751 163 754 152 760 C 140 766 130 774 120 782 C 110 790 100 797 91 803 C 82 809 73 813 63 813 C 51 813 41 808 35 799 C 29 790 27 777 29 760 L -23 760 Z M 84 700 L 169 700 L 169 0 L 84 0 L 84 700 Z" unicode="Ĩ" />
<glyph horiz-adv-x="244" d="M -27 600 C -31 636 -25 664 -9 684 C 6 704 28 715 56 715 C 71 715 84 711 96 705 C 107 698 117 691 127 683 C 137 675 146 668 155 662 C 163 655 173 652 183 652 C 195 652 205 656 211 666 C 217 675 220 688 218 706 L 269 706 C 273 670 268 641 252 621 C 236 601 215 591 187 591 C 172 591 159 594 147 600 C 135 606 125 614 115 622 C 105 630 96 637 87 643 C 78 649 69 653 59 653 C 47 653 37 648 31 639 C 25 630 23 617 25 600 L -27 600 Z M 81 516 L 164 516 L 164 0 L 81 0 L 81 516 Z" unicode="ĩ" />
<glyph horiz-adv-x="252" d="M -22 841 L 274 841 L 274 783 L -22 783 L -22 841 Z M 84 700 L 169 700 L 169 0 L 84 0 L 84 700 Z" unicode="Ī" />
<glyph horiz-adv-x="244" d="M -25 682 L 269 682 L 269 624 L -25 624 L -25 682 Z M 81 516 L 164 516 L 164 0 L 81 0 L 81 516 Z" unicode="ī" />
<glyph horiz-adv-x="252" d="M 126 750 C 80 750 42 760 14 782 C -13 803 -32 832 -42 870 L 18 870 C 25 850 38 835 56 824 C 74 812 98 807 126 807 C 154 807 177 812 195 824 C 213 835 226 850 234 870 L 294 870 C 284 832 265 803 237 782 C 208 760 171 750 126 750 Z M 84 700 L 169 700 L 169 0 L 84 0 L 84 700 Z" unicode="Ĭ" />
<glyph horiz-adv-x="244" d="M 122 569 C 75 569 37 583 9 612 C -18 641 -35 681 -40 732 L 17 732 C 21 699 32 673 50 655 C 68 636 92 627 122 627 C 152 627 176 636 194 655 C 212 673 223 699 227 732 L 284 732 C 280 681 264 641 235 612 C 205 583 168 569 122 569 Z M 81 516 L 164 516 L 164 0 L 81 0 L 81 516 Z" unicode="ĭ" />
<glyph horiz-adv-x="252" d="M 84 700 L 169 700 L 169 0 C 142 -12 121 -26 106 -42 C 90 -58 83 -76 83 -98 C 83 -112 87 -123 97 -131 C 107 -139 119 -143 134 -143 C 144 -143 154 -141 163 -139 C 172 -136 180 -133 188 -129 L 190 -131 L 190 -193 C 180 -197 170 -200 159 -203 C 147 -205 135 -207 122 -207 C 92 -207 67 -198 48 -182 C 28 -166 19 -143 19 -114 C 19 -90 25 -69 38 -50 C 51 -31 69 -14 91 0 L 84 0 L 84 700 Z" unicode="Į" />
<glyph horiz-adv-x="244" d="M 81 743 L 164 743 L 164 648 L 81 648 L 81 743 Z M 81 516 L 164 516 L 164 0 L 163 0 C 136 -12 115 -26 100 -42 C 84 -58 77 -76 77 -98 C 77 -112 81 -123 91 -131 C 101 -139 113 -143 128 -143 C 138 -143 148 -141 157 -139 C 166 -136 174 -133 182 -129 L 184 -131 L 184 -193 C 174 -197 164 -200 153 -203 C 141 -205 129 -207 116 -207 C 86 -207 61 -198 42 -182 C 22 -166 13 -143 13 -114 C 13 -90 19 -69 32 -50 C 45 -31 63 -14 85 0 L 81 0 L 81 516 Z" unicode="į" />
<glyph horiz-adv-x="252" d="M 85 867 L 168 867 L 168 772 L 85 772 L 85 867 Z M 84 700 L 169 700 L 169 0 L 84 0 L 84 700 Z" unicode="İ" />
<glyph horiz-adv-x="244" d="M 81 516 L 164 516 L 164 0 L 81 0 L 81 516 Z" unicode="ı" />
<glyph horiz-adv-x="571" d="M 407 870 L 489 870 L 615 755 L 557 755 L 449 823 L 448 823 L 339 755 L 281 755 L 407 870 Z M 117 172 C 129 142 147 116 171 95 C 194 74 225 64 263 64 C 311 64 347 79 370 109 C 393 139 405 180 405 231 L 405 700 L 490 700 L 490 230 C 490 154 471 95 434 52 C 396 9 341 -12 267 -12 C 212 -12 166 2 130 30 C 94 58 66 92 48 133 L 117 172 Z" unicode="Ĵ" />
<glyph horiz-adv-x="253" d="M 88 732 L 176 732 L 300 574 L 240 574 L 132 683 L 131 683 L 23 574 L -36 574 L 88 732 Z M 90 516 L 172 516 L 172 -25 C 172 -91 157 -139 129 -167 C 100 -195 62 -210 15 -210 C 1 -210 -11 -208 -23 -206 C -35 -204 -44 -201 -52 -199 L -36 -134 C -29 -136 -22 -137 -15 -139 C -7 -140 0 -141 7 -141 C 32 -141 52 -132 67 -116 C 82 -99 90 -70 90 -28 L 90 516 Z" unicode="ĵ" />
<glyph horiz-adv-x="670" d="M 84 700 L 169 700 L 169 309 L 508 700 L 607 700 L 379 438 L 634 0 L 534 0 L 323 374 L 169 198 L 169 0 L 84 0 L 84 700 Z M 267 -55 C 280 -51 294 -50 309 -50 C 337 -50 357 -56 371 -70 C 384 -83 391 -99 392 -119 C 392 -135 387 -151 377 -168 C 367 -185 354 -200 339 -214 L 280 -214 C 311 -183 327 -156 327 -133 C 327 -123 324 -115 318 -109 C 312 -103 303 -100 291 -101 C 287 -101 284 -101 280 -101 C 276 -101 271 -102 267 -103 L 267 -55 Z" unicode="Ķ" />
<glyph horiz-adv-x="536" d="M 81 755 L 164 755 L 164 253 L 397 519 L 491 519 L 333 344 L 515 0 L 420 0 L 278 283 L 164 157 L 164 0 L 81 0 L 81 755 Z M 234 -55 C 247 -51 261 -50 275 -50 C 303 -50 323 -56 337 -70 C 351 -83 358 -99 358 -119 C 359 -135 354 -151 344 -168 C 333 -185 320 -200 305 -214 L 247 -214 C 278 -182 294 -155 294 -133 C 294 -123 291 -115 285 -109 C 279 -103 270 -100 258 -101 C 254 -101 250 -101 246 -101 C 242 -101 238 -102 234 -103 L 234 -55 Z" unicode="ķ" />
<glyph horiz-adv-x="536" d="M 81 519 L 164 519 L 164 253 L 397 519 L 491 519 L 333 344 L 515 0 L 420 0 L 278 283 L 164 157 L 164 0 L 81 0 L 81 519 Z" unicode="ĸ" />
<glyph horiz-adv-x="605" d="M 196 889 L 262 843 L 147 755 L 84 755 L 196 889 Z M 84 700 L 169 700 L 169 76 L 561 76 L 561 0 L 84 0 L 84 700 Z" unicode="Ĺ" />
<glyph horiz-adv-x="245" d="M 192 931 L 258 885 L 143 797 L 80 797 L 192 931 Z M 81 755 L 164 755 L 164 0 L 81 0 L 81 755 Z" unicode="ĺ" />
<glyph horiz-adv-x="605" d="M 84 700 L 169 700 L 169 76 L 561 76 L 561 0 L 84 0 L 84 700 Z M 259 -55 C 272 -51 286 -50 301 -50 C 329 -50 349 -56 363 -70 C 376 -83 383 -99 384 -119 C 384 -135 379 -151 369 -168 C 359 -185 346 -200 331 -214 L 272 -214 C 303 -183 319 -156 319 -133 C 319 -123 316 -115 310 -109 C 304 -103 295 -100 283 -101 C 279 -101 276 -101 272 -101 C 268 -101 263 -102 259 -103 L 259 -55 Z" unicode="Ļ" />
<glyph horiz-adv-x="245" d="M 81 755 L 164 755 L 164 0 L 81 0 L 81 755 Z M 80 -55 C 93 -51 107 -50 121 -50 C 149 -50 169 -56 183 -70 C 197 -83 204 -99 204 -119 C 205 -135 200 -151 190 -168 C 179 -185 166 -200 151 -214 L 93 -214 C 124 -182 140 -155 140 -133 C 140 -123 137 -115 131 -109 C 125 -103 116 -100 104 -101 C 100 -101 96 -101 92 -101 C 88 -101 84 -102 80 -103 L 80 -55 Z" unicode="ļ" />
<glyph horiz-adv-x="605" d="M 253 699 C 266 702 280 704 295 704 C 323 704 343 697 357 684 C 370 670 377 654 378 635 C 378 619 373 602 363 585 C 353 568 340 553 325 540 L 266 540 C 297 570 313 597 313 621 C 313 631 310 639 304 645 C 298 651 289 653 277 653 C 273 653 270 652 266 652 C 262 652 257 651 253 651 L 253 699 Z M 84 700 L 169 700 L 169 76 L 561 76 L 561 0 L 84 0 L 84 700 Z" unicode="Ľ" />
<glyph horiz-adv-x="245" d="M 81 755 L 164 755 L 164 0 L 81 0 L 81 755 Z M 235 724 C 248 727 262 729 277 729 C 305 729 325 722 339 709 C 352 696 359 679 360 659 C 360 643 355 626 345 609 C 335 592 322 577 307 564 L 248 564 C 279 595 295 622 295 646 C 295 655 292 663 286 669 C 280 675 271 679 259 679 C 255 679 252 678 248 678 C 244 677 239 676 235 676 L 235 724 Z" unicode="ľ" />
<glyph horiz-adv-x="605" d="M 84 700 L 169 700 L 169 76 L 561 76 L 561 0 L 84 0 L 84 700 Z M 481 423 L 564 423 L 564 328 L 481 328 L 481 423 Z" unicode="Ŀ" />
<glyph horiz-adv-x="245" d="M 81 755 L 164 755 L 164 0 L 81 0 L 81 755 Z M 216 439 L 299 439 L 299 344 L 216 344 L 216 439 Z" unicode="ŀ" />
<glyph horiz-adv-x="635" d="M 12 288 L 113 346 L 113 700 L 198 700 L 198 394 L 396 508 L 396 441 L 198 328 L 198 76 L 590 76 L 590 0 L 113 0 L 113 279 L 12 222 L 12 288 Z" unicode="Ł" />
<glyph horiz-adv-x="261" d="M 5 342 L 90 390 L 90 755 L 173 755 L 173 437 L 257 485 L 257 418 L 173 370 L 173 0 L 90 0 L 90 323 L 5 275 L 5 342 Z" unicode="ł" />
<glyph horiz-adv-x="725" d="M 433 889 L 499 843 L 384 755 L 321 755 L 433 889 Z M 84 700 L 170 700 L 559 132 L 559 700 L 641 700 L 641 0 L 554 0 L 166 567 L 166 0 L 84 0 L 84 700 Z" unicode="Ń" />
<glyph horiz-adv-x="575" d="M 380 751 L 439 706 L 298 574 L 241 574 L 380 751 Z M 77 519 L 154 519 L 159 449 C 181 472 207 492 237 508 C 267 524 300 532 337 532 C 395 532 437 515 463 482 C 488 449 501 406 501 352 L 501 0 L 418 0 L 418 353 C 418 387 410 414 395 434 C 380 454 355 465 319 465 C 287 465 257 457 231 443 C 205 428 181 408 160 382 L 160 0 L 77 0 L 77 519 Z" unicode="ń" />
<glyph horiz-adv-x="725" d="M 84 700 L 170 700 L 559 132 L 559 700 L 641 700 L 641 0 L 554 0 L 166 567 L 166 0 L 84 0 L 84 700 Z M 298 -55 C 311 -51 325 -50 340 -50 C 368 -50 388 -56 402 -70 C 415 -83 422 -99 423 -119 C 423 -135 418 -151 408 -168 C 398 -185 385 -200 370 -214 L 311 -214 C 342 -183 358 -156 358 -133 C 358 -123 355 -115 349 -109 C 343 -103 334 -100 322 -101 C 318 -101 315 -101 311 -101 C 307 -101 302 -102 298 -103 L 298 -55 Z" unicode="Ņ" />
<glyph horiz-adv-x="575" d="M 77 519 L 154 519 L 159 449 C 181 472 207 492 237 508 C 267 524 300 532 337 532 C 395 532 437 515 463 482 C 488 449 501 406 501 352 L 501 0 L 418 0 L 418 353 C 418 387 410 414 395 434 C 380 454 355 465 319 465 C 287 465 257 457 231 443 C 205 428 181 408 160 382 L 160 0 L 77 0 L 77 519 Z M 228 -55 C 241 -51 255 -50 269 -50 C 297 -50 317 -56 331 -70 C 345 -83 352 -99 352 -119 C 353 -135 348 -151 338 -168 C 327 -185 314 -200 299 -214 L 241 -214 C 272 -182 288 -155 288 -133 C 288 -123 285 -115 279 -109 C 273 -103 264 -100 252 -101 C 248 -101 244 -101 240 -101 C 236 -101 232 -102 228 -103 L 228 -55 Z" unicode="ņ" />
<glyph horiz-adv-x="725" d="M 195 870 L 253 870 L 361 803 L 362 803 L 471 870 L 529 870 L 403 755 L 320 755 L 195 870 Z M 84 700 L 170 700 L 559 132 L 559 700 L 641 700 L 641 0 L 554 0 L 166 567 L 166 0 L 84 0 L 84 700 Z" unicode="Ň" />
<glyph horiz-adv-x="575" d="M 121 732 L 180 732 L 288 623 L 289 623 L 397 732 L 457 732 L 333 574 L 245 574 L 121 732 Z M 77 519 L 154 519 L 159 449 C 181 472 207 492 237 508 C 267 524 300 532 337 532 C 395 532 437 515 463 482 C 488 449 501 406 501 352 L 501 0 L 418 0 L 418 353 C 418 387 410 414 395 434 C 380 454 355 465 319 465 C 287 465 257 457 231 443 C 205 428 181 408 160 382 L 160 0 L 77 0 L 77 519 Z" unicode="ň" />
<glyph horiz-adv-x="725" d="M 84 700 L 170 700 L 559 139 L 559 700 L 641 700 L 641 -24 C 641 -91 626 -139 598 -167 C 569 -195 531 -210 485 -210 C 470 -210 457 -208 445 -206 C 433 -204 423 -201 417 -199 L 433 -133 C 446 -137 460 -139 476 -139 C 501 -139 521 -130 536 -114 C 551 -98 559 -69 559 -28 L 559 1 L 166 567 L 166 0 L 84 0 L 84 700 Z" unicode="Ŋ" />
<glyph horiz-adv-x="575" d="M 77 519 L 154 519 L 159 449 C 181 472 207 492 237 508 C 267 524 300 532 337 532 C 395 532 437 515 463 482 C 488 449 501 406 501 352 L 501 -25 C 501 -91 486 -139 458 -167 C 429 -195 391 -210 344 -210 C 330 -210 317 -208 305 -206 C 293 -204 283 -201 276 -199 L 293 -134 C 299 -136 306 -137 313 -139 C 320 -140 327 -141 335 -141 C 360 -141 380 -132 395 -116 C 410 -99 418 -70 418 -28 L 418 355 C 418 388 410 415 395 435 C 380 455 355 465 319 465 C 287 465 257 457 231 443 C 205 428 181 408 160 382 L 160 0 L 77 0 L 77 519 Z" unicode="ŋ" />
<glyph horiz-adv-x="809" d="M 257 841 L 553 841 L 553 783 L 257 783 L 257 841 Z M 55 355 C 55 409 64 458 82 502 C 100 546 124 583 156 614 C 187 645 224 669 267 686 C 309 703 355 712 405 712 C 454 712 500 703 542 686 C 584 669 621 645 653 614 C 685 583 710 546 728 502 C 746 458 755 409 755 355 C 755 299 746 248 728 203 C 710 157 685 119 654 87 C 622 55 585 30 543 13 C 500 -3 454 -12 405 -12 C 355 -12 309 -3 267 13 C 224 30 187 55 156 87 C 124 119 100 157 82 203 C 64 248 55 299 55 355 Z M 142 355 C 142 309 148 268 162 232 C 176 196 194 165 218 140 C 241 114 269 95 301 82 C 333 68 368 62 405 62 C 441 62 476 68 508 82 C 540 95 567 114 591 140 C 615 165 633 196 647 232 C 661 268 668 309 668 355 C 668 398 661 437 647 472 C 633 507 615 537 591 561 C 567 585 540 604 508 618 C 476 631 441 638 405 638 C 368 638 334 631 302 618 C 270 604 242 585 218 561 C 194 537 176 507 162 472 C 148 437 142 398 142 355 Z" unicode="Ō" />
<glyph horiz-adv-x="601" d="M 153 682 L 447 682 L 447 624 L 153 624 L 153 682 Z M 51 266 C 51 306 57 342 70 375 C 82 407 100 435 122 458 C 144 481 171 499 201 512 C 231 524 265 531 301 531 C 337 531 370 524 400 512 C 430 499 457 481 479 458 C 501 435 518 407 530 375 C 542 342 549 306 549 266 C 549 223 543 184 531 150 C 519 116 502 87 480 63 C 458 39 432 20 402 7 C 372 -5 338 -12 301 -12 C 263 -12 229 -5 199 7 C 168 20 142 39 120 63 C 98 87 81 116 69 150 C 57 184 51 223 51 266 Z M 135 266 C 135 234 138 205 146 179 C 154 153 165 130 179 112 C 193 93 211 79 231 69 C 251 59 275 54 301 54 C 326 54 349 59 369 69 C 389 79 406 93 420 112 C 434 130 445 153 453 179 C 461 205 465 234 465 266 C 465 296 461 323 453 347 C 445 371 433 392 419 410 C 404 427 387 440 367 450 C 347 459 325 464 301 464 C 277 464 254 459 234 450 C 214 440 196 427 182 410 C 167 392 155 371 147 347 C 139 323 135 296 135 266 Z" unicode="ō" />
<glyph horiz-adv-x="809" d="M 405 750 C 359 750 321 760 293 782 C 265 803 246 832 237 870 L 297 870 C 304 850 317 835 335 824 C 353 812 377 807 405 807 C 433 807 456 812 474 824 C 492 835 505 850 513 870 L 573 870 C 563 832 544 803 516 782 C 487 760 450 750 405 750 Z M 55 355 C 55 409 64 458 82 502 C 100 546 124 583 156 614 C 187 645 224 669 267 686 C 309 703 355 712 405 712 C 454 712 500 703 542 686 C 584 669 621 645 653 614 C 685 583 710 546 728 502 C 746 458 755 409 755 355 C 755 299 746 248 728 203 C 710 157 685 119 654 87 C 622 55 585 30 543 13 C 500 -3 454 -12 405 -12 C 355 -12 309 -3 267 13 C 224 30 187 55 156 87 C 124 119 100 157 82 203 C 64 248 55 299 55 355 Z M 142 355 C 142 309 148 268 162 232 C 176 196 194 165 218 140 C 241 114 269 95 301 82 C 333 68 368 62 405 62 C 441 62 476 68 508 82 C 540 95 567 114 591 140 C 615 165 633 196 647 232 C 661 268 668 309 668 355 C 668 398 661 437 647 472 C 633 507 615 537 591 561 C 567 585 540 604 508 618 C 476 631 441 638 405 638 C 368 638 334 631 302 618 C 270 604 242 585 218 561 C 194 537 176 507 162 472 C 148 437 142 398 142 355 Z" unicode="Ŏ" />
<glyph horiz-adv-x="601" d="M 300 569 C 253 569 215 583 187 612 C 159 641 142 681 138 732 L 195 732 C 199 699 210 673 228 655 C 246 636 270 627 300 627 C 330 627 354 636 372 655 C 390 673 401 699 405 732 L 462 732 C 458 681 442 641 413 612 C 383 583 346 569 300 569 Z M 51 266 C 51 306 57 342 70 375 C 82 407 100 435 122 458 C 144 481 171 499 201 512 C 231 524 265 531 301 531 C 337 531 370 524 400 512 C 430 499 457 481 479 458 C 501 435 518 407 530 375 C 542 342 549 306 549 266 C 549 223 543 184 531 150 C 519 116 502 87 480 63 C 458 39 432 20 402 7 C 372 -5 338 -12 301 -12 C 263 -12 229 -5 199 7 C 168 20 142 39 120 63 C 98 87 81 116 69 150 C 57 184 51 223 51 266 Z M 135 266 C 135 234 138 205 146 179 C 154 153 165 130 179 112 C 193 93 211 79 231 69 C 251 59 275 54 301 54 C 326 54 349 59 369 69 C 389 79 406 93 420 112 C 434 130 445 153 453 179 C 461 205 465 234 465 266 C 465 296 461 323 453 347 C 445 371 433 392 419 410 C 404 427 387 440 367 450 C 347 459 325 464 301 464 C 277 464 254 459 234 450 C 214 440 196 427 182 410 C 167 392 155 371 147 347 C 139 323 135 296 135 266 Z" unicode="ŏ" />
<glyph horiz-adv-x="809" d="M 550 889 L 614 843 L 500 755 L 438 755 L 550 889 Z M 396 889 L 461 843 L 347 755 L 284 755 L 396 889 Z M 55 355 C 55 409 64 458 82 502 C 100 546 124 583 156 614 C 187 645 224 669 267 686 C 309 703 355 712 405 712 C 454 712 500 703 542 686 C 584 669 621 645 653 614 C 685 583 710 546 728 502 C 746 458 755 409 755 355 C 755 299 746 248 728 203 C 710 157 685 119 654 87 C 622 55 585 30 543 13 C 500 -3 454 -12 405 -12 C 355 -12 309 -3 267 13 C 224 30 187 55 156 87 C 124 119 100 157 82 203 C 64 248 55 299 55 355 Z M 142 355 C 142 309 148 268 162 232 C 176 196 194 165 218 140 C 241 114 269 95 301 82 C 333 68 368 62 405 62 C 441 62 476 68 508 82 C 540 95 567 114 591 140 C 615 165 633 196 647 232 C 661 268 668 309 668 355 C 668 398 661 437 647 472 C 633 507 615 537 591 561 C 567 585 540 604 508 618 C 476 631 441 638 405 638 C 368 638 334 631 302 618 C 270 604 242 585 218 561 C 194 537 176 507 162 472 C 148 437 142 398 142 355 Z" unicode="Ő" />
<glyph horiz-adv-x="601" d="M 476 751 L 535 709 L 399 574 L 345 574 L 476 751 Z M 319 751 L 379 709 L 242 574 L 187 574 L 319 751 Z M 51 266 C 51 306 57 342 70 375 C 82 407 100 435 122 458 C 144 481 171 499 201 512 C 231 524 265 531 301 531 C 337 531 370 524 400 512 C 430 499 457 481 479 458 C 501 435 518 407 530 375 C 542 342 549 306 549 266 C 549 223 543 184 531 150 C 519 116 502 87 480 63 C 458 39 432 20 402 7 C 372 -5 338 -12 301 -12 C 263 -12 229 -5 199 7 C 168 20 142 39 120 63 C 98 87 81 116 69 150 C 57 184 51 223 51 266 Z M 135 266 C 135 234 138 205 146 179 C 154 153 165 130 179 112 C 193 93 211 79 231 69 C 251 59 275 54 301 54 C 326 54 349 59 369 69 C 389 79 406 93 420 112 C 434 130 445 153 453 179 C 461 205 465 234 465 266 C 465 296 461 323 453 347 C 445 371 433 392 419 410 C 404 427 387 440 367 450 C 347 459 325 464 301 464 C 277 464 254 459 234 450 C 214 440 196 427 182 410 C 167 392 155 371 147 347 C 139 323 135 296 135 266 Z" unicode="ő" />
<glyph horiz-adv-x="1214" d="M 141 356 C 141 312 147 272 160 236 C 173 200 191 169 215 143 C 238 117 265 97 297 83 C 329 69 364 62 402 62 C 440 62 475 69 507 83 C 539 97 566 117 590 143 C 613 169 631 200 644 236 C 657 272 664 312 664 356 C 664 397 657 435 643 469 C 629 503 611 533 587 558 C 563 583 536 603 504 617 C 472 631 438 638 402 638 C 365 638 331 631 299 617 C 267 603 240 583 216 558 C 192 533 174 503 161 469 C 147 435 141 397 141 356 Z M 55 356 C 55 407 63 454 81 498 C 99 541 123 578 154 610 C 185 642 221 667 263 685 C 305 703 350 712 399 712 C 457 712 509 698 555 670 C 601 642 638 605 664 557 L 664 700 L 1144 700 L 1144 624 L 749 624 L 749 392 L 1104 392 L 1104 320 L 749 320 L 749 76 L 1150 76 L 1150 0 L 664 0 L 664 143 C 638 94 603 56 557 29 C 511 1 458 -12 399 -12 C 349 -12 304 -3 262 15 C 220 33 183 58 153 90 C 122 122 98 161 81 206 C 63 251 55 301 55 356 Z" unicode="Œ" />
<glyph horiz-adv-x="980" d="M 51 266 C 51 306 57 342 70 375 C 82 408 100 436 122 459 C 144 482 171 500 202 513 C 232 525 266 532 302 532 C 350 532 392 520 428 496 C 463 472 489 438 506 396 C 524 438 551 472 587 496 C 623 520 665 532 713 532 C 749 532 781 526 808 514 C 834 502 856 486 874 465 C 892 444 905 420 914 392 C 922 364 927 333 927 300 C 927 293 926 285 926 277 C 925 268 924 261 923 256 L 550 256 C 551 191 566 141 594 107 C 622 73 664 56 720 56 C 748 56 775 60 801 70 C 827 79 850 91 871 105 L 909 49 C 881 29 851 14 819 3 C 786 -7 752 -13 717 -13 C 663 -13 618 -1 583 22 C 548 46 522 80 506 124 C 488 80 462 47 427 23 C 392 -1 350 -13 302 -13 C 264 -13 230 -6 199 6 C 168 19 142 38 120 62 C 98 86 81 116 69 150 C 57 184 51 223 51 266 Z M 846 312 C 846 333 843 353 839 372 C 835 391 827 408 817 422 C 806 436 792 447 776 455 C 759 463 739 468 715 468 C 673 468 637 454 608 426 C 578 398 560 360 553 312 L 846 312 Z M 136 266 C 136 234 139 205 147 179 C 155 153 166 130 180 112 C 194 93 212 79 232 69 C 252 59 275 54 301 54 C 326 54 349 59 369 69 C 389 79 406 93 420 112 C 434 130 445 153 453 179 C 461 205 465 234 465 266 C 465 296 461 323 453 347 C 445 371 433 392 419 410 C 405 428 387 441 367 451 C 347 460 325 465 301 465 C 277 465 254 460 234 451 C 214 441 196 428 182 410 C 167 392 156 371 148 347 C 140 323 136 296 136 266 Z" unicode="œ" />
<glyph horiz-adv-x="683" d="M 403 889 L 469 843 L 354 755 L 291 755 L 403 889 Z M 375 350 C 403 350 427 354 447 362 C 467 370 483 380 496 393 C 508 406 517 421 523 438 C 529 455 532 472 532 490 C 532 508 529 525 523 542 C 517 558 508 573 496 586 C 484 598 468 608 448 616 C 428 624 404 628 376 628 L 169 628 L 169 350 L 375 350 Z M 84 700 L 377 700 C 421 700 459 694 490 682 C 520 670 545 654 564 634 C 583 614 597 592 605 567 C 613 542 618 517 618 491 C 618 470 615 449 609 429 C 603 409 594 390 582 372 C 570 354 554 339 536 326 C 517 312 495 302 470 294 L 619 0 L 525 0 L 391 282 L 169 282 L 169 0 L 84 0 L 84 700 Z" unicode="Ŕ" />
<glyph horiz-adv-x="404" d="M 320 751 L 379 706 L 238 574 L 181 574 L 320 751 Z M 77 519 L 152 519 L 159 431 C 198 498 251 532 317 532 C 330 532 342 531 353 529 C 363 527 373 525 383 522 L 367 444 C 348 451 328 455 306 455 C 275 455 248 446 224 428 C 200 410 179 384 160 349 L 160 0 L 77 0 L 77 519 Z" unicode="ŕ" />
<glyph horiz-adv-x="683" d="M 375 350 C 403 350 427 354 447 362 C 467 370 483 380 496 393 C 508 406 517 421 523 438 C 529 455 532 472 532 490 C 532 508 529 525 523 542 C 517 558 508 573 496 586 C 484 598 468 608 448 616 C 428 624 404 628 376 628 L 169 628 L 169 350 L 375 350 Z M 169 0 L 84 0 L 84 700 L 377 700 C 421 700 459 694 490 682 C 520 670 545 654 564 634 C 583 614 597 592 605 567 C 613 542 618 517 618 491 C 618 470 615 449 609 429 C 603 409 594 390 582 372 C 570 354 554 339 536 326 C 517 312 495 302 470 294 L 619 0 L 525 0 L 391 282 L 169 282 L 169 0 Z M 269 -55 C 282 -51 296 -50 311 -50 C 339 -50 359 -56 373 -70 C 386 -83 393 -99 394 -119 C 394 -135 389 -151 379 -168 C 369 -185 356 -200 341 -214 L 282 -214 C 313 -183 329 -156 329 -133 C 329 -123 326 -115 320 -109 C 314 -103 305 -100 293 -101 C 289 -101 286 -101 282 -101 C 278 -101 273 -102 269 -103 L 269 -55 Z" unicode="Ŗ" />
<glyph horiz-adv-x="404" d="M 77 519 L 152 519 L 159 431 C 198 498 251 532 317 532 C 330 532 342 531 353 529 C 363 527 373 525 383 522 L 367 444 C 348 451 328 455 306 455 C 275 455 248 446 224 428 C 200 410 179 384 160 349 L 160 0 L 77 0 L 77 519 Z M 76 -55 C 89 -51 103 -50 117 -50 C 145 -50 165 -56 179 -70 C 193 -83 200 -99 200 -119 C 201 -135 196 -151 186 -168 C 175 -185 162 -200 147 -214 L 89 -214 C 120 -182 136 -155 136 -133 C 136 -123 133 -115 127 -109 C 121 -103 112 -100 100 -101 C 96 -101 92 -101 88 -101 C 84 -101 80 -102 76 -103 L 76 -55 Z" unicode="ŗ" />
<glyph horiz-adv-x="683" d="M 166 870 L 224 870 L 332 803 L 333 803 L 442 870 L 500 870 L 374 755 L 291 755 L 166 870 Z M 375 350 C 403 350 427 354 447 362 C 467 370 483 380 496 393 C 508 406 517 421 523 438 C 529 455 532 472 532 490 C 532 508 529 525 523 542 C 517 558 508 573 496 586 C 484 598 468 608 448 616 C 428 624 404 628 376 628 L 169 628 L 169 350 L 375 350 Z M 169 0 L 84 0 L 84 700 L 377 700 C 421 700 459 694 490 682 C 520 670 545 654 564 634 C 583 614 597 592 605 567 C 613 542 618 517 618 491 C 618 470 615 449 609 429 C 603 409 594 390 582 372 C 570 354 554 339 536 326 C 517 312 495 302 470 294 L 619 0 L 525 0 L 391 282 L 169 282 L 169 0 Z" unicode="Ř" />
<glyph horiz-adv-x="404" d="M 62 732 L 121 732 L 229 623 L 230 623 L 338 732 L 398 732 L 274 574 L 186 574 L 62 732 Z M 77 519 L 152 519 L 159 431 C 198 498 251 532 317 532 C 330 532 342 531 353 529 C 363 527 373 525 383 522 L 367 444 C 348 451 328 455 306 455 C 275 455 248 446 224 428 C 200 410 179 384 160 349 L 160 0 L 77 0 L 77 519 Z" unicode="ř" />
<glyph horiz-adv-x="616" d="M 379 889 L 445 843 L 330 755 L 267 755 L 379 889 Z M 94 128 C 122 110 154 94 191 82 C 228 70 268 64 310 64 C 366 64 407 75 434 97 C 460 119 474 148 474 183 C 474 215 463 239 443 255 C 423 271 397 285 367 295 C 337 305 304 313 269 321 C 233 329 200 340 170 354 C 140 368 114 388 94 414 C 74 440 64 475 64 520 C 64 546 69 571 80 595 C 91 618 107 638 127 656 C 147 673 172 687 202 697 C 232 707 266 712 304 712 C 350 712 393 707 431 697 C 469 687 504 674 536 659 L 503 589 C 475 602 445 613 413 622 C 380 631 345 636 307 636 C 258 636 220 625 193 603 C 166 581 153 553 153 521 C 153 489 163 464 183 448 C 203 432 229 419 259 409 C 289 399 321 391 357 383 C 393 375 426 364 456 350 C 486 335 511 315 531 290 C 551 264 562 229 562 183 C 562 155 556 130 546 106 C 536 82 520 62 499 44 C 478 26 452 13 421 3 C 389 -7 352 -12 310 -12 C 258 -12 209 -4 164 9 C 119 23 82 40 52 60 L 94 128 Z" unicode="Ś" />
<glyph horiz-adv-x="475" d="M 328 751 L 387 706 L 246 574 L 189 574 L 328 751 Z M 76 102 C 97 88 121 77 149 68 C 177 59 206 55 238 55 C 274 55 302 61 322 75 C 342 89 352 109 352 135 C 352 157 344 173 329 185 C 314 196 295 205 273 213 C 251 220 226 227 200 233 C 174 239 149 247 127 258 C 105 269 86 284 71 303 C 56 322 49 348 49 381 C 49 404 53 425 63 443 C 72 461 85 477 102 490 C 118 503 138 513 161 520 C 184 527 209 531 236 531 C 265 531 295 527 325 520 C 355 513 385 503 413 490 L 380 427 C 358 438 335 447 309 454 C 283 460 259 464 236 464 C 204 464 178 457 159 443 C 140 429 131 409 131 384 C 131 362 138 346 153 335 C 168 323 187 314 209 307 C 231 300 256 294 282 288 C 308 282 332 274 354 263 C 376 252 395 237 410 218 C 425 198 433 172 433 139 C 433 91 415 53 381 27 C 346 1 298 -12 238 -12 C 199 -12 163 -7 130 2 C 96 12 66 25 39 42 L 76 102 Z" unicode="ś" />
<glyph horiz-adv-x="616" d="M 268 870 L 350 870 L 476 755 L 418 755 L 310 823 L 309 823 L 200 755 L 142 755 L 268 870 Z M 94 128 C 122 110 154 94 191 82 C 228 70 268 64 310 64 C 366 64 407 75 434 97 C 460 119 474 148 474 183 C 474 215 463 239 443 255 C 423 271 397 285 367 295 C 337 305 304 313 269 321 C 233 329 200 340 170 354 C 140 368 114 388 94 414 C 74 440 64 475 64 520 C 64 546 69 571 80 595 C 91 618 107 638 127 656 C 147 673 172 687 202 697 C 232 707 266 712 304 712 C 350 712 393 707 431 697 C 469 687 504 674 536 659 L 503 589 C 475 602 445 613 413 622 C 380 631 345 636 307 636 C 258 636 220 625 193 603 C 166 581 153 553 153 521 C 153 489 163 464 183 448 C 203 432 229 419 259 409 C 289 399 321 391 357 383 C 393 375 426 364 456 350 C 486 335 511 315 531 290 C 551 264 562 229 562 183 C 562 155 556 130 546 106 C 536 82 520 62 499 44 C 478 26 452 13 421 3 C 389 -7 352 -12 310 -12 C 258 -12 209 -4 164 9 C 119 23 82 40 52 60 L 94 128 Z" unicode="Ŝ" />
<glyph horiz-adv-x="475" d="M 196 732 L 284 732 L 408 574 L 348 574 L 240 683 L 239 683 L 131 574 L 72 574 L 196 732 Z M 76 102 C 97 88 121 77 149 68 C 177 59 206 55 238 55 C 274 55 302 61 322 75 C 342 89 352 109 352 135 C 352 157 344 173 329 185 C 314 196 295 205 273 213 C 251 220 226 227 200 233 C 174 239 149 247 127 258 C 105 269 86 284 71 303 C 56 322 49 348 49 381 C 49 404 53 425 63 443 C 72 461 85 477 102 490 C 118 503 138 513 161 520 C 184 527 209 531 236 531 C 265 531 295 527 325 520 C 355 513 385 503 413 490 L 380 427 C 358 438 335 447 309 454 C 283 460 259 464 236 464 C 204 464 178 457 159 443 C 140 429 131 409 131 384 C 131 362 138 346 153 335 C 168 323 187 314 209 307 C 231 300 256 294 282 288 C 308 282 332 274 354 263 C 376 252 395 237 410 218 C 425 198 433 172 433 139 C 433 91 415 53 381 27 C 346 1 298 -12 238 -12 C 199 -12 163 -7 130 2 C 96 12 66 25 39 42 L 76 102 Z" unicode="ŝ" />
<glyph horiz-adv-x="616" d="M 157 -185 C 185 -161 210 -135 232 -106 C 254 -76 270 -45 279 -11 C 233 -7 190 0 151 14 C 112 27 79 42 52 60 L 94 128 C 122 110 154 94 191 82 C 228 70 268 64 310 64 C 366 64 407 75 434 97 C 460 119 474 148 474 183 C 474 215 463 239 443 255 C 423 271 397 285 367 295 C 337 305 304 313 269 321 C 233 329 200 340 170 354 C 140 368 114 388 94 414 C 74 440 64 475 64 520 C 64 546 69 571 80 595 C 91 618 107 638 127 656 C 147 673 172 687 202 697 C 232 707 266 712 304 712 C 350 712 393 707 431 697 C 469 687 504 674 536 659 L 503 589 C 475 602 445 613 413 622 C 380 631 345 636 307 636 C 258 636 220 625 193 603 C 166 581 153 553 153 521 C 153 489 163 464 183 448 C 203 432 229 419 259 409 C 289 399 321 391 357 383 C 393 375 426 364 456 350 C 486 335 511 315 531 290 C 551 264 562 229 562 183 C 562 157 557 132 548 109 C 538 86 524 66 505 49 C 486 31 462 17 434 7 C 405 -2 371 -9 333 -11 C 327 -51 314 -88 295 -123 C 275 -157 250 -189 220 -217 L 157 -185 Z" unicode="Ş" />
<glyph horiz-adv-x="475" d="M 84 -185 C 112 -161 137 -135 160 -105 C 182 -75 198 -44 206 -10 C 142 -4 86 12 39 42 L 76 102 C 97 88 121 77 149 68 C 177 59 206 55 238 55 C 274 55 302 61 322 75 C 342 89 352 109 352 135 C 352 157 344 173 329 185 C 314 196 295 205 273 213 C 251 220 226 227 200 233 C 174 239 149 247 127 258 C 105 269 86 284 71 303 C 56 322 49 348 49 381 C 49 404 53 425 63 443 C 72 461 85 477 102 490 C 118 503 138 513 161 520 C 184 527 209 531 236 531 C 265 531 295 527 325 520 C 355 513 385 503 413 490 L 380 427 C 358 438 335 447 309 454 C 283 460 259 464 236 464 C 204 464 178 457 159 443 C 140 429 131 409 131 384 C 131 362 138 346 153 335 C 168 323 187 314 209 307 C 231 300 256 294 282 288 C 308 282 332 274 354 263 C 376 252 395 237 410 218 C 425 198 433 172 433 139 C 433 93 417 58 387 32 C 356 6 314 -7 260 -11 C 254 -51 241 -88 222 -123 C 202 -157 177 -189 147 -217 L 84 -185 Z" unicode="ş" />
<glyph horiz-adv-x="616" d="M 142 870 L 200 870 L 308 803 L 309 803 L 418 870 L 476 870 L 350 755 L 267 755 L 142 870 Z M 94 128 C 122 110 154 94 191 82 C 228 70 268 64 310 64 C 366 64 407 75 434 97 C 460 119 474 148 474 183 C 474 215 463 239 443 255 C 423 271 397 285 367 295 C 337 305 304 313 269 321 C 233 329 200 340 170 354 C 140 368 114 388 94 414 C 74 440 64 475 64 520 C 64 546 69 571 80 595 C 91 618 107 638 127 656 C 147 673 172 687 202 697 C 232 707 266 712 304 712 C 350 712 393 707 431 697 C 469 687 504 674 536 659 L 503 589 C 475 602 445 613 413 622 C 380 631 345 636 307 636 C 258 636 220 625 193 603 C 166 581 153 553 153 521 C 153 489 163 464 183 448 C 203 432 229 419 259 409 C 289 399 321 391 357 383 C 393 375 426 364 456 350 C 486 335 511 315 531 290 C 551 264 562 229 562 183 C 562 155 556 130 546 106 C 536 82 520 62 499 44 C 478 26 452 13 421 3 C 389 -7 352 -12 310 -12 C 258 -12 209 -4 164 9 C 119 23 82 40 52 60 L 94 128 Z" unicode="Š" />
<glyph horiz-adv-x="475" d="M 72 732 L 131 732 L 239 623 L 240 623 L 348 732 L 408 732 L 284 574 L 196 574 L 72 732 Z M 76 102 C 97 88 121 77 149 68 C 177 59 206 55 238 55 C 274 55 302 61 322 75 C 342 89 352 109 352 135 C 352 157 344 173 329 185 C 314 196 295 205 273 213 C 251 220 226 227 200 233 C 174 239 149 247 127 258 C 105 269 86 284 71 303 C 56 322 49 348 49 381 C 49 404 53 425 63 443 C 72 461 85 477 102 490 C 118 503 138 513 161 520 C 184 527 209 531 236 531 C 265 531 295 527 325 520 C 355 513 385 503 413 490 L 380 427 C 358 438 335 447 309 454 C 283 460 259 464 236 464 C 204 464 178 457 159 443 C 140 429 131 409 131 384 C 131 362 138 346 153 335 C 168 323 187 314 209 307 C 231 300 256 294 282 288 C 308 282 332 274 354 263 C 376 252 395 237 410 218 C 425 198 433 172 433 139 C 433 91 415 53 381 27 C 346 1 298 -12 238 -12 C 199 -12 163 -7 130 2 C 96 12 66 25 39 42 L 76 102 Z" unicode="š" />
<glyph horiz-adv-x="651" d="M 283 624 L 30 624 L 30 700 L 622 700 L 622 624 L 368 624 L 368 0 L 283 0 L 283 624 Z M 354 -46 C 345 -79 332 -110 314 -139 C 296 -167 274 -193 248 -217 L 185 -185 C 208 -165 229 -144 249 -121 C 269 -98 284 -73 296 -46 L 354 -46 Z" unicode="Ţ" />
<glyph horiz-adv-x="391" d="M 114 455 L 23 455 L 23 519 L 114 519 L 114 671 L 197 671 L 197 519 L 346 519 L 346 455 L 197 455 L 197 139 C 197 112 202 91 212 77 C 222 63 240 56 265 56 C 292 56 318 64 342 81 L 374 27 C 358 15 340 6 319 -1 C 298 -8 277 -12 256 -12 C 206 -12 170 0 148 25 C 125 50 114 88 114 138 L 114 455 Z M 223 -46 C 214 -79 201 -110 183 -139 C 165 -167 143 -193 117 -217 L 54 -185 C 77 -165 98 -144 118 -121 C 138 -98 153 -73 165 -46 L 223 -46 Z" unicode="ţ" />
<glyph horiz-adv-x="651" d="M 159 870 L 217 870 L 325 803 L 326 803 L 435 870 L 493 870 L 367 755 L 284 755 L 159 870 Z M 283 624 L 30 624 L 30 700 L 622 700 L 622 624 L 368 624 L 368 0 L 283 0 L 283 624 Z" unicode="Ť" />
<glyph horiz-adv-x="391" d="M 274 726 C 287 729 301 731 316 731 C 344 731 364 724 378 711 C 391 698 398 681 399 661 C 399 645 394 628 384 611 C 374 594 361 579 346 566 L 287 566 C 318 597 334 624 334 648 C 334 657 331 665 325 671 C 319 677 310 681 298 681 C 294 681 291 680 287 680 C 283 679 278 678 274 678 L 274 726 Z M 114 455 L 23 455 L 23 519 L 114 519 L 114 671 L 197 671 L 197 519 L 346 519 L 346 455 L 197 455 L 197 139 C 197 112 202 91 212 77 C 222 63 240 56 265 56 C 292 56 318 64 342 81 L 374 27 C 358 15 340 6 319 -1 C 298 -8 277 -12 256 -12 C 206 -12 170 0 148 25 C 125 50 114 88 114 138 L 114 455 Z" unicode="ť" />
<glyph horiz-adv-x="651" d="M 125 380 L 283 380 L 283 624 L 30 624 L 30 700 L 622 700 L 622 624 L 368 624 L 368 380 L 527 380 L 527 323 L 368 323 L 368 0 L 283 0 L 283 323 L 125 323 L 125 380 Z" unicode="Ŧ" />
<glyph horiz-adv-x="391" d="M 32 324 L 114 324 L 114 455 L 23 455 L 23 519 L 114 519 L 114 671 L 197 671 L 197 519 L 346 519 L 346 455 L 197 455 L 197 324 L 333 324 L 333 268 L 197 268 L 197 139 C 197 112 202 91 212 77 C 222 63 240 56 265 56 C 292 56 318 64 342 81 L 374 27 C 358 15 340 6 319 -1 C 298 -8 277 -12 256 -12 C 206 -12 170 0 148 25 C 125 50 114 88 114 138 L 114 268 L 32 268 L 32 324 Z" unicode="ŧ" />
<glyph horiz-adv-x="716" d="M 209 760 C 205 796 210 824 226 844 C 242 864 264 874 292 874 C 307 874 320 870 332 864 C 344 857 354 850 364 842 C 374 834 383 827 392 821 C 400 814 410 811 420 811 C 432 811 442 815 448 825 C 454 834 457 847 455 865 L 507 865 C 511 829 506 801 490 781 C 474 761 452 751 424 751 C 408 751 395 754 384 760 C 372 766 362 774 352 782 C 342 790 332 797 323 803 C 314 809 305 813 295 813 C 283 813 273 808 267 799 C 261 790 259 777 261 760 L 209 760 Z M 81 700 L 167 700 L 167 259 C 167 227 172 198 182 174 C 192 149 205 128 222 112 C 239 96 259 83 283 75 C 306 66 331 62 358 62 C 384 62 409 66 433 75 C 456 83 476 96 494 112 C 511 128 525 149 535 174 C 545 198 550 227 550 259 L 550 700 L 635 700 L 635 259 C 635 214 627 175 613 141 C 599 107 579 78 555 56 C 530 33 501 16 467 5 C 433 -6 397 -12 358 -12 C 319 -12 283 -6 249 5 C 215 16 185 33 161 56 C 136 78 116 107 102 141 C 88 175 81 214 81 259 L 81 700 Z" unicode="Ũ" />
<glyph horiz-adv-x="576" d="M 139 600 C 135 636 140 664 156 684 C 172 704 194 715 222 715 C 237 715 250 711 262 705 C 273 698 283 691 293 683 C 303 675 312 668 321 662 C 329 655 339 652 349 652 C 361 652 371 656 377 666 C 383 675 386 688 384 706 L 435 706 C 439 670 434 641 418 621 C 402 601 381 591 353 591 C 338 591 325 594 313 600 C 301 606 291 614 281 622 C 271 630 262 637 253 643 C 244 649 235 653 225 653 C 213 653 203 648 197 639 C 191 630 189 617 191 600 L 139 600 Z M 75 519 L 158 519 L 158 166 C 158 132 165 104 179 84 C 193 64 219 54 257 54 C 289 54 318 61 345 76 C 371 90 395 111 417 137 L 417 519 L 500 519 L 500 0 L 425 0 L 418 70 C 396 47 370 28 340 12 C 310 -4 276 -12 240 -12 C 181 -12 139 4 113 37 C 87 70 75 114 75 168 L 75 519 Z" unicode="ũ" />
<glyph horiz-adv-x="716" d="M 210 841 L 506 841 L 506 783 L 210 783 L 210 841 Z M 81 700 L 167 700 L 167 259 C 167 227 172 198 182 174 C 192 149 205 128 222 112 C 239 96 259 83 283 75 C 306 66 331 62 358 62 C 384 62 409 66 433 75 C 456 83 476 96 494 112 C 511 128 525 149 535 174 C 545 198 550 227 550 259 L 550 700 L 635 700 L 635 259 C 635 214 627 175 613 141 C 599 107 579 78 555 56 C 530 33 501 16 467 5 C 433 -6 397 -12 358 -12 C 319 -12 283 -6 249 5 C 215 16 185 33 161 56 C 136 78 116 107 102 141 C 88 175 81 214 81 259 L 81 700 Z" unicode="Ū" />
<glyph horiz-adv-x="576" d="M 140 682 L 434 682 L 434 624 L 140 624 L 140 682 Z M 75 519 L 158 519 L 158 166 C 158 132 165 104 179 84 C 193 64 219 54 257 54 C 289 54 318 61 345 76 C 371 90 395 111 417 137 L 417 519 L 500 519 L 500 0 L 425 0 L 418 70 C 396 47 370 28 340 12 C 310 -4 276 -12 240 -12 C 181 -12 139 4 113 37 C 87 70 75 114 75 168 L 75 519 Z" unicode="ū" />
<glyph horiz-adv-x="716" d="M 357 750 C 311 750 273 760 245 782 C 217 803 198 832 189 870 L 249 870 C 256 850 269 835 287 824 C 305 812 329 807 357 807 C 385 807 408 812 426 824 C 444 835 457 850 465 870 L 525 870 C 515 832 496 803 468 782 C 439 760 402 750 357 750 Z M 81 700 L 167 700 L 167 259 C 167 227 172 198 182 174 C 192 149 205 128 222 112 C 239 96 259 83 283 75 C 306 66 331 62 358 62 C 384 62 409 66 433 75 C 456 83 476 96 494 112 C 511 128 525 149 535 174 C 545 198 550 227 550 259 L 550 700 L 635 700 L 635 259 C 635 214 627 175 613 141 C 599 107 579 78 555 56 C 530 33 501 16 467 5 C 433 -6 397 -12 358 -12 C 319 -12 283 -6 249 5 C 215 16 185 33 161 56 C 136 78 116 107 102 141 C 88 175 81 214 81 259 L 81 700 Z" unicode="Ŭ" />
<glyph horiz-adv-x="576" d="M 287 569 C 240 569 202 583 174 612 C 146 641 129 681 125 732 L 182 732 C 186 699 197 673 215 655 C 233 636 257 627 287 627 C 317 627 341 636 359 655 C 377 673 388 699 392 732 L 449 732 C 445 681 429 641 400 612 C 370 583 333 569 287 569 Z M 75 519 L 158 519 L 158 166 C 158 132 165 104 179 84 C 193 64 219 54 257 54 C 289 54 318 61 345 76 C 371 90 395 111 417 137 L 417 519 L 500 519 L 500 0 L 425 0 L 418 70 C 396 47 370 28 340 12 C 310 -4 276 -12 240 -12 C 181 -12 139 4 113 37 C 87 70 75 114 75 168 L 75 519 Z" unicode="ŭ" />
<glyph horiz-adv-x="716" d="M 358 752 C 328 752 303 761 283 780 C 263 799 253 823 253 853 C 253 867 255 881 261 893 C 267 905 274 916 284 926 C 293 935 304 942 317 948 C 329 953 343 956 358 956 C 372 956 386 953 399 948 C 411 942 422 935 432 926 C 442 916 449 905 455 893 C 460 881 463 867 463 853 C 463 823 452 799 432 780 C 412 761 387 752 358 752 Z M 358 788 C 376 788 391 794 403 807 C 415 819 422 835 422 853 C 422 871 415 887 403 899 C 391 911 376 918 358 918 C 340 918 324 911 312 899 C 299 887 293 871 293 853 C 293 835 299 819 312 807 C 324 794 340 788 358 788 Z M 81 700 L 167 700 L 167 259 C 167 227 172 198 182 174 C 192 149 205 128 222 112 C 239 96 259 83 283 75 C 306 66 331 62 358 62 C 384 62 409 66 433 75 C 456 83 476 96 494 112 C 511 128 525 149 535 174 C 545 198 550 227 550 259 L 550 700 L 635 700 L 635 259 C 635 214 627 175 613 141 C 599 107 579 78 555 56 C 530 33 501 16 467 5 C 433 -6 397 -12 358 -12 C 319 -12 283 -6 249 5 C 215 16 185 33 161 56 C 136 78 116 107 102 141 C 88 175 81 214 81 259 L 81 700 Z" unicode="Ů" />
<glyph horiz-adv-x="576" d="M 287 570 C 257 570 232 579 212 599 C 192 618 182 642 182 672 C 182 701 192 725 212 745 C 232 764 257 774 287 774 C 316 774 341 764 361 745 C 381 725 392 701 392 672 C 392 642 381 618 361 599 C 341 579 316 570 287 570 Z M 287 606 C 305 606 320 612 333 625 C 345 638 352 654 352 672 C 352 690 345 706 333 718 C 320 730 305 737 287 737 C 269 737 253 730 241 718 C 228 706 222 690 222 672 C 222 654 228 638 241 625 C 253 612 269 606 287 606 Z M 75 519 L 158 519 L 158 166 C 158 132 165 104 179 84 C 193 64 219 54 257 54 C 289 54 318 61 345 76 C 371 90 395 111 417 137 L 417 519 L 500 519 L 500 0 L 425 0 L 418 70 C 396 47 370 28 340 12 C 310 -4 276 -12 240 -12 C 181 -12 139 4 113 37 C 87 70 75 114 75 168 L 75 519 Z" unicode="ů" />
<glyph horiz-adv-x="716" d="M 503 889 L 567 843 L 453 755 L 391 755 L 503 889 Z M 349 889 L 414 843 L 300 755 L 237 755 L 349 889 Z M 81 700 L 167 700 L 167 259 C 167 227 172 198 182 174 C 192 149 205 128 222 112 C 239 96 259 83 283 75 C 306 66 331 62 358 62 C 384 62 409 66 433 75 C 456 83 476 96 494 112 C 511 128 525 149 535 174 C 545 198 550 227 550 259 L 550 700 L 635 700 L 635 259 C 635 214 627 175 613 141 C 599 107 579 78 555 56 C 530 33 501 16 467 5 C 433 -6 397 -12 358 -12 C 319 -12 283 -6 249 5 C 215 16 185 33 161 56 C 136 78 116 107 102 141 C 88 175 81 214 81 259 L 81 700 Z" unicode="Ű" />
<glyph horiz-adv-x="576" d="M 461 751 L 520 709 L 384 574 L 330 574 L 461 751 Z M 304 751 L 364 709 L 227 574 L 172 574 L 304 751 Z M 75 519 L 158 519 L 158 166 C 158 132 165 104 179 84 C 193 64 219 54 257 54 C 289 54 318 61 345 76 C 371 90 395 111 417 137 L 417 519 L 500 519 L 500 0 L 425 0 L 418 70 C 396 47 370 28 340 12 C 310 -4 276 -12 240 -12 C 181 -12 139 4 113 37 C 87 70 75 114 75 168 L 75 519 Z" unicode="ű" />
<glyph horiz-adv-x="716" d="M 81 700 L 167 700 L 167 259 C 167 227 172 198 182 174 C 192 149 205 128 222 112 C 239 96 259 83 283 75 C 306 66 331 62 358 62 C 384 62 409 66 433 75 C 456 83 476 96 494 112 C 511 128 525 149 535 174 C 545 198 550 227 550 259 L 550 700 L 635 700 L 635 259 C 635 200 623 151 600 112 C 577 73 547 44 510 24 C 478 6 451 -11 429 -30 C 407 -49 396 -71 396 -96 C 396 -111 401 -123 411 -131 C 421 -139 434 -143 451 -143 C 461 -143 471 -141 480 -139 C 489 -136 497 -133 505 -129 L 507 -131 L 507 -193 C 497 -197 487 -200 476 -203 C 464 -205 452 -207 440 -207 C 408 -207 382 -198 362 -182 C 342 -165 332 -142 332 -113 C 332 -93 337 -75 347 -58 C 357 -40 371 -24 387 -10 C 383 -10 379 -11 373 -11 C 367 -11 362 -12 358 -12 C 319 -12 283 -6 249 5 C 215 16 185 33 161 56 C 136 78 116 107 102 141 C 88 175 81 214 81 259 L 81 700 Z" unicode="Ų" />
<glyph horiz-adv-x="576" d="M 75 519 L 158 519 L 158 166 C 158 132 165 104 179 84 C 193 64 219 54 257 54 C 289 54 318 61 345 76 C 371 90 395 111 417 137 L 417 519 L 500 519 L 500 0 C 473 -12 452 -26 437 -42 C 421 -58 414 -76 414 -98 C 414 -112 418 -123 428 -131 C 438 -139 450 -143 465 -143 C 475 -143 485 -141 494 -139 C 503 -136 511 -133 519 -129 L 521 -131 L 521 -193 C 511 -197 501 -200 490 -203 C 478 -205 466 -207 453 -207 C 423 -207 398 -198 379 -182 C 359 -166 350 -143 350 -114 C 350 -90 356 -69 370 -49 C 383 -29 401 -13 425 1 L 418 70 C 396 47 370 28 340 12 C 310 -4 276 -12 240 -12 C 181 -12 139 4 113 37 C 87 70 75 114 75 168 L 75 519 Z" unicode="ų" />
<glyph horiz-adv-x="1034" d="M 476 870 L 558 870 L 684 755 L 626 755 L 518 823 L 517 823 L 408 755 L 350 755 L 476 870 Z M 32 700 L 123 700 L 303 116 L 305 116 L 476 700 L 560 700 L 730 116 L 732 116 L 913 700 L 1003 700 L 780 0 L 686 0 L 518 572 L 516 572 L 348 0 L 254 0 L 32 700 Z" unicode="Ŵ" />
<glyph horiz-adv-x="815" d="M 364 732 L 452 732 L 576 574 L 516 574 L 408 683 L 407 683 L 299 574 L 240 574 L 364 732 Z M 22 519 L 107 519 L 244 103 L 246 103 L 371 519 L 445 519 L 571 103 L 573 103 L 709 519 L 792 519 L 616 0 L 533 0 L 408 403 L 406 403 L 282 0 L 199 0 L 22 519 Z" unicode="ŵ" />
<glyph horiz-adv-x="669" d="M 293 870 L 375 870 L 501 755 L 443 755 L 335 823 L 334 823 L 225 755 L 167 755 L 293 870 Z M 292 285 L 28 700 L 129 700 L 334 367 L 336 367 L 541 700 L 641 700 L 377 285 L 377 0 L 292 0 L 292 285 Z" unicode="Ŷ" />
<glyph horiz-adv-x="508" d="M 211 732 L 299 732 L 423 574 L 363 574 L 255 683 L 254 683 L 146 574 L 87 574 L 211 732 Z M 40 -126 C 50 -130 60 -133 71 -136 C 82 -139 93 -141 103 -141 C 122 -141 138 -136 151 -128 C 163 -119 174 -103 184 -79 L 216 3 L 23 519 L 109 519 L 256 109 L 258 109 L 401 519 L 485 519 L 266 -85 C 247 -134 224 -167 198 -184 C 172 -201 141 -210 106 -210 C 90 -210 74 -208 58 -205 C 42 -202 28 -198 16 -193 L 40 -126 Z" unicode="ŷ" />
<glyph horiz-adv-x="669" d="M 196 854 L 273 854 L 273 772 L 196 772 L 196 854 Z M 398 854 L 474 854 L 474 772 L 398 772 L 398 854 Z M 292 285 L 28 700 L 129 700 L 334 367 L 336 367 L 541 700 L 641 700 L 377 285 L 377 0 L 292 0 L 292 285 Z" unicode="Ÿ" />
<glyph horiz-adv-x="647" d="M 386 889 L 452 843 L 337 755 L 274 755 L 386 889 Z M 56 71 L 475 623 L 57 623 L 57 700 L 583 700 L 583 630 L 166 78 L 594 78 L 594 0 L 56 0 L 56 71 Z" unicode="Ź" />
<glyph horiz-adv-x="501" d="M 340 751 L 399 706 L 258 574 L 201 574 L 340 751 Z M 50 58 L 344 452 L 58 452 L 58 519 L 448 519 L 448 460 L 155 67 L 458 67 L 458 0 L 50 0 L 50 58 Z" unicode="ź" />
<glyph horiz-adv-x="647" d="M 272 867 L 355 867 L 355 772 L 272 772 L 272 867 Z M 56 71 L 475 623 L 57 623 L 57 700 L 583 700 L 583 630 L 166 78 L 594 78 L 594 0 L 56 0 L 56 71 Z" unicode="Ż" />
<glyph horiz-adv-x="501" d="M 207 743 L 290 743 L 290 648 L 207 648 L 207 743 Z M 50 58 L 344 452 L 58 452 L 58 519 L 448 519 L 448 460 L 155 67 L 458 67 L 458 0 L 50 0 L 50 58 Z" unicode="ż" />
<glyph horiz-adv-x="647" d="M 153 870 L 211 870 L 319 803 L 320 803 L 429 870 L 487 870 L 361 755 L 278 755 L 153 870 Z M 56 71 L 475 623 L 57 623 L 57 700 L 583 700 L 583 630 L 166 78 L 594 78 L 594 0 L 56 0 L 56 71 Z" unicode="Ž" />
<glyph horiz-adv-x="501" d="M 83 732 L 142 732 L 250 623 L 251 623 L 359 732 L 419 732 L 295 574 L 207 574 L 83 732 Z M 50 58 L 344 452 L 58 452 L 58 519 L 448 519 L 448 460 L 155 67 L 458 67 L 458 0 L 50 0 L 50 58 Z" unicode="ž" />
<glyph horiz-adv-x="727" d="M 587 360 C 587 402 580 441 568 475 C 556 509 539 539 517 563 C 495 587 468 605 437 618 C 406 630 372 637 335 637 C 303 637 271 632 239 622 C 207 612 177 596 149 575 L 104 637 C 138 661 174 680 214 693 C 254 705 294 712 336 712 C 387 712 433 703 475 687 C 516 670 551 646 581 616 C 611 586 634 549 650 505 C 666 461 674 413 674 359 C 674 301 666 250 650 204 C 634 158 612 120 584 88 C 555 56 520 31 479 14 C 438 -3 393 -12 343 -12 C 297 -12 257 -4 222 10 C 187 24 158 45 134 72 C 110 99 91 132 79 170 C 67 208 61 250 61 296 C 61 306 61 317 62 327 C 63 337 64 348 66 360 L 587 360 Z M 344 60 C 412 60 467 81 509 124 C 550 167 575 226 584 301 L 145 301 C 142 224 158 165 194 123 C 230 81 280 60 344 60 Z" unicode="Ə" />
<glyph horiz-adv-x="385" d="M -25 -133 C -17 -135 -9 -137 1 -139 C 11 -141 21 -142 31 -142 C 59 -142 79 -132 92 -113 C 105 -93 112 -63 112 -23 L 112 402 L 19 402 L 19 467 L 112 467 L 112 513 C 112 549 117 579 127 605 C 137 630 150 650 168 666 C 185 682 206 693 231 701 C 255 708 282 712 311 712 C 325 712 340 710 356 707 C 371 704 384 701 395 698 L 375 635 C 367 637 357 640 346 642 C 335 644 324 645 313 645 C 275 645 246 634 226 613 C 206 591 196 558 196 513 L 196 466 L 339 466 L 339 402 L 196 402 L 196 -23 C 196 -90 182 -138 156 -166 C 129 -194 90 -209 38 -209 C 24 -209 9 -207 -5 -205 C -19 -202 -33 -199 -46 -195 L -25 -133 Z" unicode="ƒ" />
<glyph horiz-adv-x="670" d="M 84 700 L 169 700 L 169 297 C 198 308 224 328 247 357 C 270 386 293 425 317 473 C 335 512 353 545 373 573 C 392 600 413 623 435 641 C 457 659 482 673 509 683 C 535 693 565 699 599 702 L 600 634 C 576 630 555 625 536 617 C 516 609 498 597 481 582 C 464 566 448 547 432 524 C 416 500 401 472 385 438 C 384 436 383 436 383 436 C 383 436 383 435 383 434 L 634 0 L 534 0 L 337 352 C 313 316 288 288 262 269 C 236 249 205 234 169 223 L 169 0 L 84 0 L 84 700 Z" unicode="Ƙ" />
<glyph horiz-adv-x="536" d="M 81 580 C 81 612 85 640 93 663 C 101 686 112 705 126 719 C 140 733 158 744 178 750 C 198 756 221 760 246 760 L 246 690 C 220 690 200 682 186 666 C 171 650 164 621 164 580 L 164 253 L 396 519 L 491 519 L 333 344 L 515 0 L 420 0 L 277 283 L 164 157 L 164 0 L 81 0 L 81 580 Z" unicode="ƙ" />
<glyph horiz-adv-x="809" d="M 55 355 C 55 409 64 458 82 502 C 100 546 124 583 156 614 C 187 645 224 669 267 686 C 309 703 355 712 405 712 C 454 712 500 703 542 686 C 584 669 621 645 653 614 C 685 583 710 546 728 502 C 746 458 755 409 755 355 C 755 299 746 248 728 203 C 710 157 685 119 654 87 C 622 55 585 30 543 13 C 500 -3 454 -12 405 -12 C 355 -12 309 -3 267 13 C 224 30 187 55 156 87 C 124 119 100 157 82 203 C 64 248 55 299 55 355 Z M 405 638 C 369 638 336 631 306 619 C 275 607 248 589 225 567 C 201 545 182 518 168 486 C 154 454 145 418 143 378 L 667 378 C 664 418 655 454 641 486 C 627 518 608 545 585 567 C 561 589 534 607 504 619 C 473 631 440 638 405 638 Z M 405 62 C 439 62 472 67 502 79 C 532 91 559 108 583 131 C 606 153 625 181 640 213 C 654 245 663 282 666 323 L 143 323 C 146 282 155 245 170 213 C 184 181 203 153 227 131 C 250 108 277 91 307 79 C 337 67 370 62 405 62 Z" unicode="Ɵ" />
<glyph horiz-adv-x="630" d="M 445 622 L 38 622 L 38 700 L 569 700 L 569 635 L 234 302 C 247 305 262 308 280 310 C 297 312 313 314 329 314 C 370 314 407 307 441 295 C 474 283 502 265 526 243 C 550 220 568 193 581 162 C 593 130 600 96 600 59 C 600 14 591 -24 574 -58 C 556 -92 533 -120 503 -142 C 473 -164 439 -181 399 -193 C 359 -204 317 -210 273 -210 C 229 -210 187 -205 148 -196 C 108 -187 73 -175 41 -160 L 72 -94 C 100 -107 130 -118 163 -126 C 196 -134 232 -139 271 -139 C 305 -139 336 -134 366 -126 C 395 -117 420 -104 442 -88 C 464 -71 481 -50 493 -25 C 505 0 512 28 512 61 C 512 122 492 169 452 202 C 412 234 357 251 287 251 C 267 251 245 249 223 247 C 200 244 179 241 161 237 L 124 297 L 445 622 Z" unicode="Ʒ" />
<glyph horiz-adv-x="692" d="M 179 870 L 237 870 L 345 803 L 346 803 L 455 870 L 513 870 L 387 755 L 304 755 L 179 870 Z M 210 241 L 481 241 L 346 613 L 344 613 L 210 241 Z M 295 700 L 397 700 L 661 0 L 569 0 L 506 172 L 185 172 L 123 0 L 30 0 L 295 700 Z" unicode="Ǎ" />
<glyph horiz-adv-x="530" d="M 104 732 L 163 732 L 271 623 L 272 623 L 380 732 L 440 732 L 316 574 L 228 574 L 104 732 Z M 131 126 C 131 103 139 85 155 72 C 171 58 192 52 219 52 C 251 52 279 58 303 71 C 327 84 347 100 361 118 L 361 244 C 335 242 308 240 281 236 C 253 232 229 226 207 218 C 185 209 166 197 152 183 C 138 168 131 149 131 126 Z M 49 120 C 49 152 57 179 75 201 C 93 223 116 240 145 254 C 174 268 207 278 245 284 C 282 290 321 295 361 297 L 361 373 C 361 399 353 420 337 437 C 321 453 296 462 260 462 C 232 462 204 457 176 448 C 148 438 121 427 96 414 L 64 480 C 92 493 123 505 158 515 C 193 525 228 531 262 531 C 294 531 321 527 344 519 C 367 511 386 500 401 486 C 415 472 426 455 433 436 C 440 416 444 395 444 372 L 444 113 C 444 95 448 81 458 73 C 467 64 480 60 496 60 L 496 -1 C 459 -1 431 4 413 14 C 394 24 380 41 371 64 C 351 42 326 23 298 9 C 270 -4 237 -12 201 -12 C 155 -12 118 0 90 24 C 62 48 49 80 49 120 Z" unicode="ǎ" />
<glyph horiz-adv-x="252" d="M -40 870 L 18 870 L 126 803 L 127 803 L 236 870 L 294 870 L 168 755 L 85 755 L -40 870 Z M 84 700 L 169 700 L 169 0 L 84 0 L 84 700 Z" unicode="Ǐ" />
<glyph horiz-adv-x="244" d="M -46 732 L 13 732 L 121 623 L 122 623 L 230 732 L 290 732 L 166 574 L 78 574 L -46 732 Z M 81 516 L 164 516 L 164 0 L 81 0 L 81 516 Z" unicode="ǐ" />
<glyph horiz-adv-x="809" d="M 238 870 L 296 870 L 404 803 L 405 803 L 514 870 L 572 870 L 446 755 L 363 755 L 238 870 Z M 55 355 C 55 409 64 458 82 502 C 100 546 124 583 156 614 C 187 645 224 669 267 686 C 309 703 355 712 405 712 C 454 712 500 703 542 686 C 584 669 621 645 653 614 C 685 583 710 546 728 502 C 746 458 755 409 755 355 C 755 299 746 248 728 203 C 710 157 685 119 654 87 C 622 55 585 30 543 13 C 500 -3 454 -12 405 -12 C 355 -12 309 -3 267 13 C 224 30 187 55 156 87 C 124 119 100 157 82 203 C 64 248 55 299 55 355 Z M 142 355 C 142 309 148 268 162 232 C 176 196 194 165 218 140 C 241 114 269 95 301 82 C 333 68 368 62 405 62 C 441 62 476 68 508 82 C 540 95 567 114 591 140 C 615 165 633 196 647 232 C 661 268 668 309 668 355 C 668 398 661 437 647 472 C 633 507 615 537 591 561 C 567 585 540 604 508 618 C 476 631 441 638 405 638 C 368 638 334 631 302 618 C 270 604 242 585 218 561 C 194 537 176 507 162 472 C 148 437 142 398 142 355 Z" unicode="Ǒ" />
<glyph horiz-adv-x="601" d="M 133 732 L 192 732 L 300 623 L 301 623 L 409 732 L 469 732 L 345 574 L 257 574 L 133 732 Z M 51 266 C 51 306 57 342 70 375 C 82 407 100 435 122 458 C 144 481 171 499 201 512 C 231 524 265 531 301 531 C 337 531 370 524 400 512 C 430 499 457 481 479 458 C 501 435 518 407 530 375 C 542 342 549 306 549 266 C 549 223 543 184 531 150 C 519 116 502 87 480 63 C 458 39 432 20 402 7 C 372 -5 338 -12 301 -12 C 263 -12 229 -5 199 7 C 168 20 142 39 120 63 C 98 87 81 116 69 150 C 57 184 51 223 51 266 Z M 135 266 C 135 234 138 205 146 179 C 154 153 165 130 179 112 C 193 93 211 79 231 69 C 251 59 275 54 301 54 C 326 54 349 59 369 69 C 389 79 406 93 420 112 C 434 130 445 153 453 179 C 461 205 465 234 465 266 C 465 296 461 323 453 347 C 445 371 433 392 419 410 C 404 427 387 440 367 450 C 347 459 325 464 301 464 C 277 464 254 459 234 450 C 214 440 196 427 182 410 C 167 392 155 371 147 347 C 139 323 135 296 135 266 Z" unicode="ǒ" />
<glyph horiz-adv-x="716" d="M 191 870 L 249 870 L 357 803 L 358 803 L 467 870 L 525 870 L 399 755 L 316 755 L 191 870 Z M 81 700 L 167 700 L 167 259 C 167 227 172 198 182 174 C 192 149 205 128 222 112 C 239 96 259 83 283 75 C 306 66 331 62 358 62 C 384 62 409 66 433 75 C 456 83 476 96 494 112 C 511 128 525 149 535 174 C 545 198 550 227 550 259 L 550 700 L 635 700 L 635 259 C 635 214 627 175 613 141 C 599 107 579 78 555 56 C 530 33 501 16 467 5 C 433 -6 397 -12 358 -12 C 319 -12 283 -6 249 5 C 215 16 185 33 161 56 C 136 78 116 107 102 141 C 88 175 81 214 81 259 L 81 700 Z" unicode="Ǔ" />
<glyph horiz-adv-x="576" d="M 120 732 L 179 732 L 287 623 L 288 623 L 396 732 L 456 732 L 332 574 L 244 574 L 120 732 Z M 75 519 L 158 519 L 158 166 C 158 132 165 104 179 84 C 193 64 219 54 257 54 C 289 54 318 61 345 76 C 371 90 395 111 417 137 L 417 519 L 500 519 L 500 0 L 425 0 L 418 70 C 396 47 370 28 340 12 C 310 -4 276 -12 240 -12 C 181 -12 139 4 113 37 C 87 70 75 114 75 168 L 75 519 Z" unicode="ǔ" />
<glyph horiz-adv-x="692" d="M 197 950 L 493 950 L 493 892 L 197 892 L 197 950 Z M 207 842 L 284 842 L 284 760 L 207 760 L 207 842 Z M 409 842 L 485 842 L 485 760 L 409 760 L 409 842 Z M 210 241 L 481 241 L 346 613 L 344 613 L 210 241 Z M 295 700 L 397 700 L 661 0 L 569 0 L 506 172 L 185 172 L 123 0 L 30 0 L 295 700 Z" unicode="Ǟ" />
<glyph horiz-adv-x="530" d="M 124 814 L 418 814 L 418 756 L 124 756 L 124 814 Z M 136 685 L 212 685 L 212 603 L 136 603 L 136 685 Z M 331 685 L 407 685 L 407 603 L 331 603 L 331 685 Z M 131 126 C 131 103 139 85 155 72 C 171 58 192 52 219 52 C 251 52 279 58 303 71 C 327 84 347 100 361 118 L 361 244 C 335 242 308 240 281 236 C 253 232 229 226 207 218 C 185 209 166 197 152 183 C 138 168 131 149 131 126 Z M 49 120 C 49 152 57 179 75 201 C 93 223 116 240 145 254 C 174 268 207 278 245 284 C 282 290 321 295 361 297 L 361 373 C 361 399 353 420 337 437 C 321 453 296 462 260 462 C 232 462 204 457 176 448 C 148 438 121 427 96 414 L 64 480 C 92 493 123 505 158 515 C 193 525 228 531 262 531 C 294 531 321 527 344 519 C 367 511 386 500 401 486 C 415 472 426 455 433 436 C 440 416 444 395 444 372 L 444 113 C 444 95 448 81 458 73 C 467 64 480 60 496 60 L 496 -1 C 459 -1 431 4 413 14 C 394 24 380 41 371 64 C 351 42 326 23 298 9 C 270 -4 237 -12 201 -12 C 155 -12 118 0 90 24 C 62 48 49 80 49 120 Z" unicode="ǟ" />
<glyph horiz-adv-x="1034" d="M 346 841 L 642 841 L 642 783 L 346 783 L 346 841 Z M 231 243 L 511 243 L 405 624 L 400 624 L 231 243 Z M 348 700 L 963 700 L 963 624 L 490 624 L 557 393 L 924 393 L 924 320 L 578 320 L 649 76 L 970 76 L 970 0 L 579 0 L 531 172 L 199 172 L 123 0 L 27 0 L 348 700 Z" unicode="Ǣ" />
<glyph horiz-adv-x="875" d="M 287 682 L 581 682 L 581 624 L 287 624 L 287 682 Z M 406 91 C 396 77 385 64 371 52 C 357 39 342 28 325 18 C 307 8 288 1 268 -4 C 248 -10 226 -13 203 -13 C 156 -13 119 -1 91 23 C 63 47 49 79 49 119 C 49 151 57 178 75 200 C 92 222 115 239 145 253 C 174 266 207 276 245 282 C 283 288 322 293 362 295 L 362 374 C 362 399 354 420 338 437 C 322 453 297 462 262 462 C 235 462 207 457 178 448 C 149 438 122 427 97 414 L 64 480 C 93 493 125 505 160 516 C 194 526 228 532 262 532 C 309 532 345 522 370 504 C 395 486 412 462 420 432 C 440 463 466 487 498 505 C 530 523 568 532 610 532 C 646 532 677 526 704 514 C 730 502 752 486 770 465 C 788 444 801 420 809 392 C 817 364 822 333 822 300 C 822 293 821 285 821 277 C 820 268 819 261 818 256 L 445 256 C 446 188 461 138 491 105 C 520 72 561 56 615 56 C 643 56 670 60 696 70 C 722 79 745 91 766 105 L 804 49 C 776 29 746 14 714 3 C 681 -7 647 -13 612 -13 C 564 -13 523 -4 489 13 C 455 31 427 57 406 91 Z M 741 312 C 741 333 738 353 734 372 C 730 391 722 408 712 422 C 702 436 688 447 672 455 C 655 463 635 468 611 468 C 569 468 533 454 503 426 C 473 398 455 360 448 312 L 741 312 Z M 132 125 C 132 103 140 85 156 71 C 172 57 194 51 220 51 C 254 51 285 59 313 76 C 341 92 363 115 379 144 C 368 174 362 207 362 243 C 336 242 309 240 282 236 C 255 232 230 226 208 218 C 186 209 167 197 153 182 C 139 167 132 148 132 125 Z" unicode="ǣ" />
<glyph horiz-adv-x="730" d="M 448 236 L 573 236 L 573 303 L 378 303 L 378 368 L 652 368 L 652 236 L 741 236 L 741 179 L 652 179 L 652 59 C 619 36 582 18 540 6 C 498 -5 454 -12 408 -12 C 354 -12 305 -3 261 14 C 217 32 180 57 150 89 C 119 121 95 160 79 206 C 63 251 55 301 55 357 C 55 409 63 456 80 500 C 96 543 120 580 151 612 C 182 644 219 668 263 686 C 306 703 354 712 408 712 C 452 712 494 706 533 694 C 572 682 609 665 643 643 L 599 581 C 571 599 541 613 510 623 C 478 633 445 638 410 638 C 370 638 333 631 300 617 C 267 603 239 584 215 560 C 191 535 173 505 161 471 C 148 436 142 398 142 357 C 142 312 148 271 160 235 C 172 198 190 167 213 142 C 236 116 264 97 297 83 C 330 69 368 62 410 62 C 442 62 472 65 500 73 C 528 80 553 90 573 103 L 573 179 L 448 179 L 448 236 Z" unicode="Ǥ" />
<glyph horiz-adv-x="570" d="M 262 211 C 281 211 299 214 315 220 C 331 226 346 235 358 247 C 370 259 379 273 386 289 C 392 305 396 322 396 342 C 396 360 392 377 386 393 C 379 409 370 422 358 434 C 346 446 331 455 315 461 C 299 467 281 471 262 471 C 243 471 225 467 209 461 C 193 455 179 446 167 434 C 155 422 145 409 138 393 C 131 377 128 360 128 342 C 128 322 131 305 138 289 C 145 273 155 259 167 247 C 179 235 193 226 209 220 C 225 214 243 211 262 211 Z M -17 -6 L 53 -6 C 67 11 88 26 116 39 C 90 57 77 80 77 110 C 77 127 81 142 91 156 C 101 170 113 181 128 190 C 104 206 84 227 70 253 C 55 278 48 308 48 342 C 48 370 53 395 64 419 C 75 442 90 462 110 478 C 129 494 152 507 178 517 C 204 526 232 531 262 531 C 289 531 314 527 338 519 C 362 511 383 501 402 487 C 420 501 440 512 462 520 C 484 528 512 532 544 532 L 544 469 C 520 469 500 468 483 466 C 466 464 451 460 437 454 C 449 438 458 421 465 402 C 472 383 476 363 476 342 C 476 312 470 286 458 262 C 446 238 431 218 411 202 C 391 185 368 172 342 163 C 316 154 290 150 262 150 C 229 150 199 155 172 166 C 152 156 143 142 143 124 C 143 102 156 87 183 81 C 210 75 250 70 304 67 C 353 64 396 57 433 46 C 469 35 496 18 513 -6 L 574 -6 L 574 -62 L 532 -62 L 532 -68 C 532 -112 511 -147 469 -172 C 427 -197 363 -210 278 -210 C 198 -210 136 -198 93 -174 C 50 -150 29 -117 29 -73 L 29 -62 L -17 -62 L -17 -6 Z M 288 0 C 266 0 247 2 229 4 C 211 6 195 9 180 13 C 158 5 141 -5 128 -19 C 114 -33 108 -50 108 -70 C 108 -124 163 -151 274 -151 C 332 -151 377 -144 407 -132 C 437 -119 453 -100 453 -75 C 453 -48 438 -29 410 -19 C 381 -9 340 -2 288 0 Z" unicode="ǥ" />
<glyph horiz-adv-x="727" d="M 214 870 L 272 870 L 380 803 L 381 803 L 490 870 L 548 870 L 422 755 L 339 755 L 214 870 Z M 55 357 C 55 409 63 456 80 500 C 96 543 120 580 151 612 C 182 644 219 668 263 686 C 306 703 354 712 408 712 C 452 712 494 706 533 694 C 572 682 609 665 643 643 L 599 581 C 571 599 541 613 510 623 C 478 633 445 638 410 638 C 370 638 333 631 300 617 C 267 603 239 584 215 560 C 191 535 173 505 161 471 C 148 436 142 398 142 357 C 142 312 148 271 160 235 C 172 198 190 167 213 142 C 236 116 264 97 297 83 C 330 69 368 62 410 62 C 442 62 472 65 500 73 C 528 80 553 90 573 103 L 573 303 L 378 303 L 378 368 L 652 368 L 652 59 C 619 36 582 18 540 6 C 498 -5 454 -12 408 -12 C 354 -12 305 -3 261 14 C 217 32 180 57 150 89 C 119 121 95 160 79 206 C 63 251 55 301 55 357 Z" unicode="Ǧ" />
<glyph horiz-adv-x="574" d="M 124 732 L 183 732 L 291 623 L 292 623 L 400 732 L 460 732 L 336 574 L 248 574 L 124 732 Z M 265 211 C 284 211 302 214 318 220 C 334 226 349 235 361 247 C 373 259 382 273 389 289 C 395 305 399 322 399 342 C 399 360 395 377 389 393 C 382 409 373 422 361 434 C 349 446 334 455 318 461 C 302 467 284 471 265 471 C 246 471 228 467 212 461 C 196 455 182 446 170 434 C 158 422 148 409 141 393 C 134 377 131 360 131 342 C 131 322 134 305 141 289 C 148 273 158 259 170 247 C 182 235 196 226 212 220 C 228 214 246 211 265 211 Z M 32 -73 C 32 -47 40 -25 56 -6 C 72 12 93 27 119 39 C 93 57 80 80 80 110 C 80 127 84 142 94 156 C 104 170 116 181 131 190 C 107 206 87 227 73 253 C 58 278 51 308 51 342 C 51 370 56 395 67 419 C 78 442 93 462 113 478 C 132 494 155 507 181 517 C 207 526 235 531 265 531 C 292 531 317 527 341 519 C 365 511 386 501 405 487 C 423 501 443 512 465 520 C 487 528 515 532 547 532 L 547 469 C 523 469 503 468 486 466 C 469 464 454 460 440 454 C 452 438 461 421 468 402 C 475 383 479 363 479 342 C 479 312 473 286 461 262 C 449 238 434 218 414 202 C 394 185 371 172 345 163 C 319 154 293 150 265 150 C 232 150 202 155 175 166 C 155 156 146 142 146 124 C 146 102 159 87 186 81 C 213 75 253 70 307 67 C 340 65 371 61 399 56 C 427 50 451 42 471 32 C 491 22 506 8 518 -7 C 529 -23 535 -44 535 -68 C 535 -112 514 -147 472 -172 C 430 -197 366 -210 281 -210 C 201 -210 139 -198 96 -174 C 53 -150 32 -117 32 -73 Z M 291 0 C 269 0 250 2 232 4 C 214 6 198 9 183 13 C 161 5 144 -5 131 -19 C 117 -33 111 -50 111 -70 C 111 -124 166 -151 277 -151 C 335 -151 380 -144 410 -132 C 440 -119 456 -100 456 -75 C 456 -48 441 -29 413 -19 C 384 -9 343 -2 291 0 Z" unicode="ǧ" />
<glyph horiz-adv-x="670" d="M 163 870 L 221 870 L 329 803 L 330 803 L 439 870 L 497 870 L 371 755 L 288 755 L 163 870 Z M 84 700 L 169 700 L 169 309 L 508 700 L 607 700 L 379 438 L 634 0 L 534 0 L 323 374 L 169 198 L 169 0 L 84 0 L 84 700 Z" unicode="Ǩ" />
<glyph horiz-adv-x="536" d="M -44 912 L 14 912 L 122 845 L 123 845 L 232 912 L 290 912 L 164 797 L 81 797 L -44 912 Z M 81 755 L 164 755 L 164 253 L 397 519 L 491 519 L 333 344 L 515 0 L 420 0 L 278 283 L 164 157 L 164 0 L 81 0 L 81 755 Z" unicode="ǩ" />
<glyph horiz-adv-x="809" d="M 55 355 C 55 409 64 458 82 502 C 100 546 124 583 156 614 C 187 645 224 669 267 686 C 309 703 355 712 405 712 C 454 712 500 703 542 686 C 584 669 621 645 653 614 C 685 583 710 546 728 502 C 746 458 755 409 755 355 C 755 276 738 209 705 153 C 671 97 627 55 573 27 C 557 19 541 10 527 1 C 513 -7 500 -17 489 -27 C 478 -37 469 -47 463 -59 C 456 -70 453 -82 453 -96 C 453 -111 457 -123 467 -131 C 477 -139 490 -143 507 -143 C 518 -143 528 -141 537 -139 C 545 -136 553 -133 561 -129 L 564 -131 L 564 -193 C 554 -197 544 -200 533 -203 C 521 -205 509 -207 496 -207 C 464 -207 438 -198 418 -182 C 398 -165 388 -142 388 -113 C 388 -92 393 -73 404 -56 C 414 -39 428 -23 444 -9 C 432 -11 419 -12 405 -12 C 355 -12 309 -3 267 13 C 224 30 187 55 156 87 C 124 119 100 157 82 203 C 64 248 55 299 55 355 Z M 142 355 C 142 309 148 268 162 232 C 176 196 194 165 218 140 C 241 114 269 95 301 82 C 333 68 368 62 405 62 C 441 62 476 68 508 82 C 540 95 567 114 591 140 C 615 165 633 196 647 232 C 661 268 668 309 668 355 C 668 398 661 437 647 472 C 633 507 615 537 591 561 C 567 585 540 604 508 618 C 476 631 441 638 405 638 C 368 638 334 631 302 618 C 270 604 242 585 218 561 C 194 537 176 507 162 472 C 148 437 142 398 142 355 Z" unicode="Ǫ" />
<glyph horiz-adv-x="601" d="M 51 266 C 51 306 57 342 70 375 C 82 407 100 435 122 458 C 144 481 171 499 201 512 C 231 524 265 531 301 531 C 337 531 370 524 400 512 C 430 499 457 481 479 458 C 501 435 518 407 530 375 C 542 342 549 306 549 266 C 549 209 538 160 518 119 C 497 77 469 45 433 23 C 399 2 371 -17 351 -35 C 331 -53 321 -73 321 -97 C 321 -112 325 -123 335 -131 C 345 -139 358 -143 375 -143 C 397 -143 415 -138 429 -130 L 432 -132 L 432 -193 C 422 -197 412 -200 401 -203 C 389 -205 377 -207 365 -207 C 333 -207 307 -198 287 -182 C 267 -165 258 -142 258 -113 C 258 -93 263 -75 273 -58 C 283 -41 295 -25 311 -11 C 309 -11 306 -12 303 -12 C 300 -12 297 -12 295 -12 C 258 -11 225 -4 195 9 C 165 22 139 41 118 65 C 96 89 80 118 68 152 C 56 186 51 224 51 266 Z M 135 266 C 135 234 138 205 146 179 C 154 153 165 130 179 112 C 193 93 211 79 231 69 C 251 59 275 54 301 54 C 326 54 349 59 369 69 C 389 79 406 93 420 112 C 434 130 445 153 453 179 C 461 205 465 234 465 266 C 465 296 461 323 453 347 C 445 371 433 392 419 410 C 404 427 387 440 367 450 C 347 459 325 464 301 464 C 277 464 254 459 234 450 C 214 440 196 427 182 410 C 167 392 155 371 147 347 C 139 323 135 296 135 266 Z" unicode="ǫ" />
<glyph horiz-adv-x="809" d="M 257 841 L 553 841 L 553 783 L 257 783 L 257 841 Z M 55 355 C 55 409 64 458 82 502 C 100 546 124 583 156 614 C 187 645 224 669 267 686 C 309 703 355 712 405 712 C 454 712 500 703 542 686 C 584 669 621 645 653 614 C 685 583 710 546 728 502 C 746 458 755 409 755 355 C 755 276 738 209 705 153 C 671 97 627 55 573 27 C 557 19 541 10 527 1 C 513 -7 500 -17 489 -27 C 478 -37 469 -47 463 -59 C 456 -70 453 -82 453 -96 C 453 -111 457 -123 467 -131 C 477 -139 490 -143 507 -143 C 518 -143 528 -141 537 -139 C 545 -136 553 -133 561 -129 L 564 -131 L 564 -193 C 554 -197 544 -200 533 -203 C 521 -205 509 -207 496 -207 C 464 -207 438 -198 418 -182 C 398 -165 388 -142 388 -113 C 388 -92 393 -73 404 -56 C 414 -39 428 -23 444 -9 C 432 -11 419 -12 405 -12 C 355 -12 309 -3 267 13 C 224 30 187 55 156 87 C 124 119 100 157 82 203 C 64 248 55 299 55 355 Z M 142 355 C 142 309 148 268 162 232 C 176 196 194 165 218 140 C 241 114 269 95 301 82 C 333 68 368 62 405 62 C 441 62 476 68 508 82 C 540 95 567 114 591 140 C 615 165 633 196 647 232 C 661 268 668 309 668 355 C 668 398 661 437 647 472 C 633 507 615 537 591 561 C 567 585 540 604 508 618 C 476 631 441 638 405 638 C 368 638 334 631 302 618 C 270 604 242 585 218 561 C 194 537 176 507 162 472 C 148 437 142 398 142 355 Z" unicode="Ǭ" />
<glyph horiz-adv-x="601" d="M 153 682 L 447 682 L 447 624 L 153 624 L 153 682 Z M 51 266 C 51 306 57 342 70 375 C 82 407 100 435 122 458 C 144 481 171 499 201 512 C 231 524 265 531 301 531 C 337 531 370 524 400 512 C 430 499 457 481 479 458 C 501 435 518 407 530 375 C 542 342 549 306 549 266 C 549 209 538 160 518 119 C 497 77 469 45 433 23 C 399 2 371 -17 351 -35 C 331 -53 321 -73 321 -97 C 321 -112 325 -123 335 -131 C 345 -139 358 -143 375 -143 C 397 -143 415 -138 429 -130 L 432 -132 L 432 -193 C 422 -197 412 -200 401 -203 C 389 -205 377 -207 365 -207 C 333 -207 307 -198 287 -182 C 267 -165 258 -142 258 -113 C 258 -93 263 -75 273 -58 C 283 -41 295 -25 311 -11 C 309 -11 306 -12 303 -12 C 300 -12 297 -12 295 -12 C 258 -11 225 -4 195 9 C 165 22 139 41 118 65 C 96 89 80 118 68 152 C 56 186 51 224 51 266 Z M 135 266 C 135 234 138 205 146 179 C 154 153 165 130 179 112 C 193 93 211 79 231 69 C 251 59 275 54 301 54 C 326 54 349 59 369 69 C 389 79 406 93 420 112 C 434 130 445 153 453 179 C 461 205 465 234 465 266 C 465 296 461 323 453 347 C 445 371 433 392 419 410 C 404 427 387 440 367 450 C 347 459 325 464 301 464 C 277 464 254 459 234 450 C 214 440 196 427 182 410 C 167 392 155 371 147 347 C 139 323 135 296 135 266 Z" unicode="ǭ" />
<glyph horiz-adv-x="630" d="M 141 870 L 199 870 L 307 803 L 308 803 L 417 870 L 475 870 L 349 755 L 266 755 L 141 870 Z M 445 622 L 38 622 L 38 700 L 569 700 L 569 635 L 234 302 C 247 305 262 308 280 310 C 297 312 313 314 329 314 C 370 314 407 307 441 295 C 474 283 502 265 526 243 C 550 220 568 193 581 162 C 593 130 600 96 600 59 C 600 14 591 -24 574 -58 C 556 -92 533 -120 503 -142 C 473 -164 439 -181 399 -193 C 359 -204 317 -210 273 -210 C 229 -210 187 -205 148 -196 C 108 -187 73 -175 41 -160 L 72 -94 C 100 -107 130 -118 163 -126 C 196 -134 232 -139 271 -139 C 305 -139 336 -134 366 -126 C 395 -117 420 -104 442 -88 C 464 -71 481 -50 493 -25 C 505 0 512 28 512 61 C 512 122 492 169 452 202 C 412 234 357 251 287 251 C 267 251 245 249 223 247 C 200 244 179 241 161 237 L 124 297 L 445 622 Z" unicode="Ǯ" />
<glyph horiz-adv-x="508" d="M 82 733 L 141 733 L 249 624 L 250 624 L 358 733 L 418 733 L 294 575 L 206 575 L 82 733 Z M 349 451 L 41 451 L 41 519 L 451 519 L 451 461 L 204 205 C 215 206 227 207 239 209 C 251 210 263 211 275 211 C 306 211 334 206 360 197 C 385 187 407 174 425 157 C 443 139 457 118 467 94 C 477 69 482 42 482 12 C 482 -23 475 -54 462 -82 C 448 -110 430 -133 406 -152 C 382 -170 355 -184 323 -194 C 291 -204 257 -209 221 -209 C 185 -209 150 -204 117 -196 C 83 -188 55 -177 32 -165 L 60 -101 C 81 -112 105 -121 133 -129 C 160 -137 189 -141 219 -141 C 272 -141 315 -127 349 -100 C 383 -72 400 -34 400 14 C 400 63 384 99 354 121 C 323 143 283 155 233 155 C 217 155 201 154 184 153 C 167 151 151 149 137 147 L 108 198 L 349 451 Z" unicode="ǯ" />
<glyph horiz-adv-x="253" d="M -36 732 L 23 732 L 131 623 L 132 623 L 240 732 L 300 732 L 176 574 L 88 574 L -36 732 Z M 90 516 L 172 516 L 172 -25 C 172 -91 157 -139 129 -167 C 100 -195 62 -210 15 -210 C 1 -210 -11 -208 -23 -206 C -35 -204 -44 -201 -52 -199 L -36 -134 C -29 -136 -22 -137 -15 -139 C -7 -140 0 -141 7 -141 C 32 -141 52 -132 67 -116 C 82 -99 90 -70 90 -28 L 90 516 Z" unicode="ǰ" />
<glyph horiz-adv-x="727" d="M 451 889 L 517 843 L 402 755 L 339 755 L 451 889 Z M 55 357 C 55 409 63 456 80 500 C 96 543 120 580 151 612 C 182 644 219 668 263 686 C 306 703 354 712 408 712 C 452 712 494 706 533 694 C 572 682 609 665 643 643 L 599 581 C 571 599 541 613 510 623 C 478 633 445 638 410 638 C 370 638 333 631 300 617 C 267 603 239 584 215 560 C 191 535 173 505 161 471 C 148 436 142 398 142 357 C 142 312 148 271 160 235 C 172 198 190 167 213 142 C 236 116 264 97 297 83 C 330 69 368 62 410 62 C 442 62 472 65 500 73 C 528 80 553 90 573 103 L 573 303 L 378 303 L 378 368 L 652 368 L 652 59 C 619 36 582 18 540 6 C 498 -5 454 -12 408 -12 C 354 -12 305 -3 261 14 C 217 32 180 57 150 89 C 119 121 95 160 79 206 C 63 251 55 301 55 357 Z" unicode="Ǵ" />
<glyph horiz-adv-x="574" d="M 379 751 L 438 706 L 297 574 L 240 574 L 379 751 Z M 265 211 C 284 211 302 214 318 220 C 334 226 349 235 361 247 C 373 259 382 273 389 289 C 395 305 399 322 399 342 C 399 360 395 377 389 393 C 382 409 373 422 361 434 C 349 446 334 455 318 461 C 302 467 284 471 265 471 C 246 471 228 467 212 461 C 196 455 182 446 170 434 C 158 422 148 409 141 393 C 134 377 131 360 131 342 C 131 322 134 305 141 289 C 148 273 158 259 170 247 C 182 235 196 226 212 220 C 228 214 246 211 265 211 Z M 32 -73 C 32 -47 40 -25 56 -6 C 72 12 93 27 119 39 C 93 57 80 80 80 110 C 80 127 84 142 94 156 C 104 170 116 181 131 190 C 107 206 87 227 73 253 C 58 278 51 308 51 342 C 51 370 56 395 67 419 C 78 442 93 462 113 478 C 132 494 155 507 181 517 C 207 526 235 531 265 531 C 292 531 317 527 341 519 C 365 511 386 501 405 487 C 423 501 443 512 465 520 C 487 528 515 532 547 532 L 547 469 C 523 469 503 468 486 466 C 469 464 454 460 440 454 C 452 438 461 421 468 402 C 475 383 479 363 479 342 C 479 312 473 286 461 262 C 449 238 434 218 414 202 C 394 185 371 172 345 163 C 319 154 293 150 265 150 C 232 150 202 155 175 166 C 155 156 146 142 146 124 C 146 102 159 87 186 81 C 213 75 253 70 307 67 C 340 65 371 61 399 56 C 427 50 451 42 471 32 C 491 22 506 8 518 -7 C 529 -23 535 -44 535 -68 C 535 -112 514 -147 472 -172 C 430 -197 366 -210 281 -210 C 201 -210 139 -198 96 -174 C 53 -150 32 -117 32 -73 Z M 291 0 C 269 0 250 2 232 4 C 214 6 198 9 183 13 C 161 5 144 -5 131 -19 C 117 -33 111 -50 111 -70 C 111 -124 166 -151 277 -151 C 335 -151 380 -144 410 -132 C 440 -119 456 -100 456 -75 C 456 -48 441 -29 413 -19 C 384 -9 343 -2 291 0 Z" unicode="ǵ" />
<glyph horiz-adv-x="692" d="M 416 1025 L 482 979 L 367 891 L 304 891 L 416 1025 Z M 346 700 C 364 700 379 706 391 719 C 403 731 410 747 410 765 C 410 783 403 799 391 811 C 379 823 364 830 346 830 C 328 830 312 823 300 811 C 287 799 281 783 281 765 C 281 747 287 731 300 719 C 312 706 328 700 346 700 Z M 210 241 L 481 241 L 346 613 L 344 613 L 210 241 Z M 287 680 C 273 689 261 701 253 715 C 245 729 241 746 241 765 C 241 779 243 793 249 805 C 255 817 262 828 272 838 C 281 847 292 854 305 860 C 317 865 331 868 346 868 C 360 868 374 865 387 860 C 399 854 410 847 420 838 C 430 828 437 817 443 805 C 448 793 451 779 451 765 C 451 746 446 729 438 715 C 429 701 418 689 404 680 L 661 0 L 569 0 L 506 172 L 185 172 L 123 0 L 30 0 L 287 680 Z" unicode="Ǻ" />
<glyph horiz-adv-x="530" d="M 362 977 L 421 932 L 280 800 L 223 800 L 362 977 Z M 271 567 C 241 567 216 576 196 596 C 176 615 166 639 166 669 C 166 698 176 722 196 742 C 216 761 241 771 271 771 C 300 771 325 761 345 742 C 365 722 376 698 376 669 C 376 639 365 615 345 596 C 325 576 300 567 271 567 Z M 271 603 C 289 603 304 609 317 622 C 329 635 336 651 336 669 C 336 687 329 703 317 715 C 304 727 289 734 271 734 C 253 734 237 727 225 715 C 212 703 206 687 206 669 C 206 651 212 635 225 622 C 237 609 253 603 271 603 Z M 131 126 C 131 103 139 85 155 72 C 171 58 192 52 219 52 C 251 52 279 58 303 71 C 327 84 347 100 361 118 L 361 244 C 335 242 308 240 281 236 C 253 232 229 226 207 218 C 185 209 166 197 152 183 C 138 168 131 149 131 126 Z M 49 120 C 49 152 57 179 75 201 C 93 223 116 240 145 254 C 174 268 207 278 245 284 C 282 290 321 295 361 297 L 361 373 C 361 399 353 420 337 437 C 321 453 296 462 260 462 C 232 462 204 457 176 448 C 148 438 121 427 96 414 L 64 480 C 92 493 123 505 158 515 C 193 525 228 531 262 531 C 294 531 321 527 344 519 C 367 511 386 500 401 486 C 415 472 426 455 433 436 C 440 416 444 395 444 372 L 444 113 C 444 95 448 81 458 73 C 467 64 480 60 496 60 L 496 -1 C 459 -1 431 4 413 14 C 394 24 380 41 371 64 C 351 42 326 23 298 9 C 270 -4 237 -12 201 -12 C 155 -12 118 0 90 24 C 62 48 49 80 49 120 Z" unicode="ǻ" />
<glyph horiz-adv-x="1034" d="M 564 889 L 630 843 L 515 755 L 452 755 L 564 889 Z M 231 243 L 511 243 L 405 624 L 400 624 L 231 243 Z M 348 700 L 963 700 L 963 624 L 490 624 L 557 393 L 924 393 L 924 320 L 578 320 L 649 76 L 970 76 L 970 0 L 579 0 L 531 172 L 199 172 L 123 0 L 27 0 L 348 700 Z" unicode="Ǽ" />
</font>
</defs>
</svg>
