<?xml version="1.0" encoding="utf-8" ?><svg version="1.1" xmlns = 'http://www.w3.org/2000/svg'><defs><font id='web' horiz-adv-x="1000">
<font-face font-family="web" descent="-240" cap-height="700" units-per-em="1000" bbox="-103,-361,1502,1022" x-height="511" ascent="760" />
<missing-glyph horiz-adv-x="900" d="M 200 755 L 700 755 L 700 -237 L 200 -237 L 200 755 Z M 245 716 L 450 302 L 655 716 L 245 716 Z M 239 637 L 239 -118 L 426 258 L 239 637 Z M 661 -118 L 661 636 L 474 258 L 661 -118 Z M 655 -198 L 450 215 L 245 -198 L 655 -198 Z" /><glyph horiz-adv-x="255" d="" unicode=" " />
<glyph horiz-adv-x="242" d="M 90 477 L 90 700 L 151 700 L 151 477 L 136 202 L 105 202 L 90 477 Z M 91 99 L 151 99 L 151 0 L 91 0 L 91 99 Z" unicode="!" />
<glyph horiz-adv-x="390" d="M 256 700 L 320 700 L 291 462 L 256 464 L 256 700 Z M 72 700 L 136 700 L 107 462 L 72 464 L 72 700 Z" unicode="&#x22;" />
<glyph horiz-adv-x="716" d="M 246 239 L 434 239 L 471 464 L 283 464 L 246 239 Z M 78 508 L 242 508 L 274 700 L 323 700 L 291 508 L 479 508 L 511 700 L 559 700 L 527 508 L 678 508 L 678 464 L 519 464 L 482 239 L 637 239 L 637 195 L 474 195 L 442 0 L 394 0 L 426 195 L 238 195 L 206 0 L 158 0 L 190 195 L 38 195 L 38 239 L 198 239 L 235 464 L 78 464 L 78 508 Z" unicode="#" />
<glyph horiz-adv-x="612" d="M 126 528 C 126 504 130 484 140 468 C 149 452 161 439 177 428 C 193 417 211 408 232 402 C 252 395 274 389 297 383 L 297 662 C 242 660 200 647 170 622 C 140 596 126 565 126 528 Z M 498 176 C 498 199 493 218 484 234 C 475 250 463 263 448 274 C 432 284 414 293 394 300 C 374 307 353 313 331 319 L 331 38 C 388 41 430 55 457 81 C 484 106 498 138 498 176 Z M 88 103 C 112 87 142 72 178 59 C 214 46 253 39 297 38 L 297 328 C 269 334 241 342 214 350 C 186 358 162 370 141 384 C 119 398 102 417 89 440 C 75 462 69 491 69 527 C 69 552 74 576 84 598 C 94 620 108 640 128 656 C 147 672 171 686 199 696 C 227 706 259 711 295 712 L 295 804 L 334 804 L 334 711 C 374 709 409 703 441 694 C 473 684 501 674 526 662 L 502 614 C 480 625 454 635 426 644 C 397 652 365 658 331 661 L 331 375 C 358 368 385 361 412 353 C 439 345 463 333 484 319 C 505 305 522 286 535 264 C 548 241 555 212 555 177 C 555 151 550 127 541 105 C 532 83 518 63 500 47 C 482 30 459 17 431 7 C 403 -3 370 -9 333 -11 L 333 -133 L 295 -133 L 295 -12 C 245 -10 200 -3 159 10 C 117 24 84 40 59 58 L 88 103 Z" unicode="$" />
<glyph horiz-adv-x="804" d="M 219 400 C 198 400 178 403 159 411 C 139 418 122 428 108 442 C 93 455 81 471 73 491 C 64 510 60 532 60 556 C 60 580 64 601 73 620 C 81 639 93 655 108 669 C 122 682 139 692 158 700 C 176 707 196 711 217 711 C 237 711 257 707 276 700 C 295 692 312 682 326 669 C 340 655 352 639 361 620 C 369 601 374 580 374 556 C 374 532 369 510 361 491 C 353 471 341 455 327 442 C 313 428 296 418 278 411 C 259 403 239 400 219 400 Z M 618 700 L 666 700 L 186 0 L 138 0 L 618 700 Z M 219 439 C 249 439 275 449 297 470 C 319 490 330 519 330 556 C 330 574 327 590 321 604 C 315 618 306 631 296 641 C 285 651 273 659 260 665 C 246 671 232 674 217 674 C 202 674 188 671 174 665 C 160 659 148 651 138 641 C 127 631 119 618 113 604 C 107 590 104 574 104 556 C 104 538 107 521 113 507 C 119 492 128 480 138 470 C 148 460 161 452 175 447 C 189 441 203 439 219 439 Z M 589 -11 C 568 -11 548 -7 529 0 C 509 6 492 16 478 30 C 463 44 451 60 443 79 C 434 98 430 120 430 144 C 430 168 434 189 443 208 C 451 227 463 243 478 257 C 492 271 509 281 528 289 C 547 296 567 300 588 300 C 608 300 628 296 647 289 C 665 281 682 271 696 257 C 710 243 722 227 731 208 C 739 189 744 168 744 144 C 744 120 739 98 731 79 C 723 60 711 44 697 30 C 683 16 666 6 648 0 C 629 -7 609 -11 589 -11 Z M 589 27 C 619 27 645 37 667 58 C 689 78 700 107 700 144 C 700 162 697 178 691 193 C 685 207 676 220 666 230 C 656 240 644 247 631 253 C 617 259 603 262 588 262 C 573 262 559 259 545 253 C 531 247 519 240 509 230 C 498 220 490 207 484 193 C 478 178 475 162 475 144 C 475 126 478 109 484 95 C 490 80 498 68 509 58 C 519 48 531 40 545 35 C 559 29 573 27 589 27 Z" unicode="%" />
<glyph horiz-adv-x="742" d="M 501 130 C 453 167 405 206 359 246 C 312 286 268 330 226 376 C 190 356 160 330 136 300 C 112 270 100 235 100 195 C 100 174 104 154 112 135 C 120 115 131 98 147 84 C 162 69 181 57 205 49 C 228 40 255 36 286 36 C 328 36 367 44 404 61 C 440 77 473 100 501 130 Z M 47 192 C 47 216 51 238 59 260 C 67 281 77 301 91 319 C 104 337 120 354 139 369 C 157 384 177 397 198 409 C 162 457 144 504 144 550 C 144 572 148 592 156 612 C 164 631 176 648 192 663 C 207 678 225 690 247 699 C 269 707 293 712 319 712 C 357 712 389 705 417 691 C 445 677 468 660 486 639 L 450 607 C 434 624 416 638 394 649 C 372 660 346 666 318 666 C 299 666 282 662 268 656 C 253 650 240 641 230 631 C 220 620 212 608 207 594 C 201 580 199 566 199 551 C 199 508 220 461 264 410 C 304 365 346 323 391 284 C 436 245 483 207 533 170 C 550 194 563 221 573 251 C 582 280 587 311 587 343 L 638 343 C 638 305 632 269 621 235 C 609 201 593 169 573 140 C 596 122 619 105 643 89 C 666 73 690 56 715 39 L 683 -2 C 659 14 636 31 612 48 C 588 65 565 82 541 100 C 509 66 471 38 427 18 C 383 -1 335 -12 284 -12 C 245 -12 211 -6 181 5 C 151 16 127 31 107 50 C 87 69 72 91 62 116 C 52 140 47 166 47 192 Z" unicode="&#x26;" />
<glyph horiz-adv-x="206" d="M 72 700 L 136 700 L 107 462 L 72 464 L 72 700 Z" unicode="'" />
<glyph horiz-adv-x="366" d="M 63 277 C 63 329 68 378 78 424 C 88 470 102 512 120 552 C 138 591 158 628 181 662 C 204 696 228 727 254 755 L 318 755 C 292 729 268 700 244 667 C 220 634 198 598 179 558 C 160 518 145 474 134 428 C 122 381 117 331 117 277 C 117 223 122 173 134 127 C 145 80 160 37 179 -2 C 198 -42 220 -78 244 -111 C 268 -144 292 -174 318 -200 L 254 -200 C 228 -171 204 -140 181 -106 C 158 -72 138 -36 120 3 C 102 42 88 84 78 130 C 68 176 63 225 63 277 Z" unicode="(" />
<glyph horiz-adv-x="366" d="M 303 277 C 303 225 297 176 287 130 C 277 84 263 42 246 3 C 228 -36 208 -72 185 -106 C 161 -140 137 -171 112 -200 L 48 -200 C 73 -174 98 -144 122 -111 C 146 -78 167 -42 186 -2 C 205 37 220 80 232 127 C 243 173 249 223 249 277 C 249 331 243 381 232 428 C 220 474 205 518 186 558 C 167 598 146 634 122 667 C 98 700 73 729 48 755 L 112 755 C 137 727 161 696 184 662 C 207 628 227 591 245 552 C 263 512 277 470 287 424 C 297 378 303 329 303 277 Z" unicode=")" />
<glyph horiz-adv-x="419" d="M 193 538 L 191 540 L 49 525 L 49 576 L 191 568 L 192 570 L 136 699 L 182 713 L 220 579 L 222 578 L 329 669 L 358 630 L 240 555 L 240 553 L 362 480 L 332 440 L 223 528 L 221 527 L 186 388 L 141 403 L 193 538 Z" unicode="*" />
<glyph horiz-adv-x="613" d="M 51 376 L 280 376 L 280 606 L 333 606 L 333 376 L 562 376 L 562 326 L 333 326 L 333 95 L 280 95 L 280 326 L 51 326 L 51 376 Z" unicode="+" />
<glyph horiz-adv-x="207" d="M 73 104 L 134 104 L 134 11 C 134 -29 127 -60 114 -82 C 100 -104 79 -121 51 -135 L 35 -108 C 56 -96 71 -82 80 -65 C 88 -47 93 -26 93 0 L 73 0 L 73 104 Z" unicode="," />
<glyph horiz-adv-x="373" d="M 47 284 L 327 284 L 327 234 L 47 234 L 47 284 Z" unicode="-" />
<glyph horiz-adv-x="207" d="M 73 104 L 134 104 L 134 0 L 73 0 L 73 104 Z" unicode="." />
<glyph horiz-adv-x="482" d="M 436 755 L 493 755 L 47 -200 L -10 -200 L 436 755 Z" unicode="/" />
<glyph horiz-adv-x="620" d="M 62 367 C 62 485 82 572 124 628 C 165 684 227 712 310 712 C 392 712 454 684 496 628 C 537 572 558 485 558 367 L 558 339 C 558 221 537 134 496 78 C 455 22 393 -6 311 -6 C 228 -6 166 22 124 78 C 82 134 62 221 62 339 L 62 367 Z M 503 367 C 503 469 487 544 455 592 C 423 640 375 664 310 664 C 244 664 196 640 164 592 C 132 544 117 469 117 367 L 117 339 C 117 235 133 160 165 113 C 197 65 245 42 311 42 C 376 42 424 65 456 113 C 487 160 503 235 503 339 L 503 367 Z" unicode="0" />
<glyph horiz-adv-x="620" d="M 104 47 L 309 47 L 309 641 L 116 554 L 93 597 L 319 700 L 365 700 L 365 47 L 558 47 L 558 0 L 104 0 L 104 47 Z" unicode="1" />
<glyph horiz-adv-x="620" d="M 75 30 C 73 89 83 137 104 174 C 124 211 150 242 182 266 C 213 290 247 309 284 325 C 321 340 356 356 388 373 C 420 389 446 409 468 431 C 489 453 500 482 500 520 C 500 540 496 558 488 576 C 480 593 468 608 453 621 C 437 634 418 644 395 652 C 372 659 346 663 316 663 C 276 663 238 655 204 639 C 169 623 139 604 115 580 L 78 616 C 106 644 142 667 185 685 C 227 703 271 712 317 712 C 355 712 389 707 419 697 C 449 687 474 673 494 656 C 514 638 529 618 539 595 C 549 572 555 547 555 521 C 555 477 544 441 523 415 C 502 389 476 366 444 348 C 412 329 378 312 341 298 C 304 283 270 265 239 245 C 207 224 181 198 161 168 C 140 138 130 98 131 48 L 558 48 L 558 0 L 75 0 L 75 30 Z" unicode="2" />
<glyph horiz-adv-x="620" d="M 94 76 C 116 65 142 56 173 48 C 203 40 237 36 273 36 C 307 36 338 39 367 47 C 396 55 421 66 443 80 C 464 94 481 112 493 133 C 505 153 511 177 511 204 C 511 228 505 249 494 267 C 483 284 468 298 450 309 C 431 320 410 328 386 334 C 362 339 338 342 313 342 L 222 342 L 222 388 L 311 388 C 333 388 354 390 375 396 C 395 402 414 411 430 423 C 446 435 458 450 468 468 C 478 486 483 507 483 531 C 483 549 478 567 470 583 C 461 599 449 614 433 626 C 417 638 397 647 374 654 C 351 661 325 665 296 665 C 259 665 223 657 189 642 C 155 626 126 607 103 584 L 70 621 C 98 647 132 669 172 686 C 212 703 254 712 298 712 C 334 712 366 707 396 698 C 426 689 451 677 472 661 C 493 645 509 626 521 604 C 533 582 539 559 539 534 C 539 492 526 456 501 428 C 476 400 442 380 399 370 C 451 360 493 341 523 312 C 553 283 568 246 568 202 C 568 167 560 136 545 110 C 529 83 508 61 482 43 C 456 25 425 11 389 2 C 353 -7 315 -12 274 -12 C 234 -12 196 -7 162 1 C 127 9 97 19 72 31 L 94 76 Z" unicode="3" />
<glyph horiz-adv-x="620" d="M 43 206 L 418 700 L 483 700 L 483 204 L 600 204 L 600 158 L 483 158 L 483 0 L 428 0 L 428 158 L 60 158 L 43 206 Z M 428 204 L 428 640 L 99 204 L 428 204 Z" unicode="4" />
<glyph horiz-adv-x="620" d="M 93 78 C 115 66 140 56 170 48 C 199 40 232 36 268 36 C 300 36 331 40 359 49 C 387 57 411 70 431 86 C 451 102 467 121 479 144 C 490 166 496 192 496 221 C 496 246 491 269 481 289 C 471 309 458 327 440 342 C 422 357 400 369 375 377 C 350 385 322 389 291 389 C 269 389 246 386 221 381 C 195 375 169 368 143 359 L 106 382 L 119 700 L 510 700 L 510 653 L 168 653 L 159 405 C 182 414 206 421 231 427 C 255 432 279 435 302 435 C 338 435 372 430 403 420 C 433 410 460 395 482 377 C 504 358 522 335 534 309 C 546 283 553 253 553 221 C 553 184 545 151 531 122 C 516 93 496 69 470 49 C 444 29 414 13 380 3 C 345 -7 307 -13 267 -13 C 226 -13 189 -8 157 0 C 124 8 96 19 72 32 L 93 78 Z" unicode="5" />
<glyph horiz-adv-x="620" d="M 56 327 C 56 397 64 456 82 505 C 100 554 123 594 152 625 C 180 655 213 677 250 691 C 286 705 324 712 363 712 C 396 712 426 709 454 703 C 481 697 506 689 530 679 L 508 635 C 488 643 467 649 443 655 C 419 661 393 664 363 664 C 330 664 298 657 268 645 C 238 633 211 613 188 587 C 165 560 147 526 133 484 C 119 442 112 392 112 334 C 137 362 170 385 211 405 C 251 424 294 434 339 434 C 372 434 403 428 432 418 C 460 408 485 393 506 374 C 526 355 542 332 554 305 C 566 278 572 248 572 215 C 572 185 566 156 556 129 C 545 101 529 77 508 56 C 487 35 462 18 432 6 C 402 -5 367 -12 328 -12 C 279 -12 237 -3 203 15 C 169 33 141 57 119 88 C 97 118 81 154 71 196 C 61 237 56 281 56 327 Z M 113 286 C 115 250 120 216 130 186 C 140 156 153 129 171 107 C 189 84 211 66 237 54 C 263 41 293 35 329 35 C 359 35 385 40 409 50 C 432 60 452 73 468 89 C 484 105 497 124 505 146 C 513 168 518 191 518 215 C 518 241 513 264 504 286 C 494 307 481 325 465 340 C 448 355 428 367 406 375 C 383 383 358 388 332 388 C 310 388 288 385 267 380 C 245 374 225 367 206 358 C 186 348 169 337 153 325 C 137 313 123 300 113 286 Z" unicode="6" />
<glyph horiz-adv-x="620" d="M 502 652 L 64 652 L 64 700 L 561 700 L 561 660 L 246 0 L 184 0 L 502 652 Z" unicode="7" />
<glyph horiz-adv-x="620" d="M 42 179 C 42 204 47 227 57 247 C 67 267 81 285 99 301 C 116 317 136 330 160 340 C 183 350 208 358 235 364 C 212 368 191 375 172 385 C 152 394 135 406 121 420 C 107 434 96 450 88 468 C 80 486 76 506 76 528 C 76 556 82 581 94 604 C 106 626 122 646 143 662 C 164 678 189 690 217 699 C 245 707 276 712 310 712 C 343 712 374 707 403 699 C 431 690 456 678 477 662 C 498 646 515 626 527 604 C 539 581 545 556 545 528 C 545 506 541 486 533 468 C 525 450 513 434 499 420 C 485 406 468 394 448 385 C 428 375 407 368 385 364 C 411 358 436 350 460 340 C 483 330 503 317 521 301 C 539 285 553 267 563 247 C 573 227 578 204 578 179 C 578 149 571 122 558 98 C 544 74 526 54 502 38 C 478 22 449 9 417 1 C 384 -7 348 -12 310 -12 C 271 -12 235 -7 203 1 C 170 9 142 22 118 38 C 94 54 75 74 62 98 C 48 122 42 149 42 179 Z M 309 385 C 335 387 359 392 381 400 C 403 407 423 417 439 429 C 455 441 468 455 477 472 C 486 488 491 507 491 528 C 491 548 486 567 477 584 C 467 601 454 616 438 628 C 422 640 403 649 381 656 C 359 662 335 666 310 666 C 284 666 261 662 239 656 C 217 649 197 640 181 628 C 165 616 152 601 143 584 C 133 567 129 548 129 528 C 129 507 133 488 142 472 C 151 455 164 441 180 429 C 196 417 215 407 237 400 C 259 392 283 387 309 385 Z M 97 180 C 97 157 102 137 113 119 C 123 101 138 85 157 73 C 176 60 199 50 225 44 C 251 37 279 34 310 34 C 340 34 369 37 395 44 C 421 50 444 60 463 73 C 482 85 497 101 508 119 C 518 137 524 157 524 180 C 524 204 518 225 506 243 C 494 261 478 277 458 291 C 438 304 416 315 390 323 C 364 331 338 336 310 339 C 282 336 256 331 230 323 C 204 315 182 304 162 291 C 142 277 127 261 115 243 C 103 225 97 204 97 180 Z" unicode="8" />
<glyph horiz-adv-x="620" d="M 294 312 C 316 312 337 314 359 320 C 380 325 400 332 419 342 C 438 351 456 362 472 374 C 488 386 501 400 511 414 C 509 449 503 482 493 513 C 483 543 470 570 453 593 C 435 615 414 633 388 646 C 362 658 332 665 298 665 C 268 665 241 660 218 650 C 194 640 175 626 159 610 C 143 594 130 575 122 553 C 114 531 110 509 110 485 C 110 459 114 435 124 414 C 133 392 146 374 162 359 C 178 344 198 332 221 324 C 243 316 268 312 294 312 Z M 113 76 C 130 65 151 56 177 48 C 202 40 231 36 263 36 C 295 36 326 42 356 54 C 386 66 412 85 435 111 C 457 137 476 171 490 213 C 504 255 511 305 512 365 C 499 351 484 338 468 326 C 451 314 433 303 414 294 C 394 285 374 278 353 273 C 331 268 310 266 288 266 C 254 266 223 271 195 281 C 167 291 142 306 122 325 C 101 344 85 367 73 394 C 61 421 56 451 56 485 C 56 515 61 543 72 571 C 82 598 98 622 119 643 C 139 664 165 681 195 693 C 225 705 260 712 299 712 C 347 712 388 703 422 685 C 456 667 484 642 506 612 C 528 581 544 545 554 504 C 564 462 569 419 569 373 C 569 303 560 243 543 194 C 525 145 502 105 474 75 C 445 44 412 22 376 8 C 339 -5 301 -12 263 -12 C 228 -12 195 -7 165 1 C 135 10 109 21 87 34 L 113 76 Z" unicode="9" />
<glyph horiz-adv-x="207" d="M 73 511 L 134 511 L 134 407 L 73 407 L 73 511 Z M 73 104 L 134 104 L 134 0 L 73 0 L 73 104 Z" unicode=":" />
<glyph horiz-adv-x="207" d="M 73 511 L 134 511 L 134 407 L 73 407 L 73 511 Z M 73 104 L 134 104 L 134 11 C 134 -29 127 -60 114 -82 C 100 -104 79 -121 51 -135 L 35 -108 C 56 -96 71 -82 80 -65 C 88 -47 93 -26 93 0 L 73 0 L 73 104 Z" unicode=";" />
<glyph horiz-adv-x="624" d="M 561 92 L 45 323 L 45 377 L 561 609 L 561 549 L 108 351 L 561 151 L 561 92 Z" unicode="&#x3C;" />
<glyph horiz-adv-x="613" d="M 51 496 L 562 496 L 562 446 L 51 446 L 51 496 Z M 51 256 L 562 256 L 562 206 L 51 206 L 51 256 Z" unicode="=" />
<glyph horiz-adv-x="624" d="M 49 151 L 502 351 L 49 549 L 49 609 L 565 377 L 565 323 L 49 92 L 49 151 Z" unicode="&#x3E;" />
<glyph horiz-adv-x="510" d="M 192 202 C 191 202 191 205 191 209 C 191 213 191 216 191 218 C 191 248 196 274 206 295 C 216 315 229 333 245 348 C 260 363 277 377 295 389 C 313 401 329 413 345 427 C 360 440 373 455 383 472 C 393 488 399 509 399 535 C 399 553 395 570 387 586 C 379 602 369 615 355 627 C 341 638 325 647 306 654 C 286 660 265 664 241 664 C 207 664 177 657 150 643 C 123 629 99 612 79 591 L 42 625 C 67 651 96 672 129 688 C 161 704 199 712 241 712 C 273 712 303 707 329 699 C 355 690 378 678 397 663 C 415 647 430 629 440 607 C 450 585 455 562 455 537 C 455 507 449 481 439 461 C 428 440 415 422 399 407 C 383 391 365 377 346 365 C 327 352 310 339 294 325 C 278 311 264 295 253 277 C 242 259 237 238 237 213 L 237 202 L 192 202 Z M 185 99 L 245 99 L 245 0 L 185 0 L 185 99 Z" unicode="?" />
<glyph horiz-adv-x="838" d="M 69 279 C 69 329 78 376 97 420 C 116 464 142 502 175 535 C 208 568 247 594 291 613 C 335 632 382 642 433 642 C 483 642 528 633 570 617 C 611 601 646 578 676 549 C 706 520 729 486 745 446 C 761 406 770 363 770 317 C 770 278 764 244 753 214 C 742 184 728 158 710 138 C 692 118 671 102 649 92 C 626 81 603 76 580 76 C 549 76 526 84 510 101 C 494 117 486 137 485 161 C 470 140 452 123 430 110 C 408 96 383 90 356 90 C 322 90 294 101 273 125 C 251 149 241 181 241 223 C 241 251 245 279 255 309 C 264 338 277 365 295 389 C 312 413 333 433 359 449 C 385 465 414 473 447 473 C 471 473 491 467 508 457 C 524 446 537 434 547 422 L 560 463 L 600 463 L 530 216 C 520 184 520 158 529 139 C 538 119 557 110 585 110 C 603 110 621 114 639 124 C 657 133 673 146 687 164 C 701 182 713 203 722 229 C 730 255 735 284 735 317 C 735 359 727 398 713 434 C 698 469 677 499 651 525 C 624 551 592 571 555 585 C 518 599 477 606 433 606 C 387 606 345 597 305 580 C 265 563 230 540 200 510 C 170 480 147 446 130 406 C 112 366 104 324 104 279 C 104 234 112 192 130 152 C 147 112 170 78 200 48 C 230 18 265 -4 305 -22 C 345 -39 387 -48 433 -48 C 464 -48 494 -43 522 -35 C 550 -27 577 -15 603 0 L 623 -30 C 595 -47 565 -60 533 -69 C 501 -78 467 -83 433 -83 C 382 -83 335 -73 291 -54 C 247 -35 208 -9 175 23 C 142 55 116 94 97 138 C 78 182 69 229 69 279 Z M 286 225 C 286 195 292 171 306 153 C 320 135 339 127 365 127 C 391 127 416 136 440 154 C 464 172 481 199 492 237 L 536 390 C 528 401 517 411 503 421 C 489 430 470 435 448 435 C 422 435 400 428 380 414 C 360 400 343 383 329 363 C 315 342 304 319 297 295 C 289 270 286 247 286 225 Z" unicode="@" />
<glyph horiz-adv-x="678" d="M 185 236 L 493 236 L 340 646 L 338 646 L 185 236 Z M 304 700 L 375 700 L 643 0 L 581 0 L 510 189 L 167 189 L 97 0 L 35 0 L 304 700 Z" unicode="A" />
<glyph horiz-adv-x="672" d="M 90 700 L 358 700 C 396 700 430 695 458 686 C 486 676 509 663 527 647 C 545 631 559 612 568 590 C 577 568 582 546 582 522 C 582 479 570 444 547 417 C 524 390 495 371 460 361 C 504 351 540 332 568 304 C 596 276 610 239 610 193 C 610 131 590 83 550 50 C 510 16 454 0 382 0 L 90 0 L 90 700 Z M 356 380 C 385 380 410 383 431 391 C 452 398 469 408 483 421 C 497 433 507 448 514 465 C 520 482 524 500 524 519 C 524 537 520 554 514 570 C 507 586 497 600 483 612 C 469 624 452 633 431 640 C 410 647 385 651 356 651 L 146 651 L 146 380 L 356 380 Z M 382 49 C 436 49 478 61 508 86 C 537 111 552 148 552 196 C 552 218 547 237 539 254 C 530 271 518 285 503 297 C 488 309 470 318 449 324 C 428 330 405 333 381 333 L 146 333 L 146 49 L 382 49 Z" unicode="B" />
<glyph horiz-adv-x="712" d="M 60 359 C 60 411 68 459 85 503 C 102 546 126 583 157 614 C 187 645 224 669 267 686 C 309 703 356 712 408 712 C 450 712 490 706 528 694 C 566 682 601 664 631 642 L 600 599 C 573 619 543 634 511 645 C 479 656 445 662 409 662 C 365 662 326 654 290 640 C 254 625 223 604 197 578 C 171 552 152 520 138 483 C 124 445 117 404 117 359 C 117 311 123 267 137 227 C 151 187 170 154 196 126 C 222 98 253 76 289 61 C 325 45 365 38 409 38 C 449 38 486 44 521 57 C 555 70 585 89 611 113 L 647 75 C 616 46 580 24 539 10 C 498 -4 454 -12 407 -12 C 355 -12 307 -3 265 15 C 222 33 185 58 155 90 C 125 122 101 161 85 207 C 68 253 60 303 60 359 Z" unicode="C" />
<glyph horiz-adv-x="708" d="M 90 700 L 280 700 C 340 700 393 692 439 676 C 485 660 523 638 554 608 C 585 578 609 542 625 500 C 641 458 649 410 649 357 C 649 301 641 251 626 207 C 611 163 588 125 558 95 C 527 64 488 40 442 24 C 396 8 342 0 280 0 L 90 0 L 90 700 Z M 283 49 C 387 49 464 76 515 131 C 566 186 592 261 592 357 C 592 402 585 443 572 479 C 558 515 539 546 513 572 C 487 597 454 616 416 630 C 377 644 333 651 283 651 L 146 651 L 146 49 L 283 49 Z" unicode="D" />
<glyph horiz-adv-x="634" d="M 90 700 L 557 700 L 557 649 L 146 649 L 146 381 L 517 381 L 517 333 L 146 333 L 146 51 L 563 51 L 563 0 L 90 0 L 90 700 Z" unicode="E" />
<glyph horiz-adv-x="615" d="M 90 700 L 549 700 L 549 649 L 146 649 L 146 377 L 504 377 L 504 328 L 146 328 L 146 0 L 90 0 L 90 700 Z" unicode="F" />
<glyph horiz-adv-x="724" d="M 60 359 C 60 411 68 458 85 502 C 101 545 125 582 156 613 C 186 644 223 668 266 686 C 308 703 356 712 408 712 C 450 712 490 706 528 696 C 566 686 601 671 633 651 L 604 609 C 576 626 546 639 513 648 C 479 657 445 662 409 662 C 365 662 326 654 290 640 C 254 625 224 604 198 578 C 172 551 153 519 139 482 C 125 445 118 404 118 359 C 118 310 124 266 138 226 C 151 186 170 153 195 125 C 220 97 251 75 287 60 C 323 45 363 38 409 38 C 445 38 479 42 511 50 C 543 58 570 70 592 84 L 592 312 L 381 312 L 381 357 L 645 357 L 645 55 C 613 33 576 17 536 5 C 495 -6 452 -12 408 -12 C 354 -12 306 -3 263 14 C 220 31 184 56 154 88 C 124 120 100 159 84 205 C 68 251 60 302 60 359 Z" unicode="G" />
<glyph horiz-adv-x="697" d="M 90 700 L 146 700 L 146 382 L 551 382 L 551 700 L 608 700 L 608 0 L 551 0 L 551 331 L 146 331 L 146 0 L 90 0 L 90 700 Z" unicode="H" />
<glyph horiz-adv-x="235" d="M 90 700 L 146 700 L 146 0 L 90 0 L 90 700 Z" unicode="I" />
<glyph horiz-adv-x="566" d="M 102 158 C 107 143 114 128 123 114 C 131 100 142 87 155 76 C 168 65 183 56 201 49 C 218 42 238 39 261 39 C 289 39 313 43 333 53 C 353 62 370 75 384 92 C 397 108 407 128 413 151 C 419 174 423 200 423 228 L 423 700 L 480 700 L 480 228 C 480 155 462 97 426 53 C 390 9 336 -12 263 -12 C 234 -12 208 -7 186 0 C 163 8 143 19 126 33 C 109 46 95 62 83 80 C 71 98 61 116 54 135 L 102 158 Z" unicode="J" />
<glyph horiz-adv-x="663" d="M 90 700 L 146 700 L 146 277 L 519 700 L 588 700 L 358 440 L 616 0 L 548 0 L 321 398 L 146 201 L 146 0 L 90 0 L 90 700 Z" unicode="K" />
<glyph horiz-adv-x="604" d="M 90 700 L 146 700 L 146 51 L 556 51 L 556 0 L 90 0 L 90 700 Z" unicode="L" />
<glyph horiz-adv-x="845" d="M 90 700 L 157 700 L 423 308 L 689 700 L 756 700 L 756 0 L 701 0 L 701 626 L 423 220 L 145 628 L 145 0 L 90 0 L 90 700 Z" unicode="M" />
<glyph horiz-adv-x="718" d="M 90 700 L 152 700 L 573 81 L 573 700 L 628 700 L 628 0 L 565 0 L 145 618 L 145 0 L 90 0 L 90 700 Z" unicode="N" />
<glyph horiz-adv-x="808" d="M 60 355 C 60 409 69 458 87 502 C 105 546 129 583 160 614 C 191 645 227 669 269 686 C 311 703 356 712 404 712 C 452 712 496 703 538 686 C 580 669 616 645 647 614 C 678 583 703 546 721 502 C 739 458 748 409 748 355 C 748 298 739 247 721 202 C 703 156 679 118 648 86 C 617 54 581 30 539 13 C 497 -3 452 -12 404 -12 C 355 -12 310 -3 268 13 C 226 30 190 54 159 86 C 128 118 104 156 86 202 C 68 247 60 298 60 355 Z M 118 355 C 118 305 125 261 140 222 C 154 182 175 149 201 122 C 227 94 257 73 292 59 C 326 45 364 38 404 38 C 444 38 481 45 516 59 C 550 73 581 94 607 122 C 633 149 653 182 668 222 C 682 261 690 305 690 355 C 690 401 682 444 667 482 C 652 520 632 552 606 579 C 580 605 549 626 515 640 C 480 654 443 662 404 662 C 364 662 327 654 293 640 C 258 626 228 605 202 579 C 176 552 155 520 140 482 C 125 444 118 401 118 355 Z" unicode="O" />
<glyph horiz-adv-x="655" d="M 90 700 L 361 700 C 404 700 440 694 470 682 C 499 670 523 655 541 636 C 559 616 572 595 580 571 C 588 547 592 522 592 497 C 592 473 588 448 580 424 C 572 400 558 378 540 358 C 522 338 498 321 469 309 C 439 297 403 291 360 291 L 146 291 L 146 0 L 90 0 L 90 700 Z M 360 339 C 392 339 419 343 441 353 C 463 362 482 374 496 389 C 510 404 520 421 526 440 C 532 458 536 477 536 496 C 536 515 533 534 527 553 C 521 571 511 588 497 602 C 483 616 464 628 442 637 C 420 646 393 651 361 651 L 146 651 L 146 339 L 360 339 Z" unicode="P" />
<glyph horiz-adv-x="817" d="M 60 355 C 60 409 69 458 87 502 C 105 546 129 583 160 614 C 191 645 227 669 269 686 C 311 703 356 712 404 712 C 452 712 496 703 538 686 C 580 669 616 645 647 614 C 678 583 703 546 721 502 C 739 458 748 409 748 355 C 748 303 740 255 725 213 C 710 171 689 134 663 102 L 758 21 L 725 -14 L 631 69 C 601 43 566 23 528 9 C 489 -5 448 -12 404 -12 C 355 -12 310 -3 268 13 C 226 30 190 54 159 86 C 128 118 104 156 86 202 C 68 247 60 298 60 355 Z M 487 259 L 621 138 C 642 165 659 197 671 233 C 683 269 690 309 690 355 C 690 401 682 444 667 482 C 652 520 632 552 606 579 C 580 605 549 626 515 640 C 480 654 443 662 404 662 C 364 662 327 654 293 640 C 258 626 228 605 202 579 C 176 552 155 520 140 482 C 125 444 118 401 118 355 C 118 305 125 261 140 222 C 154 182 175 149 201 122 C 227 94 257 73 292 59 C 326 45 364 38 404 38 C 440 38 473 43 505 55 C 537 67 565 84 591 106 L 455 223 L 487 259 Z" unicode="Q" />
<glyph horiz-adv-x="673" d="M 372 339 C 404 339 431 343 453 353 C 475 362 494 374 508 389 C 522 404 532 421 538 440 C 544 458 548 477 548 496 C 548 515 544 534 538 553 C 532 571 522 588 508 603 C 494 617 477 629 455 638 C 433 646 406 651 374 651 L 146 651 L 146 339 L 372 339 Z M 146 0 L 90 0 L 90 700 L 374 700 C 416 700 452 694 482 682 C 511 670 535 655 553 636 C 571 616 585 595 593 571 C 601 547 605 522 605 497 C 605 476 602 455 596 435 C 590 414 580 395 567 377 C 554 359 538 343 518 329 C 498 315 474 305 446 299 L 602 0 L 539 0 L 392 292 L 146 292 L 146 0 Z" unicode="R" />
<glyph horiz-adv-x="607" d="M 86 103 C 111 85 143 70 181 58 C 219 45 260 39 306 39 C 369 39 416 52 446 78 C 476 104 491 137 491 177 C 491 213 480 240 459 259 C 438 278 412 293 381 304 C 349 314 315 323 279 331 C 243 339 209 349 178 363 C 146 377 120 396 99 421 C 78 446 68 481 68 527 C 68 553 73 577 83 600 C 93 622 109 642 129 658 C 149 674 173 687 202 697 C 230 707 263 712 300 712 C 347 712 389 707 425 697 C 461 687 494 675 522 662 L 499 614 C 473 626 444 637 412 647 C 379 656 342 661 302 661 C 246 661 203 648 173 623 C 142 597 127 566 127 528 C 127 491 137 463 158 445 C 179 426 205 411 237 401 C 268 390 302 381 338 373 C 374 365 408 355 440 341 C 471 327 497 308 518 283 C 539 258 550 223 550 177 C 550 150 545 125 535 102 C 525 79 510 59 490 42 C 470 25 444 12 414 2 C 383 -7 347 -12 306 -12 C 254 -12 206 -5 163 9 C 119 23 84 39 57 58 L 86 103 Z" unicode="S" />
<glyph horiz-adv-x="644" d="M 294 649 L 31 649 L 31 700 L 613 700 L 613 649 L 350 649 L 350 0 L 294 0 L 294 649 Z" unicode="T" />
<glyph horiz-adv-x="712" d="M 87 700 L 144 700 L 144 256 C 144 220 149 189 160 162 C 171 134 186 111 205 93 C 224 75 247 61 273 52 C 299 42 326 38 356 38 C 385 38 413 42 439 52 C 465 61 487 75 507 93 C 526 111 541 134 552 162 C 563 189 569 220 569 256 L 569 700 L 626 700 L 626 256 C 626 211 619 172 605 139 C 591 105 571 77 547 55 C 523 33 494 16 462 5 C 429 -6 394 -12 356 -12 C 318 -12 283 -6 251 5 C 218 16 189 33 165 55 C 141 77 122 105 108 139 C 94 172 87 211 87 256 L 87 700 Z" unicode="U" />
<glyph horiz-adv-x="663" d="M 35 700 L 97 700 L 330 61 L 332 61 L 566 700 L 629 700 L 365 0 L 297 0 L 35 700 Z" unicode="V" />
<glyph horiz-adv-x="1023" d="M 36 700 L 97 700 L 293 73 L 295 73 L 482 700 L 542 700 L 729 73 L 731 73 L 927 700 L 988 700 L 763 0 L 698 0 L 512 621 L 510 621 L 325 0 L 260 0 L 36 700 Z" unicode="W" />
<glyph horiz-adv-x="674" d="M 301 358 L 55 700 L 125 700 L 338 401 L 550 700 L 620 700 L 373 358 L 631 0 L 560 0 L 337 314 L 113 0 L 43 0 L 301 358 Z" unicode="X" />
<glyph horiz-adv-x="651" d="M 297 287 L 34 700 L 101 700 L 325 340 L 327 340 L 550 700 L 617 700 L 354 287 L 354 0 L 297 0 L 297 287 Z" unicode="Y" />
<glyph horiz-adv-x="644" d="M 60 52 L 507 649 L 61 649 L 61 700 L 575 700 L 575 648 L 130 52 L 586 52 L 586 0 L 60 0 L 60 52 Z" unicode="Z" />
<glyph horiz-adv-x="366" d="M 299 -156 L 299 -200 L 87 -200 L 87 755 L 299 755 L 299 711 L 143 711 L 143 -156 L 299 -156 Z" unicode="[" />
<glyph horiz-adv-x="482" d="M 492 -200 L 435 -200 L -11 755 L 46 755 L 492 -200 Z" unicode="\" />
<glyph horiz-adv-x="366" d="M 223 -156 L 223 711 L 67 711 L 67 755 L 279 755 L 279 -200 L 67 -200 L 67 -156 L 223 -156 Z" unicode="]" />
<glyph horiz-adv-x="524" d="M 237 735 L 288 735 L 428 562 L 378 562 L 263 681 L 145 562 L 97 562 L 237 735 Z" unicode="^" />
<glyph horiz-adv-x="545" d="M 545 -12 L 545 -63 L 0 -63 L 0 -12 L 545 -12 Z" unicode="_" />
<glyph horiz-adv-x="646" d="M 233 703 L 274 735 L 413 566 L 374 566 L 233 703 Z" unicode="`" />
<glyph horiz-adv-x="514" d="M 107 116 C 107 90 116 70 134 55 C 152 39 177 32 208 32 C 244 32 275 39 303 55 C 331 70 352 88 367 110 L 367 246 C 338 244 308 242 278 238 C 247 234 219 227 194 217 C 168 207 147 194 131 178 C 115 162 107 141 107 116 Z M 52 113 C 52 146 61 173 80 195 C 99 216 124 233 154 246 C 184 258 217 267 255 273 C 293 279 330 282 367 284 L 367 375 C 367 403 358 427 340 447 C 322 466 293 476 253 476 C 225 476 196 471 168 461 C 140 451 114 441 92 430 L 69 475 C 93 487 122 498 155 508 C 187 518 220 523 254 523 C 284 523 309 519 331 511 C 352 503 369 493 383 480 C 397 466 407 451 413 433 C 419 415 423 395 423 374 L 423 100 C 423 80 427 66 437 56 C 446 46 459 41 477 41 L 477 -1 C 447 -1 423 4 407 16 C 390 28 379 45 373 68 C 353 45 329 26 299 11 C 269 -4 236 -12 198 -12 C 154 -12 118 0 92 22 C 65 44 52 75 52 113 Z" unicode="a" />
<glyph horiz-adv-x="580" d="M 88 755 L 143 755 L 143 440 C 164 462 188 482 216 498 C 244 514 276 523 312 523 C 343 523 372 517 398 505 C 424 493 446 475 464 453 C 482 431 497 404 507 372 C 517 340 522 303 522 263 C 522 178 503 111 467 62 C 430 12 378 -12 312 -12 C 277 -12 245 -4 217 11 C 189 27 163 47 141 73 L 135 0 L 88 0 L 88 755 Z M 143 120 C 165 93 189 72 216 57 C 242 41 271 34 303 34 C 356 34 396 54 424 96 C 452 138 466 193 466 263 C 466 329 451 382 422 420 C 393 458 353 477 302 477 C 269 477 240 469 214 453 C 188 437 165 416 143 391 L 143 120 Z" unicode="b" />
<glyph horiz-adv-x="508" d="M 57 262 C 57 302 62 338 74 370 C 86 402 102 430 123 452 C 143 474 168 492 197 504 C 226 516 258 523 292 523 C 326 523 357 518 383 508 C 409 498 432 486 450 473 L 420 433 C 406 443 389 452 368 461 C 347 470 322 475 293 475 C 267 475 243 470 221 460 C 199 450 180 435 164 417 C 148 399 135 376 126 350 C 117 324 113 294 113 262 C 113 191 129 135 162 95 C 194 55 238 35 293 35 C 323 35 349 39 370 49 C 391 58 411 70 429 86 L 462 50 C 438 30 413 15 387 4 C 361 -6 329 -12 292 -12 C 257 -12 225 -5 196 7 C 167 19 142 37 122 61 C 101 85 85 113 74 147 C 62 181 57 219 57 262 Z" unicode="c" />
<glyph horiz-adv-x="579" d="M 277 34 C 307 34 336 41 363 57 C 389 72 414 93 437 120 L 437 391 C 414 416 390 437 364 453 C 338 469 310 477 278 477 C 226 477 186 458 157 420 C 127 382 113 329 113 263 C 113 193 127 138 155 96 C 183 54 224 34 277 34 Z M 267 -12 C 234 -12 205 -5 179 7 C 153 19 131 37 113 61 C 95 85 81 114 72 148 C 62 182 58 220 58 263 C 58 303 63 340 73 372 C 83 404 97 431 115 453 C 133 475 155 493 181 505 C 207 517 236 523 268 523 C 304 523 335 514 363 498 C 391 482 415 462 437 440 L 437 755 L 492 755 L 492 0 L 446 0 L 439 73 C 415 47 390 27 362 11 C 334 -4 302 -12 267 -12 Z" unicode="d" />
<glyph horiz-adv-x="559" d="M 58 262 C 58 302 64 338 76 370 C 88 402 104 429 125 452 C 146 474 171 492 201 504 C 230 516 262 523 296 523 C 331 523 361 517 387 506 C 412 494 433 479 450 459 C 466 439 478 415 486 388 C 494 361 498 332 498 300 C 498 294 497 288 497 281 C 497 274 496 268 496 263 L 113 263 L 113 261 C 113 189 128 134 159 94 C 189 54 236 35 299 35 C 328 35 356 39 383 49 C 410 59 433 70 453 84 L 480 45 C 456 28 428 14 396 4 C 364 -6 331 -12 297 -12 C 218 -12 158 12 118 60 C 78 108 58 176 58 262 Z M 297 479 C 249 479 208 463 176 432 C 143 401 123 358 116 304 L 444 304 C 444 328 442 350 437 371 C 431 392 423 411 411 427 C 399 443 384 455 366 465 C 347 474 324 479 297 479 Z" unicode="e" />
<glyph horiz-adv-x="360" d="M 120 464 L 25 464 L 25 508 L 120 508 L 120 564 C 120 600 124 631 134 656 C 143 681 156 701 173 717 C 189 733 209 744 232 751 C 255 757 281 761 309 761 C 320 761 332 760 345 758 C 357 756 367 753 375 751 L 362 708 C 356 709 348 710 338 712 C 328 714 318 715 310 715 C 268 715 235 703 211 681 C 187 659 175 620 175 565 L 175 508 L 322 508 L 322 464 L 175 464 L 175 0 L 120 0 L 120 464 Z" unicode="f" />
<glyph horiz-adv-x="564" d="M 259 191 C 281 191 301 194 320 202 C 338 209 354 219 368 232 C 382 245 393 261 401 279 C 409 297 413 316 413 337 C 413 357 409 376 401 394 C 393 411 382 426 368 439 C 354 451 338 461 320 469 C 301 476 281 480 259 480 C 237 480 217 476 199 469 C 180 461 164 451 150 439 C 136 426 126 411 118 394 C 110 376 107 357 107 337 C 107 316 110 297 118 279 C 126 261 136 245 150 232 C 164 219 180 209 199 202 C 217 194 237 191 259 191 Z M 39 -76 C 39 -49 47 -26 65 -8 C 82 10 105 25 133 37 C 103 54 89 78 89 110 C 89 125 93 139 102 152 C 110 165 121 176 135 184 C 109 200 89 222 75 248 C 60 274 53 303 53 337 C 53 364 58 389 69 412 C 79 434 94 454 112 470 C 130 486 152 499 178 509 C 203 518 230 523 259 523 C 311 523 355 509 393 481 C 411 494 431 505 454 513 C 476 521 503 525 535 524 L 535 479 C 507 479 485 478 467 475 C 449 471 433 466 418 459 C 433 443 445 424 454 404 C 462 383 467 361 467 337 C 467 309 461 283 450 260 C 439 237 424 217 405 201 C 386 184 364 171 339 162 C 313 153 287 149 259 149 C 227 149 196 155 167 168 C 157 162 149 154 143 146 C 137 137 134 128 134 118 C 134 104 138 93 146 85 C 154 77 166 70 180 66 C 194 62 212 59 232 57 C 252 55 274 54 298 53 C 328 51 357 47 385 43 C 412 38 436 31 456 21 C 476 11 493 -1 505 -17 C 517 -33 523 -52 523 -75 C 523 -118 502 -151 460 -175 C 418 -198 357 -210 276 -210 C 199 -210 140 -198 100 -175 C 59 -151 39 -118 39 -76 Z M 286 7 C 243 8 208 12 180 20 C 154 12 133 0 117 -15 C 100 -31 92 -51 92 -75 C 92 -105 107 -128 139 -144 C 170 -160 215 -168 274 -168 C 336 -168 385 -160 419 -146 C 453 -131 470 -109 470 -79 C 470 -63 465 -50 456 -40 C 446 -29 433 -20 417 -14 C 401 -8 381 -3 359 0 C 336 3 312 5 286 7 Z" unicode="g" />
<glyph horiz-adv-x="570" d="M 88 755 L 143 755 L 143 434 C 166 459 193 480 225 497 C 256 514 291 523 329 523 C 358 523 383 518 403 510 C 423 502 440 490 452 475 C 464 460 473 442 479 421 C 485 400 488 377 488 352 L 488 0 L 433 0 L 433 353 C 433 389 424 419 408 442 C 391 465 362 477 320 477 C 284 477 251 468 222 452 C 192 436 166 414 143 386 L 143 0 L 88 0 L 88 755 Z" unicode="h" />
<glyph horiz-adv-x="231" d="M 88 739 L 143 739 L 143 658 L 88 658 L 88 739 Z M 88 509 L 143 509 L 143 0 L 88 0 L 88 509 Z" unicode="i" />
<glyph horiz-adv-x="239" d="M 96 739 L 151 739 L 151 658 L 96 658 L 96 739 Z M 96 509 L 151 509 L 151 -32 C 151 -64 147 -91 140 -114 C 133 -136 123 -155 111 -169 C 98 -183 83 -194 65 -200 C 47 -206 28 -210 7 -210 C -3 -210 -12 -209 -21 -207 C -29 -205 -37 -204 -44 -203 L -33 -158 C -21 -161 -9 -163 2 -163 C 30 -163 52 -153 70 -134 C 87 -114 96 -81 96 -34 L 96 509 Z" unicode="j" />
<glyph horiz-adv-x="515" d="M 88 755 L 143 755 L 143 229 L 397 511 L 462 511 L 308 344 L 490 0 L 427 0 L 272 304 L 143 163 L 143 0 L 88 0 L 88 755 Z" unicode="k" />
<glyph horiz-adv-x="231" d="M 88 755 L 143 755 L 143 0 L 88 0 L 88 755 Z" unicode="l" />
<glyph horiz-adv-x="881" d="M 84 511 L 134 511 L 139 440 C 161 463 188 483 218 499 C 248 515 282 523 318 523 C 356 523 386 515 409 499 C 431 483 448 462 458 435 C 482 460 509 481 541 498 C 573 514 608 523 646 523 C 700 523 739 507 763 476 C 787 444 799 403 799 353 L 799 0 L 743 0 L 743 353 C 743 390 735 420 719 443 C 703 465 676 477 636 477 C 602 477 572 469 544 454 C 516 438 490 418 468 392 C 470 378 471 364 471 350 L 471 0 L 415 0 L 415 353 C 415 390 407 420 391 443 C 375 465 348 477 308 477 C 274 477 243 469 215 453 C 187 437 161 416 139 390 L 139 0 L 84 0 L 84 511 Z" unicode="m" />
<glyph horiz-adv-x="566" d="M 84 511 L 134 511 L 139 435 C 162 459 189 480 220 497 C 251 514 286 523 326 523 C 355 523 380 518 400 510 C 420 502 436 490 449 475 C 461 460 470 442 476 421 C 482 400 485 377 485 352 L 485 0 L 429 0 L 429 353 C 429 390 420 420 404 443 C 387 465 358 477 316 477 C 280 477 247 468 218 452 C 188 436 162 413 139 384 L 139 0 L 84 0 L 84 511 Z" unicode="n" />
<glyph horiz-adv-x="594" d="M 58 262 C 58 301 64 337 76 369 C 88 401 104 429 126 452 C 147 474 172 492 202 504 C 231 516 263 523 298 523 C 332 523 364 516 393 504 C 422 492 447 474 469 452 C 490 429 507 401 519 369 C 531 337 537 301 537 262 C 537 220 531 182 519 148 C 507 114 491 86 470 62 C 449 38 424 19 395 7 C 365 -5 333 -12 298 -12 C 262 -12 229 -5 200 7 C 170 19 145 38 124 62 C 103 86 87 114 75 148 C 63 182 58 220 58 262 Z M 114 262 C 114 227 118 195 127 167 C 135 139 148 115 164 95 C 180 75 199 59 222 49 C 244 38 270 33 298 33 C 325 33 350 38 372 49 C 394 59 414 75 430 95 C 446 115 458 139 467 167 C 475 195 480 227 480 262 C 480 294 475 324 466 350 C 457 376 445 399 429 418 C 413 436 393 451 371 461 C 349 471 324 477 298 477 C 271 477 246 471 224 461 C 201 451 181 436 165 418 C 149 399 136 376 127 350 C 118 324 114 294 114 262 Z" unicode="o" />
<glyph horiz-adv-x="579" d="M 142 120 C 164 93 188 72 215 57 C 242 41 271 34 302 34 C 355 34 396 54 424 96 C 452 138 466 193 466 263 C 466 329 451 382 422 420 C 392 458 352 477 301 477 C 269 477 240 469 214 453 C 188 437 164 416 142 391 L 142 120 Z M 142 -200 L 87 -200 L 87 511 L 135 511 L 141 438 C 162 461 187 481 215 498 C 243 514 275 523 311 523 C 343 523 371 517 397 505 C 423 493 445 475 463 453 C 481 431 496 404 506 372 C 516 340 521 303 521 263 C 521 220 516 182 507 148 C 497 114 484 85 466 61 C 448 37 426 19 400 7 C 374 -5 345 -12 312 -12 C 277 -12 246 -4 218 11 C 190 26 164 46 142 72 L 142 -200 Z" unicode="p" />
<glyph horiz-adv-x="579" d="M 267 -12 C 234 -12 205 -5 179 7 C 153 19 131 37 113 61 C 95 85 81 114 72 148 C 62 182 58 220 58 263 C 58 303 63 340 73 372 C 83 404 97 431 115 453 C 133 475 155 493 181 505 C 207 517 236 523 268 523 C 304 523 335 514 363 498 C 391 481 415 461 437 438 L 444 511 L 492 511 L 492 -200 L 437 -200 L 437 72 C 413 46 388 26 360 11 C 332 -4 301 -12 267 -12 Z M 277 34 C 308 34 337 41 363 57 C 389 72 414 93 437 120 L 437 391 C 414 416 390 437 364 453 C 338 469 310 477 278 477 C 226 477 186 458 157 420 C 127 382 113 329 113 263 C 113 193 127 138 155 96 C 183 54 224 34 277 34 Z" unicode="q" />
<glyph horiz-adv-x="385" d="M 84 511 L 133 511 L 139 422 C 178 489 232 523 300 523 C 324 523 344 520 362 515 L 351 462 C 343 464 334 466 324 468 C 314 470 304 471 294 471 C 232 471 180 435 139 364 L 139 0 L 84 0 L 84 511 Z" unicode="r" />
<glyph horiz-adv-x="455" d="M 68 79 C 86 67 109 56 137 47 C 165 38 196 34 228 34 C 270 34 302 42 324 59 C 346 76 357 99 357 128 C 357 153 349 172 334 185 C 318 198 299 208 277 216 C 254 224 229 231 203 237 C 176 243 151 251 129 261 C 106 271 87 286 72 304 C 56 322 49 348 49 381 C 49 402 53 421 61 439 C 69 456 81 471 97 484 C 113 496 131 506 153 513 C 175 519 199 523 225 523 C 255 523 284 519 312 512 C 340 505 366 496 390 485 L 368 442 C 348 451 326 459 301 466 C 275 473 250 477 225 477 C 187 477 158 468 136 451 C 114 433 104 411 104 383 C 104 358 111 339 127 326 C 142 313 161 303 184 295 C 206 287 231 281 258 275 C 284 269 309 261 332 251 C 354 241 373 226 389 208 C 404 189 412 163 412 130 C 412 86 396 51 364 26 C 332 0 287 -12 228 -12 C 190 -12 155 -7 123 2 C 91 12 64 23 42 37 L 68 79 Z" unicode="s" />
<glyph horiz-adv-x="370" d="M 119 466 L 25 466 L 25 511 L 119 511 L 119 671 L 174 671 L 174 511 L 324 511 L 324 466 L 174 466 L 174 130 C 174 99 179 75 191 59 C 203 42 224 34 254 34 C 280 34 304 42 328 58 L 351 20 C 337 10 322 3 304 -3 C 286 -9 268 -12 249 -12 C 203 -12 169 0 149 24 C 129 48 119 84 119 130 L 119 466 Z" unicode="t" />
<glyph horiz-adv-x="567" d="M 82 511 L 137 511 L 137 158 C 137 121 145 91 161 68 C 177 44 207 33 250 33 C 286 33 318 41 348 57 C 377 73 404 96 428 126 L 428 511 L 483 511 L 483 0 L 435 0 L 428 75 C 404 51 377 30 346 13 C 314 -3 279 -12 241 -12 C 212 -12 187 -7 167 0 C 147 8 130 20 118 35 C 105 50 96 68 90 89 C 84 110 82 133 82 159 L 82 511 Z" unicode="u" />
<glyph horiz-adv-x="486" d="M 26 511 L 85 511 L 243 62 L 245 62 L 403 511 L 460 511 L 273 0 L 212 0 L 26 511 Z" unicode="v" />
<glyph horiz-adv-x="797" d="M 26 511 L 84 511 L 232 66 L 234 66 L 372 511 L 425 511 L 564 66 L 566 66 L 714 511 L 771 511 L 596 0 L 536 0 L 399 435 L 397 435 L 261 0 L 201 0 L 26 511 Z" unicode="w" />
<glyph horiz-adv-x="495" d="M 214 258 L 42 511 L 104 511 L 248 297 L 391 511 L 453 511 L 282 258 L 462 0 L 400 0 L 247 220 L 95 0 L 33 0 L 214 258 Z" unicode="x" />
<glyph horiz-adv-x="487" d="M 36 -150 C 44 -153 53 -156 63 -159 C 73 -161 82 -163 92 -163 C 112 -163 129 -158 143 -149 C 157 -139 170 -121 180 -95 L 218 4 L 26 511 L 85 511 L 245 76 L 247 76 L 403 511 L 461 511 L 234 -102 C 218 -144 199 -172 175 -187 C 151 -202 124 -210 93 -210 C 80 -210 67 -208 54 -206 C 41 -203 30 -200 20 -196 L 36 -150 Z" unicode="y" />
<glyph horiz-adv-x="490" d="M 54 42 L 365 464 L 62 464 L 62 511 L 433 511 L 433 468 L 123 46 L 444 46 L 444 0 L 54 0 L 54 42 Z" unicode="z" />
<glyph horiz-adv-x="433" d="M 370 -157 L 370 -200 L 315 -200 C 216 -200 167 -154 167 -63 L 167 147 C 167 181 160 206 147 222 C 133 238 109 246 73 246 L 34 246 L 34 297 L 73 297 C 109 297 133 305 147 321 C 160 337 167 362 167 396 L 167 618 C 167 709 216 755 315 755 L 370 755 L 370 712 L 317 712 C 283 712 258 704 244 689 C 229 674 222 650 222 617 L 222 399 C 222 361 214 332 200 312 C 186 291 166 278 141 272 L 141 271 C 166 265 186 251 200 231 C 214 211 222 182 222 144 L 222 -62 C 222 -95 229 -119 244 -134 C 258 -149 283 -157 317 -157 L 370 -157 Z" unicode="{" />
<glyph horiz-adv-x="266" d="M 107 755 L 160 755 L 160 -200 L 107 -200 L 107 755 Z" unicode="|" />
<glyph horiz-adv-x="433" d="M 116 -157 C 150 -157 174 -149 189 -134 C 203 -119 211 -95 211 -62 L 211 144 C 211 182 218 211 232 231 C 246 251 266 265 292 271 L 292 272 C 266 278 246 291 232 312 C 218 332 211 361 211 399 L 211 617 C 211 650 203 674 189 689 C 174 704 150 712 116 712 L 63 712 L 63 755 L 118 755 C 216 755 266 709 266 618 L 266 396 C 266 362 272 337 286 321 C 299 305 324 297 360 297 L 399 297 L 399 246 L 360 246 C 324 246 299 238 286 222 C 272 206 266 181 266 147 L 266 -63 C 266 -154 216 -200 118 -200 L 63 -200 L 63 -157 L 116 -157 Z" unicode="}" />
<glyph horiz-adv-x="568" d="M 77 199 C 76 203 76 206 76 209 C 76 212 76 215 76 218 C 76 257 85 288 104 310 C 123 332 149 344 181 344 C 201 344 220 338 238 326 C 256 314 273 302 289 288 C 305 274 322 261 338 249 C 354 237 370 232 387 232 C 406 232 422 239 434 253 C 446 267 450 291 448 325 L 491 325 C 491 321 492 317 492 315 C 492 312 492 309 492 306 C 492 266 482 235 464 213 C 445 191 420 180 388 180 C 367 180 348 185 330 197 C 312 209 294 222 278 236 C 262 250 246 262 230 274 C 214 286 198 292 182 292 C 162 292 147 284 135 270 C 123 256 118 232 120 199 L 77 199 Z" unicode="~" />
<glyph horiz-adv-x="242" d="M 91 511 L 151 511 L 151 412 L 91 412 L 91 511 Z M 105 309 L 136 309 L 151 34 L 151 -189 L 90 -189 L 90 34 L 105 309 Z" unicode="¡" />
<glyph horiz-adv-x="596" d="M 113 358 C 113 301 126 253 152 214 C 178 174 214 147 260 132 L 362 582 C 359 582 356 583 354 583 C 351 583 348 583 346 583 C 311 583 279 577 251 566 C 223 555 198 540 178 520 C 157 500 141 477 130 449 C 118 421 113 391 113 358 Z M 59 358 C 59 398 65 434 79 468 C 93 502 112 531 138 555 C 163 579 193 597 229 611 C 264 624 303 631 346 631 C 350 631 354 630 358 630 C 362 630 367 630 372 630 L 387 700 L 426 700 L 409 625 C 455 617 495 600 531 575 L 502 535 C 470 556 435 570 397 578 L 294 123 C 302 121 311 120 319 120 C 327 119 336 119 346 119 C 378 119 409 123 437 133 C 465 142 489 156 511 175 L 545 140 C 519 117 490 100 456 88 C 422 76 385 71 346 71 C 334 71 324 71 314 72 C 304 73 294 74 284 76 L 266 0 L 228 0 L 248 85 C 189 102 143 135 109 183 C 75 231 59 289 59 358 Z" unicode="¢" />
<glyph horiz-adv-x="666" d="M 94 387 L 210 387 C 196 410 183 434 173 459 C 162 484 157 512 157 542 C 157 566 161 589 169 610 C 177 630 188 648 204 663 C 219 678 238 690 261 699 C 283 707 310 712 340 712 C 384 712 421 703 449 686 C 477 669 500 648 519 623 L 477 598 C 462 617 444 633 422 646 C 400 659 372 666 340 666 C 298 666 266 654 244 630 C 222 606 211 577 211 541 C 211 511 217 483 229 458 C 241 433 254 409 270 385 L 434 385 L 434 347 L 294 347 C 309 321 322 296 333 270 C 344 244 350 215 350 184 C 350 163 347 143 341 124 C 356 112 371 101 386 90 C 400 79 415 69 429 61 C 443 53 457 46 471 41 C 485 35 500 33 515 33 C 546 33 569 42 583 61 C 597 80 604 107 602 141 L 653 141 C 657 95 648 58 626 30 C 604 2 569 -12 521 -12 C 501 -12 483 -9 465 -3 C 447 2 430 9 414 18 C 398 27 382 37 366 49 C 350 60 335 71 320 83 C 310 67 299 53 287 41 C 274 29 260 20 246 12 C 231 4 216 -2 202 -6 C 187 -10 173 -12 160 -12 C 140 -12 122 -9 107 -3 C 92 2 80 9 70 19 C 60 29 53 40 48 53 C 43 65 41 78 41 92 C 41 122 51 147 73 167 C 94 187 123 198 159 198 C 184 198 207 193 229 184 C 251 175 272 164 293 151 C 295 161 297 172 297 184 C 297 212 291 239 279 266 C 267 292 253 318 238 342 L 235 346 L 94 346 L 94 387 Z M 82 92 C 82 74 88 59 101 46 C 113 32 133 26 159 26 C 180 26 202 33 226 47 C 249 61 267 83 281 111 C 262 124 243 135 223 145 C 203 155 182 160 160 160 C 136 160 117 153 103 140 C 89 126 82 110 82 92 Z" unicode="£" />
<glyph horiz-adv-x="652" d="M 65 265 C 65 298 70 329 82 359 C 94 389 110 415 131 439 L 75 499 L 106 529 L 162 468 C 184 486 209 500 237 510 C 265 520 294 526 326 526 C 357 526 386 520 414 510 C 442 500 467 486 490 468 L 547 529 L 578 499 L 520 439 C 541 415 557 389 569 359 C 581 329 587 298 587 265 C 587 231 581 200 569 171 C 557 141 541 115 521 92 L 578 32 L 547 3 L 490 63 C 467 45 442 30 414 20 C 386 10 357 5 326 5 C 294 5 265 10 237 20 C 209 30 184 44 162 62 L 106 3 L 75 32 L 131 92 C 110 115 94 141 82 170 C 70 199 65 231 65 265 Z M 117 265 C 117 236 122 209 133 184 C 144 158 159 136 178 117 C 197 98 219 83 245 72 C 270 61 297 56 326 56 C 355 56 382 61 408 72 C 433 83 455 98 474 117 C 493 136 508 158 519 184 C 530 209 536 236 536 265 C 536 294 530 321 519 347 C 508 372 493 394 474 413 C 455 432 433 447 408 458 C 382 469 355 475 326 475 C 297 475 270 469 245 458 C 219 447 197 432 178 413 C 159 394 144 372 133 347 C 122 321 117 294 117 265 Z" unicode="¤" />
<glyph horiz-adv-x="648" d="M 58 307 L 296 307 L 33 700 L 101 700 L 324 357 L 547 700 L 615 700 L 353 307 L 591 307 L 591 268 L 353 268 L 353 166 L 591 166 L 591 126 L 353 126 L 353 0 L 296 0 L 296 126 L 58 126 L 58 166 L 296 166 L 296 268 L 58 268 L 58 307 Z" unicode="¥" />
<glyph horiz-adv-x="266" d="M 107 755 L 160 755 L 160 344 L 107 344 L 107 755 Z M 160 168 L 160 -200 L 107 -200 L 107 168 L 160 168 Z" unicode="¦" />
<glyph horiz-adv-x="527" d="M 406 308 C 406 334 398 355 382 371 C 366 387 346 400 322 411 C 298 421 272 431 244 440 C 216 448 191 459 168 471 C 156 462 145 451 135 437 C 125 423 121 408 121 391 C 121 364 129 343 145 327 C 161 311 181 298 205 288 C 229 277 254 267 282 259 C 310 250 335 240 359 228 C 370 236 381 247 391 261 C 401 275 406 290 406 308 Z M 457 314 C 457 290 450 269 437 251 C 424 233 409 218 392 207 C 405 196 415 183 423 169 C 431 155 435 137 435 117 C 435 75 419 42 387 20 C 355 -1 311 -13 257 -13 C 221 -13 188 -5 158 8 C 128 22 102 41 81 63 L 119 95 C 135 77 155 62 179 50 C 203 37 229 31 259 31 C 295 31 325 38 348 52 C 370 66 382 87 382 116 C 382 138 374 156 359 169 C 343 182 324 193 301 203 C 278 213 253 222 226 230 C 199 238 174 249 151 261 C 128 273 109 289 94 309 C 78 328 71 353 71 385 C 71 407 77 428 90 446 C 102 464 117 480 135 492 C 121 502 111 515 103 529 C 95 543 92 561 92 582 C 92 624 108 656 140 678 C 172 700 215 712 270 712 C 305 712 338 705 369 691 C 399 677 425 658 447 636 L 408 604 C 392 621 372 636 348 648 C 324 660 297 667 268 667 C 231 667 201 660 179 646 C 156 632 145 611 145 583 C 145 561 152 543 168 530 C 183 516 202 505 226 495 C 249 485 274 476 301 468 C 327 460 352 449 376 437 C 399 425 418 409 434 390 C 449 370 457 345 457 314 Z" unicode="§" />
<glyph horiz-adv-x="651" d="M 207 677 L 263 677 L 263 612 L 207 612 L 207 677 Z M 388 677 L 444 677 L 444 612 L 388 612 L 388 677 Z" unicode="¨" />
<glyph horiz-adv-x="869" d="M 70 279 C 70 329 79 376 98 420 C 117 464 143 502 176 535 C 209 568 248 594 292 613 C 336 632 383 642 434 642 C 484 642 532 632 576 613 C 620 594 659 568 692 535 C 725 502 751 464 770 420 C 789 376 799 329 799 279 C 799 229 789 182 770 138 C 751 94 725 55 692 23 C 659 -9 620 -35 576 -54 C 532 -73 484 -83 434 -83 C 383 -83 336 -73 292 -54 C 248 -35 209 -9 176 23 C 143 55 117 94 98 138 C 79 182 70 229 70 279 Z M 106 279 C 106 234 114 192 132 152 C 149 112 172 78 202 48 C 232 18 267 -4 307 -22 C 347 -39 389 -48 435 -48 C 480 -48 522 -39 562 -22 C 602 -4 636 18 666 48 C 696 78 719 112 737 152 C 754 192 763 234 763 279 C 763 324 754 366 737 406 C 719 446 696 480 666 510 C 636 540 602 563 562 580 C 522 597 480 606 435 606 C 389 606 347 597 307 580 C 267 563 232 540 202 510 C 172 480 149 446 132 406 C 114 366 106 324 106 279 Z M 236 278 C 236 307 241 334 251 359 C 261 383 276 405 294 423 C 312 441 334 455 360 465 C 385 475 412 481 442 481 C 465 481 488 477 511 470 C 533 463 554 453 574 440 L 548 406 C 517 428 482 440 443 440 C 419 440 398 436 378 428 C 358 420 341 408 327 394 C 312 380 301 363 293 343 C 285 323 281 301 281 278 C 281 252 285 229 293 209 C 301 189 312 172 326 158 C 340 144 358 133 378 125 C 398 117 419 114 443 114 C 464 114 484 117 504 124 C 523 130 540 140 554 154 L 582 125 C 564 107 544 94 520 86 C 496 77 470 73 442 73 C 412 73 384 77 359 87 C 333 97 311 110 293 128 C 275 146 261 167 251 193 C 241 218 236 246 236 278 Z" unicode="©" />
<glyph horiz-adv-x="368" d="M 83 426 C 83 409 89 396 101 386 C 113 376 130 371 150 371 C 174 371 195 375 214 385 C 232 395 247 406 258 420 L 258 512 C 238 511 218 509 198 507 C 177 504 158 499 141 493 C 124 487 110 478 99 468 C 88 457 83 443 83 426 Z M 40 424 C 40 447 46 466 60 481 C 73 495 90 507 111 516 C 132 525 155 532 181 536 C 207 540 232 542 258 543 L 258 602 C 258 620 252 636 240 649 C 228 661 209 668 181 668 C 161 668 142 664 122 658 C 102 651 85 644 69 636 L 52 672 C 69 681 89 689 112 695 C 135 701 158 705 182 705 C 224 705 254 695 272 676 C 290 656 300 632 300 602 L 300 417 C 300 403 303 393 310 387 C 317 380 326 377 338 377 L 338 344 C 316 344 299 347 287 355 C 275 362 267 373 262 389 C 249 373 232 361 212 351 C 192 341 169 336 144 336 C 112 336 87 344 68 360 C 49 376 40 397 40 424 Z" unicode="ª" />
<glyph horiz-adv-x="593" d="M 532 30 L 493 0 L 292 256 L 493 511 L 532 480 L 352 256 L 532 30 Z M 292 30 L 253 0 L 52 256 L 253 511 L 292 480 L 112 256 L 292 30 Z" unicode="«" />
<glyph horiz-adv-x="602" d="M 63 536 L 539 536 L 539 288 L 481 288 L 481 487 L 63 487 L 63 536 Z" unicode="¬" />
<glyph horiz-adv-x="869" d="M 70 279 C 70 329 79 376 98 420 C 117 464 143 502 176 535 C 209 568 248 594 292 613 C 336 632 383 642 434 642 C 484 642 532 632 576 613 C 620 594 659 568 692 535 C 725 502 751 464 770 420 C 789 376 799 329 799 279 C 799 229 789 182 770 138 C 751 94 725 55 692 23 C 659 -9 620 -35 576 -54 C 532 -73 484 -83 434 -83 C 383 -83 336 -73 292 -54 C 248 -35 209 -9 176 23 C 143 55 117 94 98 138 C 79 182 70 229 70 279 Z M 106 279 C 106 234 114 192 131 152 C 148 112 171 78 201 49 C 231 19 266 -3 306 -21 C 346 -38 388 -47 434 -47 C 479 -47 522 -38 562 -21 C 602 -3 636 19 666 49 C 696 78 719 112 737 152 C 754 192 763 234 763 279 C 763 324 754 366 737 406 C 719 446 696 480 666 510 C 636 540 602 563 562 580 C 522 597 479 606 434 606 C 388 606 346 597 306 580 C 266 563 231 540 201 510 C 171 480 148 446 131 406 C 114 366 106 324 106 279 Z M 461 276 C 480 276 496 278 509 283 C 522 288 533 294 541 302 C 549 309 554 317 558 327 C 561 337 563 346 563 355 C 563 365 561 374 558 384 C 554 394 549 402 541 410 C 533 417 523 423 511 428 C 498 432 482 435 463 435 L 333 435 L 333 276 L 461 276 Z M 288 473 L 466 473 C 492 473 514 469 532 463 C 550 456 564 447 576 436 C 587 425 595 413 600 399 C 605 385 608 370 608 355 C 608 332 600 310 586 288 C 571 266 546 252 512 245 L 607 84 L 556 84 L 468 240 L 333 240 L 333 84 L 288 84 L 288 473 Z" unicode="®" />
<glyph horiz-adv-x="650" d="M 186 665 L 467 665 L 467 623 L 186 623 L 186 665 Z" unicode="¯" />
<glyph horiz-adv-x="413" d="M 207 402 C 185 402 165 405 146 413 C 127 421 110 431 96 445 C 82 459 70 475 62 494 C 54 513 50 534 50 557 C 50 579 54 599 62 618 C 70 637 82 653 96 667 C 110 681 127 692 146 700 C 165 708 185 712 207 712 C 228 712 248 708 267 700 C 285 692 302 681 316 667 C 330 653 342 637 350 618 C 358 599 363 579 363 557 C 363 534 358 513 350 494 C 342 475 331 459 317 445 C 303 431 286 421 267 413 C 248 405 228 402 207 402 Z M 207 441 C 223 441 237 444 251 450 C 265 456 277 464 288 474 C 298 484 307 497 313 511 C 319 525 322 540 322 557 C 322 573 319 588 313 602 C 307 616 298 629 288 639 C 277 649 265 658 251 664 C 237 670 223 673 207 673 C 191 673 176 670 162 664 C 148 658 135 649 125 639 C 115 629 106 616 100 602 C 94 588 91 573 91 557 C 91 540 94 525 100 511 C 106 497 115 484 125 474 C 135 464 148 456 162 450 C 176 444 191 441 207 441 Z" unicode="°" />
<glyph horiz-adv-x="613" d="M 51 139 L 280 139 L 280 341 L 51 341 L 51 391 L 280 391 L 280 606 L 333 606 L 333 391 L 562 391 L 562 341 L 333 341 L 333 139 L 562 139 L 562 96 L 51 96 L 51 139 Z" unicode="±" />
<glyph horiz-adv-x="328" d="M 41 521 C 40 549 45 573 55 591 C 65 609 78 625 94 637 C 109 649 126 659 144 667 C 162 675 179 683 195 691 C 211 699 224 708 234 719 C 244 729 250 743 250 760 C 250 777 242 792 228 804 C 214 816 192 823 164 823 C 145 823 127 818 111 810 C 94 802 80 792 69 780 L 41 805 C 55 820 74 833 96 843 C 118 853 141 858 166 858 C 208 858 239 848 260 830 C 281 811 292 788 292 760 C 292 738 286 721 276 707 C 266 693 253 682 238 673 C 222 663 206 655 188 647 C 170 639 153 631 138 622 C 122 612 109 601 99 588 C 89 574 84 557 84 536 L 292 536 L 292 500 L 41 500 L 41 521 Z" unicode="²" />
<glyph horiz-adv-x="326" d="M 55 552 C 67 545 81 539 97 535 C 113 531 130 529 148 529 C 178 529 204 535 224 549 C 244 562 254 580 254 604 C 254 625 245 641 228 651 C 211 661 190 667 166 667 L 117 667 L 117 701 L 164 701 C 186 701 205 706 219 717 C 233 727 241 743 241 764 C 241 780 233 794 219 806 C 204 817 184 823 158 823 C 140 823 122 819 105 812 C 88 804 73 794 61 782 L 37 809 C 52 823 70 835 92 844 C 113 853 135 858 158 858 C 195 858 225 849 248 832 C 270 815 282 793 282 767 C 282 746 276 729 265 716 C 254 702 239 692 221 686 C 242 680 260 671 274 658 C 288 644 296 626 296 603 C 296 585 292 570 284 556 C 276 542 266 531 253 522 C 239 512 224 505 206 501 C 188 496 168 494 148 494 C 127 494 107 496 88 501 C 69 505 53 511 40 518 L 55 552 Z" unicode="³" />
<glyph horiz-adv-x="646" d="M 372 735 L 413 703 L 272 566 L 233 566 L 372 735 Z" unicode="´" />
<glyph horiz-adv-x="529" d="M 112 -200 L 63 -200 L 63 536 L 119 536 L 119 148 C 120 114 129 86 146 65 C 162 44 191 34 232 34 C 268 34 300 42 330 58 C 359 74 386 97 410 126 L 410 536 L 466 536 L 466 0 L 416 0 L 411 74 C 389 50 363 29 334 13 C 304 -2 272 -11 236 -11 C 201 -11 174 -5 156 6 C 138 17 125 33 117 54 L 112 -200 Z" unicode="µ" />
<glyph horiz-adv-x="665" d="M 342 293 L 297 293 C 255 293 220 299 191 311 C 161 323 137 339 119 359 C 101 379 87 400 79 424 C 70 448 66 471 66 494 C 66 518 70 543 78 568 C 86 592 100 614 118 634 C 136 653 159 669 188 681 C 217 693 253 700 295 700 L 570 700 L 570 0 L 519 0 L 519 656 L 393 656 L 393 0 L 342 0 L 342 293 Z" unicode="¶" />
<glyph horiz-adv-x="207" d="M 73 308 L 134 308 L 134 204 L 73 204 L 73 308 Z" unicode="·" />
<glyph horiz-adv-x="646" d="M 248 -191 C 280 -165 307 -136 330 -103 C 352 -70 367 -34 373 5 L 411 5 C 406 -37 393 -76 373 -114 C 353 -151 326 -184 294 -214 L 248 -191 Z" unicode="¸" />
<glyph horiz-adv-x="273" d="M 143 811 L 63 769 L 46 800 L 150 852 L 183 852 L 183 500 L 143 500 L 143 811 Z" unicode="¹" />
<glyph horiz-adv-x="422" d="M 42 525 C 42 552 46 577 54 599 C 62 621 74 639 89 655 C 104 671 122 683 143 692 C 163 700 186 705 210 705 C 234 705 256 700 277 692 C 297 683 315 671 330 655 C 344 639 356 621 364 599 C 372 577 377 552 377 525 C 377 466 361 420 331 386 C 300 352 260 336 210 336 C 159 336 118 352 88 386 C 57 420 42 466 42 525 Z M 84 525 C 84 478 95 441 118 413 C 140 385 171 372 210 372 C 248 372 278 385 300 413 C 322 441 334 478 334 525 C 334 568 322 603 299 629 C 276 655 246 669 210 669 C 173 669 143 655 119 629 C 95 603 84 568 84 525 Z" unicode="º" />
<glyph horiz-adv-x="593" d="M 482 256 L 302 480 L 341 511 L 542 256 L 341 0 L 302 30 L 482 256 Z M 241 256 L 61 480 L 100 511 L 301 256 L 100 0 L 61 30 L 241 256 Z" unicode="»" />
<glyph horiz-adv-x="1109" d="M 244 214 L 244 649 L 90 561 L 65 600 L 250 700 L 294 700 L 294 214 L 244 214 Z M 329 0 L 701 700 L 752 700 L 380 0 L 329 0 Z M 660 159 L 908 486 L 981 486 L 981 156 L 1072 156 L 1072 116 L 981 116 L 981 0 L 932 0 L 932 116 L 672 116 L 660 159 Z M 932 156 L 932 448 L 710 156 L 932 156 Z" unicode="¼" />
<glyph horiz-adv-x="1171" d="M 244 214 L 244 649 L 90 561 L 65 600 L 250 700 L 294 700 L 294 214 L 244 214 Z M 329 0 L 701 700 L 752 700 L 380 0 L 329 0 Z M 752 0 L 752 27 C 752 61 759 89 774 112 C 788 134 807 154 829 170 C 851 186 874 201 900 213 C 926 225 950 238 972 252 C 994 265 1012 280 1027 296 C 1041 312 1049 333 1049 357 C 1049 383 1040 406 1022 424 C 1004 442 977 451 939 451 C 909 451 880 444 852 432 C 824 419 798 402 775 382 L 745 418 C 773 441 803 459 837 473 C 870 486 905 493 941 493 C 968 493 991 489 1011 482 C 1031 475 1047 465 1061 453 C 1074 440 1084 425 1090 409 C 1096 393 1100 375 1100 356 C 1100 326 1093 302 1079 283 C 1065 263 1047 246 1026 232 C 1004 218 981 205 956 193 C 931 181 907 169 885 155 C 863 141 844 126 829 108 C 813 90 804 67 802 40 L 1096 40 L 1096 0 L 752 0 Z" unicode="½" />
<glyph horiz-adv-x="1175" d="M 404 0 L 776 700 L 827 700 L 455 0 L 404 0 Z M 726 159 L 974 486 L 1047 486 L 1047 156 L 1138 156 L 1138 116 L 1047 116 L 1047 0 L 998 0 L 998 116 L 738 116 L 726 159 Z M 998 156 L 998 448 L 776 156 L 998 156 Z M 233 208 C 203 208 175 210 147 216 C 119 222 92 231 67 243 L 87 283 C 109 271 134 263 160 257 C 186 251 211 249 235 249 C 285 249 323 258 351 278 C 379 297 393 324 393 360 C 393 390 382 413 362 427 C 342 441 315 448 282 448 L 164 448 L 164 487 L 267 487 C 298 487 324 495 344 511 C 364 527 375 550 375 580 C 375 605 365 626 345 642 C 325 658 297 666 262 666 C 236 666 209 661 181 652 C 153 642 127 629 103 612 L 79 649 C 107 667 136 682 168 692 C 199 702 231 707 263 707 C 313 707 353 695 382 672 C 411 649 426 620 426 584 C 426 556 418 532 404 513 C 390 493 369 480 342 472 C 374 465 399 452 417 433 C 435 414 444 389 444 359 C 444 335 438 313 428 295 C 418 276 403 260 385 247 C 366 234 344 224 318 218 C 292 211 263 208 233 208 Z" unicode="¾" />
<glyph horiz-adv-x="491" d="M 325 412 L 265 412 L 265 511 L 325 511 L 325 412 Z M 318 309 C 318 308 319 305 319 301 C 319 297 319 294 319 293 C 319 262 313 236 303 216 C 293 195 280 177 265 162 C 249 147 233 134 215 122 C 197 110 180 97 165 84 C 149 70 136 55 126 38 C 116 21 111 0 111 -24 C 111 -42 114 -59 122 -75 C 130 -91 140 -104 154 -116 C 168 -127 184 -136 204 -143 C 223 -149 245 -153 269 -153 C 302 -153 332 -146 359 -132 C 386 -118 410 -101 431 -80 L 468 -114 C 442 -140 413 -161 381 -177 C 348 -193 311 -201 269 -201 C 236 -201 206 -196 180 -188 C 154 -179 131 -167 113 -152 C 94 -136 80 -118 70 -96 C 60 -74 55 -51 55 -26 C 55 4 60 29 71 50 C 81 70 95 88 111 104 C 127 119 144 133 163 146 C 182 158 200 172 216 186 C 232 200 245 215 256 233 C 267 251 273 272 273 298 L 273 309 L 318 309 Z" unicode="¿" />
<glyph horiz-adv-x="678" d="M 214 846 L 259 880 L 370 755 L 325 755 L 214 846 Z M 185 236 L 493 236 L 340 646 L 338 646 L 185 236 Z M 304 700 L 375 700 L 643 0 L 581 0 L 510 189 L 167 189 L 97 0 L 35 0 L 304 700 Z" unicode="À" />
<glyph horiz-adv-x="678" d="M 419 880 L 464 846 L 352 755 L 308 755 L 419 880 Z M 185 236 L 493 236 L 340 646 L 338 646 L 185 236 Z M 304 700 L 375 700 L 643 0 L 581 0 L 510 189 L 167 189 L 97 0 L 35 0 L 304 700 Z" unicode="Á" />
<glyph horiz-adv-x="678" d="M 309 863 L 369 863 L 497 755 L 456 755 L 340 828 L 339 828 L 222 755 L 181 755 L 309 863 Z M 185 236 L 493 236 L 340 646 L 338 646 L 185 236 Z M 304 700 L 375 700 L 643 0 L 581 0 L 510 189 L 167 189 L 97 0 L 35 0 L 304 700 Z" unicode="Â" />
<glyph horiz-adv-x="678" d="M 201 764 C 197 796 202 820 216 838 C 230 856 249 865 273 865 C 287 865 300 861 312 854 C 323 846 334 838 344 830 C 354 821 363 813 373 806 C 382 798 392 795 403 795 C 415 795 425 800 432 810 C 439 820 442 835 440 854 L 478 854 C 481 822 475 797 461 779 C 447 761 428 753 405 753 C 390 753 377 756 366 764 C 354 771 344 779 334 787 C 324 795 314 803 305 811 C 295 818 285 822 275 822 C 262 822 252 817 245 807 C 237 797 235 782 238 764 L 201 764 Z M 185 236 L 493 236 L 340 646 L 338 646 L 185 236 Z M 304 700 L 375 700 L 643 0 L 581 0 L 510 189 L 167 189 L 97 0 L 35 0 L 304 700 Z" unicode="Ã" />
<glyph horiz-adv-x="678" d="M 216 842 L 272 842 L 272 777 L 216 777 L 216 842 Z M 406 842 L 462 842 L 462 777 L 406 777 L 406 842 Z M 185 236 L 493 236 L 340 646 L 338 646 L 185 236 Z M 304 700 L 375 700 L 643 0 L 581 0 L 510 189 L 167 189 L 97 0 L 35 0 L 304 700 Z" unicode="Ä" />
<glyph horiz-adv-x="678" d="M 339 700 C 358 700 374 706 387 720 C 400 733 407 749 407 769 C 407 788 400 804 387 817 C 374 830 358 837 339 837 C 319 837 303 830 290 817 C 277 804 271 788 271 769 C 271 749 277 733 290 720 C 303 706 319 700 339 700 Z M 185 236 L 493 236 L 340 646 L 338 646 L 185 236 Z M 297 682 C 280 689 266 700 256 716 C 246 731 241 749 241 769 C 241 796 250 819 269 837 C 288 855 311 865 339 865 C 366 865 389 855 408 837 C 427 819 437 796 437 769 C 437 749 431 731 421 716 C 411 700 398 689 382 682 L 643 0 L 581 0 L 510 189 L 167 189 L 97 0 L 35 0 L 297 682 Z" unicode="Å" />
<glyph horiz-adv-x="1015" d="M 204 237 L 513 237 L 395 648 L 388 648 L 204 237 Z M 355 700 L 938 700 L 938 648 L 451 648 L 530 382 L 898 382 L 898 332 L 545 332 L 627 52 L 945 52 L 945 0 L 581 0 L 527 189 L 182 189 L 98 0 L 33 0 L 355 700 Z" unicode="Æ" />
<glyph horiz-adv-x="712" d="M 237 -191 C 267 -167 293 -139 315 -109 C 337 -78 351 -45 359 -9 C 313 -3 272 8 236 28 C 199 48 168 74 142 106 C 116 138 95 175 81 218 C 67 260 60 307 60 359 C 60 411 68 459 85 503 C 102 546 126 583 157 614 C 187 645 224 669 267 686 C 309 703 356 712 408 712 C 450 712 490 706 528 694 C 566 682 601 664 631 642 L 600 599 C 573 619 543 634 511 645 C 479 656 445 662 409 662 C 365 662 326 654 290 640 C 254 625 223 604 197 578 C 171 552 152 520 138 483 C 124 445 117 404 117 359 C 117 311 123 267 137 227 C 151 187 170 154 196 126 C 222 98 253 76 289 61 C 325 45 365 38 409 38 C 449 38 486 44 521 57 C 555 70 585 89 611 113 L 647 75 C 616 46 580 24 539 10 C 498 -4 454 -12 407 -12 C 405 -12 404 -11 402 -11 C 400 -11 399 -11 398 -11 C 391 -50 378 -87 358 -121 C 338 -155 313 -186 283 -214 L 237 -191 Z" unicode="Ç" />
<glyph horiz-adv-x="634" d="M 202 846 L 247 880 L 358 755 L 313 755 L 202 846 Z M 90 700 L 557 700 L 557 649 L 146 649 L 146 381 L 517 381 L 517 333 L 146 333 L 146 51 L 563 51 L 563 0 L 90 0 L 90 700 Z" unicode="È" />
<glyph horiz-adv-x="634" d="M 406 880 L 451 846 L 339 755 L 295 755 L 406 880 Z M 90 700 L 557 700 L 557 649 L 146 649 L 146 381 L 517 381 L 517 333 L 146 333 L 146 51 L 563 51 L 563 0 L 90 0 L 90 700 Z" unicode="É" />
<glyph horiz-adv-x="634" d="M 296 863 L 356 863 L 484 755 L 443 755 L 327 828 L 326 828 L 209 755 L 168 755 L 296 863 Z M 90 700 L 557 700 L 557 649 L 146 649 L 146 381 L 517 381 L 517 333 L 146 333 L 146 51 L 563 51 L 563 0 L 90 0 L 90 700 Z" unicode="Ê" />
<glyph horiz-adv-x="634" d="M 204 842 L 260 842 L 260 777 L 204 777 L 204 842 Z M 394 842 L 450 842 L 450 777 L 394 777 L 394 842 Z M 90 700 L 557 700 L 557 649 L 146 649 L 146 381 L 517 381 L 517 333 L 146 333 L 146 51 L 563 51 L 563 0 L 90 0 L 90 700 Z" unicode="Ë" />
<glyph horiz-adv-x="235" d="M -7 846 L 38 880 L 149 755 L 104 755 L -7 846 Z M 90 700 L 146 700 L 146 0 L 90 0 L 90 700 Z" unicode="Ì" />
<glyph horiz-adv-x="235" d="M 198 880 L 243 846 L 131 755 L 87 755 L 198 880 Z M 90 700 L 146 700 L 146 0 L 90 0 L 90 700 Z" unicode="Í" />
<glyph horiz-adv-x="235" d="M 88 863 L 148 863 L 276 755 L 235 755 L 119 828 L 118 828 L 1 755 L -40 755 L 88 863 Z M 90 700 L 146 700 L 146 0 L 90 0 L 90 700 Z" unicode="Î" />
<glyph horiz-adv-x="235" d="M -5 842 L 51 842 L 51 777 L -5 777 L -5 842 Z M 185 842 L 241 842 L 241 777 L 185 777 L 185 842 Z M 90 700 L 146 700 L 146 0 L 90 0 L 90 700 Z" unicode="Ï" />
<glyph horiz-adv-x="742" d="M 124 331 L 15 331 L 15 372 L 124 372 L 124 700 L 314 700 C 374 700 427 692 473 676 C 519 660 557 638 588 608 C 619 578 643 542 659 500 C 675 458 683 410 683 357 C 683 301 675 251 660 207 C 645 163 622 125 592 95 C 561 64 522 40 476 24 C 430 8 376 0 314 0 L 124 0 L 124 331 Z M 317 49 C 421 49 498 76 549 131 C 600 186 626 261 626 357 C 626 402 619 443 606 479 C 592 515 573 546 547 572 C 521 597 488 616 450 630 C 411 644 367 651 317 651 L 180 651 L 180 372 L 409 372 L 409 331 L 180 331 L 180 49 L 317 49 Z" unicode="Ð" />
<glyph horiz-adv-x="718" d="M 221 764 C 217 796 222 820 236 838 C 250 856 269 865 293 865 C 307 865 320 861 332 854 C 343 846 354 838 364 830 C 374 821 383 813 393 806 C 402 798 412 795 423 795 C 435 795 445 800 452 810 C 459 820 462 835 460 854 L 498 854 C 501 822 495 797 481 779 C 467 761 448 753 425 753 C 410 753 397 756 386 764 C 374 771 364 779 354 787 C 344 795 334 803 325 811 C 315 818 305 822 295 822 C 282 822 272 817 265 807 C 257 797 255 782 258 764 L 221 764 Z M 90 700 L 152 700 L 573 81 L 573 700 L 628 700 L 628 0 L 565 0 L 145 618 L 145 0 L 90 0 L 90 700 Z" unicode="Ñ" />
<glyph horiz-adv-x="808" d="M 280 846 L 325 880 L 436 755 L 391 755 L 280 846 Z M 60 355 C 60 409 69 458 87 502 C 105 546 129 583 160 614 C 191 645 227 669 269 686 C 311 703 356 712 404 712 C 452 712 496 703 538 686 C 580 669 616 645 647 614 C 678 583 703 546 721 502 C 739 458 748 409 748 355 C 748 298 739 247 721 202 C 703 156 679 118 648 86 C 617 54 581 30 539 13 C 497 -3 452 -12 404 -12 C 355 -12 310 -3 268 13 C 226 30 190 54 159 86 C 128 118 104 156 86 202 C 68 247 60 298 60 355 Z M 118 355 C 118 305 125 261 140 222 C 154 182 175 149 201 122 C 227 94 257 73 292 59 C 326 45 364 38 404 38 C 444 38 481 45 516 59 C 550 73 581 94 607 122 C 633 149 653 182 668 222 C 682 261 690 305 690 355 C 690 401 682 444 667 482 C 652 520 632 552 606 579 C 580 605 549 626 515 640 C 480 654 443 662 404 662 C 364 662 327 654 293 640 C 258 626 228 605 202 579 C 176 552 155 520 140 482 C 125 444 118 401 118 355 Z" unicode="Ò" />
<glyph horiz-adv-x="808" d="M 484 880 L 529 846 L 417 755 L 373 755 L 484 880 Z M 60 355 C 60 409 69 458 87 502 C 105 546 129 583 160 614 C 191 645 227 669 269 686 C 311 703 356 712 404 712 C 452 712 496 703 538 686 C 580 669 616 645 647 614 C 678 583 703 546 721 502 C 739 458 748 409 748 355 C 748 298 739 247 721 202 C 703 156 679 118 648 86 C 617 54 581 30 539 13 C 497 -3 452 -12 404 -12 C 355 -12 310 -3 268 13 C 226 30 190 54 159 86 C 128 118 104 156 86 202 C 68 247 60 298 60 355 Z M 118 355 C 118 305 125 261 140 222 C 154 182 175 149 201 122 C 227 94 257 73 292 59 C 326 45 364 38 404 38 C 444 38 481 45 516 59 C 550 73 581 94 607 122 C 633 149 653 182 668 222 C 682 261 690 305 690 355 C 690 401 682 444 667 482 C 652 520 632 552 606 579 C 580 605 549 626 515 640 C 480 654 443 662 404 662 C 364 662 327 654 293 640 C 258 626 228 605 202 579 C 176 552 155 520 140 482 C 125 444 118 401 118 355 Z" unicode="Ó" />
<glyph horiz-adv-x="808" d="M 374 863 L 434 863 L 562 755 L 521 755 L 405 828 L 404 828 L 287 755 L 246 755 L 374 863 Z M 60 355 C 60 409 69 458 87 502 C 105 546 129 583 160 614 C 191 645 227 669 269 686 C 311 703 356 712 404 712 C 452 712 496 703 538 686 C 580 669 616 645 647 614 C 678 583 703 546 721 502 C 739 458 748 409 748 355 C 748 298 739 247 721 202 C 703 156 679 118 648 86 C 617 54 581 30 539 13 C 497 -3 452 -12 404 -12 C 355 -12 310 -3 268 13 C 226 30 190 54 159 86 C 128 118 104 156 86 202 C 68 247 60 298 60 355 Z M 118 355 C 118 305 125 261 140 222 C 154 182 175 149 201 122 C 227 94 257 73 292 59 C 326 45 364 38 404 38 C 444 38 481 45 516 59 C 550 73 581 94 607 122 C 633 149 653 182 668 222 C 682 261 690 305 690 355 C 690 401 682 444 667 482 C 652 520 632 552 606 579 C 580 605 549 626 515 640 C 480 654 443 662 404 662 C 364 662 327 654 293 640 C 258 626 228 605 202 579 C 176 552 155 520 140 482 C 125 444 118 401 118 355 Z" unicode="Ô" />
<glyph horiz-adv-x="808" d="M 266 764 C 262 796 267 820 281 838 C 295 856 314 865 338 865 C 352 865 365 861 377 854 C 388 846 399 838 409 830 C 419 821 428 813 438 806 C 447 798 457 795 468 795 C 480 795 490 800 497 810 C 504 820 507 835 505 854 L 543 854 C 546 822 540 797 526 779 C 512 761 493 753 470 753 C 455 753 442 756 431 764 C 419 771 409 779 399 787 C 389 795 379 803 370 811 C 360 818 350 822 340 822 C 327 822 317 817 310 807 C 302 797 300 782 303 764 L 266 764 Z M 60 355 C 60 409 69 458 87 502 C 105 546 129 583 160 614 C 191 645 227 669 269 686 C 311 703 356 712 404 712 C 452 712 496 703 538 686 C 580 669 616 645 647 614 C 678 583 703 546 721 502 C 739 458 748 409 748 355 C 748 298 739 247 721 202 C 703 156 679 118 648 86 C 617 54 581 30 539 13 C 497 -3 452 -12 404 -12 C 355 -12 310 -3 268 13 C 226 30 190 54 159 86 C 128 118 104 156 86 202 C 68 247 60 298 60 355 Z M 118 355 C 118 305 125 261 140 222 C 154 182 175 149 201 122 C 227 94 257 73 292 59 C 326 45 364 38 404 38 C 444 38 481 45 516 59 C 550 73 581 94 607 122 C 633 149 653 182 668 222 C 682 261 690 305 690 355 C 690 401 682 444 667 482 C 652 520 632 552 606 579 C 580 605 549 626 515 640 C 480 654 443 662 404 662 C 364 662 327 654 293 640 C 258 626 228 605 202 579 C 176 552 155 520 140 482 C 125 444 118 401 118 355 Z" unicode="Õ" />
<glyph horiz-adv-x="808" d="M 281 842 L 337 842 L 337 777 L 281 777 L 281 842 Z M 471 842 L 527 842 L 527 777 L 471 777 L 471 842 Z M 60 355 C 60 409 69 458 87 502 C 105 546 129 583 160 614 C 191 645 227 669 269 686 C 311 703 356 712 404 712 C 452 712 496 703 538 686 C 580 669 616 645 647 614 C 678 583 703 546 721 502 C 739 458 748 409 748 355 C 748 298 739 247 721 202 C 703 156 679 118 648 86 C 617 54 581 30 539 13 C 497 -3 452 -12 404 -12 C 355 -12 310 -3 268 13 C 226 30 190 54 159 86 C 128 118 104 156 86 202 C 68 247 60 298 60 355 Z M 118 355 C 118 305 125 261 140 222 C 154 182 175 149 201 122 C 227 94 257 73 292 59 C 326 45 364 38 404 38 C 444 38 481 45 516 59 C 550 73 581 94 607 122 C 633 149 653 182 668 222 C 682 261 690 305 690 355 C 690 401 682 444 667 482 C 652 520 632 552 606 579 C 580 605 549 626 515 640 C 480 654 443 662 404 662 C 364 662 327 654 293 640 C 258 626 228 605 202 579 C 176 552 155 520 140 482 C 125 444 118 401 118 355 Z" unicode="Ö" />
<glyph horiz-adv-x="581" d="M 256 350 L 73 545 L 109 580 L 290 386 L 473 580 L 509 545 L 326 350 L 509 155 L 473 121 L 290 314 L 109 121 L 73 155 L 256 350 Z" unicode="×" />
<glyph horiz-adv-x="808" d="M 118 355 C 118 303 125 257 141 217 C 157 177 178 144 206 117 L 573 607 C 525 643 468 662 404 662 C 364 662 327 654 293 640 C 258 626 228 605 202 579 C 176 552 155 520 140 482 C 125 444 118 401 118 355 Z M 690 355 C 690 403 682 446 666 484 C 650 522 629 555 602 583 L 234 92 C 282 56 339 38 404 38 C 444 38 481 45 516 59 C 550 73 581 94 607 122 C 633 149 653 182 668 222 C 682 261 690 305 690 355 Z M 60 355 C 60 409 69 458 87 502 C 105 546 129 583 160 614 C 191 645 227 669 269 686 C 311 703 356 712 404 712 C 442 712 477 706 511 696 C 545 685 576 670 605 650 L 670 736 L 702 711 L 636 625 C 670 593 698 555 718 510 C 738 464 748 413 748 355 C 748 298 739 247 721 202 C 703 156 679 118 648 86 C 617 54 581 30 539 13 C 497 -3 452 -12 404 -12 C 326 -12 259 8 203 49 L 139 -36 L 107 -12 L 172 73 C 136 105 109 144 89 192 C 69 239 60 293 60 355 Z" unicode="Ø" />
<glyph horiz-adv-x="712" d="M 231 846 L 276 880 L 387 755 L 342 755 L 231 846 Z M 87 700 L 144 700 L 144 256 C 144 220 149 189 160 162 C 171 134 186 111 205 93 C 224 75 247 61 273 52 C 299 42 326 38 356 38 C 385 38 413 42 439 52 C 465 61 487 75 507 93 C 526 111 541 134 552 162 C 563 189 569 220 569 256 L 569 700 L 626 700 L 626 256 C 626 211 619 172 605 139 C 591 105 571 77 547 55 C 523 33 494 16 462 5 C 429 -6 394 -12 356 -12 C 318 -12 283 -6 251 5 C 218 16 189 33 165 55 C 141 77 122 105 108 139 C 94 172 87 211 87 256 L 87 700 Z" unicode="Ù" />
<glyph horiz-adv-x="712" d="M 436 880 L 481 846 L 369 755 L 325 755 L 436 880 Z M 87 700 L 144 700 L 144 256 C 144 220 149 189 160 162 C 171 134 186 111 205 93 C 224 75 247 61 273 52 C 299 42 326 38 356 38 C 385 38 413 42 439 52 C 465 61 487 75 507 93 C 526 111 541 134 552 162 C 563 189 569 220 569 256 L 569 700 L 626 700 L 626 256 C 626 211 619 172 605 139 C 591 105 571 77 547 55 C 523 33 494 16 462 5 C 429 -6 394 -12 356 -12 C 318 -12 283 -6 251 5 C 218 16 189 33 165 55 C 141 77 122 105 108 139 C 94 172 87 211 87 256 L 87 700 Z" unicode="Ú" />
<glyph horiz-adv-x="712" d="M 326 863 L 386 863 L 514 755 L 473 755 L 357 828 L 356 828 L 239 755 L 198 755 L 326 863 Z M 87 700 L 144 700 L 144 256 C 144 220 149 189 160 162 C 171 134 186 111 205 93 C 224 75 247 61 273 52 C 299 42 326 38 356 38 C 385 38 413 42 439 52 C 465 61 487 75 507 93 C 526 111 541 134 552 162 C 563 189 569 220 569 256 L 569 700 L 626 700 L 626 256 C 626 211 619 172 605 139 C 591 105 571 77 547 55 C 523 33 494 16 462 5 C 429 -6 394 -12 356 -12 C 318 -12 283 -6 251 5 C 218 16 189 33 165 55 C 141 77 122 105 108 139 C 94 172 87 211 87 256 L 87 700 Z" unicode="Û" />
<glyph horiz-adv-x="712" d="M 233 842 L 289 842 L 289 777 L 233 777 L 233 842 Z M 423 842 L 479 842 L 479 777 L 423 777 L 423 842 Z M 87 700 L 144 700 L 144 256 C 144 220 149 189 160 162 C 171 134 186 111 205 93 C 224 75 247 61 273 52 C 299 42 326 38 356 38 C 385 38 413 42 439 52 C 465 61 487 75 507 93 C 526 111 541 134 552 162 C 563 189 569 220 569 256 L 569 700 L 626 700 L 626 256 C 626 211 619 172 605 139 C 591 105 571 77 547 55 C 523 33 494 16 462 5 C 429 -6 394 -12 356 -12 C 318 -12 283 -6 251 5 C 218 16 189 33 165 55 C 141 77 122 105 108 139 C 94 172 87 211 87 256 L 87 700 Z" unicode="Ü" />
<glyph horiz-adv-x="651" d="M 405 880 L 450 846 L 338 755 L 294 755 L 405 880 Z M 297 287 L 34 700 L 101 700 L 325 340 L 327 340 L 550 700 L 617 700 L 354 287 L 354 0 L 297 0 L 297 287 Z" unicode="Ý" />
<glyph horiz-adv-x="653" d="M 90 700 L 146 700 L 146 563 L 355 563 C 398 563 435 557 466 546 C 496 534 521 519 541 500 C 560 480 574 458 583 433 C 591 407 596 381 596 354 C 596 327 591 301 583 275 C 574 249 560 227 541 208 C 521 188 496 173 466 161 C 435 149 398 143 354 143 L 146 143 L 146 0 L 90 0 L 90 700 Z M 354 191 C 387 191 415 195 439 205 C 462 214 481 226 496 241 C 510 256 521 273 528 293 C 535 313 539 333 539 354 C 539 375 535 395 528 414 C 521 433 510 450 496 465 C 481 480 462 492 439 501 C 415 509 387 514 355 514 L 146 514 L 146 191 L 354 191 Z" unicode="Þ" />
<glyph horiz-adv-x="626" d="M 87 552 C 87 585 92 615 103 641 C 113 667 128 688 148 706 C 167 724 190 737 216 747 C 242 756 271 761 303 761 C 334 761 363 756 390 747 C 417 738 440 725 460 709 C 480 692 495 671 507 647 C 518 623 524 595 524 564 C 524 524 512 488 488 456 C 464 424 428 403 380 392 L 380 391 C 411 387 438 379 462 368 C 486 356 506 342 523 325 C 539 308 552 289 560 267 C 568 245 573 221 573 197 C 573 164 567 135 555 109 C 543 83 527 62 507 44 C 486 26 462 12 434 3 C 406 -6 376 -11 344 -11 C 322 -11 303 -9 285 -7 C 267 -4 252 -1 239 3 L 250 51 C 260 47 273 44 289 42 C 305 39 321 38 339 38 C 364 38 387 41 409 49 C 431 56 450 66 466 80 C 482 94 494 111 503 131 C 512 151 517 173 517 199 C 517 247 499 287 463 318 C 427 348 376 364 312 364 L 269 364 L 269 412 L 302 412 C 331 412 356 416 377 425 C 398 433 415 445 429 459 C 442 473 452 489 458 507 C 464 525 468 543 468 562 C 468 612 452 650 422 676 C 391 702 351 716 303 716 C 255 716 217 702 187 674 C 157 646 142 606 142 552 L 142 0 L 87 0 L 87 552 Z" unicode="ß" />
<glyph horiz-adv-x="514" d="M 118 703 L 159 735 L 298 566 L 259 566 L 118 703 Z M 107 116 C 107 90 116 70 134 55 C 152 39 177 32 208 32 C 244 32 275 39 303 55 C 331 70 352 88 367 110 L 367 246 C 338 244 308 242 278 238 C 247 234 219 227 194 217 C 168 207 147 194 131 178 C 115 162 107 141 107 116 Z M 52 113 C 52 146 61 173 80 195 C 99 216 124 233 154 246 C 184 258 217 267 255 273 C 293 279 330 282 367 284 L 367 375 C 367 403 358 427 340 447 C 322 466 293 476 253 476 C 225 476 196 471 168 461 C 140 451 114 441 92 430 L 69 475 C 93 487 122 498 155 508 C 187 518 220 523 254 523 C 284 523 309 519 331 511 C 352 503 369 493 383 480 C 397 466 407 451 413 433 C 419 415 423 395 423 374 L 423 100 C 423 80 427 66 437 56 C 446 46 459 41 477 41 L 477 -1 C 447 -1 423 4 407 16 C 390 28 379 45 373 68 C 353 45 329 26 299 11 C 269 -4 236 -12 198 -12 C 154 -12 118 0 92 22 C 65 44 52 75 52 113 Z" unicode="à" />
<glyph horiz-adv-x="514" d="M 369 735 L 410 703 L 269 566 L 230 566 L 369 735 Z M 107 116 C 107 90 116 70 134 55 C 152 39 177 32 208 32 C 244 32 275 39 303 55 C 331 70 352 88 367 110 L 367 246 C 338 244 308 242 278 238 C 247 234 219 227 194 217 C 168 207 147 194 131 178 C 115 162 107 141 107 116 Z M 52 113 C 52 146 61 173 80 195 C 99 216 124 233 154 246 C 184 258 217 267 255 273 C 293 279 330 282 367 284 L 367 375 C 367 403 358 427 340 447 C 322 466 293 476 253 476 C 225 476 196 471 168 461 C 140 451 114 441 92 430 L 69 475 C 93 487 122 498 155 508 C 187 518 220 523 254 523 C 284 523 309 519 331 511 C 352 503 369 493 383 480 C 397 466 407 451 413 433 C 419 415 423 395 423 374 L 423 100 C 423 80 427 66 437 56 C 446 46 459 41 477 41 L 477 -1 C 447 -1 423 4 407 16 C 390 28 379 45 373 68 C 353 45 329 26 299 11 C 269 -4 236 -12 198 -12 C 154 -12 118 0 92 22 C 65 44 52 75 52 113 Z" unicode="á" />
<glyph horiz-adv-x="514" d="M 233 723 L 295 723 L 421 566 L 379 566 L 265 686 L 263 686 L 148 566 L 107 566 L 233 723 Z M 107 116 C 107 90 116 70 134 55 C 152 39 177 32 208 32 C 244 32 275 39 303 55 C 331 70 352 88 367 110 L 367 246 C 338 244 308 242 278 238 C 247 234 219 227 194 217 C 168 207 147 194 131 178 C 115 162 107 141 107 116 Z M 52 113 C 52 146 61 173 80 195 C 99 216 124 233 154 246 C 184 258 217 267 255 273 C 293 279 330 282 367 284 L 367 375 C 367 403 358 427 340 447 C 322 466 293 476 253 476 C 225 476 196 471 168 461 C 140 451 114 441 92 430 L 69 475 C 93 487 122 498 155 508 C 187 518 220 523 254 523 C 284 523 309 519 331 511 C 352 503 369 493 383 480 C 397 466 407 451 413 433 C 419 415 423 395 423 374 L 423 100 C 423 80 427 66 437 56 C 446 46 459 41 477 41 L 477 -1 C 447 -1 423 4 407 16 C 390 28 379 45 373 68 C 353 45 329 26 299 11 C 269 -4 236 -12 198 -12 C 154 -12 118 0 92 22 C 65 44 52 75 52 113 Z" unicode="â" />
<glyph horiz-adv-x="514" d="M 126 599 C 122 631 128 655 142 673 C 156 691 175 700 199 700 C 213 700 226 696 238 689 C 249 681 259 673 269 665 C 279 657 288 649 298 642 C 307 634 317 631 328 631 C 340 631 350 636 357 646 C 364 656 367 670 365 690 L 402 690 C 406 657 400 632 386 614 C 372 596 353 588 330 588 C 315 588 302 591 291 599 C 279 606 269 614 259 622 C 249 630 240 638 231 646 C 221 653 211 657 201 657 C 187 657 177 652 170 642 C 163 632 161 617 164 599 L 126 599 Z M 107 116 C 107 90 116 70 134 55 C 152 39 177 32 208 32 C 244 32 275 39 303 55 C 331 70 352 88 367 110 L 367 246 C 338 244 308 242 278 238 C 247 234 219 227 194 217 C 168 207 147 194 131 178 C 115 162 107 141 107 116 Z M 52 113 C 52 146 61 173 80 195 C 99 216 124 233 154 246 C 184 258 217 267 255 273 C 293 279 330 282 367 284 L 367 375 C 367 403 358 427 340 447 C 322 466 293 476 253 476 C 225 476 196 471 168 461 C 140 451 114 441 92 430 L 69 475 C 93 487 122 498 155 508 C 187 518 220 523 254 523 C 284 523 309 519 331 511 C 352 503 369 493 383 480 C 397 466 407 451 413 433 C 419 415 423 395 423 374 L 423 100 C 423 80 427 66 437 56 C 446 46 459 41 477 41 L 477 -1 C 447 -1 423 4 407 16 C 390 28 379 45 373 68 C 353 45 329 26 299 11 C 269 -4 236 -12 198 -12 C 154 -12 118 0 92 22 C 65 44 52 75 52 113 Z" unicode="ã" />
<glyph horiz-adv-x="514" d="M 146 677 L 202 677 L 202 612 L 146 612 L 146 677 Z M 327 677 L 383 677 L 383 612 L 327 612 L 327 677 Z M 107 116 C 107 90 116 70 134 55 C 152 39 177 32 208 32 C 244 32 275 39 303 55 C 331 70 352 88 367 110 L 367 246 C 338 244 308 242 278 238 C 247 234 219 227 194 217 C 168 207 147 194 131 178 C 115 162 107 141 107 116 Z M 52 113 C 52 146 61 173 80 195 C 99 216 124 233 154 246 C 184 258 217 267 255 273 C 293 279 330 282 367 284 L 367 375 C 367 403 358 427 340 447 C 322 466 293 476 253 476 C 225 476 196 471 168 461 C 140 451 114 441 92 430 L 69 475 C 93 487 122 498 155 508 C 187 518 220 523 254 523 C 284 523 309 519 331 511 C 352 503 369 493 383 480 C 397 466 407 451 413 433 C 419 415 423 395 423 374 L 423 100 C 423 80 427 66 437 56 C 446 46 459 41 477 41 L 477 -1 C 447 -1 423 4 407 16 C 390 28 379 45 373 68 C 353 45 329 26 299 11 C 269 -4 236 -12 198 -12 C 154 -12 118 0 92 22 C 65 44 52 75 52 113 Z" unicode="ä" />
<glyph horiz-adv-x="514" d="M 264 563 C 236 563 213 572 194 590 C 175 608 166 631 166 659 C 166 686 175 709 194 727 C 213 745 236 755 264 755 C 290 755 313 745 332 727 C 351 709 361 686 361 659 C 361 631 351 608 332 590 C 313 572 290 563 264 563 Z M 264 590 C 283 590 299 596 312 610 C 325 623 332 639 332 659 C 332 678 325 694 312 708 C 299 721 283 728 264 728 C 244 728 228 721 215 708 C 201 694 195 678 195 659 C 195 639 201 623 215 610 C 228 596 244 590 264 590 Z M 107 116 C 107 90 116 70 134 55 C 152 39 177 32 208 32 C 244 32 275 39 303 55 C 331 70 352 88 367 110 L 367 246 C 338 244 308 242 278 238 C 247 234 219 227 194 217 C 168 207 147 194 131 178 C 115 162 107 141 107 116 Z M 52 113 C 52 146 61 173 80 195 C 99 216 124 233 154 246 C 184 258 217 267 255 273 C 293 279 330 282 367 284 L 367 375 C 367 403 358 427 340 447 C 322 466 293 476 253 476 C 225 476 196 471 168 461 C 140 451 114 441 92 430 L 69 475 C 93 487 122 498 155 508 C 187 518 220 523 254 523 C 284 523 309 519 331 511 C 352 503 369 493 383 480 C 397 466 407 451 413 433 C 419 415 423 395 423 374 L 423 100 C 423 80 427 66 437 56 C 446 46 459 41 477 41 L 477 -1 C 447 -1 423 4 407 16 C 390 28 379 45 373 68 C 353 45 329 26 299 11 C 269 -4 236 -12 198 -12 C 154 -12 118 0 92 22 C 65 44 52 75 52 113 Z" unicode="å" />
<glyph horiz-adv-x="868" d="M 404 99 C 395 84 384 70 370 57 C 356 43 341 31 324 21 C 306 11 287 3 266 -3 C 245 -9 223 -12 199 -12 C 155 -12 119 0 92 21 C 65 43 52 74 52 112 C 52 145 61 172 80 194 C 98 215 123 232 153 245 C 183 257 217 266 255 272 C 293 278 330 281 368 283 L 368 375 C 368 403 359 427 341 447 C 323 466 294 476 254 476 C 226 476 197 471 169 462 C 141 452 115 442 92 430 L 69 475 C 94 487 123 498 156 508 C 188 518 221 523 254 523 C 304 523 341 512 365 491 C 389 469 403 441 409 407 C 428 443 455 472 489 492 C 523 512 562 523 606 523 C 641 523 671 517 697 506 C 722 494 743 479 759 459 C 775 439 788 415 796 388 C 804 361 808 332 808 300 C 808 294 807 288 807 281 C 806 274 805 268 805 263 L 423 263 C 423 184 439 126 472 90 C 504 53 550 35 609 35 C 637 35 665 39 692 49 C 719 59 742 70 762 84 L 789 45 C 765 27 738 13 706 3 C 674 -6 641 -12 607 -12 C 558 -12 517 -2 483 16 C 449 35 423 63 404 99 Z M 754 304 C 754 328 752 350 747 371 C 741 392 733 411 721 427 C 709 443 694 455 676 465 C 657 474 634 479 607 479 C 559 479 518 463 486 432 C 453 400 433 358 426 304 L 754 304 Z M 107 116 C 107 90 116 70 135 55 C 153 39 178 32 208 32 C 245 32 280 41 313 60 C 345 79 369 106 384 140 C 378 155 374 171 372 189 C 369 207 368 225 368 245 C 339 244 309 242 279 238 C 248 234 220 227 195 217 C 169 207 148 194 132 178 C 115 162 107 141 107 116 Z" unicode="æ" />
<glyph horiz-adv-x="508" d="M 132 -191 C 162 -167 188 -139 210 -109 C 232 -78 246 -45 254 -9 C 194 -1 146 26 110 74 C 74 121 57 184 57 262 C 57 302 62 338 74 370 C 86 402 102 430 123 452 C 143 474 168 492 197 504 C 226 516 258 523 292 523 C 326 523 357 518 383 508 C 409 498 432 486 450 473 L 420 433 C 406 443 389 452 368 461 C 347 470 322 475 293 475 C 267 475 243 470 221 460 C 199 450 180 435 164 417 C 148 399 135 376 126 350 C 117 324 113 294 113 262 C 113 191 129 135 162 95 C 194 55 238 35 293 35 C 323 35 349 39 370 49 C 391 58 411 70 429 86 L 462 50 C 438 30 413 15 387 4 C 361 -6 329 -12 293 -12 C 286 -50 273 -87 253 -121 C 233 -155 208 -186 178 -214 L 132 -191 Z" unicode="ç" />
<glyph horiz-adv-x="559" d="M 147 703 L 188 735 L 327 566 L 288 566 L 147 703 Z M 58 262 C 58 302 64 338 76 370 C 88 402 104 429 125 452 C 146 474 171 492 201 504 C 230 516 262 523 296 523 C 331 523 361 517 387 506 C 412 494 433 479 450 459 C 466 439 478 415 486 388 C 494 361 498 332 498 300 C 498 294 497 288 497 281 C 497 274 496 268 496 263 L 113 263 L 113 261 C 113 189 128 134 159 94 C 189 54 236 35 299 35 C 328 35 356 39 383 49 C 410 59 433 70 453 84 L 480 45 C 456 28 428 14 396 4 C 364 -6 331 -12 297 -12 C 218 -12 158 12 118 60 C 78 108 58 176 58 262 Z M 297 479 C 249 479 208 463 176 432 C 143 401 123 358 116 304 L 444 304 C 444 328 442 350 437 371 C 431 392 423 411 411 427 C 399 443 384 455 366 465 C 347 474 324 479 297 479 Z" unicode="è" />
<glyph horiz-adv-x="559" d="M 398 735 L 439 703 L 298 566 L 259 566 L 398 735 Z M 58 262 C 58 302 64 338 76 370 C 88 402 104 429 125 452 C 146 474 171 492 201 504 C 230 516 262 523 296 523 C 331 523 361 517 387 506 C 412 494 433 479 450 459 C 466 439 478 415 486 388 C 494 361 498 332 498 300 C 498 294 497 288 497 281 C 497 274 496 268 496 263 L 113 263 L 113 261 C 113 189 128 134 159 94 C 189 54 236 35 299 35 C 328 35 356 39 383 49 C 410 59 433 70 453 84 L 480 45 C 456 28 428 14 396 4 C 364 -6 331 -12 297 -12 C 218 -12 158 12 118 60 C 78 108 58 176 58 262 Z M 297 479 C 249 479 208 463 176 432 C 143 401 123 358 116 304 L 444 304 C 444 328 442 350 437 371 C 431 392 423 411 411 427 C 399 443 384 455 366 465 C 347 474 324 479 297 479 Z" unicode="é" />
<glyph horiz-adv-x="559" d="M 263 723 L 325 723 L 451 566 L 409 566 L 295 686 L 293 686 L 178 566 L 137 566 L 263 723 Z M 58 262 C 58 302 64 338 76 370 C 88 402 104 429 125 452 C 146 474 171 492 201 504 C 230 516 262 523 296 523 C 331 523 361 517 387 506 C 412 494 433 479 450 459 C 466 439 478 415 486 388 C 494 361 498 332 498 300 C 498 294 497 288 497 281 C 497 274 496 268 496 263 L 113 263 L 113 261 C 113 189 128 134 159 94 C 189 54 236 35 299 35 C 328 35 356 39 383 49 C 410 59 433 70 453 84 L 480 45 C 456 28 428 14 396 4 C 364 -6 331 -12 297 -12 C 218 -12 158 12 118 60 C 78 108 58 176 58 262 Z M 297 479 C 249 479 208 463 176 432 C 143 401 123 358 116 304 L 444 304 C 444 328 442 350 437 371 C 431 392 423 411 411 427 C 399 443 384 455 366 465 C 347 474 324 479 297 479 Z" unicode="ê" />
<glyph horiz-adv-x="559" d="M 357 677 L 413 677 L 413 612 L 357 612 L 357 677 Z M 176 677 L 232 677 L 232 612 L 176 612 L 176 677 Z M 58 262 C 58 302 64 338 76 370 C 88 402 104 429 125 452 C 146 474 171 492 201 504 C 230 516 262 523 296 523 C 331 523 361 517 387 506 C 412 494 433 479 450 459 C 466 439 478 415 486 388 C 494 361 498 332 498 300 C 498 294 497 288 497 281 C 497 274 496 268 496 263 L 113 263 L 113 261 C 113 189 128 134 159 94 C 189 54 236 35 299 35 C 328 35 356 39 383 49 C 410 59 433 70 453 84 L 480 45 C 456 28 428 14 396 4 C 364 -6 331 -12 297 -12 C 218 -12 158 12 118 60 C 78 108 58 176 58 262 Z M 297 479 C 249 479 208 463 176 432 C 143 401 123 358 116 304 L 444 304 C 444 328 442 350 437 371 C 431 392 423 411 411 427 C 399 443 384 455 366 465 C 347 474 324 479 297 479 Z" unicode="ë" />
<glyph horiz-adv-x="231" d="M -31 703 L 10 735 L 149 566 L 110 566 L -31 703 Z M 88 509 L 143 509 L 143 0 L 88 0 L 88 509 Z" unicode="ì" />
<glyph horiz-adv-x="231" d="M 221 735 L 262 703 L 121 566 L 82 566 L 221 735 Z M 88 509 L 143 509 L 143 0 L 88 0 L 88 509 Z" unicode="í" />
<glyph horiz-adv-x="231" d="M 85 723 L 147 723 L 273 566 L 231 566 L 117 686 L 115 686 L 0 566 L -41 566 L 85 723 Z M 88 509 L 143 509 L 143 0 L 88 0 L 88 509 Z" unicode="î" />
<glyph horiz-adv-x="231" d="M -2 677 L 54 677 L 54 612 L -2 612 L -2 677 Z M 179 677 L 235 677 L 235 612 L 179 612 L 179 677 Z M 88 509 L 143 509 L 143 0 L 88 0 L 88 509 Z" unicode="ï" />
<glyph horiz-adv-x="578" d="M 289 -12 C 253 -12 221 -5 193 8 C 164 21 140 40 120 64 C 100 88 84 116 74 149 C 63 182 58 218 58 258 C 58 295 63 329 73 361 C 83 393 98 420 116 443 C 134 466 157 484 183 498 C 209 511 239 518 271 518 C 300 518 327 513 353 503 C 378 493 401 478 423 459 C 408 488 390 516 369 543 C 348 569 324 597 297 625 L 175 572 L 159 607 L 267 655 C 250 671 232 687 214 704 C 195 720 176 737 156 755 L 225 755 C 257 728 287 701 315 674 L 412 717 L 428 681 L 344 645 C 397 590 439 532 471 472 C 503 411 519 343 519 267 C 519 223 513 183 502 149 C 491 114 476 85 456 61 C 436 37 411 18 383 6 C 355 -5 323 -12 289 -12 Z M 289 34 C 342 34 385 54 417 95 C 449 136 465 192 465 264 C 465 308 459 349 449 386 C 401 444 344 473 279 473 C 253 473 230 467 210 456 C 190 445 172 430 158 411 C 143 392 132 369 124 343 C 116 317 113 288 113 258 C 113 225 117 195 125 168 C 133 140 145 117 161 97 C 176 77 194 61 216 50 C 238 39 262 34 289 34 Z" unicode="ð" />
<glyph horiz-adv-x="566" d="M 146 599 C 142 631 148 655 162 673 C 176 691 195 700 219 700 C 233 700 246 696 258 689 C 269 681 279 673 289 665 C 299 657 308 649 318 642 C 327 634 337 631 348 631 C 360 631 370 636 377 646 C 384 656 387 670 385 690 L 422 690 C 426 657 420 632 406 614 C 392 596 373 588 350 588 C 335 588 322 591 311 599 C 299 606 289 614 279 622 C 269 630 260 638 251 646 C 241 653 231 657 221 657 C 207 657 197 652 190 642 C 183 632 181 617 184 599 L 146 599 Z M 84 511 L 134 511 L 139 435 C 162 459 189 480 220 497 C 251 514 286 523 326 523 C 355 523 380 518 400 510 C 420 502 436 490 449 475 C 461 460 470 442 476 421 C 482 400 485 377 485 352 L 485 0 L 429 0 L 429 353 C 429 390 420 420 404 443 C 387 465 358 477 316 477 C 280 477 247 468 218 452 C 188 436 162 413 139 384 L 139 0 L 84 0 L 84 511 Z" unicode="ñ" />
<glyph horiz-adv-x="594" d="M 150 703 L 191 735 L 330 566 L 291 566 L 150 703 Z M 58 262 C 58 301 64 337 76 369 C 88 401 104 429 126 452 C 147 474 172 492 202 504 C 231 516 263 523 298 523 C 332 523 364 516 393 504 C 422 492 447 474 469 452 C 490 429 507 401 519 369 C 531 337 537 301 537 262 C 537 220 531 182 519 148 C 507 114 491 86 470 62 C 449 38 424 19 395 7 C 365 -5 333 -12 298 -12 C 262 -12 229 -5 200 7 C 170 19 145 38 124 62 C 103 86 87 114 75 148 C 63 182 58 220 58 262 Z M 114 262 C 114 227 118 195 127 167 C 135 139 148 115 164 95 C 180 75 199 59 222 49 C 244 38 270 33 298 33 C 325 33 350 38 372 49 C 394 59 414 75 430 95 C 446 115 458 139 467 167 C 475 195 480 227 480 262 C 480 294 475 324 466 350 C 457 376 445 399 429 418 C 413 436 393 451 371 461 C 349 471 324 477 298 477 C 271 477 246 471 224 461 C 201 451 181 436 165 418 C 149 399 136 376 127 350 C 118 324 114 294 114 262 Z" unicode="ò" />
<glyph horiz-adv-x="594" d="M 402 735 L 443 703 L 302 566 L 263 566 L 402 735 Z M 58 262 C 58 301 64 337 76 369 C 88 401 104 429 126 452 C 147 474 172 492 202 504 C 231 516 263 523 298 523 C 332 523 364 516 393 504 C 422 492 447 474 469 452 C 490 429 507 401 519 369 C 531 337 537 301 537 262 C 537 220 531 182 519 148 C 507 114 491 86 470 62 C 449 38 424 19 395 7 C 365 -5 333 -12 298 -12 C 262 -12 229 -5 200 7 C 170 19 145 38 124 62 C 103 86 87 114 75 148 C 63 182 58 220 58 262 Z M 114 262 C 114 227 118 195 127 167 C 135 139 148 115 164 95 C 180 75 199 59 222 49 C 244 38 270 33 298 33 C 325 33 350 38 372 49 C 394 59 414 75 430 95 C 446 115 458 139 467 167 C 475 195 480 227 480 262 C 480 294 475 324 466 350 C 457 376 445 399 429 418 C 413 436 393 451 371 461 C 349 471 324 477 298 477 C 271 477 246 471 224 461 C 201 451 181 436 165 418 C 149 399 136 376 127 350 C 118 324 114 294 114 262 Z" unicode="ó" />
<glyph horiz-adv-x="594" d="M 266 723 L 328 723 L 454 566 L 412 566 L 298 686 L 296 686 L 181 566 L 140 566 L 266 723 Z M 58 262 C 58 301 64 337 76 369 C 88 401 104 429 126 452 C 147 474 172 492 202 504 C 231 516 263 523 298 523 C 332 523 364 516 393 504 C 422 492 447 474 469 452 C 490 429 507 401 519 369 C 531 337 537 301 537 262 C 537 220 531 182 519 148 C 507 114 491 86 470 62 C 449 38 424 19 395 7 C 365 -5 333 -12 298 -12 C 262 -12 229 -5 200 7 C 170 19 145 38 124 62 C 103 86 87 114 75 148 C 63 182 58 220 58 262 Z M 114 262 C 114 227 118 195 127 167 C 135 139 148 115 164 95 C 180 75 199 59 222 49 C 244 38 270 33 298 33 C 325 33 350 38 372 49 C 394 59 414 75 430 95 C 446 115 458 139 467 167 C 475 195 480 227 480 262 C 480 294 475 324 466 350 C 457 376 445 399 429 418 C 413 436 393 451 371 461 C 349 471 324 477 298 477 C 271 477 246 471 224 461 C 201 451 181 436 165 418 C 149 399 136 376 127 350 C 118 324 114 294 114 262 Z" unicode="ô" />
<glyph horiz-adv-x="594" d="M 159 599 C 155 631 161 655 175 673 C 189 691 208 700 232 700 C 246 700 259 696 271 689 C 282 681 292 673 302 665 C 312 657 321 649 331 642 C 340 634 350 631 361 631 C 373 631 383 636 390 646 C 397 656 400 670 398 690 L 435 690 C 439 657 433 632 419 614 C 405 596 386 588 363 588 C 348 588 335 591 324 599 C 312 606 302 614 292 622 C 282 630 273 638 264 646 C 254 653 244 657 234 657 C 220 657 210 652 203 642 C 196 632 194 617 197 599 L 159 599 Z M 58 262 C 58 301 64 337 76 369 C 88 401 104 429 126 452 C 147 474 172 492 202 504 C 231 516 263 523 298 523 C 332 523 364 516 393 504 C 422 492 447 474 469 452 C 490 429 507 401 519 369 C 531 337 537 301 537 262 C 537 220 531 182 519 148 C 507 114 491 86 470 62 C 449 38 424 19 395 7 C 365 -5 333 -12 298 -12 C 262 -12 229 -5 200 7 C 170 19 145 38 124 62 C 103 86 87 114 75 148 C 63 182 58 220 58 262 Z M 114 262 C 114 227 118 195 127 167 C 135 139 148 115 164 95 C 180 75 199 59 222 49 C 244 38 270 33 298 33 C 325 33 350 38 372 49 C 394 59 414 75 430 95 C 446 115 458 139 467 167 C 475 195 480 227 480 262 C 480 294 475 324 466 350 C 457 376 445 399 429 418 C 413 436 393 451 371 461 C 349 471 324 477 298 477 C 271 477 246 471 224 461 C 201 451 181 436 165 418 C 149 399 136 376 127 350 C 118 324 114 294 114 262 Z" unicode="õ" />
<glyph horiz-adv-x="594" d="M 179 677 L 235 677 L 235 612 L 179 612 L 179 677 Z M 360 677 L 416 677 L 416 612 L 360 612 L 360 677 Z M 58 262 C 58 301 64 337 76 369 C 88 401 104 429 126 452 C 147 474 172 492 202 504 C 231 516 263 523 298 523 C 332 523 364 516 393 504 C 422 492 447 474 469 452 C 490 429 507 401 519 369 C 531 337 537 301 537 262 C 537 220 531 182 519 148 C 507 114 491 86 470 62 C 449 38 424 19 395 7 C 365 -5 333 -12 298 -12 C 262 -12 229 -5 200 7 C 170 19 145 38 124 62 C 103 86 87 114 75 148 C 63 182 58 220 58 262 Z M 114 262 C 114 227 118 195 127 167 C 135 139 148 115 164 95 C 180 75 199 59 222 49 C 244 38 270 33 298 33 C 325 33 350 38 372 49 C 394 59 414 75 430 95 C 446 115 458 139 467 167 C 475 195 480 227 480 262 C 480 294 475 324 466 350 C 457 376 445 399 429 418 C 413 436 393 451 371 461 C 349 471 324 477 298 477 C 271 477 246 471 224 461 C 201 451 181 436 165 418 C 149 399 136 376 127 350 C 118 324 114 294 114 262 Z" unicode="ö" />
<glyph horiz-adv-x="613" d="M 281 582 L 332 582 L 332 491 L 281 491 L 281 582 Z M 51 376 L 562 376 L 562 326 L 51 326 L 51 376 Z M 281 210 L 332 210 L 332 120 L 281 120 L 281 210 Z" unicode="÷" />
<glyph horiz-adv-x="594" d="M 114 262 C 114 229 117 199 125 173 C 133 146 144 123 158 103 L 409 437 C 378 463 341 477 298 477 C 271 477 246 471 224 461 C 201 451 181 436 165 418 C 149 399 136 376 127 350 C 118 324 114 294 114 262 Z M 480 262 C 480 292 476 320 468 345 C 460 370 448 392 434 411 L 182 76 C 214 47 252 33 298 33 C 325 33 350 38 372 49 C 394 59 414 75 430 95 C 446 115 458 139 467 167 C 475 195 480 227 480 262 Z M 58 262 C 58 301 64 337 76 369 C 88 401 104 429 126 452 C 147 474 172 492 202 504 C 231 516 263 523 298 523 C 351 523 398 508 439 478 L 502 563 L 534 538 L 468 453 C 489 429 506 402 518 370 C 530 338 537 302 537 262 C 537 220 531 182 519 148 C 507 114 491 86 470 62 C 449 38 424 19 395 7 C 365 -5 333 -12 298 -12 C 241 -12 193 3 153 34 L 87 -53 L 55 -29 L 124 62 C 102 85 86 114 75 148 C 63 182 58 220 58 262 Z" unicode="ø" />
<glyph horiz-adv-x="567" d="M 134 703 L 175 735 L 314 566 L 275 566 L 134 703 Z M 82 511 L 137 511 L 137 158 C 137 121 145 91 161 68 C 177 44 207 33 250 33 C 286 33 318 41 348 57 C 377 73 404 96 428 126 L 428 511 L 483 511 L 483 0 L 435 0 L 428 75 C 404 51 377 30 346 13 C 314 -3 279 -12 241 -12 C 212 -12 187 -7 167 0 C 147 8 130 20 118 35 C 105 50 96 68 90 89 C 84 110 82 133 82 159 L 82 511 Z" unicode="ù" />
<glyph horiz-adv-x="567" d="M 389 735 L 430 703 L 289 566 L 250 566 L 389 735 Z M 82 511 L 137 511 L 137 158 C 137 121 145 91 161 68 C 177 44 207 33 250 33 C 286 33 318 41 348 57 C 377 73 404 96 428 126 L 428 511 L 483 511 L 483 0 L 435 0 L 428 75 C 404 51 377 30 346 13 C 314 -3 279 -12 241 -12 C 212 -12 187 -7 167 0 C 147 8 130 20 118 35 C 105 50 96 68 90 89 C 84 110 82 133 82 159 L 82 511 Z" unicode="ú" />
<glyph horiz-adv-x="567" d="M 252 723 L 314 723 L 440 566 L 398 566 L 284 686 L 282 686 L 167 566 L 126 566 L 252 723 Z M 82 511 L 137 511 L 137 158 C 137 121 145 91 161 68 C 177 44 207 33 250 33 C 286 33 318 41 348 57 C 377 73 404 96 428 126 L 428 511 L 483 511 L 483 0 L 435 0 L 428 75 C 404 51 377 30 346 13 C 314 -3 279 -12 241 -12 C 212 -12 187 -7 167 0 C 147 8 130 20 118 35 C 105 50 96 68 90 89 C 84 110 82 133 82 159 L 82 511 Z" unicode="û" />
<glyph horiz-adv-x="567" d="M 165 677 L 221 677 L 221 612 L 165 612 L 165 677 Z M 346 677 L 402 677 L 402 612 L 346 612 L 346 677 Z M 82 511 L 137 511 L 137 158 C 137 121 145 91 161 68 C 177 44 207 33 250 33 C 286 33 318 41 348 57 C 377 73 404 96 428 126 L 428 511 L 483 511 L 483 0 L 435 0 L 428 75 C 404 51 377 30 346 13 C 314 -3 279 -12 241 -12 C 212 -12 187 -7 167 0 C 147 8 130 20 118 35 C 105 50 96 68 90 89 C 84 110 82 133 82 159 L 82 511 Z" unicode="ü" />
<glyph horiz-adv-x="487" d="M 350 735 L 391 703 L 250 566 L 211 566 L 350 735 Z M 36 -150 C 44 -153 53 -156 63 -159 C 73 -161 82 -163 92 -163 C 112 -163 129 -158 143 -149 C 157 -139 170 -121 180 -95 L 218 4 L 26 511 L 85 511 L 245 76 L 247 76 L 403 511 L 461 511 L 234 -102 C 218 -144 199 -172 175 -187 C 151 -202 124 -210 93 -210 C 80 -210 67 -208 54 -206 C 41 -203 30 -200 20 -196 L 36 -150 Z" unicode="ý" />
<glyph horiz-adv-x="580" d="M 143 120 C 165 93 189 72 216 56 C 242 40 271 33 303 33 C 356 33 397 54 425 96 C 453 138 467 193 467 263 C 467 329 452 382 423 420 C 393 458 353 477 302 477 C 269 477 240 469 214 453 C 188 437 165 416 143 391 L 143 120 Z M 143 -200 L 88 -200 L 88 755 L 143 755 L 143 439 C 164 462 188 482 216 498 C 244 514 276 523 312 523 C 343 523 372 517 398 505 C 424 493 446 475 464 453 C 482 431 497 404 507 372 C 517 340 522 303 522 263 C 522 220 517 182 508 148 C 498 114 485 85 467 61 C 449 37 427 19 401 7 C 375 -5 346 -12 313 -12 C 278 -12 247 -4 219 11 C 191 26 165 46 143 72 L 143 -200 Z" unicode="þ" />
<glyph horiz-adv-x="487" d="M 127 677 L 183 677 L 183 612 L 127 612 L 127 677 Z M 308 677 L 364 677 L 364 612 L 308 612 L 308 677 Z M 36 -150 C 44 -153 53 -156 63 -159 C 73 -161 82 -163 92 -163 C 112 -163 129 -158 143 -149 C 157 -139 170 -121 180 -95 L 218 4 L 26 511 L 85 511 L 245 76 L 247 76 L 403 511 L 461 511 L 234 -102 C 218 -144 199 -172 175 -187 C 151 -202 124 -210 93 -210 C 80 -210 67 -208 54 -206 C 41 -203 30 -200 20 -196 L 36 -150 Z" unicode="ÿ" />
<glyph horiz-adv-x="678" d="M 198 830 L 480 830 L 480 788 L 198 788 L 198 830 Z M 185 236 L 493 236 L 340 646 L 338 646 L 185 236 Z M 304 700 L 375 700 L 643 0 L 581 0 L 510 189 L 167 189 L 97 0 L 35 0 L 304 700 Z" unicode="Ā" />
<glyph horiz-adv-x="514" d="M 123 665 L 404 665 L 404 623 L 123 623 L 123 665 Z M 107 116 C 107 90 116 70 134 55 C 152 39 177 32 208 32 C 244 32 275 39 303 55 C 331 70 352 88 367 110 L 367 246 C 338 244 308 242 278 238 C 247 234 219 227 194 217 C 168 207 147 194 131 178 C 115 162 107 141 107 116 Z M 52 113 C 52 146 61 173 80 195 C 99 216 124 233 154 246 C 184 258 217 267 255 273 C 293 279 330 282 367 284 L 367 375 C 367 403 358 427 340 447 C 322 466 293 476 253 476 C 225 476 196 471 168 461 C 140 451 114 441 92 430 L 69 475 C 93 487 122 498 155 508 C 187 518 220 523 254 523 C 284 523 309 519 331 511 C 352 503 369 493 383 480 C 397 466 407 451 413 433 C 419 415 423 395 423 374 L 423 100 C 423 80 427 66 437 56 C 446 46 459 41 477 41 L 477 -1 C 447 -1 423 4 407 16 C 390 28 379 45 373 68 C 353 45 329 26 299 11 C 269 -4 236 -12 198 -12 C 154 -12 118 0 92 22 C 65 44 52 75 52 113 Z" unicode="ā" />
<glyph horiz-adv-x="678" d="M 339 750 C 295 750 259 760 231 780 C 203 800 185 828 176 863 L 219 863 C 226 841 240 824 260 811 C 280 797 307 791 339 791 C 371 791 397 797 417 811 C 437 824 451 841 459 863 L 501 863 C 492 828 474 800 446 780 C 418 760 382 750 339 750 Z M 185 236 L 493 236 L 340 646 L 338 646 L 185 236 Z M 304 700 L 375 700 L 643 0 L 581 0 L 510 189 L 167 189 L 97 0 L 35 0 L 304 700 Z" unicode="Ă" />
<glyph horiz-adv-x="514" d="M 264 563 C 220 563 184 577 156 605 C 128 633 113 673 109 723 L 149 723 C 153 687 166 658 186 637 C 206 616 232 606 264 606 C 296 606 322 616 342 637 C 362 658 374 687 378 723 L 419 723 C 415 673 399 633 371 605 C 343 577 307 563 264 563 Z M 107 116 C 107 90 116 70 134 55 C 152 39 177 32 208 32 C 244 32 275 39 303 55 C 331 70 352 88 367 110 L 367 246 C 338 244 308 242 278 238 C 247 234 219 227 194 217 C 168 207 147 194 131 178 C 115 162 107 141 107 116 Z M 52 113 C 52 146 61 173 80 195 C 99 216 124 233 154 246 C 184 258 217 267 255 273 C 293 279 330 282 367 284 L 367 375 C 367 403 358 427 340 447 C 322 466 293 476 253 476 C 225 476 196 471 168 461 C 140 451 114 441 92 430 L 69 475 C 93 487 122 498 155 508 C 187 518 220 523 254 523 C 284 523 309 519 331 511 C 352 503 369 493 383 480 C 397 466 407 451 413 433 C 419 415 423 395 423 374 L 423 100 C 423 80 427 66 437 56 C 446 46 459 41 477 41 L 477 -1 C 447 -1 423 4 407 16 C 390 28 379 45 373 68 C 353 45 329 26 299 11 C 269 -4 236 -12 198 -12 C 154 -12 118 0 92 22 C 65 44 52 75 52 113 Z" unicode="ă" />
<glyph horiz-adv-x="678" d="M 185 236 L 493 236 L 340 646 L 338 646 L 185 236 Z M 659 -193 C 640 -201 619 -206 595 -206 C 569 -206 547 -198 529 -184 C 510 -170 501 -149 501 -121 C 501 -96 508 -73 523 -53 C 537 -33 557 -15 581 0 L 510 189 L 167 189 L 97 0 L 35 0 L 304 700 L 375 700 L 643 0 L 636 0 C 610 -13 588 -29 571 -47 C 554 -65 546 -87 546 -111 C 546 -127 551 -140 562 -149 C 573 -157 586 -162 601 -162 C 612 -162 622 -160 632 -158 C 641 -155 649 -152 657 -148 L 659 -149 L 659 -193 Z" unicode="Ą" />
<glyph horiz-adv-x="514" d="M 500 -193 C 481 -201 460 -206 437 -206 C 411 -206 388 -198 370 -184 C 351 -170 342 -149 342 -121 C 342 -94 350 -70 366 -49 C 382 -28 404 -10 431 5 C 400 15 381 36 373 68 C 353 45 329 26 299 11 C 269 -4 236 -12 198 -12 C 154 -12 118 0 92 22 C 65 44 52 75 52 113 C 52 146 61 173 80 195 C 99 216 124 233 154 246 C 184 258 217 267 255 273 C 293 279 330 282 367 284 L 367 375 C 367 403 358 427 340 447 C 322 466 293 476 253 476 C 225 476 196 471 168 461 C 140 451 114 441 92 430 L 69 475 C 93 487 122 498 155 508 C 187 518 220 523 254 523 C 284 523 309 519 331 511 C 352 503 369 493 383 480 C 397 466 407 451 413 433 C 419 415 423 395 423 374 L 423 100 C 423 80 427 66 437 56 C 446 46 459 41 477 41 L 477 0 C 451 -13 430 -29 413 -47 C 395 -65 387 -87 387 -112 C 387 -128 392 -141 403 -149 C 414 -157 427 -162 442 -162 C 453 -162 463 -160 473 -158 C 482 -155 490 -152 498 -148 L 500 -150 L 500 -193 Z M 107 116 C 107 90 116 70 134 55 C 152 39 177 32 208 32 C 244 32 275 39 303 55 C 331 70 352 88 367 110 L 367 246 C 338 244 308 242 278 238 C 247 234 219 227 194 217 C 168 207 147 194 131 178 C 115 162 107 141 107 116 Z" unicode="ą" />
<glyph horiz-adv-x="712" d="M 461 880 L 506 846 L 394 755 L 350 755 L 461 880 Z M 60 359 C 60 411 68 459 85 503 C 102 546 126 583 157 614 C 187 645 224 669 267 686 C 309 703 356 712 408 712 C 450 712 490 706 528 694 C 566 682 601 664 631 642 L 600 599 C 573 619 543 634 511 645 C 479 656 445 662 409 662 C 365 662 326 654 290 640 C 254 625 223 604 197 578 C 171 552 152 520 138 483 C 124 445 117 404 117 359 C 117 311 123 267 137 227 C 151 187 170 154 196 126 C 222 98 253 76 289 61 C 325 45 365 38 409 38 C 449 38 486 44 521 57 C 555 70 585 89 611 113 L 647 75 C 616 46 580 24 539 10 C 498 -4 454 -12 407 -12 C 355 -12 307 -3 265 15 C 222 33 185 58 155 90 C 125 122 101 161 85 207 C 68 253 60 303 60 359 Z" unicode="Ć" />
<glyph horiz-adv-x="508" d="M 382 735 L 423 703 L 282 566 L 243 566 L 382 735 Z M 57 262 C 57 302 62 338 74 370 C 86 402 102 430 123 452 C 143 474 168 492 197 504 C 226 516 258 523 292 523 C 326 523 357 518 383 508 C 409 498 432 486 450 473 L 420 433 C 406 443 389 452 368 461 C 347 470 322 475 293 475 C 267 475 243 470 221 460 C 199 450 180 435 164 417 C 148 399 135 376 126 350 C 117 324 113 294 113 262 C 113 191 129 135 162 95 C 194 55 238 35 293 35 C 323 35 349 39 370 49 C 391 58 411 70 429 86 L 462 50 C 438 30 413 15 387 4 C 361 -6 329 -12 292 -12 C 257 -12 225 -5 196 7 C 167 19 142 37 122 61 C 101 85 85 113 74 147 C 62 181 57 219 57 262 Z" unicode="ć" />
<glyph horiz-adv-x="712" d="M 351 863 L 411 863 L 539 755 L 498 755 L 382 828 L 381 828 L 264 755 L 223 755 L 351 863 Z M 60 359 C 60 411 68 459 85 503 C 102 546 126 583 157 614 C 187 645 224 669 267 686 C 309 703 356 712 408 712 C 450 712 490 706 528 694 C 566 682 601 664 631 642 L 600 599 C 573 619 543 634 511 645 C 479 656 445 662 409 662 C 365 662 326 654 290 640 C 254 625 223 604 197 578 C 171 552 152 520 138 483 C 124 445 117 404 117 359 C 117 311 123 267 137 227 C 151 187 170 154 196 126 C 222 98 253 76 289 61 C 325 45 365 38 409 38 C 449 38 486 44 521 57 C 555 70 585 89 611 113 L 647 75 C 616 46 580 24 539 10 C 498 -4 454 -12 407 -12 C 355 -12 307 -3 265 15 C 222 33 185 58 155 90 C 125 122 101 161 85 207 C 68 253 60 303 60 359 Z" unicode="Ĉ" />
<glyph horiz-adv-x="508" d="M 246 723 L 308 723 L 434 566 L 392 566 L 278 686 L 276 686 L 161 566 L 120 566 L 246 723 Z M 57 262 C 57 302 62 338 74 370 C 86 402 102 430 123 452 C 143 474 168 492 197 504 C 226 516 258 523 292 523 C 326 523 357 518 383 508 C 409 498 432 486 450 473 L 420 433 C 406 443 389 452 368 461 C 347 470 322 475 293 475 C 267 475 243 470 221 460 C 199 450 180 435 164 417 C 148 399 135 376 126 350 C 117 324 113 294 113 262 C 113 191 129 135 162 95 C 194 55 238 35 293 35 C 323 35 349 39 370 49 C 391 58 411 70 429 86 L 462 50 C 438 30 413 15 387 4 C 361 -6 329 -12 292 -12 C 257 -12 225 -5 196 7 C 167 19 142 37 122 61 C 101 85 85 113 74 147 C 62 181 57 219 57 262 Z" unicode="ĉ" />
<glyph horiz-adv-x="712" d="M 353 857 L 408 857 L 408 777 L 353 777 L 353 857 Z M 60 359 C 60 411 68 459 85 503 C 102 546 126 583 157 614 C 187 645 224 669 267 686 C 309 703 356 712 408 712 C 450 712 490 706 528 694 C 566 682 601 664 631 642 L 600 599 C 573 619 543 634 511 645 C 479 656 445 662 409 662 C 365 662 326 654 290 640 C 254 625 223 604 197 578 C 171 552 152 520 138 483 C 124 445 117 404 117 359 C 117 311 123 267 137 227 C 151 187 170 154 196 126 C 222 98 253 76 289 61 C 325 45 365 38 409 38 C 449 38 486 44 521 57 C 555 70 585 89 611 113 L 647 75 C 616 46 580 24 539 10 C 498 -4 454 -12 407 -12 C 355 -12 307 -3 265 15 C 222 33 185 58 155 90 C 125 122 101 161 85 207 C 68 253 60 303 60 359 Z" unicode="Ċ" />
<glyph horiz-adv-x="508" d="M 248 739 L 303 739 L 303 658 L 248 658 L 248 739 Z M 57 262 C 57 302 62 338 74 370 C 86 402 102 430 123 452 C 143 474 168 492 197 504 C 226 516 258 523 292 523 C 326 523 357 518 383 508 C 409 498 432 486 450 473 L 420 433 C 406 443 389 452 368 461 C 347 470 322 475 293 475 C 267 475 243 470 221 460 C 199 450 180 435 164 417 C 148 399 135 376 126 350 C 117 324 113 294 113 262 C 113 191 129 135 162 95 C 194 55 238 35 293 35 C 323 35 349 39 370 49 C 391 58 411 70 429 86 L 462 50 C 438 30 413 15 387 4 C 361 -6 329 -12 292 -12 C 257 -12 225 -5 196 7 C 167 19 142 37 122 61 C 101 85 85 113 74 147 C 62 181 57 219 57 262 Z" unicode="ċ" />
<glyph horiz-adv-x="712" d="M 223 863 L 264 863 L 381 791 L 382 791 L 498 863 L 539 863 L 411 755 L 351 755 L 223 863 Z M 60 359 C 60 411 68 459 85 503 C 102 546 126 583 157 614 C 187 645 224 669 267 686 C 309 703 356 712 408 712 C 450 712 490 706 528 694 C 566 682 601 664 631 642 L 600 599 C 573 619 543 634 511 645 C 479 656 445 662 409 662 C 365 662 326 654 290 640 C 254 625 223 604 197 578 C 171 552 152 520 138 483 C 124 445 117 404 117 359 C 117 311 123 267 137 227 C 151 187 170 154 196 126 C 222 98 253 76 289 61 C 325 45 365 38 409 38 C 449 38 486 44 521 57 C 555 70 585 89 611 113 L 647 75 C 616 46 580 24 539 10 C 498 -4 454 -12 407 -12 C 355 -12 307 -3 265 15 C 222 33 185 58 155 90 C 125 122 101 161 85 207 C 68 253 60 303 60 359 Z" unicode="Č" />
<glyph horiz-adv-x="508" d="M 120 723 L 161 723 L 276 603 L 278 603 L 392 723 L 434 723 L 308 566 L 246 566 L 120 723 Z M 57 262 C 57 302 62 338 74 370 C 86 402 102 430 123 452 C 143 474 168 492 197 504 C 226 516 258 523 292 523 C 326 523 357 518 383 508 C 409 498 432 486 450 473 L 420 433 C 406 443 389 452 368 461 C 347 470 322 475 293 475 C 267 475 243 470 221 460 C 199 450 180 435 164 417 C 148 399 135 376 126 350 C 117 324 113 294 113 262 C 113 191 129 135 162 95 C 194 55 238 35 293 35 C 323 35 349 39 370 49 C 391 58 411 70 429 86 L 462 50 C 438 30 413 15 387 4 C 361 -6 329 -12 292 -12 C 257 -12 225 -5 196 7 C 167 19 142 37 122 61 C 101 85 85 113 74 147 C 62 181 57 219 57 262 Z" unicode="č" />
<glyph horiz-adv-x="708" d="M 211 863 L 252 863 L 369 791 L 370 791 L 486 863 L 527 863 L 399 755 L 339 755 L 211 863 Z M 90 700 L 280 700 C 340 700 393 692 439 676 C 485 660 523 638 554 608 C 585 578 609 542 625 500 C 641 458 649 410 649 357 C 649 301 641 251 626 207 C 611 163 588 125 558 95 C 527 64 488 40 442 24 C 396 8 342 0 280 0 L 90 0 L 90 700 Z M 283 49 C 387 49 464 76 515 131 C 566 186 592 261 592 357 C 592 402 585 443 572 479 C 558 515 539 546 513 572 C 487 597 454 616 416 630 C 377 644 333 651 283 651 L 146 651 L 146 49 L 283 49 Z" unicode="Ď" />
<glyph horiz-adv-x="579" d="M 565 717 C 569 718 575 719 581 720 C 587 720 593 721 599 721 C 624 721 643 714 655 702 C 667 690 674 674 674 655 C 674 639 669 622 659 606 C 648 589 635 574 619 560 L 578 560 C 594 576 606 591 615 606 C 624 621 629 635 629 648 C 629 658 625 666 619 673 C 613 680 603 684 590 684 C 586 684 582 683 578 683 C 574 682 570 681 565 681 L 565 717 Z M 277 34 C 307 34 336 41 363 57 C 389 72 414 93 437 120 L 437 391 C 414 416 390 437 364 453 C 338 469 310 477 278 477 C 226 477 186 458 157 420 C 127 382 113 329 113 263 C 113 193 127 138 155 96 C 183 54 224 34 277 34 Z M 267 -12 C 234 -12 205 -5 179 7 C 153 19 131 37 113 61 C 95 85 81 114 72 148 C 62 182 58 220 58 263 C 58 303 63 340 73 372 C 83 404 97 431 115 453 C 133 475 155 493 181 505 C 207 517 236 523 268 523 C 304 523 335 514 363 498 C 391 482 415 462 437 440 L 437 755 L 492 755 L 492 0 L 446 0 L 439 73 C 415 47 390 27 362 11 C 334 -4 302 -12 267 -12 Z" unicode="ď" />
<glyph horiz-adv-x="742" d="M 124 331 L 15 331 L 15 372 L 124 372 L 124 700 L 314 700 C 374 700 427 692 473 676 C 519 660 557 638 588 608 C 619 578 643 542 659 500 C 675 458 683 410 683 357 C 683 301 675 251 660 207 C 645 163 622 125 592 95 C 561 64 522 40 476 24 C 430 8 376 0 314 0 L 124 0 L 124 331 Z M 317 49 C 421 49 498 76 549 131 C 600 186 626 261 626 357 C 626 402 619 443 606 479 C 592 515 573 546 547 572 C 521 597 488 616 450 630 C 411 644 367 651 317 651 L 180 651 L 180 372 L 409 372 L 409 331 L 180 331 L 180 49 L 317 49 Z" unicode="Đ" />
<glyph horiz-adv-x="579" d="M 277 34 C 307 34 336 41 363 57 C 389 72 414 93 437 120 L 437 391 C 414 416 390 437 364 453 C 338 469 310 477 278 477 C 226 477 186 458 157 420 C 127 382 113 329 113 263 C 113 193 127 138 155 96 C 183 54 224 34 277 34 Z M 267 -12 C 234 -12 205 -5 179 7 C 153 19 131 37 113 61 C 95 85 81 114 72 148 C 62 182 58 220 58 263 C 58 303 63 340 73 372 C 83 404 97 431 115 453 C 133 475 155 493 181 505 C 207 517 236 523 268 523 C 304 523 335 514 363 498 C 391 482 415 462 437 440 L 437 620 L 288 620 L 288 661 L 437 661 L 437 755 L 492 755 L 492 661 L 568 661 L 568 620 L 492 620 L 492 0 L 446 0 L 439 73 C 415 47 390 27 362 11 C 334 -4 302 -12 267 -12 Z" unicode="đ" />
<glyph horiz-adv-x="634" d="M 186 830 L 468 830 L 468 788 L 186 788 L 186 830 Z M 90 700 L 557 700 L 557 649 L 146 649 L 146 381 L 517 381 L 517 333 L 146 333 L 146 51 L 563 51 L 563 0 L 90 0 L 90 700 Z" unicode="Ē" />
<glyph horiz-adv-x="559" d="M 153 665 L 434 665 L 434 623 L 153 623 L 153 665 Z M 58 262 C 58 302 64 338 76 370 C 88 402 104 429 125 452 C 146 474 171 492 201 504 C 230 516 262 523 296 523 C 331 523 361 517 387 506 C 412 494 433 479 450 459 C 466 439 478 415 486 388 C 494 361 498 332 498 300 C 498 294 497 288 497 281 C 497 274 496 268 496 263 L 113 263 L 113 261 C 113 189 128 134 159 94 C 189 54 236 35 299 35 C 328 35 356 39 383 49 C 410 59 433 70 453 84 L 480 45 C 456 28 428 14 396 4 C 364 -6 331 -12 297 -12 C 218 -12 158 12 118 60 C 78 108 58 176 58 262 Z M 297 479 C 249 479 208 463 176 432 C 143 401 123 358 116 304 L 444 304 C 444 328 442 350 437 371 C 431 392 423 411 411 427 C 399 443 384 455 366 465 C 347 474 324 479 297 479 Z" unicode="ē" />
<glyph horiz-adv-x="634" d="M 327 750 C 283 750 247 760 219 780 C 191 800 173 828 164 863 L 207 863 C 214 841 228 824 248 811 C 268 797 295 791 327 791 C 359 791 385 797 405 811 C 425 824 439 841 447 863 L 489 863 C 480 828 462 800 434 780 C 406 760 370 750 327 750 Z M 90 700 L 557 700 L 557 649 L 146 649 L 146 381 L 517 381 L 517 333 L 146 333 L 146 51 L 563 51 L 563 0 L 90 0 L 90 700 Z" unicode="Ĕ" />
<glyph horiz-adv-x="559" d="M 294 563 C 250 563 214 577 186 605 C 158 633 143 673 139 723 L 179 723 C 183 687 196 658 216 637 C 236 616 262 606 294 606 C 326 606 352 616 372 637 C 392 658 404 687 408 723 L 449 723 C 445 673 429 633 401 605 C 373 577 337 563 294 563 Z M 58 262 C 58 302 64 338 76 370 C 88 402 104 429 125 452 C 146 474 171 492 201 504 C 230 516 262 523 296 523 C 331 523 361 517 387 506 C 412 494 433 479 450 459 C 466 439 478 415 486 388 C 494 361 498 332 498 300 C 498 294 497 288 497 281 C 497 274 496 268 496 263 L 113 263 L 113 261 C 113 189 128 134 159 94 C 189 54 236 35 299 35 C 328 35 356 39 383 49 C 410 59 433 70 453 84 L 480 45 C 456 28 428 14 396 4 C 364 -6 331 -12 297 -12 C 218 -12 158 12 118 60 C 78 108 58 176 58 262 Z M 297 479 C 249 479 208 463 176 432 C 143 401 123 358 116 304 L 444 304 C 444 328 442 350 437 371 C 431 392 423 411 411 427 C 399 443 384 455 366 465 C 347 474 324 479 297 479 Z" unicode="ĕ" />
<glyph horiz-adv-x="634" d="M 299 857 L 354 857 L 354 777 L 299 777 L 299 857 Z M 90 700 L 557 700 L 557 649 L 146 649 L 146 381 L 517 381 L 517 333 L 146 333 L 146 51 L 563 51 L 563 0 L 90 0 L 90 700 Z" unicode="Ė" />
<glyph horiz-adv-x="559" d="M 265 739 L 320 739 L 320 658 L 265 658 L 265 739 Z M 297 479 C 249 479 208 463 176 432 C 143 401 123 358 116 304 L 444 304 C 444 328 442 350 437 371 C 431 392 423 411 411 427 C 399 443 384 455 366 465 C 347 474 324 479 297 479 Z M 480 45 C 456 28 428 14 396 4 C 364 -6 331 -12 297 -12 C 218 -12 158 12 118 60 C 78 108 58 176 58 262 C 58 302 64 338 76 370 C 88 402 104 429 125 452 C 146 474 171 492 201 504 C 230 516 262 523 296 523 C 331 523 361 517 387 506 C 412 494 433 479 450 459 C 466 439 478 415 486 388 C 494 361 498 332 498 300 C 498 294 497 288 497 281 C 497 274 496 268 496 263 L 113 263 L 113 261 C 113 189 128 134 159 94 C 189 54 236 35 299 35 C 328 35 356 39 383 49 C 410 59 433 70 453 84 L 480 45 Z" unicode="ė" />
<glyph horiz-adv-x="634" d="M 90 700 L 557 700 L 557 649 L 146 649 L 146 381 L 517 381 L 517 333 L 146 333 L 146 51 L 563 51 L 563 2 L 564 0 C 538 -13 516 -29 499 -47 C 482 -65 474 -87 474 -111 C 474 -127 479 -140 490 -149 C 501 -157 514 -162 529 -162 C 540 -162 550 -160 560 -158 C 569 -155 577 -152 585 -148 L 587 -149 L 587 -193 C 568 -201 547 -206 523 -206 C 497 -206 475 -198 457 -184 C 438 -170 429 -149 429 -121 C 429 -95 436 -73 451 -53 C 465 -33 485 -15 509 0 L 90 0 L 90 700 Z" unicode="Ę" />
<glyph horiz-adv-x="559" d="M 58 262 C 58 302 64 338 76 370 C 88 402 104 429 125 452 C 146 474 171 492 201 504 C 230 516 262 523 296 523 C 331 523 361 517 387 506 C 412 494 433 479 450 459 C 466 439 478 415 486 388 C 494 361 498 332 498 300 C 498 294 497 288 497 281 C 497 274 496 268 496 263 L 114 263 L 114 254 C 114 185 130 131 160 93 C 190 54 237 35 299 35 C 328 35 356 39 383 49 C 410 59 433 70 453 84 L 480 45 L 444 23 C 429 15 414 6 400 -2 C 385 -10 372 -20 361 -31 C 349 -42 340 -54 333 -67 C 325 -79 322 -94 322 -110 C 322 -127 327 -140 338 -149 C 348 -157 362 -162 380 -162 C 391 -162 401 -160 411 -158 C 420 -155 428 -152 436 -148 L 439 -150 L 439 -193 C 419 -201 398 -206 375 -206 C 346 -206 322 -198 304 -184 C 286 -169 277 -148 277 -120 C 277 -97 283 -76 295 -58 C 307 -39 323 -22 342 -7 C 326 -10 311 -12 297 -12 C 218 -12 158 12 118 60 C 78 108 58 176 58 262 Z M 297 479 C 249 479 208 463 176 432 C 143 400 123 358 116 304 L 444 304 C 444 328 442 350 437 371 C 431 392 423 411 411 427 C 399 443 384 455 366 465 C 347 474 324 479 297 479 Z" unicode="ę" />
<glyph horiz-adv-x="634" d="M 168 863 L 209 863 L 326 791 L 327 791 L 443 863 L 484 863 L 356 755 L 296 755 L 168 863 Z M 90 700 L 557 700 L 557 649 L 146 649 L 146 381 L 517 381 L 517 333 L 146 333 L 146 51 L 563 51 L 563 0 L 90 0 L 90 700 Z" unicode="Ě" />
<glyph horiz-adv-x="559" d="M 137 723 L 178 723 L 293 603 L 295 603 L 409 723 L 451 723 L 325 566 L 263 566 L 137 723 Z M 58 262 C 58 302 64 338 76 370 C 88 402 104 429 125 452 C 146 474 171 492 201 504 C 230 516 262 523 296 523 C 331 523 361 517 387 506 C 412 494 433 479 450 459 C 466 439 478 415 486 388 C 494 361 498 332 498 300 C 498 294 497 288 497 281 C 497 274 496 268 496 263 L 113 263 L 113 261 C 113 189 128 134 159 94 C 189 54 236 35 299 35 C 328 35 356 39 383 49 C 410 59 433 70 453 84 L 480 45 C 456 28 428 14 396 4 C 364 -6 331 -12 297 -12 C 218 -12 158 12 118 60 C 78 108 58 176 58 262 Z M 297 479 C 249 479 208 463 176 432 C 143 401 123 358 116 304 L 444 304 C 444 328 442 350 437 371 C 431 392 423 411 411 427 C 399 443 384 455 366 465 C 347 474 324 479 297 479 Z" unicode="ě" />
<glyph horiz-adv-x="724" d="M 351 863 L 411 863 L 539 755 L 498 755 L 382 828 L 381 828 L 264 755 L 223 755 L 351 863 Z M 60 359 C 60 411 68 458 85 502 C 101 545 125 582 156 613 C 186 644 223 668 266 686 C 308 703 356 712 408 712 C 450 712 490 706 528 696 C 566 686 601 671 633 651 L 604 609 C 576 626 546 639 513 648 C 479 657 445 662 409 662 C 365 662 326 654 290 640 C 254 625 224 604 198 578 C 172 551 153 519 139 482 C 125 445 118 404 118 359 C 118 310 124 266 138 226 C 151 186 170 153 195 125 C 220 97 251 75 287 60 C 323 45 363 38 409 38 C 445 38 479 42 511 50 C 543 58 570 70 592 84 L 592 312 L 381 312 L 381 357 L 645 357 L 645 55 C 613 33 576 17 536 5 C 495 -6 452 -12 408 -12 C 354 -12 306 -3 263 14 C 220 31 184 56 154 88 C 124 120 100 159 84 205 C 68 251 60 302 60 359 Z" unicode="Ĝ" />
<glyph horiz-adv-x="564" d="M 257 723 L 319 723 L 445 566 L 403 566 L 289 686 L 287 686 L 172 566 L 131 566 L 257 723 Z M 259 191 C 281 191 301 194 320 202 C 338 209 354 219 368 232 C 382 245 393 261 401 279 C 409 297 413 316 413 337 C 413 357 409 376 401 394 C 393 411 382 426 368 439 C 354 451 338 461 320 469 C 301 476 281 480 259 480 C 237 480 217 476 199 469 C 180 461 164 451 150 439 C 136 426 126 411 118 394 C 110 376 107 357 107 337 C 107 316 110 297 118 279 C 126 261 136 245 150 232 C 164 219 180 209 199 202 C 217 194 237 191 259 191 Z M 39 -76 C 39 -49 47 -26 65 -8 C 82 10 105 25 133 37 C 103 54 89 78 89 110 C 89 125 93 139 102 152 C 110 165 121 176 135 184 C 109 200 89 222 75 248 C 60 274 53 303 53 337 C 53 364 58 389 69 412 C 79 434 94 454 112 470 C 130 486 152 499 178 509 C 203 518 230 523 259 523 C 311 523 355 509 393 481 C 411 494 431 505 454 513 C 476 521 503 525 535 524 L 535 479 C 507 479 485 478 467 475 C 449 471 433 466 418 459 C 433 443 445 424 454 404 C 462 383 467 361 467 337 C 467 309 461 283 450 260 C 439 237 424 217 405 201 C 386 184 364 171 339 162 C 313 153 287 149 259 149 C 227 149 196 155 167 168 C 157 162 149 154 143 146 C 137 137 134 128 134 118 C 134 104 138 93 146 85 C 154 77 166 70 180 66 C 194 62 212 59 232 57 C 252 55 274 54 298 53 C 328 51 357 47 385 43 C 412 38 436 31 456 21 C 476 11 493 -1 505 -17 C 517 -33 523 -52 523 -75 C 523 -118 502 -151 460 -175 C 418 -198 357 -210 276 -210 C 199 -210 140 -198 100 -175 C 59 -151 39 -118 39 -76 Z M 286 7 C 243 8 208 12 180 20 C 154 12 133 0 117 -15 C 100 -31 92 -51 92 -75 C 92 -105 107 -128 139 -144 C 170 -160 215 -168 274 -168 C 336 -168 385 -160 419 -146 C 453 -131 470 -109 470 -79 C 470 -63 465 -50 456 -40 C 446 -29 433 -20 417 -14 C 401 -8 381 -3 359 0 C 336 3 312 5 286 7 Z" unicode="ĝ" />
<glyph horiz-adv-x="724" d="M 381 750 C 337 750 301 760 273 780 C 245 800 227 828 218 863 L 261 863 C 268 841 282 824 302 811 C 322 797 349 791 381 791 C 413 791 439 797 459 811 C 479 824 493 841 501 863 L 543 863 C 534 828 516 800 488 780 C 460 760 424 750 381 750 Z M 60 359 C 60 411 68 458 85 502 C 101 545 125 582 156 613 C 186 644 223 668 266 686 C 308 703 356 712 408 712 C 450 712 490 706 528 696 C 566 686 601 671 633 651 L 604 609 C 576 626 546 639 513 648 C 479 657 445 662 409 662 C 365 662 326 654 290 640 C 254 625 224 604 198 578 C 172 551 153 519 139 482 C 125 445 118 404 118 359 C 118 310 124 266 138 226 C 151 186 170 153 195 125 C 220 97 251 75 287 60 C 323 45 363 38 409 38 C 445 38 479 42 511 50 C 543 58 570 70 592 84 L 592 312 L 381 312 L 381 357 L 645 357 L 645 55 C 613 33 576 17 536 5 C 495 -6 452 -12 408 -12 C 354 -12 306 -3 263 14 C 220 31 184 56 154 88 C 124 120 100 159 84 205 C 68 251 60 302 60 359 Z" unicode="Ğ" />
<glyph horiz-adv-x="564" d="M 288 563 C 244 563 208 577 180 605 C 152 633 137 673 133 723 L 173 723 C 177 687 190 658 210 637 C 230 616 256 606 288 606 C 320 606 346 616 366 637 C 386 658 398 687 402 723 L 443 723 C 439 673 423 633 395 605 C 367 577 331 563 288 563 Z M 259 191 C 281 191 301 194 320 202 C 338 209 354 219 368 232 C 382 245 393 261 401 279 C 409 297 413 316 413 337 C 413 357 409 376 401 394 C 393 411 382 426 368 439 C 354 451 338 461 320 469 C 301 476 281 480 259 480 C 237 480 217 476 199 469 C 180 461 164 451 150 439 C 136 426 126 411 118 394 C 110 376 107 357 107 337 C 107 316 110 297 118 279 C 126 261 136 245 150 232 C 164 219 180 209 199 202 C 217 194 237 191 259 191 Z M 39 -76 C 39 -49 47 -26 65 -8 C 82 10 105 25 133 37 C 103 54 89 78 89 110 C 89 125 93 139 102 152 C 110 165 121 176 135 184 C 109 200 89 222 75 248 C 60 274 53 303 53 337 C 53 364 58 389 69 412 C 79 434 94 454 112 470 C 130 486 152 499 178 509 C 203 518 230 523 259 523 C 311 523 355 509 393 481 C 411 494 431 505 454 513 C 476 521 503 525 535 524 L 535 479 C 507 479 485 478 467 475 C 449 471 433 466 418 459 C 433 443 445 424 454 404 C 462 383 467 361 467 337 C 467 309 461 283 450 260 C 439 237 424 217 405 201 C 386 184 364 171 339 162 C 313 153 287 149 259 149 C 227 149 196 155 167 168 C 157 162 149 154 143 146 C 137 137 134 128 134 118 C 134 104 138 93 146 85 C 154 77 166 70 180 66 C 194 62 212 59 232 57 C 252 55 274 54 298 53 C 328 51 357 47 385 43 C 412 38 436 31 456 21 C 476 11 493 -1 505 -17 C 517 -33 523 -52 523 -75 C 523 -118 502 -151 460 -175 C 418 -198 357 -210 276 -210 C 199 -210 140 -198 100 -175 C 59 -151 39 -118 39 -76 Z M 286 7 C 243 8 208 12 180 20 C 154 12 133 0 117 -15 C 100 -31 92 -51 92 -75 C 92 -105 107 -128 139 -144 C 170 -160 215 -168 274 -168 C 336 -168 385 -160 419 -146 C 453 -131 470 -109 470 -79 C 470 -63 465 -50 456 -40 C 446 -29 433 -20 417 -14 C 401 -8 381 -3 359 0 C 336 3 312 5 286 7 Z" unicode="ğ" />
<glyph horiz-adv-x="724" d="M 353 857 L 408 857 L 408 777 L 353 777 L 353 857 Z M 60 359 C 60 411 68 458 85 502 C 101 545 125 582 156 613 C 186 644 223 668 266 686 C 308 703 356 712 408 712 C 450 712 490 706 528 696 C 566 686 601 671 633 651 L 604 609 C 576 626 546 639 513 648 C 479 657 445 662 409 662 C 365 662 326 654 290 640 C 254 625 224 604 198 578 C 172 551 153 519 139 482 C 125 445 118 404 118 359 C 118 310 124 266 138 226 C 151 186 170 153 195 125 C 220 97 251 75 287 60 C 323 45 363 38 409 38 C 445 38 479 42 511 50 C 543 58 570 70 592 84 L 592 312 L 381 312 L 381 357 L 645 357 L 645 55 C 613 33 576 17 536 5 C 495 -6 452 -12 408 -12 C 354 -12 306 -3 263 14 C 220 31 184 56 154 88 C 124 120 100 159 84 205 C 68 251 60 302 60 359 Z" unicode="Ġ" />
<glyph horiz-adv-x="564" d="M 257 739 L 312 739 L 312 658 L 257 658 L 257 739 Z M 259 191 C 281 191 301 194 320 202 C 338 209 354 219 368 232 C 382 245 393 261 401 279 C 409 297 413 316 413 337 C 413 357 409 376 401 394 C 393 411 382 426 368 439 C 354 451 338 461 320 469 C 301 476 281 480 259 480 C 237 480 217 476 199 469 C 180 461 164 451 150 439 C 136 426 126 411 118 394 C 110 376 107 357 107 337 C 107 316 110 297 118 279 C 126 261 136 245 150 232 C 164 219 180 209 199 202 C 217 194 237 191 259 191 Z M 523 -75 C 523 -118 502 -151 460 -175 C 418 -198 357 -210 276 -210 C 199 -210 140 -198 100 -175 C 59 -151 39 -118 39 -76 C 39 -49 47 -26 65 -7 C 82 11 105 26 133 38 C 103 54 89 78 89 110 C 89 125 93 139 102 152 C 111 165 122 176 136 185 C 110 201 90 222 75 248 C 60 274 53 303 53 337 C 53 364 58 389 69 412 C 79 434 94 454 112 470 C 130 486 152 499 178 509 C 203 518 230 523 259 523 C 311 523 355 509 393 481 C 411 494 432 505 455 513 C 477 521 504 525 535 524 L 535 479 C 507 479 485 478 467 475 C 449 471 433 466 418 459 C 433 443 445 424 454 404 C 462 383 467 361 467 337 C 467 309 461 283 450 260 C 439 237 424 217 405 201 C 386 184 364 171 339 162 C 313 153 287 149 259 149 C 227 149 196 155 167 168 C 157 162 149 154 143 146 C 137 137 134 128 134 118 C 134 104 138 93 146 85 C 154 77 166 70 180 66 C 194 62 212 59 232 57 C 252 55 274 54 298 53 C 328 51 357 47 385 43 C 412 38 436 31 456 21 C 476 11 493 -1 505 -17 C 517 -33 523 -52 523 -75 Z M 274 -168 C 336 -168 385 -160 419 -146 C 453 -131 470 -109 470 -79 C 470 -63 465 -50 456 -40 C 446 -29 433 -20 417 -14 C 401 -8 381 -3 359 0 C 336 3 312 5 286 7 C 265 8 246 10 228 12 C 210 14 194 16 180 20 C 154 12 133 0 117 -15 C 100 -31 92 -51 92 -75 C 92 -105 107 -128 139 -144 C 170 -160 215 -168 274 -168 Z" unicode="ġ" />
<glyph horiz-adv-x="724" d="M 60 359 C 60 411 68 458 85 502 C 101 545 125 582 156 613 C 186 644 223 668 266 686 C 308 703 356 712 408 712 C 450 712 490 706 528 696 C 566 686 601 671 633 651 L 604 609 C 576 626 546 639 513 648 C 479 657 445 662 409 662 C 365 662 326 654 290 640 C 254 625 224 604 198 578 C 172 551 153 519 139 482 C 125 445 118 404 118 359 C 118 310 124 266 138 226 C 151 186 170 153 195 125 C 220 97 251 75 287 60 C 323 45 363 38 409 38 C 445 38 479 42 511 50 C 543 58 570 70 592 84 L 592 312 L 381 312 L 381 357 L 645 357 L 645 55 C 613 33 576 17 536 5 C 495 -6 452 -12 408 -12 C 354 -12 306 -3 263 14 C 220 31 184 56 154 88 C 124 120 100 159 84 205 C 68 251 60 302 60 359 Z M 326 -55 C 330 -53 336 -52 342 -52 C 348 -51 354 -51 361 -51 C 386 -51 405 -57 417 -69 C 429 -81 435 -97 435 -117 C 435 -133 430 -149 420 -166 C 409 -182 396 -198 380 -212 L 339 -212 C 355 -196 367 -181 376 -166 C 385 -150 390 -137 390 -125 C 390 -114 386 -105 380 -98 C 374 -91 364 -88 351 -89 C 347 -89 343 -89 339 -89 C 335 -89 330 -90 326 -91 L 326 -55 Z" unicode="Ģ" />
<glyph horiz-adv-x="564" d="M 331 568 C 326 566 321 565 315 565 C 309 564 303 564 297 564 C 271 564 252 570 240 582 C 228 594 222 610 222 630 C 221 646 226 662 237 679 C 247 695 261 711 277 725 L 318 725 C 302 709 289 693 280 678 C 271 663 267 649 267 637 C 267 627 270 618 276 611 C 282 604 292 601 306 601 C 310 601 313 601 317 602 C 321 602 325 603 331 604 L 331 568 Z M 259 191 C 281 191 301 194 320 202 C 338 209 354 219 368 232 C 382 245 393 261 401 279 C 409 297 413 316 413 337 C 413 357 409 376 401 394 C 393 411 382 426 368 439 C 354 451 338 461 320 469 C 301 476 281 480 259 480 C 237 480 217 476 199 469 C 180 461 164 451 150 439 C 136 426 126 411 118 394 C 110 376 107 357 107 337 C 107 316 110 297 118 279 C 126 261 136 245 150 232 C 164 219 180 209 199 202 C 217 194 237 191 259 191 Z M 39 -76 C 39 -49 47 -26 65 -8 C 82 10 105 25 133 37 C 103 54 89 78 89 110 C 89 125 93 139 102 152 C 110 165 121 176 135 184 C 109 200 89 222 75 248 C 60 274 53 303 53 337 C 53 364 58 389 69 412 C 79 434 94 454 112 470 C 130 486 152 499 178 509 C 203 518 230 523 259 523 C 311 523 355 509 393 481 C 411 494 431 505 454 513 C 476 521 503 525 535 524 L 535 479 C 507 479 485 478 467 475 C 449 471 433 466 418 459 C 433 443 445 424 454 404 C 462 383 467 361 467 337 C 467 309 461 283 450 260 C 439 237 424 217 405 201 C 386 184 364 171 339 162 C 313 153 287 149 259 149 C 227 149 196 155 167 168 C 157 162 149 154 143 146 C 137 137 134 128 134 118 C 134 104 138 93 146 85 C 154 77 166 70 180 66 C 194 62 212 59 232 57 C 252 55 274 54 298 53 C 328 51 357 47 385 43 C 412 38 436 31 456 21 C 476 11 493 -1 505 -17 C 517 -33 523 -52 523 -75 C 523 -118 502 -151 460 -175 C 418 -198 357 -210 276 -210 C 199 -210 140 -198 100 -175 C 59 -151 39 -118 39 -76 Z M 286 7 C 243 8 208 12 180 20 C 154 12 133 0 117 -15 C 100 -31 92 -51 92 -75 C 92 -105 107 -128 139 -144 C 170 -160 215 -168 274 -168 C 336 -168 385 -160 419 -146 C 453 -131 470 -109 470 -79 C 470 -63 465 -50 456 -40 C 446 -29 433 -20 417 -14 C 401 -8 381 -3 359 0 C 336 3 312 5 286 7 Z" unicode="ģ" />
<glyph horiz-adv-x="697" d="M 318 863 L 378 863 L 506 755 L 465 755 L 349 828 L 348 828 L 231 755 L 190 755 L 318 863 Z M 90 700 L 146 700 L 146 382 L 551 382 L 551 700 L 608 700 L 608 0 L 551 0 L 551 331 L 146 331 L 146 0 L 90 0 L 90 700 Z" unicode="Ĥ" />
<glyph horiz-adv-x="570" d="M 85 905 L 145 905 L 273 797 L 232 797 L 116 870 L 115 870 L -2 797 L -43 797 L 85 905 Z M 88 755 L 143 755 L 143 434 C 166 459 193 480 225 497 C 256 514 291 523 329 523 C 358 523 383 518 403 510 C 423 502 440 490 452 475 C 464 460 473 442 479 421 C 485 400 488 377 488 352 L 488 0 L 433 0 L 433 353 C 433 389 424 419 408 442 C 391 465 362 477 320 477 C 284 477 251 468 222 452 C 192 436 166 414 143 386 L 143 0 L 88 0 L 88 755 Z" unicode="ĥ" />
<glyph horiz-adv-x="697" d="M 551 382 L 551 523 L 146 523 L 146 382 L 551 382 Z M 90 700 L 146 700 L 146 563 L 551 563 L 551 700 L 608 700 L 608 0 L 551 0 L 551 331 L 146 331 L 146 0 L 90 0 L 90 700 Z" unicode="Ħ" />
<glyph horiz-adv-x="572" d="M 15 661 L 90 661 L 90 755 L 145 755 L 145 661 L 283 661 L 283 620 L 145 620 L 145 434 C 168 459 195 480 227 497 C 258 514 293 523 331 523 C 360 523 385 518 405 510 C 425 502 442 490 454 475 C 466 460 475 442 481 421 C 487 400 490 377 490 352 L 490 0 L 435 0 L 435 353 C 435 389 426 419 410 442 C 393 465 364 477 322 477 C 286 477 253 468 224 452 C 194 436 168 414 145 386 L 145 0 L 90 0 L 90 620 L 15 620 L 15 661 Z" unicode="ħ" />
<glyph horiz-adv-x="235" d="M -20 764 C -24 796 -18 820 -4 838 C 9 856 28 865 52 865 C 66 865 79 861 91 854 C 102 846 113 838 123 830 C 133 821 142 813 152 806 C 161 798 171 795 182 795 C 194 795 204 800 211 810 C 218 820 221 835 219 854 L 257 854 C 260 822 254 797 240 779 C 226 761 207 753 184 753 C 169 753 156 756 145 764 C 133 771 123 779 113 787 C 103 795 93 803 84 811 C 74 818 64 822 54 822 C 41 822 31 817 24 807 C 16 797 14 782 17 764 L -20 764 Z M 90 700 L 146 700 L 146 0 L 90 0 L 90 700 Z" unicode="Ĩ" />
<glyph horiz-adv-x="231" d="M -23 599 C -26 631 -21 655 -7 673 C 7 691 26 700 50 700 C 64 700 77 696 89 689 C 100 681 110 673 120 665 C 130 657 139 649 149 642 C 158 634 168 631 179 631 C 191 631 201 636 208 646 C 215 656 218 670 216 690 L 253 690 C 257 657 251 632 237 614 C 223 596 204 588 181 588 C 166 588 153 591 142 599 C 130 606 120 614 110 622 C 100 630 91 638 82 646 C 72 653 62 657 52 657 C 38 657 28 652 21 642 C 14 632 12 617 15 599 L -23 599 Z M 88 509 L 143 509 L 143 0 L 88 0 L 88 509 Z" unicode="ĩ" />
<glyph horiz-adv-x="235" d="M -23 830 L 259 830 L 259 788 L -23 788 L -23 830 Z M 90 700 L 146 700 L 146 0 L 90 0 L 90 700 Z" unicode="Ī" />
<glyph horiz-adv-x="231" d="M -25 665 L 256 665 L 256 623 L -25 623 L -25 665 Z M 88 509 L 143 509 L 143 0 L 88 0 L 88 509 Z" unicode="ī" />
<glyph horiz-adv-x="235" d="M 118 750 C 74 750 38 760 10 780 C -17 800 -35 828 -45 863 L -2 863 C 5 841 19 824 39 811 C 59 797 86 791 118 791 C 150 791 176 797 196 811 C 216 824 230 841 238 863 L 280 863 C 271 828 253 800 225 780 C 197 760 161 750 118 750 Z M 90 700 L 146 700 L 146 0 L 90 0 L 90 700 Z" unicode="Ĭ" />
<glyph horiz-adv-x="231" d="M 116 563 C 72 563 36 577 8 605 C -19 633 -35 673 -39 723 L 1 723 C 5 687 18 658 38 637 C 58 616 84 606 116 606 C 148 606 174 616 194 637 C 214 658 226 687 230 723 L 271 723 C 267 673 251 633 223 605 C 195 577 159 563 116 563 Z M 88 509 L 143 509 L 143 0 L 88 0 L 88 509 Z" unicode="ĭ" />
<glyph horiz-adv-x="235" d="M 90 700 L 146 700 L 146 0 C 120 -13 98 -29 81 -47 C 64 -65 56 -87 56 -111 C 56 -127 61 -140 72 -149 C 83 -157 96 -162 111 -162 C 122 -162 132 -160 142 -158 C 151 -155 159 -152 167 -148 L 169 -149 L 169 -193 C 150 -201 129 -206 105 -206 C 79 -206 57 -198 39 -184 C 20 -170 11 -149 11 -121 C 11 -95 18 -73 33 -53 C 47 -33 67 -15 91 0 L 90 0 L 90 700 Z" unicode="Į" />
<glyph horiz-adv-x="231" d="M 88 739 L 143 739 L 143 658 L 88 658 L 88 739 Z M 166 -193 C 147 -201 126 -206 102 -206 C 76 -206 54 -198 36 -184 C 17 -170 8 -149 8 -121 C 8 -95 15 -73 30 -53 C 44 -33 64 -15 88 0 L 88 509 L 143 509 L 143 0 C 117 -13 95 -29 78 -47 C 61 -65 53 -87 53 -111 C 53 -127 58 -140 69 -149 C 80 -157 93 -162 108 -162 C 119 -162 129 -160 139 -158 C 148 -155 156 -152 164 -148 L 166 -149 L 166 -193 Z" unicode="į" />
<glyph horiz-adv-x="235" d="M 90 857 L 145 857 L 145 777 L 90 777 L 90 857 Z M 90 700 L 146 700 L 146 0 L 90 0 L 90 700 Z" unicode="İ" />
<glyph horiz-adv-x="231" d="M 88 509 L 143 509 L 143 0 L 88 0 L 88 509 Z" unicode="ı" />
<glyph horiz-adv-x="566" d="M 422 863 L 482 863 L 610 755 L 569 755 L 453 828 L 452 828 L 335 755 L 294 755 L 422 863 Z M 102 158 C 107 143 114 128 123 114 C 131 100 142 87 155 76 C 168 65 183 56 201 49 C 218 42 238 39 261 39 C 289 39 313 43 333 53 C 353 62 370 75 384 92 C 397 108 407 128 413 151 C 419 174 423 200 423 228 L 423 700 L 480 700 L 480 228 C 480 155 462 97 426 53 C 390 9 336 -12 263 -12 C 234 -12 208 -7 186 0 C 163 8 143 19 126 33 C 109 46 95 62 83 80 C 71 98 61 116 54 135 L 102 158 Z" unicode="Ĵ" />
<glyph horiz-adv-x="239" d="M 93 723 L 155 723 L 281 566 L 239 566 L 125 686 L 123 686 L 8 566 L -33 566 L 93 723 Z M 96 509 L 151 509 L 151 -32 C 151 -64 147 -91 140 -114 C 133 -136 123 -155 111 -169 C 98 -183 83 -194 65 -200 C 47 -206 28 -210 7 -210 C -3 -210 -12 -209 -21 -207 C -29 -205 -37 -204 -44 -203 L -33 -158 C -21 -161 -9 -163 2 -163 C 30 -163 52 -153 70 -134 C 87 -114 96 -81 96 -34 L 96 509 Z" unicode="ĵ" />
<glyph horiz-adv-x="663" d="M 90 700 L 146 700 L 146 277 L 519 700 L 588 700 L 358 440 L 616 0 L 548 0 L 321 398 L 146 201 L 146 0 L 90 0 L 90 700 Z M 267 -55 C 271 -53 277 -52 283 -52 C 289 -51 295 -51 302 -51 C 327 -51 346 -57 358 -69 C 370 -81 376 -97 376 -117 C 376 -133 371 -149 361 -166 C 350 -182 337 -198 321 -212 L 280 -212 C 296 -196 308 -181 317 -166 C 326 -150 331 -137 331 -125 C 331 -114 327 -105 321 -98 C 315 -91 305 -88 292 -89 C 288 -89 284 -89 280 -89 C 276 -89 271 -90 267 -91 L 267 -55 Z" unicode="Ķ" />
<glyph horiz-adv-x="515" d="M 88 755 L 143 755 L 143 229 L 397 511 L 462 511 L 308 344 L 490 0 L 427 0 L 272 304 L 143 163 L 143 0 L 88 0 L 88 755 Z M 232 -55 C 237 -53 242 -52 248 -52 C 254 -51 260 -51 266 -51 C 292 -51 311 -57 323 -69 C 335 -81 341 -97 342 -117 C 342 -133 336 -149 326 -166 C 315 -182 302 -198 286 -212 L 246 -212 C 262 -196 274 -181 283 -166 C 292 -150 297 -137 297 -125 C 297 -114 293 -105 287 -98 C 281 -91 271 -88 257 -89 C 253 -89 250 -89 246 -89 C 242 -89 237 -90 232 -91 L 232 -55 Z" unicode="ķ" />
<glyph horiz-adv-x="515" d="M 88 511 L 143 511 L 143 229 L 397 511 L 462 511 L 308 344 L 490 0 L 427 0 L 272 304 L 143 163 L 143 0 L 88 0 L 88 511 Z" unicode="ĸ" />
<glyph horiz-adv-x="604" d="M 198 880 L 243 846 L 131 755 L 87 755 L 198 880 Z M 90 700 L 146 700 L 146 51 L 556 51 L 556 0 L 90 0 L 90 700 Z" unicode="Ĺ" />
<glyph horiz-adv-x="231" d="M 195 922 L 240 888 L 128 797 L 84 797 L 195 922 Z M 88 755 L 143 755 L 143 0 L 88 0 L 88 755 Z" unicode="ĺ" />
<glyph horiz-adv-x="604" d="M 90 700 L 146 700 L 146 51 L 556 51 L 556 0 L 90 0 L 90 700 Z M 267 -55 C 271 -53 277 -52 283 -52 C 289 -51 295 -51 302 -51 C 327 -51 346 -57 358 -69 C 370 -81 376 -97 376 -117 C 376 -133 371 -149 361 -166 C 350 -182 337 -198 321 -212 L 280 -212 C 296 -196 308 -181 317 -166 C 326 -150 331 -137 331 -125 C 331 -114 327 -105 321 -98 C 315 -91 305 -88 292 -89 C 288 -89 284 -89 280 -89 C 276 -89 271 -90 267 -91 L 267 -55 Z" unicode="Ļ" />
<glyph horiz-adv-x="231" d="M 88 755 L 143 755 L 143 0 L 88 0 L 88 755 Z M 87 -55 C 92 -53 97 -52 103 -52 C 109 -51 115 -51 121 -51 C 147 -51 166 -57 178 -69 C 190 -81 196 -97 197 -117 C 197 -133 191 -149 181 -166 C 170 -182 157 -198 141 -212 L 101 -212 C 117 -196 129 -181 138 -166 C 147 -150 152 -137 152 -125 C 152 -114 148 -105 142 -98 C 136 -91 126 -88 112 -89 C 108 -89 105 -89 101 -89 C 97 -89 92 -90 87 -91 L 87 -55 Z" unicode="ļ" />
<glyph horiz-adv-x="604" d="M 233 699 C 237 700 243 701 249 702 C 255 702 261 703 268 703 C 293 703 312 696 324 684 C 336 672 342 656 342 637 C 342 621 337 604 327 588 C 316 571 303 556 287 542 L 246 542 C 262 557 274 572 283 588 C 292 603 297 617 297 629 C 297 639 293 648 287 655 C 281 662 271 665 258 665 C 254 665 250 664 246 664 C 242 664 237 663 233 663 L 233 699 Z M 90 700 L 146 700 L 146 51 L 556 51 L 556 0 L 90 0 L 90 700 Z" unicode="Ľ" />
<glyph horiz-adv-x="231" d="M 88 755 L 143 755 L 143 0 L 88 0 L 88 755 Z M 217 717 C 221 718 227 719 233 720 C 239 720 245 721 251 721 C 276 721 295 714 307 702 C 319 690 326 674 326 655 C 326 639 321 622 311 606 C 300 589 287 574 271 560 L 230 560 C 246 576 258 591 267 606 C 276 621 281 635 281 648 C 281 658 277 666 271 673 C 265 680 255 684 242 684 C 238 684 234 683 230 683 C 226 682 222 681 217 681 L 217 717 Z" unicode="ľ" />
<glyph horiz-adv-x="604" d="M 90 700 L 146 700 L 146 51 L 556 51 L 556 0 L 90 0 L 90 700 Z M 500 397 L 555 397 L 555 316 L 500 316 L 500 397 Z" unicode="Ŀ" />
<glyph horiz-adv-x="231" d="M 88 755 L 143 755 L 143 0 L 88 0 L 88 755 Z M 208 444 L 263 444 L 263 363 L 208 363 L 208 444 Z" unicode="ŀ" />
<glyph horiz-adv-x="633" d="M 14 273 L 120 338 L 120 700 L 176 700 L 176 372 L 376 495 L 376 446 L 176 324 L 176 51 L 586 51 L 586 0 L 120 0 L 120 290 L 14 226 L 14 273 Z" unicode="Ł" />
<glyph horiz-adv-x="249" d="M 7 333 L 97 386 L 97 755 L 152 755 L 152 418 L 241 473 L 241 425 L 152 371 L 152 0 L 97 0 L 97 339 L 7 285 L 7 333 Z" unicode="ł" />
<glyph horiz-adv-x="718" d="M 439 880 L 484 846 L 372 755 L 328 755 L 439 880 Z M 90 700 L 152 700 L 573 81 L 573 700 L 628 700 L 628 0 L 565 0 L 145 618 L 145 0 L 90 0 L 90 700 Z" unicode="Ń" />
<glyph horiz-adv-x="566" d="M 389 735 L 430 703 L 289 566 L 250 566 L 389 735 Z M 84 511 L 134 511 L 139 435 C 162 459 189 480 220 497 C 251 514 286 523 326 523 C 355 523 380 518 400 510 C 420 502 436 490 449 475 C 461 460 470 442 476 421 C 482 400 485 377 485 352 L 485 0 L 429 0 L 429 353 C 429 390 420 420 404 443 C 387 465 358 477 316 477 C 280 477 247 468 218 452 C 188 436 162 413 139 384 L 139 0 L 84 0 L 84 511 Z" unicode="ń" />
<glyph horiz-adv-x="718" d="M 90 700 L 152 700 L 573 81 L 573 700 L 628 700 L 628 0 L 565 0 L 145 618 L 145 0 L 90 0 L 90 700 Z M 303 -55 C 307 -53 313 -52 319 -52 C 325 -51 331 -51 338 -51 C 363 -51 382 -57 394 -69 C 406 -81 412 -97 412 -117 C 412 -133 407 -149 397 -166 C 386 -182 373 -198 357 -212 L 316 -212 C 332 -196 344 -181 353 -166 C 362 -150 367 -137 367 -125 C 367 -114 363 -105 357 -98 C 351 -91 341 -88 328 -89 C 324 -89 320 -89 316 -89 C 312 -89 307 -90 303 -91 L 303 -55 Z" unicode="Ņ" />
<glyph horiz-adv-x="566" d="M 84 511 L 134 511 L 139 435 C 162 459 189 480 220 497 C 251 514 286 523 326 523 C 355 523 380 518 400 510 C 420 502 436 490 449 475 C 461 460 470 442 476 421 C 482 400 485 377 485 352 L 485 0 L 429 0 L 429 353 C 429 390 420 420 404 443 C 387 465 358 477 316 477 C 280 477 247 468 218 452 C 188 436 162 413 139 384 L 139 0 L 84 0 L 84 511 Z M 229 -55 C 234 -53 239 -52 245 -52 C 251 -51 257 -51 263 -51 C 289 -51 308 -57 320 -69 C 332 -81 338 -97 339 -117 C 339 -133 333 -149 323 -166 C 312 -182 299 -198 283 -212 L 243 -212 C 259 -196 271 -181 280 -166 C 289 -150 294 -137 294 -125 C 294 -114 290 -105 284 -98 C 278 -91 268 -88 254 -89 C 250 -89 247 -89 243 -89 C 239 -89 234 -90 229 -91 L 229 -55 Z" unicode="ņ" />
<glyph horiz-adv-x="718" d="M 200 863 L 241 863 L 358 791 L 359 791 L 475 863 L 516 863 L 388 755 L 328 755 L 200 863 Z M 90 700 L 152 700 L 573 81 L 573 700 L 628 700 L 628 0 L 565 0 L 145 618 L 145 0 L 90 0 L 90 700 Z" unicode="Ň" />
<glyph horiz-adv-x="566" d="M 127 723 L 168 723 L 283 603 L 285 603 L 399 723 L 441 723 L 315 566 L 253 566 L 127 723 Z M 84 511 L 134 511 L 139 435 C 162 459 189 480 220 497 C 251 514 286 523 326 523 C 355 523 380 518 400 510 C 420 502 436 490 449 475 C 461 460 470 442 476 421 C 482 400 485 377 485 352 L 485 0 L 429 0 L 429 353 C 429 390 420 420 404 443 C 387 465 358 477 316 477 C 280 477 247 468 218 452 C 188 436 162 413 139 384 L 139 0 L 84 0 L 84 511 Z" unicode="ň" />
<glyph horiz-adv-x="718" d="M 90 700 L 152 700 L 573 93 L 573 700 L 628 700 L 628 -32 C 628 -64 624 -91 617 -114 C 610 -136 600 -155 588 -169 C 575 -183 560 -194 542 -200 C 524 -206 505 -210 484 -210 C 474 -210 464 -209 455 -207 C 446 -205 439 -204 434 -203 L 444 -157 C 449 -158 455 -159 462 -160 C 468 -161 474 -162 480 -162 C 507 -162 529 -152 547 -133 C 565 -113 574 -80 574 -34 L 574 1 L 145 618 L 145 0 L 90 0 L 90 700 Z" unicode="Ŋ" />
<glyph horiz-adv-x="566" d="M 84 511 L 134 511 L 139 435 C 162 459 189 480 220 497 C 251 514 286 523 326 523 C 355 523 380 518 400 510 C 420 502 436 490 449 475 C 461 460 470 442 476 421 C 482 400 485 377 485 352 L 485 -32 C 485 -64 481 -91 474 -114 C 467 -136 457 -155 444 -169 C 431 -183 416 -194 398 -200 C 380 -206 361 -210 340 -210 C 330 -210 321 -209 313 -207 C 304 -205 296 -204 290 -203 L 300 -158 C 306 -159 311 -160 317 -161 C 323 -162 329 -163 336 -163 C 364 -163 386 -153 403 -134 C 420 -114 429 -81 429 -34 L 429 353 C 429 391 420 421 404 443 C 387 465 358 477 316 477 C 280 477 247 468 218 452 C 188 436 162 413 139 384 L 139 0 L 84 0 L 84 511 Z" unicode="ŋ" />
<glyph horiz-adv-x="808" d="M 263 830 L 545 830 L 545 788 L 263 788 L 263 830 Z M 60 355 C 60 409 69 458 87 502 C 105 546 129 583 160 614 C 191 645 227 669 269 686 C 311 703 356 712 404 712 C 452 712 496 703 538 686 C 580 669 616 645 647 614 C 678 583 703 546 721 502 C 739 458 748 409 748 355 C 748 298 739 247 721 202 C 703 156 679 118 648 86 C 617 54 581 30 539 13 C 497 -3 452 -12 404 -12 C 355 -12 310 -3 268 13 C 226 30 190 54 159 86 C 128 118 104 156 86 202 C 68 247 60 298 60 355 Z M 118 355 C 118 305 125 261 140 222 C 154 182 175 149 201 122 C 227 94 257 73 292 59 C 326 45 364 38 404 38 C 444 38 481 45 516 59 C 550 73 581 94 607 122 C 633 149 653 182 668 222 C 682 261 690 305 690 355 C 690 401 682 444 667 482 C 652 520 632 552 606 579 C 580 605 549 626 515 640 C 480 654 443 662 404 662 C 364 662 327 654 293 640 C 258 626 228 605 202 579 C 176 552 155 520 140 482 C 125 444 118 401 118 355 Z" unicode="Ō" />
<glyph horiz-adv-x="594" d="M 156 665 L 437 665 L 437 623 L 156 623 L 156 665 Z M 58 262 C 58 301 64 337 76 369 C 88 401 104 429 126 452 C 147 474 172 492 202 504 C 231 516 263 523 298 523 C 332 523 364 516 393 504 C 422 492 447 474 469 452 C 490 429 507 401 519 369 C 531 337 537 301 537 262 C 537 220 531 182 519 148 C 507 114 491 86 470 62 C 449 38 424 19 395 7 C 365 -5 333 -12 298 -12 C 262 -12 229 -5 200 7 C 170 19 145 38 124 62 C 103 86 87 114 75 148 C 63 182 58 220 58 262 Z M 114 262 C 114 227 118 195 127 167 C 135 139 148 115 164 95 C 180 75 199 59 222 49 C 244 38 270 33 298 33 C 325 33 350 38 372 49 C 394 59 414 75 430 95 C 446 115 458 139 467 167 C 475 195 480 227 480 262 C 480 294 475 324 466 350 C 457 376 445 399 429 418 C 413 436 393 451 371 461 C 349 471 324 477 298 477 C 271 477 246 471 224 461 C 201 451 181 436 165 418 C 149 399 136 376 127 350 C 118 324 114 294 114 262 Z" unicode="ō" />
<glyph horiz-adv-x="808" d="M 404 750 C 360 750 324 760 296 780 C 268 800 250 828 241 863 L 284 863 C 291 841 305 824 325 811 C 345 797 372 791 404 791 C 436 791 462 797 482 811 C 502 824 516 841 524 863 L 566 863 C 557 828 539 800 511 780 C 483 760 447 750 404 750 Z M 60 355 C 60 409 69 458 87 502 C 105 546 129 583 160 614 C 191 645 227 669 269 686 C 311 703 356 712 404 712 C 452 712 496 703 538 686 C 580 669 616 645 647 614 C 678 583 703 546 721 502 C 739 458 748 409 748 355 C 748 298 739 247 721 202 C 703 156 679 118 648 86 C 617 54 581 30 539 13 C 497 -3 452 -12 404 -12 C 355 -12 310 -3 268 13 C 226 30 190 54 159 86 C 128 118 104 156 86 202 C 68 247 60 298 60 355 Z M 118 355 C 118 305 125 261 140 222 C 154 182 175 149 201 122 C 227 94 257 73 292 59 C 326 45 364 38 404 38 C 444 38 481 45 516 59 C 550 73 581 94 607 122 C 633 149 653 182 668 222 C 682 261 690 305 690 355 C 690 401 682 444 667 482 C 652 520 632 552 606 579 C 580 605 549 626 515 640 C 480 654 443 662 404 662 C 364 662 327 654 293 640 C 258 626 228 605 202 579 C 176 552 155 520 140 482 C 125 444 118 401 118 355 Z" unicode="Ŏ" />
<glyph horiz-adv-x="594" d="M 297 563 C 253 563 217 577 189 605 C 161 633 146 673 142 723 L 182 723 C 186 687 199 658 219 637 C 239 616 265 606 297 606 C 329 606 355 616 375 637 C 395 658 407 687 411 723 L 452 723 C 448 673 432 633 404 605 C 376 577 340 563 297 563 Z M 58 262 C 58 301 64 337 76 369 C 88 401 104 429 126 452 C 147 474 172 492 202 504 C 231 516 263 523 298 523 C 332 523 364 516 393 504 C 422 492 447 474 469 452 C 490 429 507 401 519 369 C 531 337 537 301 537 262 C 537 220 531 182 519 148 C 507 114 491 86 470 62 C 449 38 424 19 395 7 C 365 -5 333 -12 298 -12 C 262 -12 229 -5 200 7 C 170 19 145 38 124 62 C 103 86 87 114 75 148 C 63 182 58 220 58 262 Z M 114 262 C 114 227 118 195 127 167 C 135 139 148 115 164 95 C 180 75 199 59 222 49 C 244 38 270 33 298 33 C 325 33 350 38 372 49 C 394 59 414 75 430 95 C 446 115 458 139 467 167 C 475 195 480 227 480 262 C 480 294 475 324 466 350 C 457 376 445 399 429 418 C 413 436 393 451 371 461 C 349 471 324 477 298 477 C 271 477 246 471 224 461 C 201 451 181 436 165 418 C 149 399 136 376 127 350 C 118 324 114 294 114 262 Z" unicode="ŏ" />
<glyph horiz-adv-x="808" d="M 551 880 L 595 846 L 485 755 L 442 755 L 551 880 Z M 412 880 L 456 846 L 346 755 L 303 755 L 412 880 Z M 60 355 C 60 409 69 458 87 502 C 105 546 129 583 160 614 C 191 645 227 669 269 686 C 311 703 356 712 404 712 C 452 712 496 703 538 686 C 580 669 616 645 647 614 C 678 583 703 546 721 502 C 739 458 748 409 748 355 C 748 298 739 247 721 202 C 703 156 679 118 648 86 C 617 54 581 30 539 13 C 497 -3 452 -12 404 -12 C 355 -12 310 -3 268 13 C 226 30 190 54 159 86 C 128 118 104 156 86 202 C 68 247 60 298 60 355 Z M 118 355 C 118 305 125 261 140 222 C 154 182 175 149 201 122 C 227 94 257 73 292 59 C 326 45 364 38 404 38 C 444 38 481 45 516 59 C 550 73 581 94 607 122 C 633 149 653 182 668 222 C 682 261 690 305 690 355 C 690 401 682 444 667 482 C 652 520 632 552 606 579 C 580 605 549 626 515 640 C 480 654 443 662 404 662 C 364 662 327 654 293 640 C 258 626 228 605 202 579 C 176 552 155 520 140 482 C 125 444 118 401 118 355 Z" unicode="Ő" />
<glyph horiz-adv-x="594" d="M 475 735 L 516 705 L 378 566 L 340 566 L 475 735 Z M 334 735 L 376 705 L 237 566 L 199 566 L 334 735 Z M 58 262 C 58 301 64 337 76 369 C 88 401 104 429 126 452 C 147 474 172 492 202 504 C 231 516 263 523 298 523 C 332 523 364 516 393 504 C 422 492 447 474 469 452 C 490 429 507 401 519 369 C 531 337 537 301 537 262 C 537 220 531 182 519 148 C 507 114 491 86 470 62 C 449 38 424 19 395 7 C 365 -5 333 -12 298 -12 C 262 -12 229 -5 200 7 C 170 19 145 38 124 62 C 103 86 87 114 75 148 C 63 182 58 220 58 262 Z M 114 262 C 114 227 118 195 127 167 C 135 139 148 115 164 95 C 180 75 199 59 222 49 C 244 38 270 33 298 33 C 325 33 350 38 372 49 C 394 59 414 75 430 95 C 446 115 458 139 467 167 C 475 195 480 227 480 262 C 480 294 475 324 466 350 C 457 376 445 399 429 418 C 413 436 393 451 371 461 C 349 471 324 477 298 477 C 271 477 246 471 224 461 C 201 451 181 436 165 418 C 149 399 136 376 127 350 C 118 324 114 294 114 262 Z" unicode="ő" />
<glyph horiz-adv-x="1232" d="M 117 357 C 117 309 124 265 139 226 C 153 186 173 153 199 125 C 224 97 254 76 289 61 C 324 45 362 38 403 38 C 443 38 480 45 515 61 C 550 76 580 97 606 125 C 631 153 651 186 666 226 C 680 265 688 309 688 357 C 688 401 680 442 665 480 C 650 517 630 549 604 576 C 578 603 547 624 513 639 C 479 654 442 662 403 662 C 363 662 325 654 291 639 C 256 624 226 603 200 576 C 174 549 154 517 139 480 C 124 442 117 401 117 357 Z M 60 357 C 60 409 68 456 86 500 C 104 543 128 580 159 612 C 189 643 225 667 267 685 C 309 703 353 712 401 712 C 433 712 463 707 493 698 C 522 689 549 676 574 660 C 598 644 620 624 640 600 C 660 576 676 550 688 521 L 688 700 L 1155 700 L 1155 649 L 744 649 L 744 381 L 1115 381 L 1115 332 L 744 332 L 744 51 L 1162 51 L 1162 0 L 688 0 L 688 180 C 664 119 626 72 576 38 C 525 4 467 -12 401 -12 C 352 -12 307 -3 266 14 C 224 32 188 57 158 89 C 127 121 103 160 86 206 C 68 251 60 301 60 357 Z" unicode="Œ" />
<glyph horiz-adv-x="982" d="M 58 262 C 58 301 64 337 76 369 C 88 401 104 429 126 452 C 147 474 172 492 202 504 C 231 516 263 523 298 523 C 350 523 394 509 431 481 C 467 453 493 414 508 365 C 523 415 549 453 586 481 C 623 509 667 523 719 523 C 754 523 784 517 810 506 C 836 494 857 479 873 459 C 889 439 902 415 910 388 C 918 361 922 332 922 300 C 922 294 921 288 921 281 C 920 274 919 268 919 263 L 537 263 C 537 189 552 132 583 93 C 613 54 660 35 723 35 C 751 35 779 39 806 49 C 833 59 856 70 876 84 L 903 45 C 879 27 852 13 820 3 C 788 -6 755 -12 721 -12 C 662 -12 615 1 580 29 C 545 57 521 96 507 148 C 492 98 466 58 430 30 C 394 2 350 -12 298 -12 C 262 -12 229 -5 200 7 C 170 19 145 38 124 62 C 103 86 87 114 75 148 C 63 182 58 220 58 262 Z M 867 304 C 867 328 865 350 860 371 C 854 392 846 411 834 427 C 822 443 807 455 789 465 C 770 474 747 479 720 479 C 672 479 631 463 599 432 C 566 400 546 358 539 304 L 867 304 Z M 114 262 C 114 227 118 195 127 167 C 135 139 148 115 164 95 C 180 75 199 59 222 49 C 244 38 270 33 298 33 C 325 33 350 38 373 49 C 395 59 415 75 431 95 C 447 115 459 139 468 167 C 476 195 481 227 481 262 C 481 294 476 324 467 350 C 458 376 445 399 429 418 C 413 436 393 451 371 461 C 349 471 324 477 298 477 C 271 477 246 471 224 461 C 201 451 181 436 165 418 C 149 399 136 376 127 350 C 118 324 114 294 114 262 Z" unicode="œ" />
<glyph horiz-adv-x="673" d="M 408 880 L 453 846 L 341 755 L 297 755 L 408 880 Z M 372 339 C 404 339 431 343 453 353 C 475 362 494 374 508 389 C 522 404 532 421 538 440 C 544 458 548 477 548 496 C 548 515 544 534 538 553 C 532 571 522 588 508 603 C 494 617 477 629 455 638 C 433 646 406 651 374 651 L 146 651 L 146 339 L 372 339 Z M 90 700 L 374 700 C 416 700 452 694 482 682 C 511 670 535 655 553 636 C 571 616 585 595 593 571 C 601 547 605 522 605 497 C 605 476 602 455 596 435 C 590 414 580 395 567 377 C 554 359 538 343 518 329 C 498 315 474 305 446 299 L 602 0 L 539 0 L 392 292 L 146 292 L 146 0 L 90 0 L 90 700 Z" unicode="Ŕ" />
<glyph horiz-adv-x="385" d="M 328 735 L 369 703 L 228 566 L 189 566 L 328 735 Z M 84 511 L 133 511 L 139 422 C 178 489 232 523 300 523 C 324 523 344 520 362 515 L 351 462 C 343 464 334 466 324 468 C 314 470 304 471 294 471 C 232 471 180 435 139 364 L 139 0 L 84 0 L 84 511 Z" unicode="ŕ" />
<glyph horiz-adv-x="673" d="M 372 339 C 404 339 431 343 453 353 C 475 362 494 374 508 389 C 522 404 532 421 538 440 C 544 458 548 477 548 496 C 548 515 544 534 538 553 C 532 571 522 588 508 603 C 494 617 477 629 455 638 C 433 646 406 651 374 651 L 146 651 L 146 339 L 372 339 Z M 146 0 L 90 0 L 90 700 L 374 700 C 416 700 452 694 482 682 C 511 670 535 655 553 636 C 571 616 585 595 593 571 C 601 547 605 522 605 497 C 605 476 602 455 596 435 C 590 414 580 395 567 377 C 554 359 538 343 518 329 C 498 315 474 305 446 299 L 602 0 L 539 0 L 392 292 L 146 292 L 146 0 Z M 272 -55 C 276 -53 282 -52 288 -52 C 294 -51 300 -51 307 -51 C 332 -51 351 -57 363 -69 C 375 -81 381 -97 381 -117 C 381 -133 376 -149 366 -166 C 355 -182 342 -198 326 -212 L 285 -212 C 301 -196 313 -181 322 -166 C 331 -150 336 -137 336 -125 C 336 -114 332 -105 326 -98 C 320 -91 310 -88 297 -89 C 293 -89 289 -89 285 -89 C 281 -89 276 -90 272 -91 L 272 -55 Z" unicode="Ŗ" />
<glyph horiz-adv-x="385" d="M 84 511 L 133 511 L 139 422 C 178 489 232 523 300 523 C 324 523 344 520 362 515 L 351 462 C 343 464 334 466 324 468 C 314 470 304 471 294 471 C 232 471 180 435 139 364 L 139 0 L 84 0 L 84 511 Z M 83 -55 C 88 -53 93 -52 99 -52 C 105 -51 111 -51 117 -51 C 143 -51 162 -57 174 -69 C 186 -81 192 -97 193 -117 C 193 -133 187 -149 177 -166 C 166 -182 153 -198 137 -212 L 97 -212 C 113 -196 125 -181 134 -166 C 143 -150 148 -137 148 -125 C 148 -114 144 -105 138 -98 C 132 -91 122 -88 108 -89 C 104 -89 101 -89 97 -89 C 93 -89 88 -90 83 -91 L 83 -55 Z" unicode="ŗ" />
<glyph horiz-adv-x="673" d="M 170 863 L 211 863 L 328 791 L 329 791 L 445 863 L 486 863 L 358 755 L 298 755 L 170 863 Z M 372 339 C 404 339 431 343 453 353 C 475 362 494 374 508 389 C 522 404 532 421 538 440 C 544 458 548 477 548 496 C 548 515 544 534 538 553 C 532 571 522 588 508 603 C 494 617 477 629 455 638 C 433 646 406 651 374 651 L 146 651 L 146 339 L 372 339 Z M 146 0 L 90 0 L 90 700 L 374 700 C 416 700 452 694 482 682 C 511 670 535 655 553 636 C 571 616 585 595 593 571 C 601 547 605 522 605 497 C 605 476 602 455 596 435 C 590 414 580 395 567 377 C 554 359 538 343 518 329 C 498 315 474 305 446 299 L 602 0 L 539 0 L 392 292 L 146 292 L 146 0 Z" unicode="Ř" />
<glyph horiz-adv-x="385" d="M 66 723 L 107 723 L 222 603 L 224 603 L 338 723 L 380 723 L 254 566 L 192 566 L 66 723 Z M 84 511 L 133 511 L 139 422 C 178 489 232 523 300 523 C 324 523 344 520 362 515 L 351 462 C 343 464 334 466 324 468 C 314 470 304 471 294 471 C 232 471 180 435 139 364 L 139 0 L 84 0 L 84 511 Z" unicode="ř" />
<glyph horiz-adv-x="607" d="M 384 880 L 429 846 L 317 755 L 273 755 L 384 880 Z M 86 103 C 111 85 143 70 181 58 C 219 45 260 39 306 39 C 369 39 416 52 446 78 C 476 104 491 137 491 177 C 491 213 480 240 459 259 C 438 278 412 293 381 304 C 349 314 315 323 279 331 C 243 339 209 349 178 363 C 146 377 120 396 99 421 C 78 446 68 481 68 527 C 68 553 73 577 83 600 C 93 622 109 642 129 658 C 149 674 173 687 202 697 C 230 707 263 712 300 712 C 347 712 389 707 425 697 C 461 687 494 675 522 662 L 499 614 C 473 626 444 637 412 647 C 379 656 342 661 302 661 C 246 661 203 648 173 623 C 142 597 127 566 127 528 C 127 491 137 463 158 445 C 179 426 205 411 237 401 C 268 390 302 381 338 373 C 374 365 408 355 440 341 C 471 327 497 308 518 283 C 539 258 550 223 550 177 C 550 150 545 125 535 102 C 525 79 510 59 490 42 C 470 25 444 12 414 2 C 383 -7 347 -12 306 -12 C 254 -12 206 -5 163 9 C 119 23 84 39 57 58 L 86 103 Z" unicode="Ś" />
<glyph horiz-adv-x="455" d="M 332 735 L 373 703 L 232 566 L 193 566 L 332 735 Z M 68 79 C 86 67 109 56 137 47 C 165 38 196 34 228 34 C 270 34 302 42 324 59 C 346 76 357 99 357 128 C 357 153 349 172 334 185 C 318 198 299 208 277 216 C 254 224 229 231 203 237 C 176 243 151 251 129 261 C 106 271 87 286 72 304 C 56 322 49 348 49 381 C 49 402 53 421 61 439 C 69 456 81 471 97 484 C 113 496 131 506 153 513 C 175 519 199 523 225 523 C 255 523 284 519 312 512 C 340 505 366 496 390 485 L 368 442 C 348 451 326 459 301 466 C 275 473 250 477 225 477 C 187 477 158 468 136 451 C 114 433 104 411 104 383 C 104 358 111 339 127 326 C 142 313 161 303 184 295 C 206 287 231 281 258 275 C 284 269 309 261 332 251 C 354 241 373 226 389 208 C 404 189 412 163 412 130 C 412 86 396 51 364 26 C 332 0 287 -12 228 -12 C 190 -12 155 -7 123 2 C 91 12 64 23 42 37 L 68 79 Z" unicode="ś" />
<glyph horiz-adv-x="607" d="M 274 863 L 334 863 L 462 755 L 421 755 L 305 828 L 304 828 L 187 755 L 146 755 L 274 863 Z M 86 103 C 111 85 143 70 181 58 C 219 45 260 39 306 39 C 369 39 416 52 446 78 C 476 104 491 137 491 177 C 491 213 480 240 459 259 C 438 278 412 293 381 304 C 349 314 315 323 279 331 C 243 339 209 349 178 363 C 146 377 120 396 99 421 C 78 446 68 481 68 527 C 68 553 73 577 83 600 C 93 622 109 642 129 658 C 149 674 173 687 202 697 C 230 707 263 712 300 712 C 347 712 389 707 425 697 C 461 687 494 675 522 662 L 499 614 C 473 626 444 637 412 647 C 379 656 342 661 302 661 C 246 661 203 648 173 623 C 142 597 127 566 127 528 C 127 491 137 463 158 445 C 179 426 205 411 237 401 C 268 390 302 381 338 373 C 374 365 408 355 440 341 C 471 327 497 308 518 283 C 539 258 550 223 550 177 C 550 150 545 125 535 102 C 525 79 510 59 490 42 C 470 25 444 12 414 2 C 383 -7 347 -12 306 -12 C 254 -12 206 -5 163 9 C 119 23 84 39 57 58 L 86 103 Z" unicode="Ŝ" />
<glyph horiz-adv-x="455" d="M 198 723 L 260 723 L 386 566 L 344 566 L 230 686 L 228 686 L 113 566 L 72 566 L 198 723 Z M 68 79 C 86 67 109 56 137 47 C 165 38 196 34 228 34 C 270 34 302 42 324 59 C 346 76 357 99 357 128 C 357 153 349 172 334 185 C 318 198 299 208 277 216 C 254 224 229 231 203 237 C 176 243 151 251 129 261 C 106 271 87 286 72 304 C 56 322 49 348 49 381 C 49 402 53 421 61 439 C 69 456 81 471 97 484 C 113 496 131 506 153 513 C 175 519 199 523 225 523 C 255 523 284 519 312 512 C 340 505 366 496 390 485 L 368 442 C 348 451 326 459 301 466 C 275 473 250 477 225 477 C 187 477 158 468 136 451 C 114 433 104 411 104 383 C 104 358 111 339 127 326 C 142 313 161 303 184 295 C 206 287 231 281 258 275 C 284 269 309 261 332 251 C 354 241 373 226 389 208 C 404 189 412 163 412 130 C 412 86 396 51 364 26 C 332 0 287 -12 228 -12 C 190 -12 155 -7 123 2 C 91 12 64 23 42 37 L 68 79 Z" unicode="ŝ" />
<glyph horiz-adv-x="607" d="M 159 -191 C 188 -167 214 -140 236 -110 C 258 -80 273 -47 281 -11 C 234 -8 191 0 152 12 C 113 25 81 40 57 58 L 86 103 C 111 85 143 70 181 58 C 219 45 260 39 306 39 C 369 39 416 52 446 78 C 476 104 491 137 491 177 C 491 213 480 240 459 259 C 438 278 412 293 381 304 C 349 314 315 323 279 331 C 243 339 209 349 178 363 C 146 377 120 396 99 421 C 78 446 68 481 68 527 C 68 553 73 577 83 600 C 93 622 109 642 129 658 C 149 674 173 687 202 697 C 230 707 263 712 300 712 C 347 712 389 707 425 697 C 461 687 494 675 522 662 L 499 614 C 473 626 444 637 412 647 C 379 656 342 661 302 661 C 246 661 203 648 173 623 C 142 597 127 566 127 528 C 127 491 137 463 158 445 C 179 426 205 411 237 401 C 268 390 302 381 338 373 C 374 365 408 355 440 341 C 471 327 497 308 518 283 C 539 258 550 223 550 177 C 550 151 545 126 536 104 C 526 82 512 62 493 45 C 474 28 450 15 421 5 C 392 -5 358 -10 320 -12 C 313 -50 300 -87 280 -121 C 260 -155 235 -186 205 -214 L 159 -191 Z" unicode="Ş" />
<glyph horiz-adv-x="455" d="M 82 -191 C 111 -167 137 -140 159 -110 C 181 -80 196 -47 204 -11 C 171 -9 141 -3 113 5 C 85 14 61 25 42 37 L 68 79 C 86 67 109 56 137 47 C 165 38 196 34 228 34 C 270 34 302 42 324 59 C 346 76 357 99 357 128 C 357 153 349 172 334 185 C 318 198 299 208 277 216 C 254 224 229 231 203 237 C 176 243 151 251 129 261 C 106 271 87 286 72 304 C 56 322 49 348 49 381 C 49 402 53 421 61 439 C 69 456 81 471 97 484 C 113 496 131 506 153 513 C 175 519 199 523 225 523 C 255 523 284 519 312 512 C 340 505 366 496 390 485 L 368 442 C 348 451 326 459 301 466 C 275 473 250 477 225 477 C 187 477 158 468 136 451 C 114 433 104 411 104 383 C 104 358 111 339 127 326 C 142 313 161 303 184 295 C 206 287 231 281 258 275 C 284 269 309 261 332 251 C 354 241 373 226 389 208 C 404 189 412 163 412 130 C 412 88 397 54 368 29 C 338 4 297 -9 243 -11 C 236 -50 223 -87 203 -121 C 183 -155 158 -186 128 -214 L 82 -191 Z" unicode="ş" />
<glyph horiz-adv-x="607" d="M 146 863 L 187 863 L 304 791 L 305 791 L 421 863 L 462 863 L 334 755 L 274 755 L 146 863 Z M 86 103 C 111 85 143 70 181 58 C 219 45 260 39 306 39 C 369 39 416 52 446 78 C 476 104 491 137 491 177 C 491 213 480 240 459 259 C 438 278 412 293 381 304 C 349 314 315 323 279 331 C 243 339 209 349 178 363 C 146 377 120 396 99 421 C 78 446 68 481 68 527 C 68 553 73 577 83 600 C 93 622 109 642 129 658 C 149 674 173 687 202 697 C 230 707 263 712 300 712 C 347 712 389 707 425 697 C 461 687 494 675 522 662 L 499 614 C 473 626 444 637 412 647 C 379 656 342 661 302 661 C 246 661 203 648 173 623 C 142 597 127 566 127 528 C 127 491 137 463 158 445 C 179 426 205 411 237 401 C 268 390 302 381 338 373 C 374 365 408 355 440 341 C 471 327 497 308 518 283 C 539 258 550 223 550 177 C 550 150 545 125 535 102 C 525 79 510 59 490 42 C 470 25 444 12 414 2 C 383 -7 347 -12 306 -12 C 254 -12 206 -5 163 9 C 119 23 84 39 57 58 L 86 103 Z" unicode="Š" />
<glyph horiz-adv-x="455" d="M 72 723 L 113 723 L 228 603 L 230 603 L 344 723 L 386 723 L 260 566 L 198 566 L 72 723 Z M 68 79 C 86 67 109 56 137 47 C 165 38 196 34 228 34 C 270 34 302 42 324 59 C 346 76 357 99 357 128 C 357 153 349 172 334 185 C 318 198 299 208 277 216 C 254 224 229 231 203 237 C 176 243 151 251 129 261 C 106 271 87 286 72 304 C 56 322 49 348 49 381 C 49 402 53 421 61 439 C 69 456 81 471 97 484 C 113 496 131 506 153 513 C 175 519 199 523 225 523 C 255 523 284 519 312 512 C 340 505 366 496 390 485 L 368 442 C 348 451 326 459 301 466 C 275 473 250 477 225 477 C 187 477 158 468 136 451 C 114 433 104 411 104 383 C 104 358 111 339 127 326 C 142 313 161 303 184 295 C 206 287 231 281 258 275 C 284 269 309 261 332 251 C 354 241 373 226 389 208 C 404 189 412 163 412 130 C 412 86 396 51 364 26 C 332 0 287 -12 228 -12 C 190 -12 155 -7 123 2 C 91 12 64 23 42 37 L 68 79 Z" unicode="š" />
<glyph horiz-adv-x="644" d="M 294 649 L 31 649 L 31 700 L 613 700 L 613 649 L 350 649 L 350 0 L 294 0 L 294 649 Z M 343 -49 C 333 -81 320 -110 302 -138 C 284 -165 263 -190 238 -214 L 192 -191 C 216 -171 237 -150 256 -126 C 275 -102 290 -77 302 -49 L 343 -49 Z" unicode="Ţ" />
<glyph horiz-adv-x="370" d="M 119 466 L 25 466 L 25 511 L 119 511 L 119 671 L 174 671 L 174 511 L 324 511 L 324 466 L 174 466 L 174 130 C 174 99 179 75 191 59 C 203 42 224 34 254 34 C 280 34 304 42 328 58 L 351 20 C 337 10 322 3 304 -3 C 286 -9 268 -12 249 -12 C 203 -12 169 0 149 24 C 129 48 119 84 119 130 L 119 466 Z M 206 -49 C 196 -81 183 -110 165 -138 C 147 -165 126 -190 101 -214 L 55 -191 C 79 -171 100 -150 119 -126 C 138 -102 153 -77 165 -49 L 206 -49 Z" unicode="ţ" />
<glyph horiz-adv-x="644" d="M 164 863 L 205 863 L 322 791 L 323 791 L 439 863 L 480 863 L 352 755 L 292 755 L 164 863 Z M 294 649 L 31 649 L 31 700 L 613 700 L 613 649 L 350 649 L 350 0 L 294 0 L 294 649 Z" unicode="Ť" />
<glyph horiz-adv-x="370" d="M 260 718 C 264 719 270 720 276 721 C 282 721 288 722 294 722 C 319 722 338 715 350 703 C 362 691 369 675 369 656 C 369 640 364 623 354 607 C 343 590 330 575 314 561 L 273 561 C 289 577 301 592 310 607 C 319 622 324 636 324 649 C 324 659 320 667 314 674 C 308 681 298 685 285 685 C 281 685 277 684 273 684 C 269 683 265 682 260 682 L 260 718 Z M 119 466 L 25 466 L 25 511 L 119 511 L 119 671 L 174 671 L 174 511 L 324 511 L 324 466 L 174 466 L 174 130 C 174 99 179 75 191 59 C 203 42 224 34 254 34 C 280 34 304 42 328 58 L 351 20 C 337 10 322 3 304 -3 C 286 -9 268 -12 249 -12 C 203 -12 169 0 149 24 C 129 48 119 84 119 130 L 119 466 Z" unicode="ť" />
<glyph horiz-adv-x="644" d="M 121 372 L 294 372 L 294 649 L 31 649 L 31 700 L 613 700 L 613 649 L 350 649 L 350 372 L 523 372 L 523 331 L 350 331 L 350 0 L 294 0 L 294 331 L 121 331 L 121 372 Z" unicode="Ŧ" />
<glyph horiz-adv-x="370" d="M 34 320 L 119 320 L 119 466 L 25 466 L 25 511 L 119 511 L 119 671 L 174 671 L 174 511 L 324 511 L 324 466 L 174 466 L 174 320 L 312 320 L 312 280 L 174 280 L 174 130 C 174 99 179 75 191 59 C 203 42 224 34 254 34 C 280 34 304 42 328 58 L 351 20 C 337 10 322 3 304 -3 C 286 -9 268 -12 249 -12 C 203 -12 169 0 149 24 C 129 48 119 84 119 130 L 119 280 L 34 280 L 34 320 Z" unicode="ŧ" />
<glyph horiz-adv-x="712" d="M 218 764 C 214 796 219 820 233 838 C 247 856 266 865 290 865 C 304 865 317 861 329 854 C 340 846 351 838 361 830 C 371 821 380 813 390 806 C 399 798 409 795 420 795 C 432 795 442 800 449 810 C 456 820 459 835 457 854 L 495 854 C 498 822 492 797 478 779 C 464 761 445 753 422 753 C 407 753 394 756 383 764 C 371 771 361 779 351 787 C 341 795 331 803 322 811 C 312 818 302 822 292 822 C 279 822 269 817 262 807 C 254 797 252 782 255 764 L 218 764 Z M 87 700 L 144 700 L 144 256 C 144 220 149 189 160 162 C 171 134 186 111 205 93 C 224 75 247 61 273 52 C 299 42 326 38 356 38 C 385 38 413 42 439 52 C 465 61 487 75 507 93 C 526 111 541 134 552 162 C 563 189 569 220 569 256 L 569 700 L 626 700 L 626 256 C 626 211 619 172 605 139 C 591 105 571 77 547 55 C 523 33 494 16 462 5 C 429 -6 394 -12 356 -12 C 318 -12 283 -6 251 5 C 218 16 189 33 165 55 C 141 77 122 105 108 139 C 94 172 87 211 87 256 L 87 700 Z" unicode="Ũ" />
<glyph horiz-adv-x="567" d="M 145 599 C 141 631 147 655 161 673 C 175 691 194 700 218 700 C 232 700 245 696 257 689 C 268 681 278 673 288 665 C 298 657 307 649 317 642 C 326 634 336 631 347 631 C 359 631 369 636 376 646 C 383 656 386 670 384 690 L 421 690 C 425 657 419 632 405 614 C 391 596 372 588 349 588 C 334 588 321 591 310 599 C 298 606 288 614 278 622 C 268 630 259 638 250 646 C 240 653 230 657 220 657 C 206 657 196 652 189 642 C 182 632 180 617 183 599 L 145 599 Z M 82 511 L 137 511 L 137 158 C 137 121 145 91 161 68 C 177 44 207 33 250 33 C 286 33 318 41 348 57 C 377 73 404 96 428 126 L 428 511 L 483 511 L 483 0 L 435 0 L 428 75 C 404 51 377 30 346 13 C 314 -3 279 -12 241 -12 C 212 -12 187 -7 167 0 C 147 8 130 20 118 35 C 105 50 96 68 90 89 C 84 110 82 133 82 159 L 82 511 Z" unicode="ũ" />
<glyph horiz-adv-x="712" d="M 215 830 L 497 830 L 497 788 L 215 788 L 215 830 Z M 87 700 L 144 700 L 144 256 C 144 220 149 189 160 162 C 171 134 186 111 205 93 C 224 75 247 61 273 52 C 299 42 326 38 356 38 C 385 38 413 42 439 52 C 465 61 487 75 507 93 C 526 111 541 134 552 162 C 563 189 569 220 569 256 L 569 700 L 626 700 L 626 256 C 626 211 619 172 605 139 C 591 105 571 77 547 55 C 523 33 494 16 462 5 C 429 -6 394 -12 356 -12 C 318 -12 283 -6 251 5 C 218 16 189 33 165 55 C 141 77 122 105 108 139 C 94 172 87 211 87 256 L 87 700 Z" unicode="Ū" />
<glyph horiz-adv-x="567" d="M 142 665 L 423 665 L 423 623 L 142 623 L 142 665 Z M 82 511 L 137 511 L 137 158 C 137 121 145 91 161 68 C 177 44 207 33 250 33 C 286 33 318 41 348 57 C 377 73 404 96 428 126 L 428 511 L 483 511 L 483 0 L 435 0 L 428 75 C 404 51 377 30 346 13 C 314 -3 279 -12 241 -12 C 212 -12 187 -7 167 0 C 147 8 130 20 118 35 C 105 50 96 68 90 89 C 84 110 82 133 82 159 L 82 511 Z" unicode="ū" />
<glyph horiz-adv-x="712" d="M 356 750 C 312 750 276 760 248 780 C 220 800 202 828 193 863 L 236 863 C 243 841 257 824 277 811 C 297 797 324 791 356 791 C 388 791 414 797 434 811 C 454 824 468 841 476 863 L 518 863 C 509 828 491 800 463 780 C 435 760 399 750 356 750 Z M 87 700 L 144 700 L 144 256 C 144 220 149 189 160 162 C 171 134 186 111 205 93 C 224 75 247 61 273 52 C 299 42 326 38 356 38 C 385 38 413 42 439 52 C 465 61 487 75 507 93 C 526 111 541 134 552 162 C 563 189 569 220 569 256 L 569 700 L 626 700 L 626 256 C 626 211 619 172 605 139 C 591 105 571 77 547 55 C 523 33 494 16 462 5 C 429 -6 394 -12 356 -12 C 318 -12 283 -6 251 5 C 218 16 189 33 165 55 C 141 77 122 105 108 139 C 94 172 87 211 87 256 L 87 700 Z" unicode="Ŭ" />
<glyph horiz-adv-x="567" d="M 283 563 C 239 563 203 577 175 605 C 147 633 132 673 128 723 L 168 723 C 172 687 185 658 205 637 C 225 616 251 606 283 606 C 315 606 341 616 361 637 C 381 658 393 687 397 723 L 438 723 C 434 673 418 633 390 605 C 362 577 326 563 283 563 Z M 82 511 L 137 511 L 137 158 C 137 121 145 91 161 68 C 177 44 207 33 250 33 C 286 33 318 41 348 57 C 377 73 404 96 428 126 L 428 511 L 483 511 L 483 0 L 435 0 L 428 75 C 404 51 377 30 346 13 C 314 -3 279 -12 241 -12 C 212 -12 187 -7 167 0 C 147 8 130 20 118 35 C 105 50 96 68 90 89 C 84 110 82 133 82 159 L 82 511 Z" unicode="ŭ" />
<glyph horiz-adv-x="712" d="M 356 753 C 328 753 305 762 286 780 C 267 798 258 821 258 849 C 258 876 267 899 286 917 C 305 935 328 945 356 945 C 383 945 406 935 425 917 C 444 899 454 876 454 849 C 454 821 444 798 425 780 C 406 762 383 753 356 753 Z M 356 780 C 375 780 391 786 404 800 C 417 813 424 829 424 849 C 424 868 417 884 404 897 C 391 910 375 917 356 917 C 336 917 320 910 307 897 C 294 884 288 868 288 849 C 288 829 294 813 307 800 C 320 786 336 780 356 780 Z M 87 700 L 144 700 L 144 256 C 144 220 149 189 160 162 C 171 134 186 111 205 93 C 224 75 247 61 273 52 C 299 42 326 38 356 38 C 385 38 413 42 439 52 C 465 61 487 75 507 93 C 526 111 541 134 552 162 C 563 189 569 220 569 256 L 569 700 L 626 700 L 626 256 C 626 211 619 172 605 139 C 591 105 571 77 547 55 C 523 33 494 16 462 5 C 429 -6 394 -12 356 -12 C 318 -12 283 -6 251 5 C 218 16 189 33 165 55 C 141 77 122 105 108 139 C 94 172 87 211 87 256 L 87 700 Z" unicode="Ů" />
<glyph horiz-adv-x="567" d="M 283 563 C 255 563 232 572 213 590 C 194 608 185 631 185 659 C 185 686 194 709 213 727 C 232 745 255 755 283 755 C 309 755 332 745 351 727 C 370 709 380 686 380 659 C 380 631 370 608 351 590 C 332 572 309 563 283 563 Z M 283 590 C 302 590 318 596 331 610 C 344 623 351 639 351 659 C 351 678 344 694 331 708 C 318 721 302 728 283 728 C 263 728 247 721 234 708 C 220 694 214 678 214 659 C 214 639 220 623 234 610 C 247 596 263 590 283 590 Z M 82 511 L 137 511 L 137 158 C 137 121 145 91 161 68 C 177 44 207 33 250 33 C 286 33 318 41 348 57 C 377 73 404 96 428 126 L 428 511 L 483 511 L 483 0 L 435 0 L 428 75 C 404 51 377 30 346 13 C 314 -3 279 -12 241 -12 C 212 -12 187 -7 167 0 C 147 8 130 20 118 35 C 105 50 96 68 90 89 C 84 110 82 133 82 159 L 82 511 Z" unicode="ů" />
<glyph horiz-adv-x="712" d="M 503 880 L 547 846 L 437 755 L 394 755 L 503 880 Z M 364 880 L 408 846 L 298 755 L 255 755 L 364 880 Z M 87 700 L 144 700 L 144 256 C 144 220 149 189 160 162 C 171 134 186 111 205 93 C 224 75 247 61 273 52 C 299 42 326 38 356 38 C 385 38 413 42 439 52 C 465 61 487 75 507 93 C 526 111 541 134 552 162 C 563 189 569 220 569 256 L 569 700 L 626 700 L 626 256 C 626 211 619 172 605 139 C 591 105 571 77 547 55 C 523 33 494 16 462 5 C 429 -6 394 -12 356 -12 C 318 -12 283 -6 251 5 C 218 16 189 33 165 55 C 141 77 122 105 108 139 C 94 172 87 211 87 256 L 87 700 Z" unicode="Ű" />
<glyph horiz-adv-x="567" d="M 460 735 L 501 705 L 363 566 L 325 566 L 460 735 Z M 319 735 L 361 705 L 222 566 L 184 566 L 319 735 Z M 82 511 L 137 511 L 137 158 C 137 121 145 91 161 68 C 177 44 207 33 250 33 C 286 33 318 41 348 57 C 377 73 404 96 428 126 L 428 511 L 483 511 L 483 0 L 435 0 L 428 75 C 404 51 377 30 346 13 C 314 -3 279 -12 241 -12 C 212 -12 187 -7 167 0 C 147 8 130 20 118 35 C 105 50 96 68 90 89 C 84 110 82 133 82 159 L 82 511 Z" unicode="ű" />
<glyph horiz-adv-x="712" d="M 87 700 L 144 700 L 144 256 C 144 220 149 189 160 162 C 171 134 186 111 205 93 C 224 75 247 61 273 52 C 299 42 326 38 356 38 C 385 38 413 42 439 52 C 465 61 487 75 507 93 C 526 111 541 134 552 162 C 563 189 569 220 569 256 L 569 700 L 626 700 L 626 256 C 626 199 615 151 593 113 C 571 75 542 45 506 25 C 491 16 476 7 462 -2 C 447 -11 434 -21 422 -32 C 410 -42 400 -54 393 -67 C 385 -80 382 -94 382 -110 C 382 -126 387 -139 398 -148 C 408 -157 422 -162 440 -162 C 451 -162 461 -160 471 -158 C 480 -155 488 -152 496 -148 L 498 -149 L 498 -193 C 479 -201 458 -206 435 -206 C 406 -206 382 -198 364 -184 C 345 -169 336 -148 336 -120 C 336 -98 342 -77 354 -59 C 366 -40 382 -23 401 -8 C 394 -9 387 -10 379 -11 C 371 -11 363 -12 356 -12 C 318 -12 283 -6 251 5 C 218 16 189 33 165 55 C 141 77 122 105 108 139 C 94 172 87 211 87 256 L 87 700 Z" unicode="Ų" />
<glyph horiz-adv-x="567" d="M 82 511 L 137 511 L 137 158 C 137 121 145 91 161 68 C 177 44 207 33 250 33 C 286 33 318 41 348 57 C 377 73 404 96 428 126 L 428 511 L 483 511 L 483 0 C 457 -13 435 -29 418 -47 C 401 -65 393 -87 393 -111 C 393 -127 398 -140 409 -149 C 420 -157 433 -162 448 -162 C 459 -162 469 -160 479 -158 C 488 -155 496 -152 504 -148 L 506 -149 L 506 -193 C 487 -201 466 -206 442 -206 C 416 -206 394 -198 376 -184 C 357 -170 348 -149 348 -121 C 348 -95 356 -71 372 -50 C 388 -29 408 -11 434 4 L 428 75 C 404 51 377 30 346 13 C 314 -3 279 -12 241 -12 C 212 -12 187 -7 167 0 C 147 8 130 20 118 35 C 105 50 96 68 90 89 C 84 110 82 133 82 159 L 82 511 Z" unicode="ų" />
<glyph horiz-adv-x="1023" d="M 481 863 L 541 863 L 669 755 L 628 755 L 512 828 L 511 828 L 394 755 L 353 755 L 481 863 Z M 36 700 L 97 700 L 293 73 L 295 73 L 482 700 L 542 700 L 729 73 L 731 73 L 927 700 L 988 700 L 763 0 L 698 0 L 512 621 L 510 621 L 325 0 L 260 0 L 36 700 Z" unicode="Ŵ" />
<glyph horiz-adv-x="797" d="M 368 723 L 430 723 L 556 566 L 514 566 L 400 686 L 398 686 L 283 566 L 242 566 L 368 723 Z M 26 511 L 84 511 L 232 66 L 234 66 L 372 511 L 425 511 L 564 66 L 566 66 L 714 511 L 771 511 L 596 0 L 536 0 L 399 435 L 397 435 L 261 0 L 201 0 L 26 511 Z" unicode="ŵ" />
<glyph horiz-adv-x="651" d="M 295 863 L 355 863 L 483 755 L 442 755 L 326 828 L 325 828 L 208 755 L 167 755 L 295 863 Z M 297 287 L 34 700 L 101 700 L 325 340 L 327 340 L 550 700 L 617 700 L 354 287 L 354 0 L 297 0 L 297 287 Z" unicode="Ŷ" />
<glyph horiz-adv-x="487" d="M 214 723 L 276 723 L 402 566 L 360 566 L 246 686 L 244 686 L 129 566 L 88 566 L 214 723 Z M 36 -150 C 44 -153 53 -156 63 -159 C 73 -161 82 -163 92 -163 C 112 -163 129 -158 143 -149 C 157 -139 170 -121 180 -95 L 218 4 L 26 511 L 85 511 L 245 76 L 247 76 L 403 511 L 461 511 L 234 -102 C 218 -144 199 -172 175 -187 C 151 -202 124 -210 93 -210 C 80 -210 67 -208 54 -206 C 41 -203 30 -200 20 -196 L 36 -150 Z" unicode="ŷ" />
<glyph horiz-adv-x="651" d="M 203 842 L 259 842 L 259 777 L 203 777 L 203 842 Z M 393 842 L 449 842 L 449 777 L 393 777 L 393 842 Z M 297 287 L 34 700 L 101 700 L 325 340 L 327 340 L 550 700 L 617 700 L 354 287 L 354 0 L 297 0 L 297 287 Z" unicode="Ÿ" />
<glyph horiz-adv-x="644" d="M 393 880 L 438 846 L 326 755 L 282 755 L 393 880 Z M 60 52 L 507 649 L 61 649 L 61 700 L 575 700 L 575 648 L 130 52 L 586 52 L 586 0 L 60 0 L 60 52 Z" unicode="Ź" />
<glyph horiz-adv-x="490" d="M 347 735 L 388 703 L 247 566 L 208 566 L 347 735 Z M 54 42 L 365 464 L 62 464 L 62 511 L 433 511 L 433 468 L 123 46 L 444 46 L 444 0 L 54 0 L 54 42 Z" unicode="ź" />
<glyph horiz-adv-x="644" d="M 284 857 L 339 857 L 339 777 L 284 777 L 284 857 Z M 60 52 L 507 649 L 61 649 L 61 700 L 575 700 L 575 648 L 130 52 L 586 52 L 586 0 L 60 0 L 60 52 Z" unicode="Ż" />
<glyph horiz-adv-x="490" d="M 213 739 L 268 739 L 268 658 L 213 658 L 213 739 Z M 54 42 L 365 464 L 62 464 L 62 511 L 433 511 L 433 468 L 123 46 L 444 46 L 444 0 L 54 0 L 54 42 Z" unicode="ż" />
<glyph horiz-adv-x="644" d="M 157 863 L 198 863 L 315 791 L 316 791 L 432 863 L 473 863 L 345 755 L 285 755 L 157 863 Z M 60 52 L 507 649 L 61 649 L 61 700 L 575 700 L 575 648 L 130 52 L 586 52 L 586 0 L 60 0 L 60 52 Z" unicode="Ž" />
<glyph horiz-adv-x="490" d="M 88 723 L 129 723 L 244 603 L 246 603 L 360 723 L 402 723 L 276 566 L 214 566 L 88 723 Z M 54 42 L 365 464 L 62 464 L 62 511 L 433 511 L 433 468 L 123 46 L 444 46 L 444 0 L 54 0 L 54 42 Z" unicode="ž" />
<glyph horiz-adv-x="729" d="M 615 357 L 615 359 C 615 405 608 446 595 484 C 582 521 563 553 539 579 C 515 605 485 626 451 640 C 417 654 379 662 337 662 C 303 662 269 656 236 645 C 202 634 172 619 144 599 L 113 641 C 144 663 179 681 218 693 C 257 705 297 712 337 712 C 388 712 434 703 476 687 C 517 670 552 646 581 616 C 610 585 633 548 649 504 C 665 460 673 412 673 359 C 673 302 665 251 650 205 C 634 159 613 120 585 88 C 557 56 522 31 482 14 C 442 -3 397 -12 347 -12 C 301 -12 261 -4 226 10 C 191 24 162 45 138 72 C 114 99 96 131 84 169 C 72 207 66 249 66 295 C 66 305 66 315 67 325 C 67 335 68 346 70 357 L 615 357 Z M 347 37 C 386 37 421 43 452 56 C 483 69 510 88 533 112 C 555 136 573 165 587 199 C 601 233 609 272 613 315 L 122 315 C 120 272 123 233 132 199 C 141 165 155 136 174 112 C 193 88 217 69 246 56 C 275 43 309 37 347 37 Z" unicode="Ə" />
<glyph horiz-adv-x="363" d="M -23 -156 C -17 -157 -10 -158 -1 -160 C 7 -162 16 -163 25 -163 C 59 -163 83 -150 97 -126 C 111 -102 118 -67 118 -21 L 118 416 L 23 416 L 23 460 L 118 460 L 118 519 C 118 553 122 583 132 607 C 141 631 154 651 171 667 C 188 683 208 694 231 701 C 254 708 280 712 308 712 C 318 712 330 711 343 709 C 356 707 366 704 374 702 L 360 658 C 354 660 347 661 337 663 C 327 665 317 666 309 666 C 267 666 234 654 210 631 C 186 607 174 570 174 519 L 174 460 L 320 460 L 320 416 L 174 416 L 174 -21 C 174 -87 162 -135 139 -165 C 115 -194 79 -209 29 -209 C 17 -209 6 -208 -5 -206 C -17 -204 -27 -202 -37 -199 L -23 -156 Z" unicode="ƒ" />
<glyph horiz-adv-x="663" d="M 90 700 L 146 700 L 146 271 C 159 275 172 282 185 291 C 198 300 211 312 225 328 C 239 343 253 362 267 385 C 281 407 295 434 310 466 C 330 509 351 545 373 575 C 394 604 416 628 439 646 C 461 664 485 677 509 685 C 533 693 559 699 586 702 L 588 655 C 568 652 548 647 528 640 C 508 632 489 621 470 605 C 450 589 431 568 413 542 C 394 516 375 483 357 444 L 616 0 L 548 0 L 328 387 C 313 359 298 336 284 318 C 269 299 254 283 240 271 C 225 258 210 248 195 240 C 179 232 163 226 146 220 L 146 0 L 90 0 L 90 700 Z" unicode="Ƙ" />
<glyph horiz-adv-x="515" d="M 88 584 C 88 616 91 643 99 665 C 106 687 116 704 129 718 C 142 732 158 742 176 748 C 194 754 215 758 237 758 L 237 711 C 209 711 186 701 169 682 C 151 663 143 630 143 584 L 143 229 L 397 511 L 462 511 L 308 344 L 490 0 L 427 0 L 271 303 L 143 163 L 143 0 L 88 0 L 88 584 Z" unicode="ƙ" />
<glyph horiz-adv-x="808" d="M 60 355 C 60 409 69 458 87 502 C 105 546 129 583 160 614 C 191 645 227 669 269 686 C 311 703 356 712 404 712 C 452 712 496 703 538 686 C 580 669 616 645 647 614 C 678 583 703 546 721 502 C 739 458 748 409 748 355 C 748 298 739 247 721 202 C 703 156 679 118 648 86 C 617 54 581 30 539 13 C 497 -3 452 -12 404 -12 C 355 -12 310 -3 268 13 C 226 30 190 54 159 86 C 128 118 104 156 86 202 C 68 247 60 298 60 355 Z M 404 662 C 365 662 329 655 295 641 C 261 627 231 608 205 583 C 179 557 159 527 143 491 C 127 455 119 414 118 370 L 690 370 C 688 414 679 455 664 491 C 648 527 628 557 602 583 C 576 608 547 627 513 641 C 479 655 442 662 404 662 Z M 404 38 C 442 38 477 44 511 58 C 545 71 574 90 600 115 C 625 140 645 171 661 207 C 677 243 686 284 689 330 L 118 330 C 120 284 129 243 145 207 C 161 171 181 140 207 115 C 233 90 262 71 296 58 C 330 44 366 38 404 38 Z" unicode="Ɵ" />
<glyph horiz-adv-x="627" d="M 481 647 L 38 647 L 38 700 L 560 700 L 560 651 L 212 299 C 226 301 241 304 257 306 C 273 308 288 309 303 309 C 348 309 388 303 424 291 C 460 279 490 262 515 240 C 539 218 558 191 571 159 C 584 127 591 92 591 53 C 591 10 582 -27 565 -60 C 548 -92 525 -120 496 -142 C 466 -164 432 -181 393 -193 C 353 -204 312 -210 268 -210 C 224 -210 183 -205 147 -197 C 110 -189 78 -178 50 -166 L 71 -120 C 95 -131 124 -141 157 -149 C 190 -157 227 -162 267 -162 C 304 -162 339 -157 371 -148 C 403 -138 432 -124 456 -106 C 480 -88 498 -65 512 -38 C 526 -11 533 19 533 54 C 533 123 511 175 467 211 C 423 247 360 265 280 265 C 260 265 240 263 220 261 C 199 259 180 256 163 253 L 137 295 L 481 647 Z" unicode="Ʒ" />
<glyph horiz-adv-x="678" d="M 181 863 L 222 863 L 339 791 L 340 791 L 456 863 L 497 863 L 369 755 L 309 755 L 181 863 Z M 185 236 L 493 236 L 340 646 L 338 646 L 185 236 Z M 304 700 L 375 700 L 643 0 L 581 0 L 510 189 L 167 189 L 97 0 L 35 0 L 304 700 Z" unicode="Ǎ" />
<glyph horiz-adv-x="514" d="M 107 723 L 148 723 L 263 603 L 265 603 L 379 723 L 421 723 L 295 566 L 233 566 L 107 723 Z M 107 116 C 107 90 116 70 134 55 C 152 39 177 32 208 32 C 244 32 275 39 303 55 C 331 70 352 88 367 110 L 367 246 C 338 244 308 242 278 238 C 247 234 219 227 194 217 C 168 207 147 194 131 178 C 115 162 107 141 107 116 Z M 52 113 C 52 146 61 173 80 195 C 99 216 124 233 154 246 C 184 258 217 267 255 273 C 293 279 330 282 367 284 L 367 375 C 367 403 358 427 340 447 C 322 466 293 476 253 476 C 225 476 196 471 168 461 C 140 451 114 441 92 430 L 69 475 C 93 487 122 498 155 508 C 187 518 220 523 254 523 C 284 523 309 519 331 511 C 352 503 369 493 383 480 C 397 466 407 451 413 433 C 419 415 423 395 423 374 L 423 100 C 423 80 427 66 437 56 C 446 46 459 41 477 41 L 477 -1 C 447 -1 423 4 407 16 C 390 28 379 45 373 68 C 353 45 329 26 299 11 C 269 -4 236 -12 198 -12 C 154 -12 118 0 92 22 C 65 44 52 75 52 113 Z" unicode="ǎ" />
<glyph horiz-adv-x="235" d="M -40 863 L 1 863 L 118 791 L 119 791 L 235 863 L 276 863 L 148 755 L 88 755 L -40 863 Z M 90 700 L 146 700 L 146 0 L 90 0 L 90 700 Z" unicode="Ǐ" />
<glyph horiz-adv-x="231" d="M -41 723 L 0 723 L 115 603 L 117 603 L 231 723 L 273 723 L 147 566 L 85 566 L -41 723 Z M 88 509 L 143 509 L 143 0 L 88 0 L 88 509 Z" unicode="ǐ" />
<glyph horiz-adv-x="808" d="M 246 863 L 287 863 L 404 791 L 405 791 L 521 863 L 562 863 L 434 755 L 374 755 L 246 863 Z M 60 355 C 60 409 69 458 87 502 C 105 546 129 583 160 614 C 191 645 227 669 269 686 C 311 703 356 712 404 712 C 452 712 496 703 538 686 C 580 669 616 645 647 614 C 678 583 703 546 721 502 C 739 458 748 409 748 355 C 748 298 739 247 721 202 C 703 156 679 118 648 86 C 617 54 581 30 539 13 C 497 -3 452 -12 404 -12 C 355 -12 310 -3 268 13 C 226 30 190 54 159 86 C 128 118 104 156 86 202 C 68 247 60 298 60 355 Z M 118 355 C 118 305 125 261 140 222 C 154 182 175 149 201 122 C 227 94 257 73 292 59 C 326 45 364 38 404 38 C 444 38 481 45 516 59 C 550 73 581 94 607 122 C 633 149 653 182 668 222 C 682 261 690 305 690 355 C 690 401 682 444 667 482 C 652 520 632 552 606 579 C 580 605 549 626 515 640 C 480 654 443 662 404 662 C 364 662 327 654 293 640 C 258 626 228 605 202 579 C 176 552 155 520 140 482 C 125 444 118 401 118 355 Z" unicode="Ǒ" />
<glyph horiz-adv-x="594" d="M 140 723 L 181 723 L 296 603 L 298 603 L 412 723 L 454 723 L 328 566 L 266 566 L 140 723 Z M 58 262 C 58 301 64 337 76 369 C 88 401 104 429 126 452 C 147 474 172 492 202 504 C 231 516 263 523 298 523 C 332 523 364 516 393 504 C 422 492 447 474 469 452 C 490 429 507 401 519 369 C 531 337 537 301 537 262 C 537 220 531 182 519 148 C 507 114 491 86 470 62 C 449 38 424 19 395 7 C 365 -5 333 -12 298 -12 C 262 -12 229 -5 200 7 C 170 19 145 38 124 62 C 103 86 87 114 75 148 C 63 182 58 220 58 262 Z M 114 262 C 114 227 118 195 127 167 C 135 139 148 115 164 95 C 180 75 199 59 222 49 C 244 38 270 33 298 33 C 325 33 350 38 372 49 C 394 59 414 75 430 95 C 446 115 458 139 467 167 C 475 195 480 227 480 262 C 480 294 475 324 466 350 C 457 376 445 399 429 418 C 413 436 393 451 371 461 C 349 471 324 477 298 477 C 271 477 246 471 224 461 C 201 451 181 436 165 418 C 149 399 136 376 127 350 C 118 324 114 294 114 262 Z" unicode="ǒ" />
<glyph horiz-adv-x="712" d="M 198 863 L 239 863 L 356 791 L 357 791 L 473 863 L 514 863 L 386 755 L 326 755 L 198 863 Z M 87 700 L 144 700 L 144 256 C 144 220 149 189 160 162 C 171 134 186 111 205 93 C 224 75 247 61 273 52 C 299 42 326 38 356 38 C 385 38 413 42 439 52 C 465 61 487 75 507 93 C 526 111 541 134 552 162 C 563 189 569 220 569 256 L 569 700 L 626 700 L 626 256 C 626 211 619 172 605 139 C 591 105 571 77 547 55 C 523 33 494 16 462 5 C 429 -6 394 -12 356 -12 C 318 -12 283 -6 251 5 C 218 16 189 33 165 55 C 141 77 122 105 108 139 C 94 172 87 211 87 256 L 87 700 Z" unicode="Ǔ" />
<glyph horiz-adv-x="567" d="M 126 723 L 167 723 L 282 603 L 284 603 L 398 723 L 440 723 L 314 566 L 252 566 L 126 723 Z M 82 511 L 137 511 L 137 158 C 137 121 145 91 161 68 C 177 44 207 33 250 33 C 286 33 318 41 348 57 C 377 73 404 96 428 126 L 428 511 L 483 511 L 483 0 L 435 0 L 428 75 C 404 51 377 30 346 13 C 314 -3 279 -12 241 -12 C 212 -12 187 -7 167 0 C 147 8 130 20 118 35 C 105 50 96 68 90 89 C 84 110 82 133 82 159 L 82 511 Z" unicode="ǔ" />
<glyph horiz-adv-x="678" d="M 198 925 L 480 925 L 480 883 L 198 883 L 198 925 Z M 216 828 L 272 828 L 272 763 L 216 763 L 216 828 Z M 406 828 L 462 828 L 462 763 L 406 763 L 406 828 Z M 185 236 L 493 236 L 340 646 L 338 646 L 185 236 Z M 304 700 L 375 700 L 643 0 L 581 0 L 510 189 L 167 189 L 97 0 L 35 0 L 304 700 Z" unicode="Ǟ" />
<glyph horiz-adv-x="514" d="M 123 782 L 404 782 L 404 740 L 123 740 L 123 782 Z M 146 665 L 202 665 L 202 600 L 146 600 L 146 665 Z M 327 665 L 383 665 L 383 600 L 327 600 L 327 665 Z M 107 116 C 107 90 116 70 134 55 C 152 39 177 32 208 32 C 244 32 275 39 303 55 C 331 70 352 88 367 110 L 367 246 C 338 244 308 242 278 238 C 247 234 219 227 194 217 C 168 207 147 194 131 178 C 115 162 107 141 107 116 Z M 52 113 C 52 146 61 173 80 195 C 99 216 124 233 154 246 C 184 258 217 267 255 273 C 293 279 330 282 367 284 L 367 375 C 367 403 358 427 340 447 C 322 466 293 476 253 476 C 225 476 196 471 168 461 C 140 451 114 441 92 430 L 69 475 C 93 487 122 498 155 508 C 187 518 220 523 254 523 C 284 523 309 519 331 511 C 352 503 369 493 383 480 C 397 466 407 451 413 433 C 419 415 423 395 423 374 L 423 100 C 423 80 427 66 437 56 C 446 46 459 41 477 41 L 477 -1 C 447 -1 423 4 407 16 C 390 28 379 45 373 68 C 353 45 329 26 299 11 C 269 -4 236 -12 198 -12 C 154 -12 118 0 92 22 C 65 44 52 75 52 113 Z" unicode="ǟ" />
<glyph horiz-adv-x="1015" d="M 342 830 L 624 830 L 624 788 L 342 788 L 342 830 Z M 204 237 L 513 237 L 395 648 L 388 648 L 204 237 Z M 355 700 L 938 700 L 938 648 L 451 648 L 530 382 L 898 382 L 898 332 L 545 332 L 627 52 L 945 52 L 945 0 L 581 0 L 527 189 L 182 189 L 98 0 L 33 0 L 355 700 Z" unicode="Ǣ" />
<glyph horiz-adv-x="868" d="M 288 665 L 569 665 L 569 623 L 288 623 L 288 665 Z M 404 99 C 395 84 384 70 370 57 C 356 43 341 31 324 21 C 306 11 287 3 266 -3 C 245 -9 223 -12 199 -12 C 155 -12 119 0 92 21 C 65 43 52 74 52 112 C 52 145 61 172 80 194 C 98 215 123 232 153 245 C 183 257 217 266 255 272 C 293 278 330 281 368 283 L 368 375 C 368 403 359 427 341 447 C 323 466 294 476 254 476 C 226 476 197 471 169 462 C 141 452 115 442 92 430 L 69 475 C 94 487 123 498 156 508 C 188 518 221 523 254 523 C 304 523 341 512 365 491 C 389 469 403 441 409 407 C 428 443 455 472 489 492 C 523 512 562 523 606 523 C 641 523 671 517 697 506 C 722 494 743 479 759 459 C 775 439 788 415 796 388 C 804 361 808 332 808 300 C 808 294 807 288 807 281 C 806 274 805 268 805 263 L 423 263 C 423 184 439 126 472 90 C 504 53 550 35 609 35 C 637 35 665 39 692 49 C 719 59 742 70 762 84 L 789 45 C 765 27 738 13 706 3 C 674 -6 641 -12 607 -12 C 558 -12 517 -2 483 16 C 449 35 423 63 404 99 Z M 754 304 C 754 328 752 350 747 371 C 741 392 733 411 721 427 C 709 443 694 455 676 465 C 657 474 634 479 607 479 C 559 479 518 463 486 432 C 453 400 433 358 426 304 L 754 304 Z M 107 116 C 107 90 116 70 135 55 C 153 39 178 32 208 32 C 245 32 280 41 313 60 C 345 79 369 106 384 140 C 378 155 374 171 372 189 C 369 207 368 225 368 245 C 339 244 309 242 279 238 C 248 234 220 227 195 217 C 169 207 148 194 132 178 C 115 162 107 141 107 116 Z" unicode="ǣ" />
<glyph horiz-adv-x="726" d="M 455 220 L 592 220 L 592 312 L 381 312 L 381 357 L 645 357 L 645 220 L 736 220 L 736 179 L 645 179 L 645 55 C 613 33 576 17 536 5 C 495 -6 452 -12 408 -12 C 354 -12 306 -3 263 14 C 220 31 184 56 154 88 C 124 120 100 159 84 205 C 68 251 60 302 60 359 C 60 411 68 458 85 502 C 101 545 125 582 156 613 C 186 644 223 668 266 686 C 308 703 356 712 408 712 C 450 712 490 706 528 696 C 566 686 601 671 633 651 L 604 609 C 576 626 546 639 513 648 C 479 657 445 662 409 662 C 365 662 326 654 290 640 C 254 625 224 604 198 578 C 172 551 153 519 139 482 C 125 445 118 404 118 359 C 118 310 124 266 138 226 C 151 186 170 153 195 125 C 220 97 251 75 287 60 C 323 45 363 38 409 38 C 445 38 479 42 511 50 C 543 58 570 70 592 84 L 592 179 L 455 179 L 455 220 Z" unicode="Ǥ" />
<glyph horiz-adv-x="558" d="M 254 191 C 276 191 296 194 315 202 C 333 209 349 219 363 232 C 377 245 388 261 396 279 C 404 297 408 316 408 337 C 408 357 404 376 396 394 C 388 411 377 426 363 439 C 349 451 333 461 315 469 C 296 476 276 480 254 480 C 232 480 212 476 194 469 C 175 461 159 451 145 439 C 131 426 121 411 113 394 C 105 376 102 357 102 337 C 102 316 105 297 113 279 C 121 261 131 245 145 232 C 159 219 175 209 194 202 C 212 194 232 191 254 191 Z M -14 -56 L 35 -56 C 39 -34 50 -16 66 -1 C 82 14 103 27 128 37 C 98 54 84 78 84 110 C 84 125 88 139 97 152 C 105 165 116 176 130 184 C 104 200 84 222 70 248 C 55 274 48 303 48 337 C 48 364 53 389 64 412 C 74 434 89 454 107 470 C 125 486 147 499 173 509 C 198 518 225 523 254 523 C 306 523 350 509 388 481 C 406 494 426 505 449 513 C 471 521 498 525 530 524 L 530 479 C 502 479 480 478 462 475 C 444 471 428 466 413 459 C 428 443 440 424 449 404 C 457 383 462 361 462 337 C 462 309 456 283 445 260 C 434 237 419 217 400 201 C 381 184 359 171 334 162 C 308 153 282 149 254 149 C 222 149 191 155 162 168 C 152 162 144 154 138 146 C 132 137 129 128 129 118 C 129 104 133 93 141 85 C 149 77 161 70 175 66 C 189 62 207 59 227 57 C 247 55 269 54 293 53 C 321 51 347 47 373 43 C 399 39 422 32 442 24 C 462 16 478 5 491 -7 C 504 -20 512 -36 516 -56 L 560 -56 L 560 -96 L 516 -96 C 509 -132 485 -160 444 -180 C 403 -200 345 -210 271 -210 C 200 -210 145 -200 105 -180 C 65 -160 41 -132 35 -96 L -14 -96 L -14 -56 Z M 281 7 C 238 8 203 12 175 20 C 153 13 135 3 119 -9 C 103 -21 93 -37 89 -56 L 461 -56 C 451 -34 430 -18 398 -10 C 366 -1 327 4 281 7 Z M 90 -96 C 97 -119 116 -137 146 -149 C 176 -161 217 -168 269 -168 C 325 -168 370 -162 403 -150 C 436 -138 456 -120 463 -96 L 90 -96 Z" unicode="ǥ" />
<glyph horiz-adv-x="724" d="M 223 863 L 264 863 L 381 791 L 382 791 L 498 863 L 539 863 L 411 755 L 351 755 L 223 863 Z M 60 359 C 60 411 68 458 85 502 C 101 545 125 582 156 613 C 186 644 223 668 266 686 C 308 703 356 712 408 712 C 450 712 490 706 528 696 C 566 686 601 671 633 651 L 604 609 C 576 626 546 639 513 648 C 479 657 445 662 409 662 C 365 662 326 654 290 640 C 254 625 224 604 198 578 C 172 551 153 519 139 482 C 125 445 118 404 118 359 C 118 310 124 266 138 226 C 151 186 170 153 195 125 C 220 97 251 75 287 60 C 323 45 363 38 409 38 C 445 38 479 42 511 50 C 543 58 570 70 592 84 L 592 312 L 381 312 L 381 357 L 645 357 L 645 55 C 613 33 576 17 536 5 C 495 -6 452 -12 408 -12 C 354 -12 306 -3 263 14 C 220 31 184 56 154 88 C 124 120 100 159 84 205 C 68 251 60 302 60 359 Z" unicode="Ǧ" />
<glyph horiz-adv-x="564" d="M 131 723 L 172 723 L 287 603 L 289 603 L 403 723 L 445 723 L 319 566 L 257 566 L 131 723 Z M 259 191 C 281 191 301 194 320 202 C 338 209 354 219 368 232 C 382 245 393 261 401 279 C 409 297 413 316 413 337 C 413 357 409 376 401 394 C 393 411 382 426 368 439 C 354 451 338 461 320 469 C 301 476 281 480 259 480 C 237 480 217 476 199 469 C 180 461 164 451 150 439 C 136 426 126 411 118 394 C 110 376 107 357 107 337 C 107 316 110 297 118 279 C 126 261 136 245 150 232 C 164 219 180 209 199 202 C 217 194 237 191 259 191 Z M 39 -76 C 39 -49 47 -26 65 -8 C 82 10 105 25 133 37 C 103 54 89 78 89 110 C 89 125 93 139 102 152 C 110 165 121 176 135 184 C 109 200 89 222 75 248 C 60 274 53 303 53 337 C 53 364 58 389 69 412 C 79 434 94 454 112 470 C 130 486 152 499 178 509 C 203 518 230 523 259 523 C 311 523 355 509 393 481 C 411 494 431 505 454 513 C 476 521 503 525 535 524 L 535 479 C 507 479 485 478 467 475 C 449 471 433 466 418 459 C 433 443 445 424 454 404 C 462 383 467 361 467 337 C 467 309 461 283 450 260 C 439 237 424 217 405 201 C 386 184 364 171 339 162 C 313 153 287 149 259 149 C 227 149 196 155 167 168 C 157 162 149 154 143 146 C 137 137 134 128 134 118 C 134 104 138 93 146 85 C 154 77 166 70 180 66 C 194 62 212 59 232 57 C 252 55 274 54 298 53 C 328 51 357 47 385 43 C 412 38 436 31 456 21 C 476 11 493 -1 505 -17 C 517 -33 523 -52 523 -75 C 523 -118 502 -151 460 -175 C 418 -198 357 -210 276 -210 C 199 -210 140 -198 100 -175 C 59 -151 39 -118 39 -76 Z M 286 7 C 243 8 208 12 180 20 C 154 12 133 0 117 -15 C 100 -31 92 -51 92 -75 C 92 -105 107 -128 139 -144 C 170 -160 215 -168 274 -168 C 336 -168 385 -160 419 -146 C 453 -131 470 -109 470 -79 C 470 -63 465 -50 456 -40 C 446 -29 433 -20 417 -14 C 401 -8 381 -3 359 0 C 336 3 312 5 286 7 Z" unicode="ǧ" />
<glyph horiz-adv-x="663" d="M 165 863 L 206 863 L 323 791 L 324 791 L 440 863 L 481 863 L 353 755 L 293 755 L 165 863 Z M 90 700 L 146 700 L 146 277 L 519 700 L 588 700 L 358 440 L 616 0 L 548 0 L 321 398 L 146 201 L 146 0 L 90 0 L 90 700 Z" unicode="Ǩ" />
<glyph horiz-adv-x="515" d="M -42 905 L -1 905 L 116 833 L 117 833 L 233 905 L 274 905 L 146 797 L 86 797 L -42 905 Z M 88 755 L 143 755 L 143 229 L 397 511 L 462 511 L 308 344 L 490 0 L 427 0 L 272 304 L 143 163 L 143 0 L 88 0 L 88 755 Z" unicode="ǩ" />
<glyph horiz-adv-x="808" d="M 60 355 C 60 409 69 458 87 502 C 105 546 129 583 160 614 C 191 645 227 669 269 686 C 311 703 356 712 404 712 C 452 712 496 703 538 686 C 580 669 616 645 647 614 C 678 583 703 546 721 502 C 739 458 748 409 748 355 C 748 277 731 210 699 154 C 667 98 624 56 571 28 C 554 18 538 9 522 0 C 506 -10 493 -20 481 -32 C 469 -43 459 -55 452 -68 C 444 -80 441 -94 441 -110 C 441 -126 446 -139 457 -148 C 467 -157 481 -162 499 -162 C 510 -162 520 -160 529 -158 C 538 -155 546 -152 554 -148 L 557 -149 L 557 -193 C 538 -201 517 -206 494 -206 C 465 -206 441 -198 423 -184 C 404 -169 395 -148 395 -120 C 395 -96 401 -75 414 -57 C 426 -38 442 -21 462 -6 C 444 -10 424 -12 404 -12 C 355 -12 310 -3 268 13 C 226 30 190 54 159 86 C 128 118 104 156 86 202 C 68 247 60 298 60 355 Z M 118 355 C 118 305 125 261 140 222 C 154 182 175 149 201 122 C 227 94 257 73 292 59 C 326 45 364 38 404 38 C 444 38 481 45 516 59 C 550 73 581 94 607 122 C 633 149 653 182 668 222 C 682 261 690 305 690 355 C 690 401 682 444 667 482 C 652 520 632 552 606 579 C 580 605 549 626 515 640 C 480 654 443 662 404 662 C 364 662 327 654 293 640 C 258 626 228 605 202 579 C 176 552 155 520 140 482 C 125 444 118 401 118 355 Z" unicode="Ǫ" />
<glyph horiz-adv-x="594" d="M 58 262 C 58 301 64 337 76 369 C 88 401 104 429 126 452 C 147 474 172 492 202 504 C 231 516 263 523 298 523 C 332 523 364 516 393 504 C 422 492 447 474 469 452 C 490 429 507 401 519 369 C 531 337 537 301 537 262 C 537 206 527 158 507 117 C 487 75 459 44 423 22 C 407 11 391 1 377 -8 C 363 -18 350 -28 340 -39 C 329 -49 320 -60 314 -72 C 308 -83 305 -96 305 -110 C 305 -127 310 -140 321 -149 C 331 -157 345 -162 363 -162 C 374 -162 384 -160 394 -158 C 403 -155 411 -152 419 -148 L 421 -150 L 421 -193 C 402 -201 381 -206 358 -206 C 329 -206 305 -198 287 -184 C 269 -169 260 -148 260 -120 C 260 -98 266 -77 278 -59 C 290 -41 304 -24 322 -9 C 314 -11 305 -12 295 -12 C 259 -12 227 -5 198 7 C 168 20 143 38 123 62 C 102 86 86 114 75 148 C 63 182 58 220 58 262 Z M 114 262 C 114 227 118 195 127 167 C 135 139 148 115 164 95 C 180 75 199 59 222 49 C 244 38 270 33 298 33 C 325 33 350 38 372 49 C 394 59 414 75 430 95 C 446 115 458 139 467 167 C 475 195 480 227 480 262 C 480 294 475 324 466 350 C 457 376 445 399 429 418 C 413 436 393 451 371 461 C 349 471 324 477 298 477 C 271 477 246 471 224 461 C 201 451 181 436 165 418 C 149 399 136 376 127 350 C 118 324 114 294 114 262 Z" unicode="ǫ" />
<glyph horiz-adv-x="808" d="M 263 830 L 545 830 L 545 788 L 263 788 L 263 830 Z M 60 355 C 60 409 69 458 87 502 C 105 546 129 583 160 614 C 191 645 227 669 269 686 C 311 703 356 712 404 712 C 452 712 496 703 538 686 C 580 669 616 645 647 614 C 678 583 703 546 721 502 C 739 458 748 409 748 355 C 748 277 731 210 699 154 C 667 98 624 56 571 28 C 554 18 538 9 522 0 C 506 -10 493 -20 481 -32 C 469 -43 459 -55 452 -68 C 444 -80 441 -94 441 -110 C 441 -126 446 -139 457 -148 C 467 -157 481 -162 499 -162 C 510 -162 520 -160 529 -158 C 538 -155 546 -152 554 -148 L 557 -149 L 557 -193 C 538 -201 517 -206 494 -206 C 465 -206 441 -198 423 -184 C 404 -169 395 -148 395 -120 C 395 -96 401 -75 414 -57 C 426 -38 442 -21 462 -6 C 444 -10 424 -12 404 -12 C 355 -12 310 -3 268 13 C 226 30 190 54 159 86 C 128 118 104 156 86 202 C 68 247 60 298 60 355 Z M 118 355 C 118 305 125 261 140 222 C 154 182 175 149 201 122 C 227 94 257 73 292 59 C 326 45 364 38 404 38 C 444 38 481 45 516 59 C 550 73 581 94 607 122 C 633 149 653 182 668 222 C 682 261 690 305 690 355 C 690 401 682 444 667 482 C 652 520 632 552 606 579 C 580 605 549 626 515 640 C 480 654 443 662 404 662 C 364 662 327 654 293 640 C 258 626 228 605 202 579 C 176 552 155 520 140 482 C 125 444 118 401 118 355 Z" unicode="Ǭ" />
<glyph horiz-adv-x="594" d="M 156 665 L 437 665 L 437 623 L 156 623 L 156 665 Z M 58 262 C 58 301 64 337 76 369 C 88 401 104 429 126 452 C 147 474 172 492 202 504 C 231 516 263 523 298 523 C 332 523 364 516 393 504 C 422 492 447 474 469 452 C 490 429 507 401 519 369 C 531 337 537 301 537 262 C 537 206 527 158 507 117 C 487 75 459 44 423 22 C 407 11 391 1 377 -8 C 363 -18 350 -28 340 -39 C 329 -49 320 -60 314 -72 C 308 -83 305 -96 305 -110 C 305 -127 310 -140 321 -149 C 331 -157 345 -162 363 -162 C 374 -162 384 -160 394 -158 C 403 -155 411 -152 419 -148 L 421 -150 L 421 -193 C 402 -201 381 -206 358 -206 C 329 -206 305 -198 287 -184 C 269 -169 260 -148 260 -120 C 260 -98 266 -77 278 -59 C 290 -41 304 -24 322 -9 C 314 -11 305 -12 295 -12 C 259 -12 227 -5 198 7 C 168 20 143 38 123 62 C 102 86 86 114 75 148 C 63 182 58 220 58 262 Z M 114 262 C 114 227 118 195 127 167 C 135 139 148 115 164 95 C 180 75 199 59 222 49 C 244 38 270 33 298 33 C 325 33 350 38 372 49 C 394 59 414 75 430 95 C 446 115 458 139 467 167 C 475 195 480 227 480 262 C 480 294 475 324 466 350 C 457 376 445 399 429 418 C 413 436 393 451 371 461 C 349 471 324 477 298 477 C 271 477 246 471 224 461 C 201 451 181 436 165 418 C 149 399 136 376 127 350 C 118 324 114 294 114 262 Z" unicode="ǭ" />
<glyph horiz-adv-x="627" d="M 149 863 L 190 863 L 307 791 L 308 791 L 424 863 L 465 863 L 337 755 L 277 755 L 149 863 Z M 481 647 L 38 647 L 38 700 L 560 700 L 560 651 L 212 299 C 226 301 241 304 257 306 C 273 308 288 309 303 309 C 348 309 388 303 424 291 C 460 279 490 262 515 240 C 539 218 558 191 571 159 C 584 127 591 92 591 53 C 591 10 582 -27 565 -60 C 548 -92 525 -120 496 -142 C 466 -164 432 -181 393 -193 C 353 -204 312 -210 268 -210 C 224 -210 183 -205 147 -197 C 110 -189 78 -178 50 -166 L 71 -120 C 95 -131 124 -141 157 -149 C 190 -157 227 -162 267 -162 C 304 -162 339 -157 371 -148 C 403 -138 432 -124 456 -106 C 480 -88 498 -65 512 -38 C 526 -11 533 19 533 54 C 533 123 511 175 467 211 C 423 247 360 265 280 265 C 260 265 240 263 220 261 C 199 259 180 256 163 253 L 137 295 L 481 647 Z" unicode="Ǯ" />
<glyph horiz-adv-x="493" d="M 87 723 L 128 723 L 243 603 L 245 603 L 359 723 L 401 723 L 275 566 L 213 566 L 87 723 Z M 365 464 L 37 464 L 37 511 L 433 511 L 433 467 L 176 195 C 188 197 200 198 213 200 C 225 201 238 202 250 202 C 316 202 368 184 406 149 C 444 114 463 65 463 3 C 463 -31 456 -61 443 -87 C 430 -113 412 -136 390 -154 C 368 -172 341 -186 311 -196 C 280 -205 247 -210 211 -210 C 176 -210 144 -206 115 -199 C 85 -191 61 -182 41 -172 L 59 -130 C 78 -138 100 -146 126 -153 C 151 -159 179 -163 210 -163 C 238 -163 265 -159 289 -152 C 313 -144 333 -133 351 -119 C 369 -105 383 -87 393 -67 C 403 -46 408 -22 408 4 C 408 58 392 97 360 123 C 328 149 284 162 228 162 C 211 162 194 161 176 159 C 158 157 142 155 127 153 L 107 188 L 365 464 Z" unicode="ǯ" />
<glyph horiz-adv-x="239" d="M -33 723 L 8 723 L 123 603 L 125 603 L 239 723 L 281 723 L 155 566 L 93 566 L -33 723 Z M 96 509 L 151 509 L 151 -32 C 151 -64 147 -91 140 -114 C 133 -136 123 -155 111 -169 C 98 -183 83 -194 65 -200 C 47 -206 28 -210 7 -210 C -3 -210 -12 -209 -21 -207 C -29 -205 -37 -204 -44 -203 L -33 -158 C -21 -161 -9 -163 2 -163 C 30 -163 52 -153 70 -134 C 87 -114 96 -81 96 -34 L 96 509 Z" unicode="ǰ" />
<glyph horiz-adv-x="724" d="M 461 880 L 506 846 L 394 755 L 350 755 L 461 880 Z M 60 359 C 60 411 68 458 85 502 C 101 545 125 582 156 613 C 186 644 223 668 266 686 C 308 703 356 712 408 712 C 450 712 490 706 528 696 C 566 686 601 671 633 651 L 604 609 C 576 626 546 639 513 648 C 479 657 445 662 409 662 C 365 662 326 654 290 640 C 254 625 224 604 198 578 C 172 551 153 519 139 482 C 125 445 118 404 118 359 C 118 310 124 266 138 226 C 151 186 170 153 195 125 C 220 97 251 75 287 60 C 323 45 363 38 409 38 C 445 38 479 42 511 50 C 543 58 570 70 592 84 L 592 312 L 381 312 L 381 357 L 645 357 L 645 55 C 613 33 576 17 536 5 C 495 -6 452 -12 408 -12 C 354 -12 306 -3 263 14 C 220 31 184 56 154 88 C 124 120 100 159 84 205 C 68 251 60 302 60 359 Z" unicode="Ǵ" />
</font>
</defs>
</svg>
