<?xml version="1.0" encoding="utf-8" ?><svg version="1.1" xmlns = 'http://www.w3.org/2000/svg'><defs><font id='web' horiz-adv-x="1000">
<font-face font-family="web" descent="-240" cap-height="700" units-per-em="1000" bbox="-122,-364,1569,1040" x-height="529" ascent="760" />
<missing-glyph horiz-adv-x="900" d="M 200 755 L 700 755 L 700 -237 L 200 -237 L 200 755 Z M 285 688 L 450 333 L 615 688 L 285 688 Z M 268 560 L 268 -41 L 407 259 L 268 560 Z M 632 -40 L 632 559 L 493 259 L 632 -40 Z M 615 -169 L 450 183 L 285 -169 L 615 -169 Z" /><glyph horiz-adv-x="244" d="" unicode=" " />
<glyph horiz-adv-x="276" d="M 77 573 L 77 700 L 198 700 L 198 573 L 168 211 L 107 211 L 77 573 Z M 73 117 L 203 117 L 203 0 L 73 0 L 73 117 Z" unicode="!" />
<glyph horiz-adv-x="420" d="M 249 700 L 378 700 L 317 432 L 249 432 L 249 700 Z M 48 700 L 177 700 L 116 432 L 48 432 L 48 700 Z" unicode="&#x22;" />
<glyph horiz-adv-x="723" d="M 275 270 L 423 270 L 451 434 L 303 434 L 275 270 Z M 70 523 L 221 523 L 250 700 L 347 700 L 317 523 L 465 523 L 495 700 L 591 700 L 562 523 L 690 523 L 690 434 L 547 434 L 520 270 L 652 270 L 652 182 L 506 182 L 476 0 L 379 0 L 409 182 L 261 182 L 231 0 L 135 0 L 165 182 L 33 182 L 33 270 L 179 270 L 206 434 L 70 434 L 70 523 Z" unicode="#" />
<glyph horiz-adv-x="641" d="M 182 513 C 182 485 193 464 215 450 C 237 436 265 425 298 416 L 298 606 C 260 603 232 593 212 576 C 192 558 182 537 182 513 Z M 472 189 C 472 217 460 238 438 252 C 416 266 388 278 355 288 L 355 94 C 395 97 424 107 443 125 C 462 142 472 163 472 189 Z M 111 158 C 139 141 168 127 200 116 C 231 104 264 97 298 94 L 298 302 C 270 308 241 316 213 325 C 185 333 159 345 137 361 C 114 376 95 396 81 420 C 67 444 60 474 60 511 C 60 537 65 562 75 586 C 85 609 101 629 121 647 C 141 665 165 679 194 691 C 223 702 256 709 293 711 L 293 804 L 363 804 L 363 710 C 400 706 435 700 468 690 C 500 680 532 669 562 655 L 517 559 C 492 570 466 580 439 588 C 411 596 383 602 355 605 L 355 402 C 383 395 411 387 439 379 C 467 370 493 358 516 343 C 538 327 557 307 571 283 C 585 259 593 228 593 191 C 593 164 588 139 578 115 C 568 91 554 71 535 53 C 515 35 491 21 462 10 C 433 -1 399 -8 360 -11 L 360 -133 L 293 -133 L 293 -11 C 245 -7 201 0 160 14 C 118 27 82 43 52 63 L 111 158 Z" unicode="$" />
<glyph horiz-adv-x="826" d="M 218 376 C 195 376 173 379 153 387 C 133 395 115 406 100 421 C 84 435 72 453 63 473 C 54 493 50 517 50 543 C 50 569 54 592 63 612 C 72 632 84 650 99 665 C 114 679 132 690 153 698 C 173 706 195 710 218 710 C 240 710 262 706 282 698 C 302 690 320 679 335 665 C 350 650 362 632 371 612 C 380 592 385 569 385 543 C 385 517 380 493 371 473 C 362 453 350 435 335 421 C 320 406 302 395 282 387 C 262 379 240 376 218 376 Z M 608 700 L 692 700 L 210 0 L 125 0 L 608 700 Z M 218 446 C 242 446 262 454 278 472 C 294 489 302 513 302 543 C 302 573 294 597 279 615 C 263 633 243 642 218 642 C 192 642 172 633 156 615 C 140 597 133 573 133 543 C 133 513 140 489 156 472 C 172 454 192 446 218 446 Z M 609 -10 C 586 -10 564 -6 544 1 C 524 9 506 20 491 35 C 475 49 463 67 454 87 C 445 107 441 131 441 157 C 441 183 445 206 454 226 C 463 246 475 264 490 279 C 505 293 523 304 544 312 C 564 320 586 324 609 324 C 631 324 653 320 673 312 C 693 304 711 293 726 279 C 741 264 753 246 762 226 C 771 206 776 183 776 157 C 776 131 771 107 762 87 C 753 67 741 49 726 35 C 711 20 693 9 673 1 C 653 -6 631 -10 609 -10 Z M 609 60 C 633 60 653 68 669 86 C 685 103 693 127 693 157 C 693 187 685 211 670 229 C 654 247 634 256 609 256 C 583 256 563 247 547 229 C 531 211 524 187 524 157 C 524 127 531 103 547 86 C 563 68 583 60 609 60 Z" unicode="%" />
<glyph horiz-adv-x="748" d="M 460 147 C 420 178 382 210 345 242 C 308 274 273 307 239 341 C 213 325 191 306 175 284 C 159 262 151 235 151 205 C 151 171 163 143 188 120 C 213 97 249 86 297 86 C 329 86 358 91 386 102 C 414 112 438 127 460 147 Z M 41 197 C 41 221 44 243 52 263 C 59 283 69 302 82 320 C 94 337 109 353 126 367 C 143 381 161 393 181 405 C 167 424 155 444 146 466 C 137 488 133 511 133 537 C 133 561 137 583 147 605 C 157 626 170 644 188 660 C 206 676 227 688 252 698 C 276 707 304 712 334 712 C 374 712 409 703 441 687 C 473 670 500 648 524 622 L 449 558 C 432 576 414 590 394 602 C 374 613 353 619 331 619 C 304 619 283 610 268 594 C 253 578 246 559 246 538 C 246 515 252 493 265 473 C 278 453 293 434 310 417 C 342 384 376 352 412 322 C 447 291 484 261 522 231 C 542 273 553 319 553 369 L 658 369 C 658 333 653 298 644 264 C 634 230 621 198 604 168 C 624 152 645 137 666 123 C 687 108 709 93 731 78 L 668 -6 C 646 8 625 23 604 39 C 582 54 561 70 540 86 C 508 56 471 32 429 14 C 387 -3 341 -12 291 -12 C 251 -12 215 -6 184 5 C 152 17 126 32 105 52 C 84 71 68 93 57 119 C 46 144 41 170 41 197 Z" unicode="&#x26;" />
<glyph horiz-adv-x="218" d="M 48 700 L 177 700 L 116 432 L 48 432 L 48 700 Z" unicode="'" />
<glyph horiz-adv-x="400" d="M 58 277 C 58 329 62 377 72 423 C 81 469 93 512 109 552 C 125 592 143 628 164 662 C 185 696 207 727 230 755 L 362 755 C 338 731 315 702 293 670 C 270 638 250 602 232 562 C 214 522 199 478 188 430 C 177 382 172 331 172 277 C 172 223 177 172 188 124 C 199 76 214 33 232 -7 C 250 -47 270 -83 293 -115 C 315 -147 338 -176 362 -200 L 231 -200 C 207 -172 185 -141 164 -107 C 143 -73 125 -37 109 2 C 93 42 81 84 72 130 C 62 176 58 225 58 277 Z" unicode="(" />
<glyph horiz-adv-x="400" d="M 342 277 C 342 225 337 176 328 130 C 318 84 306 42 290 2 C 274 -37 256 -73 235 -107 C 214 -141 192 -172 169 -200 L 38 -200 C 61 -176 84 -147 107 -115 C 129 -83 150 -47 168 -7 C 186 33 200 76 211 124 C 222 172 228 223 228 277 C 228 331 222 382 211 430 C 200 478 186 522 168 562 C 150 602 129 638 107 670 C 84 702 61 731 38 755 L 170 755 C 193 727 215 696 236 662 C 256 628 274 592 290 552 C 306 512 318 469 328 423 C 337 377 342 329 342 277 Z" unicode=")" />
<glyph horiz-adv-x="425" d="M 173 526 L 171 527 L 45 510 L 47 600 L 173 581 L 175 583 L 125 698 L 202 720 L 226 597 L 229 596 L 324 674 L 373 605 L 261 553 L 261 550 L 369 485 L 316 420 L 226 509 L 224 508 L 189 383 L 115 410 L 173 526 Z" unicode="*" />
<glyph horiz-adv-x="616" d="M 43 401 L 254 401 L 254 616 L 362 616 L 362 401 L 573 401 L 573 302 L 362 302 L 362 86 L 254 86 L 254 302 L 43 302 L 43 401 Z" unicode="+" />
<glyph horiz-adv-x="233" d="M 50 133 L 182 133 L 182 31 C 182 -17 172 -54 154 -80 C 136 -105 107 -125 69 -141 L 42 -93 C 86 -73 108 -42 108 0 L 50 0 L 50 133 Z" unicode="," />
<glyph horiz-adv-x="387" d="M 40 316 L 347 316 L 347 215 L 40 215 L 40 316 Z" unicode="-" />
<glyph horiz-adv-x="232" d="M 50 133 L 182 133 L 182 0 L 50 0 L 50 133 Z" unicode="." />
<glyph horiz-adv-x="533" d="M 429 755 L 544 755 L 104 -200 L -11 -200 L 429 755 Z" unicode="/" />
<glyph horiz-adv-x="620" d="M 41 361 C 41 477 62 564 106 623 C 150 682 218 712 310 712 C 402 712 470 682 514 623 C 557 564 579 477 579 361 L 579 356 C 579 240 557 152 514 93 C 471 34 404 5 312 5 C 219 5 151 34 107 93 C 63 152 41 240 41 356 L 41 361 Z M 462 361 C 462 445 450 507 428 549 C 406 590 366 611 310 611 C 254 611 215 590 193 548 C 171 506 160 444 160 361 L 160 356 C 160 272 171 209 193 168 C 215 126 255 106 312 106 C 367 106 406 126 428 168 C 450 210 462 272 462 356 L 462 361 Z" unicode="0" />
<glyph horiz-adv-x="620" d="M 99 94 L 289 94 L 289 580 L 128 508 L 83 594 L 316 700 L 407 700 L 407 94 L 578 94 L 578 0 L 99 0 L 99 94 Z" unicode="1" />
<glyph horiz-adv-x="620" d="M 69 54 C 67 109 76 155 95 191 C 113 227 137 257 166 281 C 195 305 226 326 260 342 C 294 358 325 374 355 390 C 384 405 408 422 428 440 C 448 458 458 482 458 510 C 458 537 446 561 424 581 C 402 601 367 612 319 612 C 283 612 250 604 218 589 C 186 573 157 554 133 532 L 60 605 C 92 635 131 660 177 681 C 223 701 272 712 324 712 C 365 712 401 706 432 696 C 463 685 489 670 510 652 C 531 634 547 613 557 589 C 567 565 573 539 573 512 C 573 470 563 436 544 409 C 525 382 501 359 473 340 C 444 321 413 304 380 290 C 346 275 315 259 287 243 C 258 226 234 206 215 184 C 196 162 187 133 187 99 L 567 99 L 567 0 L 70 0 L 69 54 Z" unicode="2" />
<glyph horiz-adv-x="620" d="M 98 133 C 124 119 153 108 185 99 C 216 89 248 85 280 85 C 334 85 379 96 413 118 C 447 140 464 171 464 211 C 464 249 449 276 421 292 C 393 308 357 316 313 316 L 212 316 L 212 408 L 309 408 C 352 408 385 416 407 434 C 429 451 440 478 440 516 C 440 544 427 568 403 587 C 379 606 344 616 298 616 C 268 616 237 609 205 595 C 173 581 145 564 120 543 L 57 621 C 91 647 128 669 168 687 C 208 704 253 713 305 713 C 343 713 377 708 408 699 C 439 689 466 676 488 660 C 510 643 528 623 540 600 C 552 577 559 552 559 524 C 559 486 549 454 531 429 C 512 403 486 384 453 371 C 495 355 527 334 550 308 C 572 281 584 247 584 205 C 584 170 576 139 560 112 C 544 85 522 62 495 44 C 467 25 435 11 398 2 C 361 -7 322 -12 281 -12 C 240 -12 200 -6 161 3 C 122 13 86 27 54 43 L 98 133 Z" unicode="3" />
<glyph horiz-adv-x="620" d="M 30 234 L 384 700 L 509 700 L 509 239 L 609 239 L 609 145 L 509 145 L 509 0 L 395 0 L 395 145 L 67 145 L 30 234 Z M 395 239 L 395 573 L 148 239 L 395 239 Z" unicode="4" />
<glyph horiz-adv-x="620" d="M 103 133 C 129 118 157 106 189 98 C 220 90 251 86 283 86 C 332 86 372 98 402 124 C 432 150 447 184 447 228 C 447 266 434 296 409 319 C 384 342 350 354 307 354 C 287 354 265 351 241 346 C 216 340 191 333 167 324 L 101 366 L 116 700 L 529 700 L 529 606 L 221 606 L 214 420 C 231 428 251 435 274 440 C 296 445 319 448 343 448 C 374 448 403 442 430 432 C 457 422 481 407 501 388 C 521 369 536 346 548 320 C 560 293 566 263 566 230 C 566 192 558 157 543 127 C 528 97 508 71 482 50 C 456 29 426 13 392 2 C 357 -8 320 -14 281 -14 C 237 -14 197 -9 160 1 C 123 11 89 24 58 42 L 103 133 Z" unicode="5" />
<glyph horiz-adv-x="620" d="M 45 329 C 45 398 54 457 72 505 C 90 553 113 593 143 624 C 172 654 206 677 244 691 C 282 705 321 712 362 712 C 396 712 428 708 458 701 C 488 693 519 682 549 668 L 503 583 C 483 592 461 600 438 606 C 414 612 389 615 361 615 C 336 615 312 610 290 601 C 267 592 247 578 229 559 C 211 540 197 516 186 487 C 174 457 167 422 164 382 C 189 402 217 419 249 432 C 280 445 313 452 348 452 C 382 452 413 446 442 436 C 470 425 495 410 515 391 C 535 371 551 348 563 320 C 575 292 581 260 581 225 C 581 193 575 163 563 135 C 551 106 535 81 513 59 C 491 37 464 20 432 7 C 400 -5 363 -12 323 -12 C 273 -12 231 -2 196 15 C 160 33 131 58 109 89 C 87 120 70 156 60 198 C 50 239 45 283 45 329 Z M 165 291 C 166 260 170 232 178 206 C 185 180 195 158 209 140 C 222 122 238 108 258 98 C 278 88 301 83 327 83 C 349 83 368 86 385 94 C 402 102 416 112 428 125 C 440 137 449 152 455 170 C 461 187 465 205 465 224 C 465 264 452 297 427 323 C 402 349 369 362 329 362 C 295 362 264 355 236 341 C 208 327 184 310 165 291 Z" unicode="6" />
<glyph horiz-adv-x="620" d="M 436 601 L 68 601 L 68 700 L 562 700 L 562 615 L 286 0 L 158 0 L 436 601 Z" unicode="7" />
<glyph horiz-adv-x="620" d="M 33 186 C 33 208 37 229 45 248 C 53 267 65 284 79 299 C 93 314 109 327 128 338 C 146 349 166 358 186 365 C 169 371 153 378 139 388 C 124 398 111 409 100 423 C 88 436 79 451 73 467 C 66 483 63 501 63 520 C 63 550 69 576 81 600 C 93 624 111 644 133 661 C 155 677 181 690 211 699 C 241 707 274 712 310 712 C 345 712 378 707 408 699 C 438 690 465 677 487 661 C 509 644 526 624 539 600 C 551 576 558 550 558 520 C 558 501 554 483 548 467 C 541 451 532 436 521 423 C 509 409 496 398 481 388 C 466 378 450 371 434 365 C 454 358 473 349 492 338 C 510 327 527 314 541 299 C 555 284 566 267 574 248 C 582 229 587 208 587 186 C 587 154 580 126 566 102 C 552 77 533 56 509 39 C 485 22 456 9 422 1 C 388 -7 350 -12 310 -12 C 269 -12 232 -7 198 1 C 164 9 135 22 111 39 C 86 56 67 77 53 102 C 39 126 33 154 33 186 Z M 310 407 C 352 411 384 423 408 443 C 432 463 444 488 444 520 C 444 550 431 574 406 592 C 381 610 349 619 310 619 C 270 619 238 610 213 592 C 188 574 176 550 176 520 C 176 488 187 463 211 443 C 235 423 268 411 310 407 Z M 149 190 C 149 155 164 128 194 109 C 224 89 262 80 310 80 C 357 80 396 89 426 109 C 456 128 472 155 472 190 C 472 208 467 224 459 238 C 451 252 439 265 425 276 C 410 286 393 295 373 302 C 353 309 332 314 310 316 C 287 314 266 309 247 302 C 227 295 210 286 196 276 C 181 265 169 252 161 238 C 153 224 149 208 149 190 Z" unicode="8" />
<glyph horiz-adv-x="620" d="M 299 338 C 332 338 363 345 391 359 C 419 373 442 389 462 409 C 460 439 456 467 449 493 C 441 519 431 541 418 559 C 404 577 388 592 369 602 C 349 612 327 617 302 617 C 280 617 260 613 243 605 C 225 597 211 587 199 575 C 187 562 178 547 172 530 C 166 513 163 495 163 476 C 163 435 175 402 200 376 C 225 350 258 338 299 338 Z M 121 125 C 140 113 161 103 185 96 C 209 88 236 85 266 85 C 291 85 315 89 338 98 C 360 107 380 121 398 140 C 416 159 430 183 442 213 C 453 242 460 277 463 318 C 439 297 411 280 379 267 C 347 254 314 248 280 248 C 246 248 214 253 186 264 C 157 274 132 289 112 309 C 92 328 76 352 64 380 C 52 408 47 440 47 475 C 47 506 52 536 64 565 C 76 593 93 618 115 640 C 137 662 164 679 196 692 C 228 705 264 712 304 712 C 354 712 396 702 431 684 C 466 666 495 641 517 610 C 539 579 556 543 566 502 C 576 460 582 417 582 371 C 582 302 573 243 555 195 C 537 146 514 106 485 76 C 455 45 422 23 384 9 C 346 -5 306 -12 266 -12 C 230 -12 195 -7 162 2 C 128 12 97 25 69 42 L 121 125 Z" unicode="9" />
<glyph horiz-adv-x="232" d="M 50 530 L 182 530 L 182 397 L 50 397 L 50 530 Z M 50 133 L 182 133 L 182 0 L 50 0 L 50 133 Z" unicode=":" />
<glyph horiz-adv-x="232" d="M 50 530 L 182 530 L 182 397 L 50 397 L 50 530 Z M 50 133 L 182 133 L 182 31 C 182 -17 172 -54 154 -80 C 136 -105 107 -125 69 -141 L 42 -93 C 86 -73 108 -42 108 0 L 50 0 L 50 133 Z" unicode=";" />
<glyph horiz-adv-x="622" d="M 573 78 L 45 299 L 45 405 L 573 625 L 573 505 L 181 352 L 573 197 L 573 78 Z" unicode="&#x3C;" />
<glyph horiz-adv-x="616" d="M 43 523 L 573 523 L 573 424 L 43 424 L 43 523 Z M 43 279 L 573 279 L 573 180 L 43 180 L 43 279 Z" unicode="=" />
<glyph horiz-adv-x="622" d="M 56 197 L 448 352 L 56 505 L 56 625 L 584 405 L 584 299 L 56 78 L 56 197 Z" unicode="&#x3E;" />
<glyph horiz-adv-x="544" d="M 193 211 C 192 213 191 217 191 225 C 191 232 191 237 191 240 C 191 270 195 295 205 315 C 214 335 226 352 240 366 C 254 380 269 392 285 402 C 301 412 316 423 330 434 C 344 445 355 457 365 471 C 374 484 379 501 379 522 C 379 549 368 571 347 588 C 325 604 297 613 263 613 C 235 613 208 606 182 594 C 156 582 132 564 109 542 L 37 610 C 67 642 101 667 139 685 C 177 703 219 712 265 712 C 299 712 331 707 359 699 C 387 690 412 678 432 662 C 452 646 468 626 479 604 C 490 581 496 556 496 528 C 496 498 490 472 480 451 C 470 430 457 412 441 397 C 425 381 408 368 390 356 C 372 344 355 332 339 320 C 323 308 310 294 300 280 C 290 265 284 247 284 227 L 283 211 L 193 211 Z M 174 117 L 304 117 L 304 0 L 174 0 L 174 117 Z" unicode="?" />
<glyph horiz-adv-x="835" d="M 66 282 C 66 332 75 379 94 423 C 113 467 139 505 172 538 C 204 571 243 597 287 616 C 331 635 378 645 428 645 C 477 645 522 636 564 620 C 606 604 642 581 672 552 C 702 523 726 489 744 449 C 761 409 770 365 770 318 C 770 279 764 245 752 215 C 740 185 724 161 705 141 C 685 121 664 107 641 97 C 617 87 594 82 571 82 C 539 82 515 88 497 102 C 479 115 468 131 463 151 C 450 135 434 122 416 112 C 397 101 376 96 353 96 C 336 96 320 99 306 105 C 291 111 278 119 267 131 C 256 143 247 157 241 174 C 235 190 232 210 232 232 C 232 259 236 287 245 315 C 253 343 266 369 283 393 C 300 416 321 435 346 450 C 370 465 399 473 431 473 C 452 473 470 468 485 459 C 500 450 512 440 521 428 L 537 463 L 610 463 L 542 225 C 533 197 533 175 541 161 C 549 147 564 140 585 140 C 600 140 615 143 630 151 C 645 159 659 170 671 185 C 683 200 692 219 700 241 C 707 263 711 289 711 318 C 711 357 704 393 690 426 C 676 458 656 486 631 510 C 606 534 576 552 542 566 C 507 579 469 586 429 586 C 387 586 347 578 311 562 C 274 546 242 524 215 496 C 187 468 166 436 150 400 C 134 363 126 324 126 282 C 126 240 134 201 150 165 C 166 128 187 96 215 69 C 242 41 274 20 311 4 C 347 -12 387 -20 429 -20 C 460 -20 490 -15 518 -6 C 546 2 573 15 598 32 L 632 -17 C 602 -37 570 -52 536 -63 C 502 -74 466 -80 428 -80 C 378 -80 331 -70 287 -51 C 243 -32 204 -6 172 26 C 139 58 113 97 94 141 C 75 185 66 232 66 282 Z M 318 237 C 318 213 323 195 333 183 C 343 170 357 164 375 164 C 393 164 411 170 427 184 C 443 197 456 218 464 247 L 502 377 C 494 384 485 390 475 395 C 465 400 452 403 438 403 C 419 403 402 397 387 387 C 372 376 359 362 349 346 C 339 330 331 312 326 292 C 320 272 318 254 318 237 Z" unicode="@" />
<glyph horiz-adv-x="708" d="M 239 248 L 467 248 L 354 574 L 352 574 L 239 248 Z M 283 700 L 424 700 L 683 0 L 554 0 L 501 151 L 206 151 L 154 0 L 24 0 L 283 700 Z" unicode="A" />
<glyph horiz-adv-x="675" d="M 77 700 L 359 700 C 400 700 436 695 466 685 C 496 675 521 662 541 646 C 561 629 575 609 585 587 C 595 564 600 539 600 513 C 600 475 590 444 571 420 C 552 396 527 377 495 363 C 535 350 567 330 591 304 C 615 277 627 242 627 200 C 627 136 604 86 559 52 C 514 17 453 0 377 0 L 77 0 L 77 700 Z M 353 403 C 395 403 427 412 447 432 C 467 451 478 475 478 504 C 478 531 467 554 447 572 C 427 590 395 600 353 600 L 196 600 L 196 403 L 353 403 Z M 376 100 C 416 100 447 108 470 126 C 493 144 505 171 505 207 C 505 240 493 265 470 282 C 446 299 415 308 376 308 L 196 308 L 196 100 L 376 100 Z" unicode="B" />
<glyph horiz-adv-x="707" d="M 48 356 C 48 408 56 455 74 499 C 92 543 116 580 148 612 C 180 644 218 668 262 686 C 306 703 354 712 407 712 C 498 712 579 684 651 629 L 586 543 C 558 564 530 580 502 591 C 474 602 443 608 409 608 C 373 608 340 602 311 590 C 281 578 256 561 235 539 C 214 517 198 490 187 459 C 175 428 170 394 170 356 C 170 316 175 279 187 247 C 198 215 214 187 235 164 C 255 141 280 123 310 111 C 339 98 372 92 409 92 C 479 92 541 117 593 168 L 667 90 C 596 22 508 -12 404 -12 C 351 -12 303 -3 259 15 C 215 33 177 58 146 90 C 115 122 91 161 74 207 C 56 252 48 302 48 356 Z" unicode="C" />
<glyph horiz-adv-x="720" d="M 77 700 L 293 700 C 354 700 408 692 456 676 C 503 660 543 637 575 607 C 607 577 632 540 649 497 C 665 454 674 405 674 351 C 674 241 642 155 579 93 C 515 31 420 0 293 0 L 77 0 L 77 700 Z M 300 101 C 384 101 447 123 489 167 C 531 211 552 273 552 351 C 552 427 530 487 487 532 C 443 576 381 599 300 599 L 196 599 L 196 101 L 300 101 Z" unicode="D" />
<glyph horiz-adv-x="636" d="M 77 700 L 573 700 L 573 594 L 196 594 L 196 405 L 534 405 L 534 307 L 196 307 L 196 106 L 578 106 L 578 0 L 77 0 L 77 700 Z" unicode="E" />
<glyph horiz-adv-x="621" d="M 77 700 L 565 700 L 565 594 L 197 594 L 197 397 L 515 397 L 515 295 L 197 295 L 197 0 L 77 0 L 77 700 Z" unicode="F" />
<glyph horiz-adv-x="731" d="M 48 356 C 48 407 56 454 73 498 C 90 542 114 579 146 611 C 177 643 215 667 259 685 C 303 703 353 712 407 712 C 455 712 499 705 540 691 C 580 677 619 657 655 633 L 593 548 C 565 567 536 582 506 592 C 476 602 444 608 410 608 C 374 608 341 601 312 589 C 282 577 257 559 236 537 C 215 515 199 488 188 458 C 176 427 171 393 171 356 C 171 316 176 279 187 247 C 198 214 214 186 234 163 C 254 140 279 122 309 110 C 339 98 372 92 410 92 C 436 92 461 95 486 101 C 510 107 532 115 550 126 L 550 292 L 374 292 L 374 381 L 661 381 L 661 64 C 627 40 588 21 545 8 C 501 -5 455 -12 407 -12 C 352 -12 302 -3 258 14 C 214 32 176 57 145 89 C 114 121 90 160 73 206 C 56 251 48 301 48 356 Z" unicode="G" />
<glyph horiz-adv-x="707" d="M 77 700 L 197 700 L 197 408 L 511 408 L 511 700 L 630 700 L 630 0 L 511 0 L 511 303 L 197 303 L 197 0 L 77 0 L 77 700 Z" unicode="H" />
<glyph horiz-adv-x="273" d="M 77 700 L 197 700 L 197 0 L 77 0 L 77 700 Z" unicode="I" />
<glyph horiz-adv-x="577" d="M 136 188 C 150 158 167 134 189 118 C 210 102 236 94 266 94 C 305 94 334 106 354 131 C 373 156 383 191 383 235 L 383 700 L 503 700 L 503 233 C 503 154 483 93 443 51 C 403 9 345 -12 271 -12 C 219 -12 173 0 134 25 C 95 50 64 85 41 130 L 136 188 Z" unicode="J" />
<glyph horiz-adv-x="679" d="M 77 700 L 197 700 L 197 348 L 494 700 L 631 700 L 404 435 L 655 0 L 516 0 L 326 344 L 197 194 L 197 0 L 77 0 L 77 700 Z" unicode="K" />
<glyph horiz-adv-x="607" d="M 77 700 L 197 700 L 197 106 L 568 106 L 568 0 L 77 0 L 77 700 Z" unicode="L" />
<glyph horiz-adv-x="856" d="M 77 700 L 198 700 L 429 371 L 660 700 L 780 700 L 780 0 L 664 0 L 664 522 L 428 192 L 192 522 L 192 0 L 77 0 L 77 700 Z" unicode="M" />
<glyph horiz-adv-x="733" d="M 77 700 L 192 700 L 541 193 L 541 700 L 656 700 L 656 0 L 541 0 L 192 506 L 192 0 L 77 0 L 77 700 Z" unicode="N" />
<glyph horiz-adv-x="811" d="M 48 354 C 48 408 57 457 75 501 C 93 545 119 583 151 614 C 183 645 220 669 264 686 C 308 703 355 712 406 712 C 456 712 503 703 547 686 C 591 669 629 645 661 614 C 693 583 718 545 736 501 C 754 457 763 408 763 354 C 763 298 754 248 736 203 C 718 158 693 120 661 88 C 629 56 591 31 547 14 C 503 -3 456 -12 406 -12 C 355 -12 308 -3 264 14 C 220 31 183 56 151 88 C 119 120 93 158 75 203 C 57 248 48 298 48 354 Z M 171 354 C 171 313 177 276 189 244 C 201 211 217 183 239 161 C 260 139 285 122 314 110 C 342 98 373 92 406 92 C 439 92 470 98 498 110 C 526 122 551 139 573 161 C 594 183 611 211 623 244 C 635 276 641 313 641 354 C 641 393 635 428 623 460 C 611 492 594 519 573 541 C 552 563 527 579 499 591 C 470 603 439 609 406 609 C 372 609 341 603 313 591 C 284 579 259 563 238 541 C 217 519 201 492 189 460 C 177 428 171 393 171 354 Z" unicode="O" />
<glyph horiz-adv-x="668" d="M 77 700 L 362 700 C 409 700 449 693 482 681 C 514 669 541 652 561 632 C 581 612 595 589 604 563 C 613 537 618 511 618 484 C 618 458 613 432 604 406 C 595 380 580 356 560 336 C 540 315 513 298 481 285 C 449 272 409 266 362 266 L 197 266 L 197 0 L 77 0 L 77 700 Z M 361 364 C 385 364 405 367 423 373 C 440 379 454 388 465 399 C 476 410 484 423 490 437 C 495 451 498 467 498 483 C 498 515 487 542 466 565 C 444 588 410 600 362 600 L 197 600 L 197 364 L 361 364 Z" unicode="P" />
<glyph horiz-adv-x="818" d="M 48 354 C 48 408 57 457 75 501 C 93 545 119 583 151 614 C 183 645 220 669 264 686 C 308 703 355 712 406 712 C 456 712 503 703 547 686 C 591 669 629 645 661 614 C 693 583 718 545 736 501 C 754 457 763 408 763 354 C 763 307 756 264 743 225 C 730 186 712 151 689 121 L 771 51 L 706 -19 L 623 56 C 593 34 559 17 523 5 C 487 -6 448 -12 406 -12 C 355 -12 308 -3 264 14 C 220 31 183 56 151 88 C 119 120 93 158 75 203 C 57 248 48 298 48 354 Z M 479 304 L 600 196 C 613 217 623 241 630 267 C 637 293 641 322 641 354 C 641 393 635 428 623 460 C 611 492 594 519 573 541 C 552 563 527 579 499 591 C 470 603 439 609 406 609 C 372 609 341 603 313 591 C 284 579 259 563 238 541 C 217 519 201 492 189 460 C 177 428 171 393 171 354 C 171 313 177 276 189 244 C 201 211 217 183 239 161 C 260 139 285 122 314 110 C 342 98 373 92 406 92 C 431 92 455 95 477 102 C 499 108 520 118 539 132 L 417 235 L 479 304 Z" unicode="Q" />
<glyph horiz-adv-x="695" d="M 378 364 C 402 364 422 367 439 373 C 456 379 470 388 481 399 C 492 410 500 423 506 437 C 511 451 514 467 514 483 C 514 515 503 543 482 566 C 460 588 426 600 379 600 L 197 600 L 197 364 L 378 364 Z M 197 0 L 77 0 L 77 700 L 380 700 C 427 700 467 693 499 681 C 531 669 558 652 578 632 C 598 612 612 589 621 563 C 630 537 635 511 635 484 C 635 442 623 403 601 368 C 579 332 545 306 500 289 L 640 0 L 509 0 L 389 270 L 197 270 L 197 0 Z" unicode="R" />
<glyph horiz-adv-x="627" d="M 104 158 C 135 138 168 123 204 111 C 239 99 276 94 315 94 C 361 94 395 103 418 121 C 441 139 453 162 453 190 C 453 216 443 236 424 250 C 404 264 380 275 351 284 C 321 293 290 302 256 310 C 222 318 190 329 161 344 C 131 359 107 379 88 405 C 68 431 59 466 59 511 C 59 539 64 565 76 589 C 87 613 103 635 125 653 C 146 671 172 686 203 696 C 234 706 269 712 309 712 C 355 712 398 706 438 696 C 478 686 516 672 552 655 L 507 559 C 477 573 445 585 413 593 C 381 601 347 606 313 606 C 272 606 240 597 218 579 C 195 561 184 539 184 513 C 184 487 193 467 213 453 C 232 439 256 428 286 420 C 315 411 347 403 381 395 C 415 387 446 375 476 360 C 505 345 529 324 549 298 C 568 272 578 236 578 191 C 578 162 572 135 561 111 C 550 86 534 64 512 46 C 490 28 463 13 430 3 C 397 -6 359 -12 315 -12 C 263 -12 213 -4 167 9 C 120 23 80 41 46 63 L 104 158 Z" unicode="S" />
<glyph horiz-adv-x="660" d="M 270 593 L 28 593 L 28 700 L 632 700 L 632 593 L 390 593 L 390 0 L 270 0 L 270 593 Z" unicode="T" />
<glyph horiz-adv-x="720" d="M 74 700 L 195 700 L 195 263 C 195 235 199 210 207 189 C 215 168 227 150 242 136 C 256 121 274 110 294 103 C 314 95 336 92 360 92 C 383 92 405 95 425 103 C 445 110 463 121 478 136 C 493 150 505 168 513 189 C 521 210 526 235 526 263 L 526 700 L 646 700 L 646 263 C 646 217 638 176 624 142 C 609 108 589 79 564 56 C 538 33 508 16 473 5 C 438 -6 400 -12 360 -12 C 319 -12 281 -6 246 5 C 211 16 181 33 156 56 C 130 79 110 108 96 142 C 81 176 74 217 74 263 L 74 700 Z" unicode="U" />
<glyph horiz-adv-x="703" d="M 24 700 L 156 700 L 350 137 L 352 137 L 549 700 L 680 700 L 420 0 L 281 0 L 24 700 Z" unicode="V" />
<glyph horiz-adv-x="1048" d="M 27 700 L 154 700 L 315 169 L 317 169 L 469 700 L 581 700 L 732 169 L 734 169 L 896 700 L 1022 700 L 801 0 L 672 0 L 525 513 L 523 513 L 376 0 L 247 0 L 27 700 Z" unicode="W" />
<glyph horiz-adv-x="712" d="M 280 357 L 44 700 L 190 700 L 358 451 L 525 700 L 669 700 L 432 357 L 679 0 L 533 0 L 355 264 L 178 0 L 33 0 L 280 357 Z" unicode="X" />
<glyph horiz-adv-x="691" d="M 285 283 L 21 700 L 162 700 L 345 399 L 347 399 L 531 700 L 670 700 L 406 283 L 406 0 L 285 0 L 285 283 Z" unicode="Y" />
<glyph horiz-adv-x="650" d="M 51 93 L 436 592 L 52 592 L 52 700 L 592 700 L 592 608 L 209 109 L 604 109 L 604 0 L 51 0 L 51 93 Z" unicode="Z" />
<glyph horiz-adv-x="415" d="M 353 -114 L 353 -200 L 81 -200 L 81 755 L 353 755 L 353 669 L 198 669 L 198 -114 L 353 -114 Z" unicode="[" />
<glyph horiz-adv-x="533" d="M 544 -200 L 429 -200 L -11 755 L 104 755 L 544 -200 Z" unicode="\" />
<glyph horiz-adv-x="415" d="M 217 -114 L 217 669 L 62 669 L 62 755 L 334 755 L 334 -200 L 62 -200 L 62 -114 L 217 -114 Z" unicode="]" />
<glyph horiz-adv-x="568" d="M 230 745 L 339 745 L 477 562 L 391 562 L 285 657 L 177 562 L 91 562 L 230 745 Z" unicode="^" />
<glyph horiz-adv-x="555" d="M 555 -13 L 555 -114 L 0 -114 L 0 -13 L 555 -13 Z" unicode="_" />
<glyph horiz-adv-x="618" d="M 200 710 L 281 769 L 419 584 L 342 584 L 200 710 Z" unicode="`" />
<glyph horiz-adv-x="549" d="M 161 138 C 161 118 167 103 181 92 C 194 81 211 76 233 76 C 259 76 283 80 303 90 C 323 100 340 112 354 128 L 354 241 C 331 240 308 238 285 235 C 262 231 241 226 223 218 C 204 210 189 200 178 187 C 166 174 161 158 161 138 Z M 45 128 C 45 160 53 187 69 209 C 85 231 106 250 134 265 C 162 279 194 290 232 298 C 270 306 310 311 354 313 L 354 372 C 354 394 347 411 333 425 C 319 439 298 446 268 446 C 242 446 215 441 187 431 C 159 421 130 408 101 394 L 58 485 C 90 500 124 513 162 524 C 200 535 236 541 272 541 C 307 541 337 536 362 528 C 387 520 408 508 424 493 C 440 477 451 459 459 438 C 466 417 470 394 470 369 L 470 130 C 470 112 474 100 483 93 C 491 85 503 82 519 82 L 519 -2 C 475 -2 442 2 420 12 C 398 21 381 37 368 60 C 346 38 322 20 296 7 C 270 -5 239 -12 204 -12 C 156 -12 118 0 89 26 C 59 52 45 86 45 128 Z" unicode="a" />
<glyph horiz-adv-x="602" d="M 72 755 L 189 755 L 189 467 C 210 489 234 507 261 521 C 288 534 317 541 348 541 C 379 541 408 535 434 523 C 460 511 482 494 501 472 C 519 449 534 421 544 388 C 554 354 559 316 559 273 C 559 180 539 109 501 61 C 462 12 411 -12 348 -12 C 312 -12 280 -4 254 9 C 227 23 203 42 183 64 L 175 0 L 72 0 L 72 755 Z M 189 144 C 209 121 229 105 249 95 C 269 85 293 80 319 80 C 359 80 390 96 411 130 C 431 164 442 211 442 272 C 442 330 431 374 411 404 C 390 434 359 449 319 449 C 293 449 270 443 249 432 C 228 420 208 404 189 382 L 189 144 Z" unicode="b" />
<glyph horiz-adv-x="525" d="M 42 269 C 42 311 48 348 61 382 C 74 416 92 444 116 468 C 139 491 166 509 198 522 C 230 534 265 541 303 541 C 371 541 432 520 486 478 L 425 400 C 409 412 392 422 373 431 C 353 439 331 444 306 444 C 264 444 229 428 201 397 C 173 366 160 323 160 269 C 160 210 173 164 200 132 C 227 100 262 84 306 84 C 332 84 355 88 375 97 C 394 105 412 117 430 133 L 496 63 C 467 37 437 18 407 6 C 377 -5 342 -12 303 -12 C 265 -12 230 -5 198 7 C 166 19 138 38 115 62 C 92 86 74 116 61 151 C 48 185 42 225 42 269 Z" unicode="c" />
<glyph horiz-adv-x="601" d="M 283 80 C 309 80 332 85 353 95 C 374 105 395 121 415 144 L 415 382 C 375 426 331 449 283 449 C 242 449 211 434 191 404 C 170 374 160 330 160 272 C 160 211 170 164 191 130 C 211 96 242 80 283 80 Z M 254 -12 C 190 -12 139 12 101 61 C 62 109 43 180 43 273 C 43 316 48 354 58 388 C 68 421 83 449 101 472 C 119 494 142 511 168 523 C 194 535 222 541 254 541 C 286 541 315 534 342 521 C 369 507 393 489 415 467 L 415 755 L 531 755 L 531 0 L 428 0 L 420 64 C 398 42 374 23 348 9 C 321 -4 290 -12 254 -12 Z" unicode="d" />
<glyph horiz-adv-x="574" d="M 43 269 C 43 311 49 348 63 382 C 76 416 94 444 117 468 C 140 492 167 510 199 523 C 231 535 265 542 302 542 C 340 542 373 535 401 523 C 429 511 453 494 472 473 C 490 451 504 426 514 396 C 523 366 528 334 528 300 C 528 292 527 282 527 272 C 526 262 525 253 524 247 L 160 247 C 163 193 177 152 203 124 C 228 96 264 82 312 82 C 339 82 365 86 390 95 C 415 104 439 116 461 130 L 512 53 C 481 31 448 15 414 4 C 379 -7 343 -13 305 -13 C 265 -13 229 -6 197 6 C 165 18 137 37 114 61 C 91 85 73 115 61 150 C 49 185 43 225 43 269 Z M 305 455 C 269 455 238 443 213 420 C 188 396 172 364 165 322 L 416 322 C 416 340 414 358 410 374 C 406 390 399 404 391 416 C 382 428 371 437 357 444 C 343 451 325 455 305 455 Z" unicode="e" />
<glyph horiz-adv-x="404" d="M 109 436 L 20 436 L 20 523 L 109 523 L 109 555 C 109 593 114 625 124 651 C 134 677 149 698 168 715 C 186 731 209 743 235 751 C 261 758 289 762 320 762 C 338 762 357 760 376 756 C 394 752 411 748 425 743 L 396 659 C 385 662 374 665 363 667 C 351 669 338 670 323 670 C 257 670 225 632 225 556 L 225 523 L 366 523 L 366 436 L 225 436 L 225 0 L 109 0 L 109 436 Z" unicode="f" />
<glyph horiz-adv-x="586" d="M 272 235 C 304 235 330 245 351 265 C 371 285 382 313 382 347 C 382 381 371 408 351 428 C 330 448 304 459 272 459 C 239 459 212 448 192 428 C 171 408 161 381 161 347 C 161 313 171 285 192 265 C 212 245 239 235 272 235 Z M 24 -69 C 24 -45 31 -23 46 -5 C 60 13 80 29 104 42 C 81 60 70 83 70 111 C 70 130 75 147 86 161 C 96 175 109 187 125 196 C 101 212 83 233 69 258 C 55 283 48 313 48 347 C 48 376 53 402 65 426 C 77 450 93 470 113 487 C 133 504 156 517 184 527 C 211 536 240 541 272 541 C 300 541 327 537 352 529 C 377 521 399 509 419 495 C 437 509 456 521 478 529 C 500 537 528 542 563 542 L 563 456 C 543 456 526 455 510 454 C 494 453 479 450 465 446 C 473 432 480 416 485 400 C 490 383 493 365 493 347 C 493 315 486 287 474 263 C 461 239 444 218 424 202 C 404 186 380 173 354 165 C 327 156 300 152 272 152 C 242 152 214 156 186 166 C 169 158 161 146 161 131 C 161 123 163 117 168 112 C 173 106 182 102 194 99 C 206 95 223 92 243 90 C 263 88 289 86 319 85 C 391 81 448 68 488 47 C 528 25 549 -9 549 -59 C 549 -105 527 -142 484 -169 C 441 -196 375 -210 286 -210 C 202 -210 137 -198 92 -174 C 46 -150 24 -115 24 -69 Z M 298 -9 C 276 -7 255 -6 237 -4 C 218 -2 201 1 186 5 C 170 -2 158 -11 149 -23 C 139 -35 135 -48 135 -64 C 135 -86 146 -103 169 -114 C 192 -124 229 -130 281 -130 C 386 -130 439 -110 439 -70 C 439 -48 428 -33 407 -25 C 386 -17 350 -11 298 -9 Z" unicode="g" />
<glyph horiz-adv-x="590" d="M 72 755 L 189 755 L 189 466 C 209 487 233 505 261 520 C 288 534 319 542 353 542 C 412 542 455 524 483 490 C 510 455 524 409 524 352 L 524 0 L 408 0 L 408 354 C 408 383 401 406 389 424 C 376 442 355 451 325 451 C 297 451 272 444 250 432 C 228 420 207 402 189 379 L 189 0 L 72 0 L 72 755 Z" unicode="h" />
<glyph horiz-adv-x="260" d="M 72 748 L 188 748 L 188 636 L 72 636 L 72 748 Z M 72 524 L 188 524 L 188 0 L 72 0 L 72 524 Z" unicode="i" />
<glyph horiz-adv-x="270" d="M 82 748 L 198 748 L 198 635 L 82 635 L 82 748 Z M 82 524 L 198 524 L 198 -16 C 198 -85 182 -135 151 -165 C 120 -195 78 -210 25 -210 C 5 -210 -11 -208 -27 -205 C -42 -201 -54 -198 -62 -195 L -39 -105 C -31 -107 -22 -109 -14 -111 C -5 -113 3 -114 13 -114 C 35 -114 52 -107 64 -93 C 76 -79 82 -55 82 -21 L 82 524 Z" unicode="j" />
<glyph horiz-adv-x="561" d="M 72 755 L 189 755 L 189 283 L 397 529 L 526 529 L 362 345 L 545 0 L 412 0 L 285 258 L 189 149 L 189 0 L 72 0 L 72 755 Z" unicode="k" />
<glyph horiz-adv-x="261" d="M 73 755 L 189 755 L 189 0 L 73 0 L 73 755 Z" unicode="l" />
<glyph horiz-adv-x="903" d="M 69 529 L 178 529 L 184 468 C 205 489 229 507 257 521 C 285 535 314 542 346 542 C 383 542 413 534 437 520 C 460 505 478 485 491 460 C 516 485 544 505 574 520 C 604 534 636 542 670 542 C 726 542 767 525 795 491 C 823 457 837 411 837 354 L 837 0 L 721 0 L 721 356 C 721 386 714 409 702 425 C 690 441 670 450 642 450 C 618 450 594 444 572 432 C 550 420 529 404 511 383 C 511 377 512 371 512 365 C 512 359 513 353 513 347 L 513 0 L 396 0 L 396 356 C 396 386 389 409 377 425 C 365 441 345 450 317 450 C 291 450 267 444 245 432 C 222 420 202 402 185 379 L 185 0 L 69 0 L 69 529 Z" unicode="m" />
<glyph horiz-adv-x="586" d="M 69 529 L 178 529 L 184 466 C 204 487 228 505 256 520 C 284 534 316 542 350 542 C 409 542 452 524 480 490 C 507 455 521 409 521 352 L 521 0 L 405 0 L 405 354 C 405 383 398 406 386 424 C 373 442 352 451 322 451 C 294 451 268 444 246 432 C 224 420 203 402 185 379 L 185 0 L 69 0 L 69 529 Z" unicode="n" />
<glyph horiz-adv-x="609" d="M 43 271 C 43 312 49 349 63 382 C 76 415 94 443 118 467 C 141 491 169 509 201 522 C 233 534 267 541 305 541 C 342 541 376 534 408 522 C 440 509 467 491 491 467 C 514 443 532 415 545 382 C 558 349 565 312 565 271 C 565 227 558 187 546 153 C 533 118 515 88 493 64 C 470 39 443 20 411 7 C 379 -5 343 -12 305 -12 C 265 -12 230 -5 198 7 C 166 20 138 39 115 64 C 92 88 74 118 62 153 C 49 187 43 227 43 271 Z M 161 270 C 161 212 173 165 198 131 C 223 96 259 79 305 79 C 349 79 383 96 408 131 C 433 165 446 212 446 270 C 446 296 442 321 436 343 C 429 365 419 383 407 399 C 394 415 379 427 362 436 C 345 444 326 449 305 449 C 283 449 264 444 246 436 C 228 427 213 415 201 399 C 188 383 178 365 171 343 C 164 321 161 296 161 270 Z" unicode="o" />
<glyph horiz-adv-x="600" d="M 186 144 C 206 121 226 105 247 95 C 267 85 291 80 317 80 C 357 80 388 96 409 130 C 429 164 440 211 440 272 C 440 330 429 374 409 404 C 388 434 357 449 317 449 C 291 449 268 443 247 432 C 225 420 205 404 186 382 L 186 144 Z M 186 -200 L 71 -200 L 71 529 L 175 529 L 184 464 C 205 487 229 506 257 520 C 284 534 314 541 346 541 C 377 541 406 535 432 523 C 458 511 480 494 499 472 C 517 449 532 421 542 388 C 552 354 557 316 557 273 C 557 180 537 109 499 61 C 461 12 410 -12 347 -12 C 312 -12 281 -5 255 8 C 229 22 206 39 186 61 L 186 -200 Z" unicode="p" />
<glyph horiz-adv-x="601" d="M 254 -12 C 190 -12 139 12 101 61 C 62 109 43 180 43 273 C 43 316 48 354 58 388 C 68 421 83 449 101 472 C 119 494 142 511 168 523 C 194 535 222 541 254 541 C 286 541 316 534 344 520 C 371 506 395 487 417 464 L 426 529 L 531 529 L 531 -200 L 415 -200 L 415 61 C 395 39 371 22 345 8 C 319 -5 288 -12 254 -12 Z M 283 80 C 309 80 333 85 354 95 C 374 105 395 121 415 144 L 415 382 C 395 404 375 420 353 432 C 331 443 308 449 283 449 C 243 449 212 434 191 404 C 170 374 160 330 160 272 C 160 211 170 164 191 130 C 212 96 243 80 283 80 Z" unicode="q" />
<glyph horiz-adv-x="427" d="M 69 529 L 175 529 L 184 442 C 203 476 225 502 251 518 C 277 534 306 543 338 543 C 352 543 364 541 376 539 C 388 537 398 534 408 530 L 387 423 C 377 427 366 430 356 432 C 345 434 333 436 320 436 C 290 436 265 427 244 409 C 223 391 203 364 185 330 L 185 0 L 69 0 L 69 529 Z" unicode="r" />
<glyph horiz-adv-x="499" d="M 85 130 C 109 115 135 103 163 94 C 191 84 220 80 250 80 C 278 80 301 85 319 95 C 337 105 346 121 346 144 C 346 162 338 175 324 185 C 309 194 291 202 269 209 C 247 215 223 222 197 228 C 171 234 147 243 125 255 C 103 267 84 282 70 302 C 55 322 48 348 48 381 C 48 407 53 429 64 449 C 74 469 89 485 107 499 C 125 513 147 523 171 530 C 195 537 221 541 249 541 C 278 541 309 537 341 530 C 373 522 406 511 440 496 L 396 410 C 372 422 346 431 320 438 C 294 445 270 449 250 449 C 224 449 203 443 187 433 C 171 423 163 407 163 386 C 163 368 170 355 185 346 C 199 337 218 329 240 323 C 262 317 285 310 311 304 C 336 298 360 289 382 277 C 404 265 422 250 437 230 C 451 210 459 183 459 150 C 459 123 453 100 443 80 C 433 60 418 43 400 29 C 382 15 360 5 334 -1 C 308 -8 281 -12 251 -12 C 211 -12 173 -7 138 3 C 103 13 69 27 36 47 L 85 130 Z" unicode="s" />
<glyph horiz-adv-x="417" d="M 109 442 L 20 442 L 20 529 L 109 529 L 109 671 L 225 671 L 225 529 L 372 529 L 372 442 L 225 442 L 225 150 C 225 105 243 83 279 83 C 307 83 333 91 358 109 L 402 35 C 384 21 363 10 339 1 C 314 -7 289 -12 264 -12 C 160 -12 109 41 109 148 L 109 442 Z" unicode="t" />
<glyph horiz-adv-x="588" d="M 67 529 L 183 529 L 183 176 C 183 146 188 123 200 105 C 212 87 233 79 265 79 C 293 79 318 85 341 98 C 363 110 384 128 404 150 L 404 529 L 520 529 L 520 0 L 413 0 L 406 64 C 385 42 360 24 332 10 C 303 -4 272 -12 238 -12 C 178 -12 134 5 107 40 C 80 74 67 120 67 178 L 67 529 Z" unicode="u" />
<glyph horiz-adv-x="529" d="M 18 529 L 137 529 L 265 127 L 267 127 L 397 529 L 510 529 L 328 0 L 199 0 L 18 529 Z" unicode="v" />
<glyph horiz-adv-x="837" d="M 18 529 L 135 529 L 258 149 L 260 149 L 369 529 L 469 529 L 579 149 L 581 149 L 703 529 L 817 529 L 640 0 L 529 0 L 419 364 L 417 364 L 307 0 L 197 0 L 18 529 Z" unicode="w" />
<glyph horiz-adv-x="536" d="M 197 267 L 31 529 L 157 529 L 268 345 L 379 529 L 504 529 L 339 267 L 509 0 L 385 0 L 267 189 L 149 0 L 26 0 L 197 267 Z" unicode="x" />
<glyph horiz-adv-x="533" d="M 45 -97 C 57 -101 69 -105 81 -109 C 93 -113 104 -115 116 -115 C 134 -115 148 -111 160 -103 C 172 -95 181 -80 189 -59 L 213 3 L 19 529 L 138 529 L 269 149 L 271 149 L 398 529 L 514 529 L 304 -64 C 293 -92 281 -116 269 -135 C 256 -154 242 -169 227 -180 C 211 -191 195 -199 177 -203 C 159 -207 141 -210 121 -210 C 101 -210 81 -208 62 -204 C 43 -200 26 -195 11 -190 L 45 -97 Z" unicode="y" />
<glyph horiz-adv-x="514" d="M 46 78 L 319 436 L 53 436 L 53 529 L 465 529 L 465 450 L 193 92 L 475 92 L 475 0 L 46 0 L 46 78 Z" unicode="z" />
<glyph horiz-adv-x="483" d="M 424 -115 L 424 -200 L 358 -200 C 292 -200 243 -186 212 -158 C 181 -130 166 -90 166 -36 L 166 142 C 166 170 160 190 148 203 C 136 215 115 222 87 222 L 32 222 L 32 326 L 87 326 C 115 326 136 332 148 345 C 160 357 166 378 166 406 L 166 591 C 166 645 181 685 212 713 C 243 741 292 755 358 755 L 424 755 L 424 670 L 364 670 C 333 670 312 663 300 651 C 288 639 283 618 283 590 L 283 412 C 283 340 251 295 187 275 L 187 274 C 251 252 283 206 283 136 L 283 -35 C 283 -63 288 -84 300 -96 C 312 -108 333 -115 364 -115 L 424 -115 Z" unicode="{" />
<glyph horiz-adv-x="310" d="M 100 755 L 210 755 L 210 -200 L 100 -200 L 100 755 Z" unicode="|" />
<glyph horiz-adv-x="483" d="M 119 -115 C 149 -115 170 -108 182 -96 C 194 -84 200 -63 200 -35 L 200 136 C 200 206 232 252 296 274 L 296 275 C 232 295 200 340 200 412 L 200 590 C 200 618 194 639 182 651 C 170 663 149 670 119 670 L 59 670 L 59 755 L 125 755 C 191 755 239 741 270 713 C 301 685 317 645 317 591 L 317 406 C 317 378 323 357 335 345 C 347 332 367 326 396 326 L 451 326 L 451 222 L 396 222 C 367 222 347 215 335 203 C 323 190 317 170 317 142 L 317 -36 C 317 -90 301 -130 270 -158 C 239 -186 191 -200 125 -200 L 59 -200 L 59 -115 L 119 -115 Z" unicode="}" />
<glyph horiz-adv-x="569" d="M 70 197 C 69 201 69 205 69 209 C 69 213 69 217 69 221 C 69 263 79 297 99 325 C 119 352 150 366 190 366 C 210 366 229 361 245 353 C 261 344 277 334 291 324 C 305 314 319 304 333 296 C 346 287 360 283 376 283 C 393 283 405 289 411 301 C 417 313 420 329 419 349 L 499 349 C 499 345 500 341 500 337 C 500 333 500 330 500 326 C 500 284 489 249 469 222 C 449 194 419 181 379 181 C 358 181 339 185 323 194 C 307 202 292 212 278 222 C 264 232 250 242 237 251 C 223 259 209 264 194 264 C 176 264 164 257 158 245 C 151 232 148 216 150 197 L 70 197 Z" unicode="~" />
<glyph horiz-adv-x="275" d="M 73 530 L 203 530 L 203 413 L 73 413 L 73 530 Z M 107 319 L 168 319 L 198 -43 L 198 -170 L 77 -170 L 77 -43 L 107 319 Z" unicode="¡" />
<glyph horiz-adv-x="623" d="M 162 356 C 162 312 171 275 191 243 C 210 211 237 187 271 172 L 361 545 L 354 545 C 326 545 301 540 277 531 C 253 521 233 508 216 492 C 199 476 186 456 176 433 C 166 409 162 384 162 356 Z M 50 356 C 50 396 57 434 72 469 C 86 503 107 533 133 559 C 159 584 191 604 229 618 C 266 632 307 640 353 640 C 357 640 361 639 365 639 C 369 639 374 639 379 639 L 393 700 L 462 700 L 444 628 C 485 618 525 599 563 571 L 503 492 C 489 502 474 511 460 518 C 446 525 431 531 417 536 L 326 157 C 330 156 335 155 339 155 C 343 155 348 155 354 155 C 412 155 464 175 508 217 L 577 147 C 547 119 513 97 476 82 C 439 67 398 60 353 60 C 345 60 337 60 330 60 C 322 60 315 61 308 62 L 292 0 L 225 0 L 243 76 C 182 96 135 130 101 180 C 67 230 50 288 50 356 Z" unicode="¢" />
<glyph horiz-adv-x="679" d="M 83 403 L 182 403 C 170 422 161 442 153 463 C 145 483 142 506 142 532 C 142 557 146 581 155 603 C 164 625 177 644 195 660 C 212 676 233 688 259 698 C 285 707 314 712 348 712 C 375 712 399 708 421 702 C 443 695 462 686 479 675 C 495 663 510 650 522 636 C 534 621 543 606 551 591 L 462 547 C 452 566 438 583 420 597 C 401 611 377 619 348 619 C 318 619 295 610 279 593 C 263 575 256 554 256 529 C 256 505 260 482 270 461 C 280 440 291 420 305 400 L 478 400 L 478 329 L 349 329 C 358 309 366 289 373 269 C 379 249 383 226 383 202 C 383 181 380 161 374 142 C 401 122 424 107 443 95 C 461 83 480 78 500 78 C 526 78 544 88 553 108 C 562 128 564 155 558 189 L 663 189 C 668 160 669 133 666 109 C 662 85 654 64 642 46 C 630 28 613 13 593 3 C 573 -6 548 -12 520 -12 C 483 -12 450 -4 420 10 C 390 25 359 43 329 65 C 307 39 282 20 254 7 C 225 -5 196 -12 167 -12 C 145 -12 125 -8 109 -2 C 92 3 78 12 67 23 C 55 33 47 46 41 60 C 35 74 33 89 33 105 C 33 139 45 166 69 188 C 93 210 124 221 164 221 C 184 221 204 218 222 212 C 240 206 257 199 274 191 L 274 202 C 274 225 269 247 260 268 C 250 289 240 309 229 328 L 83 328 L 83 403 Z M 108 104 C 108 90 113 78 123 70 C 133 61 147 57 166 57 C 182 57 198 62 214 73 C 230 84 243 98 253 116 C 239 126 226 134 212 141 C 198 148 183 152 166 152 C 148 152 134 147 124 138 C 113 129 108 118 108 104 Z" unicode="£" />
<glyph horiz-adv-x="667" d="M 65 268 C 65 299 70 329 80 357 C 90 385 104 410 122 433 L 68 490 L 121 540 L 173 483 C 195 500 220 513 247 523 C 274 532 303 537 334 537 C 364 537 392 532 419 523 C 446 513 471 500 494 483 L 547 540 L 600 490 L 545 434 C 563 410 577 385 587 357 C 597 329 603 299 603 268 C 603 236 597 207 587 179 C 577 151 563 126 546 103 L 600 46 L 547 -3 L 494 53 C 471 35 446 22 419 13 C 392 4 364 0 334 0 C 304 0 275 4 248 13 C 220 22 195 35 173 52 L 121 -3 L 68 46 L 121 103 C 103 126 90 151 80 179 C 70 207 65 236 65 268 Z M 168 268 C 168 245 172 224 181 204 C 189 184 201 166 217 151 C 232 136 250 124 270 116 C 290 107 312 103 335 103 C 357 103 379 107 399 116 C 419 124 437 136 452 151 C 467 166 479 184 488 204 C 496 224 501 245 501 268 C 501 291 496 313 488 333 C 479 353 467 370 452 386 C 437 401 419 413 399 422 C 379 430 357 435 335 435 C 312 435 290 430 270 422 C 250 413 232 401 217 386 C 201 370 189 353 181 333 C 172 313 168 291 168 268 Z" unicode="¤" />
<glyph horiz-adv-x="692" d="M 84 320 L 286 320 L 24 700 L 166 700 L 346 427 L 526 700 L 668 700 L 407 320 L 608 320 L 608 246 L 407 246 L 407 168 L 608 168 L 608 94 L 407 94 L 407 0 L 286 0 L 286 94 L 84 94 L 84 168 L 286 168 L 286 246 L 84 246 L 84 320 Z" unicode="¥" />
<glyph horiz-adv-x="310" d="M 100 755 L 210 755 L 210 353 L 100 353 L 100 755 Z M 210 177 L 210 -200 L 100 -200 L 100 177 L 210 177 Z" unicode="¦" />
<glyph horiz-adv-x="541" d="M 376 316 C 376 334 370 348 358 359 C 346 370 331 379 313 387 C 294 395 273 402 251 408 C 229 414 207 422 186 431 C 180 425 175 417 171 409 C 167 401 165 392 165 383 C 165 365 170 350 182 339 C 194 328 209 319 227 311 C 245 303 266 296 289 290 C 311 284 333 276 355 268 C 360 274 365 281 369 289 C 373 297 376 306 376 316 Z M 479 332 C 479 310 473 291 462 274 C 450 256 437 242 422 230 C 435 218 445 205 453 190 C 461 175 465 157 465 136 C 465 88 446 52 410 26 C 373 0 323 -13 259 -13 C 223 -13 187 -5 153 8 C 119 22 90 41 68 65 L 142 126 C 156 110 174 98 196 88 C 217 78 240 74 264 74 C 292 74 314 78 330 88 C 346 98 354 112 354 132 C 354 148 346 162 332 172 C 318 182 300 191 278 199 C 256 207 233 215 208 223 C 182 231 159 240 137 252 C 115 264 97 279 83 297 C 69 315 62 338 62 367 C 62 388 67 407 79 425 C 90 442 103 457 119 469 C 105 480 95 493 87 508 C 79 523 76 542 76 564 C 76 610 94 647 131 673 C 167 699 218 712 282 712 C 318 712 353 704 387 690 C 421 676 450 657 473 634 L 399 573 C 384 588 366 600 345 610 C 323 620 301 625 277 625 C 249 625 227 620 211 610 C 195 600 187 586 187 567 C 187 550 194 537 208 527 C 222 517 240 508 262 500 C 284 492 307 484 333 476 C 358 468 381 459 403 447 C 425 435 443 420 457 402 C 471 384 479 360 479 332 Z" unicode="§" />
<glyph horiz-adv-x="634" d="M 161 715 L 262 715 L 262 613 L 161 613 L 161 715 Z M 373 715 L 473 715 L 473 613 L 373 613 L 373 715 Z" unicode="¨" />
<glyph horiz-adv-x="847" d="M 61 282 C 61 332 70 379 89 423 C 108 467 134 505 167 538 C 199 571 238 597 282 616 C 326 635 373 645 423 645 C 473 645 520 635 564 616 C 608 597 646 571 679 538 C 712 505 738 467 757 423 C 776 379 786 332 786 282 C 786 232 776 185 757 141 C 738 97 712 58 679 26 C 646 -6 608 -32 564 -51 C 520 -70 473 -80 423 -80 C 373 -80 326 -70 282 -51 C 238 -32 199 -6 167 26 C 134 58 108 97 89 141 C 70 185 61 232 61 282 Z M 122 282 C 122 240 129 201 145 165 C 161 128 182 96 210 69 C 237 41 269 20 306 4 C 342 -12 382 -20 424 -20 C 466 -20 505 -12 542 4 C 578 20 610 41 638 69 C 665 96 687 128 703 165 C 719 201 727 240 727 282 C 727 324 719 363 703 400 C 687 436 665 468 638 496 C 610 524 578 546 542 562 C 505 578 466 586 424 586 C 382 586 342 578 306 562 C 269 546 237 524 210 496 C 182 468 161 436 145 400 C 129 363 122 324 122 282 Z M 227 282 C 227 309 232 335 242 359 C 252 383 266 403 284 421 C 302 439 323 453 348 463 C 373 473 401 478 431 478 C 455 478 479 474 504 466 C 529 458 553 445 577 428 L 528 365 C 512 376 497 385 481 392 C 465 398 449 402 433 402 C 399 402 370 390 348 368 C 326 346 315 317 315 282 C 315 244 326 215 348 194 C 370 172 399 162 433 162 C 450 162 467 165 483 171 C 499 177 515 187 530 201 L 584 146 C 562 126 539 110 513 100 C 487 89 460 84 430 84 C 399 84 371 88 346 98 C 321 108 300 121 282 139 C 264 156 251 177 241 201 C 231 225 227 252 227 282 Z" unicode="©" />
<glyph horiz-adv-x="383" d="M 115 436 C 115 424 119 414 127 407 C 135 399 147 396 162 396 C 179 396 194 399 208 405 C 222 411 234 418 244 428 L 244 502 C 228 501 213 500 198 498 C 182 496 168 492 156 488 C 144 483 134 476 126 468 C 118 460 115 449 115 436 Z M 34 428 C 34 450 39 469 51 485 C 62 500 77 513 96 523 C 115 533 137 540 163 545 C 188 550 215 553 244 555 L 244 592 C 244 605 239 616 231 625 C 222 633 207 638 187 638 C 169 638 150 634 130 628 C 110 621 91 613 72 603 L 43 668 C 64 679 88 688 114 696 C 140 703 165 707 189 707 C 237 707 271 696 292 674 C 312 652 323 624 323 590 L 323 432 C 323 410 334 400 357 400 L 357 340 C 326 340 303 343 289 349 C 275 355 263 365 254 379 C 239 365 223 353 206 345 C 188 337 168 333 145 333 C 112 333 85 341 65 359 C 44 377 34 400 34 428 Z" unicode="ª" />
<glyph horiz-adv-x="635" d="M 582 60 L 501 0 L 302 266 L 501 530 L 582 469 L 419 266 L 582 60 Z M 324 60 L 243 0 L 44 266 L 243 530 L 324 469 L 161 266 L 324 60 Z" unicode="«" />
<glyph horiz-adv-x="638" d="M 59 556 L 579 556 L 579 268 L 457 268 L 457 459 L 59 459 L 59 556 Z" unicode="¬" />
<glyph horiz-adv-x="847" d="M 61 282 C 61 332 70 379 89 423 C 108 467 134 505 167 538 C 199 571 238 597 282 616 C 326 635 373 645 423 645 C 473 645 520 635 564 616 C 608 597 646 571 679 538 C 712 505 738 467 757 423 C 776 379 786 332 786 282 C 786 232 776 185 757 141 C 738 97 712 58 679 26 C 646 -6 608 -32 564 -51 C 520 -70 473 -80 423 -80 C 373 -80 326 -70 282 -51 C 238 -32 199 -6 167 26 C 134 58 108 97 89 141 C 70 185 61 232 61 282 Z M 122 282 C 122 240 129 201 145 165 C 161 128 182 96 210 69 C 237 41 269 20 306 4 C 342 -12 382 -20 424 -20 C 466 -20 505 -12 542 4 C 578 20 610 41 638 69 C 665 96 687 128 703 165 C 719 201 727 240 727 282 C 727 324 719 363 703 400 C 687 436 665 468 638 496 C 610 524 578 546 542 562 C 505 578 466 586 424 586 C 382 586 342 578 306 562 C 269 546 237 524 210 496 C 182 468 161 436 145 400 C 129 363 122 324 122 282 Z M 445 296 C 470 296 487 301 497 313 C 507 324 512 336 512 348 C 512 361 507 373 497 385 C 487 397 470 403 445 403 L 359 403 L 359 296 L 445 296 Z M 273 471 L 454 471 C 480 471 502 467 520 460 C 538 453 552 444 564 433 C 576 421 584 408 589 393 C 594 378 597 363 597 348 C 597 327 591 307 580 287 C 568 267 550 252 525 241 C 529 233 535 222 543 209 C 550 195 557 181 565 167 C 572 152 579 138 587 125 C 594 112 600 102 605 95 L 512 95 L 443 231 L 359 231 L 359 95 L 273 95 L 273 471 Z" unicode="®" />
<glyph horiz-adv-x="630" d="M 165 702 L 476 702 L 476 625 L 165 625 L 165 702 Z" unicode="¯" />
<glyph horiz-adv-x="416" d="M 209 384 C 186 384 164 387 144 395 C 124 402 106 413 90 427 C 74 441 62 458 53 478 C 43 498 39 522 39 548 C 39 572 43 594 53 614 C 62 634 74 652 90 667 C 105 681 123 693 144 701 C 164 709 186 713 208 713 C 230 713 251 709 271 701 C 291 693 309 681 325 667 C 340 652 352 634 362 614 C 371 594 376 572 376 548 C 376 522 371 498 362 478 C 353 458 341 441 326 427 C 310 413 292 402 272 395 C 252 387 231 384 209 384 Z M 209 454 C 234 454 256 462 274 479 C 292 495 302 518 302 548 C 302 576 292 598 274 616 C 256 633 234 642 209 642 C 197 642 185 639 173 635 C 161 630 151 624 143 616 C 134 608 127 598 122 586 C 116 574 114 562 114 548 C 114 519 123 496 143 479 C 162 462 184 454 209 454 Z" unicode="°" />
<glyph horiz-adv-x="616" d="M 43 169 L 254 169 L 254 334 L 43 334 L 43 433 L 254 433 L 254 616 L 362 616 L 362 433 L 573 433 L 573 334 L 362 334 L 362 169 L 573 169 L 573 87 L 43 87 L 43 169 Z" unicode="±" />
<glyph horiz-adv-x="346" d="M 45 536 C 44 562 48 583 57 601 C 66 619 78 634 92 646 C 106 658 121 668 137 676 C 153 684 169 693 183 701 C 197 709 209 717 219 725 C 229 733 234 744 234 757 C 234 768 229 778 219 786 C 209 794 193 798 173 798 C 155 798 139 793 123 785 C 107 777 93 767 82 755 L 33 802 C 50 819 71 833 96 845 C 120 857 148 863 178 863 C 222 863 256 852 279 832 C 301 811 313 786 313 756 C 313 736 308 719 299 705 C 290 691 279 680 265 670 C 251 660 237 651 221 644 C 205 636 190 629 176 621 C 162 613 150 605 141 596 C 132 587 127 576 127 564 L 312 564 L 312 500 L 46 500 L 45 536 Z" unicode="²" />
<glyph horiz-adv-x="341" d="M 62 585 C 76 577 91 570 108 565 C 125 559 141 557 157 557 C 180 557 199 562 213 572 C 227 582 235 594 235 608 C 235 638 213 654 171 654 L 116 654 L 116 715 L 166 715 C 187 715 202 719 210 727 C 218 735 223 746 223 758 C 223 769 218 779 208 787 C 198 795 185 799 168 799 C 151 799 135 795 120 789 C 104 782 90 773 76 762 L 36 811 C 54 826 74 838 97 848 C 119 858 144 863 171 863 C 208 863 239 854 264 836 C 288 818 301 796 301 768 C 301 748 297 732 289 720 C 281 708 271 697 257 689 C 294 673 313 645 313 607 C 313 588 308 572 300 558 C 292 544 281 532 267 522 C 253 512 236 505 218 500 C 199 495 179 493 159 493 C 136 493 114 496 92 502 C 70 508 50 515 33 525 L 62 585 Z" unicode="³" />
<glyph horiz-adv-x="618" d="M 338 769 L 418 710 L 276 584 L 199 584 L 338 769 Z" unicode="´" />
<glyph horiz-adv-x="577" d="M 163 -200 L 59 -200 L 59 556 L 177 556 L 177 169 C 178 142 184 121 196 105 C 208 89 229 81 259 81 C 287 81 313 87 336 99 C 359 111 380 129 400 151 L 400 556 L 518 556 L 518 0 L 408 0 L 403 58 C 385 38 365 22 342 9 C 319 -3 295 -10 270 -10 C 246 -10 226 -7 210 -1 C 194 4 182 12 172 24 L 163 -200 Z" unicode="µ" />
<glyph horiz-adv-x="720" d="M 335 277 L 300 277 C 256 277 219 283 189 296 C 158 309 133 326 114 346 C 94 366 80 389 71 414 C 62 439 58 464 58 489 C 58 515 62 540 71 565 C 79 590 93 613 112 633 C 131 653 156 669 186 681 C 216 693 254 700 298 700 L 639 700 L 639 0 L 534 0 L 534 614 L 440 614 L 440 0 L 335 0 L 335 277 Z" unicode="¶" />
<glyph horiz-adv-x="232" d="M 50 332 L 182 332 L 182 199 L 50 199 L 50 332 Z" unicode="·" />
<glyph horiz-adv-x="618" d="M 214 -177 C 245 -153 273 -125 297 -92 C 321 -58 336 -23 342 14 L 413 14 C 409 -33 398 -76 378 -116 C 358 -155 332 -190 299 -220 L 214 -177 Z" unicode="¸" />
<glyph horiz-adv-x="305" d="M 140 781 L 72 745 L 42 801 L 157 857 L 216 857 L 216 500 L 140 500 L 140 781 Z" unicode="¹" />
<glyph horiz-adv-x="423" d="M 26 524 C 26 551 30 576 39 599 C 48 621 61 641 77 657 C 93 673 112 685 134 694 C 156 702 180 707 206 707 C 232 707 255 702 277 694 C 299 685 318 673 334 657 C 350 641 362 621 371 599 C 380 576 385 551 385 524 C 385 494 380 467 372 444 C 363 420 351 400 335 384 C 319 367 301 354 279 346 C 257 337 232 333 206 333 C 152 333 108 349 75 383 C 42 417 26 464 26 524 Z M 107 523 C 107 485 115 454 133 432 C 150 410 174 399 206 399 C 236 399 259 410 276 432 C 293 454 302 485 302 523 C 302 558 293 586 275 608 C 257 629 234 640 206 640 C 176 640 152 629 134 608 C 116 586 107 558 107 523 Z" unicode="º" />
<glyph horiz-adv-x="635" d="M 475 266 L 312 469 L 393 530 L 592 266 L 393 0 L 312 60 L 475 266 Z M 216 266 L 53 469 L 134 530 L 333 266 L 134 0 L 53 60 L 216 266 Z" unicode="»" />
<glyph horiz-adv-x="1153" d="M 229 214 L 229 600 L 93 518 L 44 592 L 239 700 L 331 700 L 331 214 L 229 214 Z M 329 0 L 701 700 L 800 700 L 428 0 L 329 0 Z M 674 176 L 894 486 L 1040 486 L 1040 177 L 1115 177 L 1115 100 L 1040 100 L 1040 0 L 940 0 L 940 100 L 699 100 L 674 176 Z M 940 177 L 942 417 L 775 177 L 940 177 Z" unicode="¼" />
<glyph horiz-adv-x="1206" d="M 229 214 L 229 600 L 93 518 L 44 592 L 239 700 L 331 700 L 331 214 L 229 214 Z M 329 0 L 701 700 L 800 700 L 428 0 L 329 0 Z M 763 0 L 763 37 C 763 69 769 96 783 119 C 796 141 813 161 833 178 C 853 194 875 209 899 222 C 923 234 945 247 965 259 C 985 271 1002 283 1016 297 C 1029 311 1036 327 1036 345 C 1036 389 1009 412 957 412 C 931 412 906 406 882 394 C 858 382 835 367 814 349 L 758 423 C 788 444 821 461 856 474 C 890 487 926 494 962 494 C 1023 494 1068 479 1097 451 C 1126 422 1141 385 1141 341 C 1141 315 1135 292 1124 274 C 1112 256 1098 240 1080 227 C 1062 213 1042 201 1021 191 C 999 180 978 169 958 159 C 938 148 919 136 903 123 C 887 110 875 95 868 77 L 1134 77 L 1134 0 L 763 0 Z" unicode="½" />
<glyph horiz-adv-x="1219" d="M 405 0 L 777 700 L 876 700 L 504 0 L 405 0 Z M 740 176 L 960 486 L 1106 486 L 1106 177 L 1181 177 L 1181 100 L 1106 100 L 1106 0 L 1006 0 L 1006 100 L 765 100 L 740 176 Z M 1006 177 L 1008 417 L 841 177 L 1006 177 Z M 228 207 C 196 207 166 209 138 215 C 110 220 83 228 56 240 L 93 320 C 115 308 138 300 163 295 C 188 289 212 287 234 287 C 282 287 316 294 337 308 C 358 322 369 340 369 363 C 369 406 335 428 269 428 L 163 428 L 163 501 L 266 501 C 294 501 315 507 330 519 C 345 531 353 547 353 567 C 353 586 344 601 328 612 C 311 623 288 629 258 629 C 234 629 210 625 184 618 C 158 610 133 600 111 587 L 68 661 C 97 677 128 688 161 696 C 193 704 227 708 263 708 C 323 708 371 696 406 672 C 440 648 458 617 458 579 C 458 555 451 533 437 513 C 423 493 400 478 368 469 C 406 461 433 447 449 427 C 465 407 474 384 474 360 C 474 335 467 313 455 294 C 443 275 426 259 404 246 C 382 233 356 223 326 217 C 296 210 263 207 228 207 Z" unicode="¾" />
<glyph horiz-adv-x="533" d="M 376 413 L 246 413 L 246 530 L 376 530 L 376 413 Z M 357 319 C 357 317 358 312 358 305 C 358 297 359 292 359 290 C 359 260 354 235 345 215 C 335 195 324 178 310 164 C 296 150 281 137 265 127 C 249 117 234 106 220 95 C 206 84 194 72 185 59 C 175 45 171 28 171 8 C 171 -19 181 -41 203 -58 C 224 -74 252 -83 287 -83 C 315 -83 341 -76 367 -64 C 393 -52 417 -34 441 -12 L 513 -80 C 483 -112 449 -137 411 -155 C 373 -173 331 -182 285 -182 C 250 -182 218 -177 190 -169 C 162 -160 137 -148 117 -132 C 97 -116 81 -96 70 -74 C 59 -51 54 -26 54 2 C 54 32 59 57 69 78 C 79 99 92 117 108 133 C 124 148 141 161 159 173 C 177 185 194 197 210 209 C 226 221 239 235 250 250 C 260 264 266 282 266 303 L 267 319 L 357 319 Z" unicode="¿" />
<glyph horiz-adv-x="708" d="M 205 839 L 294 900 L 409 755 L 323 755 L 205 839 Z M 239 248 L 467 248 L 354 574 L 352 574 L 239 248 Z M 283 700 L 424 700 L 683 0 L 554 0 L 501 151 L 206 151 L 154 0 L 24 0 L 283 700 Z" unicode="À" />
<glyph horiz-adv-x="708" d="M 413 900 L 503 839 L 384 755 L 299 755 L 413 900 Z M 239 248 L 467 248 L 354 574 L 352 574 L 239 248 Z M 283 700 L 424 700 L 683 0 L 554 0 L 501 151 L 206 151 L 154 0 L 24 0 L 283 700 Z" unicode="Á" />
<glyph horiz-adv-x="708" d="M 299 879 L 409 879 L 532 755 L 453 755 L 355 817 L 354 817 L 255 755 L 177 755 L 299 879 Z M 239 248 L 467 248 L 354 574 L 352 574 L 239 248 Z M 283 700 L 424 700 L 683 0 L 554 0 L 501 151 L 206 151 L 154 0 L 24 0 L 283 700 Z" unicode="Â" />
<glyph horiz-adv-x="708" d="M 192 756 C 186 796 192 827 210 850 C 228 873 253 885 287 885 C 303 885 316 882 328 876 C 340 870 350 864 360 858 C 370 851 379 845 387 839 C 395 833 404 831 414 831 C 438 831 449 846 445 878 L 515 878 C 520 838 514 806 496 783 C 478 759 452 748 419 748 C 403 748 389 750 377 756 C 365 762 355 768 346 775 C 336 781 327 787 319 793 C 310 799 301 802 292 802 C 280 802 272 798 266 790 C 260 782 259 770 261 756 L 192 756 Z M 239 248 L 467 248 L 354 574 L 352 574 L 239 248 Z M 283 700 L 424 700 L 683 0 L 554 0 L 501 151 L 206 151 L 154 0 L 24 0 L 283 700 Z" unicode="Ã" />
<glyph horiz-adv-x="708" d="M 196 868 L 297 868 L 297 766 L 196 766 L 196 868 Z M 412 868 L 513 868 L 513 766 L 412 766 L 412 868 Z M 239 248 L 467 248 L 354 574 L 352 574 L 239 248 Z M 283 700 L 424 700 L 683 0 L 554 0 L 501 151 L 206 151 L 154 0 L 24 0 L 283 700 Z" unicode="Ä" />
<glyph horiz-adv-x="708" d="M 353 700 C 370 700 384 705 396 717 C 408 729 414 743 414 761 C 414 778 408 792 396 804 C 384 816 370 822 353 822 C 336 822 322 816 310 804 C 298 792 293 778 293 761 C 293 743 298 729 310 717 C 322 705 336 700 353 700 Z M 239 248 L 467 248 L 354 574 L 352 574 L 239 248 Z M 275 680 C 263 689 254 701 248 715 C 242 729 239 744 239 761 C 239 777 242 791 248 805 C 254 818 262 829 272 839 C 282 849 294 856 308 862 C 322 868 337 871 353 871 C 369 871 384 868 398 862 C 412 856 424 849 434 839 C 444 829 453 818 459 805 C 465 791 468 777 468 761 C 468 744 464 729 458 715 C 451 701 442 689 431 680 L 683 0 L 554 0 L 501 151 L 206 151 L 154 0 L 24 0 L 275 680 Z" unicode="Å" />
<glyph horiz-adv-x="1057" d="M 264 251 L 510 251 L 418 594 L 414 594 L 264 251 Z M 339 700 L 994 700 L 994 594 L 537 594 L 590 406 L 955 406 L 955 306 L 619 306 L 676 106 L 1000 106 L 1000 0 L 577 0 L 536 151 L 220 151 L 154 0 L 19 0 L 339 700 Z" unicode="Æ" />
<glyph horiz-adv-x="707" d="M 218 -177 C 246 -155 271 -130 294 -101 C 316 -71 332 -40 341 -7 C 297 0 256 13 220 33 C 184 53 153 79 128 111 C 102 142 83 178 69 220 C 55 262 48 307 48 356 C 48 408 56 455 74 499 C 92 543 116 580 148 612 C 180 644 218 668 262 686 C 306 703 354 712 407 712 C 498 712 579 684 651 629 L 586 543 C 558 564 530 580 502 591 C 474 602 443 608 409 608 C 373 608 340 602 311 590 C 281 578 256 561 235 539 C 214 517 198 490 187 459 C 175 428 170 394 170 356 C 170 316 175 279 187 247 C 198 215 214 187 235 164 C 255 141 280 123 310 111 C 339 98 372 92 409 92 C 479 92 541 117 593 168 L 667 90 C 598 24 514 -10 414 -12 C 408 -54 396 -92 377 -127 C 357 -161 333 -192 303 -220 L 218 -177 Z" unicode="Ç" />
<glyph horiz-adv-x="636" d="M 179 839 L 268 900 L 383 755 L 297 755 L 179 839 Z M 77 700 L 573 700 L 573 594 L 196 594 L 196 405 L 534 405 L 534 307 L 196 307 L 196 106 L 578 106 L 578 0 L 77 0 L 77 700 Z" unicode="È" />
<glyph horiz-adv-x="636" d="M 387 900 L 477 839 L 358 755 L 273 755 L 387 900 Z M 77 700 L 573 700 L 573 594 L 196 594 L 196 405 L 534 405 L 534 307 L 196 307 L 196 106 L 578 106 L 578 0 L 77 0 L 77 700 Z" unicode="É" />
<glyph horiz-adv-x="636" d="M 273 879 L 383 879 L 506 755 L 427 755 L 329 817 L 328 817 L 229 755 L 151 755 L 273 879 Z M 77 700 L 573 700 L 573 594 L 196 594 L 196 405 L 534 405 L 534 307 L 196 307 L 196 106 L 578 106 L 578 0 L 77 0 L 77 700 Z" unicode="Ê" />
<glyph horiz-adv-x="636" d="M 170 868 L 271 868 L 271 766 L 170 766 L 170 868 Z M 386 868 L 487 868 L 487 766 L 386 766 L 386 868 Z M 77 700 L 573 700 L 573 594 L 196 594 L 196 405 L 534 405 L 534 307 L 196 307 L 196 106 L 578 106 L 578 0 L 77 0 L 77 700 Z" unicode="Ë" />
<glyph horiz-adv-x="273" d="M -12 839 L 77 900 L 192 755 L 106 755 L -12 839 Z M 77 700 L 197 700 L 197 0 L 77 0 L 77 700 Z" unicode="Ì" />
<glyph horiz-adv-x="273" d="M 196 900 L 286 839 L 167 755 L 82 755 L 196 900 Z M 77 700 L 197 700 L 197 0 L 77 0 L 77 700 Z" unicode="Í" />
<glyph horiz-adv-x="273" d="M 82 879 L 192 879 L 315 755 L 236 755 L 138 817 L 137 817 L 38 755 L -40 755 L 82 879 Z M 77 700 L 197 700 L 197 0 L 77 0 L 77 700 Z" unicode="Î" />
<glyph horiz-adv-x="273" d="M -21 868 L 80 868 L 80 766 L -21 766 L -21 868 Z M 195 868 L 296 868 L 296 766 L 195 766 L 195 868 Z M 77 700 L 197 700 L 197 0 L 77 0 L 77 700 Z" unicode="Ï" />
<glyph horiz-adv-x="757" d="M 114 313 L 14 313 L 14 391 L 114 391 L 114 700 L 330 700 C 391 700 445 692 493 676 C 540 660 580 637 612 607 C 644 577 669 540 686 497 C 702 454 711 405 711 351 C 711 241 679 155 616 93 C 552 31 457 0 330 0 L 114 0 L 114 313 Z M 337 101 C 421 101 484 123 526 167 C 568 211 589 273 589 351 C 589 427 567 487 524 532 C 480 576 418 599 337 599 L 233 599 L 233 391 L 412 391 L 412 314 L 233 314 L 233 101 L 337 101 Z" unicode="Ð" />
<glyph horiz-adv-x="733" d="M 205 756 C 199 796 205 827 223 850 C 241 873 266 885 300 885 C 316 885 329 882 341 876 C 353 870 363 864 373 858 C 383 851 392 845 400 839 C 408 833 417 831 427 831 C 451 831 462 846 458 878 L 528 878 C 533 838 527 806 509 783 C 491 759 465 748 432 748 C 416 748 402 750 390 756 C 378 762 368 768 359 775 C 349 781 340 787 332 793 C 323 799 314 802 305 802 C 293 802 285 798 279 790 C 273 782 272 770 274 756 L 205 756 Z M 77 700 L 192 700 L 541 193 L 541 700 L 656 700 L 656 0 L 541 0 L 192 506 L 192 0 L 77 0 L 77 700 Z" unicode="Ñ" />
<glyph horiz-adv-x="811" d="M 258 839 L 347 900 L 462 755 L 376 755 L 258 839 Z M 48 354 C 48 408 57 457 75 501 C 93 545 119 583 151 614 C 183 645 220 669 264 686 C 308 703 355 712 406 712 C 456 712 503 703 547 686 C 591 669 629 645 661 614 C 693 583 718 545 736 501 C 754 457 763 408 763 354 C 763 298 754 248 736 203 C 718 158 693 120 661 88 C 629 56 591 31 547 14 C 503 -3 456 -12 406 -12 C 355 -12 308 -3 264 14 C 220 31 183 56 151 88 C 119 120 93 158 75 203 C 57 248 48 298 48 354 Z M 171 354 C 171 313 177 276 189 244 C 201 211 217 183 239 161 C 260 139 285 122 314 110 C 342 98 373 92 406 92 C 439 92 470 98 498 110 C 526 122 551 139 573 161 C 594 183 611 211 623 244 C 635 276 641 313 641 354 C 641 393 635 428 623 460 C 611 492 594 519 573 541 C 552 563 527 579 499 591 C 470 603 439 609 406 609 C 372 609 341 603 313 591 C 284 579 259 563 238 541 C 217 519 201 492 189 460 C 177 428 171 393 171 354 Z" unicode="Ò" />
<glyph horiz-adv-x="811" d="M 465 900 L 555 839 L 436 755 L 351 755 L 465 900 Z M 48 354 C 48 408 57 457 75 501 C 93 545 119 583 151 614 C 183 645 220 669 264 686 C 308 703 355 712 406 712 C 456 712 503 703 547 686 C 591 669 629 645 661 614 C 693 583 718 545 736 501 C 754 457 763 408 763 354 C 763 298 754 248 736 203 C 718 158 693 120 661 88 C 629 56 591 31 547 14 C 503 -3 456 -12 406 -12 C 355 -12 308 -3 264 14 C 220 31 183 56 151 88 C 119 120 93 158 75 203 C 57 248 48 298 48 354 Z M 171 354 C 171 313 177 276 189 244 C 201 211 217 183 239 161 C 260 139 285 122 314 110 C 342 98 373 92 406 92 C 439 92 470 98 498 110 C 526 122 551 139 573 161 C 594 183 611 211 623 244 C 635 276 641 313 641 354 C 641 393 635 428 623 460 C 611 492 594 519 573 541 C 552 563 527 579 499 591 C 470 603 439 609 406 609 C 372 609 341 603 313 591 C 284 579 259 563 238 541 C 217 519 201 492 189 460 C 177 428 171 393 171 354 Z" unicode="Ó" />
<glyph horiz-adv-x="811" d="M 351 879 L 461 879 L 584 755 L 505 755 L 407 817 L 406 817 L 307 755 L 229 755 L 351 879 Z M 48 354 C 48 408 57 457 75 501 C 93 545 119 583 151 614 C 183 645 220 669 264 686 C 308 703 355 712 406 712 C 456 712 503 703 547 686 C 591 669 629 645 661 614 C 693 583 718 545 736 501 C 754 457 763 408 763 354 C 763 298 754 248 736 203 C 718 158 693 120 661 88 C 629 56 591 31 547 14 C 503 -3 456 -12 406 -12 C 355 -12 308 -3 264 14 C 220 31 183 56 151 88 C 119 120 93 158 75 203 C 57 248 48 298 48 354 Z M 171 354 C 171 313 177 276 189 244 C 201 211 217 183 239 161 C 260 139 285 122 314 110 C 342 98 373 92 406 92 C 439 92 470 98 498 110 C 526 122 551 139 573 161 C 594 183 611 211 623 244 C 635 276 641 313 641 354 C 641 393 635 428 623 460 C 611 492 594 519 573 541 C 552 563 527 579 499 591 C 470 603 439 609 406 609 C 372 609 341 603 313 591 C 284 579 259 563 238 541 C 217 519 201 492 189 460 C 177 428 171 393 171 354 Z" unicode="Ô" />
<glyph horiz-adv-x="811" d="M 244 756 C 238 796 244 827 262 850 C 280 873 305 885 339 885 C 355 885 368 882 380 876 C 392 870 402 864 412 858 C 422 851 431 845 439 839 C 447 833 456 831 466 831 C 490 831 501 846 497 878 L 567 878 C 572 838 566 806 548 783 C 530 759 504 748 471 748 C 455 748 441 750 429 756 C 417 762 407 768 398 775 C 388 781 379 787 371 793 C 362 799 353 802 344 802 C 332 802 324 798 318 790 C 312 782 311 770 313 756 L 244 756 Z M 48 354 C 48 408 57 457 75 501 C 93 545 119 583 151 614 C 183 645 220 669 264 686 C 308 703 355 712 406 712 C 456 712 503 703 547 686 C 591 669 629 645 661 614 C 693 583 718 545 736 501 C 754 457 763 408 763 354 C 763 298 754 248 736 203 C 718 158 693 120 661 88 C 629 56 591 31 547 14 C 503 -3 456 -12 406 -12 C 355 -12 308 -3 264 14 C 220 31 183 56 151 88 C 119 120 93 158 75 203 C 57 248 48 298 48 354 Z M 171 354 C 171 313 177 276 189 244 C 201 211 217 183 239 161 C 260 139 285 122 314 110 C 342 98 373 92 406 92 C 439 92 470 98 498 110 C 526 122 551 139 573 161 C 594 183 611 211 623 244 C 635 276 641 313 641 354 C 641 393 635 428 623 460 C 611 492 594 519 573 541 C 552 563 527 579 499 591 C 470 603 439 609 406 609 C 372 609 341 603 313 591 C 284 579 259 563 238 541 C 217 519 201 492 189 460 C 177 428 171 393 171 354 Z" unicode="Õ" />
<glyph horiz-adv-x="811" d="M 248 868 L 349 868 L 349 766 L 248 766 L 248 868 Z M 464 868 L 565 868 L 565 766 L 464 766 L 464 868 Z M 48 354 C 48 408 57 457 75 501 C 93 545 119 583 151 614 C 183 645 220 669 264 686 C 308 703 355 712 406 712 C 456 712 503 703 547 686 C 591 669 629 645 661 614 C 693 583 718 545 736 501 C 754 457 763 408 763 354 C 763 298 754 248 736 203 C 718 158 693 120 661 88 C 629 56 591 31 547 14 C 503 -3 456 -12 406 -12 C 355 -12 308 -3 264 14 C 220 31 183 56 151 88 C 119 120 93 158 75 203 C 57 248 48 298 48 354 Z M 171 354 C 171 313 177 276 189 244 C 201 211 217 183 239 161 C 260 139 285 122 314 110 C 342 98 373 92 406 92 C 439 92 470 98 498 110 C 526 122 551 139 573 161 C 594 183 611 211 623 244 C 635 276 641 313 641 354 C 641 393 635 428 623 460 C 611 492 594 519 573 541 C 552 563 527 579 499 591 C 470 603 439 609 406 609 C 372 609 341 603 313 591 C 284 579 259 563 238 541 C 217 519 201 492 189 460 C 177 428 171 393 171 354 Z" unicode="Ö" />
<glyph horiz-adv-x="605" d="M 231 352 L 67 524 L 139 595 L 302 423 L 466 595 L 538 524 L 374 352 L 538 179 L 466 109 L 302 281 L 139 109 L 67 179 L 231 352 Z" unicode="×" />
<glyph horiz-adv-x="811" d="M 171 354 C 171 316 176 282 186 252 C 196 222 211 195 229 173 L 537 571 C 518 583 498 592 476 599 C 454 605 430 609 406 609 C 372 609 341 603 313 591 C 284 579 259 563 238 541 C 217 519 201 492 189 460 C 177 428 171 393 171 354 Z M 641 354 C 641 390 635 422 625 452 C 615 481 601 506 584 528 L 275 130 C 312 104 356 92 406 92 C 439 92 470 98 498 110 C 526 122 551 139 573 161 C 594 183 611 211 623 244 C 635 276 641 313 641 354 Z M 48 354 C 48 408 57 457 75 501 C 93 545 119 583 151 614 C 183 645 220 669 264 686 C 308 703 355 712 406 712 C 479 712 544 694 602 660 L 661 736 L 720 689 L 659 615 C 691 583 717 546 735 502 C 753 458 763 408 763 354 C 763 298 754 248 736 203 C 718 158 693 120 661 88 C 629 56 591 31 547 14 C 503 -3 456 -12 406 -12 C 332 -12 267 5 211 40 L 150 -36 L 92 9 L 154 85 C 120 117 94 155 76 201 C 57 246 48 297 48 354 Z" unicode="Ø" />
<glyph horiz-adv-x="720" d="M 211 839 L 300 900 L 415 755 L 329 755 L 211 839 Z M 74 700 L 195 700 L 195 263 C 195 235 199 210 207 189 C 215 168 227 150 242 136 C 256 121 274 110 294 103 C 314 95 336 92 360 92 C 383 92 405 95 425 103 C 445 110 463 121 478 136 C 493 150 505 168 513 189 C 521 210 526 235 526 263 L 526 700 L 646 700 L 646 263 C 646 217 638 176 624 142 C 609 108 589 79 564 56 C 538 33 508 16 473 5 C 438 -6 400 -12 360 -12 C 319 -12 281 -6 246 5 C 211 16 181 33 156 56 C 130 79 110 108 96 142 C 81 176 74 217 74 263 L 74 700 Z" unicode="Ù" />
<glyph horiz-adv-x="720" d="M 419 900 L 509 839 L 390 755 L 305 755 L 419 900 Z M 74 700 L 195 700 L 195 263 C 195 235 199 210 207 189 C 215 168 227 150 242 136 C 256 121 274 110 294 103 C 314 95 336 92 360 92 C 383 92 405 95 425 103 C 445 110 463 121 478 136 C 493 150 505 168 513 189 C 521 210 526 235 526 263 L 526 700 L 646 700 L 646 263 C 646 217 638 176 624 142 C 609 108 589 79 564 56 C 538 33 508 16 473 5 C 438 -6 400 -12 360 -12 C 319 -12 281 -6 246 5 C 211 16 181 33 156 56 C 130 79 110 108 96 142 C 81 176 74 217 74 263 L 74 700 Z" unicode="Ú" />
<glyph horiz-adv-x="720" d="M 305 879 L 415 879 L 538 755 L 459 755 L 361 817 L 360 817 L 261 755 L 183 755 L 305 879 Z M 74 700 L 195 700 L 195 263 C 195 235 199 210 207 189 C 215 168 227 150 242 136 C 256 121 274 110 294 103 C 314 95 336 92 360 92 C 383 92 405 95 425 103 C 445 110 463 121 478 136 C 493 150 505 168 513 189 C 521 210 526 235 526 263 L 526 700 L 646 700 L 646 263 C 646 217 638 176 624 142 C 609 108 589 79 564 56 C 538 33 508 16 473 5 C 438 -6 400 -12 360 -12 C 319 -12 281 -6 246 5 C 211 16 181 33 156 56 C 130 79 110 108 96 142 C 81 176 74 217 74 263 L 74 700 Z" unicode="Û" />
<glyph horiz-adv-x="720" d="M 202 868 L 303 868 L 303 766 L 202 766 L 202 868 Z M 418 868 L 519 868 L 519 766 L 418 766 L 418 868 Z M 74 700 L 195 700 L 195 263 C 195 235 199 210 207 189 C 215 168 227 150 242 136 C 256 121 274 110 294 103 C 314 95 336 92 360 92 C 383 92 405 95 425 103 C 445 110 463 121 478 136 C 493 150 505 168 513 189 C 521 210 526 235 526 263 L 526 700 L 646 700 L 646 263 C 646 217 638 176 624 142 C 609 108 589 79 564 56 C 538 33 508 16 473 5 C 438 -6 400 -12 360 -12 C 319 -12 281 -6 246 5 C 211 16 181 33 156 56 C 130 79 110 108 96 142 C 81 176 74 217 74 263 L 74 700 Z" unicode="Ü" />
<glyph horiz-adv-x="691" d="M 405 900 L 495 839 L 376 755 L 291 755 L 405 900 Z M 285 283 L 21 700 L 162 700 L 345 399 L 347 399 L 531 700 L 670 700 L 406 283 L 406 0 L 285 0 L 285 283 Z" unicode="Ý" />
<glyph horiz-adv-x="661" d="M 77 700 L 197 700 L 197 585 L 325 585 C 373 585 415 579 451 568 C 487 556 516 541 540 521 C 564 501 581 476 593 448 C 604 420 610 389 610 355 C 610 319 604 287 593 258 C 581 229 564 204 541 184 C 518 163 489 147 453 136 C 417 124 375 119 326 119 L 197 119 L 197 0 L 77 0 L 77 700 Z M 325 217 C 379 217 420 229 448 253 C 476 277 490 311 490 355 C 490 397 475 429 446 452 C 417 474 377 486 325 486 L 197 486 L 197 217 L 325 217 Z" unicode="Þ" />
<glyph horiz-adv-x="649" d="M 69 537 C 69 573 75 605 87 633 C 99 661 116 684 138 703 C 159 722 185 737 215 747 C 245 757 277 762 312 762 C 346 762 379 757 409 747 C 439 737 465 723 487 705 C 509 687 526 665 539 639 C 551 613 558 585 558 553 C 558 512 547 478 526 452 C 504 425 477 405 445 391 L 445 390 C 468 384 489 376 509 366 C 528 356 545 343 560 327 C 574 311 586 293 594 273 C 602 252 606 229 606 203 C 606 168 599 137 587 111 C 575 84 558 62 537 44 C 515 26 490 12 462 3 C 434 -5 404 -10 372 -10 C 330 -10 292 -4 256 8 L 276 101 C 288 97 302 93 317 90 C 331 87 345 86 357 86 C 393 86 424 96 450 117 C 476 137 489 168 489 208 C 489 230 485 248 477 264 C 469 280 458 293 444 303 C 430 313 414 321 396 326 C 377 331 357 334 336 334 L 291 334 L 291 430 L 315 430 C 353 430 383 440 407 462 C 430 484 442 512 442 548 C 442 585 430 615 407 637 C 383 659 352 671 312 671 C 273 671 242 660 219 638 C 196 616 185 582 185 538 L 185 0 L 69 0 L 69 537 Z" unicode="ß" />
<glyph horiz-adv-x="549" d="M 125 710 L 206 769 L 344 584 L 267 584 L 125 710 Z M 161 138 C 161 118 167 103 181 92 C 194 81 211 76 233 76 C 259 76 283 80 303 90 C 323 100 340 112 354 128 L 354 241 C 331 240 308 238 285 235 C 262 231 241 226 223 218 C 204 210 189 200 178 187 C 166 174 161 158 161 138 Z M 45 128 C 45 160 53 187 69 209 C 85 231 106 250 134 265 C 162 279 194 290 232 298 C 270 306 310 311 354 313 L 354 372 C 354 394 347 411 333 425 C 319 439 298 446 268 446 C 242 446 215 441 187 431 C 159 421 130 408 101 394 L 58 485 C 90 500 124 513 162 524 C 200 535 236 541 272 541 C 307 541 337 536 362 528 C 387 520 408 508 424 493 C 440 477 451 459 459 438 C 466 417 470 394 470 369 L 470 130 C 470 112 474 100 483 93 C 491 85 503 82 519 82 L 519 -2 C 475 -2 442 2 420 12 C 398 21 381 37 368 60 C 346 38 322 20 296 7 C 270 -5 239 -12 204 -12 C 156 -12 118 0 89 26 C 59 52 45 86 45 128 Z" unicode="à" />
<glyph horiz-adv-x="549" d="M 356 769 L 436 710 L 294 584 L 217 584 L 356 769 Z M 161 138 C 161 118 167 103 181 92 C 194 81 211 76 233 76 C 259 76 283 80 303 90 C 323 100 340 112 354 128 L 354 241 C 331 240 308 238 285 235 C 262 231 241 226 223 218 C 204 210 189 200 178 187 C 166 174 161 158 161 138 Z M 45 128 C 45 160 53 187 69 209 C 85 231 106 250 134 265 C 162 279 194 290 232 298 C 270 306 310 311 354 313 L 354 372 C 354 394 347 411 333 425 C 319 439 298 446 268 446 C 242 446 215 441 187 431 C 159 421 130 408 101 394 L 58 485 C 90 500 124 513 162 524 C 200 535 236 541 272 541 C 307 541 337 536 362 528 C 387 520 408 508 424 493 C 440 477 451 459 459 438 C 466 417 470 394 470 369 L 470 130 C 470 112 474 100 483 93 C 491 85 503 82 519 82 L 519 -2 C 475 -2 442 2 420 12 C 398 21 381 37 368 60 C 346 38 322 20 296 7 C 270 -5 239 -12 204 -12 C 156 -12 118 0 89 26 C 59 52 45 86 45 128 Z" unicode="á" />
<glyph horiz-adv-x="549" d="M 221 744 L 340 744 L 462 584 L 380 584 L 281 680 L 279 680 L 180 584 L 99 584 L 221 744 Z M 161 138 C 161 118 167 103 181 92 C 194 81 211 76 233 76 C 259 76 283 80 303 90 C 323 100 340 112 354 128 L 354 241 C 331 240 308 238 285 235 C 262 231 241 226 223 218 C 204 210 189 200 178 187 C 166 174 161 158 161 138 Z M 45 128 C 45 160 53 187 69 209 C 85 231 106 250 134 265 C 162 279 194 290 232 298 C 270 306 310 311 354 313 L 354 372 C 354 394 347 411 333 425 C 319 439 298 446 268 446 C 242 446 215 441 187 431 C 159 421 130 408 101 394 L 58 485 C 90 500 124 513 162 524 C 200 535 236 541 272 541 C 307 541 337 536 362 528 C 387 520 408 508 424 493 C 440 477 451 459 459 438 C 466 417 470 394 470 369 L 470 130 C 470 112 474 100 483 93 C 491 85 503 82 519 82 L 519 -2 C 475 -2 442 2 420 12 C 398 21 381 37 368 60 C 346 38 322 20 296 7 C 270 -5 239 -12 204 -12 C 156 -12 118 0 89 26 C 59 52 45 86 45 128 Z" unicode="â" />
<glyph horiz-adv-x="549" d="M 119 602 C 114 642 120 674 138 697 C 156 720 181 732 215 732 C 231 732 244 729 256 723 C 267 717 277 711 287 705 C 296 698 305 692 313 686 C 321 680 330 678 340 678 C 364 678 375 694 371 726 L 440 726 C 445 684 439 652 421 629 C 403 606 378 595 345 595 C 329 595 316 597 304 603 C 292 609 282 615 273 622 C 263 628 254 634 246 640 C 238 646 229 649 220 649 C 195 649 185 633 189 602 L 119 602 Z M 161 138 C 161 118 167 103 181 92 C 194 81 211 76 233 76 C 259 76 283 80 303 90 C 323 100 340 112 354 128 L 354 241 C 331 240 308 238 285 235 C 262 231 241 226 223 218 C 204 210 189 200 178 187 C 166 174 161 158 161 138 Z M 45 128 C 45 160 53 187 69 209 C 85 231 106 250 134 265 C 162 279 194 290 232 298 C 270 306 310 311 354 313 L 354 372 C 354 394 347 411 333 425 C 319 439 298 446 268 446 C 242 446 215 441 187 431 C 159 421 130 408 101 394 L 58 485 C 90 500 124 513 162 524 C 200 535 236 541 272 541 C 307 541 337 536 362 528 C 387 520 408 508 424 493 C 440 477 451 459 459 438 C 466 417 470 394 470 369 L 470 130 C 470 112 474 100 483 93 C 491 85 503 82 519 82 L 519 -2 C 475 -2 442 2 420 12 C 398 21 381 37 368 60 C 346 38 322 20 296 7 C 270 -5 239 -12 204 -12 C 156 -12 118 0 89 26 C 59 52 45 86 45 128 Z" unicode="ã" />
<glyph horiz-adv-x="549" d="M 124 715 L 225 715 L 225 613 L 124 613 L 124 715 Z M 336 715 L 436 715 L 436 613 L 336 613 L 336 715 Z M 161 138 C 161 118 167 103 181 92 C 194 81 211 76 233 76 C 259 76 283 80 303 90 C 323 100 340 112 354 128 L 354 241 C 331 240 308 238 285 235 C 262 231 241 226 223 218 C 204 210 189 200 178 187 C 166 174 161 158 161 138 Z M 45 128 C 45 160 53 187 69 209 C 85 231 106 250 134 265 C 162 279 194 290 232 298 C 270 306 310 311 354 313 L 354 372 C 354 394 347 411 333 425 C 319 439 298 446 268 446 C 242 446 215 441 187 431 C 159 421 130 408 101 394 L 58 485 C 90 500 124 513 162 524 C 200 535 236 541 272 541 C 307 541 337 536 362 528 C 387 520 408 508 424 493 C 440 477 451 459 459 438 C 466 417 470 394 470 369 L 470 130 C 470 112 474 100 483 93 C 491 85 503 82 519 82 L 519 -2 C 475 -2 442 2 420 12 C 398 21 381 37 368 60 C 346 38 322 20 296 7 C 270 -5 239 -12 204 -12 C 156 -12 118 0 89 26 C 59 52 45 86 45 128 Z" unicode="ä" />
<glyph horiz-adv-x="549" d="M 280 578 C 264 578 249 580 235 586 C 221 592 209 599 199 609 C 189 619 181 630 175 644 C 169 657 166 671 166 687 C 166 703 169 717 175 731 C 181 744 189 755 199 765 C 209 775 221 782 235 788 C 249 794 264 797 280 797 C 296 797 310 794 324 788 C 338 782 350 775 360 765 C 370 755 379 744 385 731 C 391 717 394 703 394 687 C 394 671 391 657 385 644 C 379 630 370 619 360 609 C 350 599 338 592 324 586 C 310 580 296 578 280 578 Z M 280 626 C 297 626 311 631 323 643 C 335 655 341 669 341 687 C 341 704 335 718 323 730 C 311 742 297 748 280 748 C 262 748 248 742 236 730 C 224 718 219 704 219 687 C 219 669 224 655 236 643 C 248 631 262 626 280 626 Z M 161 138 C 161 118 167 103 181 92 C 194 81 211 76 233 76 C 259 76 283 80 303 90 C 323 100 340 112 354 128 L 354 241 C 331 240 308 238 285 235 C 262 231 241 226 223 218 C 204 210 189 200 178 187 C 166 174 161 158 161 138 Z M 45 128 C 45 160 53 187 69 209 C 85 231 106 250 134 265 C 162 279 194 290 232 298 C 270 306 310 311 354 313 L 354 372 C 354 394 347 411 333 425 C 319 439 298 446 268 446 C 242 446 215 441 187 431 C 159 421 130 408 101 394 L 58 485 C 90 500 124 513 162 524 C 200 535 236 541 272 541 C 307 541 337 536 362 528 C 387 520 408 508 424 493 C 440 477 451 459 459 438 C 466 417 470 394 470 369 L 470 130 C 470 112 474 100 483 93 C 491 85 503 82 519 82 L 519 -2 C 475 -2 442 2 420 12 C 398 21 381 37 368 60 C 346 38 322 20 296 7 C 270 -5 239 -12 204 -12 C 156 -12 118 0 89 26 C 59 52 45 86 45 128 Z" unicode="å" />
<glyph horiz-adv-x="883" d="M 409 81 C 399 69 387 57 373 46 C 359 34 343 24 326 16 C 309 7 291 0 271 -5 C 251 -10 230 -13 208 -13 C 158 -13 119 0 89 25 C 59 51 45 85 45 127 C 45 159 52 186 68 208 C 84 230 106 249 134 263 C 162 277 195 287 233 295 C 271 302 311 307 355 309 L 355 373 C 355 394 348 411 335 425 C 321 439 300 446 271 446 C 245 446 218 441 190 431 C 161 421 132 409 102 394 L 58 485 C 92 500 127 513 165 525 C 202 536 238 542 272 542 C 316 542 351 534 377 520 C 403 505 421 486 433 462 C 454 487 480 507 511 521 C 541 535 576 542 615 542 C 653 542 686 535 714 523 C 742 511 765 494 783 473 C 801 451 815 426 825 396 C 834 366 839 334 839 300 C 839 292 838 282 837 272 C 836 262 835 253 834 247 L 472 247 C 474 193 488 152 513 124 C 538 96 575 82 623 82 C 650 82 676 86 701 95 C 725 104 749 116 771 130 L 822 53 C 790 31 757 14 723 3 C 689 -7 654 -13 618 -13 C 572 -13 531 -5 496 11 C 461 27 432 50 409 81 Z M 726 322 C 726 340 724 358 720 374 C 716 390 709 404 701 416 C 692 428 681 437 667 444 C 653 451 636 455 616 455 C 580 455 549 443 524 420 C 499 396 483 364 475 322 L 726 322 Z M 162 137 C 162 119 168 104 182 92 C 195 80 212 75 234 75 C 265 75 292 81 315 95 C 337 109 356 127 372 149 C 362 177 357 207 355 240 C 332 239 309 237 286 234 C 263 230 242 225 224 218 C 206 210 191 200 179 187 C 167 174 162 157 162 137 Z" unicode="æ" />
<glyph horiz-adv-x="525" d="M 122 -177 C 150 -155 175 -130 198 -101 C 221 -71 237 -40 246 -6 C 215 0 187 9 162 24 C 137 39 116 58 98 82 C 80 106 66 133 56 165 C 46 196 42 231 42 269 C 42 311 48 348 61 382 C 74 416 92 444 116 468 C 139 491 166 509 198 522 C 230 534 265 541 303 541 C 371 541 432 520 486 478 L 425 400 C 409 412 392 422 373 431 C 353 439 331 444 306 444 C 264 444 229 428 201 397 C 173 366 160 323 160 269 C 160 210 173 164 200 132 C 227 100 262 84 306 84 C 332 84 355 88 375 97 C 394 105 412 117 430 133 L 496 63 C 469 39 442 20 414 8 C 386 -3 354 -10 318 -12 C 312 -54 300 -92 281 -127 C 261 -161 237 -192 207 -220 L 122 -177 Z" unicode="ç" />
<glyph horiz-adv-x="574" d="M 145 710 L 226 769 L 364 584 L 287 584 L 145 710 Z M 43 269 C 43 311 49 348 63 382 C 76 416 94 444 117 468 C 140 492 167 510 199 523 C 231 535 265 542 302 542 C 340 542 373 535 401 523 C 429 511 453 494 472 473 C 490 451 504 426 514 396 C 523 366 528 334 528 300 C 528 292 527 282 527 272 C 526 262 525 253 524 247 L 160 247 C 163 193 177 152 203 124 C 228 96 264 82 312 82 C 339 82 365 86 390 95 C 415 104 439 116 461 130 L 512 53 C 481 31 448 15 414 4 C 379 -7 343 -13 305 -13 C 265 -13 229 -6 197 6 C 165 18 137 37 114 61 C 91 85 73 115 61 150 C 49 185 43 225 43 269 Z M 305 455 C 269 455 238 443 213 420 C 188 396 172 364 165 322 L 416 322 C 416 340 414 358 410 374 C 406 390 399 404 391 416 C 382 428 371 437 357 444 C 343 451 325 455 305 455 Z" unicode="è" />
<glyph horiz-adv-x="574" d="M 376 769 L 456 710 L 314 584 L 237 584 L 376 769 Z M 43 269 C 43 311 49 348 63 382 C 76 416 94 444 117 468 C 140 492 167 510 199 523 C 231 535 265 542 302 542 C 340 542 373 535 401 523 C 429 511 453 494 472 473 C 490 451 504 426 514 396 C 523 366 528 334 528 300 C 528 292 527 282 527 272 C 526 262 525 253 524 247 L 160 247 C 163 193 177 152 203 124 C 228 96 264 82 312 82 C 339 82 365 86 390 95 C 415 104 439 116 461 130 L 512 53 C 481 31 448 15 414 4 C 379 -7 343 -13 305 -13 C 265 -13 229 -6 197 6 C 165 18 137 37 114 61 C 91 85 73 115 61 150 C 49 185 43 225 43 269 Z M 305 455 C 269 455 238 443 213 420 C 188 396 172 364 165 322 L 416 322 C 416 340 414 358 410 374 C 406 390 399 404 391 416 C 382 428 371 437 357 444 C 343 451 325 455 305 455 Z" unicode="é" />
<glyph horiz-adv-x="574" d="M 243 744 L 362 744 L 484 584 L 402 584 L 303 680 L 301 680 L 202 584 L 121 584 L 243 744 Z M 43 269 C 43 311 49 348 63 382 C 76 416 94 444 117 468 C 140 492 167 510 199 523 C 231 535 265 542 302 542 C 340 542 373 535 401 523 C 429 511 453 494 472 473 C 490 451 504 426 514 396 C 523 366 528 334 528 300 C 528 292 527 282 527 272 C 526 262 525 253 524 247 L 160 247 C 163 193 177 152 203 124 C 228 96 264 82 312 82 C 339 82 365 86 390 95 C 415 104 439 116 461 130 L 512 53 C 481 31 448 15 414 4 C 379 -7 343 -13 305 -13 C 265 -13 229 -6 197 6 C 165 18 137 37 114 61 C 91 85 73 115 61 150 C 49 185 43 225 43 269 Z M 305 455 C 269 455 238 443 213 420 C 188 396 172 364 165 322 L 416 322 C 416 340 414 358 410 374 C 406 390 399 404 391 416 C 382 428 371 437 357 444 C 343 451 325 455 305 455 Z" unicode="ê" />
<glyph horiz-adv-x="574" d="M 358 715 L 458 715 L 458 613 L 358 613 L 358 715 Z M 146 715 L 247 715 L 247 613 L 146 613 L 146 715 Z M 43 269 C 43 311 49 348 63 382 C 76 416 94 444 117 468 C 140 492 167 510 199 523 C 231 535 265 542 302 542 C 340 542 373 535 401 523 C 429 511 453 494 472 473 C 490 451 504 426 514 396 C 523 366 528 334 528 300 C 528 292 527 282 527 272 C 526 262 525 253 524 247 L 160 247 C 163 193 177 152 203 124 C 228 96 264 82 312 82 C 339 82 365 86 390 95 C 415 104 439 116 461 130 L 512 53 C 481 31 448 15 414 4 C 379 -7 343 -13 305 -13 C 265 -13 229 -6 197 6 C 165 18 137 37 114 61 C 91 85 73 115 61 150 C 49 185 43 225 43 269 Z M 305 455 C 269 455 238 443 213 420 C 188 396 172 364 165 322 L 416 322 C 416 340 414 358 410 374 C 406 390 399 404 391 416 C 382 428 371 437 357 444 C 343 451 325 455 305 455 Z" unicode="ë" />
<glyph horiz-adv-x="260" d="M -26 710 L 55 769 L 193 584 L 116 584 L -26 710 Z M 72 524 L 188 524 L 188 0 L 72 0 L 72 524 Z" unicode="ì" />
<glyph horiz-adv-x="260" d="M 205 769 L 285 710 L 143 584 L 66 584 L 205 769 Z M 72 524 L 188 524 L 188 0 L 72 0 L 72 524 Z" unicode="í" />
<glyph horiz-adv-x="260" d="M 70 744 L 189 744 L 311 584 L 229 584 L 130 680 L 128 680 L 29 584 L -52 584 L 70 744 Z M 72 524 L 188 524 L 188 0 L 72 0 L 72 524 Z" unicode="î" />
<glyph horiz-adv-x="260" d="M -26 715 L 75 715 L 75 613 L -26 613 L -26 715 Z M 186 715 L 286 715 L 286 613 L 186 613 L 186 715 Z M 72 524 L 188 524 L 188 0 L 72 0 L 72 524 Z" unicode="ï" />
<glyph horiz-adv-x="602" d="M 300 -12 C 260 -12 224 -5 193 9 C 161 23 135 42 113 66 C 91 90 75 119 64 153 C 52 187 47 224 47 264 C 47 302 52 337 63 369 C 74 401 89 429 109 453 C 128 477 151 495 178 508 C 205 521 235 528 267 528 C 309 528 349 516 386 493 C 374 514 360 534 344 554 C 328 574 311 593 292 613 C 281 609 268 604 254 598 C 239 592 225 587 211 582 C 195 575 178 568 161 562 L 137 619 C 149 623 161 628 174 633 C 185 637 197 641 209 646 C 221 650 232 655 244 659 C 226 674 208 689 190 705 C 172 721 152 737 132 755 L 265 755 C 277 745 289 734 301 724 C 313 714 324 704 336 694 L 442 734 L 465 676 L 384 646 C 435 593 476 537 507 479 C 537 420 553 354 553 282 C 553 232 546 189 534 152 C 522 115 504 84 482 60 C 460 36 433 18 402 6 C 371 -6 337 -12 300 -12 Z M 300 74 C 342 74 375 91 401 125 C 426 159 439 209 439 274 C 439 314 434 353 424 390 C 404 409 383 423 363 433 C 342 443 319 448 294 448 C 256 448 225 431 201 398 C 176 365 164 320 164 264 C 164 237 167 212 173 189 C 179 165 189 145 201 128 C 213 111 227 98 244 88 C 260 78 279 74 300 74 Z" unicode="ð" />
<glyph horiz-adv-x="586" d="M 133 602 C 128 642 134 674 152 697 C 170 720 195 732 229 732 C 245 732 258 729 270 723 C 281 717 291 711 301 705 C 310 698 319 692 327 686 C 335 680 344 678 354 678 C 378 678 389 694 385 726 L 454 726 C 459 684 453 652 435 629 C 417 606 392 595 359 595 C 343 595 330 597 318 603 C 306 609 296 615 287 622 C 277 628 268 634 260 640 C 252 646 243 649 234 649 C 209 649 199 633 203 602 L 133 602 Z M 69 529 L 178 529 L 184 466 C 204 487 228 505 256 520 C 284 534 316 542 350 542 C 409 542 452 524 480 490 C 507 455 521 409 521 352 L 521 0 L 405 0 L 405 354 C 405 383 398 406 386 424 C 373 442 352 451 322 451 C 294 451 268 444 246 432 C 224 420 203 402 185 379 L 185 0 L 69 0 L 69 529 Z" unicode="ñ" />
<glyph horiz-adv-x="609" d="M 147 710 L 228 769 L 366 584 L 289 584 L 147 710 Z M 43 271 C 43 312 49 349 63 382 C 76 415 94 443 118 467 C 141 491 169 509 201 522 C 233 534 267 541 305 541 C 342 541 376 534 408 522 C 440 509 467 491 491 467 C 514 443 532 415 545 382 C 558 349 565 312 565 271 C 565 227 558 187 546 153 C 533 118 515 88 493 64 C 470 39 443 20 411 7 C 379 -5 343 -12 305 -12 C 265 -12 230 -5 198 7 C 166 20 138 39 115 64 C 92 88 74 118 62 153 C 49 187 43 227 43 271 Z M 161 270 C 161 212 173 165 198 131 C 223 96 259 79 305 79 C 349 79 383 96 408 131 C 433 165 446 212 446 270 C 446 296 442 321 436 343 C 429 365 419 383 407 399 C 394 415 379 427 362 436 C 345 444 326 449 305 449 C 283 449 264 444 246 436 C 228 427 213 415 201 399 C 188 383 178 365 171 343 C 164 321 161 296 161 270 Z" unicode="ò" />
<glyph horiz-adv-x="609" d="M 379 769 L 459 710 L 317 584 L 240 584 L 379 769 Z M 43 271 C 43 312 49 349 63 382 C 76 415 94 443 118 467 C 141 491 169 509 201 522 C 233 534 267 541 305 541 C 342 541 376 534 408 522 C 440 509 467 491 491 467 C 514 443 532 415 545 382 C 558 349 565 312 565 271 C 565 227 558 187 546 153 C 533 118 515 88 493 64 C 470 39 443 20 411 7 C 379 -5 343 -12 305 -12 C 265 -12 230 -5 198 7 C 166 20 138 39 115 64 C 92 88 74 118 62 153 C 49 187 43 227 43 271 Z M 161 270 C 161 212 173 165 198 131 C 223 96 259 79 305 79 C 349 79 383 96 408 131 C 433 165 446 212 446 270 C 446 296 442 321 436 343 C 429 365 419 383 407 399 C 394 415 379 427 362 436 C 345 444 326 449 305 449 C 283 449 264 444 246 436 C 228 427 213 415 201 399 C 188 383 178 365 171 343 C 164 321 161 296 161 270 Z" unicode="ó" />
<glyph horiz-adv-x="609" d="M 245 744 L 364 744 L 486 584 L 404 584 L 305 680 L 303 680 L 204 584 L 123 584 L 245 744 Z M 43 271 C 43 312 49 349 63 382 C 76 415 94 443 118 467 C 141 491 169 509 201 522 C 233 534 267 541 305 541 C 342 541 376 534 408 522 C 440 509 467 491 491 467 C 514 443 532 415 545 382 C 558 349 565 312 565 271 C 565 227 558 187 546 153 C 533 118 515 88 493 64 C 470 39 443 20 411 7 C 379 -5 343 -12 305 -12 C 265 -12 230 -5 198 7 C 166 20 138 39 115 64 C 92 88 74 118 62 153 C 49 187 43 227 43 271 Z M 161 270 C 161 212 173 165 198 131 C 223 96 259 79 305 79 C 349 79 383 96 408 131 C 433 165 446 212 446 270 C 446 296 442 321 436 343 C 429 365 419 383 407 399 C 394 415 379 427 362 436 C 345 444 326 449 305 449 C 283 449 264 444 246 436 C 228 427 213 415 201 399 C 188 383 178 365 171 343 C 164 321 161 296 161 270 Z" unicode="ô" />
<glyph horiz-adv-x="609" d="M 143 602 C 138 642 144 674 162 697 C 180 720 205 732 239 732 C 255 732 268 729 280 723 C 291 717 301 711 311 705 C 320 698 329 692 337 686 C 345 680 354 678 364 678 C 388 678 399 694 395 726 L 464 726 C 469 684 463 652 445 629 C 427 606 402 595 369 595 C 353 595 340 597 328 603 C 316 609 306 615 297 622 C 287 628 278 634 270 640 C 262 646 253 649 244 649 C 219 649 209 633 213 602 L 143 602 Z M 43 271 C 43 312 49 349 63 382 C 76 415 94 443 118 467 C 141 491 169 509 201 522 C 233 534 267 541 305 541 C 342 541 376 534 408 522 C 440 509 467 491 491 467 C 514 443 532 415 545 382 C 558 349 565 312 565 271 C 565 227 558 187 546 153 C 533 118 515 88 493 64 C 470 39 443 20 411 7 C 379 -5 343 -12 305 -12 C 265 -12 230 -5 198 7 C 166 20 138 39 115 64 C 92 88 74 118 62 153 C 49 187 43 227 43 271 Z M 161 270 C 161 212 173 165 198 131 C 223 96 259 79 305 79 C 349 79 383 96 408 131 C 433 165 446 212 446 270 C 446 296 442 321 436 343 C 429 365 419 383 407 399 C 394 415 379 427 362 436 C 345 444 326 449 305 449 C 283 449 264 444 246 436 C 228 427 213 415 201 399 C 188 383 178 365 171 343 C 164 321 161 296 161 270 Z" unicode="õ" />
<glyph horiz-adv-x="609" d="M 148 715 L 249 715 L 249 613 L 148 613 L 148 715 Z M 360 715 L 460 715 L 460 613 L 360 613 L 360 715 Z M 43 271 C 43 312 49 349 63 382 C 76 415 94 443 118 467 C 141 491 169 509 201 522 C 233 534 267 541 305 541 C 342 541 376 534 408 522 C 440 509 467 491 491 467 C 514 443 532 415 545 382 C 558 349 565 312 565 271 C 565 227 558 187 546 153 C 533 118 515 88 493 64 C 470 39 443 20 411 7 C 379 -5 343 -12 305 -12 C 265 -12 230 -5 198 7 C 166 20 138 39 115 64 C 92 88 74 118 62 153 C 49 187 43 227 43 271 Z M 161 270 C 161 212 173 165 198 131 C 223 96 259 79 305 79 C 349 79 383 96 408 131 C 433 165 446 212 446 270 C 446 296 442 321 436 343 C 429 365 419 383 407 399 C 394 415 379 427 362 436 C 345 444 326 449 305 449 C 283 449 264 444 246 436 C 228 427 213 415 201 399 C 188 383 178 365 171 343 C 164 321 161 296 161 270 Z" unicode="ö" />
<glyph horiz-adv-x="616" d="M 257 598 L 360 598 L 360 495 L 257 495 L 257 598 Z M 43 401 L 573 401 L 573 302 L 43 302 L 43 401 Z M 257 209 L 360 209 L 360 106 L 257 106 L 257 209 Z" unicode="÷" />
<glyph horiz-adv-x="609" d="M 161 270 C 161 226 168 190 182 160 L 385 421 C 362 439 335 449 305 449 C 283 449 264 444 246 436 C 228 427 213 415 201 399 C 188 383 178 365 171 343 C 164 321 161 296 161 270 Z M 446 270 C 446 289 444 307 440 324 C 436 340 431 356 425 370 L 219 109 C 242 89 271 79 305 79 C 349 79 383 96 408 131 C 433 165 446 212 446 270 Z M 43 271 C 43 312 49 349 63 382 C 76 415 94 443 118 467 C 141 491 169 509 201 522 C 233 534 267 541 305 541 C 331 541 356 537 380 531 C 404 524 426 515 446 503 L 501 575 L 559 529 L 500 457 C 520 433 536 406 548 375 C 559 343 565 309 565 271 C 565 227 558 187 546 153 C 533 118 515 88 493 64 C 470 39 443 20 411 7 C 379 -5 343 -12 305 -12 C 249 -12 201 0 161 26 L 100 -51 L 40 -7 L 106 74 C 64 123 43 189 43 271 Z" unicode="ø" />
<glyph horiz-adv-x="588" d="M 130 710 L 211 769 L 349 584 L 272 584 L 130 710 Z M 67 529 L 183 529 L 183 176 C 183 146 188 123 200 105 C 212 87 233 79 265 79 C 293 79 318 85 341 98 C 363 110 384 128 404 150 L 404 529 L 520 529 L 520 0 L 413 0 L 406 64 C 385 42 360 24 332 10 C 303 -4 272 -12 238 -12 C 178 -12 134 5 107 40 C 80 74 67 120 67 178 L 67 529 Z" unicode="ù" />
<glyph horiz-adv-x="588" d="M 372 769 L 452 710 L 310 584 L 233 584 L 372 769 Z M 67 529 L 183 529 L 183 176 C 183 146 188 123 200 105 C 212 87 233 79 265 79 C 293 79 318 85 341 98 C 363 110 384 128 404 150 L 404 529 L 520 529 L 520 0 L 413 0 L 406 64 C 385 42 360 24 332 10 C 303 -4 272 -12 238 -12 C 178 -12 134 5 107 40 C 80 74 67 120 67 178 L 67 529 Z" unicode="ú" />
<glyph horiz-adv-x="588" d="M 234 744 L 353 744 L 475 584 L 393 584 L 294 680 L 292 680 L 193 584 L 112 584 L 234 744 Z M 67 529 L 183 529 L 183 176 C 183 146 188 123 200 105 C 212 87 233 79 265 79 C 293 79 318 85 341 98 C 363 110 384 128 404 150 L 404 529 L 520 529 L 520 0 L 413 0 L 406 64 C 385 42 360 24 332 10 C 303 -4 272 -12 238 -12 C 178 -12 134 5 107 40 C 80 74 67 120 67 178 L 67 529 Z" unicode="û" />
<glyph horiz-adv-x="588" d="M 137 715 L 238 715 L 238 613 L 137 613 L 137 715 Z M 349 715 L 449 715 L 449 613 L 349 613 L 349 715 Z M 67 529 L 183 529 L 183 176 C 183 146 188 123 200 105 C 212 87 233 79 265 79 C 293 79 318 85 341 98 C 363 110 384 128 404 150 L 404 529 L 520 529 L 520 0 L 413 0 L 406 64 C 385 42 360 24 332 10 C 303 -4 272 -12 238 -12 C 178 -12 134 5 107 40 C 80 74 67 120 67 178 L 67 529 Z" unicode="ü" />
<glyph horiz-adv-x="533" d="M 344 769 L 424 710 L 282 584 L 205 584 L 344 769 Z M 45 -97 C 57 -101 69 -105 81 -109 C 93 -113 104 -115 116 -115 C 134 -115 148 -111 160 -103 C 172 -95 181 -80 189 -59 L 213 3 L 19 529 L 138 529 L 269 149 L 271 149 L 398 529 L 514 529 L 304 -64 C 293 -92 281 -116 269 -135 C 256 -154 242 -169 227 -180 C 211 -191 195 -199 177 -203 C 159 -207 141 -210 121 -210 C 101 -210 81 -208 62 -204 C 43 -200 26 -195 11 -190 L 45 -97 Z" unicode="ý" />
<glyph horiz-adv-x="603" d="M 189 144 C 209 121 229 104 249 94 C 269 84 293 79 320 79 C 360 79 390 96 411 130 C 432 164 443 211 443 272 C 443 330 432 375 411 405 C 390 435 360 450 320 450 C 294 450 271 444 250 432 C 228 420 208 404 189 382 L 189 144 Z M 189 -200 L 73 -200 L 73 755 L 189 755 L 189 464 C 210 487 234 506 261 520 C 287 534 317 542 349 542 C 380 542 409 536 435 524 C 461 512 483 495 501 473 C 519 450 534 422 544 388 C 554 354 560 316 560 273 C 560 226 555 185 545 149 C 535 113 520 84 502 60 C 483 36 461 17 435 5 C 409 -6 380 -13 349 -13 C 314 -13 283 -6 257 8 C 231 22 208 39 189 61 L 189 -200 Z" unicode="þ" />
<glyph horiz-adv-x="533" d="M 112 715 L 213 715 L 213 613 L 112 613 L 112 715 Z M 324 715 L 424 715 L 424 613 L 324 613 L 324 715 Z M 45 -97 C 57 -101 69 -105 81 -109 C 93 -113 104 -115 116 -115 C 134 -115 148 -111 160 -103 C 172 -95 181 -80 189 -59 L 213 3 L 19 529 L 138 529 L 269 149 L 271 149 L 398 529 L 514 529 L 304 -64 C 293 -92 281 -116 269 -135 C 256 -154 242 -169 227 -180 C 211 -191 195 -199 177 -203 C 159 -207 141 -210 121 -210 C 101 -210 81 -208 62 -204 C 43 -200 26 -195 11 -190 L 45 -97 Z" unicode="ÿ" />
<glyph horiz-adv-x="708" d="M 197 855 L 510 855 L 510 778 L 197 778 L 197 855 Z M 239 248 L 467 248 L 354 574 L 352 574 L 239 248 Z M 283 700 L 424 700 L 683 0 L 554 0 L 501 151 L 206 151 L 154 0 L 24 0 L 283 700 Z" unicode="Ā" />
<glyph horiz-adv-x="549" d="M 124 702 L 435 702 L 435 625 L 124 625 L 124 702 Z M 161 138 C 161 118 167 103 181 92 C 194 81 211 76 233 76 C 259 76 283 80 303 90 C 323 100 340 112 354 128 L 354 241 C 331 240 308 238 285 235 C 262 231 241 226 223 218 C 204 210 189 200 178 187 C 166 174 161 158 161 138 Z M 45 128 C 45 160 53 187 69 209 C 85 231 106 250 134 265 C 162 279 194 290 232 298 C 270 306 310 311 354 313 L 354 372 C 354 394 347 411 333 425 C 319 439 298 446 268 446 C 242 446 215 441 187 431 C 159 421 130 408 101 394 L 58 485 C 90 500 124 513 162 524 C 200 535 236 541 272 541 C 307 541 337 536 362 528 C 387 520 408 508 424 493 C 440 477 451 459 459 438 C 466 417 470 394 470 369 L 470 130 C 470 112 474 100 483 93 C 491 85 503 82 519 82 L 519 -2 C 475 -2 442 2 420 12 C 398 21 381 37 368 60 C 346 38 322 20 296 7 C 270 -5 239 -12 204 -12 C 156 -12 118 0 89 26 C 59 52 45 86 45 128 Z" unicode="ā" />
<glyph horiz-adv-x="708" d="M 354 750 C 306 750 267 761 238 784 C 208 807 189 839 180 879 L 260 879 C 267 862 278 849 294 839 C 310 829 330 825 354 825 C 377 825 397 829 413 839 C 429 849 440 862 448 879 L 527 879 C 517 839 498 807 468 784 C 438 761 400 750 354 750 Z M 239 248 L 467 248 L 354 574 L 352 574 L 239 248 Z M 283 700 L 424 700 L 683 0 L 554 0 L 501 151 L 206 151 L 154 0 L 24 0 L 283 700 Z" unicode="Ă" />
<glyph horiz-adv-x="549" d="M 280 576 C 229 576 189 591 160 621 C 130 651 113 692 109 744 L 186 744 C 189 714 199 692 215 676 C 231 660 252 653 280 653 C 306 653 328 660 344 676 C 360 692 370 714 374 744 L 450 744 C 446 691 429 650 399 620 C 369 590 329 576 280 576 Z M 161 138 C 161 118 167 103 181 92 C 194 81 211 76 233 76 C 259 76 283 80 303 90 C 323 100 340 112 354 128 L 354 241 C 331 240 308 238 285 235 C 262 231 241 226 223 218 C 204 210 189 200 178 187 C 166 174 161 158 161 138 Z M 45 128 C 45 160 53 187 69 209 C 85 231 106 250 134 265 C 162 279 194 290 232 298 C 270 306 310 311 354 313 L 354 372 C 354 394 347 411 333 425 C 319 439 298 446 268 446 C 242 446 215 441 187 431 C 159 421 130 408 101 394 L 58 485 C 90 500 124 513 162 524 C 200 535 236 541 272 541 C 307 541 337 536 362 528 C 387 520 408 508 424 493 C 440 477 451 459 459 438 C 466 417 470 394 470 369 L 470 130 C 470 112 474 100 483 93 C 491 85 503 82 519 82 L 519 -2 C 475 -2 442 2 420 12 C 398 21 381 37 368 60 C 346 38 322 20 296 7 C 270 -5 239 -12 204 -12 C 156 -12 118 0 89 26 C 59 52 45 86 45 128 Z" unicode="ă" />
<glyph horiz-adv-x="708" d="M 239 248 L 467 248 L 354 574 L 352 574 L 239 248 Z M 679 -194 C 656 -202 631 -207 605 -207 C 571 -207 543 -197 522 -179 C 501 -161 491 -136 491 -106 C 491 -84 496 -65 508 -47 C 519 -29 534 -13 554 0 L 501 151 L 206 151 L 154 0 L 24 0 L 283 700 L 424 700 L 683 0 L 660 0 C 632 -10 611 -22 598 -35 C 584 -47 578 -63 578 -81 C 578 -93 582 -103 590 -110 C 598 -116 610 -120 624 -120 C 644 -120 662 -115 676 -107 L 679 -109 L 679 -194 Z" unicode="Ą" />
<glyph horiz-adv-x="549" d="M 538 -194 C 515 -202 490 -207 464 -207 C 430 -207 402 -197 382 -179 C 361 -161 351 -136 351 -106 C 351 -82 358 -61 372 -41 C 386 -21 405 -4 430 10 C 402 18 381 35 368 60 C 346 38 322 20 296 7 C 270 -5 239 -12 204 -12 C 156 -12 118 0 89 26 C 59 52 45 86 45 128 C 45 160 53 187 69 210 C 85 232 106 251 134 265 C 162 279 194 290 232 298 C 270 306 310 311 354 313 L 354 372 C 354 394 347 411 333 425 C 319 439 298 446 268 446 C 242 446 215 441 187 431 C 159 421 130 408 101 394 L 58 485 C 90 500 124 513 162 524 C 200 535 236 541 272 541 C 307 541 337 536 362 528 C 387 520 408 508 424 493 C 440 477 451 459 459 438 C 466 417 470 394 470 369 L 470 130 C 470 112 474 100 483 93 C 491 85 503 82 519 82 L 519 0 C 491 -10 470 -22 456 -35 C 442 -48 436 -64 436 -82 C 436 -94 440 -104 449 -111 C 457 -117 468 -121 482 -121 C 502 -121 519 -116 535 -108 L 538 -110 L 538 -194 Z M 161 138 C 161 118 167 103 181 92 C 194 81 211 76 233 76 C 259 76 283 80 303 90 C 323 100 340 112 354 128 L 354 241 C 331 240 308 238 285 235 C 262 231 241 226 223 218 C 204 210 189 200 178 187 C 166 174 161 158 161 138 Z" unicode="ą" />
<glyph horiz-adv-x="707" d="M 440 900 L 530 839 L 411 755 L 326 755 L 440 900 Z M 48 356 C 48 408 56 455 74 499 C 92 543 116 580 148 612 C 180 644 218 668 262 686 C 306 703 354 712 407 712 C 498 712 579 684 651 629 L 586 543 C 558 564 530 580 502 591 C 474 602 443 608 409 608 C 373 608 340 602 311 590 C 281 578 256 561 235 539 C 214 517 198 490 187 459 C 175 428 170 394 170 356 C 170 316 175 279 187 247 C 198 215 214 187 235 164 C 255 141 280 123 310 111 C 339 98 372 92 409 92 C 479 92 541 117 593 168 L 667 90 C 596 22 508 -12 404 -12 C 351 -12 303 -3 259 15 C 215 33 177 58 146 90 C 115 122 91 161 74 207 C 56 252 48 302 48 356 Z" unicode="Ć" />
<glyph horiz-adv-x="525" d="M 362 769 L 442 710 L 300 584 L 223 584 L 362 769 Z M 42 269 C 42 311 48 348 61 382 C 74 416 92 444 116 468 C 139 491 166 509 198 522 C 230 534 265 541 303 541 C 371 541 432 520 486 478 L 425 400 C 409 412 392 422 373 431 C 353 439 331 444 306 444 C 264 444 229 428 201 397 C 173 366 160 323 160 269 C 160 210 173 164 200 132 C 227 100 262 84 306 84 C 332 84 355 88 375 97 C 394 105 412 117 430 133 L 496 63 C 467 37 437 18 407 6 C 377 -5 342 -12 303 -12 C 265 -12 230 -5 198 7 C 166 19 138 38 115 62 C 92 86 74 116 61 151 C 48 185 42 225 42 269 Z" unicode="ć" />
<glyph horiz-adv-x="707" d="M 326 879 L 436 879 L 559 755 L 480 755 L 382 817 L 381 817 L 282 755 L 204 755 L 326 879 Z M 48 356 C 48 408 56 455 74 499 C 92 543 116 580 148 612 C 180 644 218 668 262 686 C 306 703 354 712 407 712 C 498 712 579 684 651 629 L 586 543 C 558 564 530 580 502 591 C 474 602 443 608 409 608 C 373 608 340 602 311 590 C 281 578 256 561 235 539 C 214 517 198 490 187 459 C 175 428 170 394 170 356 C 170 316 175 279 187 247 C 198 215 214 187 235 164 C 255 141 280 123 310 111 C 339 98 372 92 409 92 C 479 92 541 117 593 168 L 667 90 C 596 22 508 -12 404 -12 C 351 -12 303 -3 259 15 C 215 33 177 58 146 90 C 115 122 91 161 74 207 C 56 252 48 302 48 356 Z" unicode="Ĉ" />
<glyph horiz-adv-x="525" d="M 228 744 L 347 744 L 469 584 L 387 584 L 288 680 L 286 680 L 187 584 L 106 584 L 228 744 Z M 42 269 C 42 311 48 348 61 382 C 74 416 92 444 116 468 C 139 491 166 509 198 522 C 230 534 265 541 303 541 C 371 541 432 520 486 478 L 425 400 C 409 412 392 422 373 431 C 353 439 331 444 306 444 C 264 444 229 428 201 397 C 173 366 160 323 160 269 C 160 210 173 164 200 132 C 227 100 262 84 306 84 C 332 84 355 88 375 97 C 394 105 412 117 430 133 L 496 63 C 467 37 437 18 407 6 C 377 -5 342 -12 303 -12 C 265 -12 230 -5 198 7 C 166 19 138 38 115 62 C 92 86 74 116 61 151 C 48 185 42 225 42 269 Z" unicode="ĉ" />
<glyph horiz-adv-x="707" d="M 333 880 L 450 880 L 450 769 L 333 769 L 333 880 Z M 48 356 C 48 408 56 455 74 499 C 92 543 116 580 148 612 C 180 644 218 668 262 686 C 306 703 354 712 407 712 C 498 712 579 684 651 629 L 586 543 C 558 564 530 580 502 591 C 474 602 443 608 409 608 C 373 608 340 602 311 590 C 281 578 256 561 235 539 C 214 517 198 490 187 459 C 175 428 170 394 170 356 C 170 316 175 279 187 247 C 198 215 214 187 235 164 C 255 141 280 123 310 111 C 339 98 372 92 409 92 C 479 92 541 117 593 168 L 667 90 C 596 22 508 -12 404 -12 C 351 -12 303 -3 259 15 C 215 33 177 58 146 90 C 115 122 91 161 74 207 C 56 252 48 302 48 356 Z" unicode="Ċ" />
<glyph horiz-adv-x="525" d="M 220 746 L 337 746 L 337 635 L 220 635 L 220 746 Z M 42 269 C 42 311 48 348 61 382 C 74 416 92 444 116 468 C 139 491 166 509 198 522 C 230 534 265 541 303 541 C 371 541 432 520 486 478 L 425 400 C 409 412 392 422 373 431 C 353 439 331 444 306 444 C 264 444 229 428 201 397 C 173 366 160 323 160 269 C 160 210 173 164 200 132 C 227 100 262 84 306 84 C 332 84 355 88 375 97 C 394 105 412 117 430 133 L 496 63 C 467 37 437 18 407 6 C 377 -5 342 -12 303 -12 C 265 -12 230 -5 198 7 C 166 19 138 38 115 62 C 92 86 74 116 61 151 C 48 185 42 225 42 269 Z" unicode="ċ" />
<glyph horiz-adv-x="707" d="M 204 879 L 282 879 L 380 817 L 381 817 L 480 879 L 559 879 L 436 755 L 325 755 L 204 879 Z M 48 356 C 48 408 56 455 74 499 C 92 543 116 580 148 612 C 180 644 218 668 262 686 C 306 703 354 712 407 712 C 498 712 579 684 651 629 L 586 543 C 558 564 530 580 502 591 C 474 602 443 608 409 608 C 373 608 340 602 311 590 C 281 578 256 561 235 539 C 214 517 198 490 187 459 C 175 428 170 394 170 356 C 170 316 175 279 187 247 C 198 215 214 187 235 164 C 255 141 280 123 310 111 C 339 98 372 92 409 92 C 479 92 541 117 593 168 L 667 90 C 596 22 508 -12 404 -12 C 351 -12 303 -3 259 15 C 215 33 177 58 146 90 C 115 122 91 161 74 207 C 56 252 48 302 48 356 Z" unicode="Č" />
<glyph horiz-adv-x="525" d="M 106 744 L 187 744 L 286 648 L 288 648 L 387 744 L 469 744 L 347 584 L 228 584 L 106 744 Z M 42 269 C 42 311 48 348 61 382 C 74 416 92 444 116 468 C 139 491 166 509 198 522 C 230 534 265 541 303 541 C 371 541 432 520 486 478 L 425 400 C 409 412 392 422 373 431 C 353 439 331 444 306 444 C 264 444 229 428 201 397 C 173 366 160 323 160 269 C 160 210 173 164 200 132 C 227 100 262 84 306 84 C 332 84 355 88 375 97 C 394 105 412 117 430 133 L 496 63 C 467 37 437 18 407 6 C 377 -5 342 -12 303 -12 C 265 -12 230 -5 198 7 C 166 19 138 38 115 62 C 92 86 74 116 61 151 C 48 185 42 225 42 269 Z" unicode="č" />
<glyph horiz-adv-x="720" d="M 199 879 L 277 879 L 375 817 L 376 817 L 475 879 L 554 879 L 431 755 L 320 755 L 199 879 Z M 77 700 L 293 700 C 354 700 408 692 456 676 C 503 660 543 637 575 607 C 607 577 632 540 649 497 C 665 454 674 405 674 351 C 674 241 642 155 579 93 C 515 31 420 0 293 0 L 77 0 L 77 700 Z M 300 101 C 384 101 447 123 489 167 C 531 211 552 273 552 351 C 552 427 530 487 487 532 C 443 576 381 599 300 599 L 196 599 L 196 101 L 300 101 Z" unicode="Ď" />
<glyph horiz-adv-x="601" d="M 597 733 C 605 735 613 736 622 738 C 630 739 639 740 648 740 C 678 740 700 732 716 718 C 731 704 739 686 740 665 C 740 649 736 632 727 615 C 717 598 705 583 691 570 L 610 570 C 625 586 636 599 642 610 C 648 621 652 632 652 644 C 652 663 641 673 621 673 C 617 673 613 672 609 672 C 605 671 601 670 597 670 L 597 733 Z M 283 80 C 309 80 332 85 353 95 C 374 105 395 121 415 144 L 415 382 C 375 426 331 449 283 449 C 242 449 211 434 191 404 C 170 374 160 330 160 272 C 160 211 170 164 191 130 C 211 96 242 80 283 80 Z M 254 -12 C 190 -12 139 12 101 61 C 62 109 43 180 43 273 C 43 316 48 354 58 388 C 68 421 83 449 101 472 C 119 494 142 511 168 523 C 194 535 222 541 254 541 C 286 541 315 534 342 521 C 369 507 393 489 415 467 L 415 755 L 531 755 L 531 0 L 428 0 L 420 64 C 398 42 374 23 348 9 C 321 -4 290 -12 254 -12 Z" unicode="ď" />
<glyph horiz-adv-x="757" d="M 114 313 L 14 313 L 14 391 L 114 391 L 114 700 L 330 700 C 391 700 445 692 493 676 C 540 660 580 637 612 607 C 644 577 669 540 686 497 C 702 454 711 405 711 351 C 711 241 679 155 616 93 C 552 31 457 0 330 0 L 114 0 L 114 313 Z M 337 101 C 421 101 484 123 526 167 C 568 211 589 273 589 351 C 589 427 567 487 524 532 C 480 576 418 599 337 599 L 233 599 L 233 391 L 412 391 L 412 314 L 233 314 L 233 101 L 337 101 Z" unicode="Đ" />
<glyph horiz-adv-x="601" d="M 283 80 C 309 80 332 85 353 95 C 374 105 395 121 415 144 L 415 382 C 375 426 331 449 283 449 C 242 449 211 434 191 404 C 170 374 160 330 160 272 C 160 211 170 164 191 130 C 211 96 242 80 283 80 Z M 254 -12 C 190 -12 139 12 101 61 C 62 109 43 180 43 273 C 43 316 48 354 58 388 C 68 421 83 449 101 472 C 119 494 142 511 168 523 C 194 535 222 541 254 541 C 286 541 315 534 342 521 C 369 507 393 489 415 467 L 415 605 L 286 605 L 286 679 L 415 679 L 415 755 L 531 755 L 531 679 L 608 679 L 608 604 L 531 604 L 531 0 L 428 0 L 420 64 C 398 42 374 23 348 9 C 321 -4 290 -12 254 -12 Z" unicode="đ" />
<glyph horiz-adv-x="636" d="M 171 855 L 484 855 L 484 778 L 171 778 L 171 855 Z M 77 700 L 573 700 L 573 594 L 196 594 L 196 405 L 534 405 L 534 307 L 196 307 L 196 106 L 578 106 L 578 0 L 77 0 L 77 700 Z" unicode="Ē" />
<glyph horiz-adv-x="574" d="M 147 702 L 458 702 L 458 625 L 147 625 L 147 702 Z M 43 269 C 43 311 49 348 63 382 C 76 416 94 444 117 468 C 140 492 167 510 199 523 C 231 535 265 542 302 542 C 340 542 373 535 401 523 C 429 511 453 494 472 473 C 490 451 504 426 514 396 C 523 366 528 334 528 300 C 528 292 527 282 527 272 C 526 262 525 253 524 247 L 160 247 C 163 193 177 152 203 124 C 228 96 264 82 312 82 C 339 82 365 86 390 95 C 415 104 439 116 461 130 L 512 53 C 481 31 448 15 414 4 C 379 -7 343 -13 305 -13 C 265 -13 229 -6 197 6 C 165 18 137 37 114 61 C 91 85 73 115 61 150 C 49 185 43 225 43 269 Z M 305 455 C 269 455 238 443 213 420 C 188 396 172 364 165 322 L 416 322 C 416 340 414 358 410 374 C 406 390 399 404 391 416 C 382 428 371 437 357 444 C 343 451 325 455 305 455 Z" unicode="ē" />
<glyph horiz-adv-x="636" d="M 328 750 C 280 750 241 761 212 784 C 182 807 163 839 154 879 L 234 879 C 241 862 252 849 268 839 C 284 829 304 825 328 825 C 351 825 371 829 387 839 C 403 849 414 862 422 879 L 501 879 C 491 839 472 807 442 784 C 412 761 374 750 328 750 Z M 77 700 L 573 700 L 573 594 L 196 594 L 196 405 L 534 405 L 534 307 L 196 307 L 196 106 L 578 106 L 578 0 L 77 0 L 77 700 Z" unicode="Ĕ" />
<glyph horiz-adv-x="574" d="M 303 576 C 252 576 212 591 183 621 C 153 651 136 692 132 744 L 209 744 C 212 714 222 692 238 676 C 254 660 275 653 303 653 C 329 653 351 660 367 676 C 383 692 393 714 397 744 L 473 744 C 469 691 452 650 422 620 C 392 590 352 576 303 576 Z M 43 269 C 43 311 49 348 63 382 C 76 416 94 444 117 468 C 140 492 167 510 199 523 C 231 535 265 542 302 542 C 340 542 373 535 401 523 C 429 511 453 494 472 473 C 490 451 504 426 514 396 C 523 366 528 334 528 300 C 528 292 527 282 527 272 C 526 262 525 253 524 247 L 160 247 C 163 193 177 152 203 124 C 228 96 264 82 312 82 C 339 82 365 86 390 95 C 415 104 439 116 461 130 L 512 53 C 481 31 448 15 414 4 C 379 -7 343 -13 305 -13 C 265 -13 229 -6 197 6 C 165 18 137 37 114 61 C 91 85 73 115 61 150 C 49 185 43 225 43 269 Z M 305 455 C 269 455 238 443 213 420 C 188 396 172 364 165 322 L 416 322 C 416 340 414 358 410 374 C 406 390 399 404 391 416 C 382 428 371 437 357 444 C 343 451 325 455 305 455 Z" unicode="ĕ" />
<glyph horiz-adv-x="636" d="M 278 880 L 395 880 L 395 769 L 278 769 L 278 880 Z M 77 700 L 573 700 L 573 594 L 196 594 L 196 405 L 534 405 L 534 307 L 196 307 L 196 106 L 578 106 L 578 0 L 77 0 L 77 700 Z" unicode="Ė" />
<glyph horiz-adv-x="574" d="M 241 746 L 358 746 L 358 635 L 241 635 L 241 746 Z M 305 455 C 269 455 238 443 214 420 C 189 396 173 364 165 322 L 416 322 C 416 340 414 358 410 374 C 406 390 399 404 391 416 C 382 428 371 437 357 444 C 343 451 325 455 305 455 Z M 512 53 C 481 31 448 15 414 4 C 379 -7 343 -13 305 -13 C 265 -13 229 -6 197 6 C 165 18 137 37 114 61 C 91 85 73 115 61 150 C 49 185 43 225 43 269 C 43 311 49 348 63 382 C 76 416 94 444 117 468 C 140 492 167 510 199 523 C 231 535 265 542 302 542 C 340 542 373 535 401 523 C 429 511 453 494 472 473 C 490 451 504 426 514 396 C 523 366 528 334 528 300 C 528 292 527 282 527 272 C 526 262 525 253 524 247 L 161 247 C 163 193 177 152 203 124 C 228 96 264 82 312 82 C 339 82 365 86 390 95 C 415 104 439 116 461 130 L 512 53 Z" unicode="ė" />
<glyph horiz-adv-x="636" d="M 77 700 L 573 700 L 573 594 L 196 594 L 196 405 L 534 405 L 534 307 L 196 307 L 196 106 L 578 106 L 578 0 C 550 -10 529 -22 516 -35 C 502 -47 496 -63 496 -81 C 496 -93 500 -103 508 -110 C 516 -116 528 -120 542 -120 C 562 -120 580 -115 594 -107 L 597 -109 L 597 -194 C 574 -202 549 -207 523 -207 C 489 -207 461 -197 440 -179 C 419 -161 409 -136 409 -106 C 409 -84 414 -65 425 -47 C 436 -29 451 -13 471 0 L 77 0 L 77 700 Z" unicode="Ę" />
<glyph horiz-adv-x="574" d="M 43 269 C 43 311 49 348 63 382 C 76 416 94 444 117 468 C 140 492 167 510 199 523 C 231 535 265 542 302 542 C 340 542 373 535 401 523 C 429 511 453 494 472 473 C 490 451 504 426 514 396 C 523 366 528 334 528 300 C 528 292 527 282 527 272 C 526 262 525 253 524 247 L 162 247 L 162 246 C 164 193 177 152 203 124 C 228 96 264 82 312 82 C 339 82 365 86 390 95 C 415 104 439 116 461 130 L 512 53 L 459 22 C 427 5 402 -11 384 -27 C 366 -43 358 -61 358 -81 C 358 -107 374 -121 408 -121 C 428 -121 445 -116 459 -108 L 463 -110 L 463 -194 C 451 -198 440 -201 428 -203 C 416 -205 403 -207 390 -207 C 353 -207 324 -197 303 -179 C 282 -160 272 -135 272 -105 C 272 -87 275 -71 283 -56 C 290 -40 300 -26 314 -13 L 305 -13 C 265 -13 229 -6 197 6 C 165 18 137 37 114 61 C 91 85 73 115 61 150 C 49 185 43 225 43 269 Z M 305 455 C 269 455 238 443 214 420 C 189 396 173 364 165 322 L 416 322 C 416 340 414 358 410 374 C 406 390 399 404 391 416 C 382 428 371 437 357 444 C 343 451 325 455 305 455 Z" unicode="ę" />
<glyph horiz-adv-x="636" d="M 151 879 L 229 879 L 327 817 L 328 817 L 427 879 L 506 879 L 383 755 L 272 755 L 151 879 Z M 77 700 L 573 700 L 573 594 L 196 594 L 196 405 L 534 405 L 534 307 L 196 307 L 196 106 L 578 106 L 578 0 L 77 0 L 77 700 Z" unicode="Ě" />
<glyph horiz-adv-x="574" d="M 121 744 L 202 744 L 301 648 L 303 648 L 402 744 L 484 744 L 362 584 L 243 584 L 121 744 Z M 43 269 C 43 311 49 348 63 382 C 76 416 94 444 117 468 C 140 492 167 510 199 523 C 231 535 265 542 302 542 C 340 542 373 535 401 523 C 429 511 453 494 472 473 C 490 451 504 426 514 396 C 523 366 528 334 528 300 C 528 292 527 282 527 272 C 526 262 525 253 524 247 L 160 247 C 163 193 177 152 203 124 C 228 96 264 82 312 82 C 339 82 365 86 390 95 C 415 104 439 116 461 130 L 512 53 C 481 31 448 15 414 4 C 379 -7 343 -13 305 -13 C 265 -13 229 -6 197 6 C 165 18 137 37 114 61 C 91 85 73 115 61 150 C 49 185 43 225 43 269 Z M 305 455 C 269 455 238 443 213 420 C 188 396 172 364 165 322 L 416 322 C 416 340 414 358 410 374 C 406 390 399 404 391 416 C 382 428 371 437 357 444 C 343 451 325 455 305 455 Z" unicode="ě" />
<glyph horiz-adv-x="731" d="M 325 879 L 435 879 L 558 755 L 479 755 L 381 817 L 380 817 L 281 755 L 203 755 L 325 879 Z M 48 356 C 48 407 56 454 73 498 C 90 542 114 579 146 611 C 177 643 215 667 259 685 C 303 703 353 712 407 712 C 455 712 499 705 540 691 C 580 677 619 657 655 633 L 593 548 C 565 567 536 582 506 592 C 476 602 444 608 410 608 C 374 608 341 601 312 589 C 282 577 257 559 236 537 C 215 515 199 488 188 458 C 176 427 171 393 171 356 C 171 316 176 279 187 247 C 198 214 214 186 234 163 C 254 140 279 122 309 110 C 339 98 372 92 410 92 C 436 92 461 95 486 101 C 510 107 532 115 550 126 L 550 292 L 374 292 L 374 381 L 661 381 L 661 64 C 627 40 588 21 545 8 C 501 -5 455 -12 407 -12 C 352 -12 302 -3 258 14 C 214 32 176 57 145 89 C 114 121 90 160 73 206 C 56 251 48 301 48 356 Z" unicode="Ĝ" />
<glyph horiz-adv-x="586" d="M 237 744 L 356 744 L 478 584 L 396 584 L 297 680 L 295 680 L 196 584 L 115 584 L 237 744 Z M 272 235 C 304 235 330 245 351 265 C 371 285 382 313 382 347 C 382 381 371 408 351 428 C 330 448 304 459 272 459 C 239 459 212 448 192 428 C 171 408 161 381 161 347 C 161 313 171 285 192 265 C 212 245 239 235 272 235 Z M 24 -69 C 24 -45 31 -23 46 -5 C 60 13 80 29 104 42 C 81 60 70 83 70 111 C 70 130 75 147 86 161 C 96 175 109 187 125 196 C 101 212 83 233 69 258 C 55 283 48 313 48 347 C 48 376 53 402 65 426 C 77 450 93 470 113 487 C 133 504 156 517 184 527 C 211 536 240 541 272 541 C 300 541 327 537 352 529 C 377 521 399 509 419 495 C 437 509 456 521 478 529 C 500 537 528 542 563 542 L 563 456 C 543 456 526 455 510 454 C 494 453 479 450 465 446 C 473 432 480 416 485 400 C 490 383 493 365 493 347 C 493 315 486 287 474 263 C 461 239 444 218 424 202 C 404 186 380 173 354 165 C 327 156 300 152 272 152 C 242 152 214 156 186 166 C 169 158 161 146 161 131 C 161 123 163 117 168 112 C 173 106 182 102 194 99 C 206 95 223 92 243 90 C 263 88 289 86 319 85 C 391 81 448 68 488 47 C 528 25 549 -9 549 -59 C 549 -105 527 -142 484 -169 C 441 -196 375 -210 286 -210 C 202 -210 137 -198 92 -174 C 46 -150 24 -115 24 -69 Z M 298 -9 C 276 -7 255 -6 237 -4 C 218 -2 201 1 186 5 C 170 -2 158 -11 149 -23 C 139 -35 135 -48 135 -64 C 135 -86 146 -103 169 -114 C 192 -124 229 -130 281 -130 C 386 -130 439 -110 439 -70 C 439 -48 428 -33 407 -25 C 386 -17 350 -11 298 -9 Z" unicode="ĝ" />
<glyph horiz-adv-x="731" d="M 380 750 C 332 750 293 761 264 784 C 234 807 215 839 206 879 L 286 879 C 293 862 304 849 320 839 C 336 829 356 825 380 825 C 403 825 423 829 439 839 C 455 849 466 862 474 879 L 553 879 C 543 839 524 807 494 784 C 464 761 426 750 380 750 Z M 48 356 C 48 407 56 454 73 498 C 90 542 114 579 146 611 C 177 643 215 667 259 685 C 303 703 353 712 407 712 C 455 712 499 705 540 691 C 580 677 619 657 655 633 L 593 548 C 565 567 536 582 506 592 C 476 602 444 608 410 608 C 374 608 341 601 312 589 C 282 577 257 559 236 537 C 215 515 199 488 188 458 C 176 427 171 393 171 356 C 171 316 176 279 187 247 C 198 214 214 186 234 163 C 254 140 279 122 309 110 C 339 98 372 92 410 92 C 436 92 461 95 486 101 C 510 107 532 115 550 126 L 550 292 L 374 292 L 374 381 L 661 381 L 661 64 C 627 40 588 21 545 8 C 501 -5 455 -12 407 -12 C 352 -12 302 -3 258 14 C 214 32 176 57 145 89 C 114 121 90 160 73 206 C 56 251 48 301 48 356 Z" unicode="Ğ" />
<glyph horiz-adv-x="586" d="M 297 576 C 246 576 206 591 177 621 C 147 651 130 692 126 744 L 203 744 C 206 714 216 692 232 676 C 248 660 269 653 297 653 C 323 653 345 660 361 676 C 377 692 387 714 391 744 L 467 744 C 463 691 446 650 416 620 C 386 590 346 576 297 576 Z M 272 235 C 304 235 330 245 351 265 C 371 285 382 313 382 347 C 382 381 371 408 351 428 C 330 448 304 459 272 459 C 239 459 212 448 192 428 C 171 408 161 381 161 347 C 161 313 171 285 192 265 C 212 245 239 235 272 235 Z M 24 -69 C 24 -45 31 -23 46 -5 C 60 13 80 29 104 42 C 81 60 70 83 70 111 C 70 130 75 147 86 161 C 96 175 109 187 125 196 C 101 212 83 233 69 258 C 55 283 48 313 48 347 C 48 376 53 402 65 426 C 77 450 93 470 113 487 C 133 504 156 517 184 527 C 211 536 240 541 272 541 C 300 541 327 537 352 529 C 377 521 399 509 419 495 C 437 509 456 521 478 529 C 500 537 528 542 563 542 L 563 456 C 543 456 526 455 510 454 C 494 453 479 450 465 446 C 473 432 480 416 485 400 C 490 383 493 365 493 347 C 493 315 486 287 474 263 C 461 239 444 218 424 202 C 404 186 380 173 354 165 C 327 156 300 152 272 152 C 242 152 214 156 186 166 C 169 158 161 146 161 131 C 161 123 163 117 168 112 C 173 106 182 102 194 99 C 206 95 223 92 243 90 C 263 88 289 86 319 85 C 391 81 448 68 488 47 C 528 25 549 -9 549 -59 C 549 -105 527 -142 484 -169 C 441 -196 375 -210 286 -210 C 202 -210 137 -198 92 -174 C 46 -150 24 -115 24 -69 Z M 298 -9 C 276 -7 255 -6 237 -4 C 218 -2 201 1 186 5 C 170 -2 158 -11 149 -23 C 139 -35 135 -48 135 -64 C 135 -86 146 -103 169 -114 C 192 -124 229 -130 281 -130 C 386 -130 439 -110 439 -70 C 439 -48 428 -33 407 -25 C 386 -17 350 -11 298 -9 Z" unicode="ğ" />
<glyph horiz-adv-x="731" d="M 322 880 L 439 880 L 439 769 L 322 769 L 322 880 Z M 48 356 C 48 407 56 454 73 498 C 90 542 114 579 146 611 C 177 643 215 667 259 685 C 303 703 353 712 407 712 C 455 712 499 705 540 691 C 580 677 619 657 655 633 L 593 548 C 565 567 536 582 506 592 C 476 602 444 608 410 608 C 374 608 341 601 312 589 C 282 577 257 559 236 537 C 215 515 199 488 188 458 C 176 427 171 393 171 356 C 171 316 176 279 187 247 C 198 214 214 186 234 163 C 254 140 279 122 309 110 C 339 98 372 92 410 92 C 436 92 461 95 486 101 C 510 107 532 115 550 126 L 550 292 L 374 292 L 374 381 L 661 381 L 661 64 C 627 40 588 21 545 8 C 501 -5 455 -12 407 -12 C 352 -12 302 -3 258 14 C 214 32 176 57 145 89 C 114 121 90 160 73 206 C 56 251 48 301 48 356 Z" unicode="Ġ" />
<glyph horiz-adv-x="586" d="M 224 746 L 341 746 L 341 635 L 224 635 L 224 746 Z M 272 235 C 304 235 330 245 351 265 C 371 285 382 313 382 347 C 382 381 371 408 351 428 C 330 448 304 459 272 459 C 239 459 212 448 192 428 C 171 408 161 381 161 347 C 161 313 171 285 192 265 C 212 245 239 235 272 235 Z M 549 -59 C 549 -105 527 -142 484 -169 C 441 -196 375 -210 286 -210 C 202 -210 137 -198 92 -174 C 46 -150 24 -115 24 -69 C 24 -45 31 -23 46 -4 C 60 14 80 30 105 42 C 81 61 70 84 70 111 C 70 130 75 147 86 161 C 97 175 110 187 126 196 C 102 212 83 233 69 258 C 55 283 48 313 48 347 C 48 376 53 402 65 426 C 77 450 93 470 113 487 C 133 504 156 517 184 527 C 211 536 240 541 272 541 C 330 541 380 525 420 495 C 438 509 457 521 479 529 C 500 537 528 542 563 542 L 563 456 C 543 456 526 455 510 454 C 494 453 479 450 465 446 C 483 416 493 383 493 347 C 493 315 486 287 474 263 C 461 239 444 218 424 202 C 404 186 380 173 354 165 C 327 156 300 152 272 152 C 242 152 214 156 186 166 C 169 158 161 146 161 131 C 161 123 163 117 168 112 C 173 106 182 102 194 99 C 206 95 223 92 243 90 C 263 88 289 86 319 85 C 391 81 448 68 488 47 C 528 25 549 -9 549 -59 Z M 281 -130 C 386 -130 439 -110 439 -70 C 439 -48 428 -33 407 -25 C 386 -17 350 -11 298 -9 C 276 -7 256 -5 238 -3 C 219 -1 202 1 187 5 C 171 -2 158 -11 149 -23 C 139 -35 135 -48 135 -64 C 135 -86 146 -103 169 -114 C 192 -124 229 -130 281 -130 Z" unicode="ġ" />
<glyph horiz-adv-x="731" d="M 48 356 C 48 407 56 454 73 498 C 90 542 114 579 146 611 C 177 643 215 667 259 685 C 303 703 353 712 407 712 C 455 712 499 705 540 691 C 580 677 619 657 655 633 L 593 548 C 565 567 536 582 506 592 C 476 602 444 608 410 608 C 374 608 341 601 312 589 C 282 577 257 559 236 537 C 215 515 199 488 188 458 C 176 427 171 393 171 356 C 171 316 176 279 187 247 C 198 214 214 186 234 163 C 254 140 279 122 309 110 C 339 98 372 92 410 92 C 436 92 461 95 486 101 C 510 107 532 115 550 126 L 550 292 L 374 292 L 374 381 L 661 381 L 661 64 C 627 40 588 21 545 8 C 501 -5 455 -12 407 -12 C 352 -12 302 -3 258 14 C 214 32 176 57 145 89 C 114 121 90 160 73 206 C 56 251 48 301 48 356 Z M 308 -54 C 315 -52 323 -50 332 -49 C 341 -48 350 -48 359 -48 C 389 -48 411 -55 427 -69 C 442 -83 450 -100 451 -122 C 452 -138 448 -154 438 -171 C 428 -188 416 -203 401 -217 L 321 -217 C 336 -201 347 -188 353 -177 C 359 -165 363 -154 363 -143 C 363 -123 352 -113 332 -115 C 328 -115 324 -115 320 -115 C 316 -115 312 -116 308 -117 L 308 -54 Z" unicode="Ģ" />
<glyph horiz-adv-x="586" d="M 373 588 C 365 586 356 584 348 583 C 339 581 330 581 322 581 C 292 581 269 588 254 602 C 238 616 230 634 230 656 C 229 672 233 688 243 705 C 252 722 264 737 279 751 L 360 751 C 344 735 333 721 327 710 C 321 699 318 688 318 677 C 318 657 328 648 349 648 C 353 648 356 648 360 649 C 364 649 368 650 373 651 L 373 588 Z M 272 235 C 304 235 330 245 351 265 C 371 285 382 313 382 347 C 382 381 371 408 351 428 C 330 448 304 459 272 459 C 239 459 212 448 192 428 C 171 408 161 381 161 347 C 161 313 171 285 192 265 C 212 245 239 235 272 235 Z M 24 -69 C 24 -45 31 -23 46 -5 C 60 13 80 29 104 42 C 81 60 70 83 70 111 C 70 130 75 147 86 161 C 96 175 109 187 125 196 C 101 212 83 233 69 258 C 55 283 48 313 48 347 C 48 376 53 402 65 426 C 77 450 93 470 113 487 C 133 504 156 517 184 527 C 211 536 240 541 272 541 C 300 541 327 537 352 529 C 377 521 399 509 419 495 C 437 509 456 521 478 529 C 500 537 528 542 563 542 L 563 456 C 543 456 526 455 510 454 C 494 453 479 450 465 446 C 473 432 480 416 485 400 C 490 383 493 365 493 347 C 493 315 486 287 474 263 C 461 239 444 218 424 202 C 404 186 380 173 354 165 C 327 156 300 152 272 152 C 242 152 214 156 186 166 C 169 158 161 146 161 131 C 161 123 163 117 168 112 C 173 106 182 102 194 99 C 206 95 223 92 243 90 C 263 88 289 86 319 85 C 391 81 448 68 488 47 C 528 25 549 -9 549 -59 C 549 -105 527 -142 484 -169 C 441 -196 375 -210 286 -210 C 202 -210 137 -198 92 -174 C 46 -150 24 -115 24 -69 Z M 298 -9 C 276 -7 255 -6 237 -4 C 218 -2 201 1 186 5 C 170 -2 158 -11 149 -23 C 139 -35 135 -48 135 -64 C 135 -86 146 -103 169 -114 C 192 -124 229 -130 281 -130 C 386 -130 439 -110 439 -70 C 439 -48 428 -33 407 -25 C 386 -17 350 -11 298 -9 Z" unicode="ģ" />
<glyph horiz-adv-x="707" d="M 299 879 L 409 879 L 532 755 L 453 755 L 355 817 L 354 817 L 255 755 L 177 755 L 299 879 Z M 77 700 L 197 700 L 197 408 L 511 408 L 511 700 L 630 700 L 630 0 L 511 0 L 511 303 L 197 303 L 197 0 L 77 0 L 77 700 Z" unicode="Ĥ" />
<glyph horiz-adv-x="590" d="M 75 921 L 185 921 L 308 797 L 229 797 L 131 859 L 130 859 L 31 797 L -47 797 L 75 921 Z M 72 755 L 189 755 L 189 466 C 209 487 233 505 261 520 C 288 534 319 542 353 542 C 412 542 455 524 483 490 C 510 455 524 409 524 352 L 524 0 L 408 0 L 408 354 C 408 383 401 406 389 424 C 376 442 355 451 325 451 C 297 451 272 444 250 432 C 228 420 207 402 189 379 L 189 0 L 72 0 L 72 755 Z" unicode="ĥ" />
<glyph horiz-adv-x="707" d="M 511 408 L 511 518 L 197 518 L 197 408 L 511 408 Z M 77 700 L 197 700 L 197 592 L 511 592 L 511 700 L 630 700 L 630 0 L 511 0 L 511 303 L 197 303 L 197 0 L 77 0 L 77 700 Z" unicode="Ħ" />
<glyph horiz-adv-x="596" d="M -1 679 L 78 679 L 78 755 L 195 755 L 195 679 L 328 679 L 328 605 L 195 605 L 195 466 C 215 487 239 505 267 520 C 294 534 325 542 359 542 C 418 542 461 524 489 490 C 516 455 530 409 530 352 L 530 0 L 414 0 L 414 354 C 414 383 407 406 395 424 C 382 442 361 451 331 451 C 303 451 278 444 256 432 C 234 420 213 402 195 379 L 195 0 L 78 0 L 78 604 L -1 604 L -1 679 Z" unicode="ħ" />
<glyph horiz-adv-x="273" d="M -25 756 C -30 796 -24 827 -6 850 C 11 873 36 885 70 885 C 86 885 99 882 111 876 C 123 870 133 864 143 858 C 153 851 162 845 170 839 C 178 833 187 831 197 831 C 221 831 232 846 228 878 L 298 878 C 303 838 297 806 279 783 C 261 759 235 748 202 748 C 186 748 172 750 160 756 C 148 762 138 768 129 775 C 119 781 110 787 102 793 C 93 799 84 802 75 802 C 63 802 55 798 49 790 C 43 782 42 770 44 756 L -25 756 Z M 77 700 L 197 700 L 197 0 L 77 0 L 77 700 Z" unicode="Ĩ" />
<glyph horiz-adv-x="260" d="M -32 602 C -36 642 -30 674 -12 697 C 5 720 30 732 64 732 C 80 732 93 729 105 723 C 116 717 126 711 136 705 C 145 698 154 692 162 686 C 170 680 179 678 189 678 C 213 678 224 694 220 726 L 289 726 C 294 684 288 652 270 629 C 252 606 227 595 194 595 C 178 595 165 597 153 603 C 141 609 131 615 122 622 C 112 628 103 634 95 640 C 87 646 78 649 69 649 C 44 649 34 633 38 602 L -32 602 Z M 72 524 L 188 524 L 188 0 L 72 0 L 72 524 Z" unicode="ĩ" />
<glyph horiz-adv-x="273" d="M -20 855 L 293 855 L 293 778 L -20 778 L -20 855 Z M 77 700 L 197 700 L 197 0 L 77 0 L 77 700 Z" unicode="Ī" />
<glyph horiz-adv-x="260" d="M -26 702 L 285 702 L 285 625 L -26 625 L -26 702 Z M 72 524 L 188 524 L 188 0 L 72 0 L 72 524 Z" unicode="ī" />
<glyph horiz-adv-x="273" d="M 137 750 C 89 750 50 761 21 784 C -8 807 -27 839 -37 879 L 43 879 C 50 862 61 849 77 839 C 93 829 113 825 137 825 C 160 825 180 829 196 839 C 212 849 223 862 231 879 L 310 879 C 300 839 281 807 251 784 C 221 761 183 750 137 750 Z M 77 700 L 197 700 L 197 0 L 77 0 L 77 700 Z" unicode="Ĭ" />
<glyph horiz-adv-x="260" d="M 130 576 C 79 576 39 591 10 621 C -19 651 -36 692 -41 744 L 36 744 C 39 714 49 692 65 676 C 81 660 102 653 130 653 C 156 653 178 660 194 676 C 210 692 220 714 224 744 L 300 744 C 296 691 279 650 249 620 C 219 590 179 576 130 576 Z M 72 524 L 188 524 L 188 0 L 72 0 L 72 524 Z" unicode="ĭ" />
<glyph horiz-adv-x="273" d="M 77 700 L 197 700 L 197 0 C 169 -10 148 -22 135 -35 C 121 -47 115 -63 115 -81 C 115 -93 119 -103 127 -110 C 135 -116 147 -120 161 -120 C 181 -120 199 -115 213 -107 L 216 -109 L 216 -194 C 193 -202 168 -207 142 -207 C 108 -207 80 -197 59 -179 C 38 -161 28 -136 28 -106 C 28 -84 33 -65 44 -47 C 55 -29 70 -13 90 0 L 77 0 L 77 700 Z" unicode="Į" />
<glyph horiz-adv-x="260" d="M 72 748 L 188 748 L 188 636 L 72 636 L 72 748 Z M 72 524 L 188 524 L 188 0 C 160 -10 139 -22 126 -35 C 112 -47 106 -63 106 -81 C 106 -93 110 -103 118 -110 C 126 -116 138 -120 152 -120 C 172 -120 190 -115 204 -107 L 207 -109 L 207 -194 C 184 -202 159 -207 133 -207 C 99 -207 71 -197 50 -179 C 29 -161 19 -136 19 -106 C 19 -84 24 -65 35 -47 C 46 -29 61 -13 81 0 L 72 0 L 72 524 Z" unicode="į" />
<glyph horiz-adv-x="273" d="M 78 880 L 195 880 L 195 769 L 78 769 L 78 880 Z M 77 700 L 197 700 L 197 0 L 77 0 L 77 700 Z" unicode="İ" />
<glyph horiz-adv-x="260" d="M 72 524 L 188 524 L 188 0 L 72 0 L 72 524 Z" unicode="ı" />
<glyph horiz-adv-x="577" d="M 389 879 L 499 879 L 622 755 L 543 755 L 445 817 L 444 817 L 345 755 L 267 755 L 389 879 Z M 136 188 C 150 158 167 134 189 118 C 210 102 236 94 266 94 C 305 94 334 106 354 131 C 373 156 383 191 383 235 L 383 700 L 503 700 L 503 233 C 503 154 483 93 443 51 C 403 9 345 -12 271 -12 C 219 -12 173 0 134 25 C 95 50 64 85 41 130 L 136 188 Z" unicode="Ĵ" />
<glyph horiz-adv-x="270" d="M 81 744 L 200 744 L 322 584 L 240 584 L 141 680 L 139 680 L 40 584 L -41 584 L 81 744 Z M 82 524 L 198 524 L 198 -16 C 198 -85 182 -135 151 -165 C 120 -195 78 -210 25 -210 C 5 -210 -11 -208 -27 -205 C -42 -201 -54 -198 -62 -195 L -39 -105 C -31 -107 -22 -109 -14 -111 C -5 -113 3 -114 13 -114 C 35 -114 52 -107 64 -93 C 76 -79 82 -55 82 -21 L 82 524 Z" unicode="ĵ" />
<glyph horiz-adv-x="679" d="M 77 700 L 197 700 L 197 348 L 494 700 L 631 700 L 404 435 L 655 0 L 516 0 L 326 344 L 197 194 L 197 0 L 77 0 L 77 700 Z M 266 -54 C 273 -52 281 -50 290 -49 C 299 -48 308 -48 317 -48 C 347 -48 369 -55 385 -69 C 400 -83 408 -100 409 -122 C 410 -138 406 -154 396 -171 C 386 -188 374 -203 359 -217 L 279 -217 C 294 -201 305 -188 311 -177 C 317 -165 321 -154 321 -143 C 321 -123 310 -113 290 -115 C 286 -115 282 -115 278 -115 C 274 -115 270 -116 266 -117 L 266 -54 Z" unicode="Ķ" />
<glyph horiz-adv-x="561" d="M 72 755 L 189 755 L 189 283 L 397 529 L 526 529 L 362 345 L 545 0 L 412 0 L 285 258 L 189 149 L 189 0 L 72 0 L 72 755 Z M 234 -54 C 250 -50 266 -48 284 -48 C 314 -48 337 -55 353 -69 C 368 -83 376 -100 377 -122 C 378 -138 374 -154 364 -171 C 354 -188 341 -203 327 -217 L 248 -217 C 263 -201 274 -188 280 -177 C 286 -165 289 -154 289 -143 C 289 -123 278 -113 258 -115 C 254 -115 250 -115 246 -115 C 242 -115 238 -116 234 -117 L 234 -54 Z" unicode="ķ" />
<glyph horiz-adv-x="561" d="M 72 529 L 189 529 L 189 283 L 397 529 L 526 529 L 362 345 L 545 0 L 412 0 L 285 258 L 189 149 L 189 0 L 72 0 L 72 529 Z" unicode="ĸ" />
<glyph horiz-adv-x="607" d="M 196 900 L 286 839 L 167 755 L 82 755 L 196 900 Z M 77 700 L 197 700 L 197 106 L 568 106 L 568 0 L 77 0 L 77 700 Z" unicode="Ĺ" />
<glyph horiz-adv-x="261" d="M 189 942 L 279 881 L 160 797 L 75 797 L 189 942 Z M 73 755 L 189 755 L 189 0 L 73 0 L 73 755 Z" unicode="ĺ" />
<glyph horiz-adv-x="607" d="M 77 700 L 197 700 L 197 106 L 568 106 L 568 0 L 77 0 L 77 700 Z M 249 -54 C 256 -52 264 -50 273 -49 C 282 -48 291 -48 300 -48 C 330 -48 352 -55 368 -69 C 383 -83 391 -100 392 -122 C 393 -138 389 -154 379 -171 C 369 -188 357 -203 342 -217 L 262 -217 C 277 -201 288 -188 294 -177 C 300 -165 304 -154 304 -143 C 304 -123 293 -113 273 -115 C 269 -115 265 -115 261 -115 C 257 -115 253 -116 249 -117 L 249 -54 Z" unicode="Ļ" />
<glyph horiz-adv-x="261" d="M 73 755 L 189 755 L 189 0 L 73 0 L 73 755 Z M 70 -54 C 86 -50 102 -48 120 -48 C 150 -48 173 -55 189 -69 C 204 -83 212 -100 213 -122 C 214 -138 210 -154 200 -171 C 190 -188 177 -203 163 -217 L 84 -217 C 99 -201 110 -188 116 -177 C 122 -165 125 -154 125 -143 C 125 -123 114 -113 94 -115 C 90 -115 86 -115 82 -115 C 78 -115 74 -116 70 -117 L 70 -54 Z" unicode="ļ" />
<glyph horiz-adv-x="607" d="M 277 699 C 284 701 292 702 301 703 C 310 704 319 705 328 705 C 358 705 380 698 396 684 C 411 670 419 652 420 631 C 421 615 417 598 407 581 C 397 564 385 549 370 536 L 290 536 C 305 551 316 564 322 576 C 328 587 332 598 332 610 C 332 630 321 639 301 638 C 297 638 293 637 289 637 C 285 637 281 636 277 636 L 277 699 Z M 77 700 L 197 700 L 197 106 L 568 106 L 568 0 L 77 0 L 77 700 Z" unicode="Ľ" />
<glyph horiz-adv-x="261" d="M 73 755 L 189 755 L 189 0 L 73 0 L 73 755 Z M 257 733 C 265 735 273 736 282 738 C 290 739 299 740 308 740 C 338 740 360 732 376 718 C 391 704 399 686 400 665 C 400 649 396 632 387 615 C 377 598 365 583 351 570 L 270 570 C 285 586 296 599 302 610 C 308 621 312 632 312 644 C 312 663 301 673 281 673 C 277 673 273 672 269 672 C 265 671 261 670 257 670 L 257 733 Z" unicode="ľ" />
<glyph horiz-adv-x="602" d="M 77 700 L 197 700 L 197 106 L 568 106 L 568 0 L 77 0 L 77 700 Z M 454 440 L 571 440 L 571 329 L 454 329 L 454 440 Z" unicode="Ŀ" />
<glyph horiz-adv-x="260" d="M 73 755 L 189 755 L 189 0 L 73 0 L 73 755 Z M 229 434 L 335 434 L 335 323 L 229 323 L 229 434 Z" unicode="ŀ" />
<glyph horiz-adv-x="636" d="M 11 306 L 106 356 L 106 700 L 226 700 L 226 420 L 421 525 L 421 434 L 226 331 L 226 106 L 597 106 L 597 0 L 106 0 L 106 267 L 11 217 L 11 306 Z" unicode="Ł" />
<glyph horiz-adv-x="277" d="M 2 353 L 82 396 L 82 755 L 198 755 L 198 458 L 275 500 L 275 410 L 198 368 L 198 0 L 82 0 L 82 305 L 2 263 L 2 353 Z" unicode="ł" />
<glyph horiz-adv-x="733" d="M 426 900 L 516 839 L 397 755 L 312 755 L 426 900 Z M 77 700 L 192 700 L 541 193 L 541 700 L 656 700 L 656 0 L 541 0 L 192 506 L 192 0 L 77 0 L 77 700 Z" unicode="Ń" />
<glyph horiz-adv-x="586" d="M 370 769 L 450 710 L 308 584 L 231 584 L 370 769 Z M 69 529 L 178 529 L 184 466 C 204 487 228 505 256 520 C 284 534 316 542 350 542 C 409 542 452 524 480 490 C 507 455 521 409 521 352 L 521 0 L 405 0 L 405 354 C 405 383 398 406 386 424 C 373 442 352 451 322 451 C 294 451 268 444 246 432 C 224 420 203 402 185 379 L 185 0 L 69 0 L 69 529 Z" unicode="ń" />
<glyph horiz-adv-x="733" d="M 77 700 L 192 700 L 541 193 L 541 700 L 656 700 L 656 0 L 541 0 L 192 506 L 192 0 L 77 0 L 77 700 Z M 293 -54 C 300 -52 308 -50 317 -49 C 326 -48 335 -48 344 -48 C 374 -48 396 -55 412 -69 C 427 -83 435 -100 436 -122 C 437 -138 433 -154 423 -171 C 413 -188 401 -203 386 -217 L 306 -217 C 321 -201 332 -188 338 -177 C 344 -165 348 -154 348 -143 C 348 -123 337 -113 317 -115 C 313 -115 309 -115 305 -115 C 301 -115 297 -116 293 -117 L 293 -54 Z" unicode="Ņ" />
<glyph horiz-adv-x="586" d="M 69 529 L 178 529 L 184 466 C 204 487 228 505 256 520 C 284 534 316 542 350 542 C 409 542 452 524 480 490 C 507 455 521 409 521 352 L 521 0 L 405 0 L 405 354 C 405 383 398 406 386 424 C 373 442 352 451 322 451 C 294 451 268 444 246 432 C 224 420 203 402 185 379 L 185 0 L 69 0 L 69 529 Z M 225 -54 C 241 -50 257 -48 275 -48 C 305 -48 328 -55 344 -69 C 359 -83 367 -100 368 -122 C 369 -138 365 -154 355 -171 C 345 -188 332 -203 318 -217 L 239 -217 C 254 -201 265 -188 271 -177 C 277 -165 280 -154 280 -143 C 280 -123 269 -113 249 -115 C 245 -115 241 -115 237 -115 C 233 -115 229 -116 225 -117 L 225 -54 Z" unicode="ņ" />
<glyph horiz-adv-x="733" d="M 189 879 L 267 879 L 365 817 L 366 817 L 465 879 L 544 879 L 421 755 L 310 755 L 189 879 Z M 77 700 L 192 700 L 541 193 L 541 700 L 656 700 L 656 0 L 541 0 L 192 506 L 192 0 L 77 0 L 77 700 Z" unicode="Ň" />
<glyph horiz-adv-x="586" d="M 113 744 L 194 744 L 293 648 L 295 648 L 394 744 L 476 744 L 354 584 L 235 584 L 113 744 Z M 69 529 L 178 529 L 184 466 C 204 487 228 505 256 520 C 284 534 316 542 350 542 C 409 542 452 524 480 490 C 507 455 521 409 521 352 L 521 0 L 405 0 L 405 354 C 405 383 398 406 386 424 C 373 442 352 451 322 451 C 294 451 268 444 246 432 C 224 420 203 402 185 379 L 185 0 L 69 0 L 69 529 Z" unicode="ň" />
<glyph horiz-adv-x="733" d="M 77 700 L 192 700 L 541 195 L 541 700 L 656 700 L 656 -15 C 656 -84 640 -134 610 -164 C 579 -194 537 -210 485 -210 C 465 -210 448 -208 432 -205 C 416 -201 404 -198 396 -195 L 420 -103 C 428 -105 436 -107 445 -109 C 453 -111 462 -112 472 -112 C 494 -112 511 -105 523 -92 C 535 -78 542 -55 542 -21 L 542 2 L 192 506 L 192 0 L 77 0 L 77 700 Z" unicode="Ŋ" />
<glyph horiz-adv-x="586" d="M 69 529 L 178 529 L 184 466 C 204 487 228 505 256 520 C 284 534 316 542 350 542 C 409 542 452 524 480 490 C 507 455 521 409 521 352 L 521 -16 C 521 -85 505 -135 474 -165 C 443 -195 401 -210 349 -210 C 329 -210 312 -208 296 -205 C 280 -201 268 -198 260 -195 L 284 -105 C 291 -107 299 -109 308 -111 C 316 -113 325 -114 335 -114 C 357 -114 375 -107 387 -93 C 399 -79 405 -55 405 -21 L 405 356 C 405 384 398 407 385 425 C 372 442 351 451 322 451 C 294 451 268 444 246 432 C 224 420 203 402 185 379 L 185 0 L 69 0 L 69 529 Z" unicode="ŋ" />
<glyph horiz-adv-x="811" d="M 249 855 L 562 855 L 562 778 L 249 778 L 249 855 Z M 48 354 C 48 408 57 457 75 501 C 93 545 119 583 151 614 C 183 645 220 669 264 686 C 308 703 355 712 406 712 C 456 712 503 703 547 686 C 591 669 629 645 661 614 C 693 583 718 545 736 501 C 754 457 763 408 763 354 C 763 298 754 248 736 203 C 718 158 693 120 661 88 C 629 56 591 31 547 14 C 503 -3 456 -12 406 -12 C 355 -12 308 -3 264 14 C 220 31 183 56 151 88 C 119 120 93 158 75 203 C 57 248 48 298 48 354 Z M 171 354 C 171 313 177 276 189 244 C 201 211 217 183 239 161 C 260 139 285 122 314 110 C 342 98 373 92 406 92 C 439 92 470 98 498 110 C 526 122 551 139 573 161 C 594 183 611 211 623 244 C 635 276 641 313 641 354 C 641 393 635 428 623 460 C 611 492 594 519 573 541 C 552 563 527 579 499 591 C 470 603 439 609 406 609 C 372 609 341 603 313 591 C 284 579 259 563 238 541 C 217 519 201 492 189 460 C 177 428 171 393 171 354 Z" unicode="Ō" />
<glyph horiz-adv-x="609" d="M 149 702 L 460 702 L 460 625 L 149 625 L 149 702 Z M 43 271 C 43 312 49 349 63 382 C 76 415 94 443 118 467 C 141 491 169 509 201 522 C 233 534 267 541 305 541 C 342 541 376 534 408 522 C 440 509 467 491 491 467 C 514 443 532 415 545 382 C 558 349 565 312 565 271 C 565 227 558 187 546 153 C 533 118 515 88 493 64 C 470 39 443 20 411 7 C 379 -5 343 -12 305 -12 C 265 -12 230 -5 198 7 C 166 20 138 39 115 64 C 92 88 74 118 62 153 C 49 187 43 227 43 271 Z M 161 270 C 161 212 173 165 198 131 C 223 96 259 79 305 79 C 349 79 383 96 408 131 C 433 165 446 212 446 270 C 446 296 442 321 436 343 C 429 365 419 383 407 399 C 394 415 379 427 362 436 C 345 444 326 449 305 449 C 283 449 264 444 246 436 C 228 427 213 415 201 399 C 188 383 178 365 171 343 C 164 321 161 296 161 270 Z" unicode="ō" />
<glyph horiz-adv-x="811" d="M 406 750 C 358 750 319 761 290 784 C 260 807 241 839 232 879 L 312 879 C 319 862 330 849 346 839 C 362 829 382 825 406 825 C 429 825 449 829 465 839 C 481 849 492 862 500 879 L 579 879 C 569 839 550 807 520 784 C 490 761 452 750 406 750 Z M 48 354 C 48 408 57 457 75 501 C 93 545 119 583 151 614 C 183 645 220 669 264 686 C 308 703 355 712 406 712 C 456 712 503 703 547 686 C 591 669 629 645 661 614 C 693 583 718 545 736 501 C 754 457 763 408 763 354 C 763 298 754 248 736 203 C 718 158 693 120 661 88 C 629 56 591 31 547 14 C 503 -3 456 -12 406 -12 C 355 -12 308 -3 264 14 C 220 31 183 56 151 88 C 119 120 93 158 75 203 C 57 248 48 298 48 354 Z M 171 354 C 171 313 177 276 189 244 C 201 211 217 183 239 161 C 260 139 285 122 314 110 C 342 98 373 92 406 92 C 439 92 470 98 498 110 C 526 122 551 139 573 161 C 594 183 611 211 623 244 C 635 276 641 313 641 354 C 641 393 635 428 623 460 C 611 492 594 519 573 541 C 552 563 527 579 499 591 C 470 603 439 609 406 609 C 372 609 341 603 313 591 C 284 579 259 563 238 541 C 217 519 201 492 189 460 C 177 428 171 393 171 354 Z" unicode="Ŏ" />
<glyph horiz-adv-x="609" d="M 305 576 C 254 576 214 591 185 621 C 155 651 138 692 134 744 L 211 744 C 214 714 224 692 240 676 C 256 660 277 653 305 653 C 331 653 353 660 369 676 C 385 692 395 714 399 744 L 475 744 C 471 691 454 650 424 620 C 394 590 354 576 305 576 Z M 43 271 C 43 312 49 349 63 382 C 76 415 94 443 118 467 C 141 491 169 509 201 522 C 233 534 267 541 305 541 C 342 541 376 534 408 522 C 440 509 467 491 491 467 C 514 443 532 415 545 382 C 558 349 565 312 565 271 C 565 227 558 187 546 153 C 533 118 515 88 493 64 C 470 39 443 20 411 7 C 379 -5 343 -12 305 -12 C 265 -12 230 -5 198 7 C 166 20 138 39 115 64 C 92 88 74 118 62 153 C 49 187 43 227 43 271 Z M 161 270 C 161 212 173 165 198 131 C 223 96 259 79 305 79 C 349 79 383 96 408 131 C 433 165 446 212 446 270 C 446 296 442 321 436 343 C 429 365 419 383 407 399 C 394 415 379 427 362 436 C 345 444 326 449 305 449 C 283 449 264 444 246 436 C 228 427 213 415 201 399 C 188 383 178 365 171 343 C 164 321 161 296 161 270 Z" unicode="ŏ" />
<glyph horiz-adv-x="811" d="M 549 900 L 638 839 L 519 755 L 434 755 L 549 900 Z M 377 900 L 467 839 L 348 755 L 262 755 L 377 900 Z M 48 354 C 48 408 57 457 75 501 C 93 545 119 583 151 614 C 183 645 220 669 264 686 C 308 703 355 712 406 712 C 456 712 503 703 547 686 C 591 669 629 645 661 614 C 693 583 718 545 736 501 C 754 457 763 408 763 354 C 763 298 754 248 736 203 C 718 158 693 120 661 88 C 629 56 591 31 547 14 C 503 -3 456 -12 406 -12 C 355 -12 308 -3 264 14 C 220 31 183 56 151 88 C 119 120 93 158 75 203 C 57 248 48 298 48 354 Z M 171 354 C 171 313 177 276 189 244 C 201 211 217 183 239 161 C 260 139 285 122 314 110 C 342 98 373 92 406 92 C 439 92 470 98 498 110 C 526 122 551 139 573 161 C 594 183 611 211 623 244 C 635 276 641 313 641 354 C 641 393 635 428 623 460 C 611 492 594 519 573 541 C 552 563 527 579 499 591 C 470 603 439 609 406 609 C 372 609 341 603 313 591 C 284 579 259 563 238 541 C 217 519 201 492 189 460 C 177 428 171 393 171 354 Z" unicode="Ő" />
<glyph horiz-adv-x="609" d="M 477 769 L 558 714 L 424 584 L 351 584 L 477 769 Z M 300 769 L 382 714 L 247 584 L 173 584 L 300 769 Z M 43 271 C 43 312 49 349 63 382 C 76 415 94 443 118 467 C 141 491 169 509 201 522 C 233 534 267 541 305 541 C 342 541 376 534 408 522 C 440 509 467 491 491 467 C 514 443 532 415 545 382 C 558 349 565 312 565 271 C 565 227 558 187 546 153 C 533 118 515 88 493 64 C 470 39 443 20 411 7 C 379 -5 343 -12 305 -12 C 265 -12 230 -5 198 7 C 166 20 138 39 115 64 C 92 88 74 118 62 153 C 49 187 43 227 43 271 Z M 161 270 C 161 212 173 165 198 131 C 223 96 259 79 305 79 C 349 79 383 96 408 131 C 433 165 446 212 446 270 C 446 296 442 321 436 343 C 429 365 419 383 407 399 C 394 415 379 427 362 436 C 345 444 326 449 305 449 C 283 449 264 444 246 436 C 228 427 213 415 201 399 C 188 383 178 365 171 343 C 164 321 161 296 161 270 Z" unicode="ő" />
<glyph horiz-adv-x="1193" d="M 170 356 C 170 317 175 281 187 249 C 198 216 214 188 234 165 C 254 142 279 124 307 111 C 335 98 367 92 402 92 C 436 92 467 98 496 111 C 524 124 549 142 570 166 C 590 189 606 217 618 249 C 629 281 635 317 635 356 C 635 392 629 425 617 456 C 605 487 589 514 568 536 C 547 558 522 576 494 589 C 466 601 435 608 402 608 C 368 608 337 601 309 589 C 281 576 256 558 236 536 C 215 514 199 487 187 456 C 175 425 170 392 170 356 Z M 49 356 C 49 406 57 452 75 496 C 93 539 117 577 148 609 C 179 641 216 666 258 684 C 300 702 347 712 397 712 C 447 712 492 702 532 682 C 572 662 607 635 635 600 L 635 700 L 1130 700 L 1130 594 L 754 594 L 754 406 L 1091 406 L 1091 306 L 754 306 L 754 106 L 1136 106 L 1136 0 L 635 0 L 635 98 C 607 62 573 35 533 16 C 493 -2 447 -12 397 -12 C 346 -12 299 -2 257 15 C 214 33 177 59 146 91 C 115 123 91 162 74 207 C 57 252 49 302 49 356 Z" unicode="Œ" />
<glyph horiz-adv-x="977" d="M 43 271 C 43 312 49 349 63 383 C 76 416 94 444 118 468 C 142 491 170 509 202 522 C 234 535 268 542 306 542 C 351 542 390 532 424 513 C 458 494 484 467 504 433 C 525 467 553 494 588 513 C 622 532 662 542 706 542 C 744 542 777 535 806 523 C 834 511 858 494 877 473 C 895 451 909 426 919 396 C 928 366 933 334 933 300 C 933 292 932 282 931 272 C 930 262 929 253 928 247 L 566 247 C 568 193 581 152 606 124 C 631 96 668 82 716 82 C 743 82 769 86 794 95 C 819 104 842 116 864 130 L 916 53 C 852 9 784 -13 712 -13 C 664 -13 622 -3 587 15 C 551 33 524 60 504 95 C 484 60 457 33 424 15 C 390 -3 351 -13 306 -13 C 266 -13 230 -6 198 7 C 166 20 138 39 115 64 C 92 88 74 118 62 153 C 49 188 43 227 43 271 Z M 820 322 C 820 340 818 358 814 374 C 810 390 803 404 794 416 C 785 428 774 437 760 444 C 746 451 728 455 708 455 C 673 455 643 443 618 420 C 593 396 577 364 569 322 L 820 322 Z M 162 271 C 162 212 174 165 199 131 C 224 96 259 79 305 79 C 349 79 383 96 409 131 C 434 165 447 212 447 271 C 447 297 443 322 437 344 C 430 366 420 384 408 400 C 395 416 380 428 363 437 C 345 445 326 450 305 450 C 283 450 264 445 246 437 C 228 428 213 416 201 400 C 189 384 179 366 172 344 C 165 322 162 297 162 271 Z" unicode="œ" />
<glyph horiz-adv-x="695" d="M 398 900 L 488 839 L 369 755 L 284 755 L 398 900 Z M 378 364 C 402 364 422 367 439 373 C 456 379 470 388 481 399 C 492 410 500 423 506 437 C 511 451 514 467 514 483 C 514 515 503 543 482 566 C 460 588 426 600 379 600 L 197 600 L 197 364 L 378 364 Z M 77 700 L 380 700 C 427 700 467 693 499 681 C 531 669 558 652 578 632 C 598 612 612 589 621 563 C 630 537 635 511 635 484 C 635 442 623 403 601 368 C 579 332 545 306 500 289 L 640 0 L 509 0 L 389 270 L 197 270 L 197 0 L 77 0 L 77 700 Z" unicode="Ŕ" />
<glyph horiz-adv-x="427" d="M 312 769 L 392 710 L 250 584 L 173 584 L 312 769 Z M 69 529 L 175 529 L 184 442 C 203 476 225 502 251 518 C 277 534 306 543 338 543 C 352 543 364 541 376 539 C 388 537 398 534 408 530 L 387 423 C 377 427 366 430 356 432 C 345 434 333 436 320 436 C 290 436 265 427 244 409 C 223 391 203 364 185 330 L 185 0 L 69 0 L 69 529 Z" unicode="ŕ" />
<glyph horiz-adv-x="695" d="M 378 364 C 402 364 422 367 439 373 C 456 379 470 388 481 399 C 492 410 500 423 506 437 C 511 451 514 467 514 483 C 514 515 503 543 482 566 C 460 588 426 600 379 600 L 197 600 L 197 364 L 378 364 Z M 197 0 L 77 0 L 77 700 L 380 700 C 427 700 467 693 499 681 C 531 669 558 652 578 632 C 598 612 612 589 621 563 C 630 537 635 511 635 484 C 635 442 623 403 601 368 C 579 332 545 306 500 289 L 640 0 L 509 0 L 389 270 L 197 270 L 197 0 Z M 266 -54 C 273 -52 281 -50 290 -49 C 299 -48 308 -48 317 -48 C 347 -48 369 -55 385 -69 C 400 -83 408 -100 409 -122 C 410 -138 406 -154 396 -171 C 386 -188 374 -203 359 -217 L 279 -217 C 294 -201 305 -188 311 -177 C 317 -165 321 -154 321 -143 C 321 -123 310 -113 290 -115 C 286 -115 282 -115 278 -115 C 274 -115 270 -116 266 -117 L 266 -54 Z" unicode="Ŗ" />
<glyph horiz-adv-x="427" d="M 69 529 L 175 529 L 184 442 C 203 476 225 502 251 518 C 277 534 306 543 338 543 C 352 543 364 541 376 539 C 388 537 398 534 408 530 L 387 423 C 377 427 366 430 356 432 C 345 434 333 436 320 436 C 290 436 265 427 244 409 C 223 391 203 364 185 330 L 185 0 L 69 0 L 69 529 Z M 67 -54 C 83 -50 99 -48 117 -48 C 147 -48 170 -55 186 -69 C 201 -83 209 -100 210 -122 C 211 -138 207 -154 197 -171 C 187 -188 174 -203 160 -217 L 81 -217 C 96 -201 107 -188 113 -177 C 119 -165 122 -154 122 -143 C 122 -123 111 -113 91 -115 C 87 -115 83 -115 79 -115 C 75 -115 71 -116 67 -117 L 67 -54 Z" unicode="ŗ" />
<glyph horiz-adv-x="695" d="M 162 879 L 240 879 L 338 817 L 339 817 L 438 879 L 517 879 L 394 755 L 283 755 L 162 879 Z M 378 364 C 402 364 422 367 439 373 C 456 379 470 388 481 399 C 492 410 500 423 506 437 C 511 451 514 467 514 483 C 514 515 503 543 482 566 C 460 588 426 600 379 600 L 197 600 L 197 364 L 378 364 Z M 197 0 L 77 0 L 77 700 L 380 700 C 427 700 467 693 499 681 C 531 669 558 652 578 632 C 598 612 612 589 621 563 C 630 537 635 511 635 484 C 635 442 623 403 601 368 C 579 332 545 306 500 289 L 640 0 L 509 0 L 389 270 L 197 270 L 197 0 Z" unicode="Ř" />
<glyph horiz-adv-x="427" d="M 56 744 L 137 744 L 236 648 L 238 648 L 337 744 L 419 744 L 297 584 L 178 584 L 56 744 Z M 69 529 L 175 529 L 184 442 C 203 476 225 502 251 518 C 277 534 306 543 338 543 C 352 543 364 541 376 539 C 388 537 398 534 408 530 L 387 423 C 377 427 366 430 356 432 C 345 434 333 436 320 436 C 290 436 265 427 244 409 C 223 391 203 364 185 330 L 185 0 L 69 0 L 69 529 Z" unicode="ř" />
<glyph horiz-adv-x="627" d="M 374 900 L 464 839 L 345 755 L 260 755 L 374 900 Z M 104 158 C 135 138 168 123 204 111 C 239 99 276 94 315 94 C 361 94 395 103 418 121 C 441 139 453 162 453 190 C 453 216 443 236 424 250 C 404 264 380 275 351 284 C 321 293 290 302 256 310 C 222 318 190 329 161 344 C 131 359 107 379 88 405 C 68 431 59 466 59 511 C 59 539 64 565 76 589 C 87 613 103 635 125 653 C 146 671 172 686 203 696 C 234 706 269 712 309 712 C 355 712 398 706 438 696 C 478 686 516 672 552 655 L 507 559 C 477 573 445 585 413 593 C 381 601 347 606 313 606 C 272 606 240 597 218 579 C 195 561 184 539 184 513 C 184 487 193 467 213 453 C 232 439 256 428 286 420 C 315 411 347 403 381 395 C 415 387 446 375 476 360 C 505 345 529 324 549 298 C 568 272 578 236 578 191 C 578 162 572 135 561 111 C 550 86 534 64 512 46 C 490 28 463 13 430 3 C 397 -6 359 -12 315 -12 C 263 -12 213 -4 167 9 C 120 23 80 41 46 63 L 104 158 Z" unicode="Ś" />
<glyph horiz-adv-x="499" d="M 324 769 L 404 710 L 262 584 L 185 584 L 324 769 Z M 85 130 C 109 115 135 103 163 94 C 191 84 220 80 250 80 C 278 80 301 85 319 95 C 337 105 346 121 346 144 C 346 162 338 175 324 185 C 309 194 291 202 269 209 C 247 215 223 222 197 228 C 171 234 147 243 125 255 C 103 267 84 282 70 302 C 55 322 48 348 48 381 C 48 407 53 429 64 449 C 74 469 89 485 107 499 C 125 513 147 523 171 530 C 195 537 221 541 249 541 C 278 541 309 537 341 530 C 373 522 406 511 440 496 L 396 410 C 372 422 346 431 320 438 C 294 445 270 449 250 449 C 224 449 203 443 187 433 C 171 423 163 407 163 386 C 163 368 170 355 185 346 C 199 337 218 329 240 323 C 262 317 285 310 311 304 C 336 298 360 289 382 277 C 404 265 422 250 437 230 C 451 210 459 183 459 150 C 459 123 453 100 443 80 C 433 60 418 43 400 29 C 382 15 360 5 334 -1 C 308 -8 281 -12 251 -12 C 211 -12 173 -7 138 3 C 103 13 69 27 36 47 L 85 130 Z" unicode="ś" />
<glyph horiz-adv-x="627" d="M 260 879 L 370 879 L 493 755 L 414 755 L 316 817 L 315 817 L 216 755 L 138 755 L 260 879 Z M 104 158 C 135 138 168 123 204 111 C 239 99 276 94 315 94 C 361 94 395 103 418 121 C 441 139 453 162 453 190 C 453 216 443 236 424 250 C 404 264 380 275 351 284 C 321 293 290 302 256 310 C 222 318 190 329 161 344 C 131 359 107 379 88 405 C 68 431 59 466 59 511 C 59 539 64 565 76 589 C 87 613 103 635 125 653 C 146 671 172 686 203 696 C 234 706 269 712 309 712 C 355 712 398 706 438 696 C 478 686 516 672 552 655 L 507 559 C 477 573 445 585 413 593 C 381 601 347 606 313 606 C 272 606 240 597 218 579 C 195 561 184 539 184 513 C 184 487 193 467 213 453 C 232 439 256 428 286 420 C 315 411 347 403 381 395 C 415 387 446 375 476 360 C 505 345 529 324 549 298 C 568 272 578 236 578 191 C 578 162 572 135 561 111 C 550 86 534 64 512 46 C 490 28 463 13 430 3 C 397 -6 359 -12 315 -12 C 263 -12 213 -4 167 9 C 120 23 80 41 46 63 L 104 158 Z" unicode="Ŝ" />
<glyph horiz-adv-x="499" d="M 194 744 L 313 744 L 435 584 L 353 584 L 254 680 L 252 680 L 153 584 L 72 584 L 194 744 Z M 85 130 C 109 115 135 103 163 94 C 191 84 220 80 250 80 C 278 80 301 85 319 95 C 337 105 346 121 346 144 C 346 162 338 175 324 185 C 309 194 291 202 269 209 C 247 215 223 222 197 228 C 171 234 147 243 125 255 C 103 267 84 282 70 302 C 55 322 48 348 48 381 C 48 407 53 429 64 449 C 74 469 89 485 107 499 C 125 513 147 523 171 530 C 195 537 221 541 249 541 C 278 541 309 537 341 530 C 373 522 406 511 440 496 L 396 410 C 372 422 346 431 320 438 C 294 445 270 449 250 449 C 224 449 203 443 187 433 C 171 423 163 407 163 386 C 163 368 170 355 185 346 C 199 337 218 329 240 323 C 262 317 285 310 311 304 C 336 298 360 289 382 277 C 404 265 422 250 437 230 C 451 210 459 183 459 150 C 459 123 453 100 443 80 C 433 60 418 43 400 29 C 382 15 360 5 334 -1 C 308 -8 281 -12 251 -12 C 211 -12 173 -7 138 3 C 103 13 69 27 36 47 L 85 130 Z" unicode="ŝ" />
<glyph horiz-adv-x="627" d="M 153 -177 C 181 -155 206 -130 228 -102 C 250 -73 266 -42 276 -10 C 231 -6 189 1 149 15 C 109 28 75 44 46 63 L 104 158 C 135 138 168 123 204 111 C 239 99 276 94 315 94 C 361 94 395 103 418 121 C 441 139 453 162 453 190 C 453 216 443 236 424 250 C 404 264 380 275 351 284 C 321 293 290 302 256 310 C 222 318 190 329 161 344 C 131 359 107 379 88 405 C 68 431 59 466 59 511 C 59 539 64 565 76 589 C 87 613 103 635 125 653 C 146 671 172 686 203 696 C 234 706 269 712 309 712 C 355 712 398 706 438 696 C 478 686 516 672 552 655 L 507 559 C 477 573 445 585 413 593 C 381 601 347 606 313 606 C 272 606 240 597 218 579 C 195 561 184 539 184 513 C 184 487 193 467 213 453 C 232 439 256 428 286 420 C 315 411 347 403 381 395 C 415 387 446 375 476 360 C 505 345 529 324 549 298 C 568 272 578 236 578 191 C 578 164 573 139 563 116 C 553 92 539 72 520 54 C 501 36 477 21 449 10 C 420 -1 387 -8 349 -11 C 343 -53 331 -91 312 -126 C 292 -161 268 -192 238 -220 L 153 -177 Z" unicode="Ş" />
<glyph horiz-adv-x="499" d="M 85 -177 C 113 -155 138 -130 160 -102 C 182 -73 198 -42 208 -10 C 176 -6 146 0 118 9 C 90 19 63 31 36 47 L 85 130 C 109 115 135 103 163 94 C 191 84 220 80 250 80 C 278 80 301 85 319 95 C 337 105 346 121 346 144 C 346 162 338 175 324 185 C 309 194 291 202 269 209 C 247 215 223 222 197 228 C 171 234 147 243 125 255 C 103 267 84 282 70 302 C 55 322 48 348 48 381 C 48 407 53 429 64 449 C 74 469 89 485 107 499 C 125 513 147 523 171 530 C 195 537 221 541 249 541 C 278 541 309 537 341 530 C 373 522 406 511 440 496 L 396 410 C 372 422 346 431 320 438 C 294 445 270 449 250 449 C 224 449 203 443 187 433 C 171 423 163 407 163 386 C 163 368 170 355 185 346 C 199 337 218 329 240 323 C 262 317 285 310 311 304 C 336 298 360 289 382 277 C 404 265 422 250 437 230 C 451 210 459 183 459 150 C 459 101 442 63 409 36 C 376 9 333 -6 281 -11 C 275 -53 263 -91 244 -126 C 224 -161 200 -192 170 -220 L 85 -177 Z" unicode="ş" />
<glyph horiz-adv-x="627" d="M 138 879 L 216 879 L 314 817 L 315 817 L 414 879 L 493 879 L 370 755 L 259 755 L 138 879 Z M 104 158 C 135 138 168 123 204 111 C 239 99 276 94 315 94 C 361 94 395 103 418 121 C 441 139 453 162 453 190 C 453 216 443 236 424 250 C 404 264 380 275 351 284 C 321 293 290 302 256 310 C 222 318 190 329 161 344 C 131 359 107 379 88 405 C 68 431 59 466 59 511 C 59 539 64 565 76 589 C 87 613 103 635 125 653 C 146 671 172 686 203 696 C 234 706 269 712 309 712 C 355 712 398 706 438 696 C 478 686 516 672 552 655 L 507 559 C 477 573 445 585 413 593 C 381 601 347 606 313 606 C 272 606 240 597 218 579 C 195 561 184 539 184 513 C 184 487 193 467 213 453 C 232 439 256 428 286 420 C 315 411 347 403 381 395 C 415 387 446 375 476 360 C 505 345 529 324 549 298 C 568 272 578 236 578 191 C 578 162 572 135 561 111 C 550 86 534 64 512 46 C 490 28 463 13 430 3 C 397 -6 359 -12 315 -12 C 263 -12 213 -4 167 9 C 120 23 80 41 46 63 L 104 158 Z" unicode="Š" />
<glyph horiz-adv-x="499" d="M 72 744 L 153 744 L 252 648 L 254 648 L 353 744 L 435 744 L 313 584 L 194 584 L 72 744 Z M 85 130 C 109 115 135 103 163 94 C 191 84 220 80 250 80 C 278 80 301 85 319 95 C 337 105 346 121 346 144 C 346 162 338 175 324 185 C 309 194 291 202 269 209 C 247 215 223 222 197 228 C 171 234 147 243 125 255 C 103 267 84 282 70 302 C 55 322 48 348 48 381 C 48 407 53 429 64 449 C 74 469 89 485 107 499 C 125 513 147 523 171 530 C 195 537 221 541 249 541 C 278 541 309 537 341 530 C 373 522 406 511 440 496 L 396 410 C 372 422 346 431 320 438 C 294 445 270 449 250 449 C 224 449 203 443 187 433 C 171 423 163 407 163 386 C 163 368 170 355 185 346 C 199 337 218 329 240 323 C 262 317 285 310 311 304 C 336 298 360 289 382 277 C 404 265 422 250 437 230 C 451 210 459 183 459 150 C 459 123 453 100 443 80 C 433 60 418 43 400 29 C 382 15 360 5 334 -1 C 308 -8 281 -12 251 -12 C 211 -12 173 -7 138 3 C 103 13 69 27 36 47 L 85 130 Z" unicode="š" />
<glyph horiz-adv-x="660" d="M 270 593 L 28 593 L 28 700 L 632 700 L 632 593 L 390 593 L 390 0 L 270 0 L 270 593 Z M 367 -42 C 359 -78 346 -110 328 -140 C 310 -170 288 -196 262 -220 L 177 -177 C 200 -159 222 -138 242 -116 C 262 -93 277 -68 289 -42 L 367 -42 Z" unicode="Ţ" />
<glyph horiz-adv-x="417" d="M 109 442 L 20 442 L 20 529 L 109 529 L 109 671 L 225 671 L 225 529 L 372 529 L 372 442 L 225 442 L 225 150 C 225 105 243 83 279 83 C 307 83 333 91 358 109 L 402 35 C 384 21 363 10 339 1 C 314 -7 289 -12 264 -12 C 160 -12 109 41 109 148 L 109 442 Z M 242 -42 C 234 -78 221 -110 203 -140 C 185 -170 163 -196 137 -220 L 52 -177 C 75 -159 97 -138 117 -116 C 137 -93 152 -68 164 -42 L 242 -42 Z" unicode="ţ" />
<glyph horiz-adv-x="660" d="M 153 879 L 231 879 L 329 817 L 330 817 L 429 879 L 508 879 L 385 755 L 274 755 L 153 879 Z M 270 593 L 28 593 L 28 700 L 632 700 L 632 593 L 390 593 L 390 0 L 270 0 L 270 593 Z" unicode="Ť" />
<glyph horiz-adv-x="417" d="M 292 736 C 300 738 308 739 317 741 C 325 742 334 743 343 743 C 373 743 395 735 411 721 C 426 707 434 689 435 668 C 435 652 431 635 422 618 C 412 601 400 586 386 573 L 305 573 C 320 589 331 602 337 613 C 343 624 347 635 347 647 C 347 666 336 676 316 676 C 312 676 308 675 304 675 C 300 674 296 673 292 673 L 292 736 Z M 109 442 L 20 442 L 20 529 L 109 529 L 109 671 L 225 671 L 225 529 L 372 529 L 372 442 L 225 442 L 225 150 C 225 105 243 83 279 83 C 307 83 333 91 358 109 L 402 35 C 384 21 363 10 339 1 C 314 -7 289 -12 264 -12 C 160 -12 109 41 109 148 L 109 442 Z" unicode="ť" />
<glyph horiz-adv-x="660" d="M 129 390 L 270 390 L 270 593 L 28 593 L 28 700 L 632 700 L 632 593 L 390 593 L 390 390 L 531 390 L 531 313 L 390 313 L 390 0 L 270 0 L 270 313 L 129 313 L 129 390 Z" unicode="Ŧ" />
<glyph horiz-adv-x="417" d="M 29 329 L 109 329 L 109 442 L 20 442 L 20 529 L 109 529 L 109 671 L 225 671 L 225 529 L 372 529 L 372 442 L 225 442 L 225 328 L 358 328 L 358 253 L 225 253 L 225 150 C 225 105 243 83 279 83 C 307 83 333 91 358 109 L 402 35 C 384 21 363 10 339 1 C 314 -7 289 -12 264 -12 C 160 -12 109 41 109 148 L 109 253 L 29 253 L 29 329 Z" unicode="ŧ" />
<glyph horiz-adv-x="720" d="M 199 756 C 193 796 199 827 217 850 C 235 873 260 885 294 885 C 310 885 323 882 335 876 C 347 870 357 864 367 858 C 377 851 386 845 394 839 C 402 833 411 831 421 831 C 445 831 456 846 452 878 L 522 878 C 527 838 521 806 503 783 C 485 759 459 748 426 748 C 410 748 396 750 384 756 C 372 762 362 768 353 775 C 343 781 334 787 326 793 C 317 799 308 802 299 802 C 287 802 279 798 273 790 C 267 782 266 770 268 756 L 199 756 Z M 74 700 L 195 700 L 195 263 C 195 235 199 210 207 189 C 215 168 227 150 242 136 C 256 121 274 110 294 103 C 314 95 336 92 360 92 C 383 92 405 95 425 103 C 445 110 463 121 478 136 C 493 150 505 168 513 189 C 521 210 526 235 526 263 L 526 700 L 646 700 L 646 263 C 646 217 638 176 624 142 C 609 108 589 79 564 56 C 538 33 508 16 473 5 C 438 -6 400 -12 360 -12 C 319 -12 281 -6 246 5 C 211 16 181 33 156 56 C 130 79 110 108 96 142 C 81 176 74 217 74 263 L 74 700 Z" unicode="Ũ" />
<glyph horiz-adv-x="588" d="M 132 602 C 127 642 133 674 151 697 C 169 720 194 732 228 732 C 244 732 257 729 269 723 C 280 717 290 711 300 705 C 309 698 318 692 326 686 C 334 680 343 678 353 678 C 377 678 388 694 384 726 L 453 726 C 458 684 452 652 434 629 C 416 606 391 595 358 595 C 342 595 329 597 317 603 C 305 609 295 615 286 622 C 276 628 267 634 259 640 C 251 646 242 649 233 649 C 208 649 198 633 202 602 L 132 602 Z M 67 529 L 183 529 L 183 176 C 183 146 188 123 200 105 C 212 87 233 79 265 79 C 293 79 318 85 341 98 C 363 110 384 128 404 150 L 404 529 L 520 529 L 520 0 L 413 0 L 406 64 C 385 42 360 24 332 10 C 303 -4 272 -12 238 -12 C 178 -12 134 5 107 40 C 80 74 67 120 67 178 L 67 529 Z" unicode="ũ" />
<glyph horiz-adv-x="720" d="M 204 855 L 517 855 L 517 778 L 204 778 L 204 855 Z M 74 700 L 195 700 L 195 263 C 195 235 199 210 207 189 C 215 168 227 150 242 136 C 256 121 274 110 294 103 C 314 95 336 92 360 92 C 383 92 405 95 425 103 C 445 110 463 121 478 136 C 493 150 505 168 513 189 C 521 210 526 235 526 263 L 526 700 L 646 700 L 646 263 C 646 217 638 176 624 142 C 609 108 589 79 564 56 C 538 33 508 16 473 5 C 438 -6 400 -12 360 -12 C 319 -12 281 -6 246 5 C 211 16 181 33 156 56 C 130 79 110 108 96 142 C 81 176 74 217 74 263 L 74 700 Z" unicode="Ū" />
<glyph horiz-adv-x="588" d="M 137 702 L 448 702 L 448 625 L 137 625 L 137 702 Z M 67 529 L 183 529 L 183 176 C 183 146 188 123 200 105 C 212 87 233 79 265 79 C 293 79 318 85 341 98 C 363 110 384 128 404 150 L 404 529 L 520 529 L 520 0 L 413 0 L 406 64 C 385 42 360 24 332 10 C 303 -4 272 -12 238 -12 C 178 -12 134 5 107 40 C 80 74 67 120 67 178 L 67 529 Z" unicode="ū" />
<glyph horiz-adv-x="720" d="M 360 750 C 312 750 273 761 244 784 C 214 807 195 839 186 879 L 266 879 C 273 862 284 849 300 839 C 316 829 336 825 360 825 C 383 825 403 829 419 839 C 435 849 446 862 454 879 L 533 879 C 523 839 504 807 474 784 C 444 761 406 750 360 750 Z M 74 700 L 195 700 L 195 263 C 195 235 199 210 207 189 C 215 168 227 150 242 136 C 256 121 274 110 294 103 C 314 95 336 92 360 92 C 383 92 405 95 425 103 C 445 110 463 121 478 136 C 493 150 505 168 513 189 C 521 210 526 235 526 263 L 526 700 L 646 700 L 646 263 C 646 217 638 176 624 142 C 609 108 589 79 564 56 C 538 33 508 16 473 5 C 438 -6 400 -12 360 -12 C 319 -12 281 -6 246 5 C 211 16 181 33 156 56 C 130 79 110 108 96 142 C 81 176 74 217 74 263 L 74 700 Z" unicode="Ŭ" />
<glyph horiz-adv-x="588" d="M 293 576 C 242 576 202 591 173 621 C 143 651 126 692 122 744 L 199 744 C 202 714 212 692 228 676 C 244 660 265 653 293 653 C 319 653 341 660 357 676 C 373 692 383 714 387 744 L 463 744 C 459 691 442 650 412 620 C 382 590 342 576 293 576 Z M 67 529 L 183 529 L 183 176 C 183 146 188 123 200 105 C 212 87 233 79 265 79 C 293 79 318 85 341 98 C 363 110 384 128 404 150 L 404 529 L 520 529 L 520 0 L 413 0 L 406 64 C 385 42 360 24 332 10 C 303 -4 272 -12 238 -12 C 178 -12 134 5 107 40 C 80 74 67 120 67 178 L 67 529 Z" unicode="ŭ" />
<glyph horiz-adv-x="720" d="M 360 750 C 344 750 329 752 315 758 C 301 763 289 770 279 780 C 269 790 261 801 255 815 C 249 828 246 843 246 859 C 246 875 249 889 255 903 C 261 916 269 927 279 937 C 289 947 301 954 315 960 C 329 966 344 969 360 969 C 376 969 391 966 405 960 C 419 954 431 947 441 937 C 451 927 460 916 466 903 C 472 889 475 875 475 859 C 475 843 472 828 466 815 C 460 801 451 790 441 780 C 431 770 419 763 405 758 C 391 752 376 750 360 750 Z M 360 798 C 377 798 391 803 403 815 C 415 827 421 841 421 859 C 421 876 415 890 403 902 C 391 914 377 920 360 920 C 343 920 329 914 317 902 C 305 890 300 876 300 859 C 300 841 305 827 317 815 C 329 803 343 798 360 798 Z M 74 700 L 195 700 L 195 263 C 195 235 199 210 207 189 C 215 168 227 150 242 136 C 256 121 274 110 294 103 C 314 95 336 92 360 92 C 383 92 405 95 425 103 C 445 110 463 121 478 136 C 493 150 505 168 513 189 C 521 210 526 235 526 263 L 526 700 L 646 700 L 646 263 C 646 217 638 176 624 142 C 609 108 589 79 564 56 C 538 33 508 16 473 5 C 438 -6 400 -12 360 -12 C 319 -12 281 -6 246 5 C 211 16 181 33 156 56 C 130 79 110 108 96 142 C 81 176 74 217 74 263 L 74 700 Z" unicode="Ů" />
<glyph horiz-adv-x="588" d="M 293 578 C 277 578 262 580 248 586 C 234 592 222 599 212 609 C 202 619 194 630 188 644 C 182 657 179 671 179 687 C 179 703 182 717 188 731 C 194 744 202 755 212 765 C 222 775 234 782 248 788 C 262 794 277 797 293 797 C 309 797 323 794 337 788 C 351 782 363 775 373 765 C 383 755 392 744 398 731 C 404 717 407 703 407 687 C 407 671 404 657 398 644 C 392 630 383 619 373 609 C 363 599 351 592 337 586 C 323 580 309 578 293 578 Z M 293 626 C 310 626 324 631 336 643 C 348 655 354 669 354 687 C 354 704 348 718 336 730 C 324 742 310 748 293 748 C 275 748 261 742 249 730 C 237 718 232 704 232 687 C 232 669 237 655 249 643 C 261 631 275 626 293 626 Z M 67 529 L 183 529 L 183 176 C 183 146 188 123 200 105 C 212 87 233 79 265 79 C 293 79 318 85 341 98 C 363 110 384 128 404 150 L 404 529 L 520 529 L 520 0 L 413 0 L 406 64 C 385 42 360 24 332 10 C 303 -4 272 -12 238 -12 C 178 -12 134 5 107 40 C 80 74 67 120 67 178 L 67 529 Z" unicode="ů" />
<glyph horiz-adv-x="720" d="M 503 900 L 592 839 L 473 755 L 388 755 L 503 900 Z M 331 900 L 421 839 L 302 755 L 216 755 L 331 900 Z M 74 700 L 195 700 L 195 263 C 195 235 199 210 207 189 C 215 168 227 150 242 136 C 256 121 274 110 294 103 C 314 95 336 92 360 92 C 383 92 405 95 425 103 C 445 110 463 121 478 136 C 493 150 505 168 513 189 C 521 210 526 235 526 263 L 526 700 L 646 700 L 646 263 C 646 217 638 176 624 142 C 609 108 589 79 564 56 C 538 33 508 16 473 5 C 438 -6 400 -12 360 -12 C 319 -12 281 -6 246 5 C 211 16 181 33 156 56 C 130 79 110 108 96 142 C 81 176 74 217 74 263 L 74 700 Z" unicode="Ű" />
<glyph horiz-adv-x="588" d="M 463 769 L 544 714 L 410 584 L 337 584 L 463 769 Z M 286 769 L 368 714 L 233 584 L 159 584 L 286 769 Z M 67 529 L 183 529 L 183 176 C 183 146 188 123 200 105 C 212 87 233 79 265 79 C 293 79 318 85 341 98 C 363 110 384 128 404 150 L 404 529 L 520 529 L 520 0 L 413 0 L 406 64 C 385 42 360 24 332 10 C 303 -4 272 -12 238 -12 C 178 -12 134 5 107 40 C 80 74 67 120 67 178 L 67 529 Z" unicode="ű" />
<glyph horiz-adv-x="720" d="M 74 700 L 195 700 L 195 263 C 195 235 199 210 207 189 C 215 168 227 150 242 136 C 256 121 274 110 294 103 C 314 95 336 92 360 92 C 383 92 405 95 425 103 C 445 110 463 121 478 136 C 493 150 505 168 513 189 C 521 210 526 235 526 263 L 526 700 L 646 700 L 646 263 C 646 202 634 152 610 112 C 586 72 554 42 514 22 C 480 4 454 -12 438 -28 C 422 -44 414 -61 414 -80 C 414 -106 430 -120 464 -120 C 484 -120 502 -115 516 -107 L 519 -109 L 519 -194 C 508 -198 497 -201 485 -203 C 473 -205 460 -207 446 -207 C 409 -207 380 -197 359 -179 C 337 -160 327 -135 327 -105 C 327 -87 330 -71 338 -56 C 346 -40 356 -26 370 -12 L 360 -12 C 319 -12 281 -6 246 5 C 211 16 181 33 156 56 C 130 79 110 108 96 142 C 81 176 74 217 74 263 L 74 700 Z" unicode="Ų" />
<glyph horiz-adv-x="588" d="M 67 529 L 183 529 L 183 176 C 183 146 188 123 200 105 C 212 87 233 79 265 79 C 293 79 318 85 341 98 C 363 110 384 128 404 150 L 404 529 L 520 529 L 520 0 C 492 -10 471 -22 458 -35 C 444 -47 438 -63 438 -81 C 438 -93 442 -103 450 -110 C 458 -116 470 -120 484 -120 C 504 -120 522 -115 536 -107 L 539 -109 L 539 -194 C 516 -202 491 -207 465 -207 C 431 -207 403 -197 382 -179 C 361 -161 351 -136 351 -106 C 351 -84 356 -65 367 -47 C 378 -29 393 -13 413 0 L 406 64 C 385 42 360 24 332 10 C 303 -4 272 -12 238 -12 C 178 -12 134 5 107 40 C 80 74 67 120 67 178 L 67 529 Z" unicode="ų" />
<glyph horiz-adv-x="1048" d="M 469 879 L 579 879 L 702 755 L 623 755 L 525 817 L 524 817 L 425 755 L 347 755 L 469 879 Z M 27 700 L 154 700 L 315 169 L 317 169 L 469 700 L 581 700 L 732 169 L 734 169 L 896 700 L 1022 700 L 801 0 L 672 0 L 525 513 L 523 513 L 376 0 L 247 0 L 27 700 Z" unicode="Ŵ" />
<glyph horiz-adv-x="837" d="M 359 744 L 478 744 L 600 584 L 518 584 L 419 680 L 417 680 L 318 584 L 237 584 L 359 744 Z M 18 529 L 135 529 L 258 149 L 260 149 L 369 529 L 469 529 L 579 149 L 581 149 L 703 529 L 817 529 L 640 0 L 529 0 L 419 364 L 417 364 L 307 0 L 197 0 L 18 529 Z" unicode="ŵ" />
<glyph horiz-adv-x="691" d="M 290 879 L 400 879 L 523 755 L 444 755 L 346 817 L 345 817 L 246 755 L 168 755 L 290 879 Z M 285 283 L 21 700 L 162 700 L 345 399 L 347 399 L 531 700 L 670 700 L 406 283 L 406 0 L 285 0 L 285 283 Z" unicode="Ŷ" />
<glyph horiz-adv-x="533" d="M 208 744 L 327 744 L 449 584 L 367 584 L 268 680 L 266 680 L 167 584 L 86 584 L 208 744 Z M 45 -97 C 57 -101 69 -105 81 -109 C 93 -113 104 -115 116 -115 C 134 -115 148 -111 160 -103 C 172 -95 181 -80 189 -59 L 213 3 L 19 529 L 138 529 L 269 149 L 271 149 L 398 529 L 514 529 L 304 -64 C 293 -92 281 -116 269 -135 C 256 -154 242 -169 227 -180 C 211 -191 195 -199 177 -203 C 159 -207 141 -210 121 -210 C 101 -210 81 -208 62 -204 C 43 -200 26 -195 11 -190 L 45 -97 Z" unicode="ŷ" />
<glyph horiz-adv-x="691" d="M 187 868 L 288 868 L 288 766 L 187 766 L 187 868 Z M 403 868 L 504 868 L 504 766 L 403 766 L 403 868 Z M 285 283 L 21 700 L 162 700 L 345 399 L 347 399 L 531 700 L 670 700 L 406 283 L 406 0 L 285 0 L 285 283 Z" unicode="Ÿ" />
<glyph horiz-adv-x="650" d="M 379 900 L 469 839 L 350 755 L 265 755 L 379 900 Z M 51 93 L 436 592 L 52 592 L 52 700 L 592 700 L 592 608 L 209 109 L 604 109 L 604 0 L 51 0 L 51 93 Z" unicode="Ź" />
<glyph horiz-adv-x="514" d="M 334 769 L 414 710 L 272 584 L 195 584 L 334 769 Z M 46 78 L 319 436 L 53 436 L 53 529 L 465 529 L 465 450 L 193 92 L 475 92 L 475 0 L 46 0 L 46 78 Z" unicode="ź" />
<glyph horiz-adv-x="650" d="M 252 880 L 369 880 L 369 769 L 252 769 L 252 880 Z M 51 93 L 436 592 L 52 592 L 52 700 L 592 700 L 592 608 L 209 109 L 604 109 L 604 0 L 51 0 L 51 93 Z" unicode="Ż" />
<glyph horiz-adv-x="514" d="M 192 746 L 309 746 L 309 635 L 192 635 L 192 746 Z M 46 78 L 319 436 L 53 436 L 53 529 L 465 529 L 465 450 L 193 92 L 475 92 L 475 0 L 46 0 L 46 78 Z" unicode="ż" />
<glyph horiz-adv-x="650" d="M 148 879 L 226 879 L 324 817 L 325 817 L 424 879 L 503 879 L 380 755 L 269 755 L 148 879 Z M 51 93 L 436 592 L 52 592 L 52 700 L 592 700 L 592 608 L 209 109 L 604 109 L 604 0 L 51 0 L 51 93 Z" unicode="Ž" />
<glyph horiz-adv-x="514" d="M 76 744 L 157 744 L 256 648 L 258 648 L 357 744 L 439 744 L 317 584 L 198 584 L 76 744 Z M 46 78 L 319 436 L 53 436 L 53 529 L 465 529 L 465 450 L 193 92 L 475 92 L 475 0 L 46 0 L 46 78 Z" unicode="ž" />
<glyph horiz-adv-x="724" d="M 552 364 C 551 402 545 437 534 467 C 523 497 508 522 489 543 C 469 563 446 579 420 590 C 393 601 364 607 332 607 C 302 607 273 602 244 593 C 215 583 186 568 156 546 L 92 632 C 130 659 169 679 210 692 C 250 705 292 712 334 712 C 385 712 431 703 473 687 C 515 671 551 647 581 617 C 611 587 634 550 650 506 C 666 462 675 413 675 358 C 675 300 667 248 651 202 C 635 156 612 118 582 86 C 552 54 517 30 476 13 C 434 -3 389 -12 339 -12 C 293 -12 253 -4 218 10 C 182 25 153 46 129 73 C 105 100 86 132 74 170 C 62 208 56 250 56 296 C 56 307 56 318 57 330 C 58 341 59 352 61 364 L 552 364 Z M 340 89 C 396 89 442 106 478 140 C 513 174 536 222 546 283 L 173 283 C 173 217 189 169 220 137 C 251 105 291 89 340 89 Z" unicode="Ə" />
<glyph horiz-adv-x="412" d="M -27 -105 C -17 -108 -7 -111 3 -113 C 14 -115 26 -116 38 -116 C 59 -116 75 -109 87 -96 C 98 -82 104 -59 104 -25 L 104 386 L 14 386 L 14 475 L 104 475 L 104 505 C 104 543 109 575 119 601 C 129 627 144 649 163 665 C 181 681 204 693 230 701 C 256 708 284 712 315 712 C 334 712 353 710 372 706 C 390 702 407 698 421 693 L 392 607 C 381 610 370 613 358 615 C 346 617 333 619 318 619 C 284 619 260 609 245 591 C 229 572 222 544 222 506 L 222 474 L 362 474 L 362 386 L 222 386 L 222 -25 C 222 -59 218 -88 210 -112 C 202 -135 191 -154 177 -168 C 162 -182 144 -193 123 -199 C 101 -205 77 -209 50 -209 C 32 -209 14 -207 -4 -204 C -22 -200 -40 -196 -56 -190 L -27 -105 Z" unicode="ƒ" />
<glyph horiz-adv-x="679" d="M 77 700 L 197 700 L 197 330 C 213 336 227 345 239 356 C 251 367 263 379 273 393 C 283 407 293 421 301 436 C 309 451 317 466 325 481 C 340 515 356 544 372 570 C 388 596 408 618 430 637 C 452 655 477 670 507 681 C 536 691 572 699 614 703 L 614 608 C 586 604 563 597 544 589 C 525 580 508 568 494 554 C 480 540 467 522 456 502 C 444 482 432 458 420 432 L 415 422 L 655 0 L 516 0 L 344 315 C 325 295 304 278 281 264 C 257 250 229 238 197 228 L 197 0 L 77 0 L 77 700 Z" unicode="Ƙ" />
<glyph horiz-adv-x="561" d="M 72 575 C 72 609 76 637 85 661 C 93 684 106 703 122 718 C 138 733 157 744 180 751 C 203 757 229 761 257 761 L 257 665 C 235 665 218 658 206 646 C 194 633 189 609 189 575 L 189 283 L 396 529 L 526 529 L 362 345 L 545 0 L 412 0 L 285 257 L 189 149 L 189 0 L 72 0 L 72 575 Z" unicode="ƙ" />
<glyph horiz-adv-x="811" d="M 48 354 C 48 408 57 457 75 501 C 93 545 119 583 151 614 C 183 645 220 669 264 686 C 308 703 355 712 406 712 C 456 712 503 703 547 686 C 591 669 629 645 661 614 C 693 583 718 545 736 501 C 754 457 763 408 763 354 C 763 298 754 248 736 203 C 718 158 693 120 661 88 C 629 56 591 31 547 14 C 503 -3 456 -12 406 -12 C 355 -12 308 -3 264 14 C 220 31 183 56 151 88 C 119 120 93 158 75 203 C 57 248 48 298 48 354 Z M 406 609 C 375 609 346 604 319 594 C 292 584 268 569 248 550 C 227 531 210 508 197 481 C 183 453 175 422 172 388 L 639 388 C 635 422 627 453 614 481 C 601 508 584 531 564 550 C 543 569 519 584 492 594 C 465 604 436 609 406 609 Z M 406 92 C 436 92 464 97 491 107 C 517 117 541 131 562 150 C 582 169 599 192 613 220 C 626 248 635 279 639 314 L 173 314 C 177 279 185 248 199 220 C 212 192 229 169 250 150 C 270 131 294 117 321 107 C 347 97 376 92 406 92 Z" unicode="Ɵ" />
<glyph horiz-adv-x="634" d="M 401 592 L 37 592 L 37 700 L 579 700 L 579 615 L 260 305 C 273 309 289 312 309 315 C 328 318 345 320 361 320 C 397 320 430 313 461 300 C 491 286 518 268 540 245 C 562 222 580 195 592 165 C 604 134 611 101 611 66 C 611 19 602 -21 584 -55 C 566 -89 542 -118 512 -141 C 481 -164 446 -181 406 -193 C 366 -204 323 -210 278 -210 C 234 -210 191 -205 149 -195 C 107 -185 67 -171 29 -152 L 73 -61 C 104 -77 136 -89 170 -98 C 203 -106 238 -111 275 -111 C 305 -111 333 -107 359 -100 C 385 -92 407 -81 426 -66 C 445 -51 460 -32 471 -10 C 481 11 487 38 487 69 C 487 120 469 160 435 190 C 401 219 354 234 295 234 C 273 234 250 232 226 229 C 201 226 179 222 160 217 L 108 299 L 401 592 Z" unicode="Ʒ" />
<glyph horiz-adv-x="708" d="M 177 879 L 255 879 L 353 817 L 354 817 L 453 879 L 532 879 L 409 755 L 298 755 L 177 879 Z M 239 248 L 467 248 L 354 574 L 352 574 L 239 248 Z M 283 700 L 424 700 L 683 0 L 554 0 L 501 151 L 206 151 L 154 0 L 24 0 L 283 700 Z" unicode="Ǎ" />
<glyph horiz-adv-x="549" d="M 99 744 L 180 744 L 279 648 L 281 648 L 380 744 L 462 744 L 340 584 L 221 584 L 99 744 Z M 161 138 C 161 118 167 103 181 92 C 194 81 211 76 233 76 C 259 76 283 80 303 90 C 323 100 340 112 354 128 L 354 241 C 331 240 308 238 285 235 C 262 231 241 226 223 218 C 204 210 189 200 178 187 C 166 174 161 158 161 138 Z M 45 128 C 45 160 53 187 69 209 C 85 231 106 250 134 265 C 162 279 194 290 232 298 C 270 306 310 311 354 313 L 354 372 C 354 394 347 411 333 425 C 319 439 298 446 268 446 C 242 446 215 441 187 431 C 159 421 130 408 101 394 L 58 485 C 90 500 124 513 162 524 C 200 535 236 541 272 541 C 307 541 337 536 362 528 C 387 520 408 508 424 493 C 440 477 451 459 459 438 C 466 417 470 394 470 369 L 470 130 C 470 112 474 100 483 93 C 491 85 503 82 519 82 L 519 -2 C 475 -2 442 2 420 12 C 398 21 381 37 368 60 C 346 38 322 20 296 7 C 270 -5 239 -12 204 -12 C 156 -12 118 0 89 26 C 59 52 45 86 45 128 Z" unicode="ǎ" />
<glyph horiz-adv-x="273" d="M -40 879 L 38 879 L 136 817 L 137 817 L 236 879 L 315 879 L 192 755 L 81 755 L -40 879 Z M 77 700 L 197 700 L 197 0 L 77 0 L 77 700 Z" unicode="Ǐ" />
<glyph horiz-adv-x="260" d="M -52 744 L 29 744 L 128 648 L 130 648 L 229 744 L 311 744 L 189 584 L 70 584 L -52 744 Z M 72 524 L 188 524 L 188 0 L 72 0 L 72 524 Z" unicode="ǐ" />
<glyph horiz-adv-x="811" d="M 229 879 L 307 879 L 405 817 L 406 817 L 505 879 L 584 879 L 461 755 L 350 755 L 229 879 Z M 48 354 C 48 408 57 457 75 501 C 93 545 119 583 151 614 C 183 645 220 669 264 686 C 308 703 355 712 406 712 C 456 712 503 703 547 686 C 591 669 629 645 661 614 C 693 583 718 545 736 501 C 754 457 763 408 763 354 C 763 298 754 248 736 203 C 718 158 693 120 661 88 C 629 56 591 31 547 14 C 503 -3 456 -12 406 -12 C 355 -12 308 -3 264 14 C 220 31 183 56 151 88 C 119 120 93 158 75 203 C 57 248 48 298 48 354 Z M 171 354 C 171 313 177 276 189 244 C 201 211 217 183 239 161 C 260 139 285 122 314 110 C 342 98 373 92 406 92 C 439 92 470 98 498 110 C 526 122 551 139 573 161 C 594 183 611 211 623 244 C 635 276 641 313 641 354 C 641 393 635 428 623 460 C 611 492 594 519 573 541 C 552 563 527 579 499 591 C 470 603 439 609 406 609 C 372 609 341 603 313 591 C 284 579 259 563 238 541 C 217 519 201 492 189 460 C 177 428 171 393 171 354 Z" unicode="Ǒ" />
<glyph horiz-adv-x="609" d="M 123 744 L 204 744 L 303 648 L 305 648 L 404 744 L 486 744 L 364 584 L 245 584 L 123 744 Z M 43 271 C 43 312 49 349 63 382 C 76 415 94 443 118 467 C 141 491 169 509 201 522 C 233 534 267 541 305 541 C 342 541 376 534 408 522 C 440 509 467 491 491 467 C 514 443 532 415 545 382 C 558 349 565 312 565 271 C 565 227 558 187 546 153 C 533 118 515 88 493 64 C 470 39 443 20 411 7 C 379 -5 343 -12 305 -12 C 265 -12 230 -5 198 7 C 166 20 138 39 115 64 C 92 88 74 118 62 153 C 49 187 43 227 43 271 Z M 161 270 C 161 212 173 165 198 131 C 223 96 259 79 305 79 C 349 79 383 96 408 131 C 433 165 446 212 446 270 C 446 296 442 321 436 343 C 429 365 419 383 407 399 C 394 415 379 427 362 436 C 345 444 326 449 305 449 C 283 449 264 444 246 436 C 228 427 213 415 201 399 C 188 383 178 365 171 343 C 164 321 161 296 161 270 Z" unicode="ǒ" />
<glyph horiz-adv-x="720" d="M 183 879 L 261 879 L 359 817 L 360 817 L 459 879 L 538 879 L 415 755 L 304 755 L 183 879 Z M 74 700 L 195 700 L 195 263 C 195 235 199 210 207 189 C 215 168 227 150 242 136 C 256 121 274 110 294 103 C 314 95 336 92 360 92 C 383 92 405 95 425 103 C 445 110 463 121 478 136 C 493 150 505 168 513 189 C 521 210 526 235 526 263 L 526 700 L 646 700 L 646 263 C 646 217 638 176 624 142 C 609 108 589 79 564 56 C 538 33 508 16 473 5 C 438 -6 400 -12 360 -12 C 319 -12 281 -6 246 5 C 211 16 181 33 156 56 C 130 79 110 108 96 142 C 81 176 74 217 74 263 L 74 700 Z" unicode="Ǔ" />
<glyph horiz-adv-x="588" d="M 112 744 L 193 744 L 292 648 L 294 648 L 393 744 L 475 744 L 353 584 L 234 584 L 112 744 Z M 67 529 L 183 529 L 183 176 C 183 146 188 123 200 105 C 212 87 233 79 265 79 C 293 79 318 85 341 98 C 363 110 384 128 404 150 L 404 529 L 520 529 L 520 0 L 413 0 L 406 64 C 385 42 360 24 332 10 C 303 -4 272 -12 238 -12 C 178 -12 134 5 107 40 C 80 74 67 120 67 178 L 67 529 Z" unicode="ǔ" />
<glyph horiz-adv-x="708" d="M 197 980 L 510 980 L 510 903 L 197 903 L 197 980 Z M 196 857 L 297 857 L 297 755 L 196 755 L 196 857 Z M 412 857 L 513 857 L 513 755 L 412 755 L 412 857 Z M 239 248 L 467 248 L 354 574 L 352 574 L 239 248 Z M 283 700 L 424 700 L 683 0 L 554 0 L 501 151 L 206 151 L 154 0 L 24 0 L 283 700 Z" unicode="Ǟ" />
<glyph horiz-adv-x="549" d="M 124 852 L 435 852 L 435 775 L 124 775 L 124 852 Z M 124 710 L 225 710 L 225 608 L 124 608 L 124 710 Z M 336 710 L 436 710 L 436 608 L 336 608 L 336 710 Z M 161 138 C 161 118 167 103 181 92 C 194 81 211 76 233 76 C 259 76 283 80 303 90 C 323 100 340 112 354 128 L 354 241 C 331 240 308 238 285 235 C 262 231 241 226 223 218 C 204 210 189 200 178 187 C 166 174 161 158 161 138 Z M 45 128 C 45 160 53 187 69 209 C 85 231 106 250 134 265 C 162 279 194 290 232 298 C 270 306 310 311 354 313 L 354 372 C 354 394 347 411 333 425 C 319 439 298 446 268 446 C 242 446 215 441 187 431 C 159 421 130 408 101 394 L 58 485 C 90 500 124 513 162 524 C 200 535 236 541 272 541 C 307 541 337 536 362 528 C 387 520 408 508 424 493 C 440 477 451 459 459 438 C 466 417 470 394 470 369 L 470 130 C 470 112 474 100 483 93 C 491 85 503 82 519 82 L 519 -2 C 475 -2 442 2 420 12 C 398 21 381 37 368 60 C 346 38 322 20 296 7 C 270 -5 239 -12 204 -12 C 156 -12 118 0 89 26 C 59 52 45 86 45 128 Z" unicode="ǟ" />
<glyph horiz-adv-x="1057" d="M 350 855 L 663 855 L 663 778 L 350 778 L 350 855 Z M 264 251 L 510 251 L 418 594 L 414 594 L 264 251 Z M 536 151 L 220 151 L 154 0 L 19 0 L 339 700 L 994 700 L 994 594 L 537 594 L 590 406 L 955 406 L 955 306 L 619 306 L 676 106 L 1000 106 L 1000 0 L 577 0 L 536 151 Z" unicode="Ǣ" />
<glyph horiz-adv-x="883" d="M 285 702 L 596 702 L 596 625 L 285 625 L 285 702 Z M 409 81 C 399 69 387 57 373 46 C 359 34 343 24 326 16 C 309 7 291 0 271 -5 C 251 -10 230 -13 208 -13 C 158 -13 119 0 89 25 C 59 51 45 85 45 127 C 45 159 52 186 68 208 C 84 230 106 249 134 263 C 162 277 195 287 233 295 C 271 302 311 307 355 309 L 355 373 C 355 394 348 411 335 425 C 321 439 300 446 271 446 C 245 446 218 441 190 431 C 161 421 132 409 102 394 L 58 485 C 92 500 127 513 165 525 C 202 536 238 542 272 542 C 316 542 351 534 377 520 C 403 505 421 486 433 462 C 454 487 480 507 511 521 C 541 535 576 542 615 542 C 653 542 686 535 714 523 C 742 511 765 494 783 473 C 801 451 815 426 825 396 C 834 366 839 334 839 300 C 839 292 838 282 837 272 C 836 262 835 253 834 247 L 472 247 C 474 193 488 152 513 124 C 538 96 575 82 623 82 C 650 82 676 86 701 95 C 725 104 749 116 771 130 L 822 53 C 790 31 757 14 723 3 C 689 -7 654 -13 618 -13 C 572 -13 531 -5 496 11 C 461 27 432 50 409 81 Z M 726 322 C 726 340 724 358 720 374 C 716 390 709 404 701 416 C 692 428 681 437 667 444 C 653 451 636 455 616 455 C 580 455 549 443 524 420 C 499 396 483 364 475 322 L 726 322 Z M 162 137 C 162 119 168 104 182 92 C 195 80 212 75 234 75 C 265 75 292 81 315 95 C 337 109 356 127 372 149 C 362 177 357 207 355 240 C 332 239 309 237 286 234 C 263 230 242 225 224 218 C 206 210 191 200 179 187 C 167 174 162 157 162 137 Z" unicode="ǣ" />
<glyph horiz-adv-x="735" d="M 48 356 C 48 407 56 454 73 498 C 90 542 114 579 146 611 C 177 643 215 667 259 685 C 303 703 353 712 407 712 C 455 712 499 705 540 691 C 580 677 619 657 655 633 L 593 548 C 565 567 536 582 506 592 C 476 602 444 608 410 608 C 374 608 341 601 312 589 C 282 577 257 559 236 537 C 215 515 199 488 188 458 C 176 427 171 393 171 356 C 171 316 176 279 187 247 C 198 214 214 186 234 163 C 254 140 279 122 309 110 C 339 98 372 92 410 92 C 436 92 461 95 486 101 C 510 107 532 115 550 126 L 550 292 L 374 292 L 374 381 L 661 381 L 661 255 L 746 255 L 746 178 L 661 178 L 661 64 C 627 40 588 21 545 8 C 501 -5 455 -12 407 -12 C 352 -12 302 -3 258 14 C 214 32 176 57 145 89 C 114 121 90 160 73 206 C 56 251 48 301 48 356 Z" unicode="Ǥ" />
<glyph horiz-adv-x="586" d="M 272 235 C 304 235 330 245 351 265 C 371 285 382 313 382 347 C 382 381 371 408 351 428 C 330 448 304 459 272 459 C 239 459 212 448 192 428 C 171 408 161 381 161 347 C 161 313 171 285 192 265 C 212 245 239 235 272 235 Z M -21 29 L 82 29 C 85 31 88 33 92 35 C 96 37 100 40 104 42 C 81 60 70 83 70 111 C 70 130 75 147 86 161 C 96 175 109 187 125 196 C 101 212 83 233 69 258 C 55 283 48 313 48 347 C 48 376 53 402 65 426 C 77 450 93 470 113 487 C 133 504 156 517 184 527 C 211 536 240 541 272 541 C 300 541 327 537 352 529 C 377 521 399 509 419 495 C 437 509 456 521 478 529 C 500 537 528 542 563 542 L 563 456 C 543 456 526 455 510 454 C 494 453 479 450 465 446 C 473 432 480 416 485 400 C 490 383 493 365 493 347 C 493 315 486 287 474 263 C 461 239 444 218 424 202 C 404 186 380 173 354 165 C 327 156 300 152 272 152 C 242 152 214 156 186 166 C 169 158 161 146 161 131 C 161 123 163 117 168 112 C 173 106 182 102 194 99 C 206 95 223 92 243 90 C 263 88 289 86 319 85 C 363 82 402 76 435 68 C 467 59 493 46 513 29 L 592 29 L 592 -46 L 548 -46 C 548 -48 549 -53 549 -59 C 549 -105 527 -142 484 -169 C 441 -196 375 -210 286 -210 C 202 -210 137 -198 92 -174 C 46 -150 24 -115 24 -69 C 24 -65 24 -61 24 -57 C 24 -53 25 -49 26 -46 L -21 -46 L -21 29 Z M 298 -9 C 276 -7 255 -6 237 -4 C 218 -2 201 1 186 5 C 170 -2 158 -11 149 -23 C 139 -35 135 -48 135 -64 C 135 -86 146 -103 169 -114 C 192 -124 229 -130 281 -130 C 386 -130 439 -110 439 -70 C 439 -48 428 -33 407 -25 C 386 -17 350 -11 298 -9 Z" unicode="ǥ" />
<glyph horiz-adv-x="731" d="M 203 879 L 281 879 L 379 817 L 380 817 L 479 879 L 558 879 L 435 755 L 324 755 L 203 879 Z M 48 356 C 48 407 56 454 73 498 C 90 542 114 579 146 611 C 177 643 215 667 259 685 C 303 703 353 712 407 712 C 455 712 499 705 540 691 C 580 677 619 657 655 633 L 593 548 C 565 567 536 582 506 592 C 476 602 444 608 410 608 C 374 608 341 601 312 589 C 282 577 257 559 236 537 C 215 515 199 488 188 458 C 176 427 171 393 171 356 C 171 316 176 279 187 247 C 198 214 214 186 234 163 C 254 140 279 122 309 110 C 339 98 372 92 410 92 C 436 92 461 95 486 101 C 510 107 532 115 550 126 L 550 292 L 374 292 L 374 381 L 661 381 L 661 64 C 627 40 588 21 545 8 C 501 -5 455 -12 407 -12 C 352 -12 302 -3 258 14 C 214 32 176 57 145 89 C 114 121 90 160 73 206 C 56 251 48 301 48 356 Z" unicode="Ǧ" />
<glyph horiz-adv-x="586" d="M 115 744 L 196 744 L 295 648 L 297 648 L 396 744 L 478 744 L 356 584 L 237 584 L 115 744 Z M 272 235 C 304 235 330 245 351 265 C 371 285 382 313 382 347 C 382 381 371 408 351 428 C 330 448 304 459 272 459 C 239 459 212 448 192 428 C 171 408 161 381 161 347 C 161 313 171 285 192 265 C 212 245 239 235 272 235 Z M 24 -69 C 24 -45 31 -23 46 -5 C 60 13 80 29 104 42 C 81 60 70 83 70 111 C 70 130 75 147 86 161 C 96 175 109 187 125 196 C 101 212 83 233 69 258 C 55 283 48 313 48 347 C 48 376 53 402 65 426 C 77 450 93 470 113 487 C 133 504 156 517 184 527 C 211 536 240 541 272 541 C 300 541 327 537 352 529 C 377 521 399 509 419 495 C 437 509 456 521 478 529 C 500 537 528 542 563 542 L 563 456 C 543 456 526 455 510 454 C 494 453 479 450 465 446 C 473 432 480 416 485 400 C 490 383 493 365 493 347 C 493 315 486 287 474 263 C 461 239 444 218 424 202 C 404 186 380 173 354 165 C 327 156 300 152 272 152 C 242 152 214 156 186 166 C 169 158 161 146 161 131 C 161 123 163 117 168 112 C 173 106 182 102 194 99 C 206 95 223 92 243 90 C 263 88 289 86 319 85 C 391 81 448 68 488 47 C 528 25 549 -9 549 -59 C 549 -105 527 -142 484 -169 C 441 -196 375 -210 286 -210 C 202 -210 137 -198 92 -174 C 46 -150 24 -115 24 -69 Z M 298 -9 C 276 -7 255 -6 237 -4 C 218 -2 201 1 186 5 C 170 -2 158 -11 149 -23 C 139 -35 135 -48 135 -64 C 135 -86 146 -103 169 -114 C 192 -124 229 -130 281 -130 C 386 -130 439 -110 439 -70 C 439 -48 428 -33 407 -25 C 386 -17 350 -11 298 -9 Z" unicode="ǧ" />
<glyph horiz-adv-x="679" d="M 161 879 L 239 879 L 337 817 L 338 817 L 437 879 L 516 879 L 393 755 L 282 755 L 161 879 Z M 77 700 L 197 700 L 197 348 L 494 700 L 631 700 L 404 435 L 655 0 L 516 0 L 326 344 L 197 194 L 197 0 L 77 0 L 77 700 Z" unicode="Ǩ" />
<glyph horiz-adv-x="561" d="M -45 921 L 33 921 L 131 859 L 132 859 L 231 921 L 310 921 L 187 797 L 76 797 L -45 921 Z M 72 755 L 189 755 L 189 283 L 397 529 L 526 529 L 362 345 L 545 0 L 412 0 L 285 258 L 189 149 L 189 0 L 72 0 L 72 755 Z" unicode="ǩ" />
<glyph horiz-adv-x="811" d="M 48 354 C 48 408 57 457 75 501 C 93 545 119 583 151 614 C 183 645 220 669 264 686 C 308 703 355 712 406 712 C 456 712 503 703 547 686 C 591 669 629 645 661 614 C 693 583 718 545 736 501 C 754 457 763 408 763 354 C 763 276 745 209 711 153 C 677 97 631 54 575 26 C 545 11 519 -4 498 -21 C 477 -37 467 -57 467 -80 C 467 -106 483 -120 517 -120 C 537 -120 555 -115 569 -107 L 572 -109 L 572 -194 C 561 -198 550 -201 538 -203 C 526 -205 513 -207 499 -207 C 462 -207 433 -197 412 -179 C 390 -160 380 -135 380 -105 C 380 -87 383 -71 391 -55 C 399 -39 409 -25 423 -12 L 406 -12 C 355 -12 308 -3 264 14 C 220 31 183 56 151 88 C 119 120 93 158 75 203 C 57 248 48 298 48 354 Z M 171 354 C 171 313 177 276 189 244 C 201 211 217 183 239 161 C 260 139 285 122 314 110 C 342 98 373 92 406 92 C 439 92 470 98 498 110 C 526 122 551 139 573 161 C 594 183 611 211 623 244 C 635 276 641 313 641 354 C 641 393 635 428 623 460 C 611 492 594 519 573 541 C 552 563 527 579 499 591 C 470 603 439 609 406 609 C 372 609 341 603 313 591 C 284 579 259 563 238 541 C 217 519 201 492 189 460 C 177 428 171 393 171 354 Z" unicode="Ǫ" />
<glyph horiz-adv-x="609" d="M 43 271 C 43 312 49 349 63 382 C 76 415 94 443 118 467 C 141 491 169 509 201 522 C 233 534 267 541 305 541 C 342 541 376 534 408 522 C 440 509 467 491 491 467 C 514 443 532 415 545 382 C 558 349 565 312 565 271 C 565 213 554 163 532 121 C 510 79 481 47 445 25 C 410 3 384 -14 367 -29 C 349 -44 341 -61 341 -81 C 341 -107 357 -121 390 -121 C 410 -121 428 -116 442 -108 L 445 -110 L 445 -194 C 422 -202 398 -207 373 -207 C 336 -207 307 -197 286 -179 C 265 -160 255 -135 255 -105 C 255 -87 258 -71 266 -56 C 274 -40 284 -26 298 -12 L 296 -12 C 258 -11 223 -4 192 9 C 161 23 135 42 113 66 C 91 90 73 120 61 155 C 49 189 43 228 43 271 Z M 161 270 C 161 212 173 165 198 131 C 223 96 259 79 305 79 C 349 79 383 96 408 131 C 433 165 446 212 446 270 C 446 296 442 321 436 343 C 429 365 419 383 407 399 C 394 415 379 427 362 436 C 345 444 326 449 305 449 C 283 449 264 444 246 436 C 228 427 213 415 201 399 C 188 383 178 365 171 343 C 164 321 161 296 161 270 Z" unicode="ǫ" />
<glyph horiz-adv-x="811" d="M 250 855 L 563 855 L 563 778 L 250 778 L 250 855 Z M 48 354 C 48 408 57 457 75 501 C 93 545 119 583 151 614 C 183 645 220 669 264 686 C 308 703 355 712 406 712 C 456 712 503 703 547 686 C 591 669 629 645 661 614 C 693 583 718 545 736 501 C 754 457 763 408 763 354 C 763 276 745 209 711 153 C 677 97 631 54 575 26 C 545 11 519 -4 498 -21 C 477 -37 467 -57 467 -80 C 467 -106 483 -120 517 -120 C 537 -120 555 -115 569 -107 L 572 -109 L 572 -194 C 561 -198 550 -201 538 -203 C 526 -205 513 -207 499 -207 C 462 -207 433 -197 412 -179 C 390 -160 380 -135 380 -105 C 380 -87 383 -71 391 -55 C 399 -39 409 -25 423 -12 L 406 -12 C 355 -12 308 -3 264 14 C 220 31 183 56 151 88 C 119 120 93 158 75 203 C 57 248 48 298 48 354 Z M 171 354 C 171 313 177 276 189 244 C 201 211 217 183 239 161 C 260 139 285 122 314 110 C 342 98 373 92 406 92 C 439 92 470 98 498 110 C 526 122 551 139 573 161 C 594 183 611 211 623 244 C 635 276 641 313 641 354 C 641 393 635 428 623 460 C 611 492 594 519 573 541 C 552 563 527 579 499 591 C 470 603 439 609 406 609 C 372 609 341 603 313 591 C 284 579 259 563 238 541 C 217 519 201 492 189 460 C 177 428 171 393 171 354 Z" unicode="Ǭ" />
<glyph horiz-adv-x="609" d="M 149 702 L 460 702 L 460 625 L 149 625 L 149 702 Z M 43 271 C 43 312 49 349 63 382 C 76 415 94 443 118 467 C 141 491 169 509 201 522 C 233 534 267 541 305 541 C 342 541 376 534 408 522 C 440 509 467 491 491 467 C 514 443 532 415 545 382 C 558 349 565 312 565 271 C 565 213 554 163 532 121 C 510 79 481 47 445 25 C 410 3 384 -14 367 -29 C 349 -44 341 -61 341 -81 C 341 -107 357 -121 390 -121 C 410 -121 428 -116 442 -108 L 445 -110 L 445 -194 C 422 -202 398 -207 373 -207 C 336 -207 307 -197 286 -179 C 265 -160 255 -135 255 -105 C 255 -87 258 -71 266 -56 C 274 -40 284 -26 298 -12 L 296 -12 C 258 -11 223 -4 192 9 C 161 23 135 42 113 66 C 91 90 73 120 61 155 C 49 189 43 228 43 271 Z M 161 270 C 161 212 173 165 198 131 C 223 96 259 79 305 79 C 349 79 383 96 408 131 C 433 165 446 212 446 270 C 446 296 442 321 436 343 C 429 365 419 383 407 399 C 394 415 379 427 362 436 C 345 444 326 449 305 449 C 283 449 264 444 246 436 C 228 427 213 415 201 399 C 188 383 178 365 171 343 C 164 321 161 296 161 270 Z" unicode="ǭ" />
<glyph horiz-adv-x="634" d="M 131 879 L 209 879 L 307 817 L 308 817 L 407 879 L 486 879 L 363 755 L 252 755 L 131 879 Z M 401 592 L 37 592 L 37 700 L 579 700 L 579 615 L 260 305 C 273 309 289 312 309 315 C 328 318 345 320 361 320 C 397 320 430 313 461 300 C 491 286 518 268 540 245 C 562 222 580 195 592 165 C 604 134 611 101 611 66 C 611 19 602 -21 584 -55 C 566 -89 542 -118 512 -141 C 481 -164 446 -181 406 -193 C 366 -204 323 -210 278 -210 C 234 -210 191 -205 149 -195 C 107 -185 67 -171 29 -152 L 73 -61 C 104 -77 136 -89 170 -98 C 203 -106 238 -111 275 -111 C 305 -111 333 -107 359 -100 C 385 -92 407 -81 426 -66 C 445 -51 460 -32 471 -10 C 481 11 487 38 487 69 C 487 120 469 160 435 190 C 401 219 354 234 295 234 C 273 234 250 232 226 229 C 201 226 179 222 160 217 L 108 299 L 401 592 Z" unicode="Ǯ" />
<glyph horiz-adv-x="526" d="M 75 745 L 156 745 L 255 649 L 257 649 L 356 745 L 438 745 L 316 585 L 197 585 L 75 745 Z M 329 436 L 45 436 L 45 529 L 472 529 L 472 453 L 238 217 C 248 218 259 219 271 220 C 283 221 294 222 305 222 C 333 222 360 217 384 207 C 408 197 430 183 448 165 C 466 147 480 127 490 103 C 500 79 505 52 505 24 C 505 -13 498 -46 484 -75 C 470 -104 450 -128 426 -148 C 401 -168 372 -183 339 -193 C 306 -203 271 -209 234 -209 C 195 -209 157 -204 119 -194 C 81 -184 49 -171 21 -156 L 60 -67 C 84 -80 111 -91 141 -100 C 171 -109 201 -114 231 -114 C 279 -114 318 -101 347 -76 C 376 -51 391 -17 391 27 C 391 48 387 66 379 82 C 371 97 361 109 347 119 C 333 129 317 136 299 140 C 281 144 261 147 240 147 C 224 147 209 146 193 145 C 177 144 163 142 149 140 L 109 210 L 329 436 Z" unicode="ǯ" />
<glyph horiz-adv-x="270" d="M -41 744 L 40 744 L 139 648 L 141 648 L 240 744 L 322 744 L 200 584 L 81 584 L -41 744 Z M 82 524 L 198 524 L 198 -16 C 198 -85 182 -135 151 -165 C 120 -195 78 -210 25 -210 C 5 -210 -11 -208 -27 -205 C -42 -201 -54 -198 -62 -195 L -39 -105 C -31 -107 -22 -109 -14 -111 C -5 -113 3 -114 13 -114 C 35 -114 52 -107 64 -93 C 76 -79 82 -55 82 -21 L 82 524 Z" unicode="ǰ" />
<glyph horiz-adv-x="731" d="M 439 900 L 529 839 L 410 755 L 325 755 L 439 900 Z M 48 356 C 48 407 56 454 73 498 C 90 542 114 579 146 611 C 177 643 215 667 259 685 C 303 703 353 712 407 712 C 455 712 499 705 540 691 C 580 677 619 657 655 633 L 593 548 C 565 567 536 582 506 592 C 476 602 444 608 410 608 C 374 608 341 601 312 589 C 282 577 257 559 236 537 C 215 515 199 488 188 458 C 176 427 171 393 171 356 C 171 316 176 279 187 247 C 198 214 214 186 234 163 C 254 140 279 122 309 110 C 339 98 372 92 410 92 C 436 92 461 95 486 101 C 510 107 532 115 550 126 L 550 292 L 374 292 L 374 381 L 661 381 L 661 64 C 627 40 588 21 545 8 C 501 -5 455 -12 407 -12 C 352 -12 302 -3 258 14 C 214 32 176 57 145 89 C 114 121 90 160 73 206 C 56 251 48 301 48 356 Z" unicode="Ǵ" />
<glyph horiz-adv-x="586" d="M 366 769 L 446 710 L 304 584 L 227 584 L 366 769 Z M 272 235 C 304 235 330 245 351 265 C 371 285 382 313 382 347 C 382 381 371 408 351 428 C 330 448 304 459 272 459 C 239 459 212 448 192 428 C 171 408 161 381 161 347 C 161 313 171 285 192 265 C 212 245 239 235 272 235 Z M 24 -69 C 24 -45 31 -23 46 -5 C 60 13 80 29 104 42 C 81 60 70 83 70 111 C 70 130 75 147 86 161 C 96 175 109 187 125 196 C 101 212 83 233 69 258 C 55 283 48 313 48 347 C 48 376 53 402 65 426 C 77 450 93 470 113 487 C 133 504 156 517 184 527 C 211 536 240 541 272 541 C 300 541 327 537 352 529 C 377 521 399 509 419 495 C 437 509 456 521 478 529 C 500 537 528 542 563 542 L 563 456 C 543 456 526 455 510 454 C 494 453 479 450 465 446 C 473 432 480 416 485 400 C 490 383 493 365 493 347 C 493 315 486 287 474 263 C 461 239 444 218 424 202 C 404 186 380 173 354 165 C 327 156 300 152 272 152 C 242 152 214 156 186 166 C 169 158 161 146 161 131 C 161 123 163 117 168 112 C 173 106 182 102 194 99 C 206 95 223 92 243 90 C 263 88 289 86 319 85 C 391 81 448 68 488 47 C 528 25 549 -9 549 -59 C 549 -105 527 -142 484 -169 C 441 -196 375 -210 286 -210 C 202 -210 137 -198 92 -174 C 46 -150 24 -115 24 -69 Z M 298 -9 C 276 -7 255 -6 237 -4 C 218 -2 201 1 186 5 C 170 -2 158 -11 149 -23 C 139 -35 135 -48 135 -64 C 135 -86 146 -103 169 -114 C 192 -124 229 -130 281 -130 C 386 -130 439 -110 439 -70 C 439 -48 428 -33 407 -25 C 386 -17 350 -11 298 -9 Z" unicode="ǵ" />
<glyph horiz-adv-x="708" d="M 413 1040 L 503 979 L 384 895 L 299 895 L 413 1040 Z M 353 700 C 370 700 384 705 396 717 C 408 729 414 743 414 761 C 414 778 408 792 396 804 C 384 816 370 822 353 822 C 336 822 322 816 310 804 C 298 792 293 778 293 761 C 293 744 298 730 309 719 C 319 707 332 701 348 700 L 353 700 Z M 239 248 L 467 248 L 354 574 L 352 574 L 239 248 Z M 275 680 C 263 689 254 701 248 715 C 242 729 239 744 239 761 C 239 777 242 791 248 805 C 254 818 262 829 272 839 C 282 849 294 856 308 862 C 322 868 337 871 353 871 C 369 871 384 868 398 862 C 412 856 424 849 434 839 C 444 829 453 818 459 805 C 465 791 468 777 468 761 C 468 744 464 729 458 715 C 451 701 442 689 431 680 L 683 0 L 554 0 L 501 151 L 206 151 L 154 0 L 24 0 L 275 680 Z" unicode="Ǻ" />
<glyph horiz-adv-x="549" d="M 356 1011 L 436 952 L 294 826 L 217 826 L 356 1011 Z M 280 578 C 264 578 249 580 235 586 C 221 592 209 599 199 609 C 189 619 181 630 175 644 C 169 657 166 671 166 687 C 166 703 169 717 175 731 C 181 744 189 755 199 765 C 209 775 221 782 235 788 C 249 794 264 797 280 797 C 296 797 310 794 324 788 C 338 782 350 775 360 765 C 370 755 379 744 385 731 C 391 717 394 703 394 687 C 394 671 391 657 385 644 C 379 630 370 619 360 609 C 350 599 338 592 324 586 C 310 580 296 578 280 578 Z M 280 626 C 297 626 311 631 323 643 C 335 655 341 669 341 687 C 341 704 335 718 323 730 C 311 742 297 748 280 748 C 262 748 248 742 236 730 C 224 718 219 704 219 687 C 219 669 224 655 236 643 C 248 631 262 626 280 626 Z M 161 138 C 161 118 167 103 181 92 C 194 81 211 76 233 76 C 259 76 283 80 303 90 C 323 100 340 112 354 128 L 354 241 C 331 240 308 238 285 235 C 262 231 241 226 223 218 C 204 210 189 200 178 187 C 166 174 161 158 161 138 Z M 45 128 C 45 160 53 187 69 209 C 85 231 106 250 134 265 C 162 279 194 290 232 298 C 270 306 310 311 354 313 L 354 372 C 354 394 347 411 333 425 C 319 439 298 446 268 446 C 242 446 215 441 187 431 C 159 421 130 408 101 394 L 58 485 C 90 500 124 513 162 524 C 200 535 236 541 272 541 C 307 541 337 536 362 528 C 387 520 408 508 424 493 C 440 477 451 459 459 438 C 466 417 470 394 470 369 L 470 130 C 470 112 474 100 483 93 C 491 85 503 82 519 82 L 519 -2 C 475 -2 442 2 420 12 C 398 21 381 37 368 60 C 346 38 322 20 296 7 C 270 -5 239 -12 204 -12 C 156 -12 118 0 89 26 C 59 52 45 86 45 128 Z" unicode="ǻ" />
<glyph horiz-adv-x="1057" d="M 566 900 L 656 839 L 537 755 L 452 755 L 566 900 Z M 264 251 L 510 251 L 418 594 L 414 594 L 264 251 Z M 339 700 L 994 700 L 994 594 L 537 594 L 590 406 L 955 406 L 955 306 L 619 306 L 676 106 L 1000 106 L 1000 0 L 577 0 L 536 151 L 220 151 L 154 0 L 19 0 L 339 700 Z" unicode="Ǽ" />
<glyph horiz-adv-x="883" d="M 519 769 L 599 710 L 457 584 L 380 584 L 519 769 Z M 409 81 C 399 69 387 57 373 46 C 359 34 343 24 326 16 C 309 7 291 0 271 -5 C 251 -10 230 -13 208 -13 C 158 -13 119 0 89 25 C 59 51 45 85 45 127 C 45 159 52 186 68 208 C 84 230 106 249 134 263 C 162 277 195 287 233 295 C 271 302 311 307 355 309 L 355 373 C 355 394 348 411 335 425 C 321 439 300 446 271 446 C 245 446 218 441 190 431 C 161 421 132 409 102 394 L 58 485 C 92 500 127 513 165 525 C 202 536 238 542 272 542 C 316 542 351 534 377 520 C 403 505 421 486 433 462 C 454 487 480 507 511 521 C 541 535 576 542 615 542 C 653 542 686 535 714 523 C 742 511 765 494 783 473 C 801 451 815 426 825 396 C 834 366 839 334 839 300 C 839 292 838 282 837 272 C 836 262 835 253 834 247 L 472 247 C 474 193 488 152 513 124 C 538 96 575 82 623 82 C 650 82 676 86 701 95 C 725 104 749 116 771 130 L 822 53 C 790 31 757 14 723 3 C 689 -7 654 -13 618 -13 C 572 -13 531 -5 496 11 C 461 27 432 50 409 81 Z M 726 322 C 726 340 724 358 720 374 C 716 390 709 404 701 416 C 692 428 681 437 667 444 C 653 451 636 455 616 455 C 580 455 549 443 524 420 C 499 396 483 364 475 322 L 726 322 Z M 162 137 C 162 119 168 104 182 92 C 195 80 212 75 234 75 C 265 75 292 81 315 95 C 337 109 356 127 372 149 C 362 177 357 207 355 240 C 332 239 309 237 286 234 C 263 230 242 225 224 218 C 206 210 191 200 179 187 C 167 174 162 157 162 137 Z" unicode="ǽ" />
<glyph horiz-adv-x="811" d="M 465 900 L 555 839 L 436 755 L 351 755 L 465 900 Z M 171 354 C 171 316 176 282 186 252 C 196 222 211 195 229 173 L 537 571 C 518 583 498 592 476 599 C 454 605 430 609 406 609 C 372 609 341 603 313 591 C 284 579 259 563 238 541 C 217 519 201 492 189 460 C 177 428 171 393 171 354 Z M 641 354 C 641 390 635 422 625 452 C 615 481 601 506 584 528 L 275 130 C 312 104 356 92 406 92 C 439 92 470 98 498 110 C 526 122 551 139 573 161 C 594 183 611 211 623 244 C 635 276 641 313 641 354 Z M 48 354 C 48 408 57 457 75 501 C 93 545 119 583 151 614 C 183 645 220 669 264 686 C 308 703 355 712 406 712 C 479 712 544 694 602 660 L 661 736 L 720 689 L 659 615 C 691 583 717 546 735 502 C 753 458 763 408 763 354 C 763 298 754 248 736 203 C 718 158 693 120 661 88 C 629 56 591 31 547 14 C 503 -3 456 -12 406 -12 C 332 -12 267 5 211 40 L 150 -36 L 92 9 L 154 85 C 120 117 94 155 76 201 C 57 246 48 297 48 354 Z" unicode="Ǿ" />
<glyph horiz-adv-x="609" d="M 377 769 L 457 710 L 315 584 L 238 584 L 377 769 Z M 161 270 C 161 226 168 190 182 160 L 386 421 C 363 439 336 449 305 449 C 283 449 264 444 246 436 C 228 427 213 415 201 399 C 188 383 178 365 171 343 C 164 321 161 296 161 270 Z M 446 270 C 446 289 444 307 440 324 C 436 340 431 356 425 370 L 219 109 C 242 89 271 79 305 79 C 349 79 383 96 408 131 C 433 165 446 212 446 270 Z M 43 271 C 43 312 49 349 63 382 C 76 415 94 443 118 467 C 141 491 169 509 201 522 C 233 534 267 541 305 541 C 331 541 356 537 380 531 C 404 524 426 515 446 503 L 501 575 L 559 529 L 500 457 C 520 433 536 406 548 375 C 559 343 565 309 565 271 C 565 227 558 187 546 153 C 533 118 515 88 493 64 C 470 39 443 20 411 7 C 379 -5 343 -12 305 -12 C 249 -12 201 0 161 26 L 100 -51 L 41 -7 L 106 73 C 86 97 70 126 59 159 C 48 192 43 229 43 271 Z" unicode="ǿ" />
<glyph horiz-adv-x="708" d="M 418 755 L 299 839 L 389 900 L 504 755 L 418 755 Z M 240 755 L 121 839 L 211 900 L 325 755 L 240 755 Z M 239 248 L 467 248 L 354 574 L 352 574 L 239 248 Z M 283 700 L 424 700 L 683 0 L 554 0 L 501 151 L 206 151 L 154 0 L 24 0 L 283 700 Z" unicode="Ȁ" />
<glyph horiz-adv-x="549" d="M 417 584 L 343 584 L 210 714 L 291 769 L 417 584 Z M 241 584 L 167 584 L 32 714 L 113 769 L 241 584 Z M 161 138 C 161 118 167 103 181 92 C 194 81 211 76 233 76 C 259 76 283 80 303 90 C 323 100 340 112 354 128 L 354 241 C 331 240 308 238 285 235 C 262 231 241 226 223 218 C 204 210 189 200 178 187 C 166 174 161 158 161 138 Z M 45 128 C 45 160 53 187 69 209 C 85 231 106 250 134 265 C 162 279 194 290 232 298 C 270 306 310 311 354 313 L 354 372 C 354 394 347 411 333 425 C 319 439 298 446 268 446 C 242 446 215 441 187 431 C 159 421 130 408 101 394 L 58 485 C 90 500 124 513 162 524 C 200 535 236 541 272 541 C 307 541 337 536 362 528 C 387 520 408 508 424 493 C 440 477 451 459 459 438 C 466 417 470 394 470 369 L 470 130 C 470 112 474 100 483 93 C 491 85 503 82 519 82 L 519 -2 C 475 -2 442 2 420 12 C 398 21 381 37 368 60 C 346 38 322 20 296 7 C 270 -5 239 -12 204 -12 C 156 -12 118 0 89 26 C 59 52 45 86 45 128 Z" unicode="ȁ" />
<glyph horiz-adv-x="708" d="M 353 883 C 401 883 439 871 469 849 C 498 826 517 795 527 755 L 447 755 C 439 771 428 784 412 794 C 396 803 376 808 353 808 C 329 808 309 803 293 794 C 277 784 266 771 259 755 L 180 755 C 189 795 208 826 238 849 C 267 871 305 883 353 883 Z M 239 248 L 467 248 L 354 574 L 352 574 L 239 248 Z M 283 700 L 424 700 L 683 0 L 554 0 L 501 151 L 206 151 L 154 0 L 24 0 L 283 700 Z" unicode="Ȃ" />
</font>
</defs>
</svg>
